%TF.GenerationSoftware,KiCad,Pcbnew,(5.1.10)-1*%
%TF.CreationDate,2021-07-10T16:23:30-04:00*%
%TF.ProjectId,RICM_pico,5249434d-5f70-4696-936f-2e6b69636164,rev?*%
%TF.SameCoordinates,Original*%
%TF.FileFunction,Paste,Top*%
%TF.FilePolarity,Positive*%
%FSLAX46Y46*%
G04 Gerber Fmt 4.6, Leading zero omitted, Abs format (unit mm)*
G04 Created by KiCad (PCBNEW (5.1.10)-1) date 2021-07-10 16:23:30*
%MOMM*%
%LPD*%
G01*
G04 APERTURE LIST*
G04 APERTURE END LIST*
%TO.C,U5*%
G36*
G01*
X170281000Y-121473000D02*
X170281000Y-121773000D01*
G75*
G02*
X170131000Y-121923000I-150000J0D01*
G01*
X168381000Y-121923000D01*
G75*
G02*
X168231000Y-121773000I0J150000D01*
G01*
X168231000Y-121473000D01*
G75*
G02*
X168381000Y-121323000I150000J0D01*
G01*
X170131000Y-121323000D01*
G75*
G02*
X170281000Y-121473000I0J-150000D01*
G01*
G37*
G36*
G01*
X170281000Y-120203000D02*
X170281000Y-120503000D01*
G75*
G02*
X170131000Y-120653000I-150000J0D01*
G01*
X168381000Y-120653000D01*
G75*
G02*
X168231000Y-120503000I0J150000D01*
G01*
X168231000Y-120203000D01*
G75*
G02*
X168381000Y-120053000I150000J0D01*
G01*
X170131000Y-120053000D01*
G75*
G02*
X170281000Y-120203000I0J-150000D01*
G01*
G37*
G36*
G01*
X170281000Y-118933000D02*
X170281000Y-119233000D01*
G75*
G02*
X170131000Y-119383000I-150000J0D01*
G01*
X168381000Y-119383000D01*
G75*
G02*
X168231000Y-119233000I0J150000D01*
G01*
X168231000Y-118933000D01*
G75*
G02*
X168381000Y-118783000I150000J0D01*
G01*
X170131000Y-118783000D01*
G75*
G02*
X170281000Y-118933000I0J-150000D01*
G01*
G37*
G36*
G01*
X170281000Y-117663000D02*
X170281000Y-117963000D01*
G75*
G02*
X170131000Y-118113000I-150000J0D01*
G01*
X168381000Y-118113000D01*
G75*
G02*
X168231000Y-117963000I0J150000D01*
G01*
X168231000Y-117663000D01*
G75*
G02*
X168381000Y-117513000I150000J0D01*
G01*
X170131000Y-117513000D01*
G75*
G02*
X170281000Y-117663000I0J-150000D01*
G01*
G37*
G36*
G01*
X170281000Y-116393000D02*
X170281000Y-116693000D01*
G75*
G02*
X170131000Y-116843000I-150000J0D01*
G01*
X168381000Y-116843000D01*
G75*
G02*
X168231000Y-116693000I0J150000D01*
G01*
X168231000Y-116393000D01*
G75*
G02*
X168381000Y-116243000I150000J0D01*
G01*
X170131000Y-116243000D01*
G75*
G02*
X170281000Y-116393000I0J-150000D01*
G01*
G37*
G36*
G01*
X170281000Y-115123000D02*
X170281000Y-115423000D01*
G75*
G02*
X170131000Y-115573000I-150000J0D01*
G01*
X168381000Y-115573000D01*
G75*
G02*
X168231000Y-115423000I0J150000D01*
G01*
X168231000Y-115123000D01*
G75*
G02*
X168381000Y-114973000I150000J0D01*
G01*
X170131000Y-114973000D01*
G75*
G02*
X170281000Y-115123000I0J-150000D01*
G01*
G37*
G36*
G01*
X170281000Y-113853000D02*
X170281000Y-114153000D01*
G75*
G02*
X170131000Y-114303000I-150000J0D01*
G01*
X168381000Y-114303000D01*
G75*
G02*
X168231000Y-114153000I0J150000D01*
G01*
X168231000Y-113853000D01*
G75*
G02*
X168381000Y-113703000I150000J0D01*
G01*
X170131000Y-113703000D01*
G75*
G02*
X170281000Y-113853000I0J-150000D01*
G01*
G37*
G36*
G01*
X170281000Y-112583000D02*
X170281000Y-112883000D01*
G75*
G02*
X170131000Y-113033000I-150000J0D01*
G01*
X168381000Y-113033000D01*
G75*
G02*
X168231000Y-112883000I0J150000D01*
G01*
X168231000Y-112583000D01*
G75*
G02*
X168381000Y-112433000I150000J0D01*
G01*
X170131000Y-112433000D01*
G75*
G02*
X170281000Y-112583000I0J-150000D01*
G01*
G37*
G36*
G01*
X170281000Y-111313000D02*
X170281000Y-111613000D01*
G75*
G02*
X170131000Y-111763000I-150000J0D01*
G01*
X168381000Y-111763000D01*
G75*
G02*
X168231000Y-111613000I0J150000D01*
G01*
X168231000Y-111313000D01*
G75*
G02*
X168381000Y-111163000I150000J0D01*
G01*
X170131000Y-111163000D01*
G75*
G02*
X170281000Y-111313000I0J-150000D01*
G01*
G37*
G36*
G01*
X170281000Y-110043000D02*
X170281000Y-110343000D01*
G75*
G02*
X170131000Y-110493000I-150000J0D01*
G01*
X168381000Y-110493000D01*
G75*
G02*
X168231000Y-110343000I0J150000D01*
G01*
X168231000Y-110043000D01*
G75*
G02*
X168381000Y-109893000I150000J0D01*
G01*
X170131000Y-109893000D01*
G75*
G02*
X170281000Y-110043000I0J-150000D01*
G01*
G37*
G36*
G01*
X170281000Y-108773000D02*
X170281000Y-109073000D01*
G75*
G02*
X170131000Y-109223000I-150000J0D01*
G01*
X168381000Y-109223000D01*
G75*
G02*
X168231000Y-109073000I0J150000D01*
G01*
X168231000Y-108773000D01*
G75*
G02*
X168381000Y-108623000I150000J0D01*
G01*
X170131000Y-108623000D01*
G75*
G02*
X170281000Y-108773000I0J-150000D01*
G01*
G37*
G36*
G01*
X170281000Y-107503000D02*
X170281000Y-107803000D01*
G75*
G02*
X170131000Y-107953000I-150000J0D01*
G01*
X168381000Y-107953000D01*
G75*
G02*
X168231000Y-107803000I0J150000D01*
G01*
X168231000Y-107503000D01*
G75*
G02*
X168381000Y-107353000I150000J0D01*
G01*
X170131000Y-107353000D01*
G75*
G02*
X170281000Y-107503000I0J-150000D01*
G01*
G37*
G36*
G01*
X160981000Y-107503000D02*
X160981000Y-107803000D01*
G75*
G02*
X160831000Y-107953000I-150000J0D01*
G01*
X159081000Y-107953000D01*
G75*
G02*
X158931000Y-107803000I0J150000D01*
G01*
X158931000Y-107503000D01*
G75*
G02*
X159081000Y-107353000I150000J0D01*
G01*
X160831000Y-107353000D01*
G75*
G02*
X160981000Y-107503000I0J-150000D01*
G01*
G37*
G36*
G01*
X160981000Y-108773000D02*
X160981000Y-109073000D01*
G75*
G02*
X160831000Y-109223000I-150000J0D01*
G01*
X159081000Y-109223000D01*
G75*
G02*
X158931000Y-109073000I0J150000D01*
G01*
X158931000Y-108773000D01*
G75*
G02*
X159081000Y-108623000I150000J0D01*
G01*
X160831000Y-108623000D01*
G75*
G02*
X160981000Y-108773000I0J-150000D01*
G01*
G37*
G36*
G01*
X160981000Y-110043000D02*
X160981000Y-110343000D01*
G75*
G02*
X160831000Y-110493000I-150000J0D01*
G01*
X159081000Y-110493000D01*
G75*
G02*
X158931000Y-110343000I0J150000D01*
G01*
X158931000Y-110043000D01*
G75*
G02*
X159081000Y-109893000I150000J0D01*
G01*
X160831000Y-109893000D01*
G75*
G02*
X160981000Y-110043000I0J-150000D01*
G01*
G37*
G36*
G01*
X160981000Y-111313000D02*
X160981000Y-111613000D01*
G75*
G02*
X160831000Y-111763000I-150000J0D01*
G01*
X159081000Y-111763000D01*
G75*
G02*
X158931000Y-111613000I0J150000D01*
G01*
X158931000Y-111313000D01*
G75*
G02*
X159081000Y-111163000I150000J0D01*
G01*
X160831000Y-111163000D01*
G75*
G02*
X160981000Y-111313000I0J-150000D01*
G01*
G37*
G36*
G01*
X160981000Y-112583000D02*
X160981000Y-112883000D01*
G75*
G02*
X160831000Y-113033000I-150000J0D01*
G01*
X159081000Y-113033000D01*
G75*
G02*
X158931000Y-112883000I0J150000D01*
G01*
X158931000Y-112583000D01*
G75*
G02*
X159081000Y-112433000I150000J0D01*
G01*
X160831000Y-112433000D01*
G75*
G02*
X160981000Y-112583000I0J-150000D01*
G01*
G37*
G36*
G01*
X160981000Y-113853000D02*
X160981000Y-114153000D01*
G75*
G02*
X160831000Y-114303000I-150000J0D01*
G01*
X159081000Y-114303000D01*
G75*
G02*
X158931000Y-114153000I0J150000D01*
G01*
X158931000Y-113853000D01*
G75*
G02*
X159081000Y-113703000I150000J0D01*
G01*
X160831000Y-113703000D01*
G75*
G02*
X160981000Y-113853000I0J-150000D01*
G01*
G37*
G36*
G01*
X160981000Y-115123000D02*
X160981000Y-115423000D01*
G75*
G02*
X160831000Y-115573000I-150000J0D01*
G01*
X159081000Y-115573000D01*
G75*
G02*
X158931000Y-115423000I0J150000D01*
G01*
X158931000Y-115123000D01*
G75*
G02*
X159081000Y-114973000I150000J0D01*
G01*
X160831000Y-114973000D01*
G75*
G02*
X160981000Y-115123000I0J-150000D01*
G01*
G37*
G36*
G01*
X160981000Y-116393000D02*
X160981000Y-116693000D01*
G75*
G02*
X160831000Y-116843000I-150000J0D01*
G01*
X159081000Y-116843000D01*
G75*
G02*
X158931000Y-116693000I0J150000D01*
G01*
X158931000Y-116393000D01*
G75*
G02*
X159081000Y-116243000I150000J0D01*
G01*
X160831000Y-116243000D01*
G75*
G02*
X160981000Y-116393000I0J-150000D01*
G01*
G37*
G36*
G01*
X160981000Y-117663000D02*
X160981000Y-117963000D01*
G75*
G02*
X160831000Y-118113000I-150000J0D01*
G01*
X159081000Y-118113000D01*
G75*
G02*
X158931000Y-117963000I0J150000D01*
G01*
X158931000Y-117663000D01*
G75*
G02*
X159081000Y-117513000I150000J0D01*
G01*
X160831000Y-117513000D01*
G75*
G02*
X160981000Y-117663000I0J-150000D01*
G01*
G37*
G36*
G01*
X160981000Y-118933000D02*
X160981000Y-119233000D01*
G75*
G02*
X160831000Y-119383000I-150000J0D01*
G01*
X159081000Y-119383000D01*
G75*
G02*
X158931000Y-119233000I0J150000D01*
G01*
X158931000Y-118933000D01*
G75*
G02*
X159081000Y-118783000I150000J0D01*
G01*
X160831000Y-118783000D01*
G75*
G02*
X160981000Y-118933000I0J-150000D01*
G01*
G37*
G36*
G01*
X160981000Y-120203000D02*
X160981000Y-120503000D01*
G75*
G02*
X160831000Y-120653000I-150000J0D01*
G01*
X159081000Y-120653000D01*
G75*
G02*
X158931000Y-120503000I0J150000D01*
G01*
X158931000Y-120203000D01*
G75*
G02*
X159081000Y-120053000I150000J0D01*
G01*
X160831000Y-120053000D01*
G75*
G02*
X160981000Y-120203000I0J-150000D01*
G01*
G37*
G36*
G01*
X160981000Y-121473000D02*
X160981000Y-121773000D01*
G75*
G02*
X160831000Y-121923000I-150000J0D01*
G01*
X159081000Y-121923000D01*
G75*
G02*
X158931000Y-121773000I0J150000D01*
G01*
X158931000Y-121473000D01*
G75*
G02*
X159081000Y-121323000I150000J0D01*
G01*
X160831000Y-121323000D01*
G75*
G02*
X160981000Y-121473000I0J-150000D01*
G01*
G37*
%TD*%
%TO.C,U4*%
G36*
G01*
X156311000Y-121473000D02*
X156311000Y-121773000D01*
G75*
G02*
X156161000Y-121923000I-150000J0D01*
G01*
X154411000Y-121923000D01*
G75*
G02*
X154261000Y-121773000I0J150000D01*
G01*
X154261000Y-121473000D01*
G75*
G02*
X154411000Y-121323000I150000J0D01*
G01*
X156161000Y-121323000D01*
G75*
G02*
X156311000Y-121473000I0J-150000D01*
G01*
G37*
G36*
G01*
X156311000Y-120203000D02*
X156311000Y-120503000D01*
G75*
G02*
X156161000Y-120653000I-150000J0D01*
G01*
X154411000Y-120653000D01*
G75*
G02*
X154261000Y-120503000I0J150000D01*
G01*
X154261000Y-120203000D01*
G75*
G02*
X154411000Y-120053000I150000J0D01*
G01*
X156161000Y-120053000D01*
G75*
G02*
X156311000Y-120203000I0J-150000D01*
G01*
G37*
G36*
G01*
X156311000Y-118933000D02*
X156311000Y-119233000D01*
G75*
G02*
X156161000Y-119383000I-150000J0D01*
G01*
X154411000Y-119383000D01*
G75*
G02*
X154261000Y-119233000I0J150000D01*
G01*
X154261000Y-118933000D01*
G75*
G02*
X154411000Y-118783000I150000J0D01*
G01*
X156161000Y-118783000D01*
G75*
G02*
X156311000Y-118933000I0J-150000D01*
G01*
G37*
G36*
G01*
X156311000Y-117663000D02*
X156311000Y-117963000D01*
G75*
G02*
X156161000Y-118113000I-150000J0D01*
G01*
X154411000Y-118113000D01*
G75*
G02*
X154261000Y-117963000I0J150000D01*
G01*
X154261000Y-117663000D01*
G75*
G02*
X154411000Y-117513000I150000J0D01*
G01*
X156161000Y-117513000D01*
G75*
G02*
X156311000Y-117663000I0J-150000D01*
G01*
G37*
G36*
G01*
X156311000Y-116393000D02*
X156311000Y-116693000D01*
G75*
G02*
X156161000Y-116843000I-150000J0D01*
G01*
X154411000Y-116843000D01*
G75*
G02*
X154261000Y-116693000I0J150000D01*
G01*
X154261000Y-116393000D01*
G75*
G02*
X154411000Y-116243000I150000J0D01*
G01*
X156161000Y-116243000D01*
G75*
G02*
X156311000Y-116393000I0J-150000D01*
G01*
G37*
G36*
G01*
X156311000Y-115123000D02*
X156311000Y-115423000D01*
G75*
G02*
X156161000Y-115573000I-150000J0D01*
G01*
X154411000Y-115573000D01*
G75*
G02*
X154261000Y-115423000I0J150000D01*
G01*
X154261000Y-115123000D01*
G75*
G02*
X154411000Y-114973000I150000J0D01*
G01*
X156161000Y-114973000D01*
G75*
G02*
X156311000Y-115123000I0J-150000D01*
G01*
G37*
G36*
G01*
X156311000Y-113853000D02*
X156311000Y-114153000D01*
G75*
G02*
X156161000Y-114303000I-150000J0D01*
G01*
X154411000Y-114303000D01*
G75*
G02*
X154261000Y-114153000I0J150000D01*
G01*
X154261000Y-113853000D01*
G75*
G02*
X154411000Y-113703000I150000J0D01*
G01*
X156161000Y-113703000D01*
G75*
G02*
X156311000Y-113853000I0J-150000D01*
G01*
G37*
G36*
G01*
X156311000Y-112583000D02*
X156311000Y-112883000D01*
G75*
G02*
X156161000Y-113033000I-150000J0D01*
G01*
X154411000Y-113033000D01*
G75*
G02*
X154261000Y-112883000I0J150000D01*
G01*
X154261000Y-112583000D01*
G75*
G02*
X154411000Y-112433000I150000J0D01*
G01*
X156161000Y-112433000D01*
G75*
G02*
X156311000Y-112583000I0J-150000D01*
G01*
G37*
G36*
G01*
X156311000Y-111313000D02*
X156311000Y-111613000D01*
G75*
G02*
X156161000Y-111763000I-150000J0D01*
G01*
X154411000Y-111763000D01*
G75*
G02*
X154261000Y-111613000I0J150000D01*
G01*
X154261000Y-111313000D01*
G75*
G02*
X154411000Y-111163000I150000J0D01*
G01*
X156161000Y-111163000D01*
G75*
G02*
X156311000Y-111313000I0J-150000D01*
G01*
G37*
G36*
G01*
X156311000Y-110043000D02*
X156311000Y-110343000D01*
G75*
G02*
X156161000Y-110493000I-150000J0D01*
G01*
X154411000Y-110493000D01*
G75*
G02*
X154261000Y-110343000I0J150000D01*
G01*
X154261000Y-110043000D01*
G75*
G02*
X154411000Y-109893000I150000J0D01*
G01*
X156161000Y-109893000D01*
G75*
G02*
X156311000Y-110043000I0J-150000D01*
G01*
G37*
G36*
G01*
X156311000Y-108773000D02*
X156311000Y-109073000D01*
G75*
G02*
X156161000Y-109223000I-150000J0D01*
G01*
X154411000Y-109223000D01*
G75*
G02*
X154261000Y-109073000I0J150000D01*
G01*
X154261000Y-108773000D01*
G75*
G02*
X154411000Y-108623000I150000J0D01*
G01*
X156161000Y-108623000D01*
G75*
G02*
X156311000Y-108773000I0J-150000D01*
G01*
G37*
G36*
G01*
X156311000Y-107503000D02*
X156311000Y-107803000D01*
G75*
G02*
X156161000Y-107953000I-150000J0D01*
G01*
X154411000Y-107953000D01*
G75*
G02*
X154261000Y-107803000I0J150000D01*
G01*
X154261000Y-107503000D01*
G75*
G02*
X154411000Y-107353000I150000J0D01*
G01*
X156161000Y-107353000D01*
G75*
G02*
X156311000Y-107503000I0J-150000D01*
G01*
G37*
G36*
G01*
X147011000Y-107503000D02*
X147011000Y-107803000D01*
G75*
G02*
X146861000Y-107953000I-150000J0D01*
G01*
X145111000Y-107953000D01*
G75*
G02*
X144961000Y-107803000I0J150000D01*
G01*
X144961000Y-107503000D01*
G75*
G02*
X145111000Y-107353000I150000J0D01*
G01*
X146861000Y-107353000D01*
G75*
G02*
X147011000Y-107503000I0J-150000D01*
G01*
G37*
G36*
G01*
X147011000Y-108773000D02*
X147011000Y-109073000D01*
G75*
G02*
X146861000Y-109223000I-150000J0D01*
G01*
X145111000Y-109223000D01*
G75*
G02*
X144961000Y-109073000I0J150000D01*
G01*
X144961000Y-108773000D01*
G75*
G02*
X145111000Y-108623000I150000J0D01*
G01*
X146861000Y-108623000D01*
G75*
G02*
X147011000Y-108773000I0J-150000D01*
G01*
G37*
G36*
G01*
X147011000Y-110043000D02*
X147011000Y-110343000D01*
G75*
G02*
X146861000Y-110493000I-150000J0D01*
G01*
X145111000Y-110493000D01*
G75*
G02*
X144961000Y-110343000I0J150000D01*
G01*
X144961000Y-110043000D01*
G75*
G02*
X145111000Y-109893000I150000J0D01*
G01*
X146861000Y-109893000D01*
G75*
G02*
X147011000Y-110043000I0J-150000D01*
G01*
G37*
G36*
G01*
X147011000Y-111313000D02*
X147011000Y-111613000D01*
G75*
G02*
X146861000Y-111763000I-150000J0D01*
G01*
X145111000Y-111763000D01*
G75*
G02*
X144961000Y-111613000I0J150000D01*
G01*
X144961000Y-111313000D01*
G75*
G02*
X145111000Y-111163000I150000J0D01*
G01*
X146861000Y-111163000D01*
G75*
G02*
X147011000Y-111313000I0J-150000D01*
G01*
G37*
G36*
G01*
X147011000Y-112583000D02*
X147011000Y-112883000D01*
G75*
G02*
X146861000Y-113033000I-150000J0D01*
G01*
X145111000Y-113033000D01*
G75*
G02*
X144961000Y-112883000I0J150000D01*
G01*
X144961000Y-112583000D01*
G75*
G02*
X145111000Y-112433000I150000J0D01*
G01*
X146861000Y-112433000D01*
G75*
G02*
X147011000Y-112583000I0J-150000D01*
G01*
G37*
G36*
G01*
X147011000Y-113853000D02*
X147011000Y-114153000D01*
G75*
G02*
X146861000Y-114303000I-150000J0D01*
G01*
X145111000Y-114303000D01*
G75*
G02*
X144961000Y-114153000I0J150000D01*
G01*
X144961000Y-113853000D01*
G75*
G02*
X145111000Y-113703000I150000J0D01*
G01*
X146861000Y-113703000D01*
G75*
G02*
X147011000Y-113853000I0J-150000D01*
G01*
G37*
G36*
G01*
X147011000Y-115123000D02*
X147011000Y-115423000D01*
G75*
G02*
X146861000Y-115573000I-150000J0D01*
G01*
X145111000Y-115573000D01*
G75*
G02*
X144961000Y-115423000I0J150000D01*
G01*
X144961000Y-115123000D01*
G75*
G02*
X145111000Y-114973000I150000J0D01*
G01*
X146861000Y-114973000D01*
G75*
G02*
X147011000Y-115123000I0J-150000D01*
G01*
G37*
G36*
G01*
X147011000Y-116393000D02*
X147011000Y-116693000D01*
G75*
G02*
X146861000Y-116843000I-150000J0D01*
G01*
X145111000Y-116843000D01*
G75*
G02*
X144961000Y-116693000I0J150000D01*
G01*
X144961000Y-116393000D01*
G75*
G02*
X145111000Y-116243000I150000J0D01*
G01*
X146861000Y-116243000D01*
G75*
G02*
X147011000Y-116393000I0J-150000D01*
G01*
G37*
G36*
G01*
X147011000Y-117663000D02*
X147011000Y-117963000D01*
G75*
G02*
X146861000Y-118113000I-150000J0D01*
G01*
X145111000Y-118113000D01*
G75*
G02*
X144961000Y-117963000I0J150000D01*
G01*
X144961000Y-117663000D01*
G75*
G02*
X145111000Y-117513000I150000J0D01*
G01*
X146861000Y-117513000D01*
G75*
G02*
X147011000Y-117663000I0J-150000D01*
G01*
G37*
G36*
G01*
X147011000Y-118933000D02*
X147011000Y-119233000D01*
G75*
G02*
X146861000Y-119383000I-150000J0D01*
G01*
X145111000Y-119383000D01*
G75*
G02*
X144961000Y-119233000I0J150000D01*
G01*
X144961000Y-118933000D01*
G75*
G02*
X145111000Y-118783000I150000J0D01*
G01*
X146861000Y-118783000D01*
G75*
G02*
X147011000Y-118933000I0J-150000D01*
G01*
G37*
G36*
G01*
X147011000Y-120203000D02*
X147011000Y-120503000D01*
G75*
G02*
X146861000Y-120653000I-150000J0D01*
G01*
X145111000Y-120653000D01*
G75*
G02*
X144961000Y-120503000I0J150000D01*
G01*
X144961000Y-120203000D01*
G75*
G02*
X145111000Y-120053000I150000J0D01*
G01*
X146861000Y-120053000D01*
G75*
G02*
X147011000Y-120203000I0J-150000D01*
G01*
G37*
G36*
G01*
X147011000Y-121473000D02*
X147011000Y-121773000D01*
G75*
G02*
X146861000Y-121923000I-150000J0D01*
G01*
X145111000Y-121923000D01*
G75*
G02*
X144961000Y-121773000I0J150000D01*
G01*
X144961000Y-121473000D01*
G75*
G02*
X145111000Y-121323000I150000J0D01*
G01*
X146861000Y-121323000D01*
G75*
G02*
X147011000Y-121473000I0J-150000D01*
G01*
G37*
%TD*%
%TO.C,U3*%
G36*
G01*
X142341000Y-121473000D02*
X142341000Y-121773000D01*
G75*
G02*
X142191000Y-121923000I-150000J0D01*
G01*
X140441000Y-121923000D01*
G75*
G02*
X140291000Y-121773000I0J150000D01*
G01*
X140291000Y-121473000D01*
G75*
G02*
X140441000Y-121323000I150000J0D01*
G01*
X142191000Y-121323000D01*
G75*
G02*
X142341000Y-121473000I0J-150000D01*
G01*
G37*
G36*
G01*
X142341000Y-120203000D02*
X142341000Y-120503000D01*
G75*
G02*
X142191000Y-120653000I-150000J0D01*
G01*
X140441000Y-120653000D01*
G75*
G02*
X140291000Y-120503000I0J150000D01*
G01*
X140291000Y-120203000D01*
G75*
G02*
X140441000Y-120053000I150000J0D01*
G01*
X142191000Y-120053000D01*
G75*
G02*
X142341000Y-120203000I0J-150000D01*
G01*
G37*
G36*
G01*
X142341000Y-118933000D02*
X142341000Y-119233000D01*
G75*
G02*
X142191000Y-119383000I-150000J0D01*
G01*
X140441000Y-119383000D01*
G75*
G02*
X140291000Y-119233000I0J150000D01*
G01*
X140291000Y-118933000D01*
G75*
G02*
X140441000Y-118783000I150000J0D01*
G01*
X142191000Y-118783000D01*
G75*
G02*
X142341000Y-118933000I0J-150000D01*
G01*
G37*
G36*
G01*
X142341000Y-117663000D02*
X142341000Y-117963000D01*
G75*
G02*
X142191000Y-118113000I-150000J0D01*
G01*
X140441000Y-118113000D01*
G75*
G02*
X140291000Y-117963000I0J150000D01*
G01*
X140291000Y-117663000D01*
G75*
G02*
X140441000Y-117513000I150000J0D01*
G01*
X142191000Y-117513000D01*
G75*
G02*
X142341000Y-117663000I0J-150000D01*
G01*
G37*
G36*
G01*
X142341000Y-116393000D02*
X142341000Y-116693000D01*
G75*
G02*
X142191000Y-116843000I-150000J0D01*
G01*
X140441000Y-116843000D01*
G75*
G02*
X140291000Y-116693000I0J150000D01*
G01*
X140291000Y-116393000D01*
G75*
G02*
X140441000Y-116243000I150000J0D01*
G01*
X142191000Y-116243000D01*
G75*
G02*
X142341000Y-116393000I0J-150000D01*
G01*
G37*
G36*
G01*
X142341000Y-115123000D02*
X142341000Y-115423000D01*
G75*
G02*
X142191000Y-115573000I-150000J0D01*
G01*
X140441000Y-115573000D01*
G75*
G02*
X140291000Y-115423000I0J150000D01*
G01*
X140291000Y-115123000D01*
G75*
G02*
X140441000Y-114973000I150000J0D01*
G01*
X142191000Y-114973000D01*
G75*
G02*
X142341000Y-115123000I0J-150000D01*
G01*
G37*
G36*
G01*
X142341000Y-113853000D02*
X142341000Y-114153000D01*
G75*
G02*
X142191000Y-114303000I-150000J0D01*
G01*
X140441000Y-114303000D01*
G75*
G02*
X140291000Y-114153000I0J150000D01*
G01*
X140291000Y-113853000D01*
G75*
G02*
X140441000Y-113703000I150000J0D01*
G01*
X142191000Y-113703000D01*
G75*
G02*
X142341000Y-113853000I0J-150000D01*
G01*
G37*
G36*
G01*
X142341000Y-112583000D02*
X142341000Y-112883000D01*
G75*
G02*
X142191000Y-113033000I-150000J0D01*
G01*
X140441000Y-113033000D01*
G75*
G02*
X140291000Y-112883000I0J150000D01*
G01*
X140291000Y-112583000D01*
G75*
G02*
X140441000Y-112433000I150000J0D01*
G01*
X142191000Y-112433000D01*
G75*
G02*
X142341000Y-112583000I0J-150000D01*
G01*
G37*
G36*
G01*
X142341000Y-111313000D02*
X142341000Y-111613000D01*
G75*
G02*
X142191000Y-111763000I-150000J0D01*
G01*
X140441000Y-111763000D01*
G75*
G02*
X140291000Y-111613000I0J150000D01*
G01*
X140291000Y-111313000D01*
G75*
G02*
X140441000Y-111163000I150000J0D01*
G01*
X142191000Y-111163000D01*
G75*
G02*
X142341000Y-111313000I0J-150000D01*
G01*
G37*
G36*
G01*
X142341000Y-110043000D02*
X142341000Y-110343000D01*
G75*
G02*
X142191000Y-110493000I-150000J0D01*
G01*
X140441000Y-110493000D01*
G75*
G02*
X140291000Y-110343000I0J150000D01*
G01*
X140291000Y-110043000D01*
G75*
G02*
X140441000Y-109893000I150000J0D01*
G01*
X142191000Y-109893000D01*
G75*
G02*
X142341000Y-110043000I0J-150000D01*
G01*
G37*
G36*
G01*
X142341000Y-108773000D02*
X142341000Y-109073000D01*
G75*
G02*
X142191000Y-109223000I-150000J0D01*
G01*
X140441000Y-109223000D01*
G75*
G02*
X140291000Y-109073000I0J150000D01*
G01*
X140291000Y-108773000D01*
G75*
G02*
X140441000Y-108623000I150000J0D01*
G01*
X142191000Y-108623000D01*
G75*
G02*
X142341000Y-108773000I0J-150000D01*
G01*
G37*
G36*
G01*
X142341000Y-107503000D02*
X142341000Y-107803000D01*
G75*
G02*
X142191000Y-107953000I-150000J0D01*
G01*
X140441000Y-107953000D01*
G75*
G02*
X140291000Y-107803000I0J150000D01*
G01*
X140291000Y-107503000D01*
G75*
G02*
X140441000Y-107353000I150000J0D01*
G01*
X142191000Y-107353000D01*
G75*
G02*
X142341000Y-107503000I0J-150000D01*
G01*
G37*
G36*
G01*
X133041000Y-107503000D02*
X133041000Y-107803000D01*
G75*
G02*
X132891000Y-107953000I-150000J0D01*
G01*
X131141000Y-107953000D01*
G75*
G02*
X130991000Y-107803000I0J150000D01*
G01*
X130991000Y-107503000D01*
G75*
G02*
X131141000Y-107353000I150000J0D01*
G01*
X132891000Y-107353000D01*
G75*
G02*
X133041000Y-107503000I0J-150000D01*
G01*
G37*
G36*
G01*
X133041000Y-108773000D02*
X133041000Y-109073000D01*
G75*
G02*
X132891000Y-109223000I-150000J0D01*
G01*
X131141000Y-109223000D01*
G75*
G02*
X130991000Y-109073000I0J150000D01*
G01*
X130991000Y-108773000D01*
G75*
G02*
X131141000Y-108623000I150000J0D01*
G01*
X132891000Y-108623000D01*
G75*
G02*
X133041000Y-108773000I0J-150000D01*
G01*
G37*
G36*
G01*
X133041000Y-110043000D02*
X133041000Y-110343000D01*
G75*
G02*
X132891000Y-110493000I-150000J0D01*
G01*
X131141000Y-110493000D01*
G75*
G02*
X130991000Y-110343000I0J150000D01*
G01*
X130991000Y-110043000D01*
G75*
G02*
X131141000Y-109893000I150000J0D01*
G01*
X132891000Y-109893000D01*
G75*
G02*
X133041000Y-110043000I0J-150000D01*
G01*
G37*
G36*
G01*
X133041000Y-111313000D02*
X133041000Y-111613000D01*
G75*
G02*
X132891000Y-111763000I-150000J0D01*
G01*
X131141000Y-111763000D01*
G75*
G02*
X130991000Y-111613000I0J150000D01*
G01*
X130991000Y-111313000D01*
G75*
G02*
X131141000Y-111163000I150000J0D01*
G01*
X132891000Y-111163000D01*
G75*
G02*
X133041000Y-111313000I0J-150000D01*
G01*
G37*
G36*
G01*
X133041000Y-112583000D02*
X133041000Y-112883000D01*
G75*
G02*
X132891000Y-113033000I-150000J0D01*
G01*
X131141000Y-113033000D01*
G75*
G02*
X130991000Y-112883000I0J150000D01*
G01*
X130991000Y-112583000D01*
G75*
G02*
X131141000Y-112433000I150000J0D01*
G01*
X132891000Y-112433000D01*
G75*
G02*
X133041000Y-112583000I0J-150000D01*
G01*
G37*
G36*
G01*
X133041000Y-113853000D02*
X133041000Y-114153000D01*
G75*
G02*
X132891000Y-114303000I-150000J0D01*
G01*
X131141000Y-114303000D01*
G75*
G02*
X130991000Y-114153000I0J150000D01*
G01*
X130991000Y-113853000D01*
G75*
G02*
X131141000Y-113703000I150000J0D01*
G01*
X132891000Y-113703000D01*
G75*
G02*
X133041000Y-113853000I0J-150000D01*
G01*
G37*
G36*
G01*
X133041000Y-115123000D02*
X133041000Y-115423000D01*
G75*
G02*
X132891000Y-115573000I-150000J0D01*
G01*
X131141000Y-115573000D01*
G75*
G02*
X130991000Y-115423000I0J150000D01*
G01*
X130991000Y-115123000D01*
G75*
G02*
X131141000Y-114973000I150000J0D01*
G01*
X132891000Y-114973000D01*
G75*
G02*
X133041000Y-115123000I0J-150000D01*
G01*
G37*
G36*
G01*
X133041000Y-116393000D02*
X133041000Y-116693000D01*
G75*
G02*
X132891000Y-116843000I-150000J0D01*
G01*
X131141000Y-116843000D01*
G75*
G02*
X130991000Y-116693000I0J150000D01*
G01*
X130991000Y-116393000D01*
G75*
G02*
X131141000Y-116243000I150000J0D01*
G01*
X132891000Y-116243000D01*
G75*
G02*
X133041000Y-116393000I0J-150000D01*
G01*
G37*
G36*
G01*
X133041000Y-117663000D02*
X133041000Y-117963000D01*
G75*
G02*
X132891000Y-118113000I-150000J0D01*
G01*
X131141000Y-118113000D01*
G75*
G02*
X130991000Y-117963000I0J150000D01*
G01*
X130991000Y-117663000D01*
G75*
G02*
X131141000Y-117513000I150000J0D01*
G01*
X132891000Y-117513000D01*
G75*
G02*
X133041000Y-117663000I0J-150000D01*
G01*
G37*
G36*
G01*
X133041000Y-118933000D02*
X133041000Y-119233000D01*
G75*
G02*
X132891000Y-119383000I-150000J0D01*
G01*
X131141000Y-119383000D01*
G75*
G02*
X130991000Y-119233000I0J150000D01*
G01*
X130991000Y-118933000D01*
G75*
G02*
X131141000Y-118783000I150000J0D01*
G01*
X132891000Y-118783000D01*
G75*
G02*
X133041000Y-118933000I0J-150000D01*
G01*
G37*
G36*
G01*
X133041000Y-120203000D02*
X133041000Y-120503000D01*
G75*
G02*
X132891000Y-120653000I-150000J0D01*
G01*
X131141000Y-120653000D01*
G75*
G02*
X130991000Y-120503000I0J150000D01*
G01*
X130991000Y-120203000D01*
G75*
G02*
X131141000Y-120053000I150000J0D01*
G01*
X132891000Y-120053000D01*
G75*
G02*
X133041000Y-120203000I0J-150000D01*
G01*
G37*
G36*
G01*
X133041000Y-121473000D02*
X133041000Y-121773000D01*
G75*
G02*
X132891000Y-121923000I-150000J0D01*
G01*
X131141000Y-121923000D01*
G75*
G02*
X130991000Y-121773000I0J150000D01*
G01*
X130991000Y-121473000D01*
G75*
G02*
X131141000Y-121323000I150000J0D01*
G01*
X132891000Y-121323000D01*
G75*
G02*
X133041000Y-121473000I0J-150000D01*
G01*
G37*
%TD*%
%TO.C,U2*%
G36*
G01*
X184251000Y-121473000D02*
X184251000Y-121773000D01*
G75*
G02*
X184101000Y-121923000I-150000J0D01*
G01*
X182351000Y-121923000D01*
G75*
G02*
X182201000Y-121773000I0J150000D01*
G01*
X182201000Y-121473000D01*
G75*
G02*
X182351000Y-121323000I150000J0D01*
G01*
X184101000Y-121323000D01*
G75*
G02*
X184251000Y-121473000I0J-150000D01*
G01*
G37*
G36*
G01*
X184251000Y-120203000D02*
X184251000Y-120503000D01*
G75*
G02*
X184101000Y-120653000I-150000J0D01*
G01*
X182351000Y-120653000D01*
G75*
G02*
X182201000Y-120503000I0J150000D01*
G01*
X182201000Y-120203000D01*
G75*
G02*
X182351000Y-120053000I150000J0D01*
G01*
X184101000Y-120053000D01*
G75*
G02*
X184251000Y-120203000I0J-150000D01*
G01*
G37*
G36*
G01*
X184251000Y-118933000D02*
X184251000Y-119233000D01*
G75*
G02*
X184101000Y-119383000I-150000J0D01*
G01*
X182351000Y-119383000D01*
G75*
G02*
X182201000Y-119233000I0J150000D01*
G01*
X182201000Y-118933000D01*
G75*
G02*
X182351000Y-118783000I150000J0D01*
G01*
X184101000Y-118783000D01*
G75*
G02*
X184251000Y-118933000I0J-150000D01*
G01*
G37*
G36*
G01*
X184251000Y-117663000D02*
X184251000Y-117963000D01*
G75*
G02*
X184101000Y-118113000I-150000J0D01*
G01*
X182351000Y-118113000D01*
G75*
G02*
X182201000Y-117963000I0J150000D01*
G01*
X182201000Y-117663000D01*
G75*
G02*
X182351000Y-117513000I150000J0D01*
G01*
X184101000Y-117513000D01*
G75*
G02*
X184251000Y-117663000I0J-150000D01*
G01*
G37*
G36*
G01*
X184251000Y-116393000D02*
X184251000Y-116693000D01*
G75*
G02*
X184101000Y-116843000I-150000J0D01*
G01*
X182351000Y-116843000D01*
G75*
G02*
X182201000Y-116693000I0J150000D01*
G01*
X182201000Y-116393000D01*
G75*
G02*
X182351000Y-116243000I150000J0D01*
G01*
X184101000Y-116243000D01*
G75*
G02*
X184251000Y-116393000I0J-150000D01*
G01*
G37*
G36*
G01*
X184251000Y-115123000D02*
X184251000Y-115423000D01*
G75*
G02*
X184101000Y-115573000I-150000J0D01*
G01*
X182351000Y-115573000D01*
G75*
G02*
X182201000Y-115423000I0J150000D01*
G01*
X182201000Y-115123000D01*
G75*
G02*
X182351000Y-114973000I150000J0D01*
G01*
X184101000Y-114973000D01*
G75*
G02*
X184251000Y-115123000I0J-150000D01*
G01*
G37*
G36*
G01*
X184251000Y-113853000D02*
X184251000Y-114153000D01*
G75*
G02*
X184101000Y-114303000I-150000J0D01*
G01*
X182351000Y-114303000D01*
G75*
G02*
X182201000Y-114153000I0J150000D01*
G01*
X182201000Y-113853000D01*
G75*
G02*
X182351000Y-113703000I150000J0D01*
G01*
X184101000Y-113703000D01*
G75*
G02*
X184251000Y-113853000I0J-150000D01*
G01*
G37*
G36*
G01*
X184251000Y-112583000D02*
X184251000Y-112883000D01*
G75*
G02*
X184101000Y-113033000I-150000J0D01*
G01*
X182351000Y-113033000D01*
G75*
G02*
X182201000Y-112883000I0J150000D01*
G01*
X182201000Y-112583000D01*
G75*
G02*
X182351000Y-112433000I150000J0D01*
G01*
X184101000Y-112433000D01*
G75*
G02*
X184251000Y-112583000I0J-150000D01*
G01*
G37*
G36*
G01*
X184251000Y-111313000D02*
X184251000Y-111613000D01*
G75*
G02*
X184101000Y-111763000I-150000J0D01*
G01*
X182351000Y-111763000D01*
G75*
G02*
X182201000Y-111613000I0J150000D01*
G01*
X182201000Y-111313000D01*
G75*
G02*
X182351000Y-111163000I150000J0D01*
G01*
X184101000Y-111163000D01*
G75*
G02*
X184251000Y-111313000I0J-150000D01*
G01*
G37*
G36*
G01*
X184251000Y-110043000D02*
X184251000Y-110343000D01*
G75*
G02*
X184101000Y-110493000I-150000J0D01*
G01*
X182351000Y-110493000D01*
G75*
G02*
X182201000Y-110343000I0J150000D01*
G01*
X182201000Y-110043000D01*
G75*
G02*
X182351000Y-109893000I150000J0D01*
G01*
X184101000Y-109893000D01*
G75*
G02*
X184251000Y-110043000I0J-150000D01*
G01*
G37*
G36*
G01*
X184251000Y-108773000D02*
X184251000Y-109073000D01*
G75*
G02*
X184101000Y-109223000I-150000J0D01*
G01*
X182351000Y-109223000D01*
G75*
G02*
X182201000Y-109073000I0J150000D01*
G01*
X182201000Y-108773000D01*
G75*
G02*
X182351000Y-108623000I150000J0D01*
G01*
X184101000Y-108623000D01*
G75*
G02*
X184251000Y-108773000I0J-150000D01*
G01*
G37*
G36*
G01*
X184251000Y-107503000D02*
X184251000Y-107803000D01*
G75*
G02*
X184101000Y-107953000I-150000J0D01*
G01*
X182351000Y-107953000D01*
G75*
G02*
X182201000Y-107803000I0J150000D01*
G01*
X182201000Y-107503000D01*
G75*
G02*
X182351000Y-107353000I150000J0D01*
G01*
X184101000Y-107353000D01*
G75*
G02*
X184251000Y-107503000I0J-150000D01*
G01*
G37*
G36*
G01*
X174951000Y-107503000D02*
X174951000Y-107803000D01*
G75*
G02*
X174801000Y-107953000I-150000J0D01*
G01*
X173051000Y-107953000D01*
G75*
G02*
X172901000Y-107803000I0J150000D01*
G01*
X172901000Y-107503000D01*
G75*
G02*
X173051000Y-107353000I150000J0D01*
G01*
X174801000Y-107353000D01*
G75*
G02*
X174951000Y-107503000I0J-150000D01*
G01*
G37*
G36*
G01*
X174951000Y-108773000D02*
X174951000Y-109073000D01*
G75*
G02*
X174801000Y-109223000I-150000J0D01*
G01*
X173051000Y-109223000D01*
G75*
G02*
X172901000Y-109073000I0J150000D01*
G01*
X172901000Y-108773000D01*
G75*
G02*
X173051000Y-108623000I150000J0D01*
G01*
X174801000Y-108623000D01*
G75*
G02*
X174951000Y-108773000I0J-150000D01*
G01*
G37*
G36*
G01*
X174951000Y-110043000D02*
X174951000Y-110343000D01*
G75*
G02*
X174801000Y-110493000I-150000J0D01*
G01*
X173051000Y-110493000D01*
G75*
G02*
X172901000Y-110343000I0J150000D01*
G01*
X172901000Y-110043000D01*
G75*
G02*
X173051000Y-109893000I150000J0D01*
G01*
X174801000Y-109893000D01*
G75*
G02*
X174951000Y-110043000I0J-150000D01*
G01*
G37*
G36*
G01*
X174951000Y-111313000D02*
X174951000Y-111613000D01*
G75*
G02*
X174801000Y-111763000I-150000J0D01*
G01*
X173051000Y-111763000D01*
G75*
G02*
X172901000Y-111613000I0J150000D01*
G01*
X172901000Y-111313000D01*
G75*
G02*
X173051000Y-111163000I150000J0D01*
G01*
X174801000Y-111163000D01*
G75*
G02*
X174951000Y-111313000I0J-150000D01*
G01*
G37*
G36*
G01*
X174951000Y-112583000D02*
X174951000Y-112883000D01*
G75*
G02*
X174801000Y-113033000I-150000J0D01*
G01*
X173051000Y-113033000D01*
G75*
G02*
X172901000Y-112883000I0J150000D01*
G01*
X172901000Y-112583000D01*
G75*
G02*
X173051000Y-112433000I150000J0D01*
G01*
X174801000Y-112433000D01*
G75*
G02*
X174951000Y-112583000I0J-150000D01*
G01*
G37*
G36*
G01*
X174951000Y-113853000D02*
X174951000Y-114153000D01*
G75*
G02*
X174801000Y-114303000I-150000J0D01*
G01*
X173051000Y-114303000D01*
G75*
G02*
X172901000Y-114153000I0J150000D01*
G01*
X172901000Y-113853000D01*
G75*
G02*
X173051000Y-113703000I150000J0D01*
G01*
X174801000Y-113703000D01*
G75*
G02*
X174951000Y-113853000I0J-150000D01*
G01*
G37*
G36*
G01*
X174951000Y-115123000D02*
X174951000Y-115423000D01*
G75*
G02*
X174801000Y-115573000I-150000J0D01*
G01*
X173051000Y-115573000D01*
G75*
G02*
X172901000Y-115423000I0J150000D01*
G01*
X172901000Y-115123000D01*
G75*
G02*
X173051000Y-114973000I150000J0D01*
G01*
X174801000Y-114973000D01*
G75*
G02*
X174951000Y-115123000I0J-150000D01*
G01*
G37*
G36*
G01*
X174951000Y-116393000D02*
X174951000Y-116693000D01*
G75*
G02*
X174801000Y-116843000I-150000J0D01*
G01*
X173051000Y-116843000D01*
G75*
G02*
X172901000Y-116693000I0J150000D01*
G01*
X172901000Y-116393000D01*
G75*
G02*
X173051000Y-116243000I150000J0D01*
G01*
X174801000Y-116243000D01*
G75*
G02*
X174951000Y-116393000I0J-150000D01*
G01*
G37*
G36*
G01*
X174951000Y-117663000D02*
X174951000Y-117963000D01*
G75*
G02*
X174801000Y-118113000I-150000J0D01*
G01*
X173051000Y-118113000D01*
G75*
G02*
X172901000Y-117963000I0J150000D01*
G01*
X172901000Y-117663000D01*
G75*
G02*
X173051000Y-117513000I150000J0D01*
G01*
X174801000Y-117513000D01*
G75*
G02*
X174951000Y-117663000I0J-150000D01*
G01*
G37*
G36*
G01*
X174951000Y-118933000D02*
X174951000Y-119233000D01*
G75*
G02*
X174801000Y-119383000I-150000J0D01*
G01*
X173051000Y-119383000D01*
G75*
G02*
X172901000Y-119233000I0J150000D01*
G01*
X172901000Y-118933000D01*
G75*
G02*
X173051000Y-118783000I150000J0D01*
G01*
X174801000Y-118783000D01*
G75*
G02*
X174951000Y-118933000I0J-150000D01*
G01*
G37*
G36*
G01*
X174951000Y-120203000D02*
X174951000Y-120503000D01*
G75*
G02*
X174801000Y-120653000I-150000J0D01*
G01*
X173051000Y-120653000D01*
G75*
G02*
X172901000Y-120503000I0J150000D01*
G01*
X172901000Y-120203000D01*
G75*
G02*
X173051000Y-120053000I150000J0D01*
G01*
X174801000Y-120053000D01*
G75*
G02*
X174951000Y-120203000I0J-150000D01*
G01*
G37*
G36*
G01*
X174951000Y-121473000D02*
X174951000Y-121773000D01*
G75*
G02*
X174801000Y-121923000I-150000J0D01*
G01*
X173051000Y-121923000D01*
G75*
G02*
X172901000Y-121773000I0J150000D01*
G01*
X172901000Y-121473000D01*
G75*
G02*
X173051000Y-121323000I150000J0D01*
G01*
X174801000Y-121323000D01*
G75*
G02*
X174951000Y-121473000I0J-150000D01*
G01*
G37*
%TD*%
M02*
