%TF.GenerationSoftware,KiCad,Pcbnew,(5.1.10)-1*%
%TF.CreationDate,2021-07-12T12:41:50-04:00*%
%TF.ProjectId,RICM_pico,5249434d-5f70-4696-936f-2e6b69636164,rev?*%
%TF.SameCoordinates,Original*%
%TF.FileFunction,Legend,Top*%
%TF.FilePolarity,Positive*%
%FSLAX46Y46*%
G04 Gerber Fmt 4.6, Leading zero omitted, Abs format (unit mm)*
G04 Created by KiCad (PCBNEW (5.1.10)-1) date 2021-07-12 12:41:50*
%MOMM*%
%LPD*%
G01*
G04 APERTURE LIST*
%ADD10C,0.100000*%
%ADD11C,0.150000*%
%ADD12C,0.300000*%
%ADD13C,0.400000*%
%TA.AperFunction,Profile*%
%ADD14C,0.150000*%
%TD*%
%ADD15C,0.120000*%
G04 APERTURE END LIST*
D10*
D11*
X177002200Y-166007200D02*
X177002200Y-198007200D01*
X285002200Y-198007200D01*
X285002200Y-166007200D01*
X177002200Y-166007200D01*
D10*
D11*
X10000000Y-10000000D02*
X10000000Y-200007200D01*
X287002200Y-200007200D01*
X287002200Y-10000000D01*
X10000000Y-10000000D01*
D10*
D11*
X12000000Y-12000000D02*
X12000000Y-198007200D01*
X285002200Y-198007200D01*
X285002200Y-12000000D01*
X12000000Y-12000000D01*
D10*
D11*
X60000000Y-12000000D02*
X60000000Y-10000000D01*
D10*
D11*
X110000000Y-12000000D02*
X110000000Y-10000000D01*
D10*
D11*
X160000000Y-12000000D02*
X160000000Y-10000000D01*
D10*
D11*
X210000000Y-12000000D02*
X210000000Y-10000000D01*
D10*
D11*
X260000000Y-12000000D02*
X260000000Y-10000000D01*
D10*
D11*
X36065476Y-11588095D02*
X35322619Y-11588095D01*
X35694047Y-11588095D02*
X35694047Y-10288095D01*
X35570238Y-10473809D01*
X35446428Y-10597619D01*
X35322619Y-10659523D01*
D10*
D11*
X85322619Y-10411904D02*
X85384523Y-10350000D01*
X85508333Y-10288095D01*
X85817857Y-10288095D01*
X85941666Y-10350000D01*
X86003571Y-10411904D01*
X86065476Y-10535714D01*
X86065476Y-10659523D01*
X86003571Y-10845238D01*
X85260714Y-11588095D01*
X86065476Y-11588095D01*
D10*
D11*
X135260714Y-10288095D02*
X136065476Y-10288095D01*
X135632142Y-10783333D01*
X135817857Y-10783333D01*
X135941666Y-10845238D01*
X136003571Y-10907142D01*
X136065476Y-11030952D01*
X136065476Y-11340476D01*
X136003571Y-11464285D01*
X135941666Y-11526190D01*
X135817857Y-11588095D01*
X135446428Y-11588095D01*
X135322619Y-11526190D01*
X135260714Y-11464285D01*
D10*
D11*
X185941666Y-10721428D02*
X185941666Y-11588095D01*
X185632142Y-10226190D02*
X185322619Y-11154761D01*
X186127380Y-11154761D01*
D10*
D11*
X236003571Y-10288095D02*
X235384523Y-10288095D01*
X235322619Y-10907142D01*
X235384523Y-10845238D01*
X235508333Y-10783333D01*
X235817857Y-10783333D01*
X235941666Y-10845238D01*
X236003571Y-10907142D01*
X236065476Y-11030952D01*
X236065476Y-11340476D01*
X236003571Y-11464285D01*
X235941666Y-11526190D01*
X235817857Y-11588095D01*
X235508333Y-11588095D01*
X235384523Y-11526190D01*
X235322619Y-11464285D01*
D10*
D11*
X285941666Y-10288095D02*
X285694047Y-10288095D01*
X285570238Y-10350000D01*
X285508333Y-10411904D01*
X285384523Y-10597619D01*
X285322619Y-10845238D01*
X285322619Y-11340476D01*
X285384523Y-11464285D01*
X285446428Y-11526190D01*
X285570238Y-11588095D01*
X285817857Y-11588095D01*
X285941666Y-11526190D01*
X286003571Y-11464285D01*
X286065476Y-11340476D01*
X286065476Y-11030952D01*
X286003571Y-10907142D01*
X285941666Y-10845238D01*
X285817857Y-10783333D01*
X285570238Y-10783333D01*
X285446428Y-10845238D01*
X285384523Y-10907142D01*
X285322619Y-11030952D01*
D10*
D11*
X60000000Y-198007200D02*
X60000000Y-200007200D01*
D10*
D11*
X110000000Y-198007200D02*
X110000000Y-200007200D01*
D10*
D11*
X160000000Y-198007200D02*
X160000000Y-200007200D01*
D10*
D11*
X210000000Y-198007200D02*
X210000000Y-200007200D01*
D10*
D11*
X260000000Y-198007200D02*
X260000000Y-200007200D01*
D10*
D11*
X36065476Y-199595295D02*
X35322619Y-199595295D01*
X35694047Y-199595295D02*
X35694047Y-198295295D01*
X35570238Y-198481009D01*
X35446428Y-198604819D01*
X35322619Y-198666723D01*
D10*
D11*
X85322619Y-198419104D02*
X85384523Y-198357200D01*
X85508333Y-198295295D01*
X85817857Y-198295295D01*
X85941666Y-198357200D01*
X86003571Y-198419104D01*
X86065476Y-198542914D01*
X86065476Y-198666723D01*
X86003571Y-198852438D01*
X85260714Y-199595295D01*
X86065476Y-199595295D01*
D10*
D11*
X135260714Y-198295295D02*
X136065476Y-198295295D01*
X135632142Y-198790533D01*
X135817857Y-198790533D01*
X135941666Y-198852438D01*
X136003571Y-198914342D01*
X136065476Y-199038152D01*
X136065476Y-199347676D01*
X136003571Y-199471485D01*
X135941666Y-199533390D01*
X135817857Y-199595295D01*
X135446428Y-199595295D01*
X135322619Y-199533390D01*
X135260714Y-199471485D01*
D10*
D11*
X185941666Y-198728628D02*
X185941666Y-199595295D01*
X185632142Y-198233390D02*
X185322619Y-199161961D01*
X186127380Y-199161961D01*
D10*
D11*
X236003571Y-198295295D02*
X235384523Y-198295295D01*
X235322619Y-198914342D01*
X235384523Y-198852438D01*
X235508333Y-198790533D01*
X235817857Y-198790533D01*
X235941666Y-198852438D01*
X236003571Y-198914342D01*
X236065476Y-199038152D01*
X236065476Y-199347676D01*
X236003571Y-199471485D01*
X235941666Y-199533390D01*
X235817857Y-199595295D01*
X235508333Y-199595295D01*
X235384523Y-199533390D01*
X235322619Y-199471485D01*
D10*
D11*
X285941666Y-198295295D02*
X285694047Y-198295295D01*
X285570238Y-198357200D01*
X285508333Y-198419104D01*
X285384523Y-198604819D01*
X285322619Y-198852438D01*
X285322619Y-199347676D01*
X285384523Y-199471485D01*
X285446428Y-199533390D01*
X285570238Y-199595295D01*
X285817857Y-199595295D01*
X285941666Y-199533390D01*
X286003571Y-199471485D01*
X286065476Y-199347676D01*
X286065476Y-199038152D01*
X286003571Y-198914342D01*
X285941666Y-198852438D01*
X285817857Y-198790533D01*
X285570238Y-198790533D01*
X285446428Y-198852438D01*
X285384523Y-198914342D01*
X285322619Y-199038152D01*
D10*
D11*
X10000000Y-60000000D02*
X12000000Y-60000000D01*
D10*
D11*
X10000000Y-110000000D02*
X12000000Y-110000000D01*
D10*
D11*
X10000000Y-160000000D02*
X12000000Y-160000000D01*
D10*
D11*
X10690476Y-35216666D02*
X11309523Y-35216666D01*
X10566666Y-35588095D02*
X11000000Y-34288095D01*
X11433333Y-35588095D01*
D10*
D11*
X11092857Y-84907142D02*
X11278571Y-84969047D01*
X11340476Y-85030952D01*
X11402380Y-85154761D01*
X11402380Y-85340476D01*
X11340476Y-85464285D01*
X11278571Y-85526190D01*
X11154761Y-85588095D01*
X10659523Y-85588095D01*
X10659523Y-84288095D01*
X11092857Y-84288095D01*
X11216666Y-84350000D01*
X11278571Y-84411904D01*
X11340476Y-84535714D01*
X11340476Y-84659523D01*
X11278571Y-84783333D01*
X11216666Y-84845238D01*
X11092857Y-84907142D01*
X10659523Y-84907142D01*
D10*
D11*
X11402380Y-135464285D02*
X11340476Y-135526190D01*
X11154761Y-135588095D01*
X11030952Y-135588095D01*
X10845238Y-135526190D01*
X10721428Y-135402380D01*
X10659523Y-135278571D01*
X10597619Y-135030952D01*
X10597619Y-134845238D01*
X10659523Y-134597619D01*
X10721428Y-134473809D01*
X10845238Y-134350000D01*
X11030952Y-134288095D01*
X11154761Y-134288095D01*
X11340476Y-134350000D01*
X11402380Y-134411904D01*
D10*
D11*
X10659523Y-185588095D02*
X10659523Y-184288095D01*
X10969047Y-184288095D01*
X11154761Y-184350000D01*
X11278571Y-184473809D01*
X11340476Y-184597619D01*
X11402380Y-184845238D01*
X11402380Y-185030952D01*
X11340476Y-185278571D01*
X11278571Y-185402380D01*
X11154761Y-185526190D01*
X10969047Y-185588095D01*
X10659523Y-185588095D01*
D10*
D11*
X287002200Y-60000000D02*
X285002200Y-60000000D01*
D10*
D11*
X287002200Y-110000000D02*
X285002200Y-110000000D01*
D10*
D11*
X287002200Y-160000000D02*
X285002200Y-160000000D01*
D10*
D11*
X285692676Y-35216666D02*
X286311723Y-35216666D01*
X285568866Y-35588095D02*
X286002200Y-34288095D01*
X286435533Y-35588095D01*
D10*
D11*
X286095057Y-84907142D02*
X286280771Y-84969047D01*
X286342676Y-85030952D01*
X286404580Y-85154761D01*
X286404580Y-85340476D01*
X286342676Y-85464285D01*
X286280771Y-85526190D01*
X286156961Y-85588095D01*
X285661723Y-85588095D01*
X285661723Y-84288095D01*
X286095057Y-84288095D01*
X286218866Y-84350000D01*
X286280771Y-84411904D01*
X286342676Y-84535714D01*
X286342676Y-84659523D01*
X286280771Y-84783333D01*
X286218866Y-84845238D01*
X286095057Y-84907142D01*
X285661723Y-84907142D01*
D10*
D11*
X286404580Y-135464285D02*
X286342676Y-135526190D01*
X286156961Y-135588095D01*
X286033152Y-135588095D01*
X285847438Y-135526190D01*
X285723628Y-135402380D01*
X285661723Y-135278571D01*
X285599819Y-135030952D01*
X285599819Y-134845238D01*
X285661723Y-134597619D01*
X285723628Y-134473809D01*
X285847438Y-134350000D01*
X286033152Y-134288095D01*
X286156961Y-134288095D01*
X286342676Y-134350000D01*
X286404580Y-134411904D01*
D10*
D11*
X285661723Y-185588095D02*
X285661723Y-184288095D01*
X285971247Y-184288095D01*
X286156961Y-184350000D01*
X286280771Y-184473809D01*
X286342676Y-184597619D01*
X286404580Y-184845238D01*
X286404580Y-185030952D01*
X286342676Y-185278571D01*
X286280771Y-185402380D01*
X286156961Y-185526190D01*
X285971247Y-185588095D01*
X285661723Y-185588095D01*
D10*
D11*
X200434342Y-193785771D02*
X200434342Y-192285771D01*
X200791485Y-192285771D01*
X201005771Y-192357200D01*
X201148628Y-192500057D01*
X201220057Y-192642914D01*
X201291485Y-192928628D01*
X201291485Y-193142914D01*
X201220057Y-193428628D01*
X201148628Y-193571485D01*
X201005771Y-193714342D01*
X200791485Y-193785771D01*
X200434342Y-193785771D01*
X202577200Y-193785771D02*
X202577200Y-193000057D01*
X202505771Y-192857200D01*
X202362914Y-192785771D01*
X202077200Y-192785771D01*
X201934342Y-192857200D01*
X202577200Y-193714342D02*
X202434342Y-193785771D01*
X202077200Y-193785771D01*
X201934342Y-193714342D01*
X201862914Y-193571485D01*
X201862914Y-193428628D01*
X201934342Y-193285771D01*
X202077200Y-193214342D01*
X202434342Y-193214342D01*
X202577200Y-193142914D01*
X203077200Y-192785771D02*
X203648628Y-192785771D01*
X203291485Y-192285771D02*
X203291485Y-193571485D01*
X203362914Y-193714342D01*
X203505771Y-193785771D01*
X203648628Y-193785771D01*
X204720057Y-193714342D02*
X204577200Y-193785771D01*
X204291485Y-193785771D01*
X204148628Y-193714342D01*
X204077200Y-193571485D01*
X204077200Y-193000057D01*
X204148628Y-192857200D01*
X204291485Y-192785771D01*
X204577200Y-192785771D01*
X204720057Y-192857200D01*
X204791485Y-193000057D01*
X204791485Y-193142914D01*
X204077200Y-193285771D01*
X205434342Y-193642914D02*
X205505771Y-193714342D01*
X205434342Y-193785771D01*
X205362914Y-193714342D01*
X205434342Y-193642914D01*
X205434342Y-193785771D01*
X205434342Y-192857200D02*
X205505771Y-192928628D01*
X205434342Y-193000057D01*
X205362914Y-192928628D01*
X205434342Y-192857200D01*
X205434342Y-193000057D01*
D10*
D11*
X177002200Y-194507200D02*
X285002200Y-194507200D01*
D10*
D11*
X178434342Y-196585771D02*
X178434342Y-195085771D01*
X179291485Y-196585771D02*
X178648628Y-195728628D01*
X179291485Y-195085771D02*
X178434342Y-195942914D01*
X179934342Y-196585771D02*
X179934342Y-195585771D01*
X179934342Y-195085771D02*
X179862914Y-195157200D01*
X179934342Y-195228628D01*
X180005771Y-195157200D01*
X179934342Y-195085771D01*
X179934342Y-195228628D01*
X181505771Y-196442914D02*
X181434342Y-196514342D01*
X181220057Y-196585771D01*
X181077200Y-196585771D01*
X180862914Y-196514342D01*
X180720057Y-196371485D01*
X180648628Y-196228628D01*
X180577200Y-195942914D01*
X180577200Y-195728628D01*
X180648628Y-195442914D01*
X180720057Y-195300057D01*
X180862914Y-195157200D01*
X181077200Y-195085771D01*
X181220057Y-195085771D01*
X181434342Y-195157200D01*
X181505771Y-195228628D01*
X182791485Y-196585771D02*
X182791485Y-195800057D01*
X182720057Y-195657200D01*
X182577200Y-195585771D01*
X182291485Y-195585771D01*
X182148628Y-195657200D01*
X182791485Y-196514342D02*
X182648628Y-196585771D01*
X182291485Y-196585771D01*
X182148628Y-196514342D01*
X182077200Y-196371485D01*
X182077200Y-196228628D01*
X182148628Y-196085771D01*
X182291485Y-196014342D01*
X182648628Y-196014342D01*
X182791485Y-195942914D01*
X184148628Y-196585771D02*
X184148628Y-195085771D01*
X184148628Y-196514342D02*
X184005771Y-196585771D01*
X183720057Y-196585771D01*
X183577200Y-196514342D01*
X183505771Y-196442914D01*
X183434342Y-196300057D01*
X183434342Y-195871485D01*
X183505771Y-195728628D01*
X183577200Y-195657200D01*
X183720057Y-195585771D01*
X184005771Y-195585771D01*
X184148628Y-195657200D01*
X186005771Y-195800057D02*
X186505771Y-195800057D01*
X186720057Y-196585771D02*
X186005771Y-196585771D01*
X186005771Y-195085771D01*
X186720057Y-195085771D01*
X187362914Y-196442914D02*
X187434342Y-196514342D01*
X187362914Y-196585771D01*
X187291485Y-196514342D01*
X187362914Y-196442914D01*
X187362914Y-196585771D01*
X188077200Y-196585771D02*
X188077200Y-195085771D01*
X188434342Y-195085771D01*
X188648628Y-195157200D01*
X188791485Y-195300057D01*
X188862914Y-195442914D01*
X188934342Y-195728628D01*
X188934342Y-195942914D01*
X188862914Y-196228628D01*
X188791485Y-196371485D01*
X188648628Y-196514342D01*
X188434342Y-196585771D01*
X188077200Y-196585771D01*
X189577200Y-196442914D02*
X189648628Y-196514342D01*
X189577200Y-196585771D01*
X189505771Y-196514342D01*
X189577200Y-196442914D01*
X189577200Y-196585771D01*
X190220057Y-196157200D02*
X190934342Y-196157200D01*
X190077200Y-196585771D02*
X190577200Y-195085771D01*
X191077200Y-196585771D01*
X191577200Y-196442914D02*
X191648628Y-196514342D01*
X191577200Y-196585771D01*
X191505771Y-196514342D01*
X191577200Y-196442914D01*
X191577200Y-196585771D01*
X194577200Y-196585771D02*
X194577200Y-195085771D01*
X194720057Y-196014342D02*
X195148628Y-196585771D01*
X195148628Y-195585771D02*
X194577200Y-196157200D01*
X195791485Y-196585771D02*
X195791485Y-195585771D01*
X195791485Y-195085771D02*
X195720057Y-195157200D01*
X195791485Y-195228628D01*
X195862914Y-195157200D01*
X195791485Y-195085771D01*
X195791485Y-195228628D01*
X197148628Y-196514342D02*
X197005771Y-196585771D01*
X196720057Y-196585771D01*
X196577200Y-196514342D01*
X196505771Y-196442914D01*
X196434342Y-196300057D01*
X196434342Y-195871485D01*
X196505771Y-195728628D01*
X196577200Y-195657200D01*
X196720057Y-195585771D01*
X197005771Y-195585771D01*
X197148628Y-195657200D01*
X198434342Y-196585771D02*
X198434342Y-195800057D01*
X198362914Y-195657200D01*
X198220057Y-195585771D01*
X197934342Y-195585771D01*
X197791485Y-195657200D01*
X198434342Y-196514342D02*
X198291485Y-196585771D01*
X197934342Y-196585771D01*
X197791485Y-196514342D01*
X197720057Y-196371485D01*
X197720057Y-196228628D01*
X197791485Y-196085771D01*
X197934342Y-196014342D01*
X198291485Y-196014342D01*
X198434342Y-195942914D01*
X199791485Y-196585771D02*
X199791485Y-195085771D01*
X199791485Y-196514342D02*
X199648628Y-196585771D01*
X199362914Y-196585771D01*
X199220057Y-196514342D01*
X199148628Y-196442914D01*
X199077200Y-196300057D01*
X199077200Y-195871485D01*
X199148628Y-195728628D01*
X199220057Y-195657200D01*
X199362914Y-195585771D01*
X199648628Y-195585771D01*
X199791485Y-195657200D01*
X202077200Y-197157200D02*
X202005771Y-197085771D01*
X201862914Y-196871485D01*
X201791485Y-196728628D01*
X201720057Y-196514342D01*
X201648628Y-196157200D01*
X201648628Y-195871485D01*
X201720057Y-195514342D01*
X201791485Y-195300057D01*
X201862914Y-195157200D01*
X202005771Y-194942914D01*
X202077200Y-194871485D01*
X203362914Y-195085771D02*
X202648628Y-195085771D01*
X202577200Y-195800057D01*
X202648628Y-195728628D01*
X202791485Y-195657200D01*
X203148628Y-195657200D01*
X203291485Y-195728628D01*
X203362914Y-195800057D01*
X203434342Y-195942914D01*
X203434342Y-196300057D01*
X203362914Y-196442914D01*
X203291485Y-196514342D01*
X203148628Y-196585771D01*
X202791485Y-196585771D01*
X202648628Y-196514342D01*
X202577200Y-196442914D01*
X204077200Y-196442914D02*
X204148628Y-196514342D01*
X204077200Y-196585771D01*
X204005771Y-196514342D01*
X204077200Y-196442914D01*
X204077200Y-196585771D01*
X205577200Y-196585771D02*
X204720057Y-196585771D01*
X205148628Y-196585771D02*
X205148628Y-195085771D01*
X205005771Y-195300057D01*
X204862914Y-195442914D01*
X204720057Y-195514342D01*
X206220057Y-196442914D02*
X206291485Y-196514342D01*
X206220057Y-196585771D01*
X206148628Y-196514342D01*
X206220057Y-196442914D01*
X206220057Y-196585771D01*
X207720057Y-196585771D02*
X206862914Y-196585771D01*
X207291485Y-196585771D02*
X207291485Y-195085771D01*
X207148628Y-195300057D01*
X207005771Y-195442914D01*
X206862914Y-195514342D01*
X208648628Y-195085771D02*
X208791485Y-195085771D01*
X208934342Y-195157200D01*
X209005771Y-195228628D01*
X209077200Y-195371485D01*
X209148628Y-195657200D01*
X209148628Y-196014342D01*
X209077200Y-196300057D01*
X209005771Y-196442914D01*
X208934342Y-196514342D01*
X208791485Y-196585771D01*
X208648628Y-196585771D01*
X208505771Y-196514342D01*
X208434342Y-196442914D01*
X208362914Y-196300057D01*
X208291485Y-196014342D01*
X208291485Y-195657200D01*
X208362914Y-195371485D01*
X208434342Y-195228628D01*
X208505771Y-195157200D01*
X208648628Y-195085771D01*
X209648628Y-197157200D02*
X209720057Y-197085771D01*
X209862914Y-196871485D01*
X209934342Y-196728628D01*
X210005771Y-196514342D01*
X210077200Y-196157200D01*
X210077200Y-195871485D01*
X210005771Y-195514342D01*
X209934342Y-195300057D01*
X209862914Y-195157200D01*
X209720057Y-194942914D01*
X209648628Y-194871485D01*
X210791485Y-196014342D02*
X211934342Y-196014342D01*
X213434342Y-196585771D02*
X212577200Y-196585771D01*
X213005771Y-196585771D02*
X213005771Y-195085771D01*
X212862914Y-195300057D01*
X212720057Y-195442914D01*
X212577200Y-195514342D01*
D10*
D11*
X177002200Y-191507200D02*
X285002200Y-191507200D01*
D10*
D12*
X264411485Y-193785771D02*
X263911485Y-193071485D01*
X263554342Y-193785771D02*
X263554342Y-192285771D01*
X264125771Y-192285771D01*
X264268628Y-192357200D01*
X264340057Y-192428628D01*
X264411485Y-192571485D01*
X264411485Y-192785771D01*
X264340057Y-192928628D01*
X264268628Y-193000057D01*
X264125771Y-193071485D01*
X263554342Y-193071485D01*
X265625771Y-193714342D02*
X265482914Y-193785771D01*
X265197200Y-193785771D01*
X265054342Y-193714342D01*
X264982914Y-193571485D01*
X264982914Y-193000057D01*
X265054342Y-192857200D01*
X265197200Y-192785771D01*
X265482914Y-192785771D01*
X265625771Y-192857200D01*
X265697200Y-193000057D01*
X265697200Y-193142914D01*
X264982914Y-193285771D01*
X266197200Y-192785771D02*
X266554342Y-193785771D01*
X266911485Y-192785771D01*
X267482914Y-193642914D02*
X267554342Y-193714342D01*
X267482914Y-193785771D01*
X267411485Y-193714342D01*
X267482914Y-193642914D01*
X267482914Y-193785771D01*
X267482914Y-192857200D02*
X267554342Y-192928628D01*
X267482914Y-193000057D01*
X267411485Y-192928628D01*
X267482914Y-192857200D01*
X267482914Y-193000057D01*
D10*
D11*
X178362914Y-193714342D02*
X178577200Y-193785771D01*
X178934342Y-193785771D01*
X179077200Y-193714342D01*
X179148628Y-193642914D01*
X179220057Y-193500057D01*
X179220057Y-193357200D01*
X179148628Y-193214342D01*
X179077200Y-193142914D01*
X178934342Y-193071485D01*
X178648628Y-193000057D01*
X178505771Y-192928628D01*
X178434342Y-192857200D01*
X178362914Y-192714342D01*
X178362914Y-192571485D01*
X178434342Y-192428628D01*
X178505771Y-192357200D01*
X178648628Y-192285771D01*
X179005771Y-192285771D01*
X179220057Y-192357200D01*
X179862914Y-193785771D02*
X179862914Y-192785771D01*
X179862914Y-192285771D02*
X179791485Y-192357200D01*
X179862914Y-192428628D01*
X179934342Y-192357200D01*
X179862914Y-192285771D01*
X179862914Y-192428628D01*
X180434342Y-192785771D02*
X181220057Y-192785771D01*
X180434342Y-193785771D01*
X181220057Y-193785771D01*
X182362914Y-193714342D02*
X182220057Y-193785771D01*
X181934342Y-193785771D01*
X181791485Y-193714342D01*
X181720057Y-193571485D01*
X181720057Y-193000057D01*
X181791485Y-192857200D01*
X181934342Y-192785771D01*
X182220057Y-192785771D01*
X182362914Y-192857200D01*
X182434342Y-193000057D01*
X182434342Y-193142914D01*
X181720057Y-193285771D01*
X183077200Y-193642914D02*
X183148628Y-193714342D01*
X183077200Y-193785771D01*
X183005771Y-193714342D01*
X183077200Y-193642914D01*
X183077200Y-193785771D01*
X183077200Y-192857200D02*
X183148628Y-192928628D01*
X183077200Y-193000057D01*
X183005771Y-192928628D01*
X183077200Y-192857200D01*
X183077200Y-193000057D01*
X184862914Y-193357200D02*
X185577200Y-193357200D01*
X184720057Y-193785771D02*
X185220057Y-192285771D01*
X185720057Y-193785771D01*
X186862914Y-192785771D02*
X186862914Y-193785771D01*
X186505771Y-192214342D02*
X186148628Y-193285771D01*
X187077200Y-193285771D01*
D10*
D11*
X263434342Y-196585771D02*
X263434342Y-195085771D01*
X264791485Y-196585771D02*
X264791485Y-195085771D01*
X264791485Y-196514342D02*
X264648628Y-196585771D01*
X264362914Y-196585771D01*
X264220057Y-196514342D01*
X264148628Y-196442914D01*
X264077200Y-196300057D01*
X264077200Y-195871485D01*
X264148628Y-195728628D01*
X264220057Y-195657200D01*
X264362914Y-195585771D01*
X264648628Y-195585771D01*
X264791485Y-195657200D01*
X265505771Y-196442914D02*
X265577200Y-196514342D01*
X265505771Y-196585771D01*
X265434342Y-196514342D01*
X265505771Y-196442914D01*
X265505771Y-196585771D01*
X265505771Y-195657200D02*
X265577200Y-195728628D01*
X265505771Y-195800057D01*
X265434342Y-195728628D01*
X265505771Y-195657200D01*
X265505771Y-195800057D01*
X268148628Y-196585771D02*
X267291485Y-196585771D01*
X267720057Y-196585771D02*
X267720057Y-195085771D01*
X267577200Y-195300057D01*
X267434342Y-195442914D01*
X267291485Y-195514342D01*
X269862914Y-195014342D02*
X268577200Y-196942914D01*
X271148628Y-196585771D02*
X270291485Y-196585771D01*
X270720057Y-196585771D02*
X270720057Y-195085771D01*
X270577200Y-195300057D01*
X270434342Y-195442914D01*
X270291485Y-195514342D01*
D10*
D11*
X177002200Y-187507200D02*
X285002200Y-187507200D01*
D10*
D13*
X178714580Y-188211961D02*
X179857438Y-188211961D01*
X179036009Y-190211961D02*
X179286009Y-188211961D01*
X180274104Y-190211961D02*
X180440771Y-188878628D01*
X180524104Y-188211961D02*
X180416961Y-188307200D01*
X180500295Y-188402438D01*
X180607438Y-188307200D01*
X180524104Y-188211961D01*
X180500295Y-188402438D01*
X181107438Y-188878628D02*
X181869342Y-188878628D01*
X181476485Y-188211961D02*
X181262200Y-189926247D01*
X181333628Y-190116723D01*
X181512200Y-190211961D01*
X181702676Y-190211961D01*
X182655057Y-190211961D02*
X182476485Y-190116723D01*
X182405057Y-189926247D01*
X182619342Y-188211961D01*
X184190771Y-190116723D02*
X183988390Y-190211961D01*
X183607438Y-190211961D01*
X183428866Y-190116723D01*
X183357438Y-189926247D01*
X183452676Y-189164342D01*
X183571723Y-188973866D01*
X183774104Y-188878628D01*
X184155057Y-188878628D01*
X184333628Y-188973866D01*
X184405057Y-189164342D01*
X184381247Y-189354819D01*
X183405057Y-189545295D01*
X185155057Y-190021485D02*
X185238390Y-190116723D01*
X185131247Y-190211961D01*
X185047914Y-190116723D01*
X185155057Y-190021485D01*
X185131247Y-190211961D01*
X185286009Y-188973866D02*
X185369342Y-189069104D01*
X185262200Y-189164342D01*
X185178866Y-189069104D01*
X185286009Y-188973866D01*
X185262200Y-189164342D01*
D10*
D11*
X178934342Y-185600057D02*
X178434342Y-185600057D01*
X178434342Y-186385771D02*
X178434342Y-184885771D01*
X179148628Y-184885771D01*
X179720057Y-186385771D02*
X179720057Y-185385771D01*
X179720057Y-184885771D02*
X179648628Y-184957200D01*
X179720057Y-185028628D01*
X179791485Y-184957200D01*
X179720057Y-184885771D01*
X179720057Y-185028628D01*
X180648628Y-186385771D02*
X180505771Y-186314342D01*
X180434342Y-186171485D01*
X180434342Y-184885771D01*
X181791485Y-186314342D02*
X181648628Y-186385771D01*
X181362914Y-186385771D01*
X181220057Y-186314342D01*
X181148628Y-186171485D01*
X181148628Y-185600057D01*
X181220057Y-185457200D01*
X181362914Y-185385771D01*
X181648628Y-185385771D01*
X181791485Y-185457200D01*
X181862914Y-185600057D01*
X181862914Y-185742914D01*
X181148628Y-185885771D01*
X182505771Y-186242914D02*
X182577200Y-186314342D01*
X182505771Y-186385771D01*
X182434342Y-186314342D01*
X182505771Y-186242914D01*
X182505771Y-186385771D01*
X182505771Y-185457200D02*
X182577200Y-185528628D01*
X182505771Y-185600057D01*
X182434342Y-185528628D01*
X182505771Y-185457200D01*
X182505771Y-185600057D01*
X185220057Y-186385771D02*
X184720057Y-185671485D01*
X184362914Y-186385771D02*
X184362914Y-184885771D01*
X184934342Y-184885771D01*
X185077200Y-184957200D01*
X185148628Y-185028628D01*
X185220057Y-185171485D01*
X185220057Y-185385771D01*
X185148628Y-185528628D01*
X185077200Y-185600057D01*
X184934342Y-185671485D01*
X184362914Y-185671485D01*
X185862914Y-186385771D02*
X185862914Y-184885771D01*
X187434342Y-186242914D02*
X187362914Y-186314342D01*
X187148628Y-186385771D01*
X187005771Y-186385771D01*
X186791485Y-186314342D01*
X186648628Y-186171485D01*
X186577200Y-186028628D01*
X186505771Y-185742914D01*
X186505771Y-185528628D01*
X186577200Y-185242914D01*
X186648628Y-185100057D01*
X186791485Y-184957200D01*
X187005771Y-184885771D01*
X187148628Y-184885771D01*
X187362914Y-184957200D01*
X187434342Y-185028628D01*
X188077200Y-186385771D02*
X188077200Y-184885771D01*
X188577200Y-185957200D01*
X189077200Y-184885771D01*
X189077200Y-186385771D01*
X189434342Y-186528628D02*
X190577200Y-186528628D01*
X190934342Y-185385771D02*
X190934342Y-186885771D01*
X190934342Y-185457200D02*
X191077200Y-185385771D01*
X191362914Y-185385771D01*
X191505771Y-185457200D01*
X191577200Y-185528628D01*
X191648628Y-185671485D01*
X191648628Y-186100057D01*
X191577200Y-186242914D01*
X191505771Y-186314342D01*
X191362914Y-186385771D01*
X191077200Y-186385771D01*
X190934342Y-186314342D01*
X192291485Y-186385771D02*
X192291485Y-185385771D01*
X192291485Y-184885771D02*
X192220057Y-184957200D01*
X192291485Y-185028628D01*
X192362914Y-184957200D01*
X192291485Y-184885771D01*
X192291485Y-185028628D01*
X193648628Y-186314342D02*
X193505771Y-186385771D01*
X193220057Y-186385771D01*
X193077200Y-186314342D01*
X193005771Y-186242914D01*
X192934342Y-186100057D01*
X192934342Y-185671485D01*
X193005771Y-185528628D01*
X193077200Y-185457200D01*
X193220057Y-185385771D01*
X193505771Y-185385771D01*
X193648628Y-185457200D01*
X194505771Y-186385771D02*
X194362914Y-186314342D01*
X194291485Y-186242914D01*
X194220057Y-186100057D01*
X194220057Y-185671485D01*
X194291485Y-185528628D01*
X194362914Y-185457200D01*
X194505771Y-185385771D01*
X194720057Y-185385771D01*
X194862914Y-185457200D01*
X194934342Y-185528628D01*
X195005771Y-185671485D01*
X195005771Y-186100057D01*
X194934342Y-186242914D01*
X194862914Y-186314342D01*
X194720057Y-186385771D01*
X194505771Y-186385771D01*
X195648628Y-186242914D02*
X195720057Y-186314342D01*
X195648628Y-186385771D01*
X195577200Y-186314342D01*
X195648628Y-186242914D01*
X195648628Y-186385771D01*
X196362914Y-186385771D02*
X196362914Y-184885771D01*
X196505771Y-185814342D02*
X196934342Y-186385771D01*
X196934342Y-185385771D02*
X196362914Y-185957200D01*
X197577200Y-186385771D02*
X197577200Y-185385771D01*
X197577200Y-184885771D02*
X197505771Y-184957200D01*
X197577200Y-185028628D01*
X197648628Y-184957200D01*
X197577200Y-184885771D01*
X197577200Y-185028628D01*
X198934342Y-186314342D02*
X198791485Y-186385771D01*
X198505771Y-186385771D01*
X198362914Y-186314342D01*
X198291485Y-186242914D01*
X198220057Y-186100057D01*
X198220057Y-185671485D01*
X198291485Y-185528628D01*
X198362914Y-185457200D01*
X198505771Y-185385771D01*
X198791485Y-185385771D01*
X198934342Y-185457200D01*
X200220057Y-186385771D02*
X200220057Y-185600057D01*
X200148628Y-185457200D01*
X200005771Y-185385771D01*
X199720057Y-185385771D01*
X199577200Y-185457200D01*
X200220057Y-186314342D02*
X200077200Y-186385771D01*
X199720057Y-186385771D01*
X199577200Y-186314342D01*
X199505771Y-186171485D01*
X199505771Y-186028628D01*
X199577200Y-185885771D01*
X199720057Y-185814342D01*
X200077200Y-185814342D01*
X200220057Y-185742914D01*
X201577200Y-186385771D02*
X201577200Y-184885771D01*
X201577200Y-186314342D02*
X201434342Y-186385771D01*
X201148628Y-186385771D01*
X201005771Y-186314342D01*
X200934342Y-186242914D01*
X200862914Y-186100057D01*
X200862914Y-185671485D01*
X200934342Y-185528628D01*
X201005771Y-185457200D01*
X201148628Y-185385771D01*
X201434342Y-185385771D01*
X201577200Y-185457200D01*
X201934342Y-186528628D02*
X203077200Y-186528628D01*
X203434342Y-185385771D02*
X203434342Y-186885771D01*
X203434342Y-185457200D02*
X203577200Y-185385771D01*
X203862914Y-185385771D01*
X204005771Y-185457200D01*
X204077200Y-185528628D01*
X204148628Y-185671485D01*
X204148628Y-186100057D01*
X204077200Y-186242914D01*
X204005771Y-186314342D01*
X203862914Y-186385771D01*
X203577200Y-186385771D01*
X203434342Y-186314342D01*
X205434342Y-186314342D02*
X205291485Y-186385771D01*
X205005771Y-186385771D01*
X204862914Y-186314342D01*
X204791485Y-186242914D01*
X204720057Y-186100057D01*
X204720057Y-185671485D01*
X204791485Y-185528628D01*
X204862914Y-185457200D01*
X205005771Y-185385771D01*
X205291485Y-185385771D01*
X205434342Y-185457200D01*
X206077200Y-186385771D02*
X206077200Y-184885771D01*
X206077200Y-185457200D02*
X206220057Y-185385771D01*
X206505771Y-185385771D01*
X206648628Y-185457200D01*
X206720057Y-185528628D01*
X206791485Y-185671485D01*
X206791485Y-186100057D01*
X206720057Y-186242914D01*
X206648628Y-186314342D01*
X206505771Y-186385771D01*
X206220057Y-186385771D01*
X206077200Y-186314342D01*
D10*
D11*
X177002200Y-181507200D02*
X285002200Y-181507200D01*
D10*
D11*
X178362914Y-183614342D02*
X178577200Y-183685771D01*
X178934342Y-183685771D01*
X179077200Y-183614342D01*
X179148628Y-183542914D01*
X179220057Y-183400057D01*
X179220057Y-183257200D01*
X179148628Y-183114342D01*
X179077200Y-183042914D01*
X178934342Y-182971485D01*
X178648628Y-182900057D01*
X178505771Y-182828628D01*
X178434342Y-182757200D01*
X178362914Y-182614342D01*
X178362914Y-182471485D01*
X178434342Y-182328628D01*
X178505771Y-182257200D01*
X178648628Y-182185771D01*
X179005771Y-182185771D01*
X179220057Y-182257200D01*
X179862914Y-183685771D02*
X179862914Y-182185771D01*
X180505771Y-183685771D02*
X180505771Y-182900057D01*
X180434342Y-182757200D01*
X180291485Y-182685771D01*
X180077200Y-182685771D01*
X179934342Y-182757200D01*
X179862914Y-182828628D01*
X181791485Y-183614342D02*
X181648628Y-183685771D01*
X181362914Y-183685771D01*
X181220057Y-183614342D01*
X181148628Y-183471485D01*
X181148628Y-182900057D01*
X181220057Y-182757200D01*
X181362914Y-182685771D01*
X181648628Y-182685771D01*
X181791485Y-182757200D01*
X181862914Y-182900057D01*
X181862914Y-183042914D01*
X181148628Y-183185771D01*
X183077200Y-183614342D02*
X182934342Y-183685771D01*
X182648628Y-183685771D01*
X182505771Y-183614342D01*
X182434342Y-183471485D01*
X182434342Y-182900057D01*
X182505771Y-182757200D01*
X182648628Y-182685771D01*
X182934342Y-182685771D01*
X183077200Y-182757200D01*
X183148628Y-182900057D01*
X183148628Y-183042914D01*
X182434342Y-183185771D01*
X183577200Y-182685771D02*
X184148628Y-182685771D01*
X183791485Y-182185771D02*
X183791485Y-183471485D01*
X183862914Y-183614342D01*
X184005771Y-183685771D01*
X184148628Y-183685771D01*
X184648628Y-183542914D02*
X184720057Y-183614342D01*
X184648628Y-183685771D01*
X184577200Y-183614342D01*
X184648628Y-183542914D01*
X184648628Y-183685771D01*
X184648628Y-182757200D02*
X184720057Y-182828628D01*
X184648628Y-182900057D01*
X184577200Y-182828628D01*
X184648628Y-182757200D01*
X184648628Y-182900057D01*
D10*
D11*
X197002200Y-191507200D02*
X197002200Y-194507200D01*
D10*
D11*
X261002200Y-191507200D02*
X261002200Y-198007200D01*
D14*
X255246000Y-136978000D02*
X52246000Y-136978000D01*
D11*
X58496000Y-134728000D02*
X57746000Y-133978000D01*
X59246000Y-134728000D02*
X58496000Y-134728000D01*
X63746000Y-134478000D02*
X63746000Y-134978000D01*
X63246000Y-133978000D02*
X63246000Y-135478000D01*
X62746000Y-133478000D02*
X62746000Y-135978000D01*
X59246000Y-134728000D02*
X62746000Y-134728000D01*
D14*
X255246000Y-48978000D02*
X52246000Y-48978000D01*
X255246000Y-48978000D02*
X255246000Y-136978000D01*
X52246000Y-48978000D02*
X52246000Y-136978000D01*
D15*
%TO.C,RV3*%
X241496000Y-125728000D02*
G75*
G03*
X241496000Y-125728000I-3000000J0D01*
G01*
X245996000Y-111728000D02*
X245996000Y-121728000D01*
X243996000Y-111728000D02*
X245996000Y-111728000D01*
X238996000Y-111728000D02*
X242996000Y-111728000D01*
X233996000Y-111728000D02*
X237996000Y-111728000D01*
X230996000Y-111728000D02*
X230996000Y-121728000D01*
X232996000Y-111728000D02*
X230996000Y-111728000D01*
X242996000Y-118228000D02*
X242996000Y-118578000D01*
X243996000Y-118728000D02*
X243996000Y-119278000D01*
X243996000Y-110228000D02*
X243996000Y-118728000D01*
X242996000Y-110228000D02*
X242996000Y-118228000D01*
X243996000Y-110228000D02*
X243996000Y-109228000D01*
X242996000Y-110228000D02*
X242996000Y-109228000D01*
X243996000Y-110228000D02*
X242996000Y-110228000D01*
X232996000Y-110228000D02*
X232996000Y-119278000D01*
X233996000Y-110228000D02*
X233996000Y-118528000D01*
X233996000Y-110228000D02*
X233996000Y-109228000D01*
X232996000Y-110228000D02*
X232996000Y-109228000D01*
X233996000Y-110228000D02*
X232996000Y-110228000D01*
X237996000Y-110228000D02*
X237996000Y-109228000D01*
X238996000Y-110228000D02*
X238996000Y-109228000D01*
X237996000Y-117228000D02*
X237996000Y-110228000D01*
X238996000Y-110228000D02*
X238996000Y-117228000D01*
X237996000Y-110228000D02*
X238996000Y-110228000D01*
X246946000Y-125728000D02*
G75*
G03*
X246946000Y-125728000I-8450000J0D01*
G01*
%TO.C,F1*%
X121339000Y-117256000D02*
G75*
G03*
X121339000Y-117256000I-3000000J0D01*
G01*
X113439000Y-105006000D02*
X123239000Y-105006000D01*
X113439000Y-129506000D02*
X113439000Y-105006000D01*
X123239000Y-129506000D02*
X113439000Y-129506000D01*
X123239000Y-105006000D02*
X123239000Y-129506000D01*
%TO.C,C5*%
X178367000Y-133148000D02*
X179625000Y-133148000D01*
X178367000Y-131308000D02*
X179625000Y-131308000D01*
%TO.C,C4*%
X164117000Y-133148000D02*
X165375000Y-133148000D01*
X164117000Y-131308000D02*
X165375000Y-131308000D01*
%TO.C,C3*%
X150117000Y-133148000D02*
X151375000Y-133148000D01*
X150117000Y-131308000D02*
X151375000Y-131308000D01*
%TO.C,C2*%
X136375000Y-131308000D02*
X135117000Y-131308000D01*
X136375000Y-133148000D02*
X135117000Y-133148000D01*
%TO.C,D3*%
X146746000Y-73998000D02*
G75*
G03*
X146746000Y-73998000I-5000000J0D01*
G01*
X139370000Y-79058000D02*
X144122000Y-79058000D01*
X141741259Y-68408002D02*
G75*
G03*
X139370184Y-79058000I4741J-5589998D01*
G01*
X141750741Y-68408002D02*
G75*
G02*
X144121816Y-79058000I-4741J-5589998D01*
G01*
%TO.C,R6*%
X200606000Y-95698000D02*
X200936000Y-95698000D01*
X200936000Y-95698000D02*
X200936000Y-102238000D01*
X200936000Y-102238000D02*
X200606000Y-102238000D01*
X198526000Y-95698000D02*
X198196000Y-95698000D01*
X198196000Y-95698000D02*
X198196000Y-102238000D01*
X198196000Y-102238000D02*
X198526000Y-102238000D01*
%TO.C,R8*%
X121056000Y-97628000D02*
X120726000Y-97628000D01*
X120726000Y-97628000D02*
X120726000Y-91088000D01*
X120726000Y-91088000D02*
X121056000Y-91088000D01*
X123136000Y-97628000D02*
X123466000Y-97628000D01*
X123466000Y-97628000D02*
X123466000Y-91088000D01*
X123466000Y-91088000D02*
X123136000Y-91088000D01*
%TO.C,RN4*%
X141576000Y-95458000D02*
X141576000Y-98258000D01*
X141576000Y-98258000D02*
X167316000Y-98258000D01*
X167316000Y-98258000D02*
X167316000Y-95458000D01*
X167316000Y-95458000D02*
X141576000Y-95458000D01*
X144286000Y-95458000D02*
X144286000Y-98258000D01*
%TO.C,U5*%
X164606000Y-106828000D02*
X160746000Y-106828000D01*
X160746000Y-106828000D02*
X160746000Y-107093000D01*
X164606000Y-106828000D02*
X168466000Y-106828000D01*
X168466000Y-106828000D02*
X168466000Y-107093000D01*
X164606000Y-122448000D02*
X160746000Y-122448000D01*
X160746000Y-122448000D02*
X160746000Y-122183000D01*
X164606000Y-122448000D02*
X168466000Y-122448000D01*
X168466000Y-122448000D02*
X168466000Y-122183000D01*
X168466000Y-122183000D02*
X170281000Y-122183000D01*
%TO.C,U4*%
X150636000Y-106828000D02*
X146776000Y-106828000D01*
X146776000Y-106828000D02*
X146776000Y-107093000D01*
X150636000Y-106828000D02*
X154496000Y-106828000D01*
X154496000Y-106828000D02*
X154496000Y-107093000D01*
X150636000Y-122448000D02*
X146776000Y-122448000D01*
X146776000Y-122448000D02*
X146776000Y-122183000D01*
X150636000Y-122448000D02*
X154496000Y-122448000D01*
X154496000Y-122448000D02*
X154496000Y-122183000D01*
X154496000Y-122183000D02*
X156311000Y-122183000D01*
%TO.C,LS1*%
X199306000Y-125638000D02*
G75*
G03*
X199306000Y-125638000I-6100000J0D01*
G01*
%TO.C,DS2*%
X199476000Y-59998000D02*
X199476000Y-87998000D01*
X203476000Y-61748000D02*
G75*
G03*
X203476000Y-61748000I-1500000J0D01*
G01*
X203476000Y-86248000D02*
G75*
G03*
X203476000Y-86248000I-1500000J0D01*
G01*
X179476000Y-86248000D02*
G75*
G03*
X179476000Y-86248000I-1500000J0D01*
G01*
X179476000Y-61748000D02*
G75*
G03*
X179476000Y-61748000I-1500000J0D01*
G01*
X203976000Y-73998000D02*
X203976000Y-87998000D01*
X203976000Y-87998000D02*
X175976000Y-87998000D01*
X175976000Y-87998000D02*
X175976000Y-59998000D01*
X175976000Y-59998000D02*
X203976000Y-59998000D01*
X203976000Y-59998000D02*
X203976000Y-73998000D01*
X180476000Y-87998000D02*
X180476000Y-59998000D01*
%TO.C,DS1*%
X109416000Y-87998000D02*
X109416000Y-59998000D01*
X108416000Y-86248000D02*
G75*
G03*
X108416000Y-86248000I-1500000J0D01*
G01*
X108416000Y-61748000D02*
G75*
G03*
X108416000Y-61748000I-1500000J0D01*
G01*
X132416000Y-61748000D02*
G75*
G03*
X132416000Y-61748000I-1500000J0D01*
G01*
X132416000Y-86248000D02*
G75*
G03*
X132416000Y-86248000I-1500000J0D01*
G01*
X104916000Y-73998000D02*
X104916000Y-59998000D01*
X104916000Y-59998000D02*
X132916000Y-59998000D01*
X132916000Y-59998000D02*
X132916000Y-87998000D01*
X132916000Y-87998000D02*
X104916000Y-87998000D01*
X104916000Y-87998000D02*
X104916000Y-73998000D01*
X128416000Y-59998000D02*
X128416000Y-87998000D01*
%TO.C,R7*%
X188366000Y-102238000D02*
X188036000Y-102238000D01*
X188036000Y-102238000D02*
X188036000Y-95698000D01*
X188036000Y-95698000D02*
X188366000Y-95698000D01*
X190446000Y-102238000D02*
X190776000Y-102238000D01*
X190776000Y-102238000D02*
X190776000Y-95698000D01*
X190776000Y-95698000D02*
X190446000Y-95698000D01*
%TO.C,R5*%
X195526000Y-95698000D02*
X195856000Y-95698000D01*
X195856000Y-95698000D02*
X195856000Y-102238000D01*
X195856000Y-102238000D02*
X195526000Y-102238000D01*
X193446000Y-95698000D02*
X193116000Y-95698000D01*
X193116000Y-95698000D02*
X193116000Y-102238000D01*
X193116000Y-102238000D02*
X193446000Y-102238000D01*
%TO.C,R4*%
X126946000Y-91088000D02*
X127276000Y-91088000D01*
X127276000Y-91088000D02*
X127276000Y-97628000D01*
X127276000Y-97628000D02*
X126946000Y-97628000D01*
X124866000Y-91088000D02*
X124536000Y-91088000D01*
X124536000Y-91088000D02*
X124536000Y-97628000D01*
X124536000Y-97628000D02*
X124866000Y-97628000D01*
%TO.C,R3*%
X130756000Y-91088000D02*
X131086000Y-91088000D01*
X131086000Y-91088000D02*
X131086000Y-97628000D01*
X131086000Y-97628000D02*
X130756000Y-97628000D01*
X128676000Y-91088000D02*
X128346000Y-91088000D01*
X128346000Y-91088000D02*
X128346000Y-97628000D01*
X128346000Y-97628000D02*
X128676000Y-97628000D01*
%TO.C,D10*%
X172146000Y-61298000D02*
G75*
G03*
X172146000Y-61298000I-5000000J0D01*
G01*
X164770000Y-66358000D02*
X169522000Y-66358000D01*
X167141259Y-55708002D02*
G75*
G03*
X164770184Y-66358000I4741J-5589998D01*
G01*
X167150741Y-55708002D02*
G75*
G02*
X169521816Y-66358000I-4741J-5589998D01*
G01*
%TO.C,D9*%
X172146000Y-73998000D02*
G75*
G03*
X172146000Y-73998000I-5000000J0D01*
G01*
X164770000Y-79058000D02*
X169522000Y-79058000D01*
X167141259Y-68408002D02*
G75*
G03*
X164770184Y-79058000I4741J-5589998D01*
G01*
X167150741Y-68408002D02*
G75*
G02*
X169521816Y-79058000I-4741J-5589998D01*
G01*
%TO.C,D8*%
X172146000Y-86698000D02*
G75*
G03*
X172146000Y-86698000I-5000000J0D01*
G01*
X164770000Y-91758000D02*
X169522000Y-91758000D01*
X167141259Y-81108002D02*
G75*
G03*
X164770184Y-91758000I4741J-5589998D01*
G01*
X167150741Y-81108002D02*
G75*
G02*
X169521816Y-91758000I-4741J-5589998D01*
G01*
%TO.C,D7*%
X159446000Y-61298000D02*
G75*
G03*
X159446000Y-61298000I-5000000J0D01*
G01*
X152070000Y-66358000D02*
X156822000Y-66358000D01*
X154441259Y-55708002D02*
G75*
G03*
X152070184Y-66358000I4741J-5589998D01*
G01*
X154450741Y-55708002D02*
G75*
G02*
X156821816Y-66358000I-4741J-5589998D01*
G01*
%TO.C,D6*%
X159446000Y-73998000D02*
G75*
G03*
X159446000Y-73998000I-5000000J0D01*
G01*
X152070000Y-79058000D02*
X156822000Y-79058000D01*
X154441259Y-68408002D02*
G75*
G03*
X152070184Y-79058000I4741J-5589998D01*
G01*
X154450741Y-68408002D02*
G75*
G02*
X156821816Y-79058000I-4741J-5589998D01*
G01*
%TO.C,D5*%
X159446000Y-86698000D02*
G75*
G03*
X159446000Y-86698000I-5000000J0D01*
G01*
X152070000Y-91758000D02*
X156822000Y-91758000D01*
X154441259Y-81108002D02*
G75*
G03*
X152070184Y-91758000I4741J-5589998D01*
G01*
X154450741Y-81108002D02*
G75*
G02*
X156821816Y-91758000I-4741J-5589998D01*
G01*
%TO.C,D4*%
X146746000Y-61298000D02*
G75*
G03*
X146746000Y-61298000I-5000000J0D01*
G01*
X139370000Y-66358000D02*
X144122000Y-66358000D01*
X141741259Y-55708002D02*
G75*
G03*
X139370184Y-66358000I4741J-5589998D01*
G01*
X141750741Y-55708002D02*
G75*
G02*
X144121816Y-66358000I-4741J-5589998D01*
G01*
%TO.C,D2*%
X146746000Y-86698000D02*
G75*
G03*
X146746000Y-86698000I-5000000J0D01*
G01*
X139370000Y-91758000D02*
X144122000Y-91758000D01*
X141741259Y-81108002D02*
G75*
G03*
X139370184Y-91758000I4741J-5589998D01*
G01*
X141750741Y-81108002D02*
G75*
G02*
X144121816Y-91758000I-4741J-5589998D01*
G01*
%TO.C,R2*%
X167106000Y-125428000D02*
X167106000Y-125098000D01*
X167106000Y-125098000D02*
X173646000Y-125098000D01*
X173646000Y-125098000D02*
X173646000Y-125428000D01*
X167106000Y-127508000D02*
X167106000Y-127838000D01*
X167106000Y-127838000D02*
X173646000Y-127838000D01*
X173646000Y-127838000D02*
X173646000Y-127508000D01*
%TO.C,J2*%
X145616000Y-127398000D02*
X145616000Y-124738000D01*
X132856000Y-127398000D02*
X145616000Y-127398000D01*
X132856000Y-124738000D02*
X145616000Y-124738000D01*
X132856000Y-127398000D02*
X132856000Y-124738000D01*
X131586000Y-127398000D02*
X130256000Y-127398000D01*
X130256000Y-127398000D02*
X130256000Y-126068000D01*
%TO.C,U3*%
X136666000Y-106828000D02*
X132806000Y-106828000D01*
X132806000Y-106828000D02*
X132806000Y-107093000D01*
X136666000Y-106828000D02*
X140526000Y-106828000D01*
X140526000Y-106828000D02*
X140526000Y-107093000D01*
X136666000Y-122448000D02*
X132806000Y-122448000D01*
X132806000Y-122448000D02*
X132806000Y-122183000D01*
X136666000Y-122448000D02*
X140526000Y-122448000D01*
X140526000Y-122448000D02*
X140526000Y-122183000D01*
X140526000Y-122183000D02*
X142341000Y-122183000D01*
%TO.C,SW19*%
X217567000Y-112589000D02*
X215917000Y-112589000D01*
X215917000Y-112589000D02*
X215917000Y-130489000D01*
X215917000Y-130489000D02*
X221217000Y-130489000D01*
X221217000Y-130489000D02*
X221217000Y-112589000D01*
X221217000Y-112589000D02*
X219567000Y-112589000D01*
X219567000Y-112589000D02*
G75*
G02*
X217567000Y-112589000I-1000000J0D01*
G01*
%TO.C,SW18*%
X88826000Y-62838000D02*
X88826000Y-58338000D01*
X83072000Y-63990400D02*
X84572000Y-63990400D01*
X82326000Y-58338000D02*
X82326000Y-62838000D01*
X84572000Y-57234000D02*
X83072000Y-57234000D01*
X88152000Y-57234000D02*
X86652000Y-57234000D01*
X86652000Y-63990400D02*
X88152000Y-63990400D01*
%TO.C,SW17*%
X88826000Y-75538000D02*
X88826000Y-71038000D01*
X83072000Y-76690400D02*
X84572000Y-76690400D01*
X82326000Y-71038000D02*
X82326000Y-75538000D01*
X84572000Y-69934000D02*
X83072000Y-69934000D01*
X88152000Y-69934000D02*
X86652000Y-69934000D01*
X86652000Y-76690400D02*
X88152000Y-76690400D01*
%TO.C,SW16*%
X88826000Y-88238000D02*
X88826000Y-83738000D01*
X83072000Y-89390400D02*
X84572000Y-89390400D01*
X82326000Y-83738000D02*
X82326000Y-88238000D01*
X84572000Y-82634000D02*
X83072000Y-82634000D01*
X88152000Y-82634000D02*
X86652000Y-82634000D01*
X86652000Y-89390400D02*
X88152000Y-89390400D01*
%TO.C,SW15*%
X77396000Y-62838000D02*
X77396000Y-58338000D01*
X71642000Y-63990400D02*
X73142000Y-63990400D01*
X70896000Y-58338000D02*
X70896000Y-62838000D01*
X73142000Y-57234000D02*
X71642000Y-57234000D01*
X76722000Y-57234000D02*
X75222000Y-57234000D01*
X75222000Y-63990400D02*
X76722000Y-63990400D01*
%TO.C,SW14*%
X77396000Y-75538000D02*
X77396000Y-71038000D01*
X71642000Y-76690400D02*
X73142000Y-76690400D01*
X70896000Y-71038000D02*
X70896000Y-75538000D01*
X73142000Y-69934000D02*
X71642000Y-69934000D01*
X76722000Y-69934000D02*
X75222000Y-69934000D01*
X75222000Y-76690400D02*
X76722000Y-76690400D01*
%TO.C,SW13*%
X77396000Y-88238000D02*
X77396000Y-83738000D01*
X71642000Y-89390400D02*
X73142000Y-89390400D01*
X70896000Y-83738000D02*
X70896000Y-88238000D01*
X73142000Y-82634000D02*
X71642000Y-82634000D01*
X76722000Y-82634000D02*
X75222000Y-82634000D01*
X75222000Y-89390400D02*
X76722000Y-89390400D01*
%TO.C,SW12*%
X65966000Y-62838000D02*
X65966000Y-58338000D01*
X60212000Y-63990400D02*
X61712000Y-63990400D01*
X59466000Y-58338000D02*
X59466000Y-62838000D01*
X61712000Y-57234000D02*
X60212000Y-57234000D01*
X65292000Y-57234000D02*
X63792000Y-57234000D01*
X63792000Y-63990400D02*
X65292000Y-63990400D01*
%TO.C,SW11*%
X65966000Y-75538000D02*
X65966000Y-71038000D01*
X60212000Y-76690400D02*
X61712000Y-76690400D01*
X59466000Y-71038000D02*
X59466000Y-75538000D01*
X61712000Y-69934000D02*
X60212000Y-69934000D01*
X65292000Y-69934000D02*
X63792000Y-69934000D01*
X63792000Y-76690400D02*
X65292000Y-76690400D01*
%TO.C,SW10*%
X65966000Y-88238000D02*
X65966000Y-83738000D01*
X60212000Y-89390400D02*
X61712000Y-89390400D01*
X59466000Y-83738000D02*
X59466000Y-88238000D01*
X61712000Y-82634000D02*
X60212000Y-82634000D01*
X65292000Y-82634000D02*
X63792000Y-82634000D01*
X63792000Y-89390400D02*
X65292000Y-89390400D01*
%TO.C,RN3*%
X207818000Y-133047000D02*
X210618000Y-133047000D01*
X210618000Y-133047000D02*
X210618000Y-107307000D01*
X210618000Y-107307000D02*
X207818000Y-107307000D01*
X207818000Y-107307000D02*
X207818000Y-133047000D01*
X207818000Y-130337000D02*
X210618000Y-130337000D01*
%TO.C,RN2*%
X59026000Y-95458000D02*
X59026000Y-98258000D01*
X59026000Y-98258000D02*
X84766000Y-98258000D01*
X84766000Y-98258000D02*
X84766000Y-95458000D01*
X84766000Y-95458000D02*
X59026000Y-95458000D01*
X61736000Y-95458000D02*
X61736000Y-98258000D01*
%TO.C,R1*%
X155676000Y-125428000D02*
X155676000Y-125098000D01*
X155676000Y-125098000D02*
X162216000Y-125098000D01*
X162216000Y-125098000D02*
X162216000Y-125428000D01*
X155676000Y-127508000D02*
X155676000Y-127838000D01*
X155676000Y-127838000D02*
X162216000Y-127838000D01*
X162216000Y-127838000D02*
X162216000Y-127508000D01*
%TO.C,U2*%
X178576000Y-106828000D02*
X174716000Y-106828000D01*
X174716000Y-106828000D02*
X174716000Y-107093000D01*
X178576000Y-106828000D02*
X182436000Y-106828000D01*
X182436000Y-106828000D02*
X182436000Y-107093000D01*
X178576000Y-122448000D02*
X174716000Y-122448000D01*
X174716000Y-122448000D02*
X174716000Y-122183000D01*
X178576000Y-122448000D02*
X182436000Y-122448000D01*
X182436000Y-122448000D02*
X182436000Y-122183000D01*
X182436000Y-122183000D02*
X184251000Y-122183000D01*
%TO.C,U1*%
X108826000Y-116078000D02*
X108826000Y-115678000D01*
X108826000Y-118678000D02*
X108826000Y-118278000D01*
X108826000Y-106678000D02*
X108826000Y-113478000D01*
X98426000Y-106678000D02*
X98826000Y-106678000D01*
X90726000Y-106678000D02*
X91126000Y-106678000D01*
X65326000Y-106678000D02*
X65726000Y-106678000D01*
X57826000Y-106678000D02*
X58126000Y-106678000D01*
X80626000Y-106678000D02*
X81026000Y-106678000D01*
X95826000Y-106678000D02*
X96226000Y-106678000D01*
X75526000Y-106678000D02*
X75926000Y-106678000D01*
X70426000Y-106678000D02*
X70826000Y-106678000D01*
X83126000Y-106678000D02*
X83526000Y-106678000D01*
X88226000Y-106678000D02*
X88626000Y-106678000D01*
X103426000Y-106678000D02*
X103826000Y-106678000D01*
X106026000Y-106678000D02*
X106426000Y-106678000D01*
X100926000Y-106678000D02*
X101326000Y-106678000D01*
X67926000Y-106678000D02*
X68326000Y-106678000D01*
X60226000Y-106678000D02*
X60626000Y-106678000D01*
X62826000Y-106678000D02*
X63226000Y-106678000D01*
X93326000Y-106678000D02*
X93726000Y-106678000D01*
X85626000Y-106678000D02*
X86026000Y-106678000D01*
X78026000Y-106678000D02*
X78426000Y-106678000D01*
X72926000Y-106678000D02*
X73326000Y-106678000D01*
X106026000Y-127678000D02*
X106426000Y-127678000D01*
X103426000Y-127678000D02*
X103826000Y-127678000D01*
X100926000Y-127678000D02*
X101326000Y-127678000D01*
X98426000Y-127678000D02*
X98826000Y-127678000D01*
X95826000Y-127678000D02*
X96226000Y-127678000D01*
X93326000Y-127678000D02*
X93726000Y-127678000D01*
X90726000Y-127678000D02*
X91126000Y-127678000D01*
X88226000Y-127678000D02*
X88626000Y-127678000D01*
X85626000Y-127678000D02*
X86026000Y-127678000D01*
X83126000Y-127678000D02*
X83526000Y-127678000D01*
X80626000Y-127678000D02*
X81026000Y-127678000D01*
X78026000Y-127678000D02*
X78426000Y-127678000D01*
X75526000Y-127678000D02*
X75926000Y-127678000D01*
X72926000Y-127678000D02*
X73326000Y-127678000D01*
X70426000Y-127678000D02*
X70826000Y-127678000D01*
X67926000Y-127678000D02*
X68326000Y-127678000D01*
X65326000Y-127678000D02*
X65726000Y-127678000D01*
X62826000Y-127678000D02*
X63226000Y-127678000D01*
X60226000Y-127678000D02*
X60626000Y-127678000D01*
X57826000Y-127678000D02*
X58126000Y-127678000D01*
X60493000Y-124671000D02*
X57826000Y-124671000D01*
X60493000Y-127678000D02*
X60493000Y-124671000D01*
X108826000Y-120878000D02*
X108826000Y-127678000D01*
X57826000Y-127678000D02*
X57826000Y-106678000D01*
%TO.C,SW9*%
X248846000Y-62838000D02*
X248846000Y-58338000D01*
X243092000Y-63990400D02*
X244592000Y-63990400D01*
X242346000Y-58338000D02*
X242346000Y-62838000D01*
X244592000Y-57234000D02*
X243092000Y-57234000D01*
X248172000Y-57234000D02*
X246672000Y-57234000D01*
X246672000Y-63990400D02*
X248172000Y-63990400D01*
%TO.C,SW8*%
X248846000Y-75538000D02*
X248846000Y-71038000D01*
X243092000Y-76690400D02*
X244592000Y-76690400D01*
X242346000Y-71038000D02*
X242346000Y-75538000D01*
X244592000Y-69934000D02*
X243092000Y-69934000D01*
X248172000Y-69934000D02*
X246672000Y-69934000D01*
X246672000Y-76690400D02*
X248172000Y-76690400D01*
%TO.C,SW7*%
X248846000Y-88238000D02*
X248846000Y-83738000D01*
X243092000Y-89390400D02*
X244592000Y-89390400D01*
X242346000Y-83738000D02*
X242346000Y-88238000D01*
X244592000Y-82634000D02*
X243092000Y-82634000D01*
X248172000Y-82634000D02*
X246672000Y-82634000D01*
X246672000Y-89390400D02*
X248172000Y-89390400D01*
%TO.C,SW6*%
X237416000Y-62838000D02*
X237416000Y-58338000D01*
X231662000Y-63990400D02*
X233162000Y-63990400D01*
X230916000Y-58338000D02*
X230916000Y-62838000D01*
X233162000Y-57234000D02*
X231662000Y-57234000D01*
X236742000Y-57234000D02*
X235242000Y-57234000D01*
X235242000Y-63990400D02*
X236742000Y-63990400D01*
%TO.C,SW5*%
X237416000Y-75538000D02*
X237416000Y-71038000D01*
X231662000Y-76690400D02*
X233162000Y-76690400D01*
X230916000Y-71038000D02*
X230916000Y-75538000D01*
X233162000Y-69934000D02*
X231662000Y-69934000D01*
X236742000Y-69934000D02*
X235242000Y-69934000D01*
X235242000Y-76690400D02*
X236742000Y-76690400D01*
%TO.C,SW4*%
X237416000Y-88238000D02*
X237416000Y-83738000D01*
X231662000Y-89390400D02*
X233162000Y-89390400D01*
X230916000Y-83738000D02*
X230916000Y-88238000D01*
X233162000Y-82634000D02*
X231662000Y-82634000D01*
X236742000Y-82634000D02*
X235242000Y-82634000D01*
X235242000Y-89390400D02*
X236742000Y-89390400D01*
%TO.C,SW3*%
X225986000Y-62838000D02*
X225986000Y-58338000D01*
X220232000Y-63990400D02*
X221732000Y-63990400D01*
X219486000Y-58338000D02*
X219486000Y-62838000D01*
X221732000Y-57234000D02*
X220232000Y-57234000D01*
X225312000Y-57234000D02*
X223812000Y-57234000D01*
X223812000Y-63990400D02*
X225312000Y-63990400D01*
%TO.C,SW2*%
X225986000Y-75538000D02*
X225986000Y-71038000D01*
X220232000Y-76690400D02*
X221732000Y-76690400D01*
X219486000Y-71038000D02*
X219486000Y-75538000D01*
X221732000Y-69934000D02*
X220232000Y-69934000D01*
X225312000Y-69934000D02*
X223812000Y-69934000D01*
X223812000Y-76690400D02*
X225312000Y-76690400D01*
%TO.C,SW1*%
X225986000Y-88238000D02*
X225986000Y-83738000D01*
X220232000Y-89390400D02*
X221732000Y-89390400D01*
X219486000Y-83738000D02*
X219486000Y-88238000D01*
X221732000Y-82634000D02*
X220232000Y-82634000D01*
X225312000Y-82634000D02*
X223812000Y-82634000D01*
X223812000Y-89390400D02*
X225312000Y-89390400D01*
%TO.C,RV2*%
X207456000Y-91628000D02*
X207456000Y-87043000D01*
X207456000Y-83772000D02*
X207456000Y-64243000D01*
X207456000Y-60972000D02*
X207456000Y-56388000D01*
X216696000Y-91628000D02*
X216696000Y-88243000D01*
X216696000Y-84972000D02*
X216696000Y-63043000D01*
X216696000Y-59772000D02*
X216696000Y-56388000D01*
X207456000Y-91628000D02*
X209151000Y-91628000D01*
X211501000Y-91628000D02*
X213371000Y-91628000D01*
X214282000Y-91628000D02*
X216696000Y-91628000D01*
X207456000Y-56388000D02*
X209870000Y-56388000D01*
X210782000Y-56388000D02*
X216696000Y-56388000D01*
X210326000Y-91683000D02*
X209826000Y-92183000D01*
X209826000Y-92183000D02*
X210826000Y-92183000D01*
X210826000Y-92183000D02*
X210326000Y-91683000D01*
X212076000Y-84008000D02*
X212076000Y-64008000D01*
X210576000Y-84008000D02*
X213576000Y-84008000D01*
X211326000Y-83258000D02*
X212076000Y-84008000D01*
X212076000Y-84008000D02*
X212826000Y-83258000D01*
X210576000Y-64008000D02*
X213576000Y-64008000D01*
X211326000Y-64758000D02*
X212076000Y-64008000D01*
X212076000Y-64008000D02*
X212826000Y-64758000D01*
%TO.C,RV1*%
X91886000Y-91628000D02*
X91886000Y-87043000D01*
X91886000Y-83772000D02*
X91886000Y-64243000D01*
X91886000Y-60972000D02*
X91886000Y-56388000D01*
X101126000Y-91628000D02*
X101126000Y-88243000D01*
X101126000Y-84972000D02*
X101126000Y-63043000D01*
X101126000Y-59772000D02*
X101126000Y-56388000D01*
X91886000Y-91628000D02*
X93581000Y-91628000D01*
X95931000Y-91628000D02*
X97801000Y-91628000D01*
X98712000Y-91628000D02*
X101126000Y-91628000D01*
X91886000Y-56388000D02*
X94300000Y-56388000D01*
X95212000Y-56388000D02*
X101126000Y-56388000D01*
X94756000Y-91683000D02*
X94256000Y-92183000D01*
X94256000Y-92183000D02*
X95256000Y-92183000D01*
X95256000Y-92183000D02*
X94756000Y-91683000D01*
X96506000Y-84008000D02*
X96506000Y-64008000D01*
X95006000Y-84008000D02*
X98006000Y-84008000D01*
X95756000Y-83258000D02*
X96506000Y-84008000D01*
X96506000Y-84008000D02*
X97256000Y-83258000D01*
X95006000Y-64008000D02*
X98006000Y-64008000D01*
X95756000Y-64758000D02*
X96506000Y-64008000D01*
X96506000Y-64008000D02*
X97256000Y-64758000D01*
%TO.C,RN1*%
X219046000Y-95458000D02*
X219046000Y-98258000D01*
X219046000Y-98258000D02*
X244786000Y-98258000D01*
X244786000Y-98258000D02*
X244786000Y-95458000D01*
X244786000Y-95458000D02*
X219046000Y-95458000D01*
X221756000Y-95458000D02*
X221756000Y-98258000D01*
%TD*%
%TO.C,RV3*%
D11*
X237900761Y-107775380D02*
X237567428Y-107299190D01*
X237329333Y-107775380D02*
X237329333Y-106775380D01*
X237710285Y-106775380D01*
X237805523Y-106823000D01*
X237853142Y-106870619D01*
X237900761Y-106965857D01*
X237900761Y-107108714D01*
X237853142Y-107203952D01*
X237805523Y-107251571D01*
X237710285Y-107299190D01*
X237329333Y-107299190D01*
X238186476Y-106775380D02*
X238519809Y-107775380D01*
X238853142Y-106775380D01*
X239091238Y-106775380D02*
X239710285Y-106775380D01*
X239376952Y-107156333D01*
X239519809Y-107156333D01*
X239615047Y-107203952D01*
X239662666Y-107251571D01*
X239710285Y-107346809D01*
X239710285Y-107584904D01*
X239662666Y-107680142D01*
X239615047Y-107727761D01*
X239519809Y-107775380D01*
X239234095Y-107775380D01*
X239138857Y-107727761D01*
X239091238Y-107680142D01*
%TO.C,F1*%
X118167571Y-117589333D02*
X118167571Y-117922666D01*
X118691380Y-117922666D02*
X117691380Y-117922666D01*
X117691380Y-117446476D01*
X118691380Y-116541714D02*
X118691380Y-117113142D01*
X118691380Y-116827428D02*
X117691380Y-116827428D01*
X117834238Y-116922666D01*
X117929476Y-117017904D01*
X117977095Y-117113142D01*
%TO.C,C5*%
X178829333Y-130535142D02*
X178781714Y-130582761D01*
X178638857Y-130630380D01*
X178543619Y-130630380D01*
X178400761Y-130582761D01*
X178305523Y-130487523D01*
X178257904Y-130392285D01*
X178210285Y-130201809D01*
X178210285Y-130058952D01*
X178257904Y-129868476D01*
X178305523Y-129773238D01*
X178400761Y-129678000D01*
X178543619Y-129630380D01*
X178638857Y-129630380D01*
X178781714Y-129678000D01*
X178829333Y-129725619D01*
X179734095Y-129630380D02*
X179257904Y-129630380D01*
X179210285Y-130106571D01*
X179257904Y-130058952D01*
X179353142Y-130011333D01*
X179591238Y-130011333D01*
X179686476Y-130058952D01*
X179734095Y-130106571D01*
X179781714Y-130201809D01*
X179781714Y-130439904D01*
X179734095Y-130535142D01*
X179686476Y-130582761D01*
X179591238Y-130630380D01*
X179353142Y-130630380D01*
X179257904Y-130582761D01*
X179210285Y-130535142D01*
%TO.C,C4*%
X164579333Y-130535142D02*
X164531714Y-130582761D01*
X164388857Y-130630380D01*
X164293619Y-130630380D01*
X164150761Y-130582761D01*
X164055523Y-130487523D01*
X164007904Y-130392285D01*
X163960285Y-130201809D01*
X163960285Y-130058952D01*
X164007904Y-129868476D01*
X164055523Y-129773238D01*
X164150761Y-129678000D01*
X164293619Y-129630380D01*
X164388857Y-129630380D01*
X164531714Y-129678000D01*
X164579333Y-129725619D01*
X165436476Y-129963714D02*
X165436476Y-130630380D01*
X165198380Y-129582761D02*
X164960285Y-130297047D01*
X165579333Y-130297047D01*
%TO.C,C3*%
X150579333Y-130535142D02*
X150531714Y-130582761D01*
X150388857Y-130630380D01*
X150293619Y-130630380D01*
X150150761Y-130582761D01*
X150055523Y-130487523D01*
X150007904Y-130392285D01*
X149960285Y-130201809D01*
X149960285Y-130058952D01*
X150007904Y-129868476D01*
X150055523Y-129773238D01*
X150150761Y-129678000D01*
X150293619Y-129630380D01*
X150388857Y-129630380D01*
X150531714Y-129678000D01*
X150579333Y-129725619D01*
X150912666Y-129630380D02*
X151531714Y-129630380D01*
X151198380Y-130011333D01*
X151341238Y-130011333D01*
X151436476Y-130058952D01*
X151484095Y-130106571D01*
X151531714Y-130201809D01*
X151531714Y-130439904D01*
X151484095Y-130535142D01*
X151436476Y-130582761D01*
X151341238Y-130630380D01*
X151055523Y-130630380D01*
X150960285Y-130582761D01*
X150912666Y-130535142D01*
%TO.C,C2*%
X135579333Y-134635142D02*
X135531714Y-134682761D01*
X135388857Y-134730380D01*
X135293619Y-134730380D01*
X135150761Y-134682761D01*
X135055523Y-134587523D01*
X135007904Y-134492285D01*
X134960285Y-134301809D01*
X134960285Y-134158952D01*
X135007904Y-133968476D01*
X135055523Y-133873238D01*
X135150761Y-133778000D01*
X135293619Y-133730380D01*
X135388857Y-133730380D01*
X135531714Y-133778000D01*
X135579333Y-133825619D01*
X135960285Y-133825619D02*
X136007904Y-133778000D01*
X136103142Y-133730380D01*
X136341238Y-133730380D01*
X136436476Y-133778000D01*
X136484095Y-133825619D01*
X136531714Y-133920857D01*
X136531714Y-134016095D01*
X136484095Y-134158952D01*
X135912666Y-134730380D01*
X136531714Y-134730380D01*
%TO.C,D3*%
X135638380Y-74736095D02*
X134638380Y-74736095D01*
X134638380Y-74498000D01*
X134686000Y-74355142D01*
X134781238Y-74259904D01*
X134876476Y-74212285D01*
X135066952Y-74164666D01*
X135209809Y-74164666D01*
X135400285Y-74212285D01*
X135495523Y-74259904D01*
X135590761Y-74355142D01*
X135638380Y-74498000D01*
X135638380Y-74736095D01*
X134638380Y-73831333D02*
X134638380Y-73212285D01*
X135019333Y-73545619D01*
X135019333Y-73402761D01*
X135066952Y-73307523D01*
X135114571Y-73259904D01*
X135209809Y-73212285D01*
X135447904Y-73212285D01*
X135543142Y-73259904D01*
X135590761Y-73307523D01*
X135638380Y-73402761D01*
X135638380Y-73688476D01*
X135590761Y-73783714D01*
X135543142Y-73831333D01*
%TO.C,R6*%
X202388380Y-99134666D02*
X201912190Y-99468000D01*
X202388380Y-99706095D02*
X201388380Y-99706095D01*
X201388380Y-99325142D01*
X201436000Y-99229904D01*
X201483619Y-99182285D01*
X201578857Y-99134666D01*
X201721714Y-99134666D01*
X201816952Y-99182285D01*
X201864571Y-99229904D01*
X201912190Y-99325142D01*
X201912190Y-99706095D01*
X201388380Y-98277523D02*
X201388380Y-98468000D01*
X201436000Y-98563238D01*
X201483619Y-98610857D01*
X201626476Y-98706095D01*
X201816952Y-98753714D01*
X202197904Y-98753714D01*
X202293142Y-98706095D01*
X202340761Y-98658476D01*
X202388380Y-98563238D01*
X202388380Y-98372761D01*
X202340761Y-98277523D01*
X202293142Y-98229904D01*
X202197904Y-98182285D01*
X201959809Y-98182285D01*
X201864571Y-98229904D01*
X201816952Y-98277523D01*
X201769333Y-98372761D01*
X201769333Y-98563238D01*
X201816952Y-98658476D01*
X201864571Y-98706095D01*
X201959809Y-98753714D01*
%TO.C,R8*%
X120178380Y-94524666D02*
X119702190Y-94858000D01*
X120178380Y-95096095D02*
X119178380Y-95096095D01*
X119178380Y-94715142D01*
X119226000Y-94619904D01*
X119273619Y-94572285D01*
X119368857Y-94524666D01*
X119511714Y-94524666D01*
X119606952Y-94572285D01*
X119654571Y-94619904D01*
X119702190Y-94715142D01*
X119702190Y-95096095D01*
X119606952Y-93953238D02*
X119559333Y-94048476D01*
X119511714Y-94096095D01*
X119416476Y-94143714D01*
X119368857Y-94143714D01*
X119273619Y-94096095D01*
X119226000Y-94048476D01*
X119178380Y-93953238D01*
X119178380Y-93762761D01*
X119226000Y-93667523D01*
X119273619Y-93619904D01*
X119368857Y-93572285D01*
X119416476Y-93572285D01*
X119511714Y-93619904D01*
X119559333Y-93667523D01*
X119606952Y-93762761D01*
X119606952Y-93953238D01*
X119654571Y-94048476D01*
X119702190Y-94096095D01*
X119797428Y-94143714D01*
X119987904Y-94143714D01*
X120083142Y-94096095D01*
X120130761Y-94048476D01*
X120178380Y-93953238D01*
X120178380Y-93762761D01*
X120130761Y-93667523D01*
X120083142Y-93619904D01*
X119987904Y-93572285D01*
X119797428Y-93572285D01*
X119702190Y-93619904D01*
X119654571Y-93667523D01*
X119606952Y-93762761D01*
%TO.C,RN4*%
X155025523Y-94910380D02*
X154692190Y-94434190D01*
X154454095Y-94910380D02*
X154454095Y-93910380D01*
X154835047Y-93910380D01*
X154930285Y-93958000D01*
X154977904Y-94005619D01*
X155025523Y-94100857D01*
X155025523Y-94243714D01*
X154977904Y-94338952D01*
X154930285Y-94386571D01*
X154835047Y-94434190D01*
X154454095Y-94434190D01*
X155454095Y-94910380D02*
X155454095Y-93910380D01*
X156025523Y-94910380D01*
X156025523Y-93910380D01*
X156930285Y-94243714D02*
X156930285Y-94910380D01*
X156692190Y-93862761D02*
X156454095Y-94577047D01*
X157073142Y-94577047D01*
%TO.C,U5*%
X163844095Y-122740380D02*
X163844095Y-123549904D01*
X163891714Y-123645142D01*
X163939333Y-123692761D01*
X164034571Y-123740380D01*
X164225047Y-123740380D01*
X164320285Y-123692761D01*
X164367904Y-123645142D01*
X164415523Y-123549904D01*
X164415523Y-122740380D01*
X165367904Y-122740380D02*
X164891714Y-122740380D01*
X164844095Y-123216571D01*
X164891714Y-123168952D01*
X164986952Y-123121333D01*
X165225047Y-123121333D01*
X165320285Y-123168952D01*
X165367904Y-123216571D01*
X165415523Y-123311809D01*
X165415523Y-123549904D01*
X165367904Y-123645142D01*
X165320285Y-123692761D01*
X165225047Y-123740380D01*
X164986952Y-123740380D01*
X164891714Y-123692761D01*
X164844095Y-123645142D01*
%TO.C,U4*%
X149874095Y-122740380D02*
X149874095Y-123549904D01*
X149921714Y-123645142D01*
X149969333Y-123692761D01*
X150064571Y-123740380D01*
X150255047Y-123740380D01*
X150350285Y-123692761D01*
X150397904Y-123645142D01*
X150445523Y-123549904D01*
X150445523Y-122740380D01*
X151350285Y-123073714D02*
X151350285Y-123740380D01*
X151112190Y-122692761D02*
X150874095Y-123407047D01*
X151493142Y-123407047D01*
%TO.C,LS1*%
X192563142Y-133290380D02*
X192086952Y-133290380D01*
X192086952Y-132290380D01*
X192848857Y-133242761D02*
X192991714Y-133290380D01*
X193229809Y-133290380D01*
X193325047Y-133242761D01*
X193372666Y-133195142D01*
X193420285Y-133099904D01*
X193420285Y-133004666D01*
X193372666Y-132909428D01*
X193325047Y-132861809D01*
X193229809Y-132814190D01*
X193039333Y-132766571D01*
X192944095Y-132718952D01*
X192896476Y-132671333D01*
X192848857Y-132576095D01*
X192848857Y-132480857D01*
X192896476Y-132385619D01*
X192944095Y-132338000D01*
X193039333Y-132290380D01*
X193277428Y-132290380D01*
X193420285Y-132338000D01*
X194372666Y-133290380D02*
X193801238Y-133290380D01*
X194086952Y-133290380D02*
X194086952Y-132290380D01*
X193991714Y-132433238D01*
X193896476Y-132528476D01*
X193801238Y-132576095D01*
X196635047Y-128249428D02*
X197396952Y-128249428D01*
X197016000Y-128630380D02*
X197016000Y-127868476D01*
%TO.C,DS2*%
X203158380Y-75212285D02*
X202158380Y-75212285D01*
X202158380Y-74974190D01*
X202206000Y-74831333D01*
X202301238Y-74736095D01*
X202396476Y-74688476D01*
X202586952Y-74640857D01*
X202729809Y-74640857D01*
X202920285Y-74688476D01*
X203015523Y-74736095D01*
X203110761Y-74831333D01*
X203158380Y-74974190D01*
X203158380Y-75212285D01*
X203110761Y-74259904D02*
X203158380Y-74117047D01*
X203158380Y-73878952D01*
X203110761Y-73783714D01*
X203063142Y-73736095D01*
X202967904Y-73688476D01*
X202872666Y-73688476D01*
X202777428Y-73736095D01*
X202729809Y-73783714D01*
X202682190Y-73878952D01*
X202634571Y-74069428D01*
X202586952Y-74164666D01*
X202539333Y-74212285D01*
X202444095Y-74259904D01*
X202348857Y-74259904D01*
X202253619Y-74212285D01*
X202206000Y-74164666D01*
X202158380Y-74069428D01*
X202158380Y-73831333D01*
X202206000Y-73688476D01*
X202253619Y-73307523D02*
X202206000Y-73259904D01*
X202158380Y-73164666D01*
X202158380Y-72926571D01*
X202206000Y-72831333D01*
X202253619Y-72783714D01*
X202348857Y-72736095D01*
X202444095Y-72736095D01*
X202586952Y-72783714D01*
X203158380Y-73355142D01*
X203158380Y-72736095D01*
%TO.C,DS1*%
X106638380Y-75212285D02*
X105638380Y-75212285D01*
X105638380Y-74974190D01*
X105686000Y-74831333D01*
X105781238Y-74736095D01*
X105876476Y-74688476D01*
X106066952Y-74640857D01*
X106209809Y-74640857D01*
X106400285Y-74688476D01*
X106495523Y-74736095D01*
X106590761Y-74831333D01*
X106638380Y-74974190D01*
X106638380Y-75212285D01*
X106590761Y-74259904D02*
X106638380Y-74117047D01*
X106638380Y-73878952D01*
X106590761Y-73783714D01*
X106543142Y-73736095D01*
X106447904Y-73688476D01*
X106352666Y-73688476D01*
X106257428Y-73736095D01*
X106209809Y-73783714D01*
X106162190Y-73878952D01*
X106114571Y-74069428D01*
X106066952Y-74164666D01*
X106019333Y-74212285D01*
X105924095Y-74259904D01*
X105828857Y-74259904D01*
X105733619Y-74212285D01*
X105686000Y-74164666D01*
X105638380Y-74069428D01*
X105638380Y-73831333D01*
X105686000Y-73688476D01*
X106638380Y-72736095D02*
X106638380Y-73307523D01*
X106638380Y-73021809D02*
X105638380Y-73021809D01*
X105781238Y-73117047D01*
X105876476Y-73212285D01*
X105924095Y-73307523D01*
%TO.C,R7*%
X187488380Y-99134666D02*
X187012190Y-99468000D01*
X187488380Y-99706095D02*
X186488380Y-99706095D01*
X186488380Y-99325142D01*
X186536000Y-99229904D01*
X186583619Y-99182285D01*
X186678857Y-99134666D01*
X186821714Y-99134666D01*
X186916952Y-99182285D01*
X186964571Y-99229904D01*
X187012190Y-99325142D01*
X187012190Y-99706095D01*
X186488380Y-98801333D02*
X186488380Y-98134666D01*
X187488380Y-98563238D01*
%TO.C,R5*%
X197308380Y-99134666D02*
X196832190Y-99468000D01*
X197308380Y-99706095D02*
X196308380Y-99706095D01*
X196308380Y-99325142D01*
X196356000Y-99229904D01*
X196403619Y-99182285D01*
X196498857Y-99134666D01*
X196641714Y-99134666D01*
X196736952Y-99182285D01*
X196784571Y-99229904D01*
X196832190Y-99325142D01*
X196832190Y-99706095D01*
X196308380Y-98229904D02*
X196308380Y-98706095D01*
X196784571Y-98753714D01*
X196736952Y-98706095D01*
X196689333Y-98610857D01*
X196689333Y-98372761D01*
X196736952Y-98277523D01*
X196784571Y-98229904D01*
X196879809Y-98182285D01*
X197117904Y-98182285D01*
X197213142Y-98229904D01*
X197260761Y-98277523D01*
X197308380Y-98372761D01*
X197308380Y-98610857D01*
X197260761Y-98706095D01*
X197213142Y-98753714D01*
%TO.C,R4*%
X128728380Y-94524666D02*
X128252190Y-94858000D01*
X128728380Y-95096095D02*
X127728380Y-95096095D01*
X127728380Y-94715142D01*
X127776000Y-94619904D01*
X127823619Y-94572285D01*
X127918857Y-94524666D01*
X128061714Y-94524666D01*
X128156952Y-94572285D01*
X128204571Y-94619904D01*
X128252190Y-94715142D01*
X128252190Y-95096095D01*
X128061714Y-93667523D02*
X128728380Y-93667523D01*
X127680761Y-93905619D02*
X128395047Y-94143714D01*
X128395047Y-93524666D01*
%TO.C,R3*%
X132538380Y-94524666D02*
X132062190Y-94858000D01*
X132538380Y-95096095D02*
X131538380Y-95096095D01*
X131538380Y-94715142D01*
X131586000Y-94619904D01*
X131633619Y-94572285D01*
X131728857Y-94524666D01*
X131871714Y-94524666D01*
X131966952Y-94572285D01*
X132014571Y-94619904D01*
X132062190Y-94715142D01*
X132062190Y-95096095D01*
X131538380Y-94191333D02*
X131538380Y-93572285D01*
X131919333Y-93905619D01*
X131919333Y-93762761D01*
X131966952Y-93667523D01*
X132014571Y-93619904D01*
X132109809Y-93572285D01*
X132347904Y-93572285D01*
X132443142Y-93619904D01*
X132490761Y-93667523D01*
X132538380Y-93762761D01*
X132538380Y-94048476D01*
X132490761Y-94143714D01*
X132443142Y-94191333D01*
%TO.C,D10*%
X161038380Y-62512285D02*
X160038380Y-62512285D01*
X160038380Y-62274190D01*
X160086000Y-62131333D01*
X160181238Y-62036095D01*
X160276476Y-61988476D01*
X160466952Y-61940857D01*
X160609809Y-61940857D01*
X160800285Y-61988476D01*
X160895523Y-62036095D01*
X160990761Y-62131333D01*
X161038380Y-62274190D01*
X161038380Y-62512285D01*
X161038380Y-60988476D02*
X161038380Y-61559904D01*
X161038380Y-61274190D02*
X160038380Y-61274190D01*
X160181238Y-61369428D01*
X160276476Y-61464666D01*
X160324095Y-61559904D01*
X160038380Y-60369428D02*
X160038380Y-60274190D01*
X160086000Y-60178952D01*
X160133619Y-60131333D01*
X160228857Y-60083714D01*
X160419333Y-60036095D01*
X160657428Y-60036095D01*
X160847904Y-60083714D01*
X160943142Y-60131333D01*
X160990761Y-60178952D01*
X161038380Y-60274190D01*
X161038380Y-60369428D01*
X160990761Y-60464666D01*
X160943142Y-60512285D01*
X160847904Y-60559904D01*
X160657428Y-60607523D01*
X160419333Y-60607523D01*
X160228857Y-60559904D01*
X160133619Y-60512285D01*
X160086000Y-60464666D01*
X160038380Y-60369428D01*
%TO.C,D9*%
X161038380Y-74736095D02*
X160038380Y-74736095D01*
X160038380Y-74498000D01*
X160086000Y-74355142D01*
X160181238Y-74259904D01*
X160276476Y-74212285D01*
X160466952Y-74164666D01*
X160609809Y-74164666D01*
X160800285Y-74212285D01*
X160895523Y-74259904D01*
X160990761Y-74355142D01*
X161038380Y-74498000D01*
X161038380Y-74736095D01*
X161038380Y-73688476D02*
X161038380Y-73498000D01*
X160990761Y-73402761D01*
X160943142Y-73355142D01*
X160800285Y-73259904D01*
X160609809Y-73212285D01*
X160228857Y-73212285D01*
X160133619Y-73259904D01*
X160086000Y-73307523D01*
X160038380Y-73402761D01*
X160038380Y-73593238D01*
X160086000Y-73688476D01*
X160133619Y-73736095D01*
X160228857Y-73783714D01*
X160466952Y-73783714D01*
X160562190Y-73736095D01*
X160609809Y-73688476D01*
X160657428Y-73593238D01*
X160657428Y-73402761D01*
X160609809Y-73307523D01*
X160562190Y-73259904D01*
X160466952Y-73212285D01*
%TO.C,D8*%
X161038380Y-87436095D02*
X160038380Y-87436095D01*
X160038380Y-87198000D01*
X160086000Y-87055142D01*
X160181238Y-86959904D01*
X160276476Y-86912285D01*
X160466952Y-86864666D01*
X160609809Y-86864666D01*
X160800285Y-86912285D01*
X160895523Y-86959904D01*
X160990761Y-87055142D01*
X161038380Y-87198000D01*
X161038380Y-87436095D01*
X160466952Y-86293238D02*
X160419333Y-86388476D01*
X160371714Y-86436095D01*
X160276476Y-86483714D01*
X160228857Y-86483714D01*
X160133619Y-86436095D01*
X160086000Y-86388476D01*
X160038380Y-86293238D01*
X160038380Y-86102761D01*
X160086000Y-86007523D01*
X160133619Y-85959904D01*
X160228857Y-85912285D01*
X160276476Y-85912285D01*
X160371714Y-85959904D01*
X160419333Y-86007523D01*
X160466952Y-86102761D01*
X160466952Y-86293238D01*
X160514571Y-86388476D01*
X160562190Y-86436095D01*
X160657428Y-86483714D01*
X160847904Y-86483714D01*
X160943142Y-86436095D01*
X160990761Y-86388476D01*
X161038380Y-86293238D01*
X161038380Y-86102761D01*
X160990761Y-86007523D01*
X160943142Y-85959904D01*
X160847904Y-85912285D01*
X160657428Y-85912285D01*
X160562190Y-85959904D01*
X160514571Y-86007523D01*
X160466952Y-86102761D01*
%TO.C,D7*%
X148338380Y-62036095D02*
X147338380Y-62036095D01*
X147338380Y-61798000D01*
X147386000Y-61655142D01*
X147481238Y-61559904D01*
X147576476Y-61512285D01*
X147766952Y-61464666D01*
X147909809Y-61464666D01*
X148100285Y-61512285D01*
X148195523Y-61559904D01*
X148290761Y-61655142D01*
X148338380Y-61798000D01*
X148338380Y-62036095D01*
X147338380Y-61131333D02*
X147338380Y-60464666D01*
X148338380Y-60893238D01*
%TO.C,D6*%
X148338380Y-74736095D02*
X147338380Y-74736095D01*
X147338380Y-74498000D01*
X147386000Y-74355142D01*
X147481238Y-74259904D01*
X147576476Y-74212285D01*
X147766952Y-74164666D01*
X147909809Y-74164666D01*
X148100285Y-74212285D01*
X148195523Y-74259904D01*
X148290761Y-74355142D01*
X148338380Y-74498000D01*
X148338380Y-74736095D01*
X147338380Y-73307523D02*
X147338380Y-73498000D01*
X147386000Y-73593238D01*
X147433619Y-73640857D01*
X147576476Y-73736095D01*
X147766952Y-73783714D01*
X148147904Y-73783714D01*
X148243142Y-73736095D01*
X148290761Y-73688476D01*
X148338380Y-73593238D01*
X148338380Y-73402761D01*
X148290761Y-73307523D01*
X148243142Y-73259904D01*
X148147904Y-73212285D01*
X147909809Y-73212285D01*
X147814571Y-73259904D01*
X147766952Y-73307523D01*
X147719333Y-73402761D01*
X147719333Y-73593238D01*
X147766952Y-73688476D01*
X147814571Y-73736095D01*
X147909809Y-73783714D01*
%TO.C,D5*%
X148338380Y-87436095D02*
X147338380Y-87436095D01*
X147338380Y-87198000D01*
X147386000Y-87055142D01*
X147481238Y-86959904D01*
X147576476Y-86912285D01*
X147766952Y-86864666D01*
X147909809Y-86864666D01*
X148100285Y-86912285D01*
X148195523Y-86959904D01*
X148290761Y-87055142D01*
X148338380Y-87198000D01*
X148338380Y-87436095D01*
X147338380Y-85959904D02*
X147338380Y-86436095D01*
X147814571Y-86483714D01*
X147766952Y-86436095D01*
X147719333Y-86340857D01*
X147719333Y-86102761D01*
X147766952Y-86007523D01*
X147814571Y-85959904D01*
X147909809Y-85912285D01*
X148147904Y-85912285D01*
X148243142Y-85959904D01*
X148290761Y-86007523D01*
X148338380Y-86102761D01*
X148338380Y-86340857D01*
X148290761Y-86436095D01*
X148243142Y-86483714D01*
%TO.C,D4*%
X135638380Y-62036095D02*
X134638380Y-62036095D01*
X134638380Y-61798000D01*
X134686000Y-61655142D01*
X134781238Y-61559904D01*
X134876476Y-61512285D01*
X135066952Y-61464666D01*
X135209809Y-61464666D01*
X135400285Y-61512285D01*
X135495523Y-61559904D01*
X135590761Y-61655142D01*
X135638380Y-61798000D01*
X135638380Y-62036095D01*
X134971714Y-60607523D02*
X135638380Y-60607523D01*
X134590761Y-60845619D02*
X135305047Y-61083714D01*
X135305047Y-60464666D01*
%TO.C,D2*%
X135638380Y-87436095D02*
X134638380Y-87436095D01*
X134638380Y-87198000D01*
X134686000Y-87055142D01*
X134781238Y-86959904D01*
X134876476Y-86912285D01*
X135066952Y-86864666D01*
X135209809Y-86864666D01*
X135400285Y-86912285D01*
X135495523Y-86959904D01*
X135590761Y-87055142D01*
X135638380Y-87198000D01*
X135638380Y-87436095D01*
X134733619Y-86483714D02*
X134686000Y-86436095D01*
X134638380Y-86340857D01*
X134638380Y-86102761D01*
X134686000Y-86007523D01*
X134733619Y-85959904D01*
X134828857Y-85912285D01*
X134924095Y-85912285D01*
X135066952Y-85959904D01*
X135638380Y-86531333D01*
X135638380Y-85912285D01*
%TO.C,R2*%
X170209333Y-124550380D02*
X169876000Y-124074190D01*
X169637904Y-124550380D02*
X169637904Y-123550380D01*
X170018857Y-123550380D01*
X170114095Y-123598000D01*
X170161714Y-123645619D01*
X170209333Y-123740857D01*
X170209333Y-123883714D01*
X170161714Y-123978952D01*
X170114095Y-124026571D01*
X170018857Y-124074190D01*
X169637904Y-124074190D01*
X170590285Y-123645619D02*
X170637904Y-123598000D01*
X170733142Y-123550380D01*
X170971238Y-123550380D01*
X171066476Y-123598000D01*
X171114095Y-123645619D01*
X171161714Y-123740857D01*
X171161714Y-123836095D01*
X171114095Y-123978952D01*
X170542666Y-124550380D01*
X171161714Y-124550380D01*
%TO.C,J2*%
X128708380Y-126401333D02*
X129422666Y-126401333D01*
X129565523Y-126448952D01*
X129660761Y-126544190D01*
X129708380Y-126687047D01*
X129708380Y-126782285D01*
X128803619Y-125972761D02*
X128756000Y-125925142D01*
X128708380Y-125829904D01*
X128708380Y-125591809D01*
X128756000Y-125496571D01*
X128803619Y-125448952D01*
X128898857Y-125401333D01*
X128994095Y-125401333D01*
X129136952Y-125448952D01*
X129708380Y-126020380D01*
X129708380Y-125401333D01*
%TO.C,U3*%
X135904095Y-122740380D02*
X135904095Y-123549904D01*
X135951714Y-123645142D01*
X135999333Y-123692761D01*
X136094571Y-123740380D01*
X136285047Y-123740380D01*
X136380285Y-123692761D01*
X136427904Y-123645142D01*
X136475523Y-123549904D01*
X136475523Y-122740380D01*
X136856476Y-122740380D02*
X137475523Y-122740380D01*
X137142190Y-123121333D01*
X137285047Y-123121333D01*
X137380285Y-123168952D01*
X137427904Y-123216571D01*
X137475523Y-123311809D01*
X137475523Y-123549904D01*
X137427904Y-123645142D01*
X137380285Y-123692761D01*
X137285047Y-123740380D01*
X136999333Y-123740380D01*
X136904095Y-123692761D01*
X136856476Y-123645142D01*
%TO.C,SW19*%
X216757476Y-111993761D02*
X216900333Y-112041380D01*
X217138428Y-112041380D01*
X217233666Y-111993761D01*
X217281285Y-111946142D01*
X217328904Y-111850904D01*
X217328904Y-111755666D01*
X217281285Y-111660428D01*
X217233666Y-111612809D01*
X217138428Y-111565190D01*
X216947952Y-111517571D01*
X216852714Y-111469952D01*
X216805095Y-111422333D01*
X216757476Y-111327095D01*
X216757476Y-111231857D01*
X216805095Y-111136619D01*
X216852714Y-111089000D01*
X216947952Y-111041380D01*
X217186047Y-111041380D01*
X217328904Y-111089000D01*
X217662238Y-111041380D02*
X217900333Y-112041380D01*
X218090809Y-111327095D01*
X218281285Y-112041380D01*
X218519380Y-111041380D01*
X219424142Y-112041380D02*
X218852714Y-112041380D01*
X219138428Y-112041380D02*
X219138428Y-111041380D01*
X219043190Y-111184238D01*
X218947952Y-111279476D01*
X218852714Y-111327095D01*
X219900333Y-112041380D02*
X220090809Y-112041380D01*
X220186047Y-111993761D01*
X220233666Y-111946142D01*
X220328904Y-111803285D01*
X220376523Y-111612809D01*
X220376523Y-111231857D01*
X220328904Y-111136619D01*
X220281285Y-111089000D01*
X220186047Y-111041380D01*
X219995571Y-111041380D01*
X219900333Y-111089000D01*
X219852714Y-111136619D01*
X219805095Y-111231857D01*
X219805095Y-111469952D01*
X219852714Y-111565190D01*
X219900333Y-111612809D01*
X219995571Y-111660428D01*
X220186047Y-111660428D01*
X220281285Y-111612809D01*
X220328904Y-111565190D01*
X220376523Y-111469952D01*
%TO.C,SW18*%
X81730761Y-62397523D02*
X81778380Y-62254666D01*
X81778380Y-62016571D01*
X81730761Y-61921333D01*
X81683142Y-61873714D01*
X81587904Y-61826095D01*
X81492666Y-61826095D01*
X81397428Y-61873714D01*
X81349809Y-61921333D01*
X81302190Y-62016571D01*
X81254571Y-62207047D01*
X81206952Y-62302285D01*
X81159333Y-62349904D01*
X81064095Y-62397523D01*
X80968857Y-62397523D01*
X80873619Y-62349904D01*
X80826000Y-62302285D01*
X80778380Y-62207047D01*
X80778380Y-61968952D01*
X80826000Y-61826095D01*
X80778380Y-61492761D02*
X81778380Y-61254666D01*
X81064095Y-61064190D01*
X81778380Y-60873714D01*
X80778380Y-60635619D01*
X81778380Y-59730857D02*
X81778380Y-60302285D01*
X81778380Y-60016571D02*
X80778380Y-60016571D01*
X80921238Y-60111809D01*
X81016476Y-60207047D01*
X81064095Y-60302285D01*
X81206952Y-59159428D02*
X81159333Y-59254666D01*
X81111714Y-59302285D01*
X81016476Y-59349904D01*
X80968857Y-59349904D01*
X80873619Y-59302285D01*
X80826000Y-59254666D01*
X80778380Y-59159428D01*
X80778380Y-58968952D01*
X80826000Y-58873714D01*
X80873619Y-58826095D01*
X80968857Y-58778476D01*
X81016476Y-58778476D01*
X81111714Y-58826095D01*
X81159333Y-58873714D01*
X81206952Y-58968952D01*
X81206952Y-59159428D01*
X81254571Y-59254666D01*
X81302190Y-59302285D01*
X81397428Y-59349904D01*
X81587904Y-59349904D01*
X81683142Y-59302285D01*
X81730761Y-59254666D01*
X81778380Y-59159428D01*
X81778380Y-58968952D01*
X81730761Y-58873714D01*
X81683142Y-58826095D01*
X81587904Y-58778476D01*
X81397428Y-58778476D01*
X81302190Y-58826095D01*
X81254571Y-58873714D01*
X81206952Y-58968952D01*
%TO.C,SW17*%
X81730761Y-75097523D02*
X81778380Y-74954666D01*
X81778380Y-74716571D01*
X81730761Y-74621333D01*
X81683142Y-74573714D01*
X81587904Y-74526095D01*
X81492666Y-74526095D01*
X81397428Y-74573714D01*
X81349809Y-74621333D01*
X81302190Y-74716571D01*
X81254571Y-74907047D01*
X81206952Y-75002285D01*
X81159333Y-75049904D01*
X81064095Y-75097523D01*
X80968857Y-75097523D01*
X80873619Y-75049904D01*
X80826000Y-75002285D01*
X80778380Y-74907047D01*
X80778380Y-74668952D01*
X80826000Y-74526095D01*
X80778380Y-74192761D02*
X81778380Y-73954666D01*
X81064095Y-73764190D01*
X81778380Y-73573714D01*
X80778380Y-73335619D01*
X81778380Y-72430857D02*
X81778380Y-73002285D01*
X81778380Y-72716571D02*
X80778380Y-72716571D01*
X80921238Y-72811809D01*
X81016476Y-72907047D01*
X81064095Y-73002285D01*
X80778380Y-72097523D02*
X80778380Y-71430857D01*
X81778380Y-71859428D01*
%TO.C,SW16*%
X81730761Y-87797523D02*
X81778380Y-87654666D01*
X81778380Y-87416571D01*
X81730761Y-87321333D01*
X81683142Y-87273714D01*
X81587904Y-87226095D01*
X81492666Y-87226095D01*
X81397428Y-87273714D01*
X81349809Y-87321333D01*
X81302190Y-87416571D01*
X81254571Y-87607047D01*
X81206952Y-87702285D01*
X81159333Y-87749904D01*
X81064095Y-87797523D01*
X80968857Y-87797523D01*
X80873619Y-87749904D01*
X80826000Y-87702285D01*
X80778380Y-87607047D01*
X80778380Y-87368952D01*
X80826000Y-87226095D01*
X80778380Y-86892761D02*
X81778380Y-86654666D01*
X81064095Y-86464190D01*
X81778380Y-86273714D01*
X80778380Y-86035619D01*
X81778380Y-85130857D02*
X81778380Y-85702285D01*
X81778380Y-85416571D02*
X80778380Y-85416571D01*
X80921238Y-85511809D01*
X81016476Y-85607047D01*
X81064095Y-85702285D01*
X80778380Y-84273714D02*
X80778380Y-84464190D01*
X80826000Y-84559428D01*
X80873619Y-84607047D01*
X81016476Y-84702285D01*
X81206952Y-84749904D01*
X81587904Y-84749904D01*
X81683142Y-84702285D01*
X81730761Y-84654666D01*
X81778380Y-84559428D01*
X81778380Y-84368952D01*
X81730761Y-84273714D01*
X81683142Y-84226095D01*
X81587904Y-84178476D01*
X81349809Y-84178476D01*
X81254571Y-84226095D01*
X81206952Y-84273714D01*
X81159333Y-84368952D01*
X81159333Y-84559428D01*
X81206952Y-84654666D01*
X81254571Y-84702285D01*
X81349809Y-84749904D01*
%TO.C,SW15*%
X70300761Y-62397523D02*
X70348380Y-62254666D01*
X70348380Y-62016571D01*
X70300761Y-61921333D01*
X70253142Y-61873714D01*
X70157904Y-61826095D01*
X70062666Y-61826095D01*
X69967428Y-61873714D01*
X69919809Y-61921333D01*
X69872190Y-62016571D01*
X69824571Y-62207047D01*
X69776952Y-62302285D01*
X69729333Y-62349904D01*
X69634095Y-62397523D01*
X69538857Y-62397523D01*
X69443619Y-62349904D01*
X69396000Y-62302285D01*
X69348380Y-62207047D01*
X69348380Y-61968952D01*
X69396000Y-61826095D01*
X69348380Y-61492761D02*
X70348380Y-61254666D01*
X69634095Y-61064190D01*
X70348380Y-60873714D01*
X69348380Y-60635619D01*
X70348380Y-59730857D02*
X70348380Y-60302285D01*
X70348380Y-60016571D02*
X69348380Y-60016571D01*
X69491238Y-60111809D01*
X69586476Y-60207047D01*
X69634095Y-60302285D01*
X69348380Y-58826095D02*
X69348380Y-59302285D01*
X69824571Y-59349904D01*
X69776952Y-59302285D01*
X69729333Y-59207047D01*
X69729333Y-58968952D01*
X69776952Y-58873714D01*
X69824571Y-58826095D01*
X69919809Y-58778476D01*
X70157904Y-58778476D01*
X70253142Y-58826095D01*
X70300761Y-58873714D01*
X70348380Y-58968952D01*
X70348380Y-59207047D01*
X70300761Y-59302285D01*
X70253142Y-59349904D01*
%TO.C,SW14*%
X70300761Y-75097523D02*
X70348380Y-74954666D01*
X70348380Y-74716571D01*
X70300761Y-74621333D01*
X70253142Y-74573714D01*
X70157904Y-74526095D01*
X70062666Y-74526095D01*
X69967428Y-74573714D01*
X69919809Y-74621333D01*
X69872190Y-74716571D01*
X69824571Y-74907047D01*
X69776952Y-75002285D01*
X69729333Y-75049904D01*
X69634095Y-75097523D01*
X69538857Y-75097523D01*
X69443619Y-75049904D01*
X69396000Y-75002285D01*
X69348380Y-74907047D01*
X69348380Y-74668952D01*
X69396000Y-74526095D01*
X69348380Y-74192761D02*
X70348380Y-73954666D01*
X69634095Y-73764190D01*
X70348380Y-73573714D01*
X69348380Y-73335619D01*
X70348380Y-72430857D02*
X70348380Y-73002285D01*
X70348380Y-72716571D02*
X69348380Y-72716571D01*
X69491238Y-72811809D01*
X69586476Y-72907047D01*
X69634095Y-73002285D01*
X69681714Y-71573714D02*
X70348380Y-71573714D01*
X69300761Y-71811809D02*
X70015047Y-72049904D01*
X70015047Y-71430857D01*
%TO.C,SW13*%
X70300761Y-87797523D02*
X70348380Y-87654666D01*
X70348380Y-87416571D01*
X70300761Y-87321333D01*
X70253142Y-87273714D01*
X70157904Y-87226095D01*
X70062666Y-87226095D01*
X69967428Y-87273714D01*
X69919809Y-87321333D01*
X69872190Y-87416571D01*
X69824571Y-87607047D01*
X69776952Y-87702285D01*
X69729333Y-87749904D01*
X69634095Y-87797523D01*
X69538857Y-87797523D01*
X69443619Y-87749904D01*
X69396000Y-87702285D01*
X69348380Y-87607047D01*
X69348380Y-87368952D01*
X69396000Y-87226095D01*
X69348380Y-86892761D02*
X70348380Y-86654666D01*
X69634095Y-86464190D01*
X70348380Y-86273714D01*
X69348380Y-86035619D01*
X70348380Y-85130857D02*
X70348380Y-85702285D01*
X70348380Y-85416571D02*
X69348380Y-85416571D01*
X69491238Y-85511809D01*
X69586476Y-85607047D01*
X69634095Y-85702285D01*
X69348380Y-84797523D02*
X69348380Y-84178476D01*
X69729333Y-84511809D01*
X69729333Y-84368952D01*
X69776952Y-84273714D01*
X69824571Y-84226095D01*
X69919809Y-84178476D01*
X70157904Y-84178476D01*
X70253142Y-84226095D01*
X70300761Y-84273714D01*
X70348380Y-84368952D01*
X70348380Y-84654666D01*
X70300761Y-84749904D01*
X70253142Y-84797523D01*
%TO.C,SW12*%
X58870761Y-62397523D02*
X58918380Y-62254666D01*
X58918380Y-62016571D01*
X58870761Y-61921333D01*
X58823142Y-61873714D01*
X58727904Y-61826095D01*
X58632666Y-61826095D01*
X58537428Y-61873714D01*
X58489809Y-61921333D01*
X58442190Y-62016571D01*
X58394571Y-62207047D01*
X58346952Y-62302285D01*
X58299333Y-62349904D01*
X58204095Y-62397523D01*
X58108857Y-62397523D01*
X58013619Y-62349904D01*
X57966000Y-62302285D01*
X57918380Y-62207047D01*
X57918380Y-61968952D01*
X57966000Y-61826095D01*
X57918380Y-61492761D02*
X58918380Y-61254666D01*
X58204095Y-61064190D01*
X58918380Y-60873714D01*
X57918380Y-60635619D01*
X58918380Y-59730857D02*
X58918380Y-60302285D01*
X58918380Y-60016571D02*
X57918380Y-60016571D01*
X58061238Y-60111809D01*
X58156476Y-60207047D01*
X58204095Y-60302285D01*
X58013619Y-59349904D02*
X57966000Y-59302285D01*
X57918380Y-59207047D01*
X57918380Y-58968952D01*
X57966000Y-58873714D01*
X58013619Y-58826095D01*
X58108857Y-58778476D01*
X58204095Y-58778476D01*
X58346952Y-58826095D01*
X58918380Y-59397523D01*
X58918380Y-58778476D01*
%TO.C,SW11*%
X58870761Y-75097523D02*
X58918380Y-74954666D01*
X58918380Y-74716571D01*
X58870761Y-74621333D01*
X58823142Y-74573714D01*
X58727904Y-74526095D01*
X58632666Y-74526095D01*
X58537428Y-74573714D01*
X58489809Y-74621333D01*
X58442190Y-74716571D01*
X58394571Y-74907047D01*
X58346952Y-75002285D01*
X58299333Y-75049904D01*
X58204095Y-75097523D01*
X58108857Y-75097523D01*
X58013619Y-75049904D01*
X57966000Y-75002285D01*
X57918380Y-74907047D01*
X57918380Y-74668952D01*
X57966000Y-74526095D01*
X57918380Y-74192761D02*
X58918380Y-73954666D01*
X58204095Y-73764190D01*
X58918380Y-73573714D01*
X57918380Y-73335619D01*
X58918380Y-72430857D02*
X58918380Y-73002285D01*
X58918380Y-72716571D02*
X57918380Y-72716571D01*
X58061238Y-72811809D01*
X58156476Y-72907047D01*
X58204095Y-73002285D01*
X58918380Y-71478476D02*
X58918380Y-72049904D01*
X58918380Y-71764190D02*
X57918380Y-71764190D01*
X58061238Y-71859428D01*
X58156476Y-71954666D01*
X58204095Y-72049904D01*
%TO.C,SW10*%
X58870761Y-87797523D02*
X58918380Y-87654666D01*
X58918380Y-87416571D01*
X58870761Y-87321333D01*
X58823142Y-87273714D01*
X58727904Y-87226095D01*
X58632666Y-87226095D01*
X58537428Y-87273714D01*
X58489809Y-87321333D01*
X58442190Y-87416571D01*
X58394571Y-87607047D01*
X58346952Y-87702285D01*
X58299333Y-87749904D01*
X58204095Y-87797523D01*
X58108857Y-87797523D01*
X58013619Y-87749904D01*
X57966000Y-87702285D01*
X57918380Y-87607047D01*
X57918380Y-87368952D01*
X57966000Y-87226095D01*
X57918380Y-86892761D02*
X58918380Y-86654666D01*
X58204095Y-86464190D01*
X58918380Y-86273714D01*
X57918380Y-86035619D01*
X58918380Y-85130857D02*
X58918380Y-85702285D01*
X58918380Y-85416571D02*
X57918380Y-85416571D01*
X58061238Y-85511809D01*
X58156476Y-85607047D01*
X58204095Y-85702285D01*
X57918380Y-84511809D02*
X57918380Y-84416571D01*
X57966000Y-84321333D01*
X58013619Y-84273714D01*
X58108857Y-84226095D01*
X58299333Y-84178476D01*
X58537428Y-84178476D01*
X58727904Y-84226095D01*
X58823142Y-84273714D01*
X58870761Y-84321333D01*
X58918380Y-84416571D01*
X58918380Y-84511809D01*
X58870761Y-84607047D01*
X58823142Y-84654666D01*
X58727904Y-84702285D01*
X58537428Y-84749904D01*
X58299333Y-84749904D01*
X58108857Y-84702285D01*
X58013619Y-84654666D01*
X57966000Y-84607047D01*
X57918380Y-84511809D01*
%TO.C,RN3*%
X207270380Y-119597476D02*
X206794190Y-119930809D01*
X207270380Y-120168904D02*
X206270380Y-120168904D01*
X206270380Y-119787952D01*
X206318000Y-119692714D01*
X206365619Y-119645095D01*
X206460857Y-119597476D01*
X206603714Y-119597476D01*
X206698952Y-119645095D01*
X206746571Y-119692714D01*
X206794190Y-119787952D01*
X206794190Y-120168904D01*
X207270380Y-119168904D02*
X206270380Y-119168904D01*
X207270380Y-118597476D01*
X206270380Y-118597476D01*
X206270380Y-118216523D02*
X206270380Y-117597476D01*
X206651333Y-117930809D01*
X206651333Y-117787952D01*
X206698952Y-117692714D01*
X206746571Y-117645095D01*
X206841809Y-117597476D01*
X207079904Y-117597476D01*
X207175142Y-117645095D01*
X207222761Y-117692714D01*
X207270380Y-117787952D01*
X207270380Y-118073666D01*
X207222761Y-118168904D01*
X207175142Y-118216523D01*
%TO.C,RN2*%
X72475523Y-94910380D02*
X72142190Y-94434190D01*
X71904095Y-94910380D02*
X71904095Y-93910380D01*
X72285047Y-93910380D01*
X72380285Y-93958000D01*
X72427904Y-94005619D01*
X72475523Y-94100857D01*
X72475523Y-94243714D01*
X72427904Y-94338952D01*
X72380285Y-94386571D01*
X72285047Y-94434190D01*
X71904095Y-94434190D01*
X72904095Y-94910380D02*
X72904095Y-93910380D01*
X73475523Y-94910380D01*
X73475523Y-93910380D01*
X73904095Y-94005619D02*
X73951714Y-93958000D01*
X74046952Y-93910380D01*
X74285047Y-93910380D01*
X74380285Y-93958000D01*
X74427904Y-94005619D01*
X74475523Y-94100857D01*
X74475523Y-94196095D01*
X74427904Y-94338952D01*
X73856476Y-94910380D01*
X74475523Y-94910380D01*
%TO.C,R1*%
X158779333Y-124550380D02*
X158446000Y-124074190D01*
X158207904Y-124550380D02*
X158207904Y-123550380D01*
X158588857Y-123550380D01*
X158684095Y-123598000D01*
X158731714Y-123645619D01*
X158779333Y-123740857D01*
X158779333Y-123883714D01*
X158731714Y-123978952D01*
X158684095Y-124026571D01*
X158588857Y-124074190D01*
X158207904Y-124074190D01*
X159731714Y-124550380D02*
X159160285Y-124550380D01*
X159446000Y-124550380D02*
X159446000Y-123550380D01*
X159350761Y-123693238D01*
X159255523Y-123788476D01*
X159160285Y-123836095D01*
%TO.C,U2*%
X177814095Y-122740380D02*
X177814095Y-123549904D01*
X177861714Y-123645142D01*
X177909333Y-123692761D01*
X178004571Y-123740380D01*
X178195047Y-123740380D01*
X178290285Y-123692761D01*
X178337904Y-123645142D01*
X178385523Y-123549904D01*
X178385523Y-122740380D01*
X178814095Y-122835619D02*
X178861714Y-122788000D01*
X178956952Y-122740380D01*
X179195047Y-122740380D01*
X179290285Y-122788000D01*
X179337904Y-122835619D01*
X179385523Y-122930857D01*
X179385523Y-123026095D01*
X179337904Y-123168952D01*
X178766476Y-123740380D01*
X179385523Y-123740380D01*
%TO.C,U1*%
X82778380Y-117939904D02*
X83587904Y-117939904D01*
X83683142Y-117892285D01*
X83730761Y-117844666D01*
X83778380Y-117749428D01*
X83778380Y-117558952D01*
X83730761Y-117463714D01*
X83683142Y-117416095D01*
X83587904Y-117368476D01*
X82778380Y-117368476D01*
X83778380Y-116368476D02*
X83778380Y-116939904D01*
X83778380Y-116654190D02*
X82778380Y-116654190D01*
X82921238Y-116749428D01*
X83016476Y-116844666D01*
X83064095Y-116939904D01*
X61604781Y-129391096D02*
X61577844Y-129310284D01*
X61497032Y-129229471D01*
X61389282Y-129175597D01*
X61281532Y-129175597D01*
X61200720Y-129202534D01*
X61066033Y-129283346D01*
X60985221Y-129364158D01*
X60904409Y-129498845D01*
X60877471Y-129579658D01*
X60877471Y-129687407D01*
X60931346Y-129795157D01*
X60985221Y-129849032D01*
X61092971Y-129902906D01*
X61146845Y-129902906D01*
X61335407Y-129714345D01*
X61227658Y-129606595D01*
X61335407Y-130199218D02*
X61901093Y-129633532D01*
X62116592Y-129849032D01*
X62143529Y-129929844D01*
X62143529Y-129983719D01*
X62116592Y-130064531D01*
X62035780Y-130145343D01*
X61954967Y-130172280D01*
X61901093Y-130172280D01*
X61820280Y-130145343D01*
X61604781Y-129929844D01*
X62197404Y-131061215D02*
X61874155Y-130737966D01*
X62035780Y-130899590D02*
X62601465Y-130333905D01*
X62466778Y-130360842D01*
X62359028Y-130360842D01*
X62278216Y-130333905D01*
X66694781Y-129391096D02*
X66667844Y-129310284D01*
X66587032Y-129229471D01*
X66479282Y-129175597D01*
X66371532Y-129175597D01*
X66290720Y-129202534D01*
X66156033Y-129283346D01*
X66075221Y-129364158D01*
X65994409Y-129498845D01*
X65967471Y-129579658D01*
X65967471Y-129687407D01*
X66021346Y-129795157D01*
X66075221Y-129849032D01*
X66182971Y-129902906D01*
X66236845Y-129902906D01*
X66425407Y-129714345D01*
X66317658Y-129606595D01*
X66425407Y-130199218D02*
X66991093Y-129633532D01*
X67206592Y-129849032D01*
X67233529Y-129929844D01*
X67233529Y-129983719D01*
X67206592Y-130064531D01*
X67125780Y-130145343D01*
X67044967Y-130172280D01*
X66991093Y-130172280D01*
X66910280Y-130145343D01*
X66694781Y-129929844D01*
X67475966Y-130226155D02*
X67529841Y-130226155D01*
X67610653Y-130253093D01*
X67745340Y-130387780D01*
X67772277Y-130468592D01*
X67772277Y-130522467D01*
X67745340Y-130603279D01*
X67691465Y-130657154D01*
X67583715Y-130711028D01*
X66937218Y-130711028D01*
X67287404Y-131061215D01*
X59074781Y-129291096D02*
X59047844Y-129210284D01*
X58967032Y-129129471D01*
X58859282Y-129075597D01*
X58751532Y-129075597D01*
X58670720Y-129102534D01*
X58536033Y-129183346D01*
X58455221Y-129264158D01*
X58374409Y-129398845D01*
X58347471Y-129479658D01*
X58347471Y-129587407D01*
X58401346Y-129695157D01*
X58455221Y-129749032D01*
X58562971Y-129802906D01*
X58616845Y-129802906D01*
X58805407Y-129614345D01*
X58697658Y-129506595D01*
X58805407Y-130099218D02*
X59371093Y-129533532D01*
X59586592Y-129749032D01*
X59613529Y-129829844D01*
X59613529Y-129883719D01*
X59586592Y-129964531D01*
X59505780Y-130045343D01*
X59424967Y-130072280D01*
X59371093Y-130072280D01*
X59290280Y-130045343D01*
X59074781Y-129829844D01*
X60044528Y-130206967D02*
X60098402Y-130260842D01*
X60125340Y-130341654D01*
X60125340Y-130395529D01*
X60098402Y-130476341D01*
X60017590Y-130611028D01*
X59882903Y-130745715D01*
X59748216Y-130826528D01*
X59667404Y-130853465D01*
X59613529Y-130853465D01*
X59532717Y-130826528D01*
X59478842Y-130772653D01*
X59451905Y-130691841D01*
X59451905Y-130637966D01*
X59478842Y-130557154D01*
X59559654Y-130422467D01*
X59694341Y-130287780D01*
X59829028Y-130206967D01*
X59909841Y-130180030D01*
X59963715Y-130180030D01*
X60044528Y-130206967D01*
X69234781Y-129291096D02*
X69207844Y-129210284D01*
X69127032Y-129129471D01*
X69019282Y-129075597D01*
X68911532Y-129075597D01*
X68830720Y-129102534D01*
X68696033Y-129183346D01*
X68615221Y-129264158D01*
X68534409Y-129398845D01*
X68507471Y-129479658D01*
X68507471Y-129587407D01*
X68561346Y-129695157D01*
X68615221Y-129749032D01*
X68722971Y-129802906D01*
X68776845Y-129802906D01*
X68965407Y-129614345D01*
X68857658Y-129506595D01*
X68965407Y-130099218D02*
X69531093Y-129533532D01*
X69746592Y-129749032D01*
X69773529Y-129829844D01*
X69773529Y-129883719D01*
X69746592Y-129964531D01*
X69665780Y-130045343D01*
X69584967Y-130072280D01*
X69531093Y-130072280D01*
X69450280Y-130045343D01*
X69234781Y-129829844D01*
X70042903Y-130045343D02*
X70393089Y-130395529D01*
X69989028Y-130422467D01*
X70069841Y-130503279D01*
X70096778Y-130584091D01*
X70096778Y-130637966D01*
X70069841Y-130718778D01*
X69935154Y-130853465D01*
X69854341Y-130880402D01*
X69800467Y-130880402D01*
X69719654Y-130853465D01*
X69558030Y-130691841D01*
X69531093Y-130611028D01*
X69531093Y-130557154D01*
X71774781Y-129291096D02*
X71747844Y-129210284D01*
X71667032Y-129129471D01*
X71559282Y-129075597D01*
X71451532Y-129075597D01*
X71370720Y-129102534D01*
X71236033Y-129183346D01*
X71155221Y-129264158D01*
X71074409Y-129398845D01*
X71047471Y-129479658D01*
X71047471Y-129587407D01*
X71101346Y-129695157D01*
X71155221Y-129749032D01*
X71262971Y-129802906D01*
X71316845Y-129802906D01*
X71505407Y-129614345D01*
X71397658Y-129506595D01*
X71505407Y-130099218D02*
X72071093Y-129533532D01*
X72286592Y-129749032D01*
X72313529Y-129829844D01*
X72313529Y-129883719D01*
X72286592Y-129964531D01*
X72205780Y-130045343D01*
X72124967Y-130072280D01*
X72071093Y-130072280D01*
X71990280Y-130045343D01*
X71774781Y-129829844D01*
X72690653Y-130530216D02*
X72313529Y-130907340D01*
X72771465Y-130180030D02*
X72232717Y-130449404D01*
X72582903Y-130799590D01*
X74314781Y-129291096D02*
X74287844Y-129210284D01*
X74207032Y-129129471D01*
X74099282Y-129075597D01*
X73991532Y-129075597D01*
X73910720Y-129102534D01*
X73776033Y-129183346D01*
X73695221Y-129264158D01*
X73614409Y-129398845D01*
X73587471Y-129479658D01*
X73587471Y-129587407D01*
X73641346Y-129695157D01*
X73695221Y-129749032D01*
X73802971Y-129802906D01*
X73856845Y-129802906D01*
X74045407Y-129614345D01*
X73937658Y-129506595D01*
X74045407Y-130099218D02*
X74611093Y-129533532D01*
X74826592Y-129749032D01*
X74853529Y-129829844D01*
X74853529Y-129883719D01*
X74826592Y-129964531D01*
X74745780Y-130045343D01*
X74664967Y-130072280D01*
X74611093Y-130072280D01*
X74530280Y-130045343D01*
X74314781Y-129829844D01*
X75446152Y-130368592D02*
X75176778Y-130099218D01*
X74880467Y-130341654D01*
X74934341Y-130341654D01*
X75015154Y-130368592D01*
X75149841Y-130503279D01*
X75176778Y-130584091D01*
X75176778Y-130637966D01*
X75149841Y-130718778D01*
X75015154Y-130853465D01*
X74934341Y-130880402D01*
X74880467Y-130880402D01*
X74799654Y-130853465D01*
X74664967Y-130718778D01*
X74638030Y-130637966D01*
X74638030Y-130584091D01*
X79394781Y-129291096D02*
X79367844Y-129210284D01*
X79287032Y-129129471D01*
X79179282Y-129075597D01*
X79071532Y-129075597D01*
X78990720Y-129102534D01*
X78856033Y-129183346D01*
X78775221Y-129264158D01*
X78694409Y-129398845D01*
X78667471Y-129479658D01*
X78667471Y-129587407D01*
X78721346Y-129695157D01*
X78775221Y-129749032D01*
X78882971Y-129802906D01*
X78936845Y-129802906D01*
X79125407Y-129614345D01*
X79017658Y-129506595D01*
X79125407Y-130099218D02*
X79691093Y-129533532D01*
X79906592Y-129749032D01*
X79933529Y-129829844D01*
X79933529Y-129883719D01*
X79906592Y-129964531D01*
X79825780Y-130045343D01*
X79744967Y-130072280D01*
X79691093Y-130072280D01*
X79610280Y-130045343D01*
X79394781Y-129829844D01*
X80499215Y-130341654D02*
X80391465Y-130233905D01*
X80310653Y-130206967D01*
X80256778Y-130206967D01*
X80122091Y-130233905D01*
X79987404Y-130314717D01*
X79771905Y-130530216D01*
X79744967Y-130611028D01*
X79744967Y-130664903D01*
X79771905Y-130745715D01*
X79879654Y-130853465D01*
X79960467Y-130880402D01*
X80014341Y-130880402D01*
X80095154Y-130853465D01*
X80229841Y-130718778D01*
X80256778Y-130637966D01*
X80256778Y-130584091D01*
X80229841Y-130503279D01*
X80122091Y-130395529D01*
X80041279Y-130368592D01*
X79987404Y-130368592D01*
X79906592Y-130395529D01*
X81904781Y-129191096D02*
X81877844Y-129110284D01*
X81797032Y-129029471D01*
X81689282Y-128975597D01*
X81581532Y-128975597D01*
X81500720Y-129002534D01*
X81366033Y-129083346D01*
X81285221Y-129164158D01*
X81204409Y-129298845D01*
X81177471Y-129379658D01*
X81177471Y-129487407D01*
X81231346Y-129595157D01*
X81285221Y-129649032D01*
X81392971Y-129702906D01*
X81446845Y-129702906D01*
X81635407Y-129514345D01*
X81527658Y-129406595D01*
X81635407Y-129999218D02*
X82201093Y-129433532D01*
X82416592Y-129649032D01*
X82443529Y-129729844D01*
X82443529Y-129783719D01*
X82416592Y-129864531D01*
X82335780Y-129945343D01*
X82254967Y-129972280D01*
X82201093Y-129972280D01*
X82120280Y-129945343D01*
X81904781Y-129729844D01*
X82712903Y-129945343D02*
X83090027Y-130322467D01*
X82281905Y-130645715D01*
X84474781Y-129291096D02*
X84447844Y-129210284D01*
X84367032Y-129129471D01*
X84259282Y-129075597D01*
X84151532Y-129075597D01*
X84070720Y-129102534D01*
X83936033Y-129183346D01*
X83855221Y-129264158D01*
X83774409Y-129398845D01*
X83747471Y-129479658D01*
X83747471Y-129587407D01*
X83801346Y-129695157D01*
X83855221Y-129749032D01*
X83962971Y-129802906D01*
X84016845Y-129802906D01*
X84205407Y-129614345D01*
X84097658Y-129506595D01*
X84205407Y-130099218D02*
X84771093Y-129533532D01*
X84986592Y-129749032D01*
X85013529Y-129829844D01*
X85013529Y-129883719D01*
X84986592Y-129964531D01*
X84905780Y-130045343D01*
X84824967Y-130072280D01*
X84771093Y-130072280D01*
X84690280Y-130045343D01*
X84474781Y-129829844D01*
X85175154Y-130422467D02*
X85148216Y-130341654D01*
X85148216Y-130287780D01*
X85175154Y-130206967D01*
X85202091Y-130180030D01*
X85282903Y-130153093D01*
X85336778Y-130153093D01*
X85417590Y-130180030D01*
X85525340Y-130287780D01*
X85552277Y-130368592D01*
X85552277Y-130422467D01*
X85525340Y-130503279D01*
X85498402Y-130530216D01*
X85417590Y-130557154D01*
X85363715Y-130557154D01*
X85282903Y-130530216D01*
X85175154Y-130422467D01*
X85094341Y-130395529D01*
X85040467Y-130395529D01*
X84959654Y-130422467D01*
X84851905Y-130530216D01*
X84824967Y-130611028D01*
X84824967Y-130664903D01*
X84851905Y-130745715D01*
X84959654Y-130853465D01*
X85040467Y-130880402D01*
X85094341Y-130880402D01*
X85175154Y-130853465D01*
X85282903Y-130745715D01*
X85309841Y-130664903D01*
X85309841Y-130611028D01*
X85282903Y-130530216D01*
X87014781Y-129291096D02*
X86987844Y-129210284D01*
X86907032Y-129129471D01*
X86799282Y-129075597D01*
X86691532Y-129075597D01*
X86610720Y-129102534D01*
X86476033Y-129183346D01*
X86395221Y-129264158D01*
X86314409Y-129398845D01*
X86287471Y-129479658D01*
X86287471Y-129587407D01*
X86341346Y-129695157D01*
X86395221Y-129749032D01*
X86502971Y-129802906D01*
X86556845Y-129802906D01*
X86745407Y-129614345D01*
X86637658Y-129506595D01*
X86745407Y-130099218D02*
X87311093Y-129533532D01*
X87526592Y-129749032D01*
X87553529Y-129829844D01*
X87553529Y-129883719D01*
X87526592Y-129964531D01*
X87445780Y-130045343D01*
X87364967Y-130072280D01*
X87311093Y-130072280D01*
X87230280Y-130045343D01*
X87014781Y-129829844D01*
X87338030Y-130691841D02*
X87445780Y-130799590D01*
X87526592Y-130826528D01*
X87580467Y-130826528D01*
X87715154Y-130799590D01*
X87849841Y-130718778D01*
X88065340Y-130503279D01*
X88092277Y-130422467D01*
X88092277Y-130368592D01*
X88065340Y-130287780D01*
X87957590Y-130180030D01*
X87876778Y-130153093D01*
X87822903Y-130153093D01*
X87742091Y-130180030D01*
X87607404Y-130314717D01*
X87580467Y-130395529D01*
X87580467Y-130449404D01*
X87607404Y-130530216D01*
X87715154Y-130637966D01*
X87795966Y-130664903D01*
X87849841Y-130664903D01*
X87930653Y-130637966D01*
X91825407Y-129275722D02*
X91798470Y-129194910D01*
X91717658Y-129114097D01*
X91609908Y-129060223D01*
X91502158Y-129060223D01*
X91421346Y-129087160D01*
X91286659Y-129167972D01*
X91205847Y-129248784D01*
X91125035Y-129383471D01*
X91098097Y-129464284D01*
X91098097Y-129572033D01*
X91151972Y-129679783D01*
X91205847Y-129733658D01*
X91313597Y-129787532D01*
X91367471Y-129787532D01*
X91556033Y-129598971D01*
X91448284Y-129491221D01*
X91556033Y-130083844D02*
X92121719Y-129518158D01*
X92337218Y-129733658D01*
X92364155Y-129814470D01*
X92364155Y-129868345D01*
X92337218Y-129949157D01*
X92256406Y-130029969D01*
X92175593Y-130056906D01*
X92121719Y-130056906D01*
X92040906Y-130029969D01*
X91825407Y-129814470D01*
X92418030Y-130945841D02*
X92094781Y-130622592D01*
X92256406Y-130784216D02*
X92822091Y-130218531D01*
X92687404Y-130245468D01*
X92579654Y-130245468D01*
X92498842Y-130218531D01*
X93333902Y-130730341D02*
X93387776Y-130784216D01*
X93414714Y-130865028D01*
X93414714Y-130918903D01*
X93387776Y-130999715D01*
X93306964Y-131134402D01*
X93172277Y-131269089D01*
X93037590Y-131349902D01*
X92956778Y-131376839D01*
X92902903Y-131376839D01*
X92822091Y-131349902D01*
X92768216Y-131296027D01*
X92741279Y-131215215D01*
X92741279Y-131161340D01*
X92768216Y-131080528D01*
X92849028Y-130945841D01*
X92983715Y-130811154D01*
X93118402Y-130730341D01*
X93199215Y-130703404D01*
X93253089Y-130703404D01*
X93333902Y-130730341D01*
X94365407Y-129421722D02*
X94338470Y-129340910D01*
X94257658Y-129260097D01*
X94149908Y-129206223D01*
X94042158Y-129206223D01*
X93961346Y-129233160D01*
X93826659Y-129313972D01*
X93745847Y-129394784D01*
X93665035Y-129529471D01*
X93638097Y-129610284D01*
X93638097Y-129718033D01*
X93691972Y-129825783D01*
X93745847Y-129879658D01*
X93853597Y-129933532D01*
X93907471Y-129933532D01*
X94096033Y-129744971D01*
X93988284Y-129637221D01*
X94096033Y-130229844D02*
X94661719Y-129664158D01*
X94877218Y-129879658D01*
X94904155Y-129960470D01*
X94904155Y-130014345D01*
X94877218Y-130095157D01*
X94796406Y-130175969D01*
X94715593Y-130202906D01*
X94661719Y-130202906D01*
X94580906Y-130175969D01*
X94365407Y-129960470D01*
X94958030Y-131091841D02*
X94634781Y-130768592D01*
X94796406Y-130930216D02*
X95362091Y-130364531D01*
X95227404Y-130391468D01*
X95119654Y-130391468D01*
X95038842Y-130364531D01*
X95496778Y-131630589D02*
X95173529Y-131307340D01*
X95335154Y-131468964D02*
X95900839Y-130903279D01*
X95766152Y-130930216D01*
X95658402Y-130930216D01*
X95577590Y-130903279D01*
X96905407Y-129421722D02*
X96878470Y-129340910D01*
X96797658Y-129260097D01*
X96689908Y-129206223D01*
X96582158Y-129206223D01*
X96501346Y-129233160D01*
X96366659Y-129313972D01*
X96285847Y-129394784D01*
X96205035Y-129529471D01*
X96178097Y-129610284D01*
X96178097Y-129718033D01*
X96231972Y-129825783D01*
X96285847Y-129879658D01*
X96393597Y-129933532D01*
X96447471Y-129933532D01*
X96636033Y-129744971D01*
X96528284Y-129637221D01*
X96636033Y-130229844D02*
X97201719Y-129664158D01*
X97417218Y-129879658D01*
X97444155Y-129960470D01*
X97444155Y-130014345D01*
X97417218Y-130095157D01*
X97336406Y-130175969D01*
X97255593Y-130202906D01*
X97201719Y-130202906D01*
X97120906Y-130175969D01*
X96905407Y-129960470D01*
X97498030Y-131091841D02*
X97174781Y-130768592D01*
X97336406Y-130930216D02*
X97902091Y-130364531D01*
X97767404Y-130391468D01*
X97659654Y-130391468D01*
X97578842Y-130364531D01*
X98225340Y-130795529D02*
X98279215Y-130795529D01*
X98360027Y-130822467D01*
X98494714Y-130957154D01*
X98521651Y-131037966D01*
X98521651Y-131091841D01*
X98494714Y-131172653D01*
X98440839Y-131226528D01*
X98333089Y-131280402D01*
X97686592Y-131280402D01*
X98036778Y-131630589D01*
X99445407Y-129275722D02*
X99418470Y-129194910D01*
X99337658Y-129114097D01*
X99229908Y-129060223D01*
X99122158Y-129060223D01*
X99041346Y-129087160D01*
X98906659Y-129167972D01*
X98825847Y-129248784D01*
X98745035Y-129383471D01*
X98718097Y-129464284D01*
X98718097Y-129572033D01*
X98771972Y-129679783D01*
X98825847Y-129733658D01*
X98933597Y-129787532D01*
X98987471Y-129787532D01*
X99176033Y-129598971D01*
X99068284Y-129491221D01*
X99176033Y-130083844D02*
X99741719Y-129518158D01*
X99957218Y-129733658D01*
X99984155Y-129814470D01*
X99984155Y-129868345D01*
X99957218Y-129949157D01*
X99876406Y-130029969D01*
X99795593Y-130056906D01*
X99741719Y-130056906D01*
X99660906Y-130029969D01*
X99445407Y-129814470D01*
X100038030Y-130945841D02*
X99714781Y-130622592D01*
X99876406Y-130784216D02*
X100442091Y-130218531D01*
X100307404Y-130245468D01*
X100199654Y-130245468D01*
X100118842Y-130218531D01*
X100792277Y-130568717D02*
X101142463Y-130918903D01*
X100738402Y-130945841D01*
X100819215Y-131026653D01*
X100846152Y-131107465D01*
X100846152Y-131161340D01*
X100819215Y-131242152D01*
X100684528Y-131376839D01*
X100603715Y-131403776D01*
X100549841Y-131403776D01*
X100469028Y-131376839D01*
X100307404Y-131215215D01*
X100280467Y-131134402D01*
X100280467Y-131080528D01*
X104525407Y-129321722D02*
X104498470Y-129240910D01*
X104417658Y-129160097D01*
X104309908Y-129106223D01*
X104202158Y-129106223D01*
X104121346Y-129133160D01*
X103986659Y-129213972D01*
X103905847Y-129294784D01*
X103825035Y-129429471D01*
X103798097Y-129510284D01*
X103798097Y-129618033D01*
X103851972Y-129725783D01*
X103905847Y-129779658D01*
X104013597Y-129833532D01*
X104067471Y-129833532D01*
X104256033Y-129644971D01*
X104148284Y-129537221D01*
X104256033Y-130129844D02*
X104821719Y-129564158D01*
X105037218Y-129779658D01*
X105064155Y-129860470D01*
X105064155Y-129914345D01*
X105037218Y-129995157D01*
X104956406Y-130075969D01*
X104875593Y-130102906D01*
X104821719Y-130102906D01*
X104740906Y-130075969D01*
X104525407Y-129860470D01*
X105118030Y-130991841D02*
X104794781Y-130668592D01*
X104956406Y-130830216D02*
X105522091Y-130264531D01*
X105387404Y-130291468D01*
X105279654Y-130291468D01*
X105198842Y-130264531D01*
X105980027Y-131099590D02*
X105602903Y-131476714D01*
X106060839Y-130749404D02*
X105522091Y-131018778D01*
X105872277Y-131368964D01*
X107065407Y-129275722D02*
X107038470Y-129194910D01*
X106957658Y-129114097D01*
X106849908Y-129060223D01*
X106742158Y-129060223D01*
X106661346Y-129087160D01*
X106526659Y-129167972D01*
X106445847Y-129248784D01*
X106365035Y-129383471D01*
X106338097Y-129464284D01*
X106338097Y-129572033D01*
X106391972Y-129679783D01*
X106445847Y-129733658D01*
X106553597Y-129787532D01*
X106607471Y-129787532D01*
X106796033Y-129598971D01*
X106688284Y-129491221D01*
X106796033Y-130083844D02*
X107361719Y-129518158D01*
X107577218Y-129733658D01*
X107604155Y-129814470D01*
X107604155Y-129868345D01*
X107577218Y-129949157D01*
X107496406Y-130029969D01*
X107415593Y-130056906D01*
X107361719Y-130056906D01*
X107280906Y-130029969D01*
X107065407Y-129814470D01*
X107658030Y-130945841D02*
X107334781Y-130622592D01*
X107496406Y-130784216D02*
X108062091Y-130218531D01*
X107927404Y-130245468D01*
X107819654Y-130245468D01*
X107738842Y-130218531D01*
X108735526Y-130891966D02*
X108466152Y-130622592D01*
X108169841Y-130865028D01*
X108223715Y-130865028D01*
X108304528Y-130891966D01*
X108439215Y-131026653D01*
X108466152Y-131107465D01*
X108466152Y-131161340D01*
X108439215Y-131242152D01*
X108304528Y-131376839D01*
X108223715Y-131403776D01*
X108169841Y-131403776D01*
X108089028Y-131376839D01*
X107954341Y-131242152D01*
X107927404Y-131161340D01*
X107927404Y-131107465D01*
X107065407Y-103167722D02*
X107038470Y-103086910D01*
X106957658Y-103006097D01*
X106849908Y-102952223D01*
X106742158Y-102952223D01*
X106661346Y-102979160D01*
X106526659Y-103059972D01*
X106445847Y-103140784D01*
X106365035Y-103275471D01*
X106338097Y-103356284D01*
X106338097Y-103464033D01*
X106391972Y-103571783D01*
X106445847Y-103625658D01*
X106553597Y-103679532D01*
X106607471Y-103679532D01*
X106796033Y-103490971D01*
X106688284Y-103383221D01*
X106796033Y-103975844D02*
X107361719Y-103410158D01*
X107577218Y-103625658D01*
X107604155Y-103706470D01*
X107604155Y-103760345D01*
X107577218Y-103841157D01*
X107496406Y-103921969D01*
X107415593Y-103948906D01*
X107361719Y-103948906D01*
X107280906Y-103921969D01*
X107065407Y-103706470D01*
X107658030Y-104837841D02*
X107334781Y-104514592D01*
X107496406Y-104676216D02*
X108062091Y-104110531D01*
X107927404Y-104137468D01*
X107819654Y-104137468D01*
X107738842Y-104110531D01*
X108708589Y-104757028D02*
X108600839Y-104649279D01*
X108520027Y-104622341D01*
X108466152Y-104622341D01*
X108331465Y-104649279D01*
X108196778Y-104730091D01*
X107981279Y-104945590D01*
X107954341Y-105026402D01*
X107954341Y-105080277D01*
X107981279Y-105161089D01*
X108089028Y-105268839D01*
X108169841Y-105295776D01*
X108223715Y-105295776D01*
X108304528Y-105268839D01*
X108439215Y-105134152D01*
X108466152Y-105053340D01*
X108466152Y-104999465D01*
X108439215Y-104918653D01*
X108331465Y-104810903D01*
X108250653Y-104783966D01*
X108196778Y-104783966D01*
X108115966Y-104810903D01*
X104525407Y-103167722D02*
X104498470Y-103086910D01*
X104417658Y-103006097D01*
X104309908Y-102952223D01*
X104202158Y-102952223D01*
X104121346Y-102979160D01*
X103986659Y-103059972D01*
X103905847Y-103140784D01*
X103825035Y-103275471D01*
X103798097Y-103356284D01*
X103798097Y-103464033D01*
X103851972Y-103571783D01*
X103905847Y-103625658D01*
X104013597Y-103679532D01*
X104067471Y-103679532D01*
X104256033Y-103490971D01*
X104148284Y-103383221D01*
X104256033Y-103975844D02*
X104821719Y-103410158D01*
X105037218Y-103625658D01*
X105064155Y-103706470D01*
X105064155Y-103760345D01*
X105037218Y-103841157D01*
X104956406Y-103921969D01*
X104875593Y-103948906D01*
X104821719Y-103948906D01*
X104740906Y-103921969D01*
X104525407Y-103706470D01*
X105118030Y-104837841D02*
X104794781Y-104514592D01*
X104956406Y-104676216D02*
X105522091Y-104110531D01*
X105387404Y-104137468D01*
X105279654Y-104137468D01*
X105198842Y-104110531D01*
X105872277Y-104460717D02*
X106249401Y-104837841D01*
X105441279Y-105161089D01*
X99445407Y-103167722D02*
X99418470Y-103086910D01*
X99337658Y-103006097D01*
X99229908Y-102952223D01*
X99122158Y-102952223D01*
X99041346Y-102979160D01*
X98906659Y-103059972D01*
X98825847Y-103140784D01*
X98745035Y-103275471D01*
X98718097Y-103356284D01*
X98718097Y-103464033D01*
X98771972Y-103571783D01*
X98825847Y-103625658D01*
X98933597Y-103679532D01*
X98987471Y-103679532D01*
X99176033Y-103490971D01*
X99068284Y-103383221D01*
X99176033Y-103975844D02*
X99741719Y-103410158D01*
X99957218Y-103625658D01*
X99984155Y-103706470D01*
X99984155Y-103760345D01*
X99957218Y-103841157D01*
X99876406Y-103921969D01*
X99795593Y-103948906D01*
X99741719Y-103948906D01*
X99660906Y-103921969D01*
X99445407Y-103706470D01*
X100038030Y-104837841D02*
X99714781Y-104514592D01*
X99876406Y-104676216D02*
X100442091Y-104110531D01*
X100307404Y-104137468D01*
X100199654Y-104137468D01*
X100118842Y-104110531D01*
X100684528Y-104837841D02*
X100657590Y-104757028D01*
X100657590Y-104703154D01*
X100684528Y-104622341D01*
X100711465Y-104595404D01*
X100792277Y-104568467D01*
X100846152Y-104568467D01*
X100926964Y-104595404D01*
X101034714Y-104703154D01*
X101061651Y-104783966D01*
X101061651Y-104837841D01*
X101034714Y-104918653D01*
X101007776Y-104945590D01*
X100926964Y-104972528D01*
X100873089Y-104972528D01*
X100792277Y-104945590D01*
X100684528Y-104837841D01*
X100603715Y-104810903D01*
X100549841Y-104810903D01*
X100469028Y-104837841D01*
X100361279Y-104945590D01*
X100334341Y-105026402D01*
X100334341Y-105080277D01*
X100361279Y-105161089D01*
X100469028Y-105268839D01*
X100549841Y-105295776D01*
X100603715Y-105295776D01*
X100684528Y-105268839D01*
X100792277Y-105161089D01*
X100819215Y-105080277D01*
X100819215Y-105026402D01*
X100792277Y-104945590D01*
X96905407Y-103167722D02*
X96878470Y-103086910D01*
X96797658Y-103006097D01*
X96689908Y-102952223D01*
X96582158Y-102952223D01*
X96501346Y-102979160D01*
X96366659Y-103059972D01*
X96285847Y-103140784D01*
X96205035Y-103275471D01*
X96178097Y-103356284D01*
X96178097Y-103464033D01*
X96231972Y-103571783D01*
X96285847Y-103625658D01*
X96393597Y-103679532D01*
X96447471Y-103679532D01*
X96636033Y-103490971D01*
X96528284Y-103383221D01*
X96636033Y-103975844D02*
X97201719Y-103410158D01*
X97417218Y-103625658D01*
X97444155Y-103706470D01*
X97444155Y-103760345D01*
X97417218Y-103841157D01*
X97336406Y-103921969D01*
X97255593Y-103948906D01*
X97201719Y-103948906D01*
X97120906Y-103921969D01*
X96905407Y-103706470D01*
X97498030Y-104837841D02*
X97174781Y-104514592D01*
X97336406Y-104676216D02*
X97902091Y-104110531D01*
X97767404Y-104137468D01*
X97659654Y-104137468D01*
X97578842Y-104110531D01*
X97767404Y-105107215D02*
X97875154Y-105214964D01*
X97955966Y-105241902D01*
X98009841Y-105241902D01*
X98144528Y-105214964D01*
X98279215Y-105134152D01*
X98494714Y-104918653D01*
X98521651Y-104837841D01*
X98521651Y-104783966D01*
X98494714Y-104703154D01*
X98386964Y-104595404D01*
X98306152Y-104568467D01*
X98252277Y-104568467D01*
X98171465Y-104595404D01*
X98036778Y-104730091D01*
X98009841Y-104810903D01*
X98009841Y-104864778D01*
X98036778Y-104945590D01*
X98144528Y-105053340D01*
X98225340Y-105080277D01*
X98279215Y-105080277D01*
X98360027Y-105053340D01*
X94365407Y-103167722D02*
X94338470Y-103086910D01*
X94257658Y-103006097D01*
X94149908Y-102952223D01*
X94042158Y-102952223D01*
X93961346Y-102979160D01*
X93826659Y-103059972D01*
X93745847Y-103140784D01*
X93665035Y-103275471D01*
X93638097Y-103356284D01*
X93638097Y-103464033D01*
X93691972Y-103571783D01*
X93745847Y-103625658D01*
X93853597Y-103679532D01*
X93907471Y-103679532D01*
X94096033Y-103490971D01*
X93988284Y-103383221D01*
X94096033Y-103975844D02*
X94661719Y-103410158D01*
X94877218Y-103625658D01*
X94904155Y-103706470D01*
X94904155Y-103760345D01*
X94877218Y-103841157D01*
X94796406Y-103921969D01*
X94715593Y-103948906D01*
X94661719Y-103948906D01*
X94580906Y-103921969D01*
X94365407Y-103706470D01*
X95146592Y-104002781D02*
X95200467Y-104002781D01*
X95281279Y-104029719D01*
X95415966Y-104164406D01*
X95442903Y-104245218D01*
X95442903Y-104299093D01*
X95415966Y-104379905D01*
X95362091Y-104433780D01*
X95254341Y-104487654D01*
X94607844Y-104487654D01*
X94958030Y-104837841D01*
X95873902Y-104622341D02*
X95927776Y-104676216D01*
X95954714Y-104757028D01*
X95954714Y-104810903D01*
X95927776Y-104891715D01*
X95846964Y-105026402D01*
X95712277Y-105161089D01*
X95577590Y-105241902D01*
X95496778Y-105268839D01*
X95442903Y-105268839D01*
X95362091Y-105241902D01*
X95308216Y-105188027D01*
X95281279Y-105107215D01*
X95281279Y-105053340D01*
X95308216Y-104972528D01*
X95389028Y-104837841D01*
X95523715Y-104703154D01*
X95658402Y-104622341D01*
X95739215Y-104595404D01*
X95793089Y-104595404D01*
X95873902Y-104622341D01*
X91835407Y-103167722D02*
X91808470Y-103086910D01*
X91727658Y-103006097D01*
X91619908Y-102952223D01*
X91512158Y-102952223D01*
X91431346Y-102979160D01*
X91296659Y-103059972D01*
X91215847Y-103140784D01*
X91135035Y-103275471D01*
X91108097Y-103356284D01*
X91108097Y-103464033D01*
X91161972Y-103571783D01*
X91215847Y-103625658D01*
X91323597Y-103679532D01*
X91377471Y-103679532D01*
X91566033Y-103490971D01*
X91458284Y-103383221D01*
X91566033Y-103975844D02*
X92131719Y-103410158D01*
X92347218Y-103625658D01*
X92374155Y-103706470D01*
X92374155Y-103760345D01*
X92347218Y-103841157D01*
X92266406Y-103921969D01*
X92185593Y-103948906D01*
X92131719Y-103948906D01*
X92050906Y-103921969D01*
X91835407Y-103706470D01*
X92616592Y-104002781D02*
X92670467Y-104002781D01*
X92751279Y-104029719D01*
X92885966Y-104164406D01*
X92912903Y-104245218D01*
X92912903Y-104299093D01*
X92885966Y-104379905D01*
X92832091Y-104433780D01*
X92724341Y-104487654D01*
X92077844Y-104487654D01*
X92428030Y-104837841D01*
X92966778Y-105376589D02*
X92643529Y-105053340D01*
X92805154Y-105214964D02*
X93370839Y-104649279D01*
X93236152Y-104676216D01*
X93128402Y-104676216D01*
X93047590Y-104649279D01*
X86745407Y-103167722D02*
X86718470Y-103086910D01*
X86637658Y-103006097D01*
X86529908Y-102952223D01*
X86422158Y-102952223D01*
X86341346Y-102979160D01*
X86206659Y-103059972D01*
X86125847Y-103140784D01*
X86045035Y-103275471D01*
X86018097Y-103356284D01*
X86018097Y-103464033D01*
X86071972Y-103571783D01*
X86125847Y-103625658D01*
X86233597Y-103679532D01*
X86287471Y-103679532D01*
X86476033Y-103490971D01*
X86368284Y-103383221D01*
X86476033Y-103975844D02*
X87041719Y-103410158D01*
X87257218Y-103625658D01*
X87284155Y-103706470D01*
X87284155Y-103760345D01*
X87257218Y-103841157D01*
X87176406Y-103921969D01*
X87095593Y-103948906D01*
X87041719Y-103948906D01*
X86960906Y-103921969D01*
X86745407Y-103706470D01*
X87526592Y-104002781D02*
X87580467Y-104002781D01*
X87661279Y-104029719D01*
X87795966Y-104164406D01*
X87822903Y-104245218D01*
X87822903Y-104299093D01*
X87795966Y-104379905D01*
X87742091Y-104433780D01*
X87634341Y-104487654D01*
X86987844Y-104487654D01*
X87338030Y-104837841D01*
X88065340Y-104541529D02*
X88119215Y-104541529D01*
X88200027Y-104568467D01*
X88334714Y-104703154D01*
X88361651Y-104783966D01*
X88361651Y-104837841D01*
X88334714Y-104918653D01*
X88280839Y-104972528D01*
X88173089Y-105026402D01*
X87526592Y-105026402D01*
X87876778Y-105376589D01*
X83922564Y-104016375D02*
X84003377Y-103558439D01*
X83599316Y-103693126D02*
X84165001Y-103127441D01*
X84380500Y-103342940D01*
X84407438Y-103423752D01*
X84407438Y-103477627D01*
X84380500Y-103558439D01*
X84299688Y-103639251D01*
X84218876Y-103666189D01*
X84165001Y-103666189D01*
X84084189Y-103639251D01*
X83868690Y-103423752D01*
X84730687Y-103693126D02*
X84272751Y-104151062D01*
X84245813Y-104231874D01*
X84245813Y-104285749D01*
X84272751Y-104366561D01*
X84380500Y-104474311D01*
X84461312Y-104501248D01*
X84515187Y-104501248D01*
X84596000Y-104474311D01*
X85053935Y-104016375D01*
X84757624Y-104851435D02*
X85323309Y-104285749D01*
X85080873Y-105174683D01*
X85646558Y-104608998D01*
X81665407Y-103167722D02*
X81638470Y-103086910D01*
X81557658Y-103006097D01*
X81449908Y-102952223D01*
X81342158Y-102952223D01*
X81261346Y-102979160D01*
X81126659Y-103059972D01*
X81045847Y-103140784D01*
X80965035Y-103275471D01*
X80938097Y-103356284D01*
X80938097Y-103464033D01*
X80991972Y-103571783D01*
X81045847Y-103625658D01*
X81153597Y-103679532D01*
X81207471Y-103679532D01*
X81396033Y-103490971D01*
X81288284Y-103383221D01*
X81396033Y-103975844D02*
X81961719Y-103410158D01*
X82177218Y-103625658D01*
X82204155Y-103706470D01*
X82204155Y-103760345D01*
X82177218Y-103841157D01*
X82096406Y-103921969D01*
X82015593Y-103948906D01*
X81961719Y-103948906D01*
X81880906Y-103921969D01*
X81665407Y-103706470D01*
X82446592Y-104002781D02*
X82500467Y-104002781D01*
X82581279Y-104029719D01*
X82715966Y-104164406D01*
X82742903Y-104245218D01*
X82742903Y-104299093D01*
X82715966Y-104379905D01*
X82662091Y-104433780D01*
X82554341Y-104487654D01*
X81907844Y-104487654D01*
X82258030Y-104837841D01*
X83308589Y-104757028D02*
X83200839Y-104649279D01*
X83120027Y-104622341D01*
X83066152Y-104622341D01*
X82931465Y-104649279D01*
X82796778Y-104730091D01*
X82581279Y-104945590D01*
X82554341Y-105026402D01*
X82554341Y-105080277D01*
X82581279Y-105161089D01*
X82689028Y-105268839D01*
X82769841Y-105295776D01*
X82823715Y-105295776D01*
X82904528Y-105268839D01*
X83039215Y-105134152D01*
X83066152Y-105053340D01*
X83066152Y-104999465D01*
X83039215Y-104918653D01*
X82931465Y-104810903D01*
X82850653Y-104783966D01*
X82796778Y-104783966D01*
X82715966Y-104810903D01*
X79135407Y-103167722D02*
X79108470Y-103086910D01*
X79027658Y-103006097D01*
X78919908Y-102952223D01*
X78812158Y-102952223D01*
X78731346Y-102979160D01*
X78596659Y-103059972D01*
X78515847Y-103140784D01*
X78435035Y-103275471D01*
X78408097Y-103356284D01*
X78408097Y-103464033D01*
X78461972Y-103571783D01*
X78515847Y-103625658D01*
X78623597Y-103679532D01*
X78677471Y-103679532D01*
X78866033Y-103490971D01*
X78758284Y-103383221D01*
X78866033Y-103975844D02*
X79431719Y-103410158D01*
X79647218Y-103625658D01*
X79674155Y-103706470D01*
X79674155Y-103760345D01*
X79647218Y-103841157D01*
X79566406Y-103921969D01*
X79485593Y-103948906D01*
X79431719Y-103948906D01*
X79350906Y-103921969D01*
X79135407Y-103706470D01*
X79916592Y-104002781D02*
X79970467Y-104002781D01*
X80051279Y-104029719D01*
X80185966Y-104164406D01*
X80212903Y-104245218D01*
X80212903Y-104299093D01*
X80185966Y-104379905D01*
X80132091Y-104433780D01*
X80024341Y-104487654D01*
X79377844Y-104487654D01*
X79728030Y-104837841D01*
X80482277Y-104460717D02*
X80859401Y-104837841D01*
X80051279Y-105161089D01*
X73791407Y-103167722D02*
X73764470Y-103086910D01*
X73683658Y-103006097D01*
X73575908Y-102952223D01*
X73468158Y-102952223D01*
X73387346Y-102979160D01*
X73252659Y-103059972D01*
X73171847Y-103140784D01*
X73091035Y-103275471D01*
X73064097Y-103356284D01*
X73064097Y-103464033D01*
X73117972Y-103571783D01*
X73171847Y-103625658D01*
X73279597Y-103679532D01*
X73333471Y-103679532D01*
X73522033Y-103490971D01*
X73414284Y-103383221D01*
X73522033Y-103975844D02*
X74087719Y-103410158D01*
X74303218Y-103625658D01*
X74330155Y-103706470D01*
X74330155Y-103760345D01*
X74303218Y-103841157D01*
X74222406Y-103921969D01*
X74141593Y-103948906D01*
X74087719Y-103948906D01*
X74006906Y-103921969D01*
X73791407Y-103706470D01*
X74572592Y-104002781D02*
X74626467Y-104002781D01*
X74707279Y-104029719D01*
X74841966Y-104164406D01*
X74868903Y-104245218D01*
X74868903Y-104299093D01*
X74841966Y-104379905D01*
X74788091Y-104433780D01*
X74680341Y-104487654D01*
X74033844Y-104487654D01*
X74384030Y-104837841D01*
X75030528Y-104837841D02*
X75003590Y-104757028D01*
X75003590Y-104703154D01*
X75030528Y-104622341D01*
X75057465Y-104595404D01*
X75138277Y-104568467D01*
X75192152Y-104568467D01*
X75272964Y-104595404D01*
X75380714Y-104703154D01*
X75407651Y-104783966D01*
X75407651Y-104837841D01*
X75380714Y-104918653D01*
X75353776Y-104945590D01*
X75272964Y-104972528D01*
X75219089Y-104972528D01*
X75138277Y-104945590D01*
X75030528Y-104837841D01*
X74949715Y-104810903D01*
X74895841Y-104810903D01*
X74815028Y-104837841D01*
X74707279Y-104945590D01*
X74680341Y-105026402D01*
X74680341Y-105080277D01*
X74707279Y-105161089D01*
X74815028Y-105268839D01*
X74895841Y-105295776D01*
X74949715Y-105295776D01*
X75030528Y-105268839D01*
X75138277Y-105161089D01*
X75165215Y-105080277D01*
X75165215Y-105026402D01*
X75138277Y-104945590D01*
X68792226Y-101332788D02*
X69061600Y-101602162D01*
X68576727Y-101440537D02*
X69330974Y-101063414D01*
X68953850Y-101817661D01*
X69142412Y-102006223D02*
X69708097Y-101440537D01*
X69842784Y-101575224D01*
X69896659Y-101682974D01*
X69896659Y-101790723D01*
X69869722Y-101871536D01*
X69788910Y-102006223D01*
X69708097Y-102087035D01*
X69573410Y-102167847D01*
X69492598Y-102194784D01*
X69384849Y-102194784D01*
X69277099Y-102140910D01*
X69142412Y-102006223D01*
X70085221Y-102841282D02*
X70031346Y-102841282D01*
X69923597Y-102787407D01*
X69869722Y-102733532D01*
X69815847Y-102625783D01*
X69815847Y-102518033D01*
X69842784Y-102437221D01*
X69923597Y-102302534D01*
X70004409Y-102221722D01*
X70139096Y-102140910D01*
X70219908Y-102113972D01*
X70327658Y-102113972D01*
X70435407Y-102167847D01*
X70489282Y-102221722D01*
X70543157Y-102329471D01*
X70543157Y-102383346D01*
X70085221Y-103056781D02*
X70516219Y-103487780D01*
X71189654Y-102922094D02*
X70812531Y-103676341D01*
X71566778Y-103299218D01*
X71512903Y-104376714D02*
X71593715Y-103918778D01*
X71189654Y-104053465D02*
X71755340Y-103487780D01*
X71970839Y-103703279D01*
X71997776Y-103784091D01*
X71997776Y-103837966D01*
X71970839Y-103918778D01*
X71890027Y-103999590D01*
X71809215Y-104026528D01*
X71755340Y-104026528D01*
X71674528Y-103999590D01*
X71459028Y-103784091D01*
X72051651Y-104322839D02*
X72240213Y-104511401D01*
X72024714Y-104888524D02*
X71755340Y-104619150D01*
X72321025Y-104053465D01*
X72590399Y-104322839D01*
X72752024Y-105023211D02*
X72563462Y-104834650D01*
X72267150Y-105130961D02*
X72832836Y-104565276D01*
X73102210Y-104834650D01*
X69035407Y-103267847D02*
X69385593Y-103618033D01*
X68981532Y-103644971D01*
X69062345Y-103725783D01*
X69089282Y-103806595D01*
X69089282Y-103860470D01*
X69062345Y-103941282D01*
X68927658Y-104075969D01*
X68846845Y-104102906D01*
X68792971Y-104102906D01*
X68712158Y-104075969D01*
X68550534Y-103914345D01*
X68523597Y-103833532D01*
X68523597Y-103779658D01*
X69547218Y-103779658D02*
X69170094Y-104533905D01*
X69924341Y-104156781D01*
X70059028Y-104291468D02*
X70409215Y-104641654D01*
X70005154Y-104668592D01*
X70085966Y-104749404D01*
X70112903Y-104830216D01*
X70112903Y-104884091D01*
X70085966Y-104964903D01*
X69951279Y-105099590D01*
X69870467Y-105126528D01*
X69816592Y-105126528D01*
X69735780Y-105099590D01*
X69574155Y-104937966D01*
X69547218Y-104857154D01*
X69547218Y-104803279D01*
X64967691Y-101700131D02*
X65317877Y-102050317D01*
X64913816Y-102077255D01*
X64994629Y-102158067D01*
X65021566Y-102238879D01*
X65021566Y-102292754D01*
X64994629Y-102373566D01*
X64859942Y-102508253D01*
X64779129Y-102535190D01*
X64725255Y-102535190D01*
X64644442Y-102508253D01*
X64482818Y-102346629D01*
X64455881Y-102265816D01*
X64455881Y-102211942D01*
X65479502Y-102211942D02*
X65102378Y-102966189D01*
X65856625Y-102589065D01*
X65991312Y-102723752D02*
X66341499Y-103073938D01*
X65937438Y-103100876D01*
X66018250Y-103181688D01*
X66045187Y-103262500D01*
X66045187Y-103316375D01*
X66018250Y-103397187D01*
X65883563Y-103531874D01*
X65802751Y-103558812D01*
X65748876Y-103558812D01*
X65668064Y-103531874D01*
X65506439Y-103370250D01*
X65479502Y-103289438D01*
X65479502Y-103235563D01*
X65829688Y-103801248D02*
X66260687Y-104232247D01*
X66745560Y-104016748D02*
X66934122Y-104205309D01*
X66718622Y-104582433D02*
X66449248Y-104313059D01*
X67014934Y-103747374D01*
X67284308Y-104016748D01*
X66961059Y-104824870D02*
X67526744Y-104259184D01*
X67284308Y-105148118D01*
X67849993Y-104582433D01*
X61076033Y-102698473D02*
X60698910Y-103452720D01*
X61453157Y-103075597D01*
X61076033Y-103775969D02*
X61129908Y-103883719D01*
X61264595Y-104018406D01*
X61345407Y-104045343D01*
X61399282Y-104045343D01*
X61480094Y-104018406D01*
X61533969Y-103964531D01*
X61560906Y-103883719D01*
X61560906Y-103829844D01*
X61533969Y-103749032D01*
X61453157Y-103614345D01*
X61426219Y-103533532D01*
X61426219Y-103479658D01*
X61453157Y-103398845D01*
X61507032Y-103344971D01*
X61587844Y-103318033D01*
X61641719Y-103318033D01*
X61722531Y-103344971D01*
X61857218Y-103479658D01*
X61911093Y-103587407D01*
X61991905Y-104206967D02*
X61722531Y-104476341D01*
X62099654Y-103722094D02*
X61991905Y-104206967D01*
X62476778Y-104099218D01*
X62099654Y-104799590D02*
X62153529Y-104907340D01*
X62288216Y-105042027D01*
X62369028Y-105068964D01*
X62422903Y-105068964D01*
X62503715Y-105042027D01*
X62557590Y-104988152D01*
X62584528Y-104907340D01*
X62584528Y-104853465D01*
X62557590Y-104772653D01*
X62476778Y-104637966D01*
X62449841Y-104557154D01*
X62449841Y-104503279D01*
X62476778Y-104422467D01*
X62530653Y-104368592D01*
X62611465Y-104341654D01*
X62665340Y-104341654D01*
X62746152Y-104368592D01*
X62880839Y-104503279D01*
X62934714Y-104611028D01*
X58398690Y-102531129D02*
X58021566Y-103285377D01*
X58775813Y-102908253D01*
X58883563Y-103554751D02*
X58937438Y-103662500D01*
X58937438Y-103716375D01*
X58910500Y-103797187D01*
X58829688Y-103878000D01*
X58748876Y-103904937D01*
X58695001Y-103904937D01*
X58614189Y-103878000D01*
X58398690Y-103662500D01*
X58964375Y-103096815D01*
X59152937Y-103285377D01*
X59179874Y-103366189D01*
X59179874Y-103420064D01*
X59152937Y-103500876D01*
X59099062Y-103554751D01*
X59018250Y-103581688D01*
X58964375Y-103581688D01*
X58883563Y-103554751D01*
X58695001Y-103366189D01*
X59530061Y-103662500D02*
X59072125Y-104120436D01*
X59045187Y-104201248D01*
X59045187Y-104255123D01*
X59072125Y-104335935D01*
X59179874Y-104443685D01*
X59260687Y-104470622D01*
X59314561Y-104470622D01*
X59395374Y-104443685D01*
X59853309Y-103985749D01*
X59556998Y-104766934D02*
X59610873Y-104874683D01*
X59745560Y-105009370D01*
X59826372Y-105036308D01*
X59880247Y-105036308D01*
X59961059Y-105009370D01*
X60014934Y-104955496D01*
X60041871Y-104874683D01*
X60041871Y-104820809D01*
X60014934Y-104739996D01*
X59934122Y-104605309D01*
X59907184Y-104524497D01*
X59907184Y-104470622D01*
X59934122Y-104389810D01*
X59987996Y-104335935D01*
X60068809Y-104308998D01*
X60122683Y-104308998D01*
X60203496Y-104335935D01*
X60338183Y-104470622D01*
X60392057Y-104578372D01*
X64127844Y-129264158D02*
X64100906Y-129183346D01*
X64020094Y-129102534D01*
X63912345Y-129048659D01*
X63804595Y-129048659D01*
X63723783Y-129075597D01*
X63589096Y-129156409D01*
X63508284Y-129237221D01*
X63427471Y-129371908D01*
X63400534Y-129452720D01*
X63400534Y-129560470D01*
X63454409Y-129668219D01*
X63508284Y-129722094D01*
X63616033Y-129775969D01*
X63669908Y-129775969D01*
X63858470Y-129587407D01*
X63750720Y-129479658D01*
X63858470Y-130072280D02*
X64424155Y-129506595D01*
X64181719Y-130395529D01*
X64747404Y-129829844D01*
X64451093Y-130664903D02*
X65016778Y-130099218D01*
X65151465Y-130233905D01*
X65205340Y-130341654D01*
X65205340Y-130449404D01*
X65178402Y-130530216D01*
X65097590Y-130664903D01*
X65016778Y-130745715D01*
X64882091Y-130826528D01*
X64801279Y-130853465D01*
X64693529Y-130853465D01*
X64585780Y-130799590D01*
X64451093Y-130664903D01*
X76827844Y-129264158D02*
X76800906Y-129183346D01*
X76720094Y-129102534D01*
X76612345Y-129048659D01*
X76504595Y-129048659D01*
X76423783Y-129075597D01*
X76289096Y-129156409D01*
X76208284Y-129237221D01*
X76127471Y-129371908D01*
X76100534Y-129452720D01*
X76100534Y-129560470D01*
X76154409Y-129668219D01*
X76208284Y-129722094D01*
X76316033Y-129775969D01*
X76369908Y-129775969D01*
X76558470Y-129587407D01*
X76450720Y-129479658D01*
X76558470Y-130072280D02*
X77124155Y-129506595D01*
X76881719Y-130395529D01*
X77447404Y-129829844D01*
X77151093Y-130664903D02*
X77716778Y-130099218D01*
X77851465Y-130233905D01*
X77905340Y-130341654D01*
X77905340Y-130449404D01*
X77878402Y-130530216D01*
X77797590Y-130664903D01*
X77716778Y-130745715D01*
X77582091Y-130826528D01*
X77501279Y-130853465D01*
X77393529Y-130853465D01*
X77285780Y-130799590D01*
X77151093Y-130664903D01*
X89527844Y-129264158D02*
X89500906Y-129183346D01*
X89420094Y-129102534D01*
X89312345Y-129048659D01*
X89204595Y-129048659D01*
X89123783Y-129075597D01*
X88989096Y-129156409D01*
X88908284Y-129237221D01*
X88827471Y-129371908D01*
X88800534Y-129452720D01*
X88800534Y-129560470D01*
X88854409Y-129668219D01*
X88908284Y-129722094D01*
X89016033Y-129775969D01*
X89069908Y-129775969D01*
X89258470Y-129587407D01*
X89150720Y-129479658D01*
X89258470Y-130072280D02*
X89824155Y-129506595D01*
X89581719Y-130395529D01*
X90147404Y-129829844D01*
X89851093Y-130664903D02*
X90416778Y-130099218D01*
X90551465Y-130233905D01*
X90605340Y-130341654D01*
X90605340Y-130449404D01*
X90578402Y-130530216D01*
X90497590Y-130664903D01*
X90416778Y-130745715D01*
X90282091Y-130826528D01*
X90201279Y-130853465D01*
X90093529Y-130853465D01*
X89985780Y-130799590D01*
X89851093Y-130664903D01*
X102227844Y-129264158D02*
X102200906Y-129183346D01*
X102120094Y-129102534D01*
X102012345Y-129048659D01*
X101904595Y-129048659D01*
X101823783Y-129075597D01*
X101689096Y-129156409D01*
X101608284Y-129237221D01*
X101527471Y-129371908D01*
X101500534Y-129452720D01*
X101500534Y-129560470D01*
X101554409Y-129668219D01*
X101608284Y-129722094D01*
X101716033Y-129775969D01*
X101769908Y-129775969D01*
X101958470Y-129587407D01*
X101850720Y-129479658D01*
X101958470Y-130072280D02*
X102524155Y-129506595D01*
X102281719Y-130395529D01*
X102847404Y-129829844D01*
X102551093Y-130664903D02*
X103116778Y-130099218D01*
X103251465Y-130233905D01*
X103305340Y-130341654D01*
X103305340Y-130449404D01*
X103278402Y-130530216D01*
X103197590Y-130664903D01*
X103116778Y-130745715D01*
X102982091Y-130826528D01*
X102901279Y-130853465D01*
X102793529Y-130853465D01*
X102685780Y-130799590D01*
X102551093Y-130664903D01*
X102227844Y-103664158D02*
X102200906Y-103583346D01*
X102120094Y-103502534D01*
X102012345Y-103448659D01*
X101904595Y-103448659D01*
X101823783Y-103475597D01*
X101689096Y-103556409D01*
X101608284Y-103637221D01*
X101527471Y-103771908D01*
X101500534Y-103852720D01*
X101500534Y-103960470D01*
X101554409Y-104068219D01*
X101608284Y-104122094D01*
X101716033Y-104175969D01*
X101769908Y-104175969D01*
X101958470Y-103987407D01*
X101850720Y-103879658D01*
X101958470Y-104472280D02*
X102524155Y-103906595D01*
X102281719Y-104795529D01*
X102847404Y-104229844D01*
X102551093Y-105064903D02*
X103116778Y-104499218D01*
X103251465Y-104633905D01*
X103305340Y-104741654D01*
X103305340Y-104849404D01*
X103278402Y-104930216D01*
X103197590Y-105064903D01*
X103116778Y-105145715D01*
X102982091Y-105226528D01*
X102901279Y-105253465D01*
X102793529Y-105253465D01*
X102685780Y-105199590D01*
X102551093Y-105064903D01*
X89527844Y-103664158D02*
X89500906Y-103583346D01*
X89420094Y-103502534D01*
X89312345Y-103448659D01*
X89204595Y-103448659D01*
X89123783Y-103475597D01*
X88989096Y-103556409D01*
X88908284Y-103637221D01*
X88827471Y-103771908D01*
X88800534Y-103852720D01*
X88800534Y-103960470D01*
X88854409Y-104068219D01*
X88908284Y-104122094D01*
X89016033Y-104175969D01*
X89069908Y-104175969D01*
X89258470Y-103987407D01*
X89150720Y-103879658D01*
X89258470Y-104472280D02*
X89824155Y-103906595D01*
X89581719Y-104795529D01*
X90147404Y-104229844D01*
X89851093Y-105064903D02*
X90416778Y-104499218D01*
X90551465Y-104633905D01*
X90605340Y-104741654D01*
X90605340Y-104849404D01*
X90578402Y-104930216D01*
X90497590Y-105064903D01*
X90416778Y-105145715D01*
X90282091Y-105226528D01*
X90201279Y-105253465D01*
X90093529Y-105253465D01*
X89985780Y-105199590D01*
X89851093Y-105064903D01*
X64127844Y-103664158D02*
X64100906Y-103583346D01*
X64020094Y-103502534D01*
X63912345Y-103448659D01*
X63804595Y-103448659D01*
X63723783Y-103475597D01*
X63589096Y-103556409D01*
X63508284Y-103637221D01*
X63427471Y-103771908D01*
X63400534Y-103852720D01*
X63400534Y-103960470D01*
X63454409Y-104068219D01*
X63508284Y-104122094D01*
X63616033Y-104175969D01*
X63669908Y-104175969D01*
X63858470Y-103987407D01*
X63750720Y-103879658D01*
X63858470Y-104472280D02*
X64424155Y-103906595D01*
X64181719Y-104795529D01*
X64747404Y-104229844D01*
X64451093Y-105064903D02*
X65016778Y-104499218D01*
X65151465Y-104633905D01*
X65205340Y-104741654D01*
X65205340Y-104849404D01*
X65178402Y-104930216D01*
X65097590Y-105064903D01*
X65016778Y-105145715D01*
X64882091Y-105226528D01*
X64801279Y-105253465D01*
X64693529Y-105253465D01*
X64585780Y-105199590D01*
X64451093Y-105064903D01*
X75885035Y-103221597D02*
X76154409Y-103490971D01*
X75669536Y-103329346D02*
X76423783Y-102952223D01*
X76046659Y-103706470D01*
X77070280Y-103652595D02*
X77043343Y-103571783D01*
X76962531Y-103490971D01*
X76854781Y-103437096D01*
X76747032Y-103437096D01*
X76666219Y-103464033D01*
X76531532Y-103544845D01*
X76450720Y-103625658D01*
X76369908Y-103760345D01*
X76342971Y-103841157D01*
X76342971Y-103948906D01*
X76396845Y-104056656D01*
X76450720Y-104110531D01*
X76558470Y-104164406D01*
X76612345Y-104164406D01*
X76800906Y-103975844D01*
X76693157Y-103868094D01*
X76800906Y-104460717D02*
X77366592Y-103895032D01*
X77124155Y-104783966D01*
X77689841Y-104218280D01*
X77393529Y-105053340D02*
X77959215Y-104487654D01*
X78093902Y-104622341D01*
X78147776Y-104730091D01*
X78147776Y-104837841D01*
X78120839Y-104918653D01*
X78040027Y-105053340D01*
X77959215Y-105134152D01*
X77824528Y-105214964D01*
X77743715Y-105241902D01*
X77635966Y-105241902D01*
X77528216Y-105188027D01*
X77393529Y-105053340D01*
X109849809Y-124687523D02*
X109887904Y-124573238D01*
X109887904Y-124382761D01*
X109849809Y-124306571D01*
X109811714Y-124268476D01*
X109735523Y-124230380D01*
X109659333Y-124230380D01*
X109583142Y-124268476D01*
X109545047Y-124306571D01*
X109506952Y-124382761D01*
X109468857Y-124535142D01*
X109430761Y-124611333D01*
X109392666Y-124649428D01*
X109316476Y-124687523D01*
X109240285Y-124687523D01*
X109164095Y-124649428D01*
X109126000Y-124611333D01*
X109087904Y-124535142D01*
X109087904Y-124344666D01*
X109126000Y-124230380D01*
X109087904Y-123963714D02*
X109887904Y-123773238D01*
X109316476Y-123620857D01*
X109887904Y-123468476D01*
X109087904Y-123278000D01*
X109811714Y-122516095D02*
X109849809Y-122554190D01*
X109887904Y-122668476D01*
X109887904Y-122744666D01*
X109849809Y-122858952D01*
X109773619Y-122935142D01*
X109697428Y-122973238D01*
X109545047Y-123011333D01*
X109430761Y-123011333D01*
X109278380Y-122973238D01*
X109202190Y-122935142D01*
X109126000Y-122858952D01*
X109087904Y-122744666D01*
X109087904Y-122668476D01*
X109126000Y-122554190D01*
X109164095Y-122516095D01*
X109887904Y-121792285D02*
X109887904Y-122173238D01*
X109087904Y-122173238D01*
X109887904Y-121525619D02*
X109087904Y-121525619D01*
X109887904Y-121068476D02*
X109430761Y-121411333D01*
X109087904Y-121068476D02*
X109545047Y-121525619D01*
X109849809Y-113273238D02*
X109887904Y-113158952D01*
X109887904Y-112968476D01*
X109849809Y-112892285D01*
X109811714Y-112854190D01*
X109735523Y-112816095D01*
X109659333Y-112816095D01*
X109583142Y-112854190D01*
X109545047Y-112892285D01*
X109506952Y-112968476D01*
X109468857Y-113120857D01*
X109430761Y-113197047D01*
X109392666Y-113235142D01*
X109316476Y-113273238D01*
X109240285Y-113273238D01*
X109164095Y-113235142D01*
X109126000Y-113197047D01*
X109087904Y-113120857D01*
X109087904Y-112930380D01*
X109126000Y-112816095D01*
X109087904Y-112549428D02*
X109887904Y-112358952D01*
X109316476Y-112206571D01*
X109887904Y-112054190D01*
X109087904Y-111863714D01*
X109887904Y-111558952D02*
X109087904Y-111558952D01*
X109087904Y-111368476D01*
X109126000Y-111254190D01*
X109202190Y-111178000D01*
X109278380Y-111139904D01*
X109430761Y-111101809D01*
X109545047Y-111101809D01*
X109697428Y-111139904D01*
X109773619Y-111178000D01*
X109849809Y-111254190D01*
X109887904Y-111368476D01*
X109887904Y-111558952D01*
X109887904Y-110758952D02*
X109087904Y-110758952D01*
X109087904Y-110225619D02*
X109087904Y-110073238D01*
X109126000Y-109997047D01*
X109202190Y-109920857D01*
X109354571Y-109882761D01*
X109621238Y-109882761D01*
X109773619Y-109920857D01*
X109849809Y-109997047D01*
X109887904Y-110073238D01*
X109887904Y-110225619D01*
X109849809Y-110301809D01*
X109773619Y-110378000D01*
X109621238Y-110416095D01*
X109354571Y-110416095D01*
X109202190Y-110378000D01*
X109126000Y-110301809D01*
X109087904Y-110225619D01*
%TO.C,SW9*%
X241750761Y-61921333D02*
X241798380Y-61778476D01*
X241798380Y-61540380D01*
X241750761Y-61445142D01*
X241703142Y-61397523D01*
X241607904Y-61349904D01*
X241512666Y-61349904D01*
X241417428Y-61397523D01*
X241369809Y-61445142D01*
X241322190Y-61540380D01*
X241274571Y-61730857D01*
X241226952Y-61826095D01*
X241179333Y-61873714D01*
X241084095Y-61921333D01*
X240988857Y-61921333D01*
X240893619Y-61873714D01*
X240846000Y-61826095D01*
X240798380Y-61730857D01*
X240798380Y-61492761D01*
X240846000Y-61349904D01*
X240798380Y-61016571D02*
X241798380Y-60778476D01*
X241084095Y-60588000D01*
X241798380Y-60397523D01*
X240798380Y-60159428D01*
X241798380Y-59730857D02*
X241798380Y-59540380D01*
X241750761Y-59445142D01*
X241703142Y-59397523D01*
X241560285Y-59302285D01*
X241369809Y-59254666D01*
X240988857Y-59254666D01*
X240893619Y-59302285D01*
X240846000Y-59349904D01*
X240798380Y-59445142D01*
X240798380Y-59635619D01*
X240846000Y-59730857D01*
X240893619Y-59778476D01*
X240988857Y-59826095D01*
X241226952Y-59826095D01*
X241322190Y-59778476D01*
X241369809Y-59730857D01*
X241417428Y-59635619D01*
X241417428Y-59445142D01*
X241369809Y-59349904D01*
X241322190Y-59302285D01*
X241226952Y-59254666D01*
%TO.C,SW8*%
X241750761Y-74621333D02*
X241798380Y-74478476D01*
X241798380Y-74240380D01*
X241750761Y-74145142D01*
X241703142Y-74097523D01*
X241607904Y-74049904D01*
X241512666Y-74049904D01*
X241417428Y-74097523D01*
X241369809Y-74145142D01*
X241322190Y-74240380D01*
X241274571Y-74430857D01*
X241226952Y-74526095D01*
X241179333Y-74573714D01*
X241084095Y-74621333D01*
X240988857Y-74621333D01*
X240893619Y-74573714D01*
X240846000Y-74526095D01*
X240798380Y-74430857D01*
X240798380Y-74192761D01*
X240846000Y-74049904D01*
X240798380Y-73716571D02*
X241798380Y-73478476D01*
X241084095Y-73288000D01*
X241798380Y-73097523D01*
X240798380Y-72859428D01*
X241226952Y-72335619D02*
X241179333Y-72430857D01*
X241131714Y-72478476D01*
X241036476Y-72526095D01*
X240988857Y-72526095D01*
X240893619Y-72478476D01*
X240846000Y-72430857D01*
X240798380Y-72335619D01*
X240798380Y-72145142D01*
X240846000Y-72049904D01*
X240893619Y-72002285D01*
X240988857Y-71954666D01*
X241036476Y-71954666D01*
X241131714Y-72002285D01*
X241179333Y-72049904D01*
X241226952Y-72145142D01*
X241226952Y-72335619D01*
X241274571Y-72430857D01*
X241322190Y-72478476D01*
X241417428Y-72526095D01*
X241607904Y-72526095D01*
X241703142Y-72478476D01*
X241750761Y-72430857D01*
X241798380Y-72335619D01*
X241798380Y-72145142D01*
X241750761Y-72049904D01*
X241703142Y-72002285D01*
X241607904Y-71954666D01*
X241417428Y-71954666D01*
X241322190Y-72002285D01*
X241274571Y-72049904D01*
X241226952Y-72145142D01*
%TO.C,SW7*%
X241750761Y-87321333D02*
X241798380Y-87178476D01*
X241798380Y-86940380D01*
X241750761Y-86845142D01*
X241703142Y-86797523D01*
X241607904Y-86749904D01*
X241512666Y-86749904D01*
X241417428Y-86797523D01*
X241369809Y-86845142D01*
X241322190Y-86940380D01*
X241274571Y-87130857D01*
X241226952Y-87226095D01*
X241179333Y-87273714D01*
X241084095Y-87321333D01*
X240988857Y-87321333D01*
X240893619Y-87273714D01*
X240846000Y-87226095D01*
X240798380Y-87130857D01*
X240798380Y-86892761D01*
X240846000Y-86749904D01*
X240798380Y-86416571D02*
X241798380Y-86178476D01*
X241084095Y-85988000D01*
X241798380Y-85797523D01*
X240798380Y-85559428D01*
X240798380Y-85273714D02*
X240798380Y-84607047D01*
X241798380Y-85035619D01*
%TO.C,SW6*%
X230320761Y-61921333D02*
X230368380Y-61778476D01*
X230368380Y-61540380D01*
X230320761Y-61445142D01*
X230273142Y-61397523D01*
X230177904Y-61349904D01*
X230082666Y-61349904D01*
X229987428Y-61397523D01*
X229939809Y-61445142D01*
X229892190Y-61540380D01*
X229844571Y-61730857D01*
X229796952Y-61826095D01*
X229749333Y-61873714D01*
X229654095Y-61921333D01*
X229558857Y-61921333D01*
X229463619Y-61873714D01*
X229416000Y-61826095D01*
X229368380Y-61730857D01*
X229368380Y-61492761D01*
X229416000Y-61349904D01*
X229368380Y-61016571D02*
X230368380Y-60778476D01*
X229654095Y-60588000D01*
X230368380Y-60397523D01*
X229368380Y-60159428D01*
X229368380Y-59349904D02*
X229368380Y-59540380D01*
X229416000Y-59635619D01*
X229463619Y-59683238D01*
X229606476Y-59778476D01*
X229796952Y-59826095D01*
X230177904Y-59826095D01*
X230273142Y-59778476D01*
X230320761Y-59730857D01*
X230368380Y-59635619D01*
X230368380Y-59445142D01*
X230320761Y-59349904D01*
X230273142Y-59302285D01*
X230177904Y-59254666D01*
X229939809Y-59254666D01*
X229844571Y-59302285D01*
X229796952Y-59349904D01*
X229749333Y-59445142D01*
X229749333Y-59635619D01*
X229796952Y-59730857D01*
X229844571Y-59778476D01*
X229939809Y-59826095D01*
%TO.C,SW5*%
X230320761Y-74621333D02*
X230368380Y-74478476D01*
X230368380Y-74240380D01*
X230320761Y-74145142D01*
X230273142Y-74097523D01*
X230177904Y-74049904D01*
X230082666Y-74049904D01*
X229987428Y-74097523D01*
X229939809Y-74145142D01*
X229892190Y-74240380D01*
X229844571Y-74430857D01*
X229796952Y-74526095D01*
X229749333Y-74573714D01*
X229654095Y-74621333D01*
X229558857Y-74621333D01*
X229463619Y-74573714D01*
X229416000Y-74526095D01*
X229368380Y-74430857D01*
X229368380Y-74192761D01*
X229416000Y-74049904D01*
X229368380Y-73716571D02*
X230368380Y-73478476D01*
X229654095Y-73288000D01*
X230368380Y-73097523D01*
X229368380Y-72859428D01*
X229368380Y-72002285D02*
X229368380Y-72478476D01*
X229844571Y-72526095D01*
X229796952Y-72478476D01*
X229749333Y-72383238D01*
X229749333Y-72145142D01*
X229796952Y-72049904D01*
X229844571Y-72002285D01*
X229939809Y-71954666D01*
X230177904Y-71954666D01*
X230273142Y-72002285D01*
X230320761Y-72049904D01*
X230368380Y-72145142D01*
X230368380Y-72383238D01*
X230320761Y-72478476D01*
X230273142Y-72526095D01*
%TO.C,SW4*%
X230320761Y-87321333D02*
X230368380Y-87178476D01*
X230368380Y-86940380D01*
X230320761Y-86845142D01*
X230273142Y-86797523D01*
X230177904Y-86749904D01*
X230082666Y-86749904D01*
X229987428Y-86797523D01*
X229939809Y-86845142D01*
X229892190Y-86940380D01*
X229844571Y-87130857D01*
X229796952Y-87226095D01*
X229749333Y-87273714D01*
X229654095Y-87321333D01*
X229558857Y-87321333D01*
X229463619Y-87273714D01*
X229416000Y-87226095D01*
X229368380Y-87130857D01*
X229368380Y-86892761D01*
X229416000Y-86749904D01*
X229368380Y-86416571D02*
X230368380Y-86178476D01*
X229654095Y-85988000D01*
X230368380Y-85797523D01*
X229368380Y-85559428D01*
X229701714Y-84749904D02*
X230368380Y-84749904D01*
X229320761Y-84988000D02*
X230035047Y-85226095D01*
X230035047Y-84607047D01*
%TO.C,SW3*%
X218890761Y-61921333D02*
X218938380Y-61778476D01*
X218938380Y-61540380D01*
X218890761Y-61445142D01*
X218843142Y-61397523D01*
X218747904Y-61349904D01*
X218652666Y-61349904D01*
X218557428Y-61397523D01*
X218509809Y-61445142D01*
X218462190Y-61540380D01*
X218414571Y-61730857D01*
X218366952Y-61826095D01*
X218319333Y-61873714D01*
X218224095Y-61921333D01*
X218128857Y-61921333D01*
X218033619Y-61873714D01*
X217986000Y-61826095D01*
X217938380Y-61730857D01*
X217938380Y-61492761D01*
X217986000Y-61349904D01*
X217938380Y-61016571D02*
X218938380Y-60778476D01*
X218224095Y-60588000D01*
X218938380Y-60397523D01*
X217938380Y-60159428D01*
X217938380Y-59873714D02*
X217938380Y-59254666D01*
X218319333Y-59588000D01*
X218319333Y-59445142D01*
X218366952Y-59349904D01*
X218414571Y-59302285D01*
X218509809Y-59254666D01*
X218747904Y-59254666D01*
X218843142Y-59302285D01*
X218890761Y-59349904D01*
X218938380Y-59445142D01*
X218938380Y-59730857D01*
X218890761Y-59826095D01*
X218843142Y-59873714D01*
%TO.C,SW2*%
X218890761Y-74621333D02*
X218938380Y-74478476D01*
X218938380Y-74240380D01*
X218890761Y-74145142D01*
X218843142Y-74097523D01*
X218747904Y-74049904D01*
X218652666Y-74049904D01*
X218557428Y-74097523D01*
X218509809Y-74145142D01*
X218462190Y-74240380D01*
X218414571Y-74430857D01*
X218366952Y-74526095D01*
X218319333Y-74573714D01*
X218224095Y-74621333D01*
X218128857Y-74621333D01*
X218033619Y-74573714D01*
X217986000Y-74526095D01*
X217938380Y-74430857D01*
X217938380Y-74192761D01*
X217986000Y-74049904D01*
X217938380Y-73716571D02*
X218938380Y-73478476D01*
X218224095Y-73288000D01*
X218938380Y-73097523D01*
X217938380Y-72859428D01*
X218033619Y-72526095D02*
X217986000Y-72478476D01*
X217938380Y-72383238D01*
X217938380Y-72145142D01*
X217986000Y-72049904D01*
X218033619Y-72002285D01*
X218128857Y-71954666D01*
X218224095Y-71954666D01*
X218366952Y-72002285D01*
X218938380Y-72573714D01*
X218938380Y-71954666D01*
%TO.C,SW1*%
X218890761Y-87321333D02*
X218938380Y-87178476D01*
X218938380Y-86940380D01*
X218890761Y-86845142D01*
X218843142Y-86797523D01*
X218747904Y-86749904D01*
X218652666Y-86749904D01*
X218557428Y-86797523D01*
X218509809Y-86845142D01*
X218462190Y-86940380D01*
X218414571Y-87130857D01*
X218366952Y-87226095D01*
X218319333Y-87273714D01*
X218224095Y-87321333D01*
X218128857Y-87321333D01*
X218033619Y-87273714D01*
X217986000Y-87226095D01*
X217938380Y-87130857D01*
X217938380Y-86892761D01*
X217986000Y-86749904D01*
X217938380Y-86416571D02*
X218938380Y-86178476D01*
X218224095Y-85988000D01*
X218938380Y-85797523D01*
X217938380Y-85559428D01*
X218938380Y-84654666D02*
X218938380Y-85226095D01*
X218938380Y-84940380D02*
X217938380Y-84940380D01*
X218081238Y-85035619D01*
X218176476Y-85130857D01*
X218224095Y-85226095D01*
%TO.C,RV2*%
X206778380Y-74603238D02*
X206302190Y-74936571D01*
X206778380Y-75174666D02*
X205778380Y-75174666D01*
X205778380Y-74793714D01*
X205826000Y-74698476D01*
X205873619Y-74650857D01*
X205968857Y-74603238D01*
X206111714Y-74603238D01*
X206206952Y-74650857D01*
X206254571Y-74698476D01*
X206302190Y-74793714D01*
X206302190Y-75174666D01*
X205778380Y-74317523D02*
X206778380Y-73984190D01*
X205778380Y-73650857D01*
X205873619Y-73365142D02*
X205826000Y-73317523D01*
X205778380Y-73222285D01*
X205778380Y-72984190D01*
X205826000Y-72888952D01*
X205873619Y-72841333D01*
X205968857Y-72793714D01*
X206064095Y-72793714D01*
X206206952Y-72841333D01*
X206778380Y-73412761D01*
X206778380Y-72793714D01*
%TO.C,RV1*%
X91208380Y-74603238D02*
X90732190Y-74936571D01*
X91208380Y-75174666D02*
X90208380Y-75174666D01*
X90208380Y-74793714D01*
X90256000Y-74698476D01*
X90303619Y-74650857D01*
X90398857Y-74603238D01*
X90541714Y-74603238D01*
X90636952Y-74650857D01*
X90684571Y-74698476D01*
X90732190Y-74793714D01*
X90732190Y-75174666D01*
X90208380Y-74317523D02*
X91208380Y-73984190D01*
X90208380Y-73650857D01*
X91208380Y-72793714D02*
X91208380Y-73365142D01*
X91208380Y-73079428D02*
X90208380Y-73079428D01*
X90351238Y-73174666D01*
X90446476Y-73269904D01*
X90494095Y-73365142D01*
%TO.C,RN1*%
X232495523Y-94910380D02*
X232162190Y-94434190D01*
X231924095Y-94910380D02*
X231924095Y-93910380D01*
X232305047Y-93910380D01*
X232400285Y-93958000D01*
X232447904Y-94005619D01*
X232495523Y-94100857D01*
X232495523Y-94243714D01*
X232447904Y-94338952D01*
X232400285Y-94386571D01*
X232305047Y-94434190D01*
X231924095Y-94434190D01*
X232924095Y-94910380D02*
X232924095Y-93910380D01*
X233495523Y-94910380D01*
X233495523Y-93910380D01*
X234495523Y-94910380D02*
X233924095Y-94910380D01*
X234209809Y-94910380D02*
X234209809Y-93910380D01*
X234114571Y-94053238D01*
X234019333Y-94148476D01*
X233924095Y-94196095D01*
%TD*%
M02*
