%TF.GenerationSoftware,KiCad,Pcbnew,(5.1.10)-1*%
%TF.CreationDate,2021-07-09T19:13:41-04:00*%
%TF.ProjectId,RICM_pico,5249434d-5f70-4696-936f-2e6b69636164,rev?*%
%TF.SameCoordinates,Original*%
%TF.FileFunction,Soldermask,Bot*%
%TF.FilePolarity,Negative*%
%FSLAX46Y46*%
G04 Gerber Fmt 4.6, Leading zero omitted, Abs format (unit mm)*
G04 Created by KiCad (PCBNEW (5.1.10)-1) date 2021-07-09 19:13:41*
%MOMM*%
%LPD*%
G01*
G04 APERTURE LIST*
%ADD10R,1.800000X1.800000*%
%ADD11C,1.800000*%
%ADD12C,1.600000*%
%ADD13O,1.600000X1.600000*%
%ADD14C,1.550000*%
%ADD15R,1.550000X1.550000*%
%ADD16R,1.600000X1.600000*%
%ADD17R,2.000000X2.000000*%
%ADD18C,2.000000*%
%ADD19C,1.524000*%
%ADD20C,2.750000*%
%ADD21R,1.700000X1.700000*%
%ADD22O,1.700000X1.700000*%
%ADD23O,1.800000X1.800000*%
%ADD24O,1.500000X1.500000*%
%ADD25R,1.750000X1.750000*%
%ADD26C,1.750000*%
%ADD27C,2.700000*%
%ADD28O,1.800000X4.000000*%
%ADD29O,4.000000X1.800000*%
%ADD30R,4.400000X1.800000*%
%ADD31R,2.200000X2.200000*%
%ADD32O,2.200000X2.200000*%
G04 APERTURE END LIST*
D10*
%TO.C,D3*%
X141746000Y-75268000D03*
D11*
X141746000Y-72728000D03*
X141746000Y-70188000D03*
X141746000Y-77808000D03*
%TD*%
D12*
%TO.C,R6*%
X199566000Y-95158000D03*
D13*
X199566000Y-102778000D03*
%TD*%
D14*
%TO.C,RV3*%
X235046000Y-110438000D03*
D15*
X230046000Y-112938000D03*
D14*
X230046000Y-107938000D03*
%TD*%
D12*
%TO.C,C1*%
X118886000Y-107263000D03*
D16*
X118886000Y-109763000D03*
%TD*%
D12*
%TO.C,R8*%
X122096000Y-98168000D03*
D13*
X122096000Y-90548000D03*
%TD*%
D16*
%TO.C,RN4*%
X143016000Y-96858000D03*
D13*
X145556000Y-96858000D03*
X148096000Y-96858000D03*
X150636000Y-96858000D03*
X153176000Y-96858000D03*
X155716000Y-96858000D03*
X158256000Y-96858000D03*
X160796000Y-96858000D03*
X163336000Y-96858000D03*
X165876000Y-96858000D03*
%TD*%
D17*
%TO.C,LS1*%
X197006000Y-125638000D03*
D18*
X189406000Y-125638000D03*
%TD*%
D19*
%TO.C,DS2*%
X177306000Y-77808000D03*
X177306000Y-75268000D03*
X177306000Y-72728000D03*
X177306000Y-70188000D03*
D20*
X177976000Y-61748000D03*
X177976000Y-86248000D03*
X201976000Y-86248000D03*
X201976000Y-61748000D03*
%TD*%
D19*
%TO.C,DS1*%
X131586000Y-70188000D03*
X131586000Y-72728000D03*
X131586000Y-75268000D03*
X131586000Y-77808000D03*
D20*
X130916000Y-86248000D03*
X130916000Y-61748000D03*
X106916000Y-61748000D03*
X106916000Y-86248000D03*
%TD*%
D12*
%TO.C,R7*%
X189406000Y-102778000D03*
D13*
X189406000Y-95158000D03*
%TD*%
D12*
%TO.C,R5*%
X194486000Y-95158000D03*
D13*
X194486000Y-102778000D03*
%TD*%
D12*
%TO.C,R4*%
X125906000Y-90548000D03*
D13*
X125906000Y-98168000D03*
%TD*%
D12*
%TO.C,R3*%
X129716000Y-90548000D03*
D13*
X129716000Y-98168000D03*
%TD*%
D10*
%TO.C,D10*%
X167146000Y-62568000D03*
D11*
X167146000Y-60028000D03*
X167146000Y-57488000D03*
X167146000Y-65108000D03*
%TD*%
D10*
%TO.C,D9*%
X167146000Y-75268000D03*
D11*
X167146000Y-72728000D03*
X167146000Y-70188000D03*
X167146000Y-77808000D03*
%TD*%
D10*
%TO.C,D8*%
X167146000Y-87968000D03*
D11*
X167146000Y-85428000D03*
X167146000Y-82888000D03*
X167146000Y-90508000D03*
%TD*%
D10*
%TO.C,D7*%
X154446000Y-62568000D03*
D11*
X154446000Y-60028000D03*
X154446000Y-57488000D03*
X154446000Y-65108000D03*
%TD*%
D10*
%TO.C,D6*%
X154446000Y-75268000D03*
D11*
X154446000Y-72728000D03*
X154446000Y-70188000D03*
X154446000Y-77808000D03*
%TD*%
D10*
%TO.C,D5*%
X154446000Y-87968000D03*
D11*
X154446000Y-85428000D03*
X154446000Y-82888000D03*
X154446000Y-90508000D03*
%TD*%
D10*
%TO.C,D4*%
X141746000Y-62568000D03*
D11*
X141746000Y-60028000D03*
X141746000Y-57488000D03*
X141746000Y-65108000D03*
%TD*%
D10*
%TO.C,D2*%
X141746000Y-87968000D03*
D11*
X141746000Y-85428000D03*
X141746000Y-82888000D03*
X141746000Y-90508000D03*
%TD*%
D12*
%TO.C,R2*%
X166566000Y-126468000D03*
D13*
X174186000Y-126468000D03*
%TD*%
D21*
%TO.C,J2*%
X131586000Y-126068000D03*
D22*
X134126000Y-126068000D03*
X136666000Y-126068000D03*
X139206000Y-126068000D03*
X141746000Y-126068000D03*
X144286000Y-126068000D03*
%TD*%
D16*
%TO.C,SW19*%
X214757000Y-113919000D03*
D13*
X222377000Y-129159000D03*
X214757000Y-116459000D03*
X222377000Y-126619000D03*
X214757000Y-118999000D03*
X222377000Y-124079000D03*
X214757000Y-121539000D03*
X222377000Y-121539000D03*
X214757000Y-124079000D03*
X222377000Y-118999000D03*
X214757000Y-126619000D03*
X222377000Y-116459000D03*
X214757000Y-129159000D03*
X222377000Y-113919000D03*
%TD*%
D18*
%TO.C,SW18*%
X85612000Y-63177600D03*
X85612000Y-58021400D03*
%TD*%
%TO.C,SW17*%
X85612000Y-75877600D03*
X85612000Y-70721400D03*
%TD*%
%TO.C,SW16*%
X85612000Y-88577600D03*
X85612000Y-83421400D03*
%TD*%
%TO.C,SW15*%
X74182000Y-63177600D03*
X74182000Y-58021400D03*
%TD*%
%TO.C,SW14*%
X74182000Y-75877600D03*
X74182000Y-70721400D03*
%TD*%
%TO.C,SW13*%
X74182000Y-88577600D03*
X74182000Y-83421400D03*
%TD*%
%TO.C,SW12*%
X62752000Y-63177600D03*
X62752000Y-58021400D03*
%TD*%
%TO.C,SW11*%
X62752000Y-75877600D03*
X62752000Y-70721400D03*
%TD*%
%TO.C,SW10*%
X62752000Y-88577600D03*
X62752000Y-83421400D03*
%TD*%
D16*
%TO.C,RN3*%
X209218000Y-131607000D03*
D13*
X209218000Y-129067000D03*
X209218000Y-126527000D03*
X209218000Y-123987000D03*
X209218000Y-121447000D03*
X209218000Y-118907000D03*
X209218000Y-116367000D03*
X209218000Y-113827000D03*
X209218000Y-111287000D03*
X209218000Y-108747000D03*
%TD*%
D16*
%TO.C,RN2*%
X60466000Y-96858000D03*
D13*
X63006000Y-96858000D03*
X65546000Y-96858000D03*
X68086000Y-96858000D03*
X70626000Y-96858000D03*
X73166000Y-96858000D03*
X75706000Y-96858000D03*
X78246000Y-96858000D03*
X80786000Y-96858000D03*
X83326000Y-96858000D03*
%TD*%
D12*
%TO.C,R1*%
X155136000Y-126468000D03*
D13*
X162756000Y-126468000D03*
%TD*%
D22*
%TO.C,U1*%
X59196000Y-126068000D03*
X61736000Y-126068000D03*
D21*
X64276000Y-126068000D03*
D22*
X66816000Y-126068000D03*
X69356000Y-126068000D03*
X71896000Y-126068000D03*
X74436000Y-126068000D03*
D21*
X76976000Y-126068000D03*
D22*
X79516000Y-126068000D03*
X82056000Y-126068000D03*
X84596000Y-126068000D03*
X87136000Y-126068000D03*
D21*
X89676000Y-126068000D03*
D22*
X92216000Y-126068000D03*
X94756000Y-126068000D03*
X97296000Y-126068000D03*
X99836000Y-126068000D03*
D21*
X102376000Y-126068000D03*
D22*
X104916000Y-126068000D03*
X107456000Y-126068000D03*
X107456000Y-108288000D03*
X104916000Y-108288000D03*
D21*
X102376000Y-108288000D03*
D22*
X99836000Y-108288000D03*
X97296000Y-108288000D03*
X94756000Y-108288000D03*
X92216000Y-108288000D03*
D21*
X89676000Y-108288000D03*
D22*
X87136000Y-108288000D03*
X84596000Y-108288000D03*
X82056000Y-108288000D03*
X79516000Y-108288000D03*
D21*
X76976000Y-108288000D03*
D22*
X74436000Y-108288000D03*
X71896000Y-108288000D03*
X69356000Y-108288000D03*
X66816000Y-108288000D03*
D21*
X64276000Y-108288000D03*
D22*
X61736000Y-108288000D03*
X59196000Y-108288000D03*
D23*
X59326000Y-119903000D03*
X59326000Y-114453000D03*
D24*
X62356000Y-119603000D03*
X62356000Y-114753000D03*
D22*
X107226000Y-119718000D03*
D21*
X107226000Y-117178000D03*
D22*
X107226000Y-114638000D03*
%TD*%
D18*
%TO.C,SW9*%
X245632000Y-63177600D03*
X245632000Y-58021400D03*
%TD*%
%TO.C,SW8*%
X245632000Y-75877600D03*
X245632000Y-70721400D03*
%TD*%
%TO.C,SW7*%
X245632000Y-88577600D03*
X245632000Y-83421400D03*
%TD*%
%TO.C,SW6*%
X234202000Y-63177600D03*
X234202000Y-58021400D03*
%TD*%
%TO.C,SW5*%
X234202000Y-75877600D03*
X234202000Y-70721400D03*
%TD*%
%TO.C,SW4*%
X234202000Y-88577600D03*
X234202000Y-83421400D03*
%TD*%
%TO.C,SW3*%
X222772000Y-63177600D03*
X222772000Y-58021400D03*
%TD*%
%TO.C,SW2*%
X222772000Y-75877600D03*
X222772000Y-70721400D03*
%TD*%
%TO.C,SW1*%
X222772000Y-88577600D03*
X222772000Y-83421400D03*
%TD*%
D25*
%TO.C,RV2*%
X210326000Y-90508000D03*
D26*
X213826000Y-90508000D03*
X210326000Y-57508000D03*
D27*
X207876000Y-85408000D03*
X207876000Y-62608000D03*
X216276000Y-86608000D03*
X216276000Y-61408000D03*
%TD*%
D25*
%TO.C,RV1*%
X94756000Y-90508000D03*
D26*
X98256000Y-90508000D03*
X94756000Y-57508000D03*
D27*
X92306000Y-85408000D03*
X92306000Y-62608000D03*
X100706000Y-86608000D03*
X100706000Y-61408000D03*
%TD*%
D16*
%TO.C,RN1*%
X220486000Y-96858000D03*
D13*
X223026000Y-96858000D03*
X225566000Y-96858000D03*
X228106000Y-96858000D03*
X230646000Y-96858000D03*
X233186000Y-96858000D03*
X235726000Y-96858000D03*
X238266000Y-96858000D03*
X240806000Y-96858000D03*
X243346000Y-96858000D03*
%TD*%
D28*
%TO.C,J1*%
X126226000Y-118908000D03*
D29*
X121426000Y-121708000D03*
D30*
X121426000Y-115908000D03*
%TD*%
D31*
%TO.C,D1*%
X113333000Y-123479000D03*
D32*
X113333000Y-115859000D03*
%TD*%
M02*
