%TF.GenerationSoftware,KiCad,Pcbnew,(5.1.10)-1*%
%TF.CreationDate,2021-07-11T23:03:33-04:00*%
%TF.ProjectId,RICM_pico,5249434d-5f70-4696-936f-2e6b69636164,rev?*%
%TF.SameCoordinates,Original*%
%TF.FileFunction,Legend,Bot*%
%TF.FilePolarity,Positive*%
%FSLAX46Y46*%
G04 Gerber Fmt 4.6, Leading zero omitted, Abs format (unit mm)*
G04 Created by KiCad (PCBNEW (5.1.10)-1) date 2021-07-11 23:03:33*
%MOMM*%
%LPD*%
G01*
G04 APERTURE LIST*
%ADD10C,0.100000*%
%ADD11C,0.150000*%
%ADD12C,0.300000*%
%ADD13C,0.400000*%
%ADD14C,0.200000*%
G04 APERTURE END LIST*
D10*
D11*
X177002200Y-166007200D02*
X177002200Y-198007200D01*
X285002200Y-198007200D01*
X285002200Y-166007200D01*
X177002200Y-166007200D01*
D10*
D11*
X10000000Y-10000000D02*
X10000000Y-200007200D01*
X287002200Y-200007200D01*
X287002200Y-10000000D01*
X10000000Y-10000000D01*
D10*
D11*
X12000000Y-12000000D02*
X12000000Y-198007200D01*
X285002200Y-198007200D01*
X285002200Y-12000000D01*
X12000000Y-12000000D01*
D10*
D11*
X60000000Y-12000000D02*
X60000000Y-10000000D01*
D10*
D11*
X110000000Y-12000000D02*
X110000000Y-10000000D01*
D10*
D11*
X160000000Y-12000000D02*
X160000000Y-10000000D01*
D10*
D11*
X210000000Y-12000000D02*
X210000000Y-10000000D01*
D10*
D11*
X260000000Y-12000000D02*
X260000000Y-10000000D01*
D10*
D11*
X36065476Y-11588095D02*
X35322619Y-11588095D01*
X35694047Y-11588095D02*
X35694047Y-10288095D01*
X35570238Y-10473809D01*
X35446428Y-10597619D01*
X35322619Y-10659523D01*
D10*
D11*
X85322619Y-10411904D02*
X85384523Y-10350000D01*
X85508333Y-10288095D01*
X85817857Y-10288095D01*
X85941666Y-10350000D01*
X86003571Y-10411904D01*
X86065476Y-10535714D01*
X86065476Y-10659523D01*
X86003571Y-10845238D01*
X85260714Y-11588095D01*
X86065476Y-11588095D01*
D10*
D11*
X135260714Y-10288095D02*
X136065476Y-10288095D01*
X135632142Y-10783333D01*
X135817857Y-10783333D01*
X135941666Y-10845238D01*
X136003571Y-10907142D01*
X136065476Y-11030952D01*
X136065476Y-11340476D01*
X136003571Y-11464285D01*
X135941666Y-11526190D01*
X135817857Y-11588095D01*
X135446428Y-11588095D01*
X135322619Y-11526190D01*
X135260714Y-11464285D01*
D10*
D11*
X185941666Y-10721428D02*
X185941666Y-11588095D01*
X185632142Y-10226190D02*
X185322619Y-11154761D01*
X186127380Y-11154761D01*
D10*
D11*
X236003571Y-10288095D02*
X235384523Y-10288095D01*
X235322619Y-10907142D01*
X235384523Y-10845238D01*
X235508333Y-10783333D01*
X235817857Y-10783333D01*
X235941666Y-10845238D01*
X236003571Y-10907142D01*
X236065476Y-11030952D01*
X236065476Y-11340476D01*
X236003571Y-11464285D01*
X235941666Y-11526190D01*
X235817857Y-11588095D01*
X235508333Y-11588095D01*
X235384523Y-11526190D01*
X235322619Y-11464285D01*
D10*
D11*
X285941666Y-10288095D02*
X285694047Y-10288095D01*
X285570238Y-10350000D01*
X285508333Y-10411904D01*
X285384523Y-10597619D01*
X285322619Y-10845238D01*
X285322619Y-11340476D01*
X285384523Y-11464285D01*
X285446428Y-11526190D01*
X285570238Y-11588095D01*
X285817857Y-11588095D01*
X285941666Y-11526190D01*
X286003571Y-11464285D01*
X286065476Y-11340476D01*
X286065476Y-11030952D01*
X286003571Y-10907142D01*
X285941666Y-10845238D01*
X285817857Y-10783333D01*
X285570238Y-10783333D01*
X285446428Y-10845238D01*
X285384523Y-10907142D01*
X285322619Y-11030952D01*
D10*
D11*
X60000000Y-198007200D02*
X60000000Y-200007200D01*
D10*
D11*
X110000000Y-198007200D02*
X110000000Y-200007200D01*
D10*
D11*
X160000000Y-198007200D02*
X160000000Y-200007200D01*
D10*
D11*
X210000000Y-198007200D02*
X210000000Y-200007200D01*
D10*
D11*
X260000000Y-198007200D02*
X260000000Y-200007200D01*
D10*
D11*
X36065476Y-199595295D02*
X35322619Y-199595295D01*
X35694047Y-199595295D02*
X35694047Y-198295295D01*
X35570238Y-198481009D01*
X35446428Y-198604819D01*
X35322619Y-198666723D01*
D10*
D11*
X85322619Y-198419104D02*
X85384523Y-198357200D01*
X85508333Y-198295295D01*
X85817857Y-198295295D01*
X85941666Y-198357200D01*
X86003571Y-198419104D01*
X86065476Y-198542914D01*
X86065476Y-198666723D01*
X86003571Y-198852438D01*
X85260714Y-199595295D01*
X86065476Y-199595295D01*
D10*
D11*
X135260714Y-198295295D02*
X136065476Y-198295295D01*
X135632142Y-198790533D01*
X135817857Y-198790533D01*
X135941666Y-198852438D01*
X136003571Y-198914342D01*
X136065476Y-199038152D01*
X136065476Y-199347676D01*
X136003571Y-199471485D01*
X135941666Y-199533390D01*
X135817857Y-199595295D01*
X135446428Y-199595295D01*
X135322619Y-199533390D01*
X135260714Y-199471485D01*
D10*
D11*
X185941666Y-198728628D02*
X185941666Y-199595295D01*
X185632142Y-198233390D02*
X185322619Y-199161961D01*
X186127380Y-199161961D01*
D10*
D11*
X236003571Y-198295295D02*
X235384523Y-198295295D01*
X235322619Y-198914342D01*
X235384523Y-198852438D01*
X235508333Y-198790533D01*
X235817857Y-198790533D01*
X235941666Y-198852438D01*
X236003571Y-198914342D01*
X236065476Y-199038152D01*
X236065476Y-199347676D01*
X236003571Y-199471485D01*
X235941666Y-199533390D01*
X235817857Y-199595295D01*
X235508333Y-199595295D01*
X235384523Y-199533390D01*
X235322619Y-199471485D01*
D10*
D11*
X285941666Y-198295295D02*
X285694047Y-198295295D01*
X285570238Y-198357200D01*
X285508333Y-198419104D01*
X285384523Y-198604819D01*
X285322619Y-198852438D01*
X285322619Y-199347676D01*
X285384523Y-199471485D01*
X285446428Y-199533390D01*
X285570238Y-199595295D01*
X285817857Y-199595295D01*
X285941666Y-199533390D01*
X286003571Y-199471485D01*
X286065476Y-199347676D01*
X286065476Y-199038152D01*
X286003571Y-198914342D01*
X285941666Y-198852438D01*
X285817857Y-198790533D01*
X285570238Y-198790533D01*
X285446428Y-198852438D01*
X285384523Y-198914342D01*
X285322619Y-199038152D01*
D10*
D11*
X10000000Y-60000000D02*
X12000000Y-60000000D01*
D10*
D11*
X10000000Y-110000000D02*
X12000000Y-110000000D01*
D10*
D11*
X10000000Y-160000000D02*
X12000000Y-160000000D01*
D10*
D11*
X10690476Y-35216666D02*
X11309523Y-35216666D01*
X10566666Y-35588095D02*
X11000000Y-34288095D01*
X11433333Y-35588095D01*
D10*
D11*
X11092857Y-84907142D02*
X11278571Y-84969047D01*
X11340476Y-85030952D01*
X11402380Y-85154761D01*
X11402380Y-85340476D01*
X11340476Y-85464285D01*
X11278571Y-85526190D01*
X11154761Y-85588095D01*
X10659523Y-85588095D01*
X10659523Y-84288095D01*
X11092857Y-84288095D01*
X11216666Y-84350000D01*
X11278571Y-84411904D01*
X11340476Y-84535714D01*
X11340476Y-84659523D01*
X11278571Y-84783333D01*
X11216666Y-84845238D01*
X11092857Y-84907142D01*
X10659523Y-84907142D01*
D10*
D11*
X11402380Y-135464285D02*
X11340476Y-135526190D01*
X11154761Y-135588095D01*
X11030952Y-135588095D01*
X10845238Y-135526190D01*
X10721428Y-135402380D01*
X10659523Y-135278571D01*
X10597619Y-135030952D01*
X10597619Y-134845238D01*
X10659523Y-134597619D01*
X10721428Y-134473809D01*
X10845238Y-134350000D01*
X11030952Y-134288095D01*
X11154761Y-134288095D01*
X11340476Y-134350000D01*
X11402380Y-134411904D01*
D10*
D11*
X10659523Y-185588095D02*
X10659523Y-184288095D01*
X10969047Y-184288095D01*
X11154761Y-184350000D01*
X11278571Y-184473809D01*
X11340476Y-184597619D01*
X11402380Y-184845238D01*
X11402380Y-185030952D01*
X11340476Y-185278571D01*
X11278571Y-185402380D01*
X11154761Y-185526190D01*
X10969047Y-185588095D01*
X10659523Y-185588095D01*
D10*
D11*
X287002200Y-60000000D02*
X285002200Y-60000000D01*
D10*
D11*
X287002200Y-110000000D02*
X285002200Y-110000000D01*
D10*
D11*
X287002200Y-160000000D02*
X285002200Y-160000000D01*
D10*
D11*
X285692676Y-35216666D02*
X286311723Y-35216666D01*
X285568866Y-35588095D02*
X286002200Y-34288095D01*
X286435533Y-35588095D01*
D10*
D11*
X286095057Y-84907142D02*
X286280771Y-84969047D01*
X286342676Y-85030952D01*
X286404580Y-85154761D01*
X286404580Y-85340476D01*
X286342676Y-85464285D01*
X286280771Y-85526190D01*
X286156961Y-85588095D01*
X285661723Y-85588095D01*
X285661723Y-84288095D01*
X286095057Y-84288095D01*
X286218866Y-84350000D01*
X286280771Y-84411904D01*
X286342676Y-84535714D01*
X286342676Y-84659523D01*
X286280771Y-84783333D01*
X286218866Y-84845238D01*
X286095057Y-84907142D01*
X285661723Y-84907142D01*
D10*
D11*
X286404580Y-135464285D02*
X286342676Y-135526190D01*
X286156961Y-135588095D01*
X286033152Y-135588095D01*
X285847438Y-135526190D01*
X285723628Y-135402380D01*
X285661723Y-135278571D01*
X285599819Y-135030952D01*
X285599819Y-134845238D01*
X285661723Y-134597619D01*
X285723628Y-134473809D01*
X285847438Y-134350000D01*
X286033152Y-134288095D01*
X286156961Y-134288095D01*
X286342676Y-134350000D01*
X286404580Y-134411904D01*
D10*
D11*
X285661723Y-185588095D02*
X285661723Y-184288095D01*
X285971247Y-184288095D01*
X286156961Y-184350000D01*
X286280771Y-184473809D01*
X286342676Y-184597619D01*
X286404580Y-184845238D01*
X286404580Y-185030952D01*
X286342676Y-185278571D01*
X286280771Y-185402380D01*
X286156961Y-185526190D01*
X285971247Y-185588095D01*
X285661723Y-185588095D01*
D10*
D11*
X200434342Y-193785771D02*
X200434342Y-192285771D01*
X200791485Y-192285771D01*
X201005771Y-192357200D01*
X201148628Y-192500057D01*
X201220057Y-192642914D01*
X201291485Y-192928628D01*
X201291485Y-193142914D01*
X201220057Y-193428628D01*
X201148628Y-193571485D01*
X201005771Y-193714342D01*
X200791485Y-193785771D01*
X200434342Y-193785771D01*
X202577200Y-193785771D02*
X202577200Y-193000057D01*
X202505771Y-192857200D01*
X202362914Y-192785771D01*
X202077200Y-192785771D01*
X201934342Y-192857200D01*
X202577200Y-193714342D02*
X202434342Y-193785771D01*
X202077200Y-193785771D01*
X201934342Y-193714342D01*
X201862914Y-193571485D01*
X201862914Y-193428628D01*
X201934342Y-193285771D01*
X202077200Y-193214342D01*
X202434342Y-193214342D01*
X202577200Y-193142914D01*
X203077200Y-192785771D02*
X203648628Y-192785771D01*
X203291485Y-192285771D02*
X203291485Y-193571485D01*
X203362914Y-193714342D01*
X203505771Y-193785771D01*
X203648628Y-193785771D01*
X204720057Y-193714342D02*
X204577200Y-193785771D01*
X204291485Y-193785771D01*
X204148628Y-193714342D01*
X204077200Y-193571485D01*
X204077200Y-193000057D01*
X204148628Y-192857200D01*
X204291485Y-192785771D01*
X204577200Y-192785771D01*
X204720057Y-192857200D01*
X204791485Y-193000057D01*
X204791485Y-193142914D01*
X204077200Y-193285771D01*
X205434342Y-193642914D02*
X205505771Y-193714342D01*
X205434342Y-193785771D01*
X205362914Y-193714342D01*
X205434342Y-193642914D01*
X205434342Y-193785771D01*
X205434342Y-192857200D02*
X205505771Y-192928628D01*
X205434342Y-193000057D01*
X205362914Y-192928628D01*
X205434342Y-192857200D01*
X205434342Y-193000057D01*
D10*
D11*
X177002200Y-194507200D02*
X285002200Y-194507200D01*
D10*
D11*
X178434342Y-196585771D02*
X178434342Y-195085771D01*
X179291485Y-196585771D02*
X178648628Y-195728628D01*
X179291485Y-195085771D02*
X178434342Y-195942914D01*
X179934342Y-196585771D02*
X179934342Y-195585771D01*
X179934342Y-195085771D02*
X179862914Y-195157200D01*
X179934342Y-195228628D01*
X180005771Y-195157200D01*
X179934342Y-195085771D01*
X179934342Y-195228628D01*
X181505771Y-196442914D02*
X181434342Y-196514342D01*
X181220057Y-196585771D01*
X181077200Y-196585771D01*
X180862914Y-196514342D01*
X180720057Y-196371485D01*
X180648628Y-196228628D01*
X180577200Y-195942914D01*
X180577200Y-195728628D01*
X180648628Y-195442914D01*
X180720057Y-195300057D01*
X180862914Y-195157200D01*
X181077200Y-195085771D01*
X181220057Y-195085771D01*
X181434342Y-195157200D01*
X181505771Y-195228628D01*
X182791485Y-196585771D02*
X182791485Y-195800057D01*
X182720057Y-195657200D01*
X182577200Y-195585771D01*
X182291485Y-195585771D01*
X182148628Y-195657200D01*
X182791485Y-196514342D02*
X182648628Y-196585771D01*
X182291485Y-196585771D01*
X182148628Y-196514342D01*
X182077200Y-196371485D01*
X182077200Y-196228628D01*
X182148628Y-196085771D01*
X182291485Y-196014342D01*
X182648628Y-196014342D01*
X182791485Y-195942914D01*
X184148628Y-196585771D02*
X184148628Y-195085771D01*
X184148628Y-196514342D02*
X184005771Y-196585771D01*
X183720057Y-196585771D01*
X183577200Y-196514342D01*
X183505771Y-196442914D01*
X183434342Y-196300057D01*
X183434342Y-195871485D01*
X183505771Y-195728628D01*
X183577200Y-195657200D01*
X183720057Y-195585771D01*
X184005771Y-195585771D01*
X184148628Y-195657200D01*
X186005771Y-195800057D02*
X186505771Y-195800057D01*
X186720057Y-196585771D02*
X186005771Y-196585771D01*
X186005771Y-195085771D01*
X186720057Y-195085771D01*
X187362914Y-196442914D02*
X187434342Y-196514342D01*
X187362914Y-196585771D01*
X187291485Y-196514342D01*
X187362914Y-196442914D01*
X187362914Y-196585771D01*
X188077200Y-196585771D02*
X188077200Y-195085771D01*
X188434342Y-195085771D01*
X188648628Y-195157200D01*
X188791485Y-195300057D01*
X188862914Y-195442914D01*
X188934342Y-195728628D01*
X188934342Y-195942914D01*
X188862914Y-196228628D01*
X188791485Y-196371485D01*
X188648628Y-196514342D01*
X188434342Y-196585771D01*
X188077200Y-196585771D01*
X189577200Y-196442914D02*
X189648628Y-196514342D01*
X189577200Y-196585771D01*
X189505771Y-196514342D01*
X189577200Y-196442914D01*
X189577200Y-196585771D01*
X190220057Y-196157200D02*
X190934342Y-196157200D01*
X190077200Y-196585771D02*
X190577200Y-195085771D01*
X191077200Y-196585771D01*
X191577200Y-196442914D02*
X191648628Y-196514342D01*
X191577200Y-196585771D01*
X191505771Y-196514342D01*
X191577200Y-196442914D01*
X191577200Y-196585771D01*
X194577200Y-196585771D02*
X194577200Y-195085771D01*
X194720057Y-196014342D02*
X195148628Y-196585771D01*
X195148628Y-195585771D02*
X194577200Y-196157200D01*
X195791485Y-196585771D02*
X195791485Y-195585771D01*
X195791485Y-195085771D02*
X195720057Y-195157200D01*
X195791485Y-195228628D01*
X195862914Y-195157200D01*
X195791485Y-195085771D01*
X195791485Y-195228628D01*
X197148628Y-196514342D02*
X197005771Y-196585771D01*
X196720057Y-196585771D01*
X196577200Y-196514342D01*
X196505771Y-196442914D01*
X196434342Y-196300057D01*
X196434342Y-195871485D01*
X196505771Y-195728628D01*
X196577200Y-195657200D01*
X196720057Y-195585771D01*
X197005771Y-195585771D01*
X197148628Y-195657200D01*
X198434342Y-196585771D02*
X198434342Y-195800057D01*
X198362914Y-195657200D01*
X198220057Y-195585771D01*
X197934342Y-195585771D01*
X197791485Y-195657200D01*
X198434342Y-196514342D02*
X198291485Y-196585771D01*
X197934342Y-196585771D01*
X197791485Y-196514342D01*
X197720057Y-196371485D01*
X197720057Y-196228628D01*
X197791485Y-196085771D01*
X197934342Y-196014342D01*
X198291485Y-196014342D01*
X198434342Y-195942914D01*
X199791485Y-196585771D02*
X199791485Y-195085771D01*
X199791485Y-196514342D02*
X199648628Y-196585771D01*
X199362914Y-196585771D01*
X199220057Y-196514342D01*
X199148628Y-196442914D01*
X199077200Y-196300057D01*
X199077200Y-195871485D01*
X199148628Y-195728628D01*
X199220057Y-195657200D01*
X199362914Y-195585771D01*
X199648628Y-195585771D01*
X199791485Y-195657200D01*
X202077200Y-197157200D02*
X202005771Y-197085771D01*
X201862914Y-196871485D01*
X201791485Y-196728628D01*
X201720057Y-196514342D01*
X201648628Y-196157200D01*
X201648628Y-195871485D01*
X201720057Y-195514342D01*
X201791485Y-195300057D01*
X201862914Y-195157200D01*
X202005771Y-194942914D01*
X202077200Y-194871485D01*
X203362914Y-195085771D02*
X202648628Y-195085771D01*
X202577200Y-195800057D01*
X202648628Y-195728628D01*
X202791485Y-195657200D01*
X203148628Y-195657200D01*
X203291485Y-195728628D01*
X203362914Y-195800057D01*
X203434342Y-195942914D01*
X203434342Y-196300057D01*
X203362914Y-196442914D01*
X203291485Y-196514342D01*
X203148628Y-196585771D01*
X202791485Y-196585771D01*
X202648628Y-196514342D01*
X202577200Y-196442914D01*
X204077200Y-196442914D02*
X204148628Y-196514342D01*
X204077200Y-196585771D01*
X204005771Y-196514342D01*
X204077200Y-196442914D01*
X204077200Y-196585771D01*
X205577200Y-196585771D02*
X204720057Y-196585771D01*
X205148628Y-196585771D02*
X205148628Y-195085771D01*
X205005771Y-195300057D01*
X204862914Y-195442914D01*
X204720057Y-195514342D01*
X206220057Y-196442914D02*
X206291485Y-196514342D01*
X206220057Y-196585771D01*
X206148628Y-196514342D01*
X206220057Y-196442914D01*
X206220057Y-196585771D01*
X207720057Y-196585771D02*
X206862914Y-196585771D01*
X207291485Y-196585771D02*
X207291485Y-195085771D01*
X207148628Y-195300057D01*
X207005771Y-195442914D01*
X206862914Y-195514342D01*
X208648628Y-195085771D02*
X208791485Y-195085771D01*
X208934342Y-195157200D01*
X209005771Y-195228628D01*
X209077200Y-195371485D01*
X209148628Y-195657200D01*
X209148628Y-196014342D01*
X209077200Y-196300057D01*
X209005771Y-196442914D01*
X208934342Y-196514342D01*
X208791485Y-196585771D01*
X208648628Y-196585771D01*
X208505771Y-196514342D01*
X208434342Y-196442914D01*
X208362914Y-196300057D01*
X208291485Y-196014342D01*
X208291485Y-195657200D01*
X208362914Y-195371485D01*
X208434342Y-195228628D01*
X208505771Y-195157200D01*
X208648628Y-195085771D01*
X209648628Y-197157200D02*
X209720057Y-197085771D01*
X209862914Y-196871485D01*
X209934342Y-196728628D01*
X210005771Y-196514342D01*
X210077200Y-196157200D01*
X210077200Y-195871485D01*
X210005771Y-195514342D01*
X209934342Y-195300057D01*
X209862914Y-195157200D01*
X209720057Y-194942914D01*
X209648628Y-194871485D01*
X210791485Y-196014342D02*
X211934342Y-196014342D01*
X213434342Y-196585771D02*
X212577200Y-196585771D01*
X213005771Y-196585771D02*
X213005771Y-195085771D01*
X212862914Y-195300057D01*
X212720057Y-195442914D01*
X212577200Y-195514342D01*
D10*
D11*
X177002200Y-191507200D02*
X285002200Y-191507200D01*
D10*
D12*
X264411485Y-193785771D02*
X263911485Y-193071485D01*
X263554342Y-193785771D02*
X263554342Y-192285771D01*
X264125771Y-192285771D01*
X264268628Y-192357200D01*
X264340057Y-192428628D01*
X264411485Y-192571485D01*
X264411485Y-192785771D01*
X264340057Y-192928628D01*
X264268628Y-193000057D01*
X264125771Y-193071485D01*
X263554342Y-193071485D01*
X265625771Y-193714342D02*
X265482914Y-193785771D01*
X265197200Y-193785771D01*
X265054342Y-193714342D01*
X264982914Y-193571485D01*
X264982914Y-193000057D01*
X265054342Y-192857200D01*
X265197200Y-192785771D01*
X265482914Y-192785771D01*
X265625771Y-192857200D01*
X265697200Y-193000057D01*
X265697200Y-193142914D01*
X264982914Y-193285771D01*
X266197200Y-192785771D02*
X266554342Y-193785771D01*
X266911485Y-192785771D01*
X267482914Y-193642914D02*
X267554342Y-193714342D01*
X267482914Y-193785771D01*
X267411485Y-193714342D01*
X267482914Y-193642914D01*
X267482914Y-193785771D01*
X267482914Y-192857200D02*
X267554342Y-192928628D01*
X267482914Y-193000057D01*
X267411485Y-192928628D01*
X267482914Y-192857200D01*
X267482914Y-193000057D01*
D10*
D11*
X178362914Y-193714342D02*
X178577200Y-193785771D01*
X178934342Y-193785771D01*
X179077200Y-193714342D01*
X179148628Y-193642914D01*
X179220057Y-193500057D01*
X179220057Y-193357200D01*
X179148628Y-193214342D01*
X179077200Y-193142914D01*
X178934342Y-193071485D01*
X178648628Y-193000057D01*
X178505771Y-192928628D01*
X178434342Y-192857200D01*
X178362914Y-192714342D01*
X178362914Y-192571485D01*
X178434342Y-192428628D01*
X178505771Y-192357200D01*
X178648628Y-192285771D01*
X179005771Y-192285771D01*
X179220057Y-192357200D01*
X179862914Y-193785771D02*
X179862914Y-192785771D01*
X179862914Y-192285771D02*
X179791485Y-192357200D01*
X179862914Y-192428628D01*
X179934342Y-192357200D01*
X179862914Y-192285771D01*
X179862914Y-192428628D01*
X180434342Y-192785771D02*
X181220057Y-192785771D01*
X180434342Y-193785771D01*
X181220057Y-193785771D01*
X182362914Y-193714342D02*
X182220057Y-193785771D01*
X181934342Y-193785771D01*
X181791485Y-193714342D01*
X181720057Y-193571485D01*
X181720057Y-193000057D01*
X181791485Y-192857200D01*
X181934342Y-192785771D01*
X182220057Y-192785771D01*
X182362914Y-192857200D01*
X182434342Y-193000057D01*
X182434342Y-193142914D01*
X181720057Y-193285771D01*
X183077200Y-193642914D02*
X183148628Y-193714342D01*
X183077200Y-193785771D01*
X183005771Y-193714342D01*
X183077200Y-193642914D01*
X183077200Y-193785771D01*
X183077200Y-192857200D02*
X183148628Y-192928628D01*
X183077200Y-193000057D01*
X183005771Y-192928628D01*
X183077200Y-192857200D01*
X183077200Y-193000057D01*
X184862914Y-193357200D02*
X185577200Y-193357200D01*
X184720057Y-193785771D02*
X185220057Y-192285771D01*
X185720057Y-193785771D01*
X186862914Y-192785771D02*
X186862914Y-193785771D01*
X186505771Y-192214342D02*
X186148628Y-193285771D01*
X187077200Y-193285771D01*
D10*
D11*
X263434342Y-196585771D02*
X263434342Y-195085771D01*
X264791485Y-196585771D02*
X264791485Y-195085771D01*
X264791485Y-196514342D02*
X264648628Y-196585771D01*
X264362914Y-196585771D01*
X264220057Y-196514342D01*
X264148628Y-196442914D01*
X264077200Y-196300057D01*
X264077200Y-195871485D01*
X264148628Y-195728628D01*
X264220057Y-195657200D01*
X264362914Y-195585771D01*
X264648628Y-195585771D01*
X264791485Y-195657200D01*
X265505771Y-196442914D02*
X265577200Y-196514342D01*
X265505771Y-196585771D01*
X265434342Y-196514342D01*
X265505771Y-196442914D01*
X265505771Y-196585771D01*
X265505771Y-195657200D02*
X265577200Y-195728628D01*
X265505771Y-195800057D01*
X265434342Y-195728628D01*
X265505771Y-195657200D01*
X265505771Y-195800057D01*
X268148628Y-196585771D02*
X267291485Y-196585771D01*
X267720057Y-196585771D02*
X267720057Y-195085771D01*
X267577200Y-195300057D01*
X267434342Y-195442914D01*
X267291485Y-195514342D01*
X269862914Y-195014342D02*
X268577200Y-196942914D01*
X271148628Y-196585771D02*
X270291485Y-196585771D01*
X270720057Y-196585771D02*
X270720057Y-195085771D01*
X270577200Y-195300057D01*
X270434342Y-195442914D01*
X270291485Y-195514342D01*
D10*
D11*
X177002200Y-187507200D02*
X285002200Y-187507200D01*
D10*
D13*
X178714580Y-188211961D02*
X179857438Y-188211961D01*
X179036009Y-190211961D02*
X179286009Y-188211961D01*
X180274104Y-190211961D02*
X180440771Y-188878628D01*
X180524104Y-188211961D02*
X180416961Y-188307200D01*
X180500295Y-188402438D01*
X180607438Y-188307200D01*
X180524104Y-188211961D01*
X180500295Y-188402438D01*
X181107438Y-188878628D02*
X181869342Y-188878628D01*
X181476485Y-188211961D02*
X181262200Y-189926247D01*
X181333628Y-190116723D01*
X181512200Y-190211961D01*
X181702676Y-190211961D01*
X182655057Y-190211961D02*
X182476485Y-190116723D01*
X182405057Y-189926247D01*
X182619342Y-188211961D01*
X184190771Y-190116723D02*
X183988390Y-190211961D01*
X183607438Y-190211961D01*
X183428866Y-190116723D01*
X183357438Y-189926247D01*
X183452676Y-189164342D01*
X183571723Y-188973866D01*
X183774104Y-188878628D01*
X184155057Y-188878628D01*
X184333628Y-188973866D01*
X184405057Y-189164342D01*
X184381247Y-189354819D01*
X183405057Y-189545295D01*
X185155057Y-190021485D02*
X185238390Y-190116723D01*
X185131247Y-190211961D01*
X185047914Y-190116723D01*
X185155057Y-190021485D01*
X185131247Y-190211961D01*
X185286009Y-188973866D02*
X185369342Y-189069104D01*
X185262200Y-189164342D01*
X185178866Y-189069104D01*
X185286009Y-188973866D01*
X185262200Y-189164342D01*
D10*
D11*
X178934342Y-185600057D02*
X178434342Y-185600057D01*
X178434342Y-186385771D02*
X178434342Y-184885771D01*
X179148628Y-184885771D01*
X179720057Y-186385771D02*
X179720057Y-185385771D01*
X179720057Y-184885771D02*
X179648628Y-184957200D01*
X179720057Y-185028628D01*
X179791485Y-184957200D01*
X179720057Y-184885771D01*
X179720057Y-185028628D01*
X180648628Y-186385771D02*
X180505771Y-186314342D01*
X180434342Y-186171485D01*
X180434342Y-184885771D01*
X181791485Y-186314342D02*
X181648628Y-186385771D01*
X181362914Y-186385771D01*
X181220057Y-186314342D01*
X181148628Y-186171485D01*
X181148628Y-185600057D01*
X181220057Y-185457200D01*
X181362914Y-185385771D01*
X181648628Y-185385771D01*
X181791485Y-185457200D01*
X181862914Y-185600057D01*
X181862914Y-185742914D01*
X181148628Y-185885771D01*
X182505771Y-186242914D02*
X182577200Y-186314342D01*
X182505771Y-186385771D01*
X182434342Y-186314342D01*
X182505771Y-186242914D01*
X182505771Y-186385771D01*
X182505771Y-185457200D02*
X182577200Y-185528628D01*
X182505771Y-185600057D01*
X182434342Y-185528628D01*
X182505771Y-185457200D01*
X182505771Y-185600057D01*
X185220057Y-186385771D02*
X184720057Y-185671485D01*
X184362914Y-186385771D02*
X184362914Y-184885771D01*
X184934342Y-184885771D01*
X185077200Y-184957200D01*
X185148628Y-185028628D01*
X185220057Y-185171485D01*
X185220057Y-185385771D01*
X185148628Y-185528628D01*
X185077200Y-185600057D01*
X184934342Y-185671485D01*
X184362914Y-185671485D01*
X185862914Y-186385771D02*
X185862914Y-184885771D01*
X187434342Y-186242914D02*
X187362914Y-186314342D01*
X187148628Y-186385771D01*
X187005771Y-186385771D01*
X186791485Y-186314342D01*
X186648628Y-186171485D01*
X186577200Y-186028628D01*
X186505771Y-185742914D01*
X186505771Y-185528628D01*
X186577200Y-185242914D01*
X186648628Y-185100057D01*
X186791485Y-184957200D01*
X187005771Y-184885771D01*
X187148628Y-184885771D01*
X187362914Y-184957200D01*
X187434342Y-185028628D01*
X188077200Y-186385771D02*
X188077200Y-184885771D01*
X188577200Y-185957200D01*
X189077200Y-184885771D01*
X189077200Y-186385771D01*
X189434342Y-186528628D02*
X190577200Y-186528628D01*
X190934342Y-185385771D02*
X190934342Y-186885771D01*
X190934342Y-185457200D02*
X191077200Y-185385771D01*
X191362914Y-185385771D01*
X191505771Y-185457200D01*
X191577200Y-185528628D01*
X191648628Y-185671485D01*
X191648628Y-186100057D01*
X191577200Y-186242914D01*
X191505771Y-186314342D01*
X191362914Y-186385771D01*
X191077200Y-186385771D01*
X190934342Y-186314342D01*
X192291485Y-186385771D02*
X192291485Y-185385771D01*
X192291485Y-184885771D02*
X192220057Y-184957200D01*
X192291485Y-185028628D01*
X192362914Y-184957200D01*
X192291485Y-184885771D01*
X192291485Y-185028628D01*
X193648628Y-186314342D02*
X193505771Y-186385771D01*
X193220057Y-186385771D01*
X193077200Y-186314342D01*
X193005771Y-186242914D01*
X192934342Y-186100057D01*
X192934342Y-185671485D01*
X193005771Y-185528628D01*
X193077200Y-185457200D01*
X193220057Y-185385771D01*
X193505771Y-185385771D01*
X193648628Y-185457200D01*
X194505771Y-186385771D02*
X194362914Y-186314342D01*
X194291485Y-186242914D01*
X194220057Y-186100057D01*
X194220057Y-185671485D01*
X194291485Y-185528628D01*
X194362914Y-185457200D01*
X194505771Y-185385771D01*
X194720057Y-185385771D01*
X194862914Y-185457200D01*
X194934342Y-185528628D01*
X195005771Y-185671485D01*
X195005771Y-186100057D01*
X194934342Y-186242914D01*
X194862914Y-186314342D01*
X194720057Y-186385771D01*
X194505771Y-186385771D01*
X195648628Y-186242914D02*
X195720057Y-186314342D01*
X195648628Y-186385771D01*
X195577200Y-186314342D01*
X195648628Y-186242914D01*
X195648628Y-186385771D01*
X196362914Y-186385771D02*
X196362914Y-184885771D01*
X196505771Y-185814342D02*
X196934342Y-186385771D01*
X196934342Y-185385771D02*
X196362914Y-185957200D01*
X197577200Y-186385771D02*
X197577200Y-185385771D01*
X197577200Y-184885771D02*
X197505771Y-184957200D01*
X197577200Y-185028628D01*
X197648628Y-184957200D01*
X197577200Y-184885771D01*
X197577200Y-185028628D01*
X198934342Y-186314342D02*
X198791485Y-186385771D01*
X198505771Y-186385771D01*
X198362914Y-186314342D01*
X198291485Y-186242914D01*
X198220057Y-186100057D01*
X198220057Y-185671485D01*
X198291485Y-185528628D01*
X198362914Y-185457200D01*
X198505771Y-185385771D01*
X198791485Y-185385771D01*
X198934342Y-185457200D01*
X200220057Y-186385771D02*
X200220057Y-185600057D01*
X200148628Y-185457200D01*
X200005771Y-185385771D01*
X199720057Y-185385771D01*
X199577200Y-185457200D01*
X200220057Y-186314342D02*
X200077200Y-186385771D01*
X199720057Y-186385771D01*
X199577200Y-186314342D01*
X199505771Y-186171485D01*
X199505771Y-186028628D01*
X199577200Y-185885771D01*
X199720057Y-185814342D01*
X200077200Y-185814342D01*
X200220057Y-185742914D01*
X201577200Y-186385771D02*
X201577200Y-184885771D01*
X201577200Y-186314342D02*
X201434342Y-186385771D01*
X201148628Y-186385771D01*
X201005771Y-186314342D01*
X200934342Y-186242914D01*
X200862914Y-186100057D01*
X200862914Y-185671485D01*
X200934342Y-185528628D01*
X201005771Y-185457200D01*
X201148628Y-185385771D01*
X201434342Y-185385771D01*
X201577200Y-185457200D01*
X201934342Y-186528628D02*
X203077200Y-186528628D01*
X203434342Y-185385771D02*
X203434342Y-186885771D01*
X203434342Y-185457200D02*
X203577200Y-185385771D01*
X203862914Y-185385771D01*
X204005771Y-185457200D01*
X204077200Y-185528628D01*
X204148628Y-185671485D01*
X204148628Y-186100057D01*
X204077200Y-186242914D01*
X204005771Y-186314342D01*
X203862914Y-186385771D01*
X203577200Y-186385771D01*
X203434342Y-186314342D01*
X205434342Y-186314342D02*
X205291485Y-186385771D01*
X205005771Y-186385771D01*
X204862914Y-186314342D01*
X204791485Y-186242914D01*
X204720057Y-186100057D01*
X204720057Y-185671485D01*
X204791485Y-185528628D01*
X204862914Y-185457200D01*
X205005771Y-185385771D01*
X205291485Y-185385771D01*
X205434342Y-185457200D01*
X206077200Y-186385771D02*
X206077200Y-184885771D01*
X206077200Y-185457200D02*
X206220057Y-185385771D01*
X206505771Y-185385771D01*
X206648628Y-185457200D01*
X206720057Y-185528628D01*
X206791485Y-185671485D01*
X206791485Y-186100057D01*
X206720057Y-186242914D01*
X206648628Y-186314342D01*
X206505771Y-186385771D01*
X206220057Y-186385771D01*
X206077200Y-186314342D01*
D10*
D11*
X177002200Y-181507200D02*
X285002200Y-181507200D01*
D10*
D11*
X178362914Y-183614342D02*
X178577200Y-183685771D01*
X178934342Y-183685771D01*
X179077200Y-183614342D01*
X179148628Y-183542914D01*
X179220057Y-183400057D01*
X179220057Y-183257200D01*
X179148628Y-183114342D01*
X179077200Y-183042914D01*
X178934342Y-182971485D01*
X178648628Y-182900057D01*
X178505771Y-182828628D01*
X178434342Y-182757200D01*
X178362914Y-182614342D01*
X178362914Y-182471485D01*
X178434342Y-182328628D01*
X178505771Y-182257200D01*
X178648628Y-182185771D01*
X179005771Y-182185771D01*
X179220057Y-182257200D01*
X179862914Y-183685771D02*
X179862914Y-182185771D01*
X180505771Y-183685771D02*
X180505771Y-182900057D01*
X180434342Y-182757200D01*
X180291485Y-182685771D01*
X180077200Y-182685771D01*
X179934342Y-182757200D01*
X179862914Y-182828628D01*
X181791485Y-183614342D02*
X181648628Y-183685771D01*
X181362914Y-183685771D01*
X181220057Y-183614342D01*
X181148628Y-183471485D01*
X181148628Y-182900057D01*
X181220057Y-182757200D01*
X181362914Y-182685771D01*
X181648628Y-182685771D01*
X181791485Y-182757200D01*
X181862914Y-182900057D01*
X181862914Y-183042914D01*
X181148628Y-183185771D01*
X183077200Y-183614342D02*
X182934342Y-183685771D01*
X182648628Y-183685771D01*
X182505771Y-183614342D01*
X182434342Y-183471485D01*
X182434342Y-182900057D01*
X182505771Y-182757200D01*
X182648628Y-182685771D01*
X182934342Y-182685771D01*
X183077200Y-182757200D01*
X183148628Y-182900057D01*
X183148628Y-183042914D01*
X182434342Y-183185771D01*
X183577200Y-182685771D02*
X184148628Y-182685771D01*
X183791485Y-182185771D02*
X183791485Y-183471485D01*
X183862914Y-183614342D01*
X184005771Y-183685771D01*
X184148628Y-183685771D01*
X184648628Y-183542914D02*
X184720057Y-183614342D01*
X184648628Y-183685771D01*
X184577200Y-183614342D01*
X184648628Y-183542914D01*
X184648628Y-183685771D01*
X184648628Y-182757200D02*
X184720057Y-182828628D01*
X184648628Y-182900057D01*
X184577200Y-182828628D01*
X184648628Y-182757200D01*
X184648628Y-182900057D01*
D10*
D11*
X197002200Y-191507200D02*
X197002200Y-194507200D01*
D10*
D11*
X261002200Y-191507200D02*
X261002200Y-198007200D01*
D14*
X164463200Y-121091400D02*
X163627560Y-121477986D01*
X164463200Y-119737582D02*
X164463200Y-121091400D01*
X153614529Y-117503530D02*
G75*
G03*
X153881464Y-118147625I6962471J2508130D01*
G01*
X153464043Y-116950014D02*
G75*
G03*
X153616329Y-117508520I3546932J667118D01*
G01*
X163267357Y-111486675D02*
G75*
G03*
X162219711Y-111061459I-3384811J-6836284D01*
G01*
X162214892Y-111059910D02*
G75*
G03*
X161170185Y-110821707I-1897511J-5912042D01*
G01*
X156941096Y-121344592D02*
G75*
G03*
X158496408Y-121840846I3378343J7902687D01*
G01*
X154714532Y-119560587D02*
G75*
G03*
X155711248Y-120607949I4346294J3138185D01*
G01*
X156565936Y-109332327D02*
G75*
G03*
X155284796Y-110363263I4143272J-6460330D01*
G01*
X164421428Y-110680085D02*
X164479583Y-112087510D01*
X160627355Y-108476575D02*
G75*
G03*
X159094496Y-108506748I-468619J-15144629D01*
G01*
X153390943Y-116329633D02*
G75*
G03*
X153464395Y-116951885I4542539J220750D01*
G01*
X153390752Y-116325675D02*
X153372166Y-115447625D01*
X153393374Y-114773997D02*
X153449976Y-114073073D01*
X153625761Y-113012547D02*
G75*
G03*
X153530292Y-113443205I3110827J-915523D01*
G01*
X154250460Y-111645975D02*
G75*
G03*
X153625008Y-113015108I4437838J-2854734D01*
G01*
X155282678Y-110365379D02*
G75*
G03*
X154248066Y-111649700I5442315J-5443061D01*
G01*
X155708586Y-120605817D02*
G75*
G03*
X156946652Y-121346964I3324286J4148478D01*
G01*
X153883586Y-118152126D02*
G75*
G03*
X154715205Y-119561517I8012194J3777595D01*
G01*
X153372166Y-115447625D02*
X153393374Y-114773997D01*
X153449976Y-114073073D02*
X153530292Y-113443205D01*
X157927886Y-108714132D02*
G75*
G03*
X156570305Y-109329527I1443361J-4989235D01*
G01*
X159097007Y-108506572D02*
G75*
G03*
X157930756Y-108713303I392147J-5605244D01*
G01*
X162141245Y-108599754D02*
G75*
G03*
X160616417Y-108476240I-1981513J-14988513D01*
G01*
X163261999Y-108873986D02*
G75*
G03*
X162129579Y-108598216I-1835465J-5074165D01*
G01*
X163263273Y-108874448D02*
X164363273Y-109272661D01*
X164363273Y-109272661D02*
X164421428Y-110680085D01*
X164479583Y-112087510D02*
X163270218Y-111488092D01*
X142771779Y-120583333D02*
G75*
G03*
X143069293Y-120246046I-2424249J2438234D01*
G01*
X163513273Y-118911704D02*
X164463273Y-118375783D01*
X161170313Y-110821724D02*
G75*
G03*
X160206573Y-110781401I-691258J-4984248D01*
G01*
X137063273Y-108547625D02*
X137063273Y-110947625D01*
X137852154Y-113347625D02*
G75*
G03*
X138796481Y-113252152I-1904J4736798D01*
G01*
X141663883Y-114614348D02*
G75*
G03*
X141520711Y-114687093I611045J-1379877D01*
G01*
X162431529Y-119354008D02*
G75*
G03*
X162931932Y-119198593I-508232J2519697D01*
G01*
X133463273Y-108547625D02*
X135263273Y-108547625D01*
X158059623Y-118590309D02*
G75*
G03*
X158376598Y-118870842I2068555J2017922D01*
G01*
X140699120Y-110771555D02*
X141763273Y-108574823D01*
X142736695Y-113557242D02*
G75*
G03*
X143393638Y-112515809I-10131270J7118791D01*
G01*
X162934268Y-119197596D02*
G75*
G03*
X163513273Y-118911704I-2307942J5403439D01*
G01*
X141763273Y-108574823D02*
X143619836Y-108561224D01*
X164463273Y-118375783D02*
X164463273Y-119729601D01*
X137063273Y-113347625D02*
X137850253Y-113347625D01*
X159280447Y-119358588D02*
G75*
G03*
X159820421Y-119430143I634873J2717765D01*
G01*
X161823532Y-119427387D02*
G75*
G03*
X162430074Y-119354301I-161047J3889965D01*
G01*
X160848367Y-119447625D02*
X161824109Y-119427362D01*
X163627560Y-121477986D02*
X162183547Y-121853924D01*
X160405461Y-122111908D02*
G75*
G03*
X161182231Y-122051734I18473J4805128D01*
G01*
X158698805Y-111349044D02*
G75*
G03*
X157969336Y-111979887I3598847J-4898676D01*
G01*
X133463273Y-115162917D02*
X133463273Y-108547625D01*
X141663142Y-114614675D02*
G75*
G03*
X142167807Y-114256625I-631552J1424841D01*
G01*
X138796443Y-113252159D02*
G75*
G03*
X139396542Y-112948748I-254493J1248501D01*
G01*
X159820421Y-119430143D02*
X160848367Y-119447625D01*
X162183547Y-121853924D02*
X161182231Y-122051734D01*
X157729941Y-118218812D02*
G75*
G03*
X158059472Y-118590155I4101920J3308171D01*
G01*
X159603053Y-122047711D02*
X158496408Y-121840846D01*
X160208538Y-110781296D02*
G75*
G03*
X159415588Y-110953602I135452J-2534062D01*
G01*
X157369939Y-112694144D02*
G75*
G03*
X157061915Y-113340629I1688590J-1201166D01*
G01*
X157246306Y-117471746D02*
G75*
G03*
X157443746Y-117827998I2337051J1062386D01*
G01*
X135263273Y-108547625D02*
X137063273Y-108547625D01*
X156892899Y-114315296D02*
G75*
G03*
X156876384Y-115498769I10100806J-732803D01*
G01*
X143619836Y-108561224D02*
X145476399Y-108547625D01*
X142164791Y-114259837D02*
G75*
G03*
X142731629Y-113564447I-4627260J4350575D01*
G01*
X141480667Y-114744696D02*
G75*
G03*
X141504736Y-114801121I55980J-9467D01*
G01*
X141504285Y-114800814D02*
G75*
G03*
X141620662Y-114866754I459213J674787D01*
G01*
X142061873Y-115138577D02*
G75*
G03*
X141620662Y-114866754I-1360393J-1714140D01*
G01*
X139917134Y-112289057D02*
X140699120Y-110771555D01*
X143071182Y-116115673D02*
G75*
G03*
X142591449Y-115603292I-5478056J-4648242D01*
G01*
X141520682Y-114687110D02*
G75*
G03*
X141480666Y-114744702I41187J-71315D01*
G01*
X158376817Y-118871009D02*
G75*
G03*
X158865963Y-119195460I2719656J3569235D01*
G01*
X159413770Y-110954317D02*
G75*
G03*
X158699488Y-111348543I1160542J-2946947D01*
G01*
X137063273Y-110947625D02*
X137063273Y-113347625D01*
X145476399Y-108547625D02*
X144224663Y-110974831D01*
X144224663Y-110974831D02*
X143393638Y-112515809D01*
X142588947Y-115600870D02*
G75*
G03*
X142062481Y-115139060I-4984430J-5151283D01*
G01*
X157062464Y-113338655D02*
G75*
G03*
X156892897Y-114315320I4807678J-1337752D01*
G01*
X156994157Y-116638289D02*
G75*
G03*
X157245896Y-117470842I3245716J527070D01*
G01*
X157442755Y-117826503D02*
G75*
G03*
X157732248Y-118221669I4334488J2871756D01*
G01*
X139396554Y-112948737D02*
G75*
G03*
X139917134Y-112289057I-1689841J1868766D01*
G01*
X158865300Y-119195082D02*
G75*
G03*
X159281099Y-119358741I765417J1334615D01*
G01*
X143369895Y-116560431D02*
G75*
G03*
X143074535Y-116119627I-2097250J-1085903D01*
G01*
X143597690Y-117267388D02*
G75*
G03*
X143370456Y-116561516I-2222679J-326010D01*
G01*
X143653441Y-118197051D02*
G75*
G03*
X143597778Y-117267991I-5446341J139888D01*
G01*
X143548612Y-119142550D02*
G75*
G03*
X143653416Y-118198038I-5513291J1089829D01*
G01*
X157969567Y-111979652D02*
G75*
G03*
X157369399Y-112694901I4144771J-4087315D01*
G01*
X143284499Y-119906018D02*
G75*
G03*
X143548188Y-119144695I-2611435J1330815D01*
G01*
X159605496Y-122048094D02*
G75*
G03*
X160406885Y-122111914I820184J5235668D01*
G01*
X143070121Y-120244974D02*
G75*
G03*
X143283915Y-119907162I-1713853J1321223D01*
G01*
X156876491Y-115501172D02*
G75*
G03*
X156994534Y-116640602I9791879J438586D01*
G01*
X150863273Y-115247625D02*
X150863273Y-121747625D01*
X138155482Y-119347625D02*
X138855353Y-119329806D01*
X141401173Y-121435428D02*
G75*
G03*
X142033915Y-121149195I-1183671J3459084D01*
G01*
X170674967Y-113397625D02*
X170686661Y-118047625D01*
X174678315Y-111247625D02*
X175741828Y-111247625D01*
X176379679Y-118871375D02*
X175981472Y-117942964D01*
X138856170Y-119329764D02*
G75*
G03*
X139280560Y-119264909I-109845J2139740D01*
G01*
X139219425Y-116031211D02*
G75*
G03*
X138781131Y-115966501I-581681J-2423137D01*
G01*
X168963273Y-108747625D02*
X170663273Y-108747625D01*
X178670782Y-108747625D02*
X180367027Y-108747625D01*
X177052413Y-120397625D02*
X176759696Y-119743303D01*
X150863273Y-121747625D02*
X149163273Y-121747625D01*
X136863273Y-115947625D02*
X136863273Y-117647625D01*
X147463273Y-115247625D02*
X147463273Y-108747625D01*
X176759696Y-119743303D02*
X176379679Y-118871375D01*
X138781131Y-115966501D02*
X138125560Y-115947625D01*
X149163273Y-108747625D02*
X150863273Y-108747625D01*
X182063273Y-115247625D02*
X182063273Y-121747625D01*
X138125560Y-115947625D02*
X136863273Y-115947625D01*
X167263273Y-115247625D02*
X167263273Y-108747625D01*
X139719150Y-121660559D02*
X137313273Y-121712917D01*
X133463273Y-121778210D02*
X133463273Y-115162917D01*
X139716811Y-121660620D02*
G75*
G03*
X140740526Y-121586166I-292464J11096233D01*
G01*
X140157622Y-116876111D02*
G75*
G03*
X139825560Y-116355416I-1172721J-381646D01*
G01*
X171530028Y-115970861D02*
X171913593Y-115071375D01*
X150863273Y-108747625D02*
X150863273Y-115247625D01*
X182063273Y-121747625D02*
X179865264Y-121747625D01*
X149163273Y-121747625D02*
X147463273Y-121747625D01*
X178617027Y-113297625D02*
X178670782Y-108747625D01*
X147463273Y-108747625D02*
X149163273Y-108747625D01*
X170686661Y-118047625D02*
X171250810Y-116647625D01*
X136863273Y-117647625D02*
X136863273Y-119347625D01*
X142032407Y-121150057D02*
G75*
G03*
X142416756Y-120894105I-1685049J2946895D01*
G01*
X172329043Y-114115787D02*
X172714881Y-113247625D01*
X147463273Y-121747625D02*
X147463273Y-115247625D01*
X139855911Y-118909450D02*
G75*
G03*
X140174864Y-118350209I-1028030J956892D01*
G01*
X173614801Y-111247625D02*
X174678315Y-111247625D01*
X177152550Y-114547625D02*
X178563273Y-117847625D01*
X140175095Y-118349426D02*
G75*
G03*
X140277862Y-117606815I-2418334J713080D01*
G01*
X137313273Y-121712917D02*
X133463273Y-121778210D01*
X179865264Y-121747625D02*
X177667255Y-121747625D01*
X177667255Y-121747625D02*
X177052413Y-120397625D01*
X139281012Y-119264793D02*
G75*
G03*
X139584615Y-119133955I-268354J1040368D01*
G01*
X140277842Y-117605196D02*
G75*
G03*
X140157742Y-116876480I-2455118J-30375D01*
G01*
X170663273Y-108747625D02*
X170674967Y-113397625D01*
X171250810Y-116647625D02*
X171530028Y-115970861D01*
X180367027Y-108747625D02*
X182063273Y-108747625D01*
X175981472Y-117942964D02*
X175625653Y-117097625D01*
X175625653Y-117097625D02*
X175304468Y-116350093D01*
X136863273Y-119347625D02*
X138155482Y-119347625D01*
X172714881Y-113247625D02*
X173614801Y-111247625D01*
X142414481Y-120895853D02*
G75*
G03*
X142770996Y-120584112I-2265203J2950276D01*
G01*
X175741828Y-111247625D02*
X177152550Y-114547625D01*
X178563273Y-117847625D02*
X178617027Y-113297625D01*
X182063273Y-108747625D02*
X182063273Y-115247625D01*
X175011759Y-115720437D02*
X174750606Y-115193589D01*
X175304468Y-116350093D02*
X175011759Y-115720437D01*
X174750583Y-115193545D02*
G75*
G03*
X174675941Y-115147625I-74642J-37705D01*
G01*
X139825740Y-116355583D02*
G75*
G03*
X139544313Y-116154593I-909232J-975586D01*
G01*
X139544423Y-116154652D02*
G75*
G03*
X139219025Y-116031116I-644873J-1208296D01*
G01*
X140742721Y-121585903D02*
G75*
G03*
X141398675Y-121436281I-383800J3195306D01*
G01*
X167263273Y-108747625D02*
X168963273Y-108747625D01*
X171913593Y-115071375D02*
X172329043Y-114115787D01*
X139583876Y-119134419D02*
G75*
G03*
X139855482Y-118909912I-722635J1150781D01*
G01*
X167263273Y-121747625D02*
X167263273Y-115247625D01*
X171782366Y-121747625D02*
X169522819Y-121747625D01*
X174599601Y-115196294D02*
X174173869Y-116117000D01*
X173160257Y-118447625D02*
X171782366Y-121747625D01*
X173698451Y-117182429D02*
X173160257Y-118447625D01*
X174675885Y-115147624D02*
G75*
G03*
X174599601Y-115196294I56J-84206D01*
G01*
X169522819Y-121747625D02*
X167263273Y-121747625D01*
X174173869Y-116117000D02*
X173698451Y-117182429D01*
D12*
X127068428Y-101616828D02*
X127068428Y-103116828D01*
X127568428Y-102045400D01*
X128068428Y-103116828D01*
X128068428Y-101616828D01*
X128782714Y-101616828D02*
X128782714Y-102616828D01*
X128782714Y-103116828D02*
X128711285Y-103045400D01*
X128782714Y-102973971D01*
X128854142Y-103045400D01*
X128782714Y-103116828D01*
X128782714Y-102973971D01*
X129497000Y-101616828D02*
X129497000Y-103116828D01*
X129639857Y-102188257D02*
X130068428Y-101616828D01*
X130068428Y-102616828D02*
X129497000Y-102045400D01*
X131282714Y-101688257D02*
X131139857Y-101616828D01*
X130854142Y-101616828D01*
X130711285Y-101688257D01*
X130639857Y-101831114D01*
X130639857Y-102402542D01*
X130711285Y-102545400D01*
X130854142Y-102616828D01*
X131139857Y-102616828D01*
X131282714Y-102545400D01*
X131354142Y-102402542D01*
X131354142Y-102259685D01*
X130639857Y-102116828D01*
X132925571Y-103116828D02*
X133782714Y-103116828D01*
X133354142Y-101616828D02*
X133354142Y-103116828D01*
X134282714Y-101616828D02*
X134282714Y-103116828D01*
X134925571Y-101616828D02*
X134925571Y-102402542D01*
X134854142Y-102545400D01*
X134711285Y-102616828D01*
X134497000Y-102616828D01*
X134354142Y-102545400D01*
X134282714Y-102473971D01*
X135854142Y-101616828D02*
X135711285Y-101688257D01*
X135639857Y-101759685D01*
X135568428Y-101902542D01*
X135568428Y-102331114D01*
X135639857Y-102473971D01*
X135711285Y-102545400D01*
X135854142Y-102616828D01*
X136068428Y-102616828D01*
X136211285Y-102545400D01*
X136282714Y-102473971D01*
X136354142Y-102331114D01*
X136354142Y-101902542D01*
X136282714Y-101759685D01*
X136211285Y-101688257D01*
X136068428Y-101616828D01*
X135854142Y-101616828D01*
X136997000Y-101616828D02*
X136997000Y-102616828D01*
X136997000Y-102473971D02*
X137068428Y-102545400D01*
X137211285Y-102616828D01*
X137425571Y-102616828D01*
X137568428Y-102545400D01*
X137639857Y-102402542D01*
X137639857Y-101616828D01*
X137639857Y-102402542D02*
X137711285Y-102545400D01*
X137854142Y-102616828D01*
X138068428Y-102616828D01*
X138211285Y-102545400D01*
X138282714Y-102402542D01*
X138282714Y-101616828D01*
X138997000Y-102616828D02*
X138997000Y-101116828D01*
X138997000Y-102545400D02*
X139139857Y-102616828D01*
X139425571Y-102616828D01*
X139568428Y-102545400D01*
X139639857Y-102473971D01*
X139711285Y-102331114D01*
X139711285Y-101902542D01*
X139639857Y-101759685D01*
X139568428Y-101688257D01*
X139425571Y-101616828D01*
X139139857Y-101616828D01*
X138997000Y-101688257D01*
X140282714Y-101688257D02*
X140425571Y-101616828D01*
X140711285Y-101616828D01*
X140854142Y-101688257D01*
X140925571Y-101831114D01*
X140925571Y-101902542D01*
X140854142Y-102045400D01*
X140711285Y-102116828D01*
X140497000Y-102116828D01*
X140354142Y-102188257D01*
X140282714Y-102331114D01*
X140282714Y-102402542D01*
X140354142Y-102545400D01*
X140497000Y-102616828D01*
X140711285Y-102616828D01*
X140854142Y-102545400D01*
X141782714Y-101616828D02*
X141639857Y-101688257D01*
X141568428Y-101759685D01*
X141497000Y-101902542D01*
X141497000Y-102331114D01*
X141568428Y-102473971D01*
X141639857Y-102545400D01*
X141782714Y-102616828D01*
X141997000Y-102616828D01*
X142139857Y-102545400D01*
X142211285Y-102473971D01*
X142282714Y-102331114D01*
X142282714Y-101902542D01*
X142211285Y-101759685D01*
X142139857Y-101688257D01*
X141997000Y-101616828D01*
X141782714Y-101616828D01*
X142925571Y-102616828D02*
X142925571Y-101616828D01*
X142925571Y-102473971D02*
X142997000Y-102545400D01*
X143139857Y-102616828D01*
X143354142Y-102616828D01*
X143497000Y-102545400D01*
X143568428Y-102402542D01*
X143568428Y-101616828D01*
X144354142Y-101688257D02*
X144354142Y-101616828D01*
X144282714Y-101473971D01*
X144211285Y-101402542D01*
X146139857Y-102402542D02*
X146639857Y-102402542D01*
X146854142Y-101616828D02*
X146139857Y-101616828D01*
X146139857Y-103116828D01*
X146854142Y-103116828D01*
X147497000Y-101616828D02*
X147497000Y-102616828D01*
X147497000Y-102473971D02*
X147568428Y-102545400D01*
X147711285Y-102616828D01*
X147925571Y-102616828D01*
X148068428Y-102545400D01*
X148139857Y-102402542D01*
X148139857Y-101616828D01*
X148139857Y-102402542D02*
X148211285Y-102545400D01*
X148354142Y-102616828D01*
X148568428Y-102616828D01*
X148711285Y-102545400D01*
X148782714Y-102402542D01*
X148782714Y-101616828D01*
X149497000Y-101616828D02*
X149497000Y-102616828D01*
X149497000Y-103116828D02*
X149425571Y-103045400D01*
X149497000Y-102973971D01*
X149568428Y-103045400D01*
X149497000Y-103116828D01*
X149497000Y-102973971D01*
X150425571Y-101616828D02*
X150282714Y-101688257D01*
X150211285Y-101831114D01*
X150211285Y-103116828D01*
X150997000Y-101616828D02*
X150997000Y-102616828D01*
X150997000Y-103116828D02*
X150925571Y-103045400D01*
X150997000Y-102973971D01*
X151068428Y-103045400D01*
X150997000Y-103116828D01*
X150997000Y-102973971D01*
X151925571Y-101616828D02*
X151782714Y-101688257D01*
X151711285Y-101759685D01*
X151639857Y-101902542D01*
X151639857Y-102331114D01*
X151711285Y-102473971D01*
X151782714Y-102545400D01*
X151925571Y-102616828D01*
X152139857Y-102616828D01*
X152282714Y-102545400D01*
X152354142Y-102473971D01*
X152425571Y-102331114D01*
X152425571Y-101902542D01*
X152354142Y-101759685D01*
X152282714Y-101688257D01*
X152139857Y-101616828D01*
X151925571Y-101616828D01*
X154925571Y-101616828D02*
X154211285Y-101616828D01*
X154211285Y-103116828D01*
X156068428Y-101616828D02*
X156068428Y-102402542D01*
X155997000Y-102545400D01*
X155854142Y-102616828D01*
X155568428Y-102616828D01*
X155425571Y-102545400D01*
X156068428Y-101688257D02*
X155925571Y-101616828D01*
X155568428Y-101616828D01*
X155425571Y-101688257D01*
X155354142Y-101831114D01*
X155354142Y-101973971D01*
X155425571Y-102116828D01*
X155568428Y-102188257D01*
X155925571Y-102188257D01*
X156068428Y-102259685D01*
X156568428Y-102616828D02*
X157139857Y-102616828D01*
X156782714Y-103116828D02*
X156782714Y-101831114D01*
X156854142Y-101688257D01*
X156997000Y-101616828D01*
X157139857Y-101616828D01*
X157854142Y-101616828D02*
X157711285Y-101688257D01*
X157639857Y-101759685D01*
X157568428Y-101902542D01*
X157568428Y-102331114D01*
X157639857Y-102473971D01*
X157711285Y-102545400D01*
X157854142Y-102616828D01*
X158068428Y-102616828D01*
X158211285Y-102545400D01*
X158282714Y-102473971D01*
X158354142Y-102331114D01*
X158354142Y-101902542D01*
X158282714Y-101759685D01*
X158211285Y-101688257D01*
X158068428Y-101616828D01*
X157854142Y-101616828D01*
X158997000Y-101616828D02*
X158997000Y-102616828D01*
X158997000Y-102331114D02*
X159068428Y-102473971D01*
X159139857Y-102545400D01*
X159282714Y-102616828D01*
X159425571Y-102616828D01*
X159925571Y-101616828D02*
X159925571Y-102616828D01*
X159925571Y-102331114D02*
X159997000Y-102473971D01*
X160068428Y-102545400D01*
X160211285Y-102616828D01*
X160354142Y-102616828D01*
X161425571Y-101688257D02*
X161282714Y-101616828D01*
X160997000Y-101616828D01*
X160854142Y-101688257D01*
X160782714Y-101831114D01*
X160782714Y-102402542D01*
X160854142Y-102545400D01*
X160997000Y-102616828D01*
X161282714Y-102616828D01*
X161425571Y-102545400D01*
X161497000Y-102402542D01*
X161497000Y-102259685D01*
X160782714Y-102116828D01*
X162211285Y-101688257D02*
X162211285Y-101616828D01*
X162139857Y-101473971D01*
X162068428Y-101402542D01*
X163997000Y-101616828D02*
X163997000Y-103116828D01*
X164354142Y-103116828D01*
X164568428Y-103045400D01*
X164711285Y-102902542D01*
X164782714Y-102759685D01*
X164854142Y-102473971D01*
X164854142Y-102259685D01*
X164782714Y-101973971D01*
X164711285Y-101831114D01*
X164568428Y-101688257D01*
X164354142Y-101616828D01*
X163997000Y-101616828D01*
X166139857Y-101616828D02*
X166139857Y-102402542D01*
X166068428Y-102545400D01*
X165925571Y-102616828D01*
X165639857Y-102616828D01*
X165497000Y-102545400D01*
X166139857Y-101688257D02*
X165997000Y-101616828D01*
X165639857Y-101616828D01*
X165497000Y-101688257D01*
X165425571Y-101831114D01*
X165425571Y-101973971D01*
X165497000Y-102116828D01*
X165639857Y-102188257D01*
X165997000Y-102188257D01*
X166139857Y-102259685D01*
X166854142Y-102616828D02*
X166854142Y-101616828D01*
X166854142Y-102473971D02*
X166925571Y-102545400D01*
X167068428Y-102616828D01*
X167282714Y-102616828D01*
X167425571Y-102545400D01*
X167497000Y-102402542D01*
X167497000Y-101616828D01*
X169854142Y-102402542D02*
X170068428Y-102331114D01*
X170139857Y-102259685D01*
X170211285Y-102116828D01*
X170211285Y-101902542D01*
X170139857Y-101759685D01*
X170068428Y-101688257D01*
X169925571Y-101616828D01*
X169354142Y-101616828D01*
X169354142Y-103116828D01*
X169854142Y-103116828D01*
X169997000Y-103045400D01*
X170068428Y-102973971D01*
X170139857Y-102831114D01*
X170139857Y-102688257D01*
X170068428Y-102545400D01*
X169997000Y-102473971D01*
X169854142Y-102402542D01*
X169354142Y-102402542D01*
X171425571Y-101688257D02*
X171282714Y-101616828D01*
X170997000Y-101616828D01*
X170854142Y-101688257D01*
X170782714Y-101831114D01*
X170782714Y-102402542D01*
X170854142Y-102545400D01*
X170997000Y-102616828D01*
X171282714Y-102616828D01*
X171425571Y-102545400D01*
X171497000Y-102402542D01*
X171497000Y-102259685D01*
X170782714Y-102116828D01*
X172139857Y-101616828D02*
X172139857Y-102616828D01*
X172139857Y-102331114D02*
X172211285Y-102473971D01*
X172282714Y-102545400D01*
X172425571Y-102616828D01*
X172568428Y-102616828D01*
X173068428Y-101616828D02*
X173068428Y-102616828D01*
X173068428Y-102473971D02*
X173139857Y-102545400D01*
X173282714Y-102616828D01*
X173497000Y-102616828D01*
X173639857Y-102545400D01*
X173711285Y-102402542D01*
X173711285Y-101616828D01*
X173711285Y-102402542D02*
X173782714Y-102545400D01*
X173925571Y-102616828D01*
X174139857Y-102616828D01*
X174282714Y-102545400D01*
X174354142Y-102402542D01*
X174354142Y-101616828D01*
X175711285Y-101616828D02*
X175711285Y-102402542D01*
X175639857Y-102545400D01*
X175497000Y-102616828D01*
X175211285Y-102616828D01*
X175068428Y-102545400D01*
X175711285Y-101688257D02*
X175568428Y-101616828D01*
X175211285Y-101616828D01*
X175068428Y-101688257D01*
X174997000Y-101831114D01*
X174997000Y-101973971D01*
X175068428Y-102116828D01*
X175211285Y-102188257D01*
X175568428Y-102188257D01*
X175711285Y-102259685D01*
X176425571Y-102616828D02*
X176425571Y-101616828D01*
X176425571Y-102473971D02*
X176497000Y-102545400D01*
X176639857Y-102616828D01*
X176854142Y-102616828D01*
X176997000Y-102545400D01*
X177068428Y-102402542D01*
X177068428Y-101616828D01*
X178854142Y-102973971D02*
X178925571Y-103045400D01*
X179068428Y-103116828D01*
X179425571Y-103116828D01*
X179568428Y-103045400D01*
X179639857Y-102973971D01*
X179711285Y-102831114D01*
X179711285Y-102688257D01*
X179639857Y-102473971D01*
X178782714Y-101616828D01*
X179711285Y-101616828D01*
X180639857Y-103116828D02*
X180782714Y-103116828D01*
X180925571Y-103045400D01*
X180997000Y-102973971D01*
X181068428Y-102831114D01*
X181139857Y-102545400D01*
X181139857Y-102188257D01*
X181068428Y-101902542D01*
X180997000Y-101759685D01*
X180925571Y-101688257D01*
X180782714Y-101616828D01*
X180639857Y-101616828D01*
X180497000Y-101688257D01*
X180425571Y-101759685D01*
X180354142Y-101902542D01*
X180282714Y-102188257D01*
X180282714Y-102545400D01*
X180354142Y-102831114D01*
X180425571Y-102973971D01*
X180497000Y-103045400D01*
X180639857Y-103116828D01*
X181711285Y-102973971D02*
X181782714Y-103045400D01*
X181925571Y-103116828D01*
X182282714Y-103116828D01*
X182425571Y-103045400D01*
X182497000Y-102973971D01*
X182568428Y-102831114D01*
X182568428Y-102688257D01*
X182497000Y-102473971D01*
X181639857Y-101616828D01*
X182568428Y-101616828D01*
X183997000Y-101616828D02*
X183139857Y-101616828D01*
X183568428Y-101616828D02*
X183568428Y-103116828D01*
X183425571Y-102902542D01*
X183282714Y-102759685D01*
X183139857Y-102688257D01*
X145977000Y-105426828D02*
X145977000Y-106926828D01*
X146548428Y-106926828D01*
X146691285Y-106855400D01*
X146762714Y-106783971D01*
X146834142Y-106641114D01*
X146834142Y-106426828D01*
X146762714Y-106283971D01*
X146691285Y-106212542D01*
X146548428Y-106141114D01*
X145977000Y-106141114D01*
X147477000Y-105426828D02*
X147477000Y-106426828D01*
X147477000Y-106926828D02*
X147405571Y-106855400D01*
X147477000Y-106783971D01*
X147548428Y-106855400D01*
X147477000Y-106926828D01*
X147477000Y-106783971D01*
X148834142Y-105498257D02*
X148691285Y-105426828D01*
X148405571Y-105426828D01*
X148262714Y-105498257D01*
X148191285Y-105569685D01*
X148119857Y-105712542D01*
X148119857Y-106141114D01*
X148191285Y-106283971D01*
X148262714Y-106355400D01*
X148405571Y-106426828D01*
X148691285Y-106426828D01*
X148834142Y-106355400D01*
X149691285Y-105426828D02*
X149548428Y-105498257D01*
X149477000Y-105569685D01*
X149405571Y-105712542D01*
X149405571Y-106141114D01*
X149477000Y-106283971D01*
X149548428Y-106355400D01*
X149691285Y-106426828D01*
X149905571Y-106426828D01*
X150048428Y-106355400D01*
X150119857Y-106283971D01*
X150191285Y-106141114D01*
X150191285Y-105712542D01*
X150119857Y-105569685D01*
X150048428Y-105498257D01*
X149905571Y-105426828D01*
X149691285Y-105426828D01*
X151334142Y-106212542D02*
X151548428Y-106141114D01*
X151619857Y-106069685D01*
X151691285Y-105926828D01*
X151691285Y-105712542D01*
X151619857Y-105569685D01*
X151548428Y-105498257D01*
X151405571Y-105426828D01*
X150834142Y-105426828D01*
X150834142Y-106926828D01*
X151334142Y-106926828D01*
X151477000Y-106855400D01*
X151548428Y-106783971D01*
X151619857Y-106641114D01*
X151619857Y-106498257D01*
X151548428Y-106355400D01*
X151477000Y-106283971D01*
X151334142Y-106212542D01*
X150834142Y-106212542D01*
X152548428Y-105426828D02*
X152405571Y-105498257D01*
X152334142Y-105569685D01*
X152262714Y-105712542D01*
X152262714Y-106141114D01*
X152334142Y-106283971D01*
X152405571Y-106355400D01*
X152548428Y-106426828D01*
X152762714Y-106426828D01*
X152905571Y-106355400D01*
X152977000Y-106283971D01*
X153048428Y-106141114D01*
X153048428Y-105712542D01*
X152977000Y-105569685D01*
X152905571Y-105498257D01*
X152762714Y-105426828D01*
X152548428Y-105426828D01*
X154334142Y-105426828D02*
X154334142Y-106212542D01*
X154262714Y-106355400D01*
X154119857Y-106426828D01*
X153834142Y-106426828D01*
X153691285Y-106355400D01*
X154334142Y-105498257D02*
X154191285Y-105426828D01*
X153834142Y-105426828D01*
X153691285Y-105498257D01*
X153619857Y-105641114D01*
X153619857Y-105783971D01*
X153691285Y-105926828D01*
X153834142Y-105998257D01*
X154191285Y-105998257D01*
X154334142Y-106069685D01*
X155048428Y-105426828D02*
X155048428Y-106426828D01*
X155048428Y-106141114D02*
X155119857Y-106283971D01*
X155191285Y-106355400D01*
X155334142Y-106426828D01*
X155477000Y-106426828D01*
X156619857Y-105426828D02*
X156619857Y-106926828D01*
X156619857Y-105498257D02*
X156477000Y-105426828D01*
X156191285Y-105426828D01*
X156048428Y-105498257D01*
X155977000Y-105569685D01*
X155905571Y-105712542D01*
X155905571Y-106141114D01*
X155977000Y-106283971D01*
X156048428Y-106355400D01*
X156191285Y-106426828D01*
X156477000Y-106426828D01*
X156619857Y-106355400D01*
X158334142Y-106426828D02*
X158691285Y-105426828D01*
X159048428Y-106426828D01*
X159905571Y-106926828D02*
X160048428Y-106926828D01*
X160191285Y-106855400D01*
X160262714Y-106783971D01*
X160334142Y-106641114D01*
X160405571Y-106355400D01*
X160405571Y-105998257D01*
X160334142Y-105712542D01*
X160262714Y-105569685D01*
X160191285Y-105498257D01*
X160048428Y-105426828D01*
X159905571Y-105426828D01*
X159762714Y-105498257D01*
X159691285Y-105569685D01*
X159619857Y-105712542D01*
X159548428Y-105998257D01*
X159548428Y-106355400D01*
X159619857Y-106641114D01*
X159691285Y-106783971D01*
X159762714Y-106855400D01*
X159905571Y-106926828D01*
X161048428Y-105569685D02*
X161119857Y-105498257D01*
X161048428Y-105426828D01*
X160977000Y-105498257D01*
X161048428Y-105569685D01*
X161048428Y-105426828D01*
X162548428Y-105426828D02*
X161691285Y-105426828D01*
X162119857Y-105426828D02*
X162119857Y-106926828D01*
X161977000Y-106712542D01*
X161834142Y-106569685D01*
X161691285Y-106498257D01*
M02*
