%TF.GenerationSoftware,KiCad,Pcbnew,(5.1.10)-1*%
%TF.CreationDate,2021-07-06T19:30:30-04:00*%
%TF.ProjectId,RICM_pico,5249434d-5f70-4696-936f-2e6b69636164,rev?*%
%TF.SameCoordinates,Original*%
%TF.FileFunction,Soldermask,Top*%
%TF.FilePolarity,Negative*%
%FSLAX46Y46*%
G04 Gerber Fmt 4.6, Leading zero omitted, Abs format (unit mm)*
G04 Created by KiCad (PCBNEW (5.1.10)-1) date 2021-07-06 19:30:30*
%MOMM*%
%LPD*%
G01*
G04 APERTURE LIST*
%ADD10R,1.800000X1.800000*%
%ADD11C,1.800000*%
%ADD12C,1.600000*%
%ADD13O,1.600000X1.600000*%
%ADD14R,1.700000X1.700000*%
%ADD15O,1.700000X1.700000*%
%ADD16R,1.600000X1.600000*%
%ADD17C,2.000000*%
%ADD18R,3.500000X1.700000*%
%ADD19O,1.800000X1.800000*%
%ADD20O,1.500000X1.500000*%
%ADD21R,1.700000X3.500000*%
%ADD22R,1.750000X1.750000*%
%ADD23C,1.750000*%
%ADD24C,2.700000*%
%ADD25R,2.000000X2.000000*%
%ADD26O,4.000000X1.800000*%
%ADD27O,1.800000X4.000000*%
%ADD28R,1.800000X4.400000*%
%ADD29R,2.200000X2.200000*%
%ADD30O,2.200000X2.200000*%
G04 APERTURE END LIST*
D10*
%TO.C,D10*%
X78740000Y-109220000D03*
D11*
X81280000Y-109220000D03*
X83820000Y-109220000D03*
X76200000Y-109220000D03*
%TD*%
D10*
%TO.C,D9*%
X66040000Y-109220000D03*
D11*
X68580000Y-109220000D03*
X71120000Y-109220000D03*
X63500000Y-109220000D03*
%TD*%
D10*
%TO.C,D8*%
X53340000Y-109220000D03*
D11*
X55880000Y-109220000D03*
X58420000Y-109220000D03*
X50800000Y-109220000D03*
%TD*%
D10*
%TO.C,D7*%
X78740000Y-96520000D03*
D11*
X81280000Y-96520000D03*
X83820000Y-96520000D03*
X76200000Y-96520000D03*
%TD*%
D10*
%TO.C,D6*%
X66040000Y-96520000D03*
D11*
X68580000Y-96520000D03*
X71120000Y-96520000D03*
X63500000Y-96520000D03*
%TD*%
D10*
%TO.C,D5*%
X53340000Y-96520000D03*
D11*
X55880000Y-96520000D03*
X58420000Y-96520000D03*
X50800000Y-96520000D03*
%TD*%
D10*
%TO.C,D4*%
X78740000Y-83820000D03*
D11*
X81280000Y-83820000D03*
X83820000Y-83820000D03*
X76200000Y-83820000D03*
%TD*%
D10*
%TO.C,D3*%
X66040000Y-83820000D03*
D11*
X68580000Y-83820000D03*
X71120000Y-83820000D03*
X63500000Y-83820000D03*
%TD*%
D10*
%TO.C,D2*%
X53340000Y-83820000D03*
D11*
X55880000Y-83820000D03*
X58420000Y-83820000D03*
X50800000Y-83820000D03*
%TD*%
%TO.C,U5*%
G36*
G01*
X19835000Y-126325000D02*
X19535000Y-126325000D01*
G75*
G02*
X19385000Y-126175000I0J150000D01*
G01*
X19385000Y-124425000D01*
G75*
G02*
X19535000Y-124275000I150000J0D01*
G01*
X19835000Y-124275000D01*
G75*
G02*
X19985000Y-124425000I0J-150000D01*
G01*
X19985000Y-126175000D01*
G75*
G02*
X19835000Y-126325000I-150000J0D01*
G01*
G37*
G36*
G01*
X21105000Y-126325000D02*
X20805000Y-126325000D01*
G75*
G02*
X20655000Y-126175000I0J150000D01*
G01*
X20655000Y-124425000D01*
G75*
G02*
X20805000Y-124275000I150000J0D01*
G01*
X21105000Y-124275000D01*
G75*
G02*
X21255000Y-124425000I0J-150000D01*
G01*
X21255000Y-126175000D01*
G75*
G02*
X21105000Y-126325000I-150000J0D01*
G01*
G37*
G36*
G01*
X22375000Y-126325000D02*
X22075000Y-126325000D01*
G75*
G02*
X21925000Y-126175000I0J150000D01*
G01*
X21925000Y-124425000D01*
G75*
G02*
X22075000Y-124275000I150000J0D01*
G01*
X22375000Y-124275000D01*
G75*
G02*
X22525000Y-124425000I0J-150000D01*
G01*
X22525000Y-126175000D01*
G75*
G02*
X22375000Y-126325000I-150000J0D01*
G01*
G37*
G36*
G01*
X23645000Y-126325000D02*
X23345000Y-126325000D01*
G75*
G02*
X23195000Y-126175000I0J150000D01*
G01*
X23195000Y-124425000D01*
G75*
G02*
X23345000Y-124275000I150000J0D01*
G01*
X23645000Y-124275000D01*
G75*
G02*
X23795000Y-124425000I0J-150000D01*
G01*
X23795000Y-126175000D01*
G75*
G02*
X23645000Y-126325000I-150000J0D01*
G01*
G37*
G36*
G01*
X24915000Y-126325000D02*
X24615000Y-126325000D01*
G75*
G02*
X24465000Y-126175000I0J150000D01*
G01*
X24465000Y-124425000D01*
G75*
G02*
X24615000Y-124275000I150000J0D01*
G01*
X24915000Y-124275000D01*
G75*
G02*
X25065000Y-124425000I0J-150000D01*
G01*
X25065000Y-126175000D01*
G75*
G02*
X24915000Y-126325000I-150000J0D01*
G01*
G37*
G36*
G01*
X26185000Y-126325000D02*
X25885000Y-126325000D01*
G75*
G02*
X25735000Y-126175000I0J150000D01*
G01*
X25735000Y-124425000D01*
G75*
G02*
X25885000Y-124275000I150000J0D01*
G01*
X26185000Y-124275000D01*
G75*
G02*
X26335000Y-124425000I0J-150000D01*
G01*
X26335000Y-126175000D01*
G75*
G02*
X26185000Y-126325000I-150000J0D01*
G01*
G37*
G36*
G01*
X27455000Y-126325000D02*
X27155000Y-126325000D01*
G75*
G02*
X27005000Y-126175000I0J150000D01*
G01*
X27005000Y-124425000D01*
G75*
G02*
X27155000Y-124275000I150000J0D01*
G01*
X27455000Y-124275000D01*
G75*
G02*
X27605000Y-124425000I0J-150000D01*
G01*
X27605000Y-126175000D01*
G75*
G02*
X27455000Y-126325000I-150000J0D01*
G01*
G37*
G36*
G01*
X28725000Y-126325000D02*
X28425000Y-126325000D01*
G75*
G02*
X28275000Y-126175000I0J150000D01*
G01*
X28275000Y-124425000D01*
G75*
G02*
X28425000Y-124275000I150000J0D01*
G01*
X28725000Y-124275000D01*
G75*
G02*
X28875000Y-124425000I0J-150000D01*
G01*
X28875000Y-126175000D01*
G75*
G02*
X28725000Y-126325000I-150000J0D01*
G01*
G37*
G36*
G01*
X29995000Y-126325000D02*
X29695000Y-126325000D01*
G75*
G02*
X29545000Y-126175000I0J150000D01*
G01*
X29545000Y-124425000D01*
G75*
G02*
X29695000Y-124275000I150000J0D01*
G01*
X29995000Y-124275000D01*
G75*
G02*
X30145000Y-124425000I0J-150000D01*
G01*
X30145000Y-126175000D01*
G75*
G02*
X29995000Y-126325000I-150000J0D01*
G01*
G37*
G36*
G01*
X31265000Y-126325000D02*
X30965000Y-126325000D01*
G75*
G02*
X30815000Y-126175000I0J150000D01*
G01*
X30815000Y-124425000D01*
G75*
G02*
X30965000Y-124275000I150000J0D01*
G01*
X31265000Y-124275000D01*
G75*
G02*
X31415000Y-124425000I0J-150000D01*
G01*
X31415000Y-126175000D01*
G75*
G02*
X31265000Y-126325000I-150000J0D01*
G01*
G37*
G36*
G01*
X32535000Y-126325000D02*
X32235000Y-126325000D01*
G75*
G02*
X32085000Y-126175000I0J150000D01*
G01*
X32085000Y-124425000D01*
G75*
G02*
X32235000Y-124275000I150000J0D01*
G01*
X32535000Y-124275000D01*
G75*
G02*
X32685000Y-124425000I0J-150000D01*
G01*
X32685000Y-126175000D01*
G75*
G02*
X32535000Y-126325000I-150000J0D01*
G01*
G37*
G36*
G01*
X33805000Y-126325000D02*
X33505000Y-126325000D01*
G75*
G02*
X33355000Y-126175000I0J150000D01*
G01*
X33355000Y-124425000D01*
G75*
G02*
X33505000Y-124275000I150000J0D01*
G01*
X33805000Y-124275000D01*
G75*
G02*
X33955000Y-124425000I0J-150000D01*
G01*
X33955000Y-126175000D01*
G75*
G02*
X33805000Y-126325000I-150000J0D01*
G01*
G37*
G36*
G01*
X33805000Y-117025000D02*
X33505000Y-117025000D01*
G75*
G02*
X33355000Y-116875000I0J150000D01*
G01*
X33355000Y-115125000D01*
G75*
G02*
X33505000Y-114975000I150000J0D01*
G01*
X33805000Y-114975000D01*
G75*
G02*
X33955000Y-115125000I0J-150000D01*
G01*
X33955000Y-116875000D01*
G75*
G02*
X33805000Y-117025000I-150000J0D01*
G01*
G37*
G36*
G01*
X32535000Y-117025000D02*
X32235000Y-117025000D01*
G75*
G02*
X32085000Y-116875000I0J150000D01*
G01*
X32085000Y-115125000D01*
G75*
G02*
X32235000Y-114975000I150000J0D01*
G01*
X32535000Y-114975000D01*
G75*
G02*
X32685000Y-115125000I0J-150000D01*
G01*
X32685000Y-116875000D01*
G75*
G02*
X32535000Y-117025000I-150000J0D01*
G01*
G37*
G36*
G01*
X31265000Y-117025000D02*
X30965000Y-117025000D01*
G75*
G02*
X30815000Y-116875000I0J150000D01*
G01*
X30815000Y-115125000D01*
G75*
G02*
X30965000Y-114975000I150000J0D01*
G01*
X31265000Y-114975000D01*
G75*
G02*
X31415000Y-115125000I0J-150000D01*
G01*
X31415000Y-116875000D01*
G75*
G02*
X31265000Y-117025000I-150000J0D01*
G01*
G37*
G36*
G01*
X29995000Y-117025000D02*
X29695000Y-117025000D01*
G75*
G02*
X29545000Y-116875000I0J150000D01*
G01*
X29545000Y-115125000D01*
G75*
G02*
X29695000Y-114975000I150000J0D01*
G01*
X29995000Y-114975000D01*
G75*
G02*
X30145000Y-115125000I0J-150000D01*
G01*
X30145000Y-116875000D01*
G75*
G02*
X29995000Y-117025000I-150000J0D01*
G01*
G37*
G36*
G01*
X28725000Y-117025000D02*
X28425000Y-117025000D01*
G75*
G02*
X28275000Y-116875000I0J150000D01*
G01*
X28275000Y-115125000D01*
G75*
G02*
X28425000Y-114975000I150000J0D01*
G01*
X28725000Y-114975000D01*
G75*
G02*
X28875000Y-115125000I0J-150000D01*
G01*
X28875000Y-116875000D01*
G75*
G02*
X28725000Y-117025000I-150000J0D01*
G01*
G37*
G36*
G01*
X27455000Y-117025000D02*
X27155000Y-117025000D01*
G75*
G02*
X27005000Y-116875000I0J150000D01*
G01*
X27005000Y-115125000D01*
G75*
G02*
X27155000Y-114975000I150000J0D01*
G01*
X27455000Y-114975000D01*
G75*
G02*
X27605000Y-115125000I0J-150000D01*
G01*
X27605000Y-116875000D01*
G75*
G02*
X27455000Y-117025000I-150000J0D01*
G01*
G37*
G36*
G01*
X26185000Y-117025000D02*
X25885000Y-117025000D01*
G75*
G02*
X25735000Y-116875000I0J150000D01*
G01*
X25735000Y-115125000D01*
G75*
G02*
X25885000Y-114975000I150000J0D01*
G01*
X26185000Y-114975000D01*
G75*
G02*
X26335000Y-115125000I0J-150000D01*
G01*
X26335000Y-116875000D01*
G75*
G02*
X26185000Y-117025000I-150000J0D01*
G01*
G37*
G36*
G01*
X24915000Y-117025000D02*
X24615000Y-117025000D01*
G75*
G02*
X24465000Y-116875000I0J150000D01*
G01*
X24465000Y-115125000D01*
G75*
G02*
X24615000Y-114975000I150000J0D01*
G01*
X24915000Y-114975000D01*
G75*
G02*
X25065000Y-115125000I0J-150000D01*
G01*
X25065000Y-116875000D01*
G75*
G02*
X24915000Y-117025000I-150000J0D01*
G01*
G37*
G36*
G01*
X23645000Y-117025000D02*
X23345000Y-117025000D01*
G75*
G02*
X23195000Y-116875000I0J150000D01*
G01*
X23195000Y-115125000D01*
G75*
G02*
X23345000Y-114975000I150000J0D01*
G01*
X23645000Y-114975000D01*
G75*
G02*
X23795000Y-115125000I0J-150000D01*
G01*
X23795000Y-116875000D01*
G75*
G02*
X23645000Y-117025000I-150000J0D01*
G01*
G37*
G36*
G01*
X22375000Y-117025000D02*
X22075000Y-117025000D01*
G75*
G02*
X21925000Y-116875000I0J150000D01*
G01*
X21925000Y-115125000D01*
G75*
G02*
X22075000Y-114975000I150000J0D01*
G01*
X22375000Y-114975000D01*
G75*
G02*
X22525000Y-115125000I0J-150000D01*
G01*
X22525000Y-116875000D01*
G75*
G02*
X22375000Y-117025000I-150000J0D01*
G01*
G37*
G36*
G01*
X21105000Y-117025000D02*
X20805000Y-117025000D01*
G75*
G02*
X20655000Y-116875000I0J150000D01*
G01*
X20655000Y-115125000D01*
G75*
G02*
X20805000Y-114975000I150000J0D01*
G01*
X21105000Y-114975000D01*
G75*
G02*
X21255000Y-115125000I0J-150000D01*
G01*
X21255000Y-116875000D01*
G75*
G02*
X21105000Y-117025000I-150000J0D01*
G01*
G37*
G36*
G01*
X19835000Y-117025000D02*
X19535000Y-117025000D01*
G75*
G02*
X19385000Y-116875000I0J150000D01*
G01*
X19385000Y-115125000D01*
G75*
G02*
X19535000Y-114975000I150000J0D01*
G01*
X19835000Y-114975000D01*
G75*
G02*
X19985000Y-115125000I0J-150000D01*
G01*
X19985000Y-116875000D01*
G75*
G02*
X19835000Y-117025000I-150000J0D01*
G01*
G37*
%TD*%
D12*
%TO.C,R2*%
X15240000Y-116840000D03*
D13*
X15240000Y-124460000D03*
%TD*%
D14*
%TO.C,J2*%
X15240000Y-86360000D03*
D15*
X15240000Y-88900000D03*
X15240000Y-91440000D03*
X15240000Y-93980000D03*
X15240000Y-96520000D03*
X15240000Y-99060000D03*
%TD*%
%TO.C,U4*%
G36*
G01*
X19835000Y-111085000D02*
X19535000Y-111085000D01*
G75*
G02*
X19385000Y-110935000I0J150000D01*
G01*
X19385000Y-109185000D01*
G75*
G02*
X19535000Y-109035000I150000J0D01*
G01*
X19835000Y-109035000D01*
G75*
G02*
X19985000Y-109185000I0J-150000D01*
G01*
X19985000Y-110935000D01*
G75*
G02*
X19835000Y-111085000I-150000J0D01*
G01*
G37*
G36*
G01*
X21105000Y-111085000D02*
X20805000Y-111085000D01*
G75*
G02*
X20655000Y-110935000I0J150000D01*
G01*
X20655000Y-109185000D01*
G75*
G02*
X20805000Y-109035000I150000J0D01*
G01*
X21105000Y-109035000D01*
G75*
G02*
X21255000Y-109185000I0J-150000D01*
G01*
X21255000Y-110935000D01*
G75*
G02*
X21105000Y-111085000I-150000J0D01*
G01*
G37*
G36*
G01*
X22375000Y-111085000D02*
X22075000Y-111085000D01*
G75*
G02*
X21925000Y-110935000I0J150000D01*
G01*
X21925000Y-109185000D01*
G75*
G02*
X22075000Y-109035000I150000J0D01*
G01*
X22375000Y-109035000D01*
G75*
G02*
X22525000Y-109185000I0J-150000D01*
G01*
X22525000Y-110935000D01*
G75*
G02*
X22375000Y-111085000I-150000J0D01*
G01*
G37*
G36*
G01*
X23645000Y-111085000D02*
X23345000Y-111085000D01*
G75*
G02*
X23195000Y-110935000I0J150000D01*
G01*
X23195000Y-109185000D01*
G75*
G02*
X23345000Y-109035000I150000J0D01*
G01*
X23645000Y-109035000D01*
G75*
G02*
X23795000Y-109185000I0J-150000D01*
G01*
X23795000Y-110935000D01*
G75*
G02*
X23645000Y-111085000I-150000J0D01*
G01*
G37*
G36*
G01*
X24915000Y-111085000D02*
X24615000Y-111085000D01*
G75*
G02*
X24465000Y-110935000I0J150000D01*
G01*
X24465000Y-109185000D01*
G75*
G02*
X24615000Y-109035000I150000J0D01*
G01*
X24915000Y-109035000D01*
G75*
G02*
X25065000Y-109185000I0J-150000D01*
G01*
X25065000Y-110935000D01*
G75*
G02*
X24915000Y-111085000I-150000J0D01*
G01*
G37*
G36*
G01*
X26185000Y-111085000D02*
X25885000Y-111085000D01*
G75*
G02*
X25735000Y-110935000I0J150000D01*
G01*
X25735000Y-109185000D01*
G75*
G02*
X25885000Y-109035000I150000J0D01*
G01*
X26185000Y-109035000D01*
G75*
G02*
X26335000Y-109185000I0J-150000D01*
G01*
X26335000Y-110935000D01*
G75*
G02*
X26185000Y-111085000I-150000J0D01*
G01*
G37*
G36*
G01*
X27455000Y-111085000D02*
X27155000Y-111085000D01*
G75*
G02*
X27005000Y-110935000I0J150000D01*
G01*
X27005000Y-109185000D01*
G75*
G02*
X27155000Y-109035000I150000J0D01*
G01*
X27455000Y-109035000D01*
G75*
G02*
X27605000Y-109185000I0J-150000D01*
G01*
X27605000Y-110935000D01*
G75*
G02*
X27455000Y-111085000I-150000J0D01*
G01*
G37*
G36*
G01*
X28725000Y-111085000D02*
X28425000Y-111085000D01*
G75*
G02*
X28275000Y-110935000I0J150000D01*
G01*
X28275000Y-109185000D01*
G75*
G02*
X28425000Y-109035000I150000J0D01*
G01*
X28725000Y-109035000D01*
G75*
G02*
X28875000Y-109185000I0J-150000D01*
G01*
X28875000Y-110935000D01*
G75*
G02*
X28725000Y-111085000I-150000J0D01*
G01*
G37*
G36*
G01*
X29995000Y-111085000D02*
X29695000Y-111085000D01*
G75*
G02*
X29545000Y-110935000I0J150000D01*
G01*
X29545000Y-109185000D01*
G75*
G02*
X29695000Y-109035000I150000J0D01*
G01*
X29995000Y-109035000D01*
G75*
G02*
X30145000Y-109185000I0J-150000D01*
G01*
X30145000Y-110935000D01*
G75*
G02*
X29995000Y-111085000I-150000J0D01*
G01*
G37*
G36*
G01*
X31265000Y-111085000D02*
X30965000Y-111085000D01*
G75*
G02*
X30815000Y-110935000I0J150000D01*
G01*
X30815000Y-109185000D01*
G75*
G02*
X30965000Y-109035000I150000J0D01*
G01*
X31265000Y-109035000D01*
G75*
G02*
X31415000Y-109185000I0J-150000D01*
G01*
X31415000Y-110935000D01*
G75*
G02*
X31265000Y-111085000I-150000J0D01*
G01*
G37*
G36*
G01*
X32535000Y-111085000D02*
X32235000Y-111085000D01*
G75*
G02*
X32085000Y-110935000I0J150000D01*
G01*
X32085000Y-109185000D01*
G75*
G02*
X32235000Y-109035000I150000J0D01*
G01*
X32535000Y-109035000D01*
G75*
G02*
X32685000Y-109185000I0J-150000D01*
G01*
X32685000Y-110935000D01*
G75*
G02*
X32535000Y-111085000I-150000J0D01*
G01*
G37*
G36*
G01*
X33805000Y-111085000D02*
X33505000Y-111085000D01*
G75*
G02*
X33355000Y-110935000I0J150000D01*
G01*
X33355000Y-109185000D01*
G75*
G02*
X33505000Y-109035000I150000J0D01*
G01*
X33805000Y-109035000D01*
G75*
G02*
X33955000Y-109185000I0J-150000D01*
G01*
X33955000Y-110935000D01*
G75*
G02*
X33805000Y-111085000I-150000J0D01*
G01*
G37*
G36*
G01*
X33805000Y-101785000D02*
X33505000Y-101785000D01*
G75*
G02*
X33355000Y-101635000I0J150000D01*
G01*
X33355000Y-99885000D01*
G75*
G02*
X33505000Y-99735000I150000J0D01*
G01*
X33805000Y-99735000D01*
G75*
G02*
X33955000Y-99885000I0J-150000D01*
G01*
X33955000Y-101635000D01*
G75*
G02*
X33805000Y-101785000I-150000J0D01*
G01*
G37*
G36*
G01*
X32535000Y-101785000D02*
X32235000Y-101785000D01*
G75*
G02*
X32085000Y-101635000I0J150000D01*
G01*
X32085000Y-99885000D01*
G75*
G02*
X32235000Y-99735000I150000J0D01*
G01*
X32535000Y-99735000D01*
G75*
G02*
X32685000Y-99885000I0J-150000D01*
G01*
X32685000Y-101635000D01*
G75*
G02*
X32535000Y-101785000I-150000J0D01*
G01*
G37*
G36*
G01*
X31265000Y-101785000D02*
X30965000Y-101785000D01*
G75*
G02*
X30815000Y-101635000I0J150000D01*
G01*
X30815000Y-99885000D01*
G75*
G02*
X30965000Y-99735000I150000J0D01*
G01*
X31265000Y-99735000D01*
G75*
G02*
X31415000Y-99885000I0J-150000D01*
G01*
X31415000Y-101635000D01*
G75*
G02*
X31265000Y-101785000I-150000J0D01*
G01*
G37*
G36*
G01*
X29995000Y-101785000D02*
X29695000Y-101785000D01*
G75*
G02*
X29545000Y-101635000I0J150000D01*
G01*
X29545000Y-99885000D01*
G75*
G02*
X29695000Y-99735000I150000J0D01*
G01*
X29995000Y-99735000D01*
G75*
G02*
X30145000Y-99885000I0J-150000D01*
G01*
X30145000Y-101635000D01*
G75*
G02*
X29995000Y-101785000I-150000J0D01*
G01*
G37*
G36*
G01*
X28725000Y-101785000D02*
X28425000Y-101785000D01*
G75*
G02*
X28275000Y-101635000I0J150000D01*
G01*
X28275000Y-99885000D01*
G75*
G02*
X28425000Y-99735000I150000J0D01*
G01*
X28725000Y-99735000D01*
G75*
G02*
X28875000Y-99885000I0J-150000D01*
G01*
X28875000Y-101635000D01*
G75*
G02*
X28725000Y-101785000I-150000J0D01*
G01*
G37*
G36*
G01*
X27455000Y-101785000D02*
X27155000Y-101785000D01*
G75*
G02*
X27005000Y-101635000I0J150000D01*
G01*
X27005000Y-99885000D01*
G75*
G02*
X27155000Y-99735000I150000J0D01*
G01*
X27455000Y-99735000D01*
G75*
G02*
X27605000Y-99885000I0J-150000D01*
G01*
X27605000Y-101635000D01*
G75*
G02*
X27455000Y-101785000I-150000J0D01*
G01*
G37*
G36*
G01*
X26185000Y-101785000D02*
X25885000Y-101785000D01*
G75*
G02*
X25735000Y-101635000I0J150000D01*
G01*
X25735000Y-99885000D01*
G75*
G02*
X25885000Y-99735000I150000J0D01*
G01*
X26185000Y-99735000D01*
G75*
G02*
X26335000Y-99885000I0J-150000D01*
G01*
X26335000Y-101635000D01*
G75*
G02*
X26185000Y-101785000I-150000J0D01*
G01*
G37*
G36*
G01*
X24915000Y-101785000D02*
X24615000Y-101785000D01*
G75*
G02*
X24465000Y-101635000I0J150000D01*
G01*
X24465000Y-99885000D01*
G75*
G02*
X24615000Y-99735000I150000J0D01*
G01*
X24915000Y-99735000D01*
G75*
G02*
X25065000Y-99885000I0J-150000D01*
G01*
X25065000Y-101635000D01*
G75*
G02*
X24915000Y-101785000I-150000J0D01*
G01*
G37*
G36*
G01*
X23645000Y-101785000D02*
X23345000Y-101785000D01*
G75*
G02*
X23195000Y-101635000I0J150000D01*
G01*
X23195000Y-99885000D01*
G75*
G02*
X23345000Y-99735000I150000J0D01*
G01*
X23645000Y-99735000D01*
G75*
G02*
X23795000Y-99885000I0J-150000D01*
G01*
X23795000Y-101635000D01*
G75*
G02*
X23645000Y-101785000I-150000J0D01*
G01*
G37*
G36*
G01*
X22375000Y-101785000D02*
X22075000Y-101785000D01*
G75*
G02*
X21925000Y-101635000I0J150000D01*
G01*
X21925000Y-99885000D01*
G75*
G02*
X22075000Y-99735000I150000J0D01*
G01*
X22375000Y-99735000D01*
G75*
G02*
X22525000Y-99885000I0J-150000D01*
G01*
X22525000Y-101635000D01*
G75*
G02*
X22375000Y-101785000I-150000J0D01*
G01*
G37*
G36*
G01*
X21105000Y-101785000D02*
X20805000Y-101785000D01*
G75*
G02*
X20655000Y-101635000I0J150000D01*
G01*
X20655000Y-99885000D01*
G75*
G02*
X20805000Y-99735000I150000J0D01*
G01*
X21105000Y-99735000D01*
G75*
G02*
X21255000Y-99885000I0J-150000D01*
G01*
X21255000Y-101635000D01*
G75*
G02*
X21105000Y-101785000I-150000J0D01*
G01*
G37*
G36*
G01*
X19835000Y-101785000D02*
X19535000Y-101785000D01*
G75*
G02*
X19385000Y-101635000I0J150000D01*
G01*
X19385000Y-99885000D01*
G75*
G02*
X19535000Y-99735000I150000J0D01*
G01*
X19835000Y-99735000D01*
G75*
G02*
X19985000Y-99885000I0J-150000D01*
G01*
X19985000Y-101635000D01*
G75*
G02*
X19835000Y-101785000I-150000J0D01*
G01*
G37*
%TD*%
%TO.C,U3*%
G36*
G01*
X19835000Y-141565000D02*
X19535000Y-141565000D01*
G75*
G02*
X19385000Y-141415000I0J150000D01*
G01*
X19385000Y-139665000D01*
G75*
G02*
X19535000Y-139515000I150000J0D01*
G01*
X19835000Y-139515000D01*
G75*
G02*
X19985000Y-139665000I0J-150000D01*
G01*
X19985000Y-141415000D01*
G75*
G02*
X19835000Y-141565000I-150000J0D01*
G01*
G37*
G36*
G01*
X21105000Y-141565000D02*
X20805000Y-141565000D01*
G75*
G02*
X20655000Y-141415000I0J150000D01*
G01*
X20655000Y-139665000D01*
G75*
G02*
X20805000Y-139515000I150000J0D01*
G01*
X21105000Y-139515000D01*
G75*
G02*
X21255000Y-139665000I0J-150000D01*
G01*
X21255000Y-141415000D01*
G75*
G02*
X21105000Y-141565000I-150000J0D01*
G01*
G37*
G36*
G01*
X22375000Y-141565000D02*
X22075000Y-141565000D01*
G75*
G02*
X21925000Y-141415000I0J150000D01*
G01*
X21925000Y-139665000D01*
G75*
G02*
X22075000Y-139515000I150000J0D01*
G01*
X22375000Y-139515000D01*
G75*
G02*
X22525000Y-139665000I0J-150000D01*
G01*
X22525000Y-141415000D01*
G75*
G02*
X22375000Y-141565000I-150000J0D01*
G01*
G37*
G36*
G01*
X23645000Y-141565000D02*
X23345000Y-141565000D01*
G75*
G02*
X23195000Y-141415000I0J150000D01*
G01*
X23195000Y-139665000D01*
G75*
G02*
X23345000Y-139515000I150000J0D01*
G01*
X23645000Y-139515000D01*
G75*
G02*
X23795000Y-139665000I0J-150000D01*
G01*
X23795000Y-141415000D01*
G75*
G02*
X23645000Y-141565000I-150000J0D01*
G01*
G37*
G36*
G01*
X24915000Y-141565000D02*
X24615000Y-141565000D01*
G75*
G02*
X24465000Y-141415000I0J150000D01*
G01*
X24465000Y-139665000D01*
G75*
G02*
X24615000Y-139515000I150000J0D01*
G01*
X24915000Y-139515000D01*
G75*
G02*
X25065000Y-139665000I0J-150000D01*
G01*
X25065000Y-141415000D01*
G75*
G02*
X24915000Y-141565000I-150000J0D01*
G01*
G37*
G36*
G01*
X26185000Y-141565000D02*
X25885000Y-141565000D01*
G75*
G02*
X25735000Y-141415000I0J150000D01*
G01*
X25735000Y-139665000D01*
G75*
G02*
X25885000Y-139515000I150000J0D01*
G01*
X26185000Y-139515000D01*
G75*
G02*
X26335000Y-139665000I0J-150000D01*
G01*
X26335000Y-141415000D01*
G75*
G02*
X26185000Y-141565000I-150000J0D01*
G01*
G37*
G36*
G01*
X27455000Y-141565000D02*
X27155000Y-141565000D01*
G75*
G02*
X27005000Y-141415000I0J150000D01*
G01*
X27005000Y-139665000D01*
G75*
G02*
X27155000Y-139515000I150000J0D01*
G01*
X27455000Y-139515000D01*
G75*
G02*
X27605000Y-139665000I0J-150000D01*
G01*
X27605000Y-141415000D01*
G75*
G02*
X27455000Y-141565000I-150000J0D01*
G01*
G37*
G36*
G01*
X28725000Y-141565000D02*
X28425000Y-141565000D01*
G75*
G02*
X28275000Y-141415000I0J150000D01*
G01*
X28275000Y-139665000D01*
G75*
G02*
X28425000Y-139515000I150000J0D01*
G01*
X28725000Y-139515000D01*
G75*
G02*
X28875000Y-139665000I0J-150000D01*
G01*
X28875000Y-141415000D01*
G75*
G02*
X28725000Y-141565000I-150000J0D01*
G01*
G37*
G36*
G01*
X29995000Y-141565000D02*
X29695000Y-141565000D01*
G75*
G02*
X29545000Y-141415000I0J150000D01*
G01*
X29545000Y-139665000D01*
G75*
G02*
X29695000Y-139515000I150000J0D01*
G01*
X29995000Y-139515000D01*
G75*
G02*
X30145000Y-139665000I0J-150000D01*
G01*
X30145000Y-141415000D01*
G75*
G02*
X29995000Y-141565000I-150000J0D01*
G01*
G37*
G36*
G01*
X31265000Y-141565000D02*
X30965000Y-141565000D01*
G75*
G02*
X30815000Y-141415000I0J150000D01*
G01*
X30815000Y-139665000D01*
G75*
G02*
X30965000Y-139515000I150000J0D01*
G01*
X31265000Y-139515000D01*
G75*
G02*
X31415000Y-139665000I0J-150000D01*
G01*
X31415000Y-141415000D01*
G75*
G02*
X31265000Y-141565000I-150000J0D01*
G01*
G37*
G36*
G01*
X32535000Y-141565000D02*
X32235000Y-141565000D01*
G75*
G02*
X32085000Y-141415000I0J150000D01*
G01*
X32085000Y-139665000D01*
G75*
G02*
X32235000Y-139515000I150000J0D01*
G01*
X32535000Y-139515000D01*
G75*
G02*
X32685000Y-139665000I0J-150000D01*
G01*
X32685000Y-141415000D01*
G75*
G02*
X32535000Y-141565000I-150000J0D01*
G01*
G37*
G36*
G01*
X33805000Y-141565000D02*
X33505000Y-141565000D01*
G75*
G02*
X33355000Y-141415000I0J150000D01*
G01*
X33355000Y-139665000D01*
G75*
G02*
X33505000Y-139515000I150000J0D01*
G01*
X33805000Y-139515000D01*
G75*
G02*
X33955000Y-139665000I0J-150000D01*
G01*
X33955000Y-141415000D01*
G75*
G02*
X33805000Y-141565000I-150000J0D01*
G01*
G37*
G36*
G01*
X33805000Y-132265000D02*
X33505000Y-132265000D01*
G75*
G02*
X33355000Y-132115000I0J150000D01*
G01*
X33355000Y-130365000D01*
G75*
G02*
X33505000Y-130215000I150000J0D01*
G01*
X33805000Y-130215000D01*
G75*
G02*
X33955000Y-130365000I0J-150000D01*
G01*
X33955000Y-132115000D01*
G75*
G02*
X33805000Y-132265000I-150000J0D01*
G01*
G37*
G36*
G01*
X32535000Y-132265000D02*
X32235000Y-132265000D01*
G75*
G02*
X32085000Y-132115000I0J150000D01*
G01*
X32085000Y-130365000D01*
G75*
G02*
X32235000Y-130215000I150000J0D01*
G01*
X32535000Y-130215000D01*
G75*
G02*
X32685000Y-130365000I0J-150000D01*
G01*
X32685000Y-132115000D01*
G75*
G02*
X32535000Y-132265000I-150000J0D01*
G01*
G37*
G36*
G01*
X31265000Y-132265000D02*
X30965000Y-132265000D01*
G75*
G02*
X30815000Y-132115000I0J150000D01*
G01*
X30815000Y-130365000D01*
G75*
G02*
X30965000Y-130215000I150000J0D01*
G01*
X31265000Y-130215000D01*
G75*
G02*
X31415000Y-130365000I0J-150000D01*
G01*
X31415000Y-132115000D01*
G75*
G02*
X31265000Y-132265000I-150000J0D01*
G01*
G37*
G36*
G01*
X29995000Y-132265000D02*
X29695000Y-132265000D01*
G75*
G02*
X29545000Y-132115000I0J150000D01*
G01*
X29545000Y-130365000D01*
G75*
G02*
X29695000Y-130215000I150000J0D01*
G01*
X29995000Y-130215000D01*
G75*
G02*
X30145000Y-130365000I0J-150000D01*
G01*
X30145000Y-132115000D01*
G75*
G02*
X29995000Y-132265000I-150000J0D01*
G01*
G37*
G36*
G01*
X28725000Y-132265000D02*
X28425000Y-132265000D01*
G75*
G02*
X28275000Y-132115000I0J150000D01*
G01*
X28275000Y-130365000D01*
G75*
G02*
X28425000Y-130215000I150000J0D01*
G01*
X28725000Y-130215000D01*
G75*
G02*
X28875000Y-130365000I0J-150000D01*
G01*
X28875000Y-132115000D01*
G75*
G02*
X28725000Y-132265000I-150000J0D01*
G01*
G37*
G36*
G01*
X27455000Y-132265000D02*
X27155000Y-132265000D01*
G75*
G02*
X27005000Y-132115000I0J150000D01*
G01*
X27005000Y-130365000D01*
G75*
G02*
X27155000Y-130215000I150000J0D01*
G01*
X27455000Y-130215000D01*
G75*
G02*
X27605000Y-130365000I0J-150000D01*
G01*
X27605000Y-132115000D01*
G75*
G02*
X27455000Y-132265000I-150000J0D01*
G01*
G37*
G36*
G01*
X26185000Y-132265000D02*
X25885000Y-132265000D01*
G75*
G02*
X25735000Y-132115000I0J150000D01*
G01*
X25735000Y-130365000D01*
G75*
G02*
X25885000Y-130215000I150000J0D01*
G01*
X26185000Y-130215000D01*
G75*
G02*
X26335000Y-130365000I0J-150000D01*
G01*
X26335000Y-132115000D01*
G75*
G02*
X26185000Y-132265000I-150000J0D01*
G01*
G37*
G36*
G01*
X24915000Y-132265000D02*
X24615000Y-132265000D01*
G75*
G02*
X24465000Y-132115000I0J150000D01*
G01*
X24465000Y-130365000D01*
G75*
G02*
X24615000Y-130215000I150000J0D01*
G01*
X24915000Y-130215000D01*
G75*
G02*
X25065000Y-130365000I0J-150000D01*
G01*
X25065000Y-132115000D01*
G75*
G02*
X24915000Y-132265000I-150000J0D01*
G01*
G37*
G36*
G01*
X23645000Y-132265000D02*
X23345000Y-132265000D01*
G75*
G02*
X23195000Y-132115000I0J150000D01*
G01*
X23195000Y-130365000D01*
G75*
G02*
X23345000Y-130215000I150000J0D01*
G01*
X23645000Y-130215000D01*
G75*
G02*
X23795000Y-130365000I0J-150000D01*
G01*
X23795000Y-132115000D01*
G75*
G02*
X23645000Y-132265000I-150000J0D01*
G01*
G37*
G36*
G01*
X22375000Y-132265000D02*
X22075000Y-132265000D01*
G75*
G02*
X21925000Y-132115000I0J150000D01*
G01*
X21925000Y-130365000D01*
G75*
G02*
X22075000Y-130215000I150000J0D01*
G01*
X22375000Y-130215000D01*
G75*
G02*
X22525000Y-130365000I0J-150000D01*
G01*
X22525000Y-132115000D01*
G75*
G02*
X22375000Y-132265000I-150000J0D01*
G01*
G37*
G36*
G01*
X21105000Y-132265000D02*
X20805000Y-132265000D01*
G75*
G02*
X20655000Y-132115000I0J150000D01*
G01*
X20655000Y-130365000D01*
G75*
G02*
X20805000Y-130215000I150000J0D01*
G01*
X21105000Y-130215000D01*
G75*
G02*
X21255000Y-130365000I0J-150000D01*
G01*
X21255000Y-132115000D01*
G75*
G02*
X21105000Y-132265000I-150000J0D01*
G01*
G37*
G36*
G01*
X19835000Y-132265000D02*
X19535000Y-132265000D01*
G75*
G02*
X19385000Y-132115000I0J150000D01*
G01*
X19385000Y-130365000D01*
G75*
G02*
X19535000Y-130215000I150000J0D01*
G01*
X19835000Y-130215000D01*
G75*
G02*
X19985000Y-130365000I0J-150000D01*
G01*
X19985000Y-132115000D01*
G75*
G02*
X19835000Y-132265000I-150000J0D01*
G01*
G37*
%TD*%
D16*
%TO.C,SW19*%
X21590000Y-162560000D03*
D13*
X29210000Y-177800000D03*
X21590000Y-165100000D03*
X29210000Y-175260000D03*
X21590000Y-167640000D03*
X29210000Y-172720000D03*
X21590000Y-170180000D03*
X29210000Y-170180000D03*
X21590000Y-172720000D03*
X29210000Y-167640000D03*
X21590000Y-175260000D03*
X29210000Y-165100000D03*
X21590000Y-177800000D03*
X29210000Y-162560000D03*
%TD*%
D17*
%TO.C,SW18*%
X77470000Y-53340000D03*
X83820000Y-53340000D03*
%TD*%
%TO.C,SW17*%
X77470000Y-41910000D03*
X83820000Y-41910000D03*
%TD*%
%TO.C,SW16*%
X77470000Y-30480000D03*
X83820000Y-30480000D03*
%TD*%
%TO.C,SW15*%
X64770000Y-53340000D03*
X71120000Y-53340000D03*
%TD*%
%TO.C,SW14*%
X64770000Y-41910000D03*
X71120000Y-41910000D03*
%TD*%
%TO.C,SW13*%
X64770000Y-30480000D03*
X71120000Y-30480000D03*
%TD*%
%TO.C,SW12*%
X52070000Y-53340000D03*
X58420000Y-53340000D03*
%TD*%
%TO.C,SW11*%
X52070000Y-41910000D03*
X58420000Y-41910000D03*
%TD*%
%TO.C,SW10*%
X52070000Y-30480000D03*
X58420000Y-30480000D03*
%TD*%
D16*
%TO.C,RN4*%
X44450000Y-85090000D03*
D13*
X44450000Y-87630000D03*
X44450000Y-90170000D03*
X44450000Y-92710000D03*
X44450000Y-95250000D03*
X44450000Y-97790000D03*
X44450000Y-100330000D03*
X44450000Y-102870000D03*
X44450000Y-105410000D03*
X44450000Y-107950000D03*
%TD*%
D16*
%TO.C,RN3*%
X15240000Y-182880000D03*
D13*
X15240000Y-180340000D03*
X15240000Y-177800000D03*
X15240000Y-175260000D03*
X15240000Y-172720000D03*
X15240000Y-170180000D03*
X15240000Y-167640000D03*
X15240000Y-165100000D03*
X15240000Y-162560000D03*
X15240000Y-160020000D03*
%TD*%
D16*
%TO.C,RN2*%
X44450000Y-27940000D03*
D13*
X44450000Y-30480000D03*
X44450000Y-33020000D03*
X44450000Y-35560000D03*
X44450000Y-38100000D03*
X44450000Y-40640000D03*
X44450000Y-43180000D03*
X44450000Y-45720000D03*
X44450000Y-48260000D03*
X44450000Y-50800000D03*
%TD*%
D12*
%TO.C,R1*%
X15240000Y-105410000D03*
D13*
X15240000Y-113030000D03*
%TD*%
%TO.C,U2*%
G36*
G01*
X19835000Y-86545000D02*
X19535000Y-86545000D01*
G75*
G02*
X19385000Y-86395000I0J150000D01*
G01*
X19385000Y-84645000D01*
G75*
G02*
X19535000Y-84495000I150000J0D01*
G01*
X19835000Y-84495000D01*
G75*
G02*
X19985000Y-84645000I0J-150000D01*
G01*
X19985000Y-86395000D01*
G75*
G02*
X19835000Y-86545000I-150000J0D01*
G01*
G37*
G36*
G01*
X21105000Y-86545000D02*
X20805000Y-86545000D01*
G75*
G02*
X20655000Y-86395000I0J150000D01*
G01*
X20655000Y-84645000D01*
G75*
G02*
X20805000Y-84495000I150000J0D01*
G01*
X21105000Y-84495000D01*
G75*
G02*
X21255000Y-84645000I0J-150000D01*
G01*
X21255000Y-86395000D01*
G75*
G02*
X21105000Y-86545000I-150000J0D01*
G01*
G37*
G36*
G01*
X22375000Y-86545000D02*
X22075000Y-86545000D01*
G75*
G02*
X21925000Y-86395000I0J150000D01*
G01*
X21925000Y-84645000D01*
G75*
G02*
X22075000Y-84495000I150000J0D01*
G01*
X22375000Y-84495000D01*
G75*
G02*
X22525000Y-84645000I0J-150000D01*
G01*
X22525000Y-86395000D01*
G75*
G02*
X22375000Y-86545000I-150000J0D01*
G01*
G37*
G36*
G01*
X23645000Y-86545000D02*
X23345000Y-86545000D01*
G75*
G02*
X23195000Y-86395000I0J150000D01*
G01*
X23195000Y-84645000D01*
G75*
G02*
X23345000Y-84495000I150000J0D01*
G01*
X23645000Y-84495000D01*
G75*
G02*
X23795000Y-84645000I0J-150000D01*
G01*
X23795000Y-86395000D01*
G75*
G02*
X23645000Y-86545000I-150000J0D01*
G01*
G37*
G36*
G01*
X24915000Y-86545000D02*
X24615000Y-86545000D01*
G75*
G02*
X24465000Y-86395000I0J150000D01*
G01*
X24465000Y-84645000D01*
G75*
G02*
X24615000Y-84495000I150000J0D01*
G01*
X24915000Y-84495000D01*
G75*
G02*
X25065000Y-84645000I0J-150000D01*
G01*
X25065000Y-86395000D01*
G75*
G02*
X24915000Y-86545000I-150000J0D01*
G01*
G37*
G36*
G01*
X26185000Y-86545000D02*
X25885000Y-86545000D01*
G75*
G02*
X25735000Y-86395000I0J150000D01*
G01*
X25735000Y-84645000D01*
G75*
G02*
X25885000Y-84495000I150000J0D01*
G01*
X26185000Y-84495000D01*
G75*
G02*
X26335000Y-84645000I0J-150000D01*
G01*
X26335000Y-86395000D01*
G75*
G02*
X26185000Y-86545000I-150000J0D01*
G01*
G37*
G36*
G01*
X27455000Y-86545000D02*
X27155000Y-86545000D01*
G75*
G02*
X27005000Y-86395000I0J150000D01*
G01*
X27005000Y-84645000D01*
G75*
G02*
X27155000Y-84495000I150000J0D01*
G01*
X27455000Y-84495000D01*
G75*
G02*
X27605000Y-84645000I0J-150000D01*
G01*
X27605000Y-86395000D01*
G75*
G02*
X27455000Y-86545000I-150000J0D01*
G01*
G37*
G36*
G01*
X28725000Y-86545000D02*
X28425000Y-86545000D01*
G75*
G02*
X28275000Y-86395000I0J150000D01*
G01*
X28275000Y-84645000D01*
G75*
G02*
X28425000Y-84495000I150000J0D01*
G01*
X28725000Y-84495000D01*
G75*
G02*
X28875000Y-84645000I0J-150000D01*
G01*
X28875000Y-86395000D01*
G75*
G02*
X28725000Y-86545000I-150000J0D01*
G01*
G37*
G36*
G01*
X29995000Y-86545000D02*
X29695000Y-86545000D01*
G75*
G02*
X29545000Y-86395000I0J150000D01*
G01*
X29545000Y-84645000D01*
G75*
G02*
X29695000Y-84495000I150000J0D01*
G01*
X29995000Y-84495000D01*
G75*
G02*
X30145000Y-84645000I0J-150000D01*
G01*
X30145000Y-86395000D01*
G75*
G02*
X29995000Y-86545000I-150000J0D01*
G01*
G37*
G36*
G01*
X31265000Y-86545000D02*
X30965000Y-86545000D01*
G75*
G02*
X30815000Y-86395000I0J150000D01*
G01*
X30815000Y-84645000D01*
G75*
G02*
X30965000Y-84495000I150000J0D01*
G01*
X31265000Y-84495000D01*
G75*
G02*
X31415000Y-84645000I0J-150000D01*
G01*
X31415000Y-86395000D01*
G75*
G02*
X31265000Y-86545000I-150000J0D01*
G01*
G37*
G36*
G01*
X32535000Y-86545000D02*
X32235000Y-86545000D01*
G75*
G02*
X32085000Y-86395000I0J150000D01*
G01*
X32085000Y-84645000D01*
G75*
G02*
X32235000Y-84495000I150000J0D01*
G01*
X32535000Y-84495000D01*
G75*
G02*
X32685000Y-84645000I0J-150000D01*
G01*
X32685000Y-86395000D01*
G75*
G02*
X32535000Y-86545000I-150000J0D01*
G01*
G37*
G36*
G01*
X33805000Y-86545000D02*
X33505000Y-86545000D01*
G75*
G02*
X33355000Y-86395000I0J150000D01*
G01*
X33355000Y-84645000D01*
G75*
G02*
X33505000Y-84495000I150000J0D01*
G01*
X33805000Y-84495000D01*
G75*
G02*
X33955000Y-84645000I0J-150000D01*
G01*
X33955000Y-86395000D01*
G75*
G02*
X33805000Y-86545000I-150000J0D01*
G01*
G37*
G36*
G01*
X33805000Y-95845000D02*
X33505000Y-95845000D01*
G75*
G02*
X33355000Y-95695000I0J150000D01*
G01*
X33355000Y-93945000D01*
G75*
G02*
X33505000Y-93795000I150000J0D01*
G01*
X33805000Y-93795000D01*
G75*
G02*
X33955000Y-93945000I0J-150000D01*
G01*
X33955000Y-95695000D01*
G75*
G02*
X33805000Y-95845000I-150000J0D01*
G01*
G37*
G36*
G01*
X32535000Y-95845000D02*
X32235000Y-95845000D01*
G75*
G02*
X32085000Y-95695000I0J150000D01*
G01*
X32085000Y-93945000D01*
G75*
G02*
X32235000Y-93795000I150000J0D01*
G01*
X32535000Y-93795000D01*
G75*
G02*
X32685000Y-93945000I0J-150000D01*
G01*
X32685000Y-95695000D01*
G75*
G02*
X32535000Y-95845000I-150000J0D01*
G01*
G37*
G36*
G01*
X31265000Y-95845000D02*
X30965000Y-95845000D01*
G75*
G02*
X30815000Y-95695000I0J150000D01*
G01*
X30815000Y-93945000D01*
G75*
G02*
X30965000Y-93795000I150000J0D01*
G01*
X31265000Y-93795000D01*
G75*
G02*
X31415000Y-93945000I0J-150000D01*
G01*
X31415000Y-95695000D01*
G75*
G02*
X31265000Y-95845000I-150000J0D01*
G01*
G37*
G36*
G01*
X29995000Y-95845000D02*
X29695000Y-95845000D01*
G75*
G02*
X29545000Y-95695000I0J150000D01*
G01*
X29545000Y-93945000D01*
G75*
G02*
X29695000Y-93795000I150000J0D01*
G01*
X29995000Y-93795000D01*
G75*
G02*
X30145000Y-93945000I0J-150000D01*
G01*
X30145000Y-95695000D01*
G75*
G02*
X29995000Y-95845000I-150000J0D01*
G01*
G37*
G36*
G01*
X28725000Y-95845000D02*
X28425000Y-95845000D01*
G75*
G02*
X28275000Y-95695000I0J150000D01*
G01*
X28275000Y-93945000D01*
G75*
G02*
X28425000Y-93795000I150000J0D01*
G01*
X28725000Y-93795000D01*
G75*
G02*
X28875000Y-93945000I0J-150000D01*
G01*
X28875000Y-95695000D01*
G75*
G02*
X28725000Y-95845000I-150000J0D01*
G01*
G37*
G36*
G01*
X27455000Y-95845000D02*
X27155000Y-95845000D01*
G75*
G02*
X27005000Y-95695000I0J150000D01*
G01*
X27005000Y-93945000D01*
G75*
G02*
X27155000Y-93795000I150000J0D01*
G01*
X27455000Y-93795000D01*
G75*
G02*
X27605000Y-93945000I0J-150000D01*
G01*
X27605000Y-95695000D01*
G75*
G02*
X27455000Y-95845000I-150000J0D01*
G01*
G37*
G36*
G01*
X26185000Y-95845000D02*
X25885000Y-95845000D01*
G75*
G02*
X25735000Y-95695000I0J150000D01*
G01*
X25735000Y-93945000D01*
G75*
G02*
X25885000Y-93795000I150000J0D01*
G01*
X26185000Y-93795000D01*
G75*
G02*
X26335000Y-93945000I0J-150000D01*
G01*
X26335000Y-95695000D01*
G75*
G02*
X26185000Y-95845000I-150000J0D01*
G01*
G37*
G36*
G01*
X24915000Y-95845000D02*
X24615000Y-95845000D01*
G75*
G02*
X24465000Y-95695000I0J150000D01*
G01*
X24465000Y-93945000D01*
G75*
G02*
X24615000Y-93795000I150000J0D01*
G01*
X24915000Y-93795000D01*
G75*
G02*
X25065000Y-93945000I0J-150000D01*
G01*
X25065000Y-95695000D01*
G75*
G02*
X24915000Y-95845000I-150000J0D01*
G01*
G37*
G36*
G01*
X23645000Y-95845000D02*
X23345000Y-95845000D01*
G75*
G02*
X23195000Y-95695000I0J150000D01*
G01*
X23195000Y-93945000D01*
G75*
G02*
X23345000Y-93795000I150000J0D01*
G01*
X23645000Y-93795000D01*
G75*
G02*
X23795000Y-93945000I0J-150000D01*
G01*
X23795000Y-95695000D01*
G75*
G02*
X23645000Y-95845000I-150000J0D01*
G01*
G37*
G36*
G01*
X22375000Y-95845000D02*
X22075000Y-95845000D01*
G75*
G02*
X21925000Y-95695000I0J150000D01*
G01*
X21925000Y-93945000D01*
G75*
G02*
X22075000Y-93795000I150000J0D01*
G01*
X22375000Y-93795000D01*
G75*
G02*
X22525000Y-93945000I0J-150000D01*
G01*
X22525000Y-95695000D01*
G75*
G02*
X22375000Y-95845000I-150000J0D01*
G01*
G37*
G36*
G01*
X21105000Y-95845000D02*
X20805000Y-95845000D01*
G75*
G02*
X20655000Y-95695000I0J150000D01*
G01*
X20655000Y-93945000D01*
G75*
G02*
X20805000Y-93795000I150000J0D01*
G01*
X21105000Y-93795000D01*
G75*
G02*
X21255000Y-93945000I0J-150000D01*
G01*
X21255000Y-95695000D01*
G75*
G02*
X21105000Y-95845000I-150000J0D01*
G01*
G37*
G36*
G01*
X19835000Y-95845000D02*
X19535000Y-95845000D01*
G75*
G02*
X19385000Y-95695000I0J150000D01*
G01*
X19385000Y-93945000D01*
G75*
G02*
X19535000Y-93795000I150000J0D01*
G01*
X19835000Y-93795000D01*
G75*
G02*
X19985000Y-93945000I0J-150000D01*
G01*
X19985000Y-95695000D01*
G75*
G02*
X19835000Y-95845000I-150000J0D01*
G01*
G37*
%TD*%
D15*
%TO.C,U1*%
X15240000Y-13970000D03*
X15240000Y-16510000D03*
D14*
X15240000Y-19050000D03*
D15*
X15240000Y-21590000D03*
X15240000Y-24130000D03*
X15240000Y-26670000D03*
X15240000Y-29210000D03*
D14*
X15240000Y-31750000D03*
D15*
X15240000Y-34290000D03*
X15240000Y-36830000D03*
X15240000Y-39370000D03*
X15240000Y-41910000D03*
D14*
X15240000Y-44450000D03*
D15*
X15240000Y-46990000D03*
X15240000Y-49530000D03*
X15240000Y-52070000D03*
X15240000Y-54610000D03*
D14*
X15240000Y-57150000D03*
D15*
X15240000Y-59690000D03*
X15240000Y-62230000D03*
X33020000Y-62230000D03*
X33020000Y-59690000D03*
D14*
X33020000Y-57150000D03*
D15*
X33020000Y-54610000D03*
X33020000Y-52070000D03*
X33020000Y-49530000D03*
X33020000Y-46990000D03*
D14*
X33020000Y-44450000D03*
D15*
X33020000Y-41910000D03*
X33020000Y-39370000D03*
X33020000Y-36830000D03*
X33020000Y-34290000D03*
D14*
X33020000Y-31750000D03*
D15*
X33020000Y-29210000D03*
X33020000Y-26670000D03*
X33020000Y-24130000D03*
X33020000Y-21590000D03*
D14*
X33020000Y-19050000D03*
D15*
X33020000Y-16510000D03*
X33020000Y-13970000D03*
D18*
X14340000Y-13970000D03*
X14340000Y-16510000D03*
X14340000Y-19050000D03*
X14340000Y-21590000D03*
X14340000Y-24130000D03*
X14340000Y-26670000D03*
X14340000Y-29210000D03*
X14340000Y-31750000D03*
X14340000Y-34290000D03*
X14340000Y-36830000D03*
X14340000Y-39370000D03*
X14340000Y-41910000D03*
X14340000Y-44450000D03*
X14340000Y-46990000D03*
X14340000Y-49530000D03*
X14340000Y-52070000D03*
X14340000Y-54610000D03*
X14340000Y-57150000D03*
X14340000Y-59690000D03*
X14340000Y-62230000D03*
X33920000Y-13970000D03*
X33920000Y-16510000D03*
X33920000Y-19050000D03*
X33920000Y-21590000D03*
X33920000Y-24130000D03*
X33920000Y-26670000D03*
X33920000Y-29210000D03*
X33920000Y-31750000D03*
X33920000Y-34290000D03*
X33920000Y-36830000D03*
X33920000Y-39370000D03*
X33920000Y-41910000D03*
X33920000Y-44450000D03*
X33920000Y-46990000D03*
X33920000Y-49530000D03*
X33920000Y-52070000D03*
X33920000Y-54610000D03*
X33920000Y-57150000D03*
X33920000Y-59690000D03*
X33920000Y-62230000D03*
D19*
X21405000Y-14100000D03*
X26855000Y-14100000D03*
D20*
X21705000Y-17130000D03*
X26555000Y-17130000D03*
D21*
X21590000Y-62900000D03*
D15*
X21590000Y-62000000D03*
D21*
X24130000Y-62900000D03*
D14*
X24130000Y-62000000D03*
D21*
X26670000Y-62900000D03*
D15*
X26670000Y-62000000D03*
%TD*%
D17*
%TO.C,SW9*%
X77470000Y-170180000D03*
X83820000Y-170180000D03*
%TD*%
%TO.C,SW8*%
X77470000Y-158750000D03*
X83820000Y-158750000D03*
%TD*%
%TO.C,SW7*%
X83820000Y-147320000D03*
X77470000Y-147320000D03*
%TD*%
%TO.C,SW6*%
X64770000Y-170180000D03*
X71120000Y-170180000D03*
%TD*%
%TO.C,SW5*%
X64770000Y-158750000D03*
X71120000Y-158750000D03*
%TD*%
%TO.C,SW4*%
X64770000Y-147320000D03*
X71120000Y-147320000D03*
%TD*%
%TO.C,SW3*%
X52070000Y-170180000D03*
X58420000Y-170180000D03*
%TD*%
%TO.C,SW2*%
X52070000Y-158750000D03*
X58420000Y-158750000D03*
%TD*%
%TO.C,SW1*%
X52070000Y-147320000D03*
X58420000Y-147320000D03*
%TD*%
D22*
%TO.C,RV2*%
X48260000Y-180340000D03*
D23*
X48260000Y-183840000D03*
X81260000Y-180340000D03*
D24*
X53360000Y-177890000D03*
X76160000Y-177890000D03*
X52160000Y-186290000D03*
X77360000Y-186290000D03*
%TD*%
D22*
%TO.C,RV1*%
X48260000Y-16510000D03*
D23*
X48260000Y-20010000D03*
X81260000Y-16510000D03*
D24*
X53360000Y-14060000D03*
X76160000Y-14060000D03*
X52160000Y-22460000D03*
X77360000Y-22460000D03*
%TD*%
D16*
%TO.C,RN1*%
X44450000Y-144780000D03*
D13*
X44450000Y-147320000D03*
X44450000Y-149860000D03*
X44450000Y-152400000D03*
X44450000Y-154940000D03*
X44450000Y-157480000D03*
X44450000Y-160020000D03*
X44450000Y-162560000D03*
X44450000Y-165100000D03*
X44450000Y-167640000D03*
%TD*%
D25*
%TO.C,LS1*%
X20320000Y-154940000D03*
D17*
X20320000Y-147340000D03*
%TD*%
D26*
%TO.C,J1*%
X22400000Y-81000000D03*
D27*
X19600000Y-76200000D03*
D28*
X25400000Y-76200000D03*
%TD*%
D29*
%TO.C,D1*%
X31750000Y-72390000D03*
D30*
X31750000Y-80010000D03*
%TD*%
M02*
