M48
; DRILL file {KiCad (5.1.10)-1} date 07/09/21 12:12:17
; FORMAT={-:-/ absolute / inch / decimal}
; #@! TF.CreationDate,2021-07-09T12:12:17-04:00
; #@! TF.GenerationSoftware,Kicad,Pcbnew,(5.1.10)-1
; #@! TF.FileFunction,Plated,1,2,PTH
FMAT,2
INCH
T1C0.0157
T2C0.0300
T3C0.0315
T4C0.0354
T5C0.0394
T6C0.0402
T7C0.0433
T8C0.0472
T9C0.0669
T10C0.0787
%
G90
G05
T1
X3.4669Y-3.9814
X3.5519Y-3.9814
X3.6219Y-3.7314
X3.6719Y-3.6714
X3.6819Y-3.9864
X3.6819Y-4.0964
X3.8269Y-3.1114
X3.8869Y-3.9664
X3.9169Y-2.9764
X3.9319Y-3.6714
X3.9469Y-4.0014
X4.0119Y-3.7214
X4.5469Y-4.4464
X4.5919Y-4.4764
X4.7669Y-4.9964
X4.7869Y-4.6914
X4.8769Y-5.0664
X4.9719Y-4.2364
X4.9969Y-4.3364
X5.0069Y-2.4814
X5.1069Y-4.4914
X5.1119Y-4.5614
X5.2819Y-4.7414
X5.3169Y-4.7914
X5.3219Y-4.6664
X5.3769Y-4.7014
X5.3919Y-3.9564
X5.4269Y-4.7014
X5.4319Y-3.9214
X5.4569Y-4.0814
X5.4769Y-4.2364
X5.4769Y-4.7414
X5.4869Y-4.0514
X5.5269Y-4.0164
X5.5669Y-3.9664
X5.6539Y-4.7383
X5.6739Y-4.6883
X5.6819Y-3.5514
X5.7169Y-3.1464
X5.7669Y-2.6564
X5.7719Y-3.9114
X5.8219Y-3.9764
X5.8519Y-4.5114
X5.8519Y-4.6864
X5.8669Y-3.9914
X5.8719Y-4.7264
X5.8819Y-4.7814
X6.0069Y-3.9264
X6.0269Y-4.2414
X6.0269Y-4.7414
X6.1269Y-3.9564
X6.1769Y-2.8914
X6.1892Y-3.9537
X6.1919Y-3.0764
X6.2269Y-4.8064
X6.3169Y-2.2664
X6.3919Y-4.7514
X6.4069Y-4.0164
X6.4419Y-4.5514
X6.4969Y-4.4964
X6.5119Y-4.6564
X6.5369Y-4.5464
X6.5619Y-4.6564
X6.6769Y-3.9814
X6.6819Y-4.0764
X6.7469Y-2.3864
X6.7669Y-4.7914
X6.9219Y-4.6414
X7.3019Y-4.2414
X7.3019Y-4.6914
X7.3669Y-4.6914
X7.5469Y-3.8464
X7.6569Y-3.5964
X7.8569Y-3.5964
X7.8769Y-4.6014
X8.4269Y-3.8314
X8.4269Y-4.0114
X8.6819Y-3.9664
T2
X5.1806Y-2.7633
X5.1806Y-2.8633
X5.1806Y-2.9633
X5.1806Y-3.0633
X6.9806Y-2.7633
X6.9806Y-2.8633
X6.9806Y-2.9633
X6.9806Y-3.0633
T3
X2.3806Y-3.8133
X2.4806Y-3.8133
X2.5806Y-3.8133
X2.6806Y-3.8133
X2.7806Y-3.8133
X2.8806Y-3.8133
X2.9806Y-3.8133
X3.0806Y-3.8133
X3.1806Y-3.8133
X3.2806Y-3.8133
X4.6806Y-4.223
X4.6806Y-4.3214
X4.8069Y-3.5649
X4.8069Y-3.8649
X4.9569Y-3.5649
X4.9569Y-3.8649
X5.1069Y-3.5649
X5.1069Y-3.8649
X5.6306Y-3.8133
X5.7306Y-3.8133
X5.8306Y-3.8133
X5.9306Y-3.8133
X6.0306Y-3.8133
X6.1077Y-4.9791
X6.1306Y-3.8133
X6.2306Y-3.8133
X6.3306Y-3.8133
X6.4077Y-4.9791
X6.4306Y-3.8133
X6.5306Y-3.8133
X6.5577Y-4.9791
X6.8577Y-4.9791
X7.4569Y-3.7464
X7.4569Y-4.0464
X7.6569Y-3.7464
X7.6569Y-4.0464
X7.8569Y-3.7464
X7.8569Y-4.0464
X8.2369Y-4.2814
X8.2369Y-4.3814
X8.2369Y-4.4814
X8.2369Y-4.5814
X8.2369Y-4.6814
X8.2369Y-4.7814
X8.2369Y-4.8814
X8.2369Y-4.9814
X8.2369Y-5.0814
X8.2369Y-5.1814
X8.455Y-4.485
X8.455Y-4.585
X8.455Y-4.685
X8.455Y-4.785
X8.455Y-4.885
X8.455Y-4.985
X8.455Y-5.085
X8.6806Y-3.8133
X8.755Y-4.485
X8.755Y-4.585
X8.755Y-4.685
X8.755Y-4.785
X8.755Y-4.885
X8.755Y-4.985
X8.755Y-5.085
X8.7806Y-3.8133
X8.8806Y-3.8133
X8.9806Y-3.8133
X9.0806Y-3.8133
X9.1806Y-3.8133
X9.2806Y-3.8133
X9.3806Y-3.8133
X9.4806Y-3.8133
X9.5806Y-3.8133
T4
X5.5806Y-2.2633
X5.5806Y-2.3633
X5.5806Y-2.4633
X5.5806Y-2.5633
X5.5806Y-2.7633
X5.5806Y-2.8633
X5.5806Y-2.9633
X5.5806Y-3.0633
X5.5806Y-3.2633
X5.5806Y-3.3633
X5.5806Y-3.4633
X5.5806Y-3.5633
X6.0806Y-2.2633
X6.0806Y-2.3633
X6.0806Y-2.4633
X6.0806Y-2.5633
X6.0806Y-2.7633
X6.0806Y-2.8633
X6.0806Y-2.9633
X6.0806Y-3.0633
X6.0806Y-3.2633
X6.0806Y-3.3633
X6.0806Y-3.4633
X6.0806Y-3.5633
X6.5806Y-2.2633
X6.5806Y-2.3633
X6.5806Y-2.4633
X6.5806Y-2.5633
X6.5806Y-2.7633
X6.5806Y-2.8633
X6.5806Y-2.9633
X6.5806Y-3.0633
X6.5806Y-3.2633
X6.5806Y-3.3633
X6.5806Y-3.4633
X6.5806Y-3.5633
T5
X5.1806Y-4.9633
X5.2806Y-4.9633
X5.3806Y-4.9633
X5.4806Y-4.9633
X5.5806Y-4.9633
X5.6806Y-4.9633
X7.4569Y-4.9464
X7.7561Y-4.9464
X9.0569Y-4.2495
X9.0569Y-4.4464
X9.2538Y-4.348
T6
X2.3306Y-4.2633
X2.3306Y-4.9633
X2.4306Y-4.2633
X2.4306Y-4.9633
X2.5306Y-4.2633
X2.5306Y-4.9633
X2.6306Y-4.2633
X2.6306Y-4.9633
X2.7306Y-4.2633
X2.7306Y-4.9633
X2.8306Y-4.2633
X2.8306Y-4.9633
X2.9306Y-4.2633
X2.9306Y-4.9633
X3.0306Y-4.2633
X3.0306Y-4.9633
X3.1306Y-4.2633
X3.1306Y-4.9633
X3.2306Y-4.2633
X3.2306Y-4.9633
X3.3306Y-4.2633
X3.3306Y-4.9633
X3.4306Y-4.2633
X3.4306Y-4.9633
X3.5306Y-4.2633
X3.5306Y-4.9633
X3.6306Y-4.2633
X3.6306Y-4.9633
X3.7306Y-4.2633
X3.7306Y-4.9633
X3.8306Y-4.2633
X3.8306Y-4.9633
X3.9306Y-4.2633
X3.9306Y-4.9633
X4.0306Y-4.2633
X4.0306Y-4.9633
X4.1306Y-4.2633
X4.1306Y-4.9633
X4.2215Y-4.5133
X4.2215Y-4.6133
X4.2215Y-4.7133
X4.2306Y-4.2633
X4.2306Y-4.9633
T7
X2.4706Y-2.2843
X2.4706Y-2.4873
X2.4706Y-2.7843
X2.4706Y-2.9873
X2.4706Y-3.2843
X2.4706Y-3.4873
X2.9206Y-2.2843
X2.9206Y-2.4873
X2.9206Y-2.7843
X2.9206Y-2.9873
X2.9206Y-3.2843
X2.9206Y-3.4873
X3.3706Y-2.2843
X3.3706Y-2.4873
X3.3706Y-2.7843
X3.3706Y-2.9873
X3.3706Y-3.2843
X3.3706Y-3.4873
X4.4619Y-4.5614
X4.4619Y-4.8614
X8.7706Y-2.2843
X8.7706Y-2.4873
X8.7706Y-2.7843
X8.7706Y-2.9873
X8.7706Y-3.2843
X8.7706Y-3.4873
X9.2206Y-2.2843
X9.2206Y-2.4873
X9.2206Y-2.7843
X9.2206Y-2.9873
X9.2206Y-3.2843
X9.2206Y-3.4873
X9.6706Y-2.2843
X9.6706Y-2.4873
X9.6706Y-2.7843
X9.6706Y-2.9873
X9.6706Y-3.2843
X9.6706Y-3.4873
T8
X3.7306Y-2.2641
X3.7306Y-3.5633
X3.8683Y-3.5633
X8.2806Y-2.2641
X8.2806Y-3.5633
X8.4183Y-3.5633
T9
X3.6341Y-2.4649
X3.6341Y-3.3625
X3.9648Y-2.4176
X3.9648Y-3.4098
X8.1841Y-2.4649
X8.1841Y-3.3625
X8.5148Y-2.4176
X8.5148Y-3.4098
T10
X4.2093Y-2.431
X4.2093Y-3.3956
X5.1542Y-2.431
X5.1542Y-3.3956
X7.0069Y-2.431
X7.0069Y-3.3956
X7.9518Y-2.431
X7.9518Y-3.3956
T3
G00X4.7294Y-4.5633
M15
G01X4.8317Y-4.5633
M16
G05
G00X4.7372Y-4.7917
M15
G01X4.8239Y-4.7917
M16
G05
G00X4.9695Y-4.7247
M15
G01X4.9695Y-4.6381
M16
G05
T0
M30
