%TF.GenerationSoftware,KiCad,Pcbnew,(5.1.10)-1*%
%TF.CreationDate,2021-07-06T19:30:30-04:00*%
%TF.ProjectId,RICM_pico,5249434d-5f70-4696-936f-2e6b69636164,rev?*%
%TF.SameCoordinates,Original*%
%TF.FileFunction,Copper,L1,Top*%
%TF.FilePolarity,Positive*%
%FSLAX46Y46*%
G04 Gerber Fmt 4.6, Leading zero omitted, Abs format (unit mm)*
G04 Created by KiCad (PCBNEW (5.1.10)-1) date 2021-07-06 19:30:30*
%MOMM*%
%LPD*%
G01*
G04 APERTURE LIST*
%TA.AperFunction,ComponentPad*%
%ADD10R,1.800000X1.800000*%
%TD*%
%TA.AperFunction,ComponentPad*%
%ADD11C,1.800000*%
%TD*%
%TA.AperFunction,ComponentPad*%
%ADD12C,1.600000*%
%TD*%
%TA.AperFunction,ComponentPad*%
%ADD13O,1.600000X1.600000*%
%TD*%
%TA.AperFunction,ComponentPad*%
%ADD14R,1.700000X1.700000*%
%TD*%
%TA.AperFunction,ComponentPad*%
%ADD15O,1.700000X1.700000*%
%TD*%
%TA.AperFunction,ComponentPad*%
%ADD16R,1.600000X1.600000*%
%TD*%
%TA.AperFunction,ComponentPad*%
%ADD17C,2.000000*%
%TD*%
%TA.AperFunction,SMDPad,CuDef*%
%ADD18R,3.500000X1.700000*%
%TD*%
%TA.AperFunction,SMDPad,CuDef*%
%ADD19R,1.700000X3.500000*%
%TD*%
%TA.AperFunction,ComponentPad*%
%ADD20R,1.750000X1.750000*%
%TD*%
%TA.AperFunction,ComponentPad*%
%ADD21C,1.750000*%
%TD*%
%TA.AperFunction,ComponentPad*%
%ADD22C,2.700000*%
%TD*%
%TA.AperFunction,ComponentPad*%
%ADD23R,2.000000X2.000000*%
%TD*%
%TA.AperFunction,ComponentPad*%
%ADD24O,4.000000X1.800000*%
%TD*%
%TA.AperFunction,ComponentPad*%
%ADD25O,1.800000X4.000000*%
%TD*%
%TA.AperFunction,ComponentPad*%
%ADD26R,1.800000X4.400000*%
%TD*%
%TA.AperFunction,ComponentPad*%
%ADD27R,2.200000X2.200000*%
%TD*%
%TA.AperFunction,ComponentPad*%
%ADD28O,2.200000X2.200000*%
%TD*%
%TA.AperFunction,ViaPad*%
%ADD29C,0.800000*%
%TD*%
%TA.AperFunction,Conductor*%
%ADD30C,0.250000*%
%TD*%
G04 APERTURE END LIST*
D10*
%TO.P,D10,1*%
%TO.N,Net-(D10-Pad1)*%
X78740000Y-109220000D03*
D11*
%TO.P,D10,3*%
%TO.N,Net-(D10-Pad3)*%
X81280000Y-109220000D03*
%TO.P,D10,4*%
%TO.N,Net-(D10-Pad4)*%
X83820000Y-109220000D03*
%TO.P,D10,2*%
%TO.N,Net-(D10-Pad2)*%
X76200000Y-109220000D03*
%TD*%
D10*
%TO.P,D9,1*%
%TO.N,Net-(D9-Pad1)*%
X66040000Y-109220000D03*
D11*
%TO.P,D9,3*%
%TO.N,Net-(D9-Pad3)*%
X68580000Y-109220000D03*
%TO.P,D9,4*%
%TO.N,Net-(D9-Pad4)*%
X71120000Y-109220000D03*
%TO.P,D9,2*%
%TO.N,Net-(D9-Pad2)*%
X63500000Y-109220000D03*
%TD*%
D10*
%TO.P,D8,1*%
%TO.N,Net-(D8-Pad1)*%
X53340000Y-109220000D03*
D11*
%TO.P,D8,3*%
%TO.N,Net-(D8-Pad3)*%
X55880000Y-109220000D03*
%TO.P,D8,4*%
%TO.N,Net-(D8-Pad4)*%
X58420000Y-109220000D03*
%TO.P,D8,2*%
%TO.N,Net-(D8-Pad2)*%
X50800000Y-109220000D03*
%TD*%
D10*
%TO.P,D7,1*%
%TO.N,Net-(D7-Pad1)*%
X78740000Y-96520000D03*
D11*
%TO.P,D7,3*%
%TO.N,Net-(D7-Pad3)*%
X81280000Y-96520000D03*
%TO.P,D7,4*%
%TO.N,Net-(D7-Pad4)*%
X83820000Y-96520000D03*
%TO.P,D7,2*%
%TO.N,Net-(D7-Pad2)*%
X76200000Y-96520000D03*
%TD*%
D10*
%TO.P,D6,1*%
%TO.N,Net-(D6-Pad1)*%
X66040000Y-96520000D03*
D11*
%TO.P,D6,3*%
%TO.N,Net-(D6-Pad3)*%
X68580000Y-96520000D03*
%TO.P,D6,4*%
%TO.N,Net-(D6-Pad4)*%
X71120000Y-96520000D03*
%TO.P,D6,2*%
%TO.N,Net-(D6-Pad2)*%
X63500000Y-96520000D03*
%TD*%
D10*
%TO.P,D5,1*%
%TO.N,Net-(D5-Pad1)*%
X53340000Y-96520000D03*
D11*
%TO.P,D5,3*%
%TO.N,Net-(D5-Pad3)*%
X55880000Y-96520000D03*
%TO.P,D5,4*%
%TO.N,Net-(D5-Pad4)*%
X58420000Y-96520000D03*
%TO.P,D5,2*%
%TO.N,Net-(D5-Pad2)*%
X50800000Y-96520000D03*
%TD*%
D10*
%TO.P,D4,1*%
%TO.N,Net-(D4-Pad1)*%
X78740000Y-83820000D03*
D11*
%TO.P,D4,3*%
%TO.N,Net-(D4-Pad3)*%
X81280000Y-83820000D03*
%TO.P,D4,4*%
%TO.N,Net-(D4-Pad4)*%
X83820000Y-83820000D03*
%TO.P,D4,2*%
%TO.N,Net-(D4-Pad2)*%
X76200000Y-83820000D03*
%TD*%
D10*
%TO.P,D3,1*%
%TO.N,Net-(D3-Pad1)*%
X66040000Y-83820000D03*
D11*
%TO.P,D3,3*%
%TO.N,Net-(D3-Pad3)*%
X68580000Y-83820000D03*
%TO.P,D3,4*%
%TO.N,Net-(D3-Pad4)*%
X71120000Y-83820000D03*
%TO.P,D3,2*%
%TO.N,Net-(D3-Pad2)*%
X63500000Y-83820000D03*
%TD*%
D10*
%TO.P,D2,1*%
%TO.N,Net-(D2-Pad1)*%
X53340000Y-83820000D03*
D11*
%TO.P,D2,3*%
%TO.N,Net-(D2-Pad3)*%
X55880000Y-83820000D03*
%TO.P,D2,4*%
%TO.N,Net-(D2-Pad4)*%
X58420000Y-83820000D03*
%TO.P,D2,2*%
%TO.N,Net-(D2-Pad2)*%
X50800000Y-83820000D03*
%TD*%
%TO.P,U5,1*%
%TO.N,+5V*%
%TA.AperFunction,SMDPad,CuDef*%
G36*
G01*
X19835000Y-126325000D02*
X19535000Y-126325000D01*
G75*
G02*
X19385000Y-126175000I0J150000D01*
G01*
X19385000Y-124425000D01*
G75*
G02*
X19535000Y-124275000I150000J0D01*
G01*
X19835000Y-124275000D01*
G75*
G02*
X19985000Y-124425000I0J-150000D01*
G01*
X19985000Y-126175000D01*
G75*
G02*
X19835000Y-126325000I-150000J0D01*
G01*
G37*
%TD.AperFunction*%
%TO.P,U5,2*%
%TO.N,Earth*%
%TA.AperFunction,SMDPad,CuDef*%
G36*
G01*
X21105000Y-126325000D02*
X20805000Y-126325000D01*
G75*
G02*
X20655000Y-126175000I0J150000D01*
G01*
X20655000Y-124425000D01*
G75*
G02*
X20805000Y-124275000I150000J0D01*
G01*
X21105000Y-124275000D01*
G75*
G02*
X21255000Y-124425000I0J-150000D01*
G01*
X21255000Y-126175000D01*
G75*
G02*
X21105000Y-126325000I-150000J0D01*
G01*
G37*
%TD.AperFunction*%
%TO.P,U5,3*%
%TA.AperFunction,SMDPad,CuDef*%
G36*
G01*
X22375000Y-126325000D02*
X22075000Y-126325000D01*
G75*
G02*
X21925000Y-126175000I0J150000D01*
G01*
X21925000Y-124425000D01*
G75*
G02*
X22075000Y-124275000I150000J0D01*
G01*
X22375000Y-124275000D01*
G75*
G02*
X22525000Y-124425000I0J-150000D01*
G01*
X22525000Y-126175000D01*
G75*
G02*
X22375000Y-126325000I-150000J0D01*
G01*
G37*
%TD.AperFunction*%
%TO.P,U5,4*%
%TO.N,Net-(U5-Pad4)*%
%TA.AperFunction,SMDPad,CuDef*%
G36*
G01*
X23645000Y-126325000D02*
X23345000Y-126325000D01*
G75*
G02*
X23195000Y-126175000I0J150000D01*
G01*
X23195000Y-124425000D01*
G75*
G02*
X23345000Y-124275000I150000J0D01*
G01*
X23645000Y-124275000D01*
G75*
G02*
X23795000Y-124425000I0J-150000D01*
G01*
X23795000Y-126175000D01*
G75*
G02*
X23645000Y-126325000I-150000J0D01*
G01*
G37*
%TD.AperFunction*%
%TO.P,U5,5*%
%TO.N,Net-(U5-Pad5)*%
%TA.AperFunction,SMDPad,CuDef*%
G36*
G01*
X24915000Y-126325000D02*
X24615000Y-126325000D01*
G75*
G02*
X24465000Y-126175000I0J150000D01*
G01*
X24465000Y-124425000D01*
G75*
G02*
X24615000Y-124275000I150000J0D01*
G01*
X24915000Y-124275000D01*
G75*
G02*
X25065000Y-124425000I0J-150000D01*
G01*
X25065000Y-126175000D01*
G75*
G02*
X24915000Y-126325000I-150000J0D01*
G01*
G37*
%TD.AperFunction*%
%TO.P,U5,6*%
%TO.N,Net-(U5-Pad6)*%
%TA.AperFunction,SMDPad,CuDef*%
G36*
G01*
X26185000Y-126325000D02*
X25885000Y-126325000D01*
G75*
G02*
X25735000Y-126175000I0J150000D01*
G01*
X25735000Y-124425000D01*
G75*
G02*
X25885000Y-124275000I150000J0D01*
G01*
X26185000Y-124275000D01*
G75*
G02*
X26335000Y-124425000I0J-150000D01*
G01*
X26335000Y-126175000D01*
G75*
G02*
X26185000Y-126325000I-150000J0D01*
G01*
G37*
%TD.AperFunction*%
%TO.P,U5,7*%
%TO.N,Net-(U5-Pad7)*%
%TA.AperFunction,SMDPad,CuDef*%
G36*
G01*
X27455000Y-126325000D02*
X27155000Y-126325000D01*
G75*
G02*
X27005000Y-126175000I0J150000D01*
G01*
X27005000Y-124425000D01*
G75*
G02*
X27155000Y-124275000I150000J0D01*
G01*
X27455000Y-124275000D01*
G75*
G02*
X27605000Y-124425000I0J-150000D01*
G01*
X27605000Y-126175000D01*
G75*
G02*
X27455000Y-126325000I-150000J0D01*
G01*
G37*
%TD.AperFunction*%
%TO.P,U5,8*%
%TO.N,Net-(D10-Pad2)*%
%TA.AperFunction,SMDPad,CuDef*%
G36*
G01*
X28725000Y-126325000D02*
X28425000Y-126325000D01*
G75*
G02*
X28275000Y-126175000I0J150000D01*
G01*
X28275000Y-124425000D01*
G75*
G02*
X28425000Y-124275000I150000J0D01*
G01*
X28725000Y-124275000D01*
G75*
G02*
X28875000Y-124425000I0J-150000D01*
G01*
X28875000Y-126175000D01*
G75*
G02*
X28725000Y-126325000I-150000J0D01*
G01*
G37*
%TD.AperFunction*%
%TO.P,U5,9*%
%TO.N,Net-(D10-Pad3)*%
%TA.AperFunction,SMDPad,CuDef*%
G36*
G01*
X29995000Y-126325000D02*
X29695000Y-126325000D01*
G75*
G02*
X29545000Y-126175000I0J150000D01*
G01*
X29545000Y-124425000D01*
G75*
G02*
X29695000Y-124275000I150000J0D01*
G01*
X29995000Y-124275000D01*
G75*
G02*
X30145000Y-124425000I0J-150000D01*
G01*
X30145000Y-126175000D01*
G75*
G02*
X29995000Y-126325000I-150000J0D01*
G01*
G37*
%TD.AperFunction*%
%TO.P,U5,10*%
%TO.N,Net-(D10-Pad4)*%
%TA.AperFunction,SMDPad,CuDef*%
G36*
G01*
X31265000Y-126325000D02*
X30965000Y-126325000D01*
G75*
G02*
X30815000Y-126175000I0J150000D01*
G01*
X30815000Y-124425000D01*
G75*
G02*
X30965000Y-124275000I150000J0D01*
G01*
X31265000Y-124275000D01*
G75*
G02*
X31415000Y-124425000I0J-150000D01*
G01*
X31415000Y-126175000D01*
G75*
G02*
X31265000Y-126325000I-150000J0D01*
G01*
G37*
%TD.AperFunction*%
%TO.P,U5,11*%
%TO.N,Net-(D9-Pad2)*%
%TA.AperFunction,SMDPad,CuDef*%
G36*
G01*
X32535000Y-126325000D02*
X32235000Y-126325000D01*
G75*
G02*
X32085000Y-126175000I0J150000D01*
G01*
X32085000Y-124425000D01*
G75*
G02*
X32235000Y-124275000I150000J0D01*
G01*
X32535000Y-124275000D01*
G75*
G02*
X32685000Y-124425000I0J-150000D01*
G01*
X32685000Y-126175000D01*
G75*
G02*
X32535000Y-126325000I-150000J0D01*
G01*
G37*
%TD.AperFunction*%
%TO.P,U5,12*%
%TO.N,Earth*%
%TA.AperFunction,SMDPad,CuDef*%
G36*
G01*
X33805000Y-126325000D02*
X33505000Y-126325000D01*
G75*
G02*
X33355000Y-126175000I0J150000D01*
G01*
X33355000Y-124425000D01*
G75*
G02*
X33505000Y-124275000I150000J0D01*
G01*
X33805000Y-124275000D01*
G75*
G02*
X33955000Y-124425000I0J-150000D01*
G01*
X33955000Y-126175000D01*
G75*
G02*
X33805000Y-126325000I-150000J0D01*
G01*
G37*
%TD.AperFunction*%
%TO.P,U5,13*%
%TO.N,Net-(D9-Pad3)*%
%TA.AperFunction,SMDPad,CuDef*%
G36*
G01*
X33805000Y-117025000D02*
X33505000Y-117025000D01*
G75*
G02*
X33355000Y-116875000I0J150000D01*
G01*
X33355000Y-115125000D01*
G75*
G02*
X33505000Y-114975000I150000J0D01*
G01*
X33805000Y-114975000D01*
G75*
G02*
X33955000Y-115125000I0J-150000D01*
G01*
X33955000Y-116875000D01*
G75*
G02*
X33805000Y-117025000I-150000J0D01*
G01*
G37*
%TD.AperFunction*%
%TO.P,U5,14*%
%TO.N,Net-(D9-Pad4)*%
%TA.AperFunction,SMDPad,CuDef*%
G36*
G01*
X32535000Y-117025000D02*
X32235000Y-117025000D01*
G75*
G02*
X32085000Y-116875000I0J150000D01*
G01*
X32085000Y-115125000D01*
G75*
G02*
X32235000Y-114975000I150000J0D01*
G01*
X32535000Y-114975000D01*
G75*
G02*
X32685000Y-115125000I0J-150000D01*
G01*
X32685000Y-116875000D01*
G75*
G02*
X32535000Y-117025000I-150000J0D01*
G01*
G37*
%TD.AperFunction*%
%TO.P,U5,15*%
%TO.N,Net-(D8-Pad2)*%
%TA.AperFunction,SMDPad,CuDef*%
G36*
G01*
X31265000Y-117025000D02*
X30965000Y-117025000D01*
G75*
G02*
X30815000Y-116875000I0J150000D01*
G01*
X30815000Y-115125000D01*
G75*
G02*
X30965000Y-114975000I150000J0D01*
G01*
X31265000Y-114975000D01*
G75*
G02*
X31415000Y-115125000I0J-150000D01*
G01*
X31415000Y-116875000D01*
G75*
G02*
X31265000Y-117025000I-150000J0D01*
G01*
G37*
%TD.AperFunction*%
%TO.P,U5,16*%
%TO.N,Net-(D8-Pad3)*%
%TA.AperFunction,SMDPad,CuDef*%
G36*
G01*
X29995000Y-117025000D02*
X29695000Y-117025000D01*
G75*
G02*
X29545000Y-116875000I0J150000D01*
G01*
X29545000Y-115125000D01*
G75*
G02*
X29695000Y-114975000I150000J0D01*
G01*
X29995000Y-114975000D01*
G75*
G02*
X30145000Y-115125000I0J-150000D01*
G01*
X30145000Y-116875000D01*
G75*
G02*
X29995000Y-117025000I-150000J0D01*
G01*
G37*
%TD.AperFunction*%
%TO.P,U5,17*%
%TO.N,Net-(D8-Pad4)*%
%TA.AperFunction,SMDPad,CuDef*%
G36*
G01*
X28725000Y-117025000D02*
X28425000Y-117025000D01*
G75*
G02*
X28275000Y-116875000I0J150000D01*
G01*
X28275000Y-115125000D01*
G75*
G02*
X28425000Y-114975000I150000J0D01*
G01*
X28725000Y-114975000D01*
G75*
G02*
X28875000Y-115125000I0J-150000D01*
G01*
X28875000Y-116875000D01*
G75*
G02*
X28725000Y-117025000I-150000J0D01*
G01*
G37*
%TD.AperFunction*%
%TO.P,U5,18*%
%TO.N,Net-(D7-Pad2)*%
%TA.AperFunction,SMDPad,CuDef*%
G36*
G01*
X27455000Y-117025000D02*
X27155000Y-117025000D01*
G75*
G02*
X27005000Y-116875000I0J150000D01*
G01*
X27005000Y-115125000D01*
G75*
G02*
X27155000Y-114975000I150000J0D01*
G01*
X27455000Y-114975000D01*
G75*
G02*
X27605000Y-115125000I0J-150000D01*
G01*
X27605000Y-116875000D01*
G75*
G02*
X27455000Y-117025000I-150000J0D01*
G01*
G37*
%TD.AperFunction*%
%TO.P,U5,19*%
%TO.N,Net-(D7-Pad3)*%
%TA.AperFunction,SMDPad,CuDef*%
G36*
G01*
X26185000Y-117025000D02*
X25885000Y-117025000D01*
G75*
G02*
X25735000Y-116875000I0J150000D01*
G01*
X25735000Y-115125000D01*
G75*
G02*
X25885000Y-114975000I150000J0D01*
G01*
X26185000Y-114975000D01*
G75*
G02*
X26335000Y-115125000I0J-150000D01*
G01*
X26335000Y-116875000D01*
G75*
G02*
X26185000Y-117025000I-150000J0D01*
G01*
G37*
%TD.AperFunction*%
%TO.P,U5,20*%
%TO.N,Net-(D7-Pad4)*%
%TA.AperFunction,SMDPad,CuDef*%
G36*
G01*
X24915000Y-117025000D02*
X24615000Y-117025000D01*
G75*
G02*
X24465000Y-116875000I0J150000D01*
G01*
X24465000Y-115125000D01*
G75*
G02*
X24615000Y-114975000I150000J0D01*
G01*
X24915000Y-114975000D01*
G75*
G02*
X25065000Y-115125000I0J-150000D01*
G01*
X25065000Y-116875000D01*
G75*
G02*
X24915000Y-117025000I-150000J0D01*
G01*
G37*
%TD.AperFunction*%
%TO.P,U5,21*%
%TO.N,Net-(R2-Pad1)*%
%TA.AperFunction,SMDPad,CuDef*%
G36*
G01*
X23645000Y-117025000D02*
X23345000Y-117025000D01*
G75*
G02*
X23195000Y-116875000I0J150000D01*
G01*
X23195000Y-115125000D01*
G75*
G02*
X23345000Y-114975000I150000J0D01*
G01*
X23645000Y-114975000D01*
G75*
G02*
X23795000Y-115125000I0J-150000D01*
G01*
X23795000Y-116875000D01*
G75*
G02*
X23645000Y-117025000I-150000J0D01*
G01*
G37*
%TD.AperFunction*%
%TO.P,U5,22*%
%TO.N,/SCL1*%
%TA.AperFunction,SMDPad,CuDef*%
G36*
G01*
X22375000Y-117025000D02*
X22075000Y-117025000D01*
G75*
G02*
X21925000Y-116875000I0J150000D01*
G01*
X21925000Y-115125000D01*
G75*
G02*
X22075000Y-114975000I150000J0D01*
G01*
X22375000Y-114975000D01*
G75*
G02*
X22525000Y-115125000I0J-150000D01*
G01*
X22525000Y-116875000D01*
G75*
G02*
X22375000Y-117025000I-150000J0D01*
G01*
G37*
%TD.AperFunction*%
%TO.P,U5,23*%
%TO.N,/SDA1*%
%TA.AperFunction,SMDPad,CuDef*%
G36*
G01*
X21105000Y-117025000D02*
X20805000Y-117025000D01*
G75*
G02*
X20655000Y-116875000I0J150000D01*
G01*
X20655000Y-115125000D01*
G75*
G02*
X20805000Y-114975000I150000J0D01*
G01*
X21105000Y-114975000D01*
G75*
G02*
X21255000Y-115125000I0J-150000D01*
G01*
X21255000Y-116875000D01*
G75*
G02*
X21105000Y-117025000I-150000J0D01*
G01*
G37*
%TD.AperFunction*%
%TO.P,U5,24*%
%TO.N,+5V*%
%TA.AperFunction,SMDPad,CuDef*%
G36*
G01*
X19835000Y-117025000D02*
X19535000Y-117025000D01*
G75*
G02*
X19385000Y-116875000I0J150000D01*
G01*
X19385000Y-115125000D01*
G75*
G02*
X19535000Y-114975000I150000J0D01*
G01*
X19835000Y-114975000D01*
G75*
G02*
X19985000Y-115125000I0J-150000D01*
G01*
X19985000Y-116875000D01*
G75*
G02*
X19835000Y-117025000I-150000J0D01*
G01*
G37*
%TD.AperFunction*%
%TD*%
D12*
%TO.P,R2,1*%
%TO.N,Net-(R2-Pad1)*%
X15240000Y-116840000D03*
D13*
%TO.P,R2,2*%
%TO.N,+5V*%
X15240000Y-124460000D03*
%TD*%
D14*
%TO.P,J2,1*%
%TO.N,Earth*%
X15240000Y-86360000D03*
D15*
%TO.P,J2,2*%
%TO.N,+5V*%
X15240000Y-88900000D03*
%TO.P,J2,3*%
%TO.N,Net-(J2-Pad3)*%
X15240000Y-91440000D03*
%TO.P,J2,4*%
%TO.N,Net-(J2-Pad4)*%
X15240000Y-93980000D03*
%TO.P,J2,5*%
%TO.N,Net-(J2-Pad5)*%
X15240000Y-96520000D03*
%TO.P,J2,6*%
%TO.N,Net-(J2-Pad6)*%
X15240000Y-99060000D03*
%TD*%
%TO.P,U4,1*%
%TO.N,Earth*%
%TA.AperFunction,SMDPad,CuDef*%
G36*
G01*
X19835000Y-111085000D02*
X19535000Y-111085000D01*
G75*
G02*
X19385000Y-110935000I0J150000D01*
G01*
X19385000Y-109185000D01*
G75*
G02*
X19535000Y-109035000I150000J0D01*
G01*
X19835000Y-109035000D01*
G75*
G02*
X19985000Y-109185000I0J-150000D01*
G01*
X19985000Y-110935000D01*
G75*
G02*
X19835000Y-111085000I-150000J0D01*
G01*
G37*
%TD.AperFunction*%
%TO.P,U4,2*%
%TA.AperFunction,SMDPad,CuDef*%
G36*
G01*
X21105000Y-111085000D02*
X20805000Y-111085000D01*
G75*
G02*
X20655000Y-110935000I0J150000D01*
G01*
X20655000Y-109185000D01*
G75*
G02*
X20805000Y-109035000I150000J0D01*
G01*
X21105000Y-109035000D01*
G75*
G02*
X21255000Y-109185000I0J-150000D01*
G01*
X21255000Y-110935000D01*
G75*
G02*
X21105000Y-111085000I-150000J0D01*
G01*
G37*
%TD.AperFunction*%
%TO.P,U4,3*%
%TA.AperFunction,SMDPad,CuDef*%
G36*
G01*
X22375000Y-111085000D02*
X22075000Y-111085000D01*
G75*
G02*
X21925000Y-110935000I0J150000D01*
G01*
X21925000Y-109185000D01*
G75*
G02*
X22075000Y-109035000I150000J0D01*
G01*
X22375000Y-109035000D01*
G75*
G02*
X22525000Y-109185000I0J-150000D01*
G01*
X22525000Y-110935000D01*
G75*
G02*
X22375000Y-111085000I-150000J0D01*
G01*
G37*
%TD.AperFunction*%
%TO.P,U4,4*%
%TO.N,Net-(U4-Pad4)*%
%TA.AperFunction,SMDPad,CuDef*%
G36*
G01*
X23645000Y-111085000D02*
X23345000Y-111085000D01*
G75*
G02*
X23195000Y-110935000I0J150000D01*
G01*
X23195000Y-109185000D01*
G75*
G02*
X23345000Y-109035000I150000J0D01*
G01*
X23645000Y-109035000D01*
G75*
G02*
X23795000Y-109185000I0J-150000D01*
G01*
X23795000Y-110935000D01*
G75*
G02*
X23645000Y-111085000I-150000J0D01*
G01*
G37*
%TD.AperFunction*%
%TO.P,U4,5*%
%TO.N,Net-(D6-Pad2)*%
%TA.AperFunction,SMDPad,CuDef*%
G36*
G01*
X24915000Y-111085000D02*
X24615000Y-111085000D01*
G75*
G02*
X24465000Y-110935000I0J150000D01*
G01*
X24465000Y-109185000D01*
G75*
G02*
X24615000Y-109035000I150000J0D01*
G01*
X24915000Y-109035000D01*
G75*
G02*
X25065000Y-109185000I0J-150000D01*
G01*
X25065000Y-110935000D01*
G75*
G02*
X24915000Y-111085000I-150000J0D01*
G01*
G37*
%TD.AperFunction*%
%TO.P,U4,6*%
%TO.N,Net-(D6-Pad3)*%
%TA.AperFunction,SMDPad,CuDef*%
G36*
G01*
X26185000Y-111085000D02*
X25885000Y-111085000D01*
G75*
G02*
X25735000Y-110935000I0J150000D01*
G01*
X25735000Y-109185000D01*
G75*
G02*
X25885000Y-109035000I150000J0D01*
G01*
X26185000Y-109035000D01*
G75*
G02*
X26335000Y-109185000I0J-150000D01*
G01*
X26335000Y-110935000D01*
G75*
G02*
X26185000Y-111085000I-150000J0D01*
G01*
G37*
%TD.AperFunction*%
%TO.P,U4,7*%
%TO.N,Net-(D6-Pad4)*%
%TA.AperFunction,SMDPad,CuDef*%
G36*
G01*
X27455000Y-111085000D02*
X27155000Y-111085000D01*
G75*
G02*
X27005000Y-110935000I0J150000D01*
G01*
X27005000Y-109185000D01*
G75*
G02*
X27155000Y-109035000I150000J0D01*
G01*
X27455000Y-109035000D01*
G75*
G02*
X27605000Y-109185000I0J-150000D01*
G01*
X27605000Y-110935000D01*
G75*
G02*
X27455000Y-111085000I-150000J0D01*
G01*
G37*
%TD.AperFunction*%
%TO.P,U4,8*%
%TO.N,Net-(D5-Pad2)*%
%TA.AperFunction,SMDPad,CuDef*%
G36*
G01*
X28725000Y-111085000D02*
X28425000Y-111085000D01*
G75*
G02*
X28275000Y-110935000I0J150000D01*
G01*
X28275000Y-109185000D01*
G75*
G02*
X28425000Y-109035000I150000J0D01*
G01*
X28725000Y-109035000D01*
G75*
G02*
X28875000Y-109185000I0J-150000D01*
G01*
X28875000Y-110935000D01*
G75*
G02*
X28725000Y-111085000I-150000J0D01*
G01*
G37*
%TD.AperFunction*%
%TO.P,U4,9*%
%TO.N,Net-(D5-Pad3)*%
%TA.AperFunction,SMDPad,CuDef*%
G36*
G01*
X29995000Y-111085000D02*
X29695000Y-111085000D01*
G75*
G02*
X29545000Y-110935000I0J150000D01*
G01*
X29545000Y-109185000D01*
G75*
G02*
X29695000Y-109035000I150000J0D01*
G01*
X29995000Y-109035000D01*
G75*
G02*
X30145000Y-109185000I0J-150000D01*
G01*
X30145000Y-110935000D01*
G75*
G02*
X29995000Y-111085000I-150000J0D01*
G01*
G37*
%TD.AperFunction*%
%TO.P,U4,10*%
%TO.N,Net-(D5-Pad4)*%
%TA.AperFunction,SMDPad,CuDef*%
G36*
G01*
X31265000Y-111085000D02*
X30965000Y-111085000D01*
G75*
G02*
X30815000Y-110935000I0J150000D01*
G01*
X30815000Y-109185000D01*
G75*
G02*
X30965000Y-109035000I150000J0D01*
G01*
X31265000Y-109035000D01*
G75*
G02*
X31415000Y-109185000I0J-150000D01*
G01*
X31415000Y-110935000D01*
G75*
G02*
X31265000Y-111085000I-150000J0D01*
G01*
G37*
%TD.AperFunction*%
%TO.P,U4,11*%
%TO.N,Net-(D4-Pad2)*%
%TA.AperFunction,SMDPad,CuDef*%
G36*
G01*
X32535000Y-111085000D02*
X32235000Y-111085000D01*
G75*
G02*
X32085000Y-110935000I0J150000D01*
G01*
X32085000Y-109185000D01*
G75*
G02*
X32235000Y-109035000I150000J0D01*
G01*
X32535000Y-109035000D01*
G75*
G02*
X32685000Y-109185000I0J-150000D01*
G01*
X32685000Y-110935000D01*
G75*
G02*
X32535000Y-111085000I-150000J0D01*
G01*
G37*
%TD.AperFunction*%
%TO.P,U4,12*%
%TO.N,Earth*%
%TA.AperFunction,SMDPad,CuDef*%
G36*
G01*
X33805000Y-111085000D02*
X33505000Y-111085000D01*
G75*
G02*
X33355000Y-110935000I0J150000D01*
G01*
X33355000Y-109185000D01*
G75*
G02*
X33505000Y-109035000I150000J0D01*
G01*
X33805000Y-109035000D01*
G75*
G02*
X33955000Y-109185000I0J-150000D01*
G01*
X33955000Y-110935000D01*
G75*
G02*
X33805000Y-111085000I-150000J0D01*
G01*
G37*
%TD.AperFunction*%
%TO.P,U4,13*%
%TO.N,Net-(D4-Pad3)*%
%TA.AperFunction,SMDPad,CuDef*%
G36*
G01*
X33805000Y-101785000D02*
X33505000Y-101785000D01*
G75*
G02*
X33355000Y-101635000I0J150000D01*
G01*
X33355000Y-99885000D01*
G75*
G02*
X33505000Y-99735000I150000J0D01*
G01*
X33805000Y-99735000D01*
G75*
G02*
X33955000Y-99885000I0J-150000D01*
G01*
X33955000Y-101635000D01*
G75*
G02*
X33805000Y-101785000I-150000J0D01*
G01*
G37*
%TD.AperFunction*%
%TO.P,U4,14*%
%TO.N,Net-(D4-Pad4)*%
%TA.AperFunction,SMDPad,CuDef*%
G36*
G01*
X32535000Y-101785000D02*
X32235000Y-101785000D01*
G75*
G02*
X32085000Y-101635000I0J150000D01*
G01*
X32085000Y-99885000D01*
G75*
G02*
X32235000Y-99735000I150000J0D01*
G01*
X32535000Y-99735000D01*
G75*
G02*
X32685000Y-99885000I0J-150000D01*
G01*
X32685000Y-101635000D01*
G75*
G02*
X32535000Y-101785000I-150000J0D01*
G01*
G37*
%TD.AperFunction*%
%TO.P,U4,15*%
%TO.N,Net-(D3-Pad2)*%
%TA.AperFunction,SMDPad,CuDef*%
G36*
G01*
X31265000Y-101785000D02*
X30965000Y-101785000D01*
G75*
G02*
X30815000Y-101635000I0J150000D01*
G01*
X30815000Y-99885000D01*
G75*
G02*
X30965000Y-99735000I150000J0D01*
G01*
X31265000Y-99735000D01*
G75*
G02*
X31415000Y-99885000I0J-150000D01*
G01*
X31415000Y-101635000D01*
G75*
G02*
X31265000Y-101785000I-150000J0D01*
G01*
G37*
%TD.AperFunction*%
%TO.P,U4,16*%
%TO.N,Net-(D3-Pad3)*%
%TA.AperFunction,SMDPad,CuDef*%
G36*
G01*
X29995000Y-101785000D02*
X29695000Y-101785000D01*
G75*
G02*
X29545000Y-101635000I0J150000D01*
G01*
X29545000Y-99885000D01*
G75*
G02*
X29695000Y-99735000I150000J0D01*
G01*
X29995000Y-99735000D01*
G75*
G02*
X30145000Y-99885000I0J-150000D01*
G01*
X30145000Y-101635000D01*
G75*
G02*
X29995000Y-101785000I-150000J0D01*
G01*
G37*
%TD.AperFunction*%
%TO.P,U4,17*%
%TO.N,Net-(D3-Pad4)*%
%TA.AperFunction,SMDPad,CuDef*%
G36*
G01*
X28725000Y-101785000D02*
X28425000Y-101785000D01*
G75*
G02*
X28275000Y-101635000I0J150000D01*
G01*
X28275000Y-99885000D01*
G75*
G02*
X28425000Y-99735000I150000J0D01*
G01*
X28725000Y-99735000D01*
G75*
G02*
X28875000Y-99885000I0J-150000D01*
G01*
X28875000Y-101635000D01*
G75*
G02*
X28725000Y-101785000I-150000J0D01*
G01*
G37*
%TD.AperFunction*%
%TO.P,U4,18*%
%TO.N,Net-(D2-Pad2)*%
%TA.AperFunction,SMDPad,CuDef*%
G36*
G01*
X27455000Y-101785000D02*
X27155000Y-101785000D01*
G75*
G02*
X27005000Y-101635000I0J150000D01*
G01*
X27005000Y-99885000D01*
G75*
G02*
X27155000Y-99735000I150000J0D01*
G01*
X27455000Y-99735000D01*
G75*
G02*
X27605000Y-99885000I0J-150000D01*
G01*
X27605000Y-101635000D01*
G75*
G02*
X27455000Y-101785000I-150000J0D01*
G01*
G37*
%TD.AperFunction*%
%TO.P,U4,19*%
%TO.N,Net-(D2-Pad3)*%
%TA.AperFunction,SMDPad,CuDef*%
G36*
G01*
X26185000Y-101785000D02*
X25885000Y-101785000D01*
G75*
G02*
X25735000Y-101635000I0J150000D01*
G01*
X25735000Y-99885000D01*
G75*
G02*
X25885000Y-99735000I150000J0D01*
G01*
X26185000Y-99735000D01*
G75*
G02*
X26335000Y-99885000I0J-150000D01*
G01*
X26335000Y-101635000D01*
G75*
G02*
X26185000Y-101785000I-150000J0D01*
G01*
G37*
%TD.AperFunction*%
%TO.P,U4,20*%
%TO.N,Net-(D2-Pad4)*%
%TA.AperFunction,SMDPad,CuDef*%
G36*
G01*
X24915000Y-101785000D02*
X24615000Y-101785000D01*
G75*
G02*
X24465000Y-101635000I0J150000D01*
G01*
X24465000Y-99885000D01*
G75*
G02*
X24615000Y-99735000I150000J0D01*
G01*
X24915000Y-99735000D01*
G75*
G02*
X25065000Y-99885000I0J-150000D01*
G01*
X25065000Y-101635000D01*
G75*
G02*
X24915000Y-101785000I-150000J0D01*
G01*
G37*
%TD.AperFunction*%
%TO.P,U4,21*%
%TO.N,Net-(R1-Pad1)*%
%TA.AperFunction,SMDPad,CuDef*%
G36*
G01*
X23645000Y-101785000D02*
X23345000Y-101785000D01*
G75*
G02*
X23195000Y-101635000I0J150000D01*
G01*
X23195000Y-99885000D01*
G75*
G02*
X23345000Y-99735000I150000J0D01*
G01*
X23645000Y-99735000D01*
G75*
G02*
X23795000Y-99885000I0J-150000D01*
G01*
X23795000Y-101635000D01*
G75*
G02*
X23645000Y-101785000I-150000J0D01*
G01*
G37*
%TD.AperFunction*%
%TO.P,U4,22*%
%TO.N,/SCL1*%
%TA.AperFunction,SMDPad,CuDef*%
G36*
G01*
X22375000Y-101785000D02*
X22075000Y-101785000D01*
G75*
G02*
X21925000Y-101635000I0J150000D01*
G01*
X21925000Y-99885000D01*
G75*
G02*
X22075000Y-99735000I150000J0D01*
G01*
X22375000Y-99735000D01*
G75*
G02*
X22525000Y-99885000I0J-150000D01*
G01*
X22525000Y-101635000D01*
G75*
G02*
X22375000Y-101785000I-150000J0D01*
G01*
G37*
%TD.AperFunction*%
%TO.P,U4,23*%
%TO.N,/SDA1*%
%TA.AperFunction,SMDPad,CuDef*%
G36*
G01*
X21105000Y-101785000D02*
X20805000Y-101785000D01*
G75*
G02*
X20655000Y-101635000I0J150000D01*
G01*
X20655000Y-99885000D01*
G75*
G02*
X20805000Y-99735000I150000J0D01*
G01*
X21105000Y-99735000D01*
G75*
G02*
X21255000Y-99885000I0J-150000D01*
G01*
X21255000Y-101635000D01*
G75*
G02*
X21105000Y-101785000I-150000J0D01*
G01*
G37*
%TD.AperFunction*%
%TO.P,U4,24*%
%TO.N,+5V*%
%TA.AperFunction,SMDPad,CuDef*%
G36*
G01*
X19835000Y-101785000D02*
X19535000Y-101785000D01*
G75*
G02*
X19385000Y-101635000I0J150000D01*
G01*
X19385000Y-99885000D01*
G75*
G02*
X19535000Y-99735000I150000J0D01*
G01*
X19835000Y-99735000D01*
G75*
G02*
X19985000Y-99885000I0J-150000D01*
G01*
X19985000Y-101635000D01*
G75*
G02*
X19835000Y-101785000I-150000J0D01*
G01*
G37*
%TD.AperFunction*%
%TD*%
%TO.P,U3,1*%
%TO.N,/INT1*%
%TA.AperFunction,SMDPad,CuDef*%
G36*
G01*
X19835000Y-141565000D02*
X19535000Y-141565000D01*
G75*
G02*
X19385000Y-141415000I0J150000D01*
G01*
X19385000Y-139665000D01*
G75*
G02*
X19535000Y-139515000I150000J0D01*
G01*
X19835000Y-139515000D01*
G75*
G02*
X19985000Y-139665000I0J-150000D01*
G01*
X19985000Y-141415000D01*
G75*
G02*
X19835000Y-141565000I-150000J0D01*
G01*
G37*
%TD.AperFunction*%
%TO.P,U3,2*%
%TO.N,Earth*%
%TA.AperFunction,SMDPad,CuDef*%
G36*
G01*
X21105000Y-141565000D02*
X20805000Y-141565000D01*
G75*
G02*
X20655000Y-141415000I0J150000D01*
G01*
X20655000Y-139665000D01*
G75*
G02*
X20805000Y-139515000I150000J0D01*
G01*
X21105000Y-139515000D01*
G75*
G02*
X21255000Y-139665000I0J-150000D01*
G01*
X21255000Y-141415000D01*
G75*
G02*
X21105000Y-141565000I-150000J0D01*
G01*
G37*
%TD.AperFunction*%
%TO.P,U3,3*%
%TA.AperFunction,SMDPad,CuDef*%
G36*
G01*
X22375000Y-141565000D02*
X22075000Y-141565000D01*
G75*
G02*
X21925000Y-141415000I0J150000D01*
G01*
X21925000Y-139665000D01*
G75*
G02*
X22075000Y-139515000I150000J0D01*
G01*
X22375000Y-139515000D01*
G75*
G02*
X22525000Y-139665000I0J-150000D01*
G01*
X22525000Y-141415000D01*
G75*
G02*
X22375000Y-141565000I-150000J0D01*
G01*
G37*
%TD.AperFunction*%
%TO.P,U3,4*%
%TO.N,Net-(RN2-Pad2)*%
%TA.AperFunction,SMDPad,CuDef*%
G36*
G01*
X23645000Y-141565000D02*
X23345000Y-141565000D01*
G75*
G02*
X23195000Y-141415000I0J150000D01*
G01*
X23195000Y-139665000D01*
G75*
G02*
X23345000Y-139515000I150000J0D01*
G01*
X23645000Y-139515000D01*
G75*
G02*
X23795000Y-139665000I0J-150000D01*
G01*
X23795000Y-141415000D01*
G75*
G02*
X23645000Y-141565000I-150000J0D01*
G01*
G37*
%TD.AperFunction*%
%TO.P,U3,5*%
%TO.N,Net-(RN2-Pad3)*%
%TA.AperFunction,SMDPad,CuDef*%
G36*
G01*
X24915000Y-141565000D02*
X24615000Y-141565000D01*
G75*
G02*
X24465000Y-141415000I0J150000D01*
G01*
X24465000Y-139665000D01*
G75*
G02*
X24615000Y-139515000I150000J0D01*
G01*
X24915000Y-139515000D01*
G75*
G02*
X25065000Y-139665000I0J-150000D01*
G01*
X25065000Y-141415000D01*
G75*
G02*
X24915000Y-141565000I-150000J0D01*
G01*
G37*
%TD.AperFunction*%
%TO.P,U3,6*%
%TO.N,Net-(RN2-Pad4)*%
%TA.AperFunction,SMDPad,CuDef*%
G36*
G01*
X26185000Y-141565000D02*
X25885000Y-141565000D01*
G75*
G02*
X25735000Y-141415000I0J150000D01*
G01*
X25735000Y-139665000D01*
G75*
G02*
X25885000Y-139515000I150000J0D01*
G01*
X26185000Y-139515000D01*
G75*
G02*
X26335000Y-139665000I0J-150000D01*
G01*
X26335000Y-141415000D01*
G75*
G02*
X26185000Y-141565000I-150000J0D01*
G01*
G37*
%TD.AperFunction*%
%TO.P,U3,7*%
%TO.N,Net-(RN2-Pad5)*%
%TA.AperFunction,SMDPad,CuDef*%
G36*
G01*
X27455000Y-141565000D02*
X27155000Y-141565000D01*
G75*
G02*
X27005000Y-141415000I0J150000D01*
G01*
X27005000Y-139665000D01*
G75*
G02*
X27155000Y-139515000I150000J0D01*
G01*
X27455000Y-139515000D01*
G75*
G02*
X27605000Y-139665000I0J-150000D01*
G01*
X27605000Y-141415000D01*
G75*
G02*
X27455000Y-141565000I-150000J0D01*
G01*
G37*
%TD.AperFunction*%
%TO.P,U3,8*%
%TO.N,Net-(RN2-Pad6)*%
%TA.AperFunction,SMDPad,CuDef*%
G36*
G01*
X28725000Y-141565000D02*
X28425000Y-141565000D01*
G75*
G02*
X28275000Y-141415000I0J150000D01*
G01*
X28275000Y-139665000D01*
G75*
G02*
X28425000Y-139515000I150000J0D01*
G01*
X28725000Y-139515000D01*
G75*
G02*
X28875000Y-139665000I0J-150000D01*
G01*
X28875000Y-141415000D01*
G75*
G02*
X28725000Y-141565000I-150000J0D01*
G01*
G37*
%TD.AperFunction*%
%TO.P,U3,9*%
%TO.N,Net-(RN2-Pad7)*%
%TA.AperFunction,SMDPad,CuDef*%
G36*
G01*
X29995000Y-141565000D02*
X29695000Y-141565000D01*
G75*
G02*
X29545000Y-141415000I0J150000D01*
G01*
X29545000Y-139665000D01*
G75*
G02*
X29695000Y-139515000I150000J0D01*
G01*
X29995000Y-139515000D01*
G75*
G02*
X30145000Y-139665000I0J-150000D01*
G01*
X30145000Y-141415000D01*
G75*
G02*
X29995000Y-141565000I-150000J0D01*
G01*
G37*
%TD.AperFunction*%
%TO.P,U3,10*%
%TO.N,Net-(RN2-Pad8)*%
%TA.AperFunction,SMDPad,CuDef*%
G36*
G01*
X31265000Y-141565000D02*
X30965000Y-141565000D01*
G75*
G02*
X30815000Y-141415000I0J150000D01*
G01*
X30815000Y-139665000D01*
G75*
G02*
X30965000Y-139515000I150000J0D01*
G01*
X31265000Y-139515000D01*
G75*
G02*
X31415000Y-139665000I0J-150000D01*
G01*
X31415000Y-141415000D01*
G75*
G02*
X31265000Y-141565000I-150000J0D01*
G01*
G37*
%TD.AperFunction*%
%TO.P,U3,11*%
%TO.N,Net-(RN2-Pad9)*%
%TA.AperFunction,SMDPad,CuDef*%
G36*
G01*
X32535000Y-141565000D02*
X32235000Y-141565000D01*
G75*
G02*
X32085000Y-141415000I0J150000D01*
G01*
X32085000Y-139665000D01*
G75*
G02*
X32235000Y-139515000I150000J0D01*
G01*
X32535000Y-139515000D01*
G75*
G02*
X32685000Y-139665000I0J-150000D01*
G01*
X32685000Y-141415000D01*
G75*
G02*
X32535000Y-141565000I-150000J0D01*
G01*
G37*
%TD.AperFunction*%
%TO.P,U3,12*%
%TO.N,Earth*%
%TA.AperFunction,SMDPad,CuDef*%
G36*
G01*
X33805000Y-141565000D02*
X33505000Y-141565000D01*
G75*
G02*
X33355000Y-141415000I0J150000D01*
G01*
X33355000Y-139665000D01*
G75*
G02*
X33505000Y-139515000I150000J0D01*
G01*
X33805000Y-139515000D01*
G75*
G02*
X33955000Y-139665000I0J-150000D01*
G01*
X33955000Y-141415000D01*
G75*
G02*
X33805000Y-141565000I-150000J0D01*
G01*
G37*
%TD.AperFunction*%
%TO.P,U3,13*%
%TO.N,Net-(RN2-Pad10)*%
%TA.AperFunction,SMDPad,CuDef*%
G36*
G01*
X33805000Y-132265000D02*
X33505000Y-132265000D01*
G75*
G02*
X33355000Y-132115000I0J150000D01*
G01*
X33355000Y-130365000D01*
G75*
G02*
X33505000Y-130215000I150000J0D01*
G01*
X33805000Y-130215000D01*
G75*
G02*
X33955000Y-130365000I0J-150000D01*
G01*
X33955000Y-132115000D01*
G75*
G02*
X33805000Y-132265000I-150000J0D01*
G01*
G37*
%TD.AperFunction*%
%TO.P,U3,14*%
%TO.N,Net-(U3-Pad14)*%
%TA.AperFunction,SMDPad,CuDef*%
G36*
G01*
X32535000Y-132265000D02*
X32235000Y-132265000D01*
G75*
G02*
X32085000Y-132115000I0J150000D01*
G01*
X32085000Y-130365000D01*
G75*
G02*
X32235000Y-130215000I150000J0D01*
G01*
X32535000Y-130215000D01*
G75*
G02*
X32685000Y-130365000I0J-150000D01*
G01*
X32685000Y-132115000D01*
G75*
G02*
X32535000Y-132265000I-150000J0D01*
G01*
G37*
%TD.AperFunction*%
%TO.P,U3,15*%
%TO.N,Net-(U3-Pad15)*%
%TA.AperFunction,SMDPad,CuDef*%
G36*
G01*
X31265000Y-132265000D02*
X30965000Y-132265000D01*
G75*
G02*
X30815000Y-132115000I0J150000D01*
G01*
X30815000Y-130365000D01*
G75*
G02*
X30965000Y-130215000I150000J0D01*
G01*
X31265000Y-130215000D01*
G75*
G02*
X31415000Y-130365000I0J-150000D01*
G01*
X31415000Y-132115000D01*
G75*
G02*
X31265000Y-132265000I-150000J0D01*
G01*
G37*
%TD.AperFunction*%
%TO.P,U3,16*%
%TO.N,Net-(U3-Pad16)*%
%TA.AperFunction,SMDPad,CuDef*%
G36*
G01*
X29995000Y-132265000D02*
X29695000Y-132265000D01*
G75*
G02*
X29545000Y-132115000I0J150000D01*
G01*
X29545000Y-130365000D01*
G75*
G02*
X29695000Y-130215000I150000J0D01*
G01*
X29995000Y-130215000D01*
G75*
G02*
X30145000Y-130365000I0J-150000D01*
G01*
X30145000Y-132115000D01*
G75*
G02*
X29995000Y-132265000I-150000J0D01*
G01*
G37*
%TD.AperFunction*%
%TO.P,U3,17*%
%TO.N,Net-(U3-Pad17)*%
%TA.AperFunction,SMDPad,CuDef*%
G36*
G01*
X28725000Y-132265000D02*
X28425000Y-132265000D01*
G75*
G02*
X28275000Y-132115000I0J150000D01*
G01*
X28275000Y-130365000D01*
G75*
G02*
X28425000Y-130215000I150000J0D01*
G01*
X28725000Y-130215000D01*
G75*
G02*
X28875000Y-130365000I0J-150000D01*
G01*
X28875000Y-132115000D01*
G75*
G02*
X28725000Y-132265000I-150000J0D01*
G01*
G37*
%TD.AperFunction*%
%TO.P,U3,18*%
%TO.N,Net-(U3-Pad18)*%
%TA.AperFunction,SMDPad,CuDef*%
G36*
G01*
X27455000Y-132265000D02*
X27155000Y-132265000D01*
G75*
G02*
X27005000Y-132115000I0J150000D01*
G01*
X27005000Y-130365000D01*
G75*
G02*
X27155000Y-130215000I150000J0D01*
G01*
X27455000Y-130215000D01*
G75*
G02*
X27605000Y-130365000I0J-150000D01*
G01*
X27605000Y-132115000D01*
G75*
G02*
X27455000Y-132265000I-150000J0D01*
G01*
G37*
%TD.AperFunction*%
%TO.P,U3,19*%
%TO.N,Net-(U3-Pad19)*%
%TA.AperFunction,SMDPad,CuDef*%
G36*
G01*
X26185000Y-132265000D02*
X25885000Y-132265000D01*
G75*
G02*
X25735000Y-132115000I0J150000D01*
G01*
X25735000Y-130365000D01*
G75*
G02*
X25885000Y-130215000I150000J0D01*
G01*
X26185000Y-130215000D01*
G75*
G02*
X26335000Y-130365000I0J-150000D01*
G01*
X26335000Y-132115000D01*
G75*
G02*
X26185000Y-132265000I-150000J0D01*
G01*
G37*
%TD.AperFunction*%
%TO.P,U3,20*%
%TO.N,Net-(U3-Pad20)*%
%TA.AperFunction,SMDPad,CuDef*%
G36*
G01*
X24915000Y-132265000D02*
X24615000Y-132265000D01*
G75*
G02*
X24465000Y-132115000I0J150000D01*
G01*
X24465000Y-130365000D01*
G75*
G02*
X24615000Y-130215000I150000J0D01*
G01*
X24915000Y-130215000D01*
G75*
G02*
X25065000Y-130365000I0J-150000D01*
G01*
X25065000Y-132115000D01*
G75*
G02*
X24915000Y-132265000I-150000J0D01*
G01*
G37*
%TD.AperFunction*%
%TO.P,U3,21*%
%TO.N,+5V*%
%TA.AperFunction,SMDPad,CuDef*%
G36*
G01*
X23645000Y-132265000D02*
X23345000Y-132265000D01*
G75*
G02*
X23195000Y-132115000I0J150000D01*
G01*
X23195000Y-130365000D01*
G75*
G02*
X23345000Y-130215000I150000J0D01*
G01*
X23645000Y-130215000D01*
G75*
G02*
X23795000Y-130365000I0J-150000D01*
G01*
X23795000Y-132115000D01*
G75*
G02*
X23645000Y-132265000I-150000J0D01*
G01*
G37*
%TD.AperFunction*%
%TO.P,U3,22*%
%TO.N,/SCL1*%
%TA.AperFunction,SMDPad,CuDef*%
G36*
G01*
X22375000Y-132265000D02*
X22075000Y-132265000D01*
G75*
G02*
X21925000Y-132115000I0J150000D01*
G01*
X21925000Y-130365000D01*
G75*
G02*
X22075000Y-130215000I150000J0D01*
G01*
X22375000Y-130215000D01*
G75*
G02*
X22525000Y-130365000I0J-150000D01*
G01*
X22525000Y-132115000D01*
G75*
G02*
X22375000Y-132265000I-150000J0D01*
G01*
G37*
%TD.AperFunction*%
%TO.P,U3,23*%
%TO.N,/SDA1*%
%TA.AperFunction,SMDPad,CuDef*%
G36*
G01*
X21105000Y-132265000D02*
X20805000Y-132265000D01*
G75*
G02*
X20655000Y-132115000I0J150000D01*
G01*
X20655000Y-130365000D01*
G75*
G02*
X20805000Y-130215000I150000J0D01*
G01*
X21105000Y-130215000D01*
G75*
G02*
X21255000Y-130365000I0J-150000D01*
G01*
X21255000Y-132115000D01*
G75*
G02*
X21105000Y-132265000I-150000J0D01*
G01*
G37*
%TD.AperFunction*%
%TO.P,U3,24*%
%TO.N,+5V*%
%TA.AperFunction,SMDPad,CuDef*%
G36*
G01*
X19835000Y-132265000D02*
X19535000Y-132265000D01*
G75*
G02*
X19385000Y-132115000I0J150000D01*
G01*
X19385000Y-130365000D01*
G75*
G02*
X19535000Y-130215000I150000J0D01*
G01*
X19835000Y-130215000D01*
G75*
G02*
X19985000Y-130365000I0J-150000D01*
G01*
X19985000Y-132115000D01*
G75*
G02*
X19835000Y-132265000I-150000J0D01*
G01*
G37*
%TD.AperFunction*%
%TD*%
D16*
%TO.P,SW19,1*%
%TO.N,Net-(RN3-Pad8)*%
X21590000Y-162560000D03*
D13*
%TO.P,SW19,8*%
%TO.N,Earth*%
X29210000Y-177800000D03*
%TO.P,SW19,2*%
%TO.N,Net-(RN3-Pad7)*%
X21590000Y-165100000D03*
%TO.P,SW19,9*%
%TO.N,Earth*%
X29210000Y-175260000D03*
%TO.P,SW19,3*%
%TO.N,Net-(RN3-Pad6)*%
X21590000Y-167640000D03*
%TO.P,SW19,10*%
%TO.N,Earth*%
X29210000Y-172720000D03*
%TO.P,SW19,4*%
%TO.N,Net-(RN3-Pad5)*%
X21590000Y-170180000D03*
%TO.P,SW19,11*%
%TO.N,Earth*%
X29210000Y-170180000D03*
%TO.P,SW19,5*%
%TO.N,Net-(RN3-Pad4)*%
X21590000Y-172720000D03*
%TO.P,SW19,12*%
%TO.N,Earth*%
X29210000Y-167640000D03*
%TO.P,SW19,6*%
%TO.N,Net-(RN3-Pad3)*%
X21590000Y-175260000D03*
%TO.P,SW19,13*%
%TO.N,Earth*%
X29210000Y-165100000D03*
%TO.P,SW19,7*%
%TO.N,Net-(RN3-Pad2)*%
X21590000Y-177800000D03*
%TO.P,SW19,14*%
%TO.N,Earth*%
X29210000Y-162560000D03*
%TD*%
D17*
%TO.P,SW18,2*%
%TO.N,Earth*%
X77470000Y-53340000D03*
%TO.P,SW18,1*%
%TO.N,Net-(RN2-Pad10)*%
X83820000Y-53340000D03*
%TD*%
%TO.P,SW17,2*%
%TO.N,Earth*%
X77470000Y-41910000D03*
%TO.P,SW17,1*%
%TO.N,Net-(RN2-Pad7)*%
X83820000Y-41910000D03*
%TD*%
%TO.P,SW16,2*%
%TO.N,Earth*%
X77470000Y-30480000D03*
%TO.P,SW16,1*%
%TO.N,Net-(RN2-Pad4)*%
X83820000Y-30480000D03*
%TD*%
%TO.P,SW15,2*%
%TO.N,Earth*%
X64770000Y-53340000D03*
%TO.P,SW15,1*%
%TO.N,Net-(RN2-Pad9)*%
X71120000Y-53340000D03*
%TD*%
%TO.P,SW14,2*%
%TO.N,Earth*%
X64770000Y-41910000D03*
%TO.P,SW14,1*%
%TO.N,Net-(RN2-Pad6)*%
X71120000Y-41910000D03*
%TD*%
%TO.P,SW13,2*%
%TO.N,Earth*%
X64770000Y-30480000D03*
%TO.P,SW13,1*%
%TO.N,Net-(RN2-Pad3)*%
X71120000Y-30480000D03*
%TD*%
%TO.P,SW12,2*%
%TO.N,Earth*%
X52070000Y-53340000D03*
%TO.P,SW12,1*%
%TO.N,Net-(RN2-Pad8)*%
X58420000Y-53340000D03*
%TD*%
%TO.P,SW11,2*%
%TO.N,Earth*%
X52070000Y-41910000D03*
%TO.P,SW11,1*%
%TO.N,Net-(RN2-Pad5)*%
X58420000Y-41910000D03*
%TD*%
%TO.P,SW10,2*%
%TO.N,Earth*%
X52070000Y-30480000D03*
%TO.P,SW10,1*%
%TO.N,Net-(RN2-Pad2)*%
X58420000Y-30480000D03*
%TD*%
D16*
%TO.P,RN4,1*%
%TO.N,+5V*%
X44450000Y-85090000D03*
D13*
%TO.P,RN4,2*%
%TO.N,Net-(D2-Pad1)*%
X44450000Y-87630000D03*
%TO.P,RN4,3*%
%TO.N,Net-(D3-Pad1)*%
X44450000Y-90170000D03*
%TO.P,RN4,4*%
%TO.N,Net-(D4-Pad1)*%
X44450000Y-92710000D03*
%TO.P,RN4,5*%
%TO.N,Net-(D5-Pad1)*%
X44450000Y-95250000D03*
%TO.P,RN4,6*%
%TO.N,Net-(D6-Pad1)*%
X44450000Y-97790000D03*
%TO.P,RN4,7*%
%TO.N,Net-(D7-Pad1)*%
X44450000Y-100330000D03*
%TO.P,RN4,8*%
%TO.N,Net-(D8-Pad1)*%
X44450000Y-102870000D03*
%TO.P,RN4,9*%
%TO.N,Net-(D9-Pad1)*%
X44450000Y-105410000D03*
%TO.P,RN4,10*%
%TO.N,Net-(D10-Pad1)*%
X44450000Y-107950000D03*
%TD*%
D16*
%TO.P,RN3,1*%
%TO.N,+5V*%
X15240000Y-182880000D03*
D13*
%TO.P,RN3,2*%
%TO.N,Net-(RN3-Pad2)*%
X15240000Y-180340000D03*
%TO.P,RN3,3*%
%TO.N,Net-(RN3-Pad3)*%
X15240000Y-177800000D03*
%TO.P,RN3,4*%
%TO.N,Net-(RN3-Pad4)*%
X15240000Y-175260000D03*
%TO.P,RN3,5*%
%TO.N,Net-(RN3-Pad5)*%
X15240000Y-172720000D03*
%TO.P,RN3,6*%
%TO.N,Net-(RN3-Pad6)*%
X15240000Y-170180000D03*
%TO.P,RN3,7*%
%TO.N,Net-(RN3-Pad7)*%
X15240000Y-167640000D03*
%TO.P,RN3,8*%
%TO.N,Net-(RN3-Pad8)*%
X15240000Y-165100000D03*
%TO.P,RN3,9*%
%TO.N,Net-(RN3-Pad9)*%
X15240000Y-162560000D03*
%TO.P,RN3,10*%
%TO.N,Net-(RN3-Pad10)*%
X15240000Y-160020000D03*
%TD*%
D16*
%TO.P,RN2,1*%
%TO.N,+5V*%
X44450000Y-27940000D03*
D13*
%TO.P,RN2,2*%
%TO.N,Net-(RN2-Pad2)*%
X44450000Y-30480000D03*
%TO.P,RN2,3*%
%TO.N,Net-(RN2-Pad3)*%
X44450000Y-33020000D03*
%TO.P,RN2,4*%
%TO.N,Net-(RN2-Pad4)*%
X44450000Y-35560000D03*
%TO.P,RN2,5*%
%TO.N,Net-(RN2-Pad5)*%
X44450000Y-38100000D03*
%TO.P,RN2,6*%
%TO.N,Net-(RN2-Pad6)*%
X44450000Y-40640000D03*
%TO.P,RN2,7*%
%TO.N,Net-(RN2-Pad7)*%
X44450000Y-43180000D03*
%TO.P,RN2,8*%
%TO.N,Net-(RN2-Pad8)*%
X44450000Y-45720000D03*
%TO.P,RN2,9*%
%TO.N,Net-(RN2-Pad9)*%
X44450000Y-48260000D03*
%TO.P,RN2,10*%
%TO.N,Net-(RN2-Pad10)*%
X44450000Y-50800000D03*
%TD*%
D12*
%TO.P,R1,1*%
%TO.N,Net-(R1-Pad1)*%
X15240000Y-105410000D03*
D13*
%TO.P,R1,2*%
%TO.N,+5V*%
X15240000Y-113030000D03*
%TD*%
%TO.P,U2,24*%
%TO.N,+5V*%
%TA.AperFunction,SMDPad,CuDef*%
G36*
G01*
X19835000Y-86545000D02*
X19535000Y-86545000D01*
G75*
G02*
X19385000Y-86395000I0J150000D01*
G01*
X19385000Y-84645000D01*
G75*
G02*
X19535000Y-84495000I150000J0D01*
G01*
X19835000Y-84495000D01*
G75*
G02*
X19985000Y-84645000I0J-150000D01*
G01*
X19985000Y-86395000D01*
G75*
G02*
X19835000Y-86545000I-150000J0D01*
G01*
G37*
%TD.AperFunction*%
%TO.P,U2,23*%
%TO.N,/SDA0*%
%TA.AperFunction,SMDPad,CuDef*%
G36*
G01*
X21105000Y-86545000D02*
X20805000Y-86545000D01*
G75*
G02*
X20655000Y-86395000I0J150000D01*
G01*
X20655000Y-84645000D01*
G75*
G02*
X20805000Y-84495000I150000J0D01*
G01*
X21105000Y-84495000D01*
G75*
G02*
X21255000Y-84645000I0J-150000D01*
G01*
X21255000Y-86395000D01*
G75*
G02*
X21105000Y-86545000I-150000J0D01*
G01*
G37*
%TD.AperFunction*%
%TO.P,U2,22*%
%TO.N,/SCL0*%
%TA.AperFunction,SMDPad,CuDef*%
G36*
G01*
X22375000Y-86545000D02*
X22075000Y-86545000D01*
G75*
G02*
X21925000Y-86395000I0J150000D01*
G01*
X21925000Y-84645000D01*
G75*
G02*
X22075000Y-84495000I150000J0D01*
G01*
X22375000Y-84495000D01*
G75*
G02*
X22525000Y-84645000I0J-150000D01*
G01*
X22525000Y-86395000D01*
G75*
G02*
X22375000Y-86545000I-150000J0D01*
G01*
G37*
%TD.AperFunction*%
%TO.P,U2,21*%
%TO.N,Earth*%
%TA.AperFunction,SMDPad,CuDef*%
G36*
G01*
X23645000Y-86545000D02*
X23345000Y-86545000D01*
G75*
G02*
X23195000Y-86395000I0J150000D01*
G01*
X23195000Y-84645000D01*
G75*
G02*
X23345000Y-84495000I150000J0D01*
G01*
X23645000Y-84495000D01*
G75*
G02*
X23795000Y-84645000I0J-150000D01*
G01*
X23795000Y-86395000D01*
G75*
G02*
X23645000Y-86545000I-150000J0D01*
G01*
G37*
%TD.AperFunction*%
%TO.P,U2,20*%
%TO.N,Net-(RN3-Pad2)*%
%TA.AperFunction,SMDPad,CuDef*%
G36*
G01*
X24915000Y-86545000D02*
X24615000Y-86545000D01*
G75*
G02*
X24465000Y-86395000I0J150000D01*
G01*
X24465000Y-84645000D01*
G75*
G02*
X24615000Y-84495000I150000J0D01*
G01*
X24915000Y-84495000D01*
G75*
G02*
X25065000Y-84645000I0J-150000D01*
G01*
X25065000Y-86395000D01*
G75*
G02*
X24915000Y-86545000I-150000J0D01*
G01*
G37*
%TD.AperFunction*%
%TO.P,U2,19*%
%TO.N,Net-(RN3-Pad3)*%
%TA.AperFunction,SMDPad,CuDef*%
G36*
G01*
X26185000Y-86545000D02*
X25885000Y-86545000D01*
G75*
G02*
X25735000Y-86395000I0J150000D01*
G01*
X25735000Y-84645000D01*
G75*
G02*
X25885000Y-84495000I150000J0D01*
G01*
X26185000Y-84495000D01*
G75*
G02*
X26335000Y-84645000I0J-150000D01*
G01*
X26335000Y-86395000D01*
G75*
G02*
X26185000Y-86545000I-150000J0D01*
G01*
G37*
%TD.AperFunction*%
%TO.P,U2,18*%
%TO.N,Net-(RN3-Pad4)*%
%TA.AperFunction,SMDPad,CuDef*%
G36*
G01*
X27455000Y-86545000D02*
X27155000Y-86545000D01*
G75*
G02*
X27005000Y-86395000I0J150000D01*
G01*
X27005000Y-84645000D01*
G75*
G02*
X27155000Y-84495000I150000J0D01*
G01*
X27455000Y-84495000D01*
G75*
G02*
X27605000Y-84645000I0J-150000D01*
G01*
X27605000Y-86395000D01*
G75*
G02*
X27455000Y-86545000I-150000J0D01*
G01*
G37*
%TD.AperFunction*%
%TO.P,U2,17*%
%TO.N,Net-(RN3-Pad5)*%
%TA.AperFunction,SMDPad,CuDef*%
G36*
G01*
X28725000Y-86545000D02*
X28425000Y-86545000D01*
G75*
G02*
X28275000Y-86395000I0J150000D01*
G01*
X28275000Y-84645000D01*
G75*
G02*
X28425000Y-84495000I150000J0D01*
G01*
X28725000Y-84495000D01*
G75*
G02*
X28875000Y-84645000I0J-150000D01*
G01*
X28875000Y-86395000D01*
G75*
G02*
X28725000Y-86545000I-150000J0D01*
G01*
G37*
%TD.AperFunction*%
%TO.P,U2,16*%
%TO.N,Net-(RN3-Pad6)*%
%TA.AperFunction,SMDPad,CuDef*%
G36*
G01*
X29995000Y-86545000D02*
X29695000Y-86545000D01*
G75*
G02*
X29545000Y-86395000I0J150000D01*
G01*
X29545000Y-84645000D01*
G75*
G02*
X29695000Y-84495000I150000J0D01*
G01*
X29995000Y-84495000D01*
G75*
G02*
X30145000Y-84645000I0J-150000D01*
G01*
X30145000Y-86395000D01*
G75*
G02*
X29995000Y-86545000I-150000J0D01*
G01*
G37*
%TD.AperFunction*%
%TO.P,U2,15*%
%TO.N,Net-(RN3-Pad7)*%
%TA.AperFunction,SMDPad,CuDef*%
G36*
G01*
X31265000Y-86545000D02*
X30965000Y-86545000D01*
G75*
G02*
X30815000Y-86395000I0J150000D01*
G01*
X30815000Y-84645000D01*
G75*
G02*
X30965000Y-84495000I150000J0D01*
G01*
X31265000Y-84495000D01*
G75*
G02*
X31415000Y-84645000I0J-150000D01*
G01*
X31415000Y-86395000D01*
G75*
G02*
X31265000Y-86545000I-150000J0D01*
G01*
G37*
%TD.AperFunction*%
%TO.P,U2,14*%
%TO.N,Net-(RN3-Pad8)*%
%TA.AperFunction,SMDPad,CuDef*%
G36*
G01*
X32535000Y-86545000D02*
X32235000Y-86545000D01*
G75*
G02*
X32085000Y-86395000I0J150000D01*
G01*
X32085000Y-84645000D01*
G75*
G02*
X32235000Y-84495000I150000J0D01*
G01*
X32535000Y-84495000D01*
G75*
G02*
X32685000Y-84645000I0J-150000D01*
G01*
X32685000Y-86395000D01*
G75*
G02*
X32535000Y-86545000I-150000J0D01*
G01*
G37*
%TD.AperFunction*%
%TO.P,U2,13*%
%TO.N,Net-(RN1-Pad10)*%
%TA.AperFunction,SMDPad,CuDef*%
G36*
G01*
X33805000Y-86545000D02*
X33505000Y-86545000D01*
G75*
G02*
X33355000Y-86395000I0J150000D01*
G01*
X33355000Y-84645000D01*
G75*
G02*
X33505000Y-84495000I150000J0D01*
G01*
X33805000Y-84495000D01*
G75*
G02*
X33955000Y-84645000I0J-150000D01*
G01*
X33955000Y-86395000D01*
G75*
G02*
X33805000Y-86545000I-150000J0D01*
G01*
G37*
%TD.AperFunction*%
%TO.P,U2,12*%
%TO.N,Earth*%
%TA.AperFunction,SMDPad,CuDef*%
G36*
G01*
X33805000Y-95845000D02*
X33505000Y-95845000D01*
G75*
G02*
X33355000Y-95695000I0J150000D01*
G01*
X33355000Y-93945000D01*
G75*
G02*
X33505000Y-93795000I150000J0D01*
G01*
X33805000Y-93795000D01*
G75*
G02*
X33955000Y-93945000I0J-150000D01*
G01*
X33955000Y-95695000D01*
G75*
G02*
X33805000Y-95845000I-150000J0D01*
G01*
G37*
%TD.AperFunction*%
%TO.P,U2,11*%
%TO.N,Net-(RN1-Pad9)*%
%TA.AperFunction,SMDPad,CuDef*%
G36*
G01*
X32535000Y-95845000D02*
X32235000Y-95845000D01*
G75*
G02*
X32085000Y-95695000I0J150000D01*
G01*
X32085000Y-93945000D01*
G75*
G02*
X32235000Y-93795000I150000J0D01*
G01*
X32535000Y-93795000D01*
G75*
G02*
X32685000Y-93945000I0J-150000D01*
G01*
X32685000Y-95695000D01*
G75*
G02*
X32535000Y-95845000I-150000J0D01*
G01*
G37*
%TD.AperFunction*%
%TO.P,U2,10*%
%TO.N,Net-(RN1-Pad8)*%
%TA.AperFunction,SMDPad,CuDef*%
G36*
G01*
X31265000Y-95845000D02*
X30965000Y-95845000D01*
G75*
G02*
X30815000Y-95695000I0J150000D01*
G01*
X30815000Y-93945000D01*
G75*
G02*
X30965000Y-93795000I150000J0D01*
G01*
X31265000Y-93795000D01*
G75*
G02*
X31415000Y-93945000I0J-150000D01*
G01*
X31415000Y-95695000D01*
G75*
G02*
X31265000Y-95845000I-150000J0D01*
G01*
G37*
%TD.AperFunction*%
%TO.P,U2,9*%
%TO.N,Net-(RN1-Pad7)*%
%TA.AperFunction,SMDPad,CuDef*%
G36*
G01*
X29995000Y-95845000D02*
X29695000Y-95845000D01*
G75*
G02*
X29545000Y-95695000I0J150000D01*
G01*
X29545000Y-93945000D01*
G75*
G02*
X29695000Y-93795000I150000J0D01*
G01*
X29995000Y-93795000D01*
G75*
G02*
X30145000Y-93945000I0J-150000D01*
G01*
X30145000Y-95695000D01*
G75*
G02*
X29995000Y-95845000I-150000J0D01*
G01*
G37*
%TD.AperFunction*%
%TO.P,U2,8*%
%TO.N,Net-(RN1-Pad6)*%
%TA.AperFunction,SMDPad,CuDef*%
G36*
G01*
X28725000Y-95845000D02*
X28425000Y-95845000D01*
G75*
G02*
X28275000Y-95695000I0J150000D01*
G01*
X28275000Y-93945000D01*
G75*
G02*
X28425000Y-93795000I150000J0D01*
G01*
X28725000Y-93795000D01*
G75*
G02*
X28875000Y-93945000I0J-150000D01*
G01*
X28875000Y-95695000D01*
G75*
G02*
X28725000Y-95845000I-150000J0D01*
G01*
G37*
%TD.AperFunction*%
%TO.P,U2,7*%
%TO.N,Net-(RN1-Pad5)*%
%TA.AperFunction,SMDPad,CuDef*%
G36*
G01*
X27455000Y-95845000D02*
X27155000Y-95845000D01*
G75*
G02*
X27005000Y-95695000I0J150000D01*
G01*
X27005000Y-93945000D01*
G75*
G02*
X27155000Y-93795000I150000J0D01*
G01*
X27455000Y-93795000D01*
G75*
G02*
X27605000Y-93945000I0J-150000D01*
G01*
X27605000Y-95695000D01*
G75*
G02*
X27455000Y-95845000I-150000J0D01*
G01*
G37*
%TD.AperFunction*%
%TO.P,U2,6*%
%TO.N,Net-(RN1-Pad4)*%
%TA.AperFunction,SMDPad,CuDef*%
G36*
G01*
X26185000Y-95845000D02*
X25885000Y-95845000D01*
G75*
G02*
X25735000Y-95695000I0J150000D01*
G01*
X25735000Y-93945000D01*
G75*
G02*
X25885000Y-93795000I150000J0D01*
G01*
X26185000Y-93795000D01*
G75*
G02*
X26335000Y-93945000I0J-150000D01*
G01*
X26335000Y-95695000D01*
G75*
G02*
X26185000Y-95845000I-150000J0D01*
G01*
G37*
%TD.AperFunction*%
%TO.P,U2,5*%
%TO.N,Net-(RN1-Pad3)*%
%TA.AperFunction,SMDPad,CuDef*%
G36*
G01*
X24915000Y-95845000D02*
X24615000Y-95845000D01*
G75*
G02*
X24465000Y-95695000I0J150000D01*
G01*
X24465000Y-93945000D01*
G75*
G02*
X24615000Y-93795000I150000J0D01*
G01*
X24915000Y-93795000D01*
G75*
G02*
X25065000Y-93945000I0J-150000D01*
G01*
X25065000Y-95695000D01*
G75*
G02*
X24915000Y-95845000I-150000J0D01*
G01*
G37*
%TD.AperFunction*%
%TO.P,U2,4*%
%TO.N,Net-(RN1-Pad2)*%
%TA.AperFunction,SMDPad,CuDef*%
G36*
G01*
X23645000Y-95845000D02*
X23345000Y-95845000D01*
G75*
G02*
X23195000Y-95695000I0J150000D01*
G01*
X23195000Y-93945000D01*
G75*
G02*
X23345000Y-93795000I150000J0D01*
G01*
X23645000Y-93795000D01*
G75*
G02*
X23795000Y-93945000I0J-150000D01*
G01*
X23795000Y-95695000D01*
G75*
G02*
X23645000Y-95845000I-150000J0D01*
G01*
G37*
%TD.AperFunction*%
%TO.P,U2,3*%
%TO.N,Earth*%
%TA.AperFunction,SMDPad,CuDef*%
G36*
G01*
X22375000Y-95845000D02*
X22075000Y-95845000D01*
G75*
G02*
X21925000Y-95695000I0J150000D01*
G01*
X21925000Y-93945000D01*
G75*
G02*
X22075000Y-93795000I150000J0D01*
G01*
X22375000Y-93795000D01*
G75*
G02*
X22525000Y-93945000I0J-150000D01*
G01*
X22525000Y-95695000D01*
G75*
G02*
X22375000Y-95845000I-150000J0D01*
G01*
G37*
%TD.AperFunction*%
%TO.P,U2,2*%
%TA.AperFunction,SMDPad,CuDef*%
G36*
G01*
X21105000Y-95845000D02*
X20805000Y-95845000D01*
G75*
G02*
X20655000Y-95695000I0J150000D01*
G01*
X20655000Y-93945000D01*
G75*
G02*
X20805000Y-93795000I150000J0D01*
G01*
X21105000Y-93795000D01*
G75*
G02*
X21255000Y-93945000I0J-150000D01*
G01*
X21255000Y-95695000D01*
G75*
G02*
X21105000Y-95845000I-150000J0D01*
G01*
G37*
%TD.AperFunction*%
%TO.P,U2,1*%
%TO.N,/INT0*%
%TA.AperFunction,SMDPad,CuDef*%
G36*
G01*
X19835000Y-95845000D02*
X19535000Y-95845000D01*
G75*
G02*
X19385000Y-95695000I0J150000D01*
G01*
X19385000Y-93945000D01*
G75*
G02*
X19535000Y-93795000I150000J0D01*
G01*
X19835000Y-93795000D01*
G75*
G02*
X19985000Y-93945000I0J-150000D01*
G01*
X19985000Y-95695000D01*
G75*
G02*
X19835000Y-95845000I-150000J0D01*
G01*
G37*
%TD.AperFunction*%
%TD*%
D15*
%TO.P,U1,1*%
%TO.N,Net-(U1-Pad1)*%
X15240000Y-13970000D03*
%TO.P,U1,2*%
%TO.N,Net-(U1-Pad2)*%
X15240000Y-16510000D03*
D14*
%TO.P,U1,3*%
%TO.N,Net-(U1-Pad3)*%
X15240000Y-19050000D03*
D15*
%TO.P,U1,4*%
%TO.N,Net-(U1-Pad4)*%
X15240000Y-21590000D03*
%TO.P,U1,5*%
%TO.N,Net-(U1-Pad5)*%
X15240000Y-24130000D03*
%TO.P,U1,6*%
%TO.N,Net-(U1-Pad6)*%
X15240000Y-26670000D03*
%TO.P,U1,7*%
%TO.N,Net-(U1-Pad7)*%
X15240000Y-29210000D03*
D14*
%TO.P,U1,8*%
%TO.N,Net-(U1-Pad8)*%
X15240000Y-31750000D03*
D15*
%TO.P,U1,9*%
%TO.N,Net-(U1-Pad9)*%
X15240000Y-34290000D03*
%TO.P,U1,10*%
%TO.N,Net-(U1-Pad10)*%
X15240000Y-36830000D03*
%TO.P,U1,11*%
%TO.N,Net-(U1-Pad11)*%
X15240000Y-39370000D03*
%TO.P,U1,12*%
%TO.N,Net-(U1-Pad12)*%
X15240000Y-41910000D03*
D14*
%TO.P,U1,13*%
%TO.N,Net-(U1-Pad13)*%
X15240000Y-44450000D03*
D15*
%TO.P,U1,14*%
%TO.N,Net-(J2-Pad3)*%
X15240000Y-46990000D03*
%TO.P,U1,15*%
%TO.N,Net-(J2-Pad4)*%
X15240000Y-49530000D03*
%TO.P,U1,16*%
%TO.N,Net-(J2-Pad5)*%
X15240000Y-52070000D03*
%TO.P,U1,17*%
%TO.N,Net-(J2-Pad6)*%
X15240000Y-54610000D03*
D14*
%TO.P,U1,18*%
%TO.N,Net-(U1-Pad18)*%
X15240000Y-57150000D03*
D15*
%TO.P,U1,19*%
%TO.N,Net-(U1-Pad19)*%
X15240000Y-59690000D03*
%TO.P,U1,20*%
%TO.N,Net-(LS1-Pad2)*%
X15240000Y-62230000D03*
%TO.P,U1,21*%
%TO.N,/INT1*%
X33020000Y-62230000D03*
%TO.P,U1,22*%
%TO.N,/INT0*%
X33020000Y-59690000D03*
D14*
%TO.P,U1,23*%
%TO.N,Net-(U1-Pad23)*%
X33020000Y-57150000D03*
D15*
%TO.P,U1,24*%
%TO.N,/SDA1*%
X33020000Y-54610000D03*
%TO.P,U1,25*%
%TO.N,/SCL1*%
X33020000Y-52070000D03*
%TO.P,U1,26*%
%TO.N,/SDA0*%
X33020000Y-49530000D03*
%TO.P,U1,27*%
%TO.N,/SCL0*%
X33020000Y-46990000D03*
D14*
%TO.P,U1,28*%
%TO.N,Net-(U1-Pad28)*%
X33020000Y-44450000D03*
D15*
%TO.P,U1,29*%
%TO.N,Net-(U1-Pad29)*%
X33020000Y-41910000D03*
%TO.P,U1,30*%
%TO.N,Net-(U1-Pad30)*%
X33020000Y-39370000D03*
%TO.P,U1,31*%
%TO.N,Net-(RV1-Pad2)*%
X33020000Y-36830000D03*
%TO.P,U1,32*%
%TO.N,Net-(RV2-Pad2)*%
X33020000Y-34290000D03*
D14*
%TO.P,U1,33*%
%TO.N,Net-(RV1-Pad3)*%
X33020000Y-31750000D03*
D15*
%TO.P,U1,34*%
%TO.N,Net-(U1-Pad34)*%
X33020000Y-29210000D03*
%TO.P,U1,35*%
%TO.N,Net-(RV1-Pad1)*%
X33020000Y-26670000D03*
%TO.P,U1,36*%
%TO.N,Net-(U1-Pad36)*%
X33020000Y-24130000D03*
%TO.P,U1,37*%
%TO.N,Net-(U1-Pad37)*%
X33020000Y-21590000D03*
D14*
%TO.P,U1,38*%
%TO.N,Earth*%
X33020000Y-19050000D03*
D15*
%TO.P,U1,39*%
%TO.N,+5V*%
X33020000Y-16510000D03*
%TO.P,U1,40*%
%TO.N,Net-(U1-Pad40)*%
X33020000Y-13970000D03*
D18*
%TO.P,U1,1*%
%TO.N,Net-(U1-Pad1)*%
X14340000Y-13970000D03*
%TO.P,U1,2*%
%TO.N,Net-(U1-Pad2)*%
X14340000Y-16510000D03*
%TO.P,U1,3*%
%TO.N,Net-(U1-Pad3)*%
X14340000Y-19050000D03*
%TO.P,U1,4*%
%TO.N,Net-(U1-Pad4)*%
X14340000Y-21590000D03*
%TO.P,U1,5*%
%TO.N,Net-(U1-Pad5)*%
X14340000Y-24130000D03*
%TO.P,U1,6*%
%TO.N,Net-(U1-Pad6)*%
X14340000Y-26670000D03*
%TO.P,U1,7*%
%TO.N,Net-(U1-Pad7)*%
X14340000Y-29210000D03*
%TO.P,U1,8*%
%TO.N,Net-(U1-Pad8)*%
X14340000Y-31750000D03*
%TO.P,U1,9*%
%TO.N,Net-(U1-Pad9)*%
X14340000Y-34290000D03*
%TO.P,U1,10*%
%TO.N,Net-(U1-Pad10)*%
X14340000Y-36830000D03*
%TO.P,U1,11*%
%TO.N,Net-(U1-Pad11)*%
X14340000Y-39370000D03*
%TO.P,U1,12*%
%TO.N,Net-(U1-Pad12)*%
X14340000Y-41910000D03*
%TO.P,U1,13*%
%TO.N,Net-(U1-Pad13)*%
X14340000Y-44450000D03*
%TO.P,U1,14*%
%TO.N,Net-(J2-Pad3)*%
X14340000Y-46990000D03*
%TO.P,U1,15*%
%TO.N,Net-(J2-Pad4)*%
X14340000Y-49530000D03*
%TO.P,U1,16*%
%TO.N,Net-(J2-Pad5)*%
X14340000Y-52070000D03*
%TO.P,U1,17*%
%TO.N,Net-(J2-Pad6)*%
X14340000Y-54610000D03*
%TO.P,U1,18*%
%TO.N,Net-(U1-Pad18)*%
X14340000Y-57150000D03*
%TO.P,U1,19*%
%TO.N,Net-(U1-Pad19)*%
X14340000Y-59690000D03*
%TO.P,U1,20*%
%TO.N,Net-(LS1-Pad2)*%
X14340000Y-62230000D03*
%TO.P,U1,40*%
%TO.N,Net-(U1-Pad40)*%
X33920000Y-13970000D03*
%TO.P,U1,39*%
%TO.N,+5V*%
X33920000Y-16510000D03*
%TO.P,U1,38*%
%TO.N,Earth*%
X33920000Y-19050000D03*
%TO.P,U1,37*%
%TO.N,Net-(U1-Pad37)*%
X33920000Y-21590000D03*
%TO.P,U1,36*%
%TO.N,Net-(U1-Pad36)*%
X33920000Y-24130000D03*
%TO.P,U1,35*%
%TO.N,Net-(RV1-Pad1)*%
X33920000Y-26670000D03*
%TO.P,U1,34*%
%TO.N,Net-(U1-Pad34)*%
X33920000Y-29210000D03*
%TO.P,U1,33*%
%TO.N,Net-(RV1-Pad3)*%
X33920000Y-31750000D03*
%TO.P,U1,32*%
%TO.N,Net-(RV2-Pad2)*%
X33920000Y-34290000D03*
%TO.P,U1,31*%
%TO.N,Net-(RV1-Pad2)*%
X33920000Y-36830000D03*
%TO.P,U1,30*%
%TO.N,Net-(U1-Pad30)*%
X33920000Y-39370000D03*
%TO.P,U1,29*%
%TO.N,Net-(U1-Pad29)*%
X33920000Y-41910000D03*
%TO.P,U1,28*%
%TO.N,Net-(U1-Pad28)*%
X33920000Y-44450000D03*
%TO.P,U1,27*%
%TO.N,/SCL0*%
X33920000Y-46990000D03*
%TO.P,U1,26*%
%TO.N,/SDA0*%
X33920000Y-49530000D03*
%TO.P,U1,25*%
%TO.N,/SCL1*%
X33920000Y-52070000D03*
%TO.P,U1,24*%
%TO.N,/SDA1*%
X33920000Y-54610000D03*
%TO.P,U1,23*%
%TO.N,Net-(U1-Pad23)*%
X33920000Y-57150000D03*
%TO.P,U1,22*%
%TO.N,/INT0*%
X33920000Y-59690000D03*
%TO.P,U1,21*%
%TO.N,/INT1*%
X33920000Y-62230000D03*
D19*
%TO.P,U1,41*%
%TO.N,Net-(U1-Pad41)*%
X21590000Y-62900000D03*
D15*
X21590000Y-62000000D03*
D19*
%TO.P,U1,42*%
%TO.N,Net-(U1-Pad42)*%
X24130000Y-62900000D03*
D14*
X24130000Y-62000000D03*
D19*
%TO.P,U1,43*%
%TO.N,Net-(U1-Pad43)*%
X26670000Y-62900000D03*
D15*
X26670000Y-62000000D03*
%TD*%
D17*
%TO.P,SW9,2*%
%TO.N,Earth*%
X77470000Y-170180000D03*
%TO.P,SW9,1*%
%TO.N,Net-(RN1-Pad10)*%
X83820000Y-170180000D03*
%TD*%
%TO.P,SW8,2*%
%TO.N,Earth*%
X77470000Y-158750000D03*
%TO.P,SW8,1*%
%TO.N,Net-(RN1-Pad7)*%
X83820000Y-158750000D03*
%TD*%
%TO.P,SW7,1*%
%TO.N,Net-(RN1-Pad4)*%
X83820000Y-147320000D03*
%TO.P,SW7,2*%
%TO.N,Earth*%
X77470000Y-147320000D03*
%TD*%
%TO.P,SW6,2*%
%TO.N,Earth*%
X64770000Y-170180000D03*
%TO.P,SW6,1*%
%TO.N,Net-(RN1-Pad9)*%
X71120000Y-170180000D03*
%TD*%
%TO.P,SW5,2*%
%TO.N,Earth*%
X64770000Y-158750000D03*
%TO.P,SW5,1*%
%TO.N,Net-(RN1-Pad6)*%
X71120000Y-158750000D03*
%TD*%
%TO.P,SW4,2*%
%TO.N,Earth*%
X64770000Y-147320000D03*
%TO.P,SW4,1*%
%TO.N,Net-(RN1-Pad3)*%
X71120000Y-147320000D03*
%TD*%
%TO.P,SW3,2*%
%TO.N,Earth*%
X52070000Y-170180000D03*
%TO.P,SW3,1*%
%TO.N,Net-(RN1-Pad8)*%
X58420000Y-170180000D03*
%TD*%
%TO.P,SW2,2*%
%TO.N,Earth*%
X52070000Y-158750000D03*
%TO.P,SW2,1*%
%TO.N,Net-(RN1-Pad5)*%
X58420000Y-158750000D03*
%TD*%
%TO.P,SW1,2*%
%TO.N,Earth*%
X52070000Y-147320000D03*
%TO.P,SW1,1*%
%TO.N,Net-(RN1-Pad2)*%
X58420000Y-147320000D03*
%TD*%
D20*
%TO.P,RV2,1*%
%TO.N,Net-(RV1-Pad1)*%
X48260000Y-180340000D03*
D21*
%TO.P,RV2,2*%
%TO.N,Net-(RV2-Pad2)*%
X48260000Y-183840000D03*
%TO.P,RV2,3*%
%TO.N,Net-(RV1-Pad3)*%
X81260000Y-180340000D03*
D22*
%TO.P,RV2,MP*%
%TO.N,N/C*%
X53360000Y-177890000D03*
X76160000Y-177890000D03*
X52160000Y-186290000D03*
X77360000Y-186290000D03*
%TD*%
D20*
%TO.P,RV1,1*%
%TO.N,Net-(RV1-Pad1)*%
X48260000Y-16510000D03*
D21*
%TO.P,RV1,2*%
%TO.N,Net-(RV1-Pad2)*%
X48260000Y-20010000D03*
%TO.P,RV1,3*%
%TO.N,Net-(RV1-Pad3)*%
X81260000Y-16510000D03*
D22*
%TO.P,RV1,MP*%
%TO.N,N/C*%
X53360000Y-14060000D03*
X76160000Y-14060000D03*
X52160000Y-22460000D03*
X77360000Y-22460000D03*
%TD*%
D16*
%TO.P,RN1,1*%
%TO.N,+5V*%
X44450000Y-144780000D03*
D13*
%TO.P,RN1,2*%
%TO.N,Net-(RN1-Pad2)*%
X44450000Y-147320000D03*
%TO.P,RN1,3*%
%TO.N,Net-(RN1-Pad3)*%
X44450000Y-149860000D03*
%TO.P,RN1,4*%
%TO.N,Net-(RN1-Pad4)*%
X44450000Y-152400000D03*
%TO.P,RN1,5*%
%TO.N,Net-(RN1-Pad5)*%
X44450000Y-154940000D03*
%TO.P,RN1,6*%
%TO.N,Net-(RN1-Pad6)*%
X44450000Y-157480000D03*
%TO.P,RN1,7*%
%TO.N,Net-(RN1-Pad7)*%
X44450000Y-160020000D03*
%TO.P,RN1,8*%
%TO.N,Net-(RN1-Pad8)*%
X44450000Y-162560000D03*
%TO.P,RN1,9*%
%TO.N,Net-(RN1-Pad9)*%
X44450000Y-165100000D03*
%TO.P,RN1,10*%
%TO.N,Net-(RN1-Pad10)*%
X44450000Y-167640000D03*
%TD*%
D23*
%TO.P,LS1,1*%
%TO.N,Earth*%
X20320000Y-154940000D03*
D17*
%TO.P,LS1,2*%
%TO.N,Net-(LS1-Pad2)*%
X20320000Y-147340000D03*
%TD*%
D24*
%TO.P,J1,3*%
%TO.N,N/C*%
X22400000Y-81000000D03*
D25*
%TO.P,J1,2*%
%TO.N,Earth*%
X19600000Y-76200000D03*
D26*
%TO.P,J1,1*%
%TO.N,Net-(D1-Pad2)*%
X25400000Y-76200000D03*
%TD*%
D27*
%TO.P,D1,1*%
%TO.N,+5V*%
X31750000Y-72390000D03*
D28*
%TO.P,D1,2*%
%TO.N,Net-(D1-Pad2)*%
X31750000Y-80010000D03*
%TD*%
D29*
%TO.N,+5V*%
X23184800Y-129612000D03*
%TO.N,Earth*%
X34567600Y-139933500D03*
%TO.N,Net-(LS1-Pad2)*%
X13088600Y-95622600D03*
%TO.N,Net-(RN1-Pad10)*%
X33112200Y-87063600D03*
%TO.N,Net-(RN1-Pad9)*%
X36586700Y-103831800D03*
X41335200Y-108352700D03*
%TO.N,Net-(RN1-Pad8)*%
X33294400Y-107111700D03*
X42132900Y-109076200D03*
%TO.N,Net-(RN1-Pad7)*%
X29651800Y-97655700D03*
X42620600Y-138374900D03*
%TO.N,Net-(RN1-Pad6)*%
X28442100Y-92370700D03*
%TO.N,Net-(RN1-Pad5)*%
X27928600Y-93291200D03*
%TO.N,Net-(RN1-Pad4)*%
X25618700Y-96488700D03*
%TO.N,Net-(RN1-Pad3)*%
X27202000Y-102661300D03*
%TO.N,Net-(RN1-Pad2)*%
X24139100Y-107101300D03*
%TO.N,Net-(D2-Pad4)*%
X40120600Y-82503000D03*
X38157800Y-84735100D03*
X24798600Y-98630500D03*
%TO.N,Net-(D2-Pad3)*%
X40295400Y-83759900D03*
X40295400Y-87427000D03*
X26184300Y-102510700D03*
%TO.N,Net-(D2-Pad2)*%
X27301600Y-98922700D03*
%TO.N,Net-(D3-Pad4)*%
X35307100Y-81951000D03*
%TO.N,Net-(D3-Pad3)*%
X29740200Y-102406800D03*
%TO.N,Net-(D3-Pad2)*%
X31149700Y-98101600D03*
%TO.N,Net-(D4-Pad4)*%
X32290200Y-99118200D03*
%TO.N,Net-(D4-Pad3)*%
X38036100Y-81580200D03*
%TO.N,Net-(D4-Pad2)*%
X54594300Y-107822300D03*
X34161800Y-111666700D03*
%TO.N,Net-(D5-Pad4)*%
X49857000Y-110427100D03*
X32444300Y-111754100D03*
%TO.N,Net-(D5-Pad3)*%
X48920100Y-108742900D03*
X32007400Y-108394000D03*
%TO.N,Net-(D5-Pad2)*%
X28785500Y-107661100D03*
%TO.N,Net-(D6-Pad4)*%
X54129900Y-112911300D03*
X28322900Y-113338700D03*
%TO.N,Net-(D6-Pad3)*%
X27259100Y-108398800D03*
%TO.N,Net-(D6-Pad2)*%
X57150000Y-110938700D03*
X26844900Y-111754900D03*
%TO.N,Net-(D7-Pad4)*%
X27353700Y-120341700D03*
%TO.N,Net-(D7-Pad3)*%
X27207500Y-112835300D03*
%TO.N,Net-(D7-Pad2)*%
X53378700Y-113643000D03*
X27267700Y-114360600D03*
%TO.N,Net-(D8-Pad4)*%
X33617000Y-113204800D03*
%TO.N,Net-(D8-Pad3)*%
X32109300Y-113204800D03*
%TO.N,Net-(D8-Pad2)*%
X31106100Y-113204800D03*
%TO.N,Net-(D9-Pad4)*%
X32385000Y-118137900D03*
%TO.N,Net-(D9-Pad3)*%
X35650000Y-115969000D03*
%TO.N,Net-(D9-Pad2)*%
X34606700Y-116236900D03*
%TO.N,Net-(D10-Pad4)*%
X32891300Y-126951600D03*
%TO.N,Net-(D10-Pad3)*%
X31760700Y-122902600D03*
%TO.N,Net-(D10-Pad2)*%
X30740700Y-122652600D03*
%TO.N,Net-(R1-Pad1)*%
X22746600Y-102562400D03*
%TO.N,Net-(RN2-Pad5)*%
X27458400Y-121518800D03*
X36679700Y-97593900D03*
%TO.N,Net-(RN2-Pad4)*%
X25000600Y-117744800D03*
X35446400Y-89007100D03*
%TO.N,Net-(RN2-Pad2)*%
X23099900Y-133766900D03*
X34531000Y-89535000D03*
%TO.N,Net-(RN3-Pad8)*%
X31971800Y-87166800D03*
%TO.N,Net-(RN3-Pad7)*%
X25915100Y-162888500D03*
%TO.N,Net-(RN3-Pad6)*%
X29845000Y-87467000D03*
%TO.N,Net-(RN3-Pad5)*%
X28286900Y-87454800D03*
%TO.N,Net-(RN3-Pad4)*%
X26947700Y-87342900D03*
%TO.N,Net-(RN3-Pad2)*%
X17647600Y-96257600D03*
X24660500Y-89475600D03*
%TO.N,/SDA1*%
X20689100Y-88157700D03*
%TO.N,Net-(R2-Pad1)*%
X22855900Y-114544600D03*
%TO.N,/INT1*%
X19685000Y-135333600D03*
X26131300Y-91763000D03*
%TO.N,/INT0*%
X19651100Y-88153800D03*
%TD*%
D30*
%TO.N,+5V*%
X15240000Y-182880000D02*
X15240000Y-181754700D01*
X19685000Y-131240000D02*
X16365300Y-134559700D01*
X16365300Y-134559700D02*
X16365300Y-180910800D01*
X16365300Y-180910800D02*
X15521400Y-181754700D01*
X15521400Y-181754700D02*
X15240000Y-181754700D01*
X19685000Y-125300000D02*
X19685000Y-131240000D01*
X19685000Y-100760000D02*
X18665400Y-99740400D01*
X18665400Y-99740400D02*
X18665400Y-91150100D01*
X18665400Y-91150100D02*
X16415300Y-88900000D01*
X19685000Y-100760000D02*
X18568700Y-101876300D01*
X18568700Y-101876300D02*
X18568700Y-113030000D01*
X15240000Y-88900000D02*
X16415300Y-88900000D01*
X16415300Y-88900000D02*
X16415300Y-88789700D01*
X16415300Y-88789700D02*
X19685000Y-85520000D01*
X23184800Y-129612000D02*
X23495000Y-129922200D01*
X23495000Y-129922200D02*
X23495000Y-131240000D01*
X44450000Y-29065300D02*
X44168700Y-29065300D01*
X44168700Y-29065300D02*
X36487800Y-36746200D01*
X36487800Y-36746200D02*
X36487800Y-66226900D01*
X36487800Y-66226900D02*
X31750000Y-70964700D01*
X44450000Y-27940000D02*
X44450000Y-29065300D01*
X31750000Y-72390000D02*
X31750000Y-70964700D01*
X19685000Y-124460000D02*
X19685000Y-125300000D01*
X19685000Y-124460000D02*
X19685000Y-116000000D01*
X19685000Y-124460000D02*
X16365300Y-124460000D01*
X15240000Y-124460000D02*
X16365300Y-124460000D01*
X18568700Y-113030000D02*
X18568700Y-114883700D01*
X18568700Y-114883700D02*
X19685000Y-116000000D01*
X18568700Y-113030000D02*
X16365300Y-113030000D01*
X15240000Y-113030000D02*
X16365300Y-113030000D01*
%TO.N,Earth*%
X33655000Y-110060000D02*
X36400200Y-112805200D01*
X36400200Y-112805200D02*
X36400200Y-122554800D01*
X36400200Y-122554800D02*
X33655000Y-125300000D01*
X21590000Y-110060000D02*
X21510600Y-110060000D01*
X22225000Y-110060000D02*
X21590000Y-110060000D01*
X21590000Y-110060000D02*
X21590000Y-124665000D01*
X21590000Y-124665000D02*
X20955000Y-125300000D01*
X21590000Y-124665000D02*
X22225000Y-125300000D01*
X21590000Y-139905000D02*
X22225000Y-140540000D01*
X20955000Y-125300000D02*
X21590000Y-125935000D01*
X21590000Y-125935000D02*
X21590000Y-139905000D01*
X21590000Y-139905000D02*
X20955000Y-140540000D01*
X34567600Y-139933500D02*
X34261500Y-139933500D01*
X34261500Y-139933500D02*
X33011000Y-138683000D01*
X33011000Y-138683000D02*
X33011000Y-127857700D01*
X33011000Y-127857700D02*
X33655000Y-127213700D01*
X33655000Y-127213700D02*
X33655000Y-125300000D01*
X33655000Y-140540000D02*
X34261500Y-139933500D01*
X21510600Y-110060000D02*
X20955000Y-110060000D01*
X21510600Y-110060000D02*
X21510600Y-102095800D01*
X21510600Y-102095800D02*
X21590000Y-102016400D01*
X21590000Y-102016400D02*
X21590000Y-94820000D01*
X21590000Y-94820000D02*
X20955000Y-94820000D01*
X22225000Y-94820000D02*
X21590000Y-94820000D01*
X22225000Y-86942400D02*
X22225000Y-94820000D01*
X64770000Y-164465000D02*
X64770000Y-170180000D01*
X64770000Y-158750000D02*
X64770000Y-164465000D01*
X77470000Y-164465000D02*
X64770000Y-164465000D01*
X77470000Y-164465000D02*
X77470000Y-170180000D01*
X77470000Y-158750000D02*
X77470000Y-164465000D01*
X64770000Y-153035000D02*
X64770000Y-158750000D01*
X21590000Y-86625000D02*
X21590000Y-83779700D01*
X21590000Y-83779700D02*
X19600000Y-81789700D01*
X19600000Y-81789700D02*
X19600000Y-76200000D01*
X22225000Y-86942400D02*
X21907400Y-86942400D01*
X21907400Y-86942400D02*
X21590000Y-86625000D01*
X21590000Y-86625000D02*
X21341000Y-86874000D01*
X21341000Y-86874000D02*
X20560700Y-86874000D01*
X20560700Y-86874000D02*
X20320000Y-86633300D01*
X20320000Y-86633300D02*
X20320000Y-84401200D01*
X20320000Y-84401200D02*
X20063500Y-84144700D01*
X20063500Y-84144700D02*
X18630600Y-84144700D01*
X18630600Y-84144700D02*
X16415300Y-86360000D01*
X15240000Y-86360000D02*
X16415300Y-86360000D01*
X64770000Y-47625000D02*
X77470000Y-47625000D01*
X64770000Y-47625000D02*
X64770000Y-41910000D01*
X77470000Y-47625000D02*
X77470000Y-53340000D01*
X77470000Y-41910000D02*
X77470000Y-47625000D01*
X64770000Y-41910000D02*
X64770000Y-30480000D01*
X64770000Y-47625000D02*
X64770000Y-53340000D01*
X52070000Y-47625000D02*
X64770000Y-47625000D01*
X52070000Y-47625000D02*
X52070000Y-53340000D01*
X52070000Y-41910000D02*
X52070000Y-47625000D01*
X64770000Y-147320000D02*
X64770000Y-153035000D01*
X52070000Y-153035000D02*
X64770000Y-153035000D01*
X52070000Y-153035000D02*
X52070000Y-158750000D01*
X52070000Y-147320000D02*
X52070000Y-153035000D01*
X52070000Y-158750000D02*
X52070000Y-170180000D01*
X33655000Y-94820000D02*
X34286600Y-95451600D01*
X34286600Y-95451600D02*
X34286600Y-109428400D01*
X34286600Y-109428400D02*
X33655000Y-110060000D01*
X77470000Y-30480000D02*
X77470000Y-41910000D01*
X77470000Y-147320000D02*
X77470000Y-158750000D01*
X20320000Y-153614700D02*
X22225000Y-151709700D01*
X22225000Y-151709700D02*
X22225000Y-140540000D01*
X23495000Y-85520000D02*
X23495000Y-85964600D01*
X23495000Y-85964600D02*
X22517200Y-86942400D01*
X22517200Y-86942400D02*
X22225000Y-86942400D01*
X19685000Y-110060000D02*
X20955000Y-110060000D01*
X20320000Y-154940000D02*
X20320000Y-153614700D01*
X29210000Y-165100000D02*
X29210000Y-162560000D01*
X29210000Y-167640000D02*
X29210000Y-165100000D01*
X29210000Y-170180000D02*
X29210000Y-167640000D01*
X29210000Y-172720000D02*
X29210000Y-170180000D01*
X29210000Y-175260000D02*
X29210000Y-172720000D01*
X29210000Y-177800000D02*
X29210000Y-175260000D01*
X52070000Y-30480000D02*
X52070000Y-41910000D01*
%TO.N,Net-(LS1-Pad2)*%
X13088600Y-95622600D02*
X13088600Y-65556700D01*
X13088600Y-65556700D02*
X15240000Y-63405300D01*
X15240000Y-62230000D02*
X15240000Y-63405300D01*
%TO.N,Net-(RN1-Pad10)*%
X33112200Y-87063600D02*
X33655000Y-86520800D01*
X33655000Y-86520800D02*
X33655000Y-85520000D01*
%TO.N,Net-(RN1-Pad9)*%
X32385000Y-94820000D02*
X32385000Y-94349000D01*
X32385000Y-94349000D02*
X33278500Y-93455500D01*
X33278500Y-93455500D02*
X34042200Y-93455500D01*
X34042200Y-93455500D02*
X35954400Y-95367700D01*
X35954400Y-95367700D02*
X35954400Y-103199500D01*
X35954400Y-103199500D02*
X36586700Y-103831800D01*
X44450000Y-163974700D02*
X44168700Y-163974700D01*
X44168700Y-163974700D02*
X41335200Y-161141200D01*
X41335200Y-161141200D02*
X41335200Y-108352700D01*
X44450000Y-165100000D02*
X44450000Y-163974700D01*
%TO.N,Net-(RN1-Pad8)*%
X44450000Y-161434700D02*
X44731300Y-161434700D01*
X44731300Y-161434700D02*
X45622200Y-160543800D01*
X45622200Y-160543800D02*
X45622200Y-112565500D01*
X45622200Y-112565500D02*
X42132900Y-109076200D01*
X33294400Y-107111700D02*
X33020100Y-106837400D01*
X33020100Y-106837400D02*
X33020100Y-98727600D01*
X33020100Y-98727600D02*
X31115000Y-96822500D01*
X31115000Y-96822500D02*
X31115000Y-94820000D01*
X44450000Y-162560000D02*
X44450000Y-161434700D01*
%TO.N,Net-(RN1-Pad7)*%
X29845000Y-94820000D02*
X29845000Y-97462500D01*
X29845000Y-97462500D02*
X29651800Y-97655700D01*
X44450000Y-160020000D02*
X44450000Y-158894700D01*
X44450000Y-158894700D02*
X44168700Y-158894700D01*
X44168700Y-158894700D02*
X42620600Y-157346600D01*
X42620600Y-157346600D02*
X42620600Y-138374900D01*
%TO.N,Net-(RN1-Pad6)*%
X28575000Y-94820000D02*
X28653900Y-94741100D01*
X28653900Y-94741100D02*
X28653900Y-92582500D01*
X28653900Y-92582500D02*
X28442100Y-92370700D01*
%TO.N,Net-(RN1-Pad5)*%
X27305000Y-94820000D02*
X27305000Y-93914800D01*
X27305000Y-93914800D02*
X27928600Y-93291200D01*
%TO.N,Net-(RN1-Pad4)*%
X25618700Y-96488700D02*
X26035000Y-96072400D01*
X26035000Y-96072400D02*
X26035000Y-94820000D01*
%TO.N,Net-(RN1-Pad3)*%
X27202000Y-102661300D02*
X27202000Y-102482300D01*
X27202000Y-102482300D02*
X26670000Y-101950300D01*
X26670000Y-101950300D02*
X26670000Y-99416700D01*
X26670000Y-99416700D02*
X26352400Y-99099100D01*
X26352400Y-99099100D02*
X26352400Y-98276800D01*
X26352400Y-98276800D02*
X24765000Y-96689400D01*
X24765000Y-96689400D02*
X24765000Y-94820000D01*
%TO.N,Net-(RN1-Pad2)*%
X24139100Y-107101300D02*
X24139100Y-99601300D01*
X24139100Y-99601300D02*
X23495000Y-98957200D01*
X23495000Y-98957200D02*
X23495000Y-94820000D01*
%TO.N,Net-(RV1-Pad3)*%
X81260000Y-16510000D02*
X50685300Y-16510000D01*
X50685300Y-16510000D02*
X49460100Y-15284800D01*
X49460100Y-15284800D02*
X47225300Y-15284800D01*
X47225300Y-15284800D02*
X37204700Y-25305400D01*
X37204700Y-25305400D02*
X32223900Y-25305400D01*
X32223900Y-25305400D02*
X31844700Y-25684600D01*
X31844700Y-25684600D02*
X31844700Y-30207500D01*
X31844700Y-30207500D02*
X32211900Y-30574700D01*
X32211900Y-30574700D02*
X33020000Y-30574700D01*
X33020000Y-31750000D02*
X33020000Y-30574700D01*
X81260000Y-16510000D02*
X81260000Y-67135400D01*
X81260000Y-67135400D02*
X82550000Y-68425400D01*
X82550000Y-68425400D02*
X82550000Y-110390000D01*
X82550000Y-110390000D02*
X81260000Y-111680000D01*
X81260000Y-111680000D02*
X81260000Y-180340000D01*
%TO.N,Net-(RV1-Pad1)*%
X48260000Y-179139700D02*
X48194600Y-179074300D01*
X48194600Y-179074300D02*
X48194600Y-108442500D01*
X48194600Y-108442500D02*
X48356100Y-108281000D01*
X48356100Y-108281000D02*
X48356100Y-26302700D01*
X48356100Y-26302700D02*
X34562600Y-26302700D01*
X34562600Y-26302700D02*
X34195300Y-26670000D01*
X48260000Y-17710300D02*
X49460300Y-18910600D01*
X49460300Y-18910600D02*
X49460300Y-25198500D01*
X49460300Y-25198500D02*
X48356100Y-26302700D01*
X33020000Y-26670000D02*
X34195300Y-26670000D01*
X48260000Y-180340000D02*
X48260000Y-179139700D01*
X48260000Y-16510000D02*
X48260000Y-17710300D01*
%TO.N,Net-(RV2-Pad2)*%
X48260000Y-183840000D02*
X47059600Y-182639600D01*
X47059600Y-182639600D02*
X47059600Y-108940600D01*
X47059600Y-108940600D02*
X47905700Y-108094500D01*
X47905700Y-108094500D02*
X47905700Y-29275900D01*
X47905700Y-29275900D02*
X45444400Y-26814600D01*
X45444400Y-26814600D02*
X43457200Y-26814600D01*
X43457200Y-26814600D02*
X35981800Y-34290000D01*
X35981800Y-34290000D02*
X33020000Y-34290000D01*
%TO.N,Net-(D2-Pad4)*%
X24765000Y-100760000D02*
X24798600Y-100726400D01*
X24798600Y-100726400D02*
X24798600Y-98630500D01*
X38157800Y-84735100D02*
X40120600Y-82772300D01*
X40120600Y-82772300D02*
X40120600Y-82503000D01*
%TO.N,Net-(D2-Pad3)*%
X40295400Y-87427000D02*
X40295400Y-83759900D01*
X26035000Y-100760000D02*
X26184300Y-100909300D01*
X26184300Y-100909300D02*
X26184300Y-102510700D01*
%TO.N,Net-(D2-Pad2)*%
X27305000Y-100760000D02*
X27301600Y-100756600D01*
X27301600Y-100756600D02*
X27301600Y-98922700D01*
%TO.N,Net-(D3-Pad4)*%
X35307100Y-81951000D02*
X31698300Y-81951000D01*
X31698300Y-81951000D02*
X29210000Y-84439300D01*
X29210000Y-84439300D02*
X29210000Y-87076300D01*
X29210000Y-87076300D02*
X29119700Y-87166600D01*
X29119700Y-87166600D02*
X29119700Y-87767400D01*
X29119700Y-87767400D02*
X29210000Y-87857700D01*
X29210000Y-87857700D02*
X29210000Y-96459400D01*
X29210000Y-96459400D02*
X28575000Y-97094400D01*
X28575000Y-97094400D02*
X28575000Y-100760000D01*
%TO.N,Net-(D3-Pad3)*%
X29845000Y-100760000D02*
X29845000Y-102302000D01*
X29845000Y-102302000D02*
X29740200Y-102406800D01*
%TO.N,Net-(D3-Pad2)*%
X31115000Y-100760000D02*
X31115000Y-98136300D01*
X31115000Y-98136300D02*
X31149700Y-98101600D01*
%TO.N,Net-(D4-Pad4)*%
X32385000Y-100760000D02*
X32290200Y-100665200D01*
X32290200Y-100665200D02*
X32290200Y-99118200D01*
%TO.N,Net-(D4-Pad3)*%
X33655000Y-100760000D02*
X33655000Y-98481700D01*
X33655000Y-98481700D02*
X31750000Y-96576700D01*
X31750000Y-96576700D02*
X31750000Y-93748400D01*
X31750000Y-93748400D02*
X36229400Y-89269000D01*
X36229400Y-89269000D02*
X36229400Y-84094400D01*
X36229400Y-84094400D02*
X37667700Y-82656100D01*
X37667700Y-82656100D02*
X37667700Y-81948600D01*
X37667700Y-81948600D02*
X38036100Y-81580200D01*
%TO.N,Net-(D4-Pad2)*%
X76200000Y-83820000D02*
X74426900Y-83820000D01*
X74426900Y-83820000D02*
X54594300Y-103652600D01*
X54594300Y-103652600D02*
X54594300Y-107822300D01*
X34161800Y-111666700D02*
X33472000Y-111666700D01*
X33472000Y-111666700D02*
X32385000Y-110579700D01*
X32385000Y-110579700D02*
X32385000Y-110060000D01*
%TO.N,Net-(D5-Pad4)*%
X31115000Y-110060000D02*
X31115000Y-110555800D01*
X31115000Y-110555800D02*
X32313300Y-111754100D01*
X32313300Y-111754100D02*
X32444300Y-111754100D01*
X58420000Y-96520000D02*
X52114600Y-102825400D01*
X52114600Y-102825400D02*
X52114600Y-109639600D01*
X52114600Y-109639600D02*
X51270700Y-110483500D01*
X51270700Y-110483500D02*
X49913400Y-110483500D01*
X49913400Y-110483500D02*
X49857000Y-110427100D01*
%TO.N,Net-(D5-Pad3)*%
X55880000Y-96520000D02*
X48920100Y-103479900D01*
X48920100Y-103479900D02*
X48920100Y-108742900D01*
X29845000Y-110060000D02*
X29845000Y-109578300D01*
X29845000Y-109578300D02*
X31029300Y-108394000D01*
X31029300Y-108394000D02*
X32007400Y-108394000D01*
%TO.N,Net-(D5-Pad2)*%
X28575000Y-110060000D02*
X28575000Y-107871600D01*
X28575000Y-107871600D02*
X28785500Y-107661100D01*
%TO.N,Net-(D6-Pad4)*%
X71120000Y-96520000D02*
X71120000Y-98256500D01*
X71120000Y-98256500D02*
X56465200Y-112911300D01*
X56465200Y-112911300D02*
X54129900Y-112911300D01*
X28322900Y-113338700D02*
X28322900Y-112207100D01*
X28322900Y-112207100D02*
X27305000Y-111189200D01*
X27305000Y-111189200D02*
X27305000Y-110060000D01*
%TO.N,Net-(D6-Pad3)*%
X26035000Y-110060000D02*
X26035000Y-109622900D01*
X26035000Y-109622900D02*
X27259100Y-108398800D01*
%TO.N,Net-(D6-Pad2)*%
X63500000Y-96520000D02*
X57150000Y-102870000D01*
X57150000Y-102870000D02*
X57150000Y-110938700D01*
X24765000Y-110060000D02*
X24765000Y-110496800D01*
X24765000Y-110496800D02*
X26023000Y-111754800D01*
X26023000Y-111754800D02*
X26844900Y-111754800D01*
X26844900Y-111754800D02*
X26844900Y-111754900D01*
%TO.N,Net-(D7-Pad4)*%
X24765000Y-116000000D02*
X24765000Y-116457300D01*
X24765000Y-116457300D02*
X27353700Y-119046000D01*
X27353700Y-119046000D02*
X27353700Y-120341700D01*
%TO.N,Net-(D7-Pad3)*%
X26035000Y-116000000D02*
X26035000Y-114007800D01*
X26035000Y-114007800D02*
X27207500Y-112835300D01*
%TO.N,Net-(D7-Pad2)*%
X76200000Y-96520000D02*
X73570200Y-96520000D01*
X73570200Y-96520000D02*
X56447200Y-113643000D01*
X56447200Y-113643000D02*
X53378700Y-113643000D01*
X27305000Y-116000000D02*
X27267700Y-115962700D01*
X27267700Y-115962700D02*
X27267700Y-114360600D01*
%TO.N,Net-(D8-Pad4)*%
X33617000Y-113204800D02*
X32891700Y-112479500D01*
X32891700Y-112479500D02*
X32043500Y-112479500D01*
X32043500Y-112479500D02*
X31593200Y-112029200D01*
X31593200Y-112029200D02*
X30619100Y-112029200D01*
X30619100Y-112029200D02*
X29930500Y-112717800D01*
X29930500Y-112717800D02*
X29930500Y-113514500D01*
X29930500Y-113514500D02*
X28575000Y-114870000D01*
X28575000Y-114870000D02*
X28575000Y-116000000D01*
%TO.N,Net-(D8-Pad3)*%
X32109300Y-113204800D02*
X32109300Y-113182200D01*
X32109300Y-113182200D02*
X31406600Y-112479500D01*
X31406600Y-112479500D02*
X30805700Y-112479500D01*
X30805700Y-112479500D02*
X30380800Y-112904400D01*
X30380800Y-112904400D02*
X30380800Y-115464200D01*
X30380800Y-115464200D02*
X29845000Y-116000000D01*
%TO.N,Net-(D8-Pad2)*%
X31115000Y-116000000D02*
X31115000Y-113213700D01*
X31115000Y-113213700D02*
X31106100Y-113204800D01*
%TO.N,Net-(D9-Pad4)*%
X32385000Y-116000000D02*
X32385000Y-118137900D01*
%TO.N,Net-(D9-Pad3)*%
X33655000Y-116000000D02*
X34143500Y-115511500D01*
X34143500Y-115511500D02*
X35192500Y-115511500D01*
X35192500Y-115511500D02*
X35650000Y-115969000D01*
%TO.N,Net-(D9-Pad2)*%
X32385000Y-125300000D02*
X32385000Y-124654300D01*
X32385000Y-124654300D02*
X34606700Y-122432600D01*
X34606700Y-122432600D02*
X34606700Y-116236900D01*
%TO.N,Net-(D10-Pad4)*%
X31115000Y-125300000D02*
X31115000Y-125780900D01*
X31115000Y-125780900D02*
X32285700Y-126951600D01*
X32285700Y-126951600D02*
X32891300Y-126951600D01*
%TO.N,Net-(D10-Pad3)*%
X29845000Y-125300000D02*
X29845000Y-124818300D01*
X29845000Y-124818300D02*
X31760700Y-122902600D01*
%TO.N,Net-(D10-Pad2)*%
X28575000Y-125300000D02*
X28575000Y-124818300D01*
X28575000Y-124818300D02*
X30740700Y-122652600D01*
%TO.N,Net-(R1-Pad1)*%
X23495000Y-100760000D02*
X23495000Y-101814000D01*
X23495000Y-101814000D02*
X22746600Y-102562400D01*
%TO.N,Net-(RN2-Pad10)*%
X44450000Y-50800000D02*
X44450000Y-51925300D01*
X44450000Y-51925300D02*
X41020700Y-55354600D01*
X41020700Y-55354600D02*
X41020700Y-88152400D01*
X41020700Y-88152400D02*
X37542400Y-91630700D01*
X37542400Y-91630700D02*
X37542400Y-127352600D01*
X37542400Y-127352600D02*
X33655000Y-131240000D01*
%TO.N,Net-(RN2-Pad9)*%
X32385000Y-140540000D02*
X32385000Y-141040600D01*
X32385000Y-141040600D02*
X33254100Y-141909700D01*
X33254100Y-141909700D02*
X33995200Y-141909700D01*
X33995200Y-141909700D02*
X37992800Y-137912100D01*
X37992800Y-137912100D02*
X37992800Y-94344300D01*
X37992800Y-94344300D02*
X41471100Y-90866000D01*
X41471100Y-90866000D02*
X41471100Y-76274000D01*
X41471100Y-76274000D02*
X45621100Y-72124000D01*
X45621100Y-72124000D02*
X45621100Y-50308300D01*
X45621100Y-50308300D02*
X44698100Y-49385300D01*
X44698100Y-49385300D02*
X44450000Y-49385300D01*
X44450000Y-48260000D02*
X44450000Y-49385300D01*
%TO.N,Net-(RN2-Pad8)*%
X31115000Y-140540000D02*
X31115000Y-141052400D01*
X31115000Y-141052400D02*
X32422600Y-142360000D01*
X32422600Y-142360000D02*
X34181800Y-142360000D01*
X34181800Y-142360000D02*
X38443100Y-138098700D01*
X38443100Y-138098700D02*
X38443100Y-94530900D01*
X38443100Y-94530900D02*
X41921400Y-91052600D01*
X41921400Y-91052600D02*
X41921400Y-76460600D01*
X41921400Y-76460600D02*
X46071400Y-72310600D01*
X46071400Y-72310600D02*
X46071400Y-48251000D01*
X46071400Y-48251000D02*
X44665700Y-46845300D01*
X44665700Y-46845300D02*
X44450000Y-46845300D01*
X44450000Y-45720000D02*
X44450000Y-46845300D01*
%TO.N,Net-(RN2-Pad7)*%
X44450000Y-44305300D02*
X44665700Y-44305300D01*
X44665700Y-44305300D02*
X46521700Y-46161300D01*
X46521700Y-46161300D02*
X46521700Y-72497200D01*
X46521700Y-72497200D02*
X42371700Y-76647200D01*
X42371700Y-76647200D02*
X42371700Y-101863900D01*
X42371700Y-101863900D02*
X38893400Y-105342200D01*
X38893400Y-105342200D02*
X38893400Y-138285300D01*
X38893400Y-138285300D02*
X34368400Y-142810300D01*
X34368400Y-142810300D02*
X31614200Y-142810300D01*
X31614200Y-142810300D02*
X29845000Y-141041100D01*
X29845000Y-141041100D02*
X29845000Y-140540000D01*
X44450000Y-43180000D02*
X44450000Y-44305300D01*
%TO.N,Net-(RN2-Pad6)*%
X44450000Y-41765300D02*
X44665700Y-41765300D01*
X44665700Y-41765300D02*
X46972000Y-44071600D01*
X46972000Y-44071600D02*
X46972000Y-72683800D01*
X46972000Y-72683800D02*
X42822000Y-76833800D01*
X42822000Y-76833800D02*
X42822000Y-102050500D01*
X42822000Y-102050500D02*
X39343700Y-105528800D01*
X39343700Y-105528800D02*
X39343700Y-138472100D01*
X39343700Y-138472100D02*
X34555200Y-143260600D01*
X34555200Y-143260600D02*
X30839700Y-143260600D01*
X30839700Y-143260600D02*
X28575000Y-140995900D01*
X28575000Y-140995900D02*
X28575000Y-140540000D01*
X44450000Y-40640000D02*
X44450000Y-41765300D01*
%TO.N,Net-(RN2-Pad5)*%
X36679700Y-97593900D02*
X36679700Y-84281000D01*
X36679700Y-84281000D02*
X38336500Y-82624200D01*
X38336500Y-82624200D02*
X38336500Y-82305500D01*
X38336500Y-82305500D02*
X38336600Y-82305500D01*
X38336600Y-82305500D02*
X39475400Y-81166700D01*
X39475400Y-81166700D02*
X39475400Y-43918600D01*
X39475400Y-43918600D02*
X44168700Y-39225300D01*
X44168700Y-39225300D02*
X44450000Y-39225300D01*
X27305000Y-140540000D02*
X26670000Y-139905000D01*
X26670000Y-139905000D02*
X26670000Y-122307200D01*
X26670000Y-122307200D02*
X27458400Y-121518800D01*
X44450000Y-38100000D02*
X44450000Y-39225300D01*
%TO.N,Net-(RN2-Pad4)*%
X26035000Y-140540000D02*
X25391000Y-139896000D01*
X25391000Y-139896000D02*
X25391000Y-118135200D01*
X25391000Y-118135200D02*
X25000600Y-117744800D01*
X35446400Y-89007100D02*
X35446400Y-84240500D01*
X35446400Y-84240500D02*
X37046800Y-82640100D01*
X37046800Y-82640100D02*
X37046800Y-80906800D01*
X37046800Y-80906800D02*
X38815800Y-79137800D01*
X38815800Y-79137800D02*
X38815800Y-42038100D01*
X38815800Y-42038100D02*
X44168600Y-36685300D01*
X44168600Y-36685300D02*
X44450000Y-36685300D01*
X44450000Y-35560000D02*
X44450000Y-36685300D01*
%TO.N,Net-(RN2-Pad3)*%
X44450000Y-33020000D02*
X44450000Y-34145300D01*
X44450000Y-34145300D02*
X44731300Y-34145300D01*
X44731300Y-34145300D02*
X47455300Y-36869300D01*
X47455300Y-36869300D02*
X47455300Y-78005100D01*
X47455300Y-78005100D02*
X43324600Y-82135800D01*
X43324600Y-82135800D02*
X43324600Y-104804000D01*
X43324600Y-104804000D02*
X40042700Y-108085900D01*
X40042700Y-108085900D02*
X40042700Y-149836400D01*
X40042700Y-149836400D02*
X26263000Y-163616100D01*
X26263000Y-163616100D02*
X25592000Y-163616100D01*
X25592000Y-163616100D02*
X24765000Y-162789100D01*
X24765000Y-162789100D02*
X24765000Y-140540000D01*
%TO.N,Net-(RN2-Pad2)*%
X44450000Y-31605300D02*
X44168700Y-31605300D01*
X44168700Y-31605300D02*
X37129800Y-38644200D01*
X37129800Y-38644200D02*
X37129800Y-67055600D01*
X37129800Y-67055600D02*
X36542000Y-67643400D01*
X36542000Y-67643400D02*
X36542000Y-82189600D01*
X36542000Y-82189600D02*
X34531000Y-84200600D01*
X34531000Y-84200600D02*
X34531000Y-89535000D01*
X44450000Y-30480000D02*
X44450000Y-31605300D01*
X23099900Y-133766900D02*
X23099900Y-140144900D01*
X23099900Y-140144900D02*
X23495000Y-140540000D01*
%TO.N,Net-(RN3-Pad8)*%
X32385000Y-85520000D02*
X32385000Y-86753600D01*
X32385000Y-86753600D02*
X31971800Y-87166800D01*
%TO.N,Net-(RN3-Pad7)*%
X25915100Y-162888500D02*
X27940100Y-160863500D01*
X27940100Y-160863500D02*
X27940100Y-122062900D01*
X27940100Y-122062900D02*
X28220900Y-121782100D01*
X28220900Y-121782100D02*
X28220900Y-117354600D01*
X28220900Y-117354600D02*
X27940100Y-117073800D01*
X27940100Y-117073800D02*
X27940100Y-114747300D01*
X27940100Y-114747300D02*
X29048200Y-113639200D01*
X29048200Y-113639200D02*
X29048200Y-112295500D01*
X29048200Y-112295500D02*
X27940200Y-111187500D01*
X27940200Y-111187500D02*
X27940200Y-108845500D01*
X27940200Y-108845500D02*
X28014000Y-108771700D01*
X28014000Y-108771700D02*
X28014000Y-105158800D01*
X28014000Y-105158800D02*
X30489100Y-102683700D01*
X30489100Y-102683700D02*
X30489100Y-98466700D01*
X30489100Y-98466700D02*
X30393500Y-98371100D01*
X30393500Y-98371100D02*
X30393500Y-96195200D01*
X30393500Y-96195200D02*
X30479900Y-96108800D01*
X30479900Y-96108800D02*
X30479900Y-87857900D01*
X30479900Y-87857900D02*
X31115000Y-87222800D01*
X31115000Y-87222800D02*
X31115000Y-85520000D01*
%TO.N,Net-(RN3-Pad6)*%
X29845000Y-85520000D02*
X29845000Y-87467000D01*
%TO.N,Net-(RN3-Pad5)*%
X28575000Y-85520000D02*
X28286900Y-85808100D01*
X28286900Y-85808100D02*
X28286900Y-87454800D01*
%TO.N,Net-(RN3-Pad4)*%
X27305000Y-85520000D02*
X27305000Y-86985600D01*
X27305000Y-86985600D02*
X26947700Y-87342900D01*
%TO.N,Net-(RN3-Pad3)*%
X21590000Y-174134700D02*
X21871300Y-174134700D01*
X21871300Y-174134700D02*
X24137900Y-171868100D01*
X24137900Y-171868100D02*
X24137900Y-108726900D01*
X24137900Y-108726900D02*
X25403200Y-107461600D01*
X25403200Y-107461600D02*
X25403200Y-99080700D01*
X25403200Y-99080700D02*
X25528000Y-98955900D01*
X25528000Y-98955900D02*
X25528000Y-98207800D01*
X25528000Y-98207800D02*
X24130000Y-96809800D01*
X24130000Y-96809800D02*
X24130000Y-92004900D01*
X24130000Y-92004900D02*
X25405900Y-90729000D01*
X25405900Y-90729000D02*
X25405900Y-86149100D01*
X25405900Y-86149100D02*
X26035000Y-85520000D01*
X21590000Y-175260000D02*
X21590000Y-174134700D01*
%TO.N,Net-(RN3-Pad2)*%
X24765000Y-85520000D02*
X24765000Y-89371100D01*
X24765000Y-89371100D02*
X24660500Y-89475600D01*
X15240000Y-180340000D02*
X15240000Y-179214700D01*
X17647600Y-96257600D02*
X17647600Y-99584600D01*
X17647600Y-99584600D02*
X14114700Y-103117500D01*
X14114700Y-103117500D02*
X14114700Y-178370800D01*
X14114700Y-178370800D02*
X14958600Y-179214700D01*
X14958600Y-179214700D02*
X15240000Y-179214700D01*
%TO.N,/SDA1*%
X20689100Y-88157700D02*
X20320000Y-88526800D01*
X20320000Y-88526800D02*
X20320000Y-100125000D01*
X20320000Y-100125000D02*
X20955000Y-100760000D01*
X20955000Y-131240000D02*
X20320000Y-130605000D01*
X20320000Y-130605000D02*
X20320000Y-116635000D01*
X20320000Y-116635000D02*
X20955000Y-116000000D01*
X20955000Y-100760000D02*
X20955000Y-105237300D01*
X20955000Y-105237300D02*
X19039100Y-107153200D01*
X19039100Y-107153200D02*
X19039100Y-111120000D01*
X19039100Y-111120000D02*
X20955000Y-113035900D01*
X20955000Y-113035900D02*
X20955000Y-116000000D01*
%TO.N,/SCL1*%
X22225000Y-100760000D02*
X22860000Y-100125000D01*
X22860000Y-100125000D02*
X22860000Y-88725100D01*
X22860000Y-88725100D02*
X24139000Y-87446100D01*
X24139000Y-87446100D02*
X24139000Y-83374200D01*
X24139000Y-83374200D02*
X29874200Y-77639000D01*
X29874200Y-77639000D02*
X29874200Y-55583100D01*
X29874200Y-55583100D02*
X32212000Y-53245300D01*
X32212000Y-53245300D02*
X33020000Y-53245300D01*
X33020000Y-52070000D02*
X33020000Y-53245300D01*
X22225000Y-116000000D02*
X22130600Y-115905600D01*
X22130600Y-115905600D02*
X22130600Y-114065400D01*
X22130600Y-114065400D02*
X22851000Y-113345000D01*
X22851000Y-113345000D02*
X22851000Y-104074400D01*
X22851000Y-104074400D02*
X22020700Y-103244100D01*
X22020700Y-103244100D02*
X22020700Y-102222600D01*
X22020700Y-102222600D02*
X22225000Y-102018300D01*
X22225000Y-102018300D02*
X22225000Y-100760000D01*
X22225000Y-116000000D02*
X22860000Y-116635000D01*
X22860000Y-116635000D02*
X22860000Y-127167700D01*
X22860000Y-127167700D02*
X22225000Y-127802700D01*
X22225000Y-127802700D02*
X22225000Y-131240000D01*
%TO.N,/SDA0*%
X33020000Y-49530000D02*
X34507800Y-49530000D01*
X34507800Y-49530000D02*
X35995400Y-48042400D01*
X35995400Y-48042400D02*
X35995400Y-45953800D01*
X35995400Y-45953800D02*
X35856200Y-45814600D01*
X35856200Y-45814600D02*
X32014900Y-45814600D01*
X32014900Y-45814600D02*
X18369800Y-59459700D01*
X18369800Y-59459700D02*
X18369800Y-81279900D01*
X18369800Y-81279900D02*
X20955000Y-83865100D01*
X20955000Y-83865100D02*
X20955000Y-85520000D01*
%TO.N,/SCL0*%
X33020000Y-46990000D02*
X33020000Y-48165300D01*
X33020000Y-48165300D02*
X32212000Y-48165300D01*
X32212000Y-48165300D02*
X29423800Y-50953500D01*
X29423800Y-50953500D02*
X29423800Y-76828700D01*
X29423800Y-76828700D02*
X22225000Y-84027500D01*
X22225000Y-84027500D02*
X22225000Y-85520000D01*
%TO.N,Net-(J2-Pad6)*%
X15240000Y-54610000D02*
X13752200Y-54610000D01*
X13752200Y-54610000D02*
X12263700Y-56098500D01*
X12263700Y-56098500D02*
X12263700Y-95823400D01*
X12263700Y-95823400D02*
X14325000Y-97884700D01*
X14325000Y-97884700D02*
X15240000Y-97884700D01*
X15240000Y-99060000D02*
X15240000Y-97884700D01*
%TO.N,Net-(J2-Pad5)*%
X15240000Y-53245300D02*
X16048100Y-53245300D01*
X16048100Y-53245300D02*
X16415300Y-53612500D01*
X16415300Y-53612500D02*
X16415300Y-64127000D01*
X16415300Y-64127000D02*
X13589000Y-66953300D01*
X13589000Y-66953300D02*
X13589000Y-94004300D01*
X13589000Y-94004300D02*
X14929400Y-95344700D01*
X14929400Y-95344700D02*
X15240000Y-95344700D01*
X15240000Y-96520000D02*
X15240000Y-95344700D01*
X15240000Y-52070000D02*
X15240000Y-53245300D01*
%TO.N,Net-(J2-Pad3)*%
X15240000Y-91440000D02*
X15240000Y-90264700D01*
X15240000Y-46990000D02*
X15240000Y-48165300D01*
X15240000Y-48165300D02*
X16048000Y-48165300D01*
X16048000Y-48165300D02*
X16865700Y-48983000D01*
X16865700Y-48983000D02*
X16865700Y-80348900D01*
X16865700Y-80348900D02*
X14064700Y-83149900D01*
X14064700Y-83149900D02*
X14064700Y-89456800D01*
X14064700Y-89456800D02*
X14872600Y-90264700D01*
X14872600Y-90264700D02*
X15240000Y-90264700D01*
%TO.N,Net-(R2-Pad1)*%
X23495000Y-116000000D02*
X22855900Y-115360900D01*
X22855900Y-115360900D02*
X22855900Y-114544600D01*
%TO.N,/INT1*%
X26131300Y-91763000D02*
X26131300Y-87133600D01*
X26131300Y-87133600D02*
X26670000Y-86594900D01*
X26670000Y-86594900D02*
X26670000Y-82738700D01*
X26670000Y-82738700D02*
X30324600Y-79084100D01*
X30324600Y-79084100D02*
X30324600Y-66100700D01*
X30324600Y-66100700D02*
X33020000Y-63405300D01*
X19685000Y-140540000D02*
X19685000Y-135333600D01*
X33020000Y-62230000D02*
X33020000Y-63405300D01*
%TO.N,/INT0*%
X19685000Y-94820000D02*
X19685000Y-88187700D01*
X19685000Y-88187700D02*
X19651100Y-88153800D01*
%TD*%
M02*
