%TF.GenerationSoftware,KiCad,Pcbnew,(5.1.10)-1*%
%TF.CreationDate,2021-08-13T19:33:17-04:00*%
%TF.ProjectId,RICM_pico,5249434d-5f70-4696-936f-2e6b69636164,rev?*%
%TF.SameCoordinates,Original*%
%TF.FileFunction,Copper,L1,Top*%
%TF.FilePolarity,Positive*%
%FSLAX46Y46*%
G04 Gerber Fmt 4.6, Leading zero omitted, Abs format (unit mm)*
G04 Created by KiCad (PCBNEW (5.1.10)-1) date 2021-08-13 19:33:17*
%MOMM*%
%LPD*%
G01*
G04 APERTURE LIST*
%ADD10C,0.100000*%
%ADD11C,0.150000*%
%ADD12C,0.300000*%
%ADD13C,0.400000*%
%TA.AperFunction,ComponentPad*%
%ADD14C,2.000000*%
%TD*%
%TA.AperFunction,ComponentPad*%
%ADD15R,2.000000X2.000000*%
%TD*%
%TA.AperFunction,ComponentPad*%
%ADD16O,1.700000X1.700000*%
%TD*%
%TA.AperFunction,ComponentPad*%
%ADD17R,1.700000X1.700000*%
%TD*%
%TA.AperFunction,ComponentPad*%
%ADD18C,1.600000*%
%TD*%
%TA.AperFunction,ComponentPad*%
%ADD19C,1.750000*%
%TD*%
%TA.AperFunction,ComponentPad*%
%ADD20R,1.750000X1.750000*%
%TD*%
%TA.AperFunction,ComponentPad*%
%ADD21C,1.100000*%
%TD*%
%TA.AperFunction,ComponentPad*%
%ADD22R,1.100000X1.100000*%
%TD*%
%TA.AperFunction,ComponentPad*%
%ADD23O,1.400000X1.400000*%
%TD*%
%TA.AperFunction,ComponentPad*%
%ADD24C,1.400000*%
%TD*%
%TA.AperFunction,ComponentPad*%
%ADD25C,2.750000*%
%TD*%
%TA.AperFunction,ComponentPad*%
%ADD26C,1.524000*%
%TD*%
%TA.AperFunction,ComponentPad*%
%ADD27O,1.600000X1.600000*%
%TD*%
%TA.AperFunction,ComponentPad*%
%ADD28R,1.600000X1.600000*%
%TD*%
%TA.AperFunction,ComponentPad*%
%ADD29C,1.500000*%
%TD*%
%TA.AperFunction,SMDPad,CuDef*%
%ADD30R,3.500000X1.700000*%
%TD*%
%TA.AperFunction,SMDPad,CuDef*%
%ADD31R,1.700000X3.500000*%
%TD*%
%TA.AperFunction,ViaPad*%
%ADD32C,0.800000*%
%TD*%
%TA.AperFunction,ViaPad*%
%ADD33C,4.000000*%
%TD*%
%TA.AperFunction,Conductor*%
%ADD34C,1.000000*%
%TD*%
%TA.AperFunction,Conductor*%
%ADD35C,0.500000*%
%TD*%
%TA.AperFunction,Conductor*%
%ADD36C,0.250000*%
%TD*%
G04 APERTURE END LIST*
D10*
D11*
X177002200Y-166007200D02*
X177002200Y-198007200D01*
X285002200Y-198007200D01*
X285002200Y-166007200D01*
X177002200Y-166007200D01*
D10*
D11*
X10000000Y-10000000D02*
X10000000Y-200007200D01*
X287002200Y-200007200D01*
X287002200Y-10000000D01*
X10000000Y-10000000D01*
D10*
D11*
X12000000Y-12000000D02*
X12000000Y-198007200D01*
X285002200Y-198007200D01*
X285002200Y-12000000D01*
X12000000Y-12000000D01*
D10*
D11*
X60000000Y-12000000D02*
X60000000Y-10000000D01*
D10*
D11*
X110000000Y-12000000D02*
X110000000Y-10000000D01*
D10*
D11*
X160000000Y-12000000D02*
X160000000Y-10000000D01*
D10*
D11*
X210000000Y-12000000D02*
X210000000Y-10000000D01*
D10*
D11*
X260000000Y-12000000D02*
X260000000Y-10000000D01*
D10*
D11*
X36065476Y-11588095D02*
X35322619Y-11588095D01*
X35694047Y-11588095D02*
X35694047Y-10288095D01*
X35570238Y-10473809D01*
X35446428Y-10597619D01*
X35322619Y-10659523D01*
D10*
D11*
X85322619Y-10411904D02*
X85384523Y-10350000D01*
X85508333Y-10288095D01*
X85817857Y-10288095D01*
X85941666Y-10350000D01*
X86003571Y-10411904D01*
X86065476Y-10535714D01*
X86065476Y-10659523D01*
X86003571Y-10845238D01*
X85260714Y-11588095D01*
X86065476Y-11588095D01*
D10*
D11*
X135260714Y-10288095D02*
X136065476Y-10288095D01*
X135632142Y-10783333D01*
X135817857Y-10783333D01*
X135941666Y-10845238D01*
X136003571Y-10907142D01*
X136065476Y-11030952D01*
X136065476Y-11340476D01*
X136003571Y-11464285D01*
X135941666Y-11526190D01*
X135817857Y-11588095D01*
X135446428Y-11588095D01*
X135322619Y-11526190D01*
X135260714Y-11464285D01*
D10*
D11*
X185941666Y-10721428D02*
X185941666Y-11588095D01*
X185632142Y-10226190D02*
X185322619Y-11154761D01*
X186127380Y-11154761D01*
D10*
D11*
X236003571Y-10288095D02*
X235384523Y-10288095D01*
X235322619Y-10907142D01*
X235384523Y-10845238D01*
X235508333Y-10783333D01*
X235817857Y-10783333D01*
X235941666Y-10845238D01*
X236003571Y-10907142D01*
X236065476Y-11030952D01*
X236065476Y-11340476D01*
X236003571Y-11464285D01*
X235941666Y-11526190D01*
X235817857Y-11588095D01*
X235508333Y-11588095D01*
X235384523Y-11526190D01*
X235322619Y-11464285D01*
D10*
D11*
X285941666Y-10288095D02*
X285694047Y-10288095D01*
X285570238Y-10350000D01*
X285508333Y-10411904D01*
X285384523Y-10597619D01*
X285322619Y-10845238D01*
X285322619Y-11340476D01*
X285384523Y-11464285D01*
X285446428Y-11526190D01*
X285570238Y-11588095D01*
X285817857Y-11588095D01*
X285941666Y-11526190D01*
X286003571Y-11464285D01*
X286065476Y-11340476D01*
X286065476Y-11030952D01*
X286003571Y-10907142D01*
X285941666Y-10845238D01*
X285817857Y-10783333D01*
X285570238Y-10783333D01*
X285446428Y-10845238D01*
X285384523Y-10907142D01*
X285322619Y-11030952D01*
D10*
D11*
X60000000Y-198007200D02*
X60000000Y-200007200D01*
D10*
D11*
X110000000Y-198007200D02*
X110000000Y-200007200D01*
D10*
D11*
X160000000Y-198007200D02*
X160000000Y-200007200D01*
D10*
D11*
X210000000Y-198007200D02*
X210000000Y-200007200D01*
D10*
D11*
X260000000Y-198007200D02*
X260000000Y-200007200D01*
D10*
D11*
X36065476Y-199595295D02*
X35322619Y-199595295D01*
X35694047Y-199595295D02*
X35694047Y-198295295D01*
X35570238Y-198481009D01*
X35446428Y-198604819D01*
X35322619Y-198666723D01*
D10*
D11*
X85322619Y-198419104D02*
X85384523Y-198357200D01*
X85508333Y-198295295D01*
X85817857Y-198295295D01*
X85941666Y-198357200D01*
X86003571Y-198419104D01*
X86065476Y-198542914D01*
X86065476Y-198666723D01*
X86003571Y-198852438D01*
X85260714Y-199595295D01*
X86065476Y-199595295D01*
D10*
D11*
X135260714Y-198295295D02*
X136065476Y-198295295D01*
X135632142Y-198790533D01*
X135817857Y-198790533D01*
X135941666Y-198852438D01*
X136003571Y-198914342D01*
X136065476Y-199038152D01*
X136065476Y-199347676D01*
X136003571Y-199471485D01*
X135941666Y-199533390D01*
X135817857Y-199595295D01*
X135446428Y-199595295D01*
X135322619Y-199533390D01*
X135260714Y-199471485D01*
D10*
D11*
X185941666Y-198728628D02*
X185941666Y-199595295D01*
X185632142Y-198233390D02*
X185322619Y-199161961D01*
X186127380Y-199161961D01*
D10*
D11*
X236003571Y-198295295D02*
X235384523Y-198295295D01*
X235322619Y-198914342D01*
X235384523Y-198852438D01*
X235508333Y-198790533D01*
X235817857Y-198790533D01*
X235941666Y-198852438D01*
X236003571Y-198914342D01*
X236065476Y-199038152D01*
X236065476Y-199347676D01*
X236003571Y-199471485D01*
X235941666Y-199533390D01*
X235817857Y-199595295D01*
X235508333Y-199595295D01*
X235384523Y-199533390D01*
X235322619Y-199471485D01*
D10*
D11*
X285941666Y-198295295D02*
X285694047Y-198295295D01*
X285570238Y-198357200D01*
X285508333Y-198419104D01*
X285384523Y-198604819D01*
X285322619Y-198852438D01*
X285322619Y-199347676D01*
X285384523Y-199471485D01*
X285446428Y-199533390D01*
X285570238Y-199595295D01*
X285817857Y-199595295D01*
X285941666Y-199533390D01*
X286003571Y-199471485D01*
X286065476Y-199347676D01*
X286065476Y-199038152D01*
X286003571Y-198914342D01*
X285941666Y-198852438D01*
X285817857Y-198790533D01*
X285570238Y-198790533D01*
X285446428Y-198852438D01*
X285384523Y-198914342D01*
X285322619Y-199038152D01*
D10*
D11*
X10000000Y-60000000D02*
X12000000Y-60000000D01*
D10*
D11*
X10000000Y-110000000D02*
X12000000Y-110000000D01*
D10*
D11*
X10000000Y-160000000D02*
X12000000Y-160000000D01*
D10*
D11*
X10690476Y-35216666D02*
X11309523Y-35216666D01*
X10566666Y-35588095D02*
X11000000Y-34288095D01*
X11433333Y-35588095D01*
D10*
D11*
X11092857Y-84907142D02*
X11278571Y-84969047D01*
X11340476Y-85030952D01*
X11402380Y-85154761D01*
X11402380Y-85340476D01*
X11340476Y-85464285D01*
X11278571Y-85526190D01*
X11154761Y-85588095D01*
X10659523Y-85588095D01*
X10659523Y-84288095D01*
X11092857Y-84288095D01*
X11216666Y-84350000D01*
X11278571Y-84411904D01*
X11340476Y-84535714D01*
X11340476Y-84659523D01*
X11278571Y-84783333D01*
X11216666Y-84845238D01*
X11092857Y-84907142D01*
X10659523Y-84907142D01*
D10*
D11*
X11402380Y-135464285D02*
X11340476Y-135526190D01*
X11154761Y-135588095D01*
X11030952Y-135588095D01*
X10845238Y-135526190D01*
X10721428Y-135402380D01*
X10659523Y-135278571D01*
X10597619Y-135030952D01*
X10597619Y-134845238D01*
X10659523Y-134597619D01*
X10721428Y-134473809D01*
X10845238Y-134350000D01*
X11030952Y-134288095D01*
X11154761Y-134288095D01*
X11340476Y-134350000D01*
X11402380Y-134411904D01*
D10*
D11*
X10659523Y-185588095D02*
X10659523Y-184288095D01*
X10969047Y-184288095D01*
X11154761Y-184350000D01*
X11278571Y-184473809D01*
X11340476Y-184597619D01*
X11402380Y-184845238D01*
X11402380Y-185030952D01*
X11340476Y-185278571D01*
X11278571Y-185402380D01*
X11154761Y-185526190D01*
X10969047Y-185588095D01*
X10659523Y-185588095D01*
D10*
D11*
X287002200Y-60000000D02*
X285002200Y-60000000D01*
D10*
D11*
X287002200Y-110000000D02*
X285002200Y-110000000D01*
D10*
D11*
X287002200Y-160000000D02*
X285002200Y-160000000D01*
D10*
D11*
X285692676Y-35216666D02*
X286311723Y-35216666D01*
X285568866Y-35588095D02*
X286002200Y-34288095D01*
X286435533Y-35588095D01*
D10*
D11*
X286095057Y-84907142D02*
X286280771Y-84969047D01*
X286342676Y-85030952D01*
X286404580Y-85154761D01*
X286404580Y-85340476D01*
X286342676Y-85464285D01*
X286280771Y-85526190D01*
X286156961Y-85588095D01*
X285661723Y-85588095D01*
X285661723Y-84288095D01*
X286095057Y-84288095D01*
X286218866Y-84350000D01*
X286280771Y-84411904D01*
X286342676Y-84535714D01*
X286342676Y-84659523D01*
X286280771Y-84783333D01*
X286218866Y-84845238D01*
X286095057Y-84907142D01*
X285661723Y-84907142D01*
D10*
D11*
X286404580Y-135464285D02*
X286342676Y-135526190D01*
X286156961Y-135588095D01*
X286033152Y-135588095D01*
X285847438Y-135526190D01*
X285723628Y-135402380D01*
X285661723Y-135278571D01*
X285599819Y-135030952D01*
X285599819Y-134845238D01*
X285661723Y-134597619D01*
X285723628Y-134473809D01*
X285847438Y-134350000D01*
X286033152Y-134288095D01*
X286156961Y-134288095D01*
X286342676Y-134350000D01*
X286404580Y-134411904D01*
D10*
D11*
X285661723Y-185588095D02*
X285661723Y-184288095D01*
X285971247Y-184288095D01*
X286156961Y-184350000D01*
X286280771Y-184473809D01*
X286342676Y-184597619D01*
X286404580Y-184845238D01*
X286404580Y-185030952D01*
X286342676Y-185278571D01*
X286280771Y-185402380D01*
X286156961Y-185526190D01*
X285971247Y-185588095D01*
X285661723Y-185588095D01*
D10*
D11*
X200434342Y-193785771D02*
X200434342Y-192285771D01*
X200791485Y-192285771D01*
X201005771Y-192357200D01*
X201148628Y-192500057D01*
X201220057Y-192642914D01*
X201291485Y-192928628D01*
X201291485Y-193142914D01*
X201220057Y-193428628D01*
X201148628Y-193571485D01*
X201005771Y-193714342D01*
X200791485Y-193785771D01*
X200434342Y-193785771D01*
X202577200Y-193785771D02*
X202577200Y-193000057D01*
X202505771Y-192857200D01*
X202362914Y-192785771D01*
X202077200Y-192785771D01*
X201934342Y-192857200D01*
X202577200Y-193714342D02*
X202434342Y-193785771D01*
X202077200Y-193785771D01*
X201934342Y-193714342D01*
X201862914Y-193571485D01*
X201862914Y-193428628D01*
X201934342Y-193285771D01*
X202077200Y-193214342D01*
X202434342Y-193214342D01*
X202577200Y-193142914D01*
X203077200Y-192785771D02*
X203648628Y-192785771D01*
X203291485Y-192285771D02*
X203291485Y-193571485D01*
X203362914Y-193714342D01*
X203505771Y-193785771D01*
X203648628Y-193785771D01*
X204720057Y-193714342D02*
X204577200Y-193785771D01*
X204291485Y-193785771D01*
X204148628Y-193714342D01*
X204077200Y-193571485D01*
X204077200Y-193000057D01*
X204148628Y-192857200D01*
X204291485Y-192785771D01*
X204577200Y-192785771D01*
X204720057Y-192857200D01*
X204791485Y-193000057D01*
X204791485Y-193142914D01*
X204077200Y-193285771D01*
X205434342Y-193642914D02*
X205505771Y-193714342D01*
X205434342Y-193785771D01*
X205362914Y-193714342D01*
X205434342Y-193642914D01*
X205434342Y-193785771D01*
X205434342Y-192857200D02*
X205505771Y-192928628D01*
X205434342Y-193000057D01*
X205362914Y-192928628D01*
X205434342Y-192857200D01*
X205434342Y-193000057D01*
D10*
D11*
X177002200Y-194507200D02*
X285002200Y-194507200D01*
D10*
D11*
X178434342Y-196585771D02*
X178434342Y-195085771D01*
X179291485Y-196585771D02*
X178648628Y-195728628D01*
X179291485Y-195085771D02*
X178434342Y-195942914D01*
X179934342Y-196585771D02*
X179934342Y-195585771D01*
X179934342Y-195085771D02*
X179862914Y-195157200D01*
X179934342Y-195228628D01*
X180005771Y-195157200D01*
X179934342Y-195085771D01*
X179934342Y-195228628D01*
X181505771Y-196442914D02*
X181434342Y-196514342D01*
X181220057Y-196585771D01*
X181077200Y-196585771D01*
X180862914Y-196514342D01*
X180720057Y-196371485D01*
X180648628Y-196228628D01*
X180577200Y-195942914D01*
X180577200Y-195728628D01*
X180648628Y-195442914D01*
X180720057Y-195300057D01*
X180862914Y-195157200D01*
X181077200Y-195085771D01*
X181220057Y-195085771D01*
X181434342Y-195157200D01*
X181505771Y-195228628D01*
X182791485Y-196585771D02*
X182791485Y-195800057D01*
X182720057Y-195657200D01*
X182577200Y-195585771D01*
X182291485Y-195585771D01*
X182148628Y-195657200D01*
X182791485Y-196514342D02*
X182648628Y-196585771D01*
X182291485Y-196585771D01*
X182148628Y-196514342D01*
X182077200Y-196371485D01*
X182077200Y-196228628D01*
X182148628Y-196085771D01*
X182291485Y-196014342D01*
X182648628Y-196014342D01*
X182791485Y-195942914D01*
X184148628Y-196585771D02*
X184148628Y-195085771D01*
X184148628Y-196514342D02*
X184005771Y-196585771D01*
X183720057Y-196585771D01*
X183577200Y-196514342D01*
X183505771Y-196442914D01*
X183434342Y-196300057D01*
X183434342Y-195871485D01*
X183505771Y-195728628D01*
X183577200Y-195657200D01*
X183720057Y-195585771D01*
X184005771Y-195585771D01*
X184148628Y-195657200D01*
X186005771Y-195800057D02*
X186505771Y-195800057D01*
X186720057Y-196585771D02*
X186005771Y-196585771D01*
X186005771Y-195085771D01*
X186720057Y-195085771D01*
X187362914Y-196442914D02*
X187434342Y-196514342D01*
X187362914Y-196585771D01*
X187291485Y-196514342D01*
X187362914Y-196442914D01*
X187362914Y-196585771D01*
X188077200Y-196585771D02*
X188077200Y-195085771D01*
X188434342Y-195085771D01*
X188648628Y-195157200D01*
X188791485Y-195300057D01*
X188862914Y-195442914D01*
X188934342Y-195728628D01*
X188934342Y-195942914D01*
X188862914Y-196228628D01*
X188791485Y-196371485D01*
X188648628Y-196514342D01*
X188434342Y-196585771D01*
X188077200Y-196585771D01*
X189577200Y-196442914D02*
X189648628Y-196514342D01*
X189577200Y-196585771D01*
X189505771Y-196514342D01*
X189577200Y-196442914D01*
X189577200Y-196585771D01*
X190220057Y-196157200D02*
X190934342Y-196157200D01*
X190077200Y-196585771D02*
X190577200Y-195085771D01*
X191077200Y-196585771D01*
X191577200Y-196442914D02*
X191648628Y-196514342D01*
X191577200Y-196585771D01*
X191505771Y-196514342D01*
X191577200Y-196442914D01*
X191577200Y-196585771D01*
X194577200Y-196585771D02*
X194577200Y-195085771D01*
X194720057Y-196014342D02*
X195148628Y-196585771D01*
X195148628Y-195585771D02*
X194577200Y-196157200D01*
X195791485Y-196585771D02*
X195791485Y-195585771D01*
X195791485Y-195085771D02*
X195720057Y-195157200D01*
X195791485Y-195228628D01*
X195862914Y-195157200D01*
X195791485Y-195085771D01*
X195791485Y-195228628D01*
X197148628Y-196514342D02*
X197005771Y-196585771D01*
X196720057Y-196585771D01*
X196577200Y-196514342D01*
X196505771Y-196442914D01*
X196434342Y-196300057D01*
X196434342Y-195871485D01*
X196505771Y-195728628D01*
X196577200Y-195657200D01*
X196720057Y-195585771D01*
X197005771Y-195585771D01*
X197148628Y-195657200D01*
X198434342Y-196585771D02*
X198434342Y-195800057D01*
X198362914Y-195657200D01*
X198220057Y-195585771D01*
X197934342Y-195585771D01*
X197791485Y-195657200D01*
X198434342Y-196514342D02*
X198291485Y-196585771D01*
X197934342Y-196585771D01*
X197791485Y-196514342D01*
X197720057Y-196371485D01*
X197720057Y-196228628D01*
X197791485Y-196085771D01*
X197934342Y-196014342D01*
X198291485Y-196014342D01*
X198434342Y-195942914D01*
X199791485Y-196585771D02*
X199791485Y-195085771D01*
X199791485Y-196514342D02*
X199648628Y-196585771D01*
X199362914Y-196585771D01*
X199220057Y-196514342D01*
X199148628Y-196442914D01*
X199077200Y-196300057D01*
X199077200Y-195871485D01*
X199148628Y-195728628D01*
X199220057Y-195657200D01*
X199362914Y-195585771D01*
X199648628Y-195585771D01*
X199791485Y-195657200D01*
X202077200Y-197157200D02*
X202005771Y-197085771D01*
X201862914Y-196871485D01*
X201791485Y-196728628D01*
X201720057Y-196514342D01*
X201648628Y-196157200D01*
X201648628Y-195871485D01*
X201720057Y-195514342D01*
X201791485Y-195300057D01*
X201862914Y-195157200D01*
X202005771Y-194942914D01*
X202077200Y-194871485D01*
X203362914Y-195085771D02*
X202648628Y-195085771D01*
X202577200Y-195800057D01*
X202648628Y-195728628D01*
X202791485Y-195657200D01*
X203148628Y-195657200D01*
X203291485Y-195728628D01*
X203362914Y-195800057D01*
X203434342Y-195942914D01*
X203434342Y-196300057D01*
X203362914Y-196442914D01*
X203291485Y-196514342D01*
X203148628Y-196585771D01*
X202791485Y-196585771D01*
X202648628Y-196514342D01*
X202577200Y-196442914D01*
X204077200Y-196442914D02*
X204148628Y-196514342D01*
X204077200Y-196585771D01*
X204005771Y-196514342D01*
X204077200Y-196442914D01*
X204077200Y-196585771D01*
X205577200Y-196585771D02*
X204720057Y-196585771D01*
X205148628Y-196585771D02*
X205148628Y-195085771D01*
X205005771Y-195300057D01*
X204862914Y-195442914D01*
X204720057Y-195514342D01*
X206220057Y-196442914D02*
X206291485Y-196514342D01*
X206220057Y-196585771D01*
X206148628Y-196514342D01*
X206220057Y-196442914D01*
X206220057Y-196585771D01*
X207720057Y-196585771D02*
X206862914Y-196585771D01*
X207291485Y-196585771D02*
X207291485Y-195085771D01*
X207148628Y-195300057D01*
X207005771Y-195442914D01*
X206862914Y-195514342D01*
X208648628Y-195085771D02*
X208791485Y-195085771D01*
X208934342Y-195157200D01*
X209005771Y-195228628D01*
X209077200Y-195371485D01*
X209148628Y-195657200D01*
X209148628Y-196014342D01*
X209077200Y-196300057D01*
X209005771Y-196442914D01*
X208934342Y-196514342D01*
X208791485Y-196585771D01*
X208648628Y-196585771D01*
X208505771Y-196514342D01*
X208434342Y-196442914D01*
X208362914Y-196300057D01*
X208291485Y-196014342D01*
X208291485Y-195657200D01*
X208362914Y-195371485D01*
X208434342Y-195228628D01*
X208505771Y-195157200D01*
X208648628Y-195085771D01*
X209648628Y-197157200D02*
X209720057Y-197085771D01*
X209862914Y-196871485D01*
X209934342Y-196728628D01*
X210005771Y-196514342D01*
X210077200Y-196157200D01*
X210077200Y-195871485D01*
X210005771Y-195514342D01*
X209934342Y-195300057D01*
X209862914Y-195157200D01*
X209720057Y-194942914D01*
X209648628Y-194871485D01*
X210791485Y-196014342D02*
X211934342Y-196014342D01*
X213434342Y-196585771D02*
X212577200Y-196585771D01*
X213005771Y-196585771D02*
X213005771Y-195085771D01*
X212862914Y-195300057D01*
X212720057Y-195442914D01*
X212577200Y-195514342D01*
D10*
D11*
X177002200Y-191507200D02*
X285002200Y-191507200D01*
D10*
D12*
X264411485Y-193785771D02*
X263911485Y-193071485D01*
X263554342Y-193785771D02*
X263554342Y-192285771D01*
X264125771Y-192285771D01*
X264268628Y-192357200D01*
X264340057Y-192428628D01*
X264411485Y-192571485D01*
X264411485Y-192785771D01*
X264340057Y-192928628D01*
X264268628Y-193000057D01*
X264125771Y-193071485D01*
X263554342Y-193071485D01*
X265625771Y-193714342D02*
X265482914Y-193785771D01*
X265197200Y-193785771D01*
X265054342Y-193714342D01*
X264982914Y-193571485D01*
X264982914Y-193000057D01*
X265054342Y-192857200D01*
X265197200Y-192785771D01*
X265482914Y-192785771D01*
X265625771Y-192857200D01*
X265697200Y-193000057D01*
X265697200Y-193142914D01*
X264982914Y-193285771D01*
X266197200Y-192785771D02*
X266554342Y-193785771D01*
X266911485Y-192785771D01*
X267482914Y-193642914D02*
X267554342Y-193714342D01*
X267482914Y-193785771D01*
X267411485Y-193714342D01*
X267482914Y-193642914D01*
X267482914Y-193785771D01*
X267482914Y-192857200D02*
X267554342Y-192928628D01*
X267482914Y-193000057D01*
X267411485Y-192928628D01*
X267482914Y-192857200D01*
X267482914Y-193000057D01*
D10*
D11*
X178362914Y-193714342D02*
X178577200Y-193785771D01*
X178934342Y-193785771D01*
X179077200Y-193714342D01*
X179148628Y-193642914D01*
X179220057Y-193500057D01*
X179220057Y-193357200D01*
X179148628Y-193214342D01*
X179077200Y-193142914D01*
X178934342Y-193071485D01*
X178648628Y-193000057D01*
X178505771Y-192928628D01*
X178434342Y-192857200D01*
X178362914Y-192714342D01*
X178362914Y-192571485D01*
X178434342Y-192428628D01*
X178505771Y-192357200D01*
X178648628Y-192285771D01*
X179005771Y-192285771D01*
X179220057Y-192357200D01*
X179862914Y-193785771D02*
X179862914Y-192785771D01*
X179862914Y-192285771D02*
X179791485Y-192357200D01*
X179862914Y-192428628D01*
X179934342Y-192357200D01*
X179862914Y-192285771D01*
X179862914Y-192428628D01*
X180434342Y-192785771D02*
X181220057Y-192785771D01*
X180434342Y-193785771D01*
X181220057Y-193785771D01*
X182362914Y-193714342D02*
X182220057Y-193785771D01*
X181934342Y-193785771D01*
X181791485Y-193714342D01*
X181720057Y-193571485D01*
X181720057Y-193000057D01*
X181791485Y-192857200D01*
X181934342Y-192785771D01*
X182220057Y-192785771D01*
X182362914Y-192857200D01*
X182434342Y-193000057D01*
X182434342Y-193142914D01*
X181720057Y-193285771D01*
X183077200Y-193642914D02*
X183148628Y-193714342D01*
X183077200Y-193785771D01*
X183005771Y-193714342D01*
X183077200Y-193642914D01*
X183077200Y-193785771D01*
X183077200Y-192857200D02*
X183148628Y-192928628D01*
X183077200Y-193000057D01*
X183005771Y-192928628D01*
X183077200Y-192857200D01*
X183077200Y-193000057D01*
X184862914Y-193357200D02*
X185577200Y-193357200D01*
X184720057Y-193785771D02*
X185220057Y-192285771D01*
X185720057Y-193785771D01*
X186862914Y-192785771D02*
X186862914Y-193785771D01*
X186505771Y-192214342D02*
X186148628Y-193285771D01*
X187077200Y-193285771D01*
D10*
D11*
X263434342Y-196585771D02*
X263434342Y-195085771D01*
X264791485Y-196585771D02*
X264791485Y-195085771D01*
X264791485Y-196514342D02*
X264648628Y-196585771D01*
X264362914Y-196585771D01*
X264220057Y-196514342D01*
X264148628Y-196442914D01*
X264077200Y-196300057D01*
X264077200Y-195871485D01*
X264148628Y-195728628D01*
X264220057Y-195657200D01*
X264362914Y-195585771D01*
X264648628Y-195585771D01*
X264791485Y-195657200D01*
X265505771Y-196442914D02*
X265577200Y-196514342D01*
X265505771Y-196585771D01*
X265434342Y-196514342D01*
X265505771Y-196442914D01*
X265505771Y-196585771D01*
X265505771Y-195657200D02*
X265577200Y-195728628D01*
X265505771Y-195800057D01*
X265434342Y-195728628D01*
X265505771Y-195657200D01*
X265505771Y-195800057D01*
X268148628Y-196585771D02*
X267291485Y-196585771D01*
X267720057Y-196585771D02*
X267720057Y-195085771D01*
X267577200Y-195300057D01*
X267434342Y-195442914D01*
X267291485Y-195514342D01*
X269862914Y-195014342D02*
X268577200Y-196942914D01*
X271148628Y-196585771D02*
X270291485Y-196585771D01*
X270720057Y-196585771D02*
X270720057Y-195085771D01*
X270577200Y-195300057D01*
X270434342Y-195442914D01*
X270291485Y-195514342D01*
D10*
D11*
X177002200Y-187507200D02*
X285002200Y-187507200D01*
D10*
D13*
X178714580Y-188211961D02*
X179857438Y-188211961D01*
X179036009Y-190211961D02*
X179286009Y-188211961D01*
X180274104Y-190211961D02*
X180440771Y-188878628D01*
X180524104Y-188211961D02*
X180416961Y-188307200D01*
X180500295Y-188402438D01*
X180607438Y-188307200D01*
X180524104Y-188211961D01*
X180500295Y-188402438D01*
X181107438Y-188878628D02*
X181869342Y-188878628D01*
X181476485Y-188211961D02*
X181262200Y-189926247D01*
X181333628Y-190116723D01*
X181512200Y-190211961D01*
X181702676Y-190211961D01*
X182655057Y-190211961D02*
X182476485Y-190116723D01*
X182405057Y-189926247D01*
X182619342Y-188211961D01*
X184190771Y-190116723D02*
X183988390Y-190211961D01*
X183607438Y-190211961D01*
X183428866Y-190116723D01*
X183357438Y-189926247D01*
X183452676Y-189164342D01*
X183571723Y-188973866D01*
X183774104Y-188878628D01*
X184155057Y-188878628D01*
X184333628Y-188973866D01*
X184405057Y-189164342D01*
X184381247Y-189354819D01*
X183405057Y-189545295D01*
X185155057Y-190021485D02*
X185238390Y-190116723D01*
X185131247Y-190211961D01*
X185047914Y-190116723D01*
X185155057Y-190021485D01*
X185131247Y-190211961D01*
X185286009Y-188973866D02*
X185369342Y-189069104D01*
X185262200Y-189164342D01*
X185178866Y-189069104D01*
X185286009Y-188973866D01*
X185262200Y-189164342D01*
D10*
D11*
X178934342Y-185600057D02*
X178434342Y-185600057D01*
X178434342Y-186385771D02*
X178434342Y-184885771D01*
X179148628Y-184885771D01*
X179720057Y-186385771D02*
X179720057Y-185385771D01*
X179720057Y-184885771D02*
X179648628Y-184957200D01*
X179720057Y-185028628D01*
X179791485Y-184957200D01*
X179720057Y-184885771D01*
X179720057Y-185028628D01*
X180648628Y-186385771D02*
X180505771Y-186314342D01*
X180434342Y-186171485D01*
X180434342Y-184885771D01*
X181791485Y-186314342D02*
X181648628Y-186385771D01*
X181362914Y-186385771D01*
X181220057Y-186314342D01*
X181148628Y-186171485D01*
X181148628Y-185600057D01*
X181220057Y-185457200D01*
X181362914Y-185385771D01*
X181648628Y-185385771D01*
X181791485Y-185457200D01*
X181862914Y-185600057D01*
X181862914Y-185742914D01*
X181148628Y-185885771D01*
X182505771Y-186242914D02*
X182577200Y-186314342D01*
X182505771Y-186385771D01*
X182434342Y-186314342D01*
X182505771Y-186242914D01*
X182505771Y-186385771D01*
X182505771Y-185457200D02*
X182577200Y-185528628D01*
X182505771Y-185600057D01*
X182434342Y-185528628D01*
X182505771Y-185457200D01*
X182505771Y-185600057D01*
X185220057Y-186385771D02*
X184720057Y-185671485D01*
X184362914Y-186385771D02*
X184362914Y-184885771D01*
X184934342Y-184885771D01*
X185077200Y-184957200D01*
X185148628Y-185028628D01*
X185220057Y-185171485D01*
X185220057Y-185385771D01*
X185148628Y-185528628D01*
X185077200Y-185600057D01*
X184934342Y-185671485D01*
X184362914Y-185671485D01*
X185862914Y-186385771D02*
X185862914Y-184885771D01*
X187434342Y-186242914D02*
X187362914Y-186314342D01*
X187148628Y-186385771D01*
X187005771Y-186385771D01*
X186791485Y-186314342D01*
X186648628Y-186171485D01*
X186577200Y-186028628D01*
X186505771Y-185742914D01*
X186505771Y-185528628D01*
X186577200Y-185242914D01*
X186648628Y-185100057D01*
X186791485Y-184957200D01*
X187005771Y-184885771D01*
X187148628Y-184885771D01*
X187362914Y-184957200D01*
X187434342Y-185028628D01*
X188077200Y-186385771D02*
X188077200Y-184885771D01*
X188577200Y-185957200D01*
X189077200Y-184885771D01*
X189077200Y-186385771D01*
X189434342Y-186528628D02*
X190577200Y-186528628D01*
X190934342Y-185385771D02*
X190934342Y-186885771D01*
X190934342Y-185457200D02*
X191077200Y-185385771D01*
X191362914Y-185385771D01*
X191505771Y-185457200D01*
X191577200Y-185528628D01*
X191648628Y-185671485D01*
X191648628Y-186100057D01*
X191577200Y-186242914D01*
X191505771Y-186314342D01*
X191362914Y-186385771D01*
X191077200Y-186385771D01*
X190934342Y-186314342D01*
X192291485Y-186385771D02*
X192291485Y-185385771D01*
X192291485Y-184885771D02*
X192220057Y-184957200D01*
X192291485Y-185028628D01*
X192362914Y-184957200D01*
X192291485Y-184885771D01*
X192291485Y-185028628D01*
X193648628Y-186314342D02*
X193505771Y-186385771D01*
X193220057Y-186385771D01*
X193077200Y-186314342D01*
X193005771Y-186242914D01*
X192934342Y-186100057D01*
X192934342Y-185671485D01*
X193005771Y-185528628D01*
X193077200Y-185457200D01*
X193220057Y-185385771D01*
X193505771Y-185385771D01*
X193648628Y-185457200D01*
X194505771Y-186385771D02*
X194362914Y-186314342D01*
X194291485Y-186242914D01*
X194220057Y-186100057D01*
X194220057Y-185671485D01*
X194291485Y-185528628D01*
X194362914Y-185457200D01*
X194505771Y-185385771D01*
X194720057Y-185385771D01*
X194862914Y-185457200D01*
X194934342Y-185528628D01*
X195005771Y-185671485D01*
X195005771Y-186100057D01*
X194934342Y-186242914D01*
X194862914Y-186314342D01*
X194720057Y-186385771D01*
X194505771Y-186385771D01*
X195648628Y-186242914D02*
X195720057Y-186314342D01*
X195648628Y-186385771D01*
X195577200Y-186314342D01*
X195648628Y-186242914D01*
X195648628Y-186385771D01*
X196362914Y-186385771D02*
X196362914Y-184885771D01*
X196505771Y-185814342D02*
X196934342Y-186385771D01*
X196934342Y-185385771D02*
X196362914Y-185957200D01*
X197577200Y-186385771D02*
X197577200Y-185385771D01*
X197577200Y-184885771D02*
X197505771Y-184957200D01*
X197577200Y-185028628D01*
X197648628Y-184957200D01*
X197577200Y-184885771D01*
X197577200Y-185028628D01*
X198934342Y-186314342D02*
X198791485Y-186385771D01*
X198505771Y-186385771D01*
X198362914Y-186314342D01*
X198291485Y-186242914D01*
X198220057Y-186100057D01*
X198220057Y-185671485D01*
X198291485Y-185528628D01*
X198362914Y-185457200D01*
X198505771Y-185385771D01*
X198791485Y-185385771D01*
X198934342Y-185457200D01*
X200220057Y-186385771D02*
X200220057Y-185600057D01*
X200148628Y-185457200D01*
X200005771Y-185385771D01*
X199720057Y-185385771D01*
X199577200Y-185457200D01*
X200220057Y-186314342D02*
X200077200Y-186385771D01*
X199720057Y-186385771D01*
X199577200Y-186314342D01*
X199505771Y-186171485D01*
X199505771Y-186028628D01*
X199577200Y-185885771D01*
X199720057Y-185814342D01*
X200077200Y-185814342D01*
X200220057Y-185742914D01*
X201577200Y-186385771D02*
X201577200Y-184885771D01*
X201577200Y-186314342D02*
X201434342Y-186385771D01*
X201148628Y-186385771D01*
X201005771Y-186314342D01*
X200934342Y-186242914D01*
X200862914Y-186100057D01*
X200862914Y-185671485D01*
X200934342Y-185528628D01*
X201005771Y-185457200D01*
X201148628Y-185385771D01*
X201434342Y-185385771D01*
X201577200Y-185457200D01*
X201934342Y-186528628D02*
X203077200Y-186528628D01*
X203434342Y-185385771D02*
X203434342Y-186885771D01*
X203434342Y-185457200D02*
X203577200Y-185385771D01*
X203862914Y-185385771D01*
X204005771Y-185457200D01*
X204077200Y-185528628D01*
X204148628Y-185671485D01*
X204148628Y-186100057D01*
X204077200Y-186242914D01*
X204005771Y-186314342D01*
X203862914Y-186385771D01*
X203577200Y-186385771D01*
X203434342Y-186314342D01*
X205434342Y-186314342D02*
X205291485Y-186385771D01*
X205005771Y-186385771D01*
X204862914Y-186314342D01*
X204791485Y-186242914D01*
X204720057Y-186100057D01*
X204720057Y-185671485D01*
X204791485Y-185528628D01*
X204862914Y-185457200D01*
X205005771Y-185385771D01*
X205291485Y-185385771D01*
X205434342Y-185457200D01*
X206077200Y-186385771D02*
X206077200Y-184885771D01*
X206077200Y-185457200D02*
X206220057Y-185385771D01*
X206505771Y-185385771D01*
X206648628Y-185457200D01*
X206720057Y-185528628D01*
X206791485Y-185671485D01*
X206791485Y-186100057D01*
X206720057Y-186242914D01*
X206648628Y-186314342D01*
X206505771Y-186385771D01*
X206220057Y-186385771D01*
X206077200Y-186314342D01*
D10*
D11*
X177002200Y-181507200D02*
X285002200Y-181507200D01*
D10*
D11*
X178362914Y-183614342D02*
X178577200Y-183685771D01*
X178934342Y-183685771D01*
X179077200Y-183614342D01*
X179148628Y-183542914D01*
X179220057Y-183400057D01*
X179220057Y-183257200D01*
X179148628Y-183114342D01*
X179077200Y-183042914D01*
X178934342Y-182971485D01*
X178648628Y-182900057D01*
X178505771Y-182828628D01*
X178434342Y-182757200D01*
X178362914Y-182614342D01*
X178362914Y-182471485D01*
X178434342Y-182328628D01*
X178505771Y-182257200D01*
X178648628Y-182185771D01*
X179005771Y-182185771D01*
X179220057Y-182257200D01*
X179862914Y-183685771D02*
X179862914Y-182185771D01*
X180505771Y-183685771D02*
X180505771Y-182900057D01*
X180434342Y-182757200D01*
X180291485Y-182685771D01*
X180077200Y-182685771D01*
X179934342Y-182757200D01*
X179862914Y-182828628D01*
X181791485Y-183614342D02*
X181648628Y-183685771D01*
X181362914Y-183685771D01*
X181220057Y-183614342D01*
X181148628Y-183471485D01*
X181148628Y-182900057D01*
X181220057Y-182757200D01*
X181362914Y-182685771D01*
X181648628Y-182685771D01*
X181791485Y-182757200D01*
X181862914Y-182900057D01*
X181862914Y-183042914D01*
X181148628Y-183185771D01*
X183077200Y-183614342D02*
X182934342Y-183685771D01*
X182648628Y-183685771D01*
X182505771Y-183614342D01*
X182434342Y-183471485D01*
X182434342Y-182900057D01*
X182505771Y-182757200D01*
X182648628Y-182685771D01*
X182934342Y-182685771D01*
X183077200Y-182757200D01*
X183148628Y-182900057D01*
X183148628Y-183042914D01*
X182434342Y-183185771D01*
X183577200Y-182685771D02*
X184148628Y-182685771D01*
X183791485Y-182185771D02*
X183791485Y-183471485D01*
X183862914Y-183614342D01*
X184005771Y-183685771D01*
X184148628Y-183685771D01*
X184648628Y-183542914D02*
X184720057Y-183614342D01*
X184648628Y-183685771D01*
X184577200Y-183614342D01*
X184648628Y-183542914D01*
X184648628Y-183685771D01*
X184648628Y-182757200D02*
X184720057Y-182828628D01*
X184648628Y-182900057D01*
X184577200Y-182828628D01*
X184648628Y-182757200D01*
X184648628Y-182900057D01*
D10*
D11*
X197002200Y-191507200D02*
X197002200Y-194507200D01*
D10*
D11*
X261002200Y-191507200D02*
X261002200Y-198007200D01*
D14*
%TO.P,LS1,2*%
%TO.N,Earth*%
X190006000Y-125638000D03*
D15*
%TO.P,LS1,1*%
%TO.N,Net-(LS1-Pad1)*%
X196506000Y-125638000D03*
%TD*%
D16*
%TO.P,J2,2*%
%TO.N,+5V*%
X162986000Y-126068000D03*
D17*
%TO.P,J2,1*%
%TO.N,Earth*%
X160446000Y-126068000D03*
%TD*%
D14*
%TO.P,RV3,3*%
%TO.N,+3V3*%
X233496000Y-109228000D03*
%TO.P,RV3,2*%
%TO.N,Net-(RV3-Pad2)*%
X238496000Y-109228000D03*
%TO.P,RV3,1*%
%TO.N,AGND*%
X243496000Y-109228000D03*
%TD*%
D18*
%TO.P,C11,2*%
%TO.N,Earth*%
X168746000Y-80478000D03*
%TO.P,C11,1*%
%TO.N,+5V*%
X166246000Y-80478000D03*
%TD*%
%TO.P,C10,2*%
%TO.N,Earth*%
X155746000Y-80478000D03*
%TO.P,C10,1*%
%TO.N,+5V*%
X153246000Y-80478000D03*
%TD*%
%TO.P,C9,2*%
%TO.N,Earth*%
X142746000Y-80478000D03*
%TO.P,C9,1*%
%TO.N,+5V*%
X140246000Y-80478000D03*
%TD*%
%TO.P,C8,2*%
%TO.N,Earth*%
X168746000Y-67478000D03*
%TO.P,C8,1*%
%TO.N,+5V*%
X166246000Y-67478000D03*
%TD*%
%TO.P,C7,2*%
%TO.N,Earth*%
X155746000Y-67478000D03*
%TO.P,C7,1*%
%TO.N,+5V*%
X153246000Y-67478000D03*
%TD*%
%TO.P,C6,2*%
%TO.N,Earth*%
X142746000Y-67478000D03*
%TO.P,C6,1*%
%TO.N,+5V*%
X140246000Y-67478000D03*
%TD*%
%TO.P,U2,24*%
%TO.N,+3V3*%
%TA.AperFunction,SMDPad,CuDef*%
G36*
G01*
X174951000Y-121473000D02*
X174951000Y-121773000D01*
G75*
G02*
X174801000Y-121923000I-150000J0D01*
G01*
X173051000Y-121923000D01*
G75*
G02*
X172901000Y-121773000I0J150000D01*
G01*
X172901000Y-121473000D01*
G75*
G02*
X173051000Y-121323000I150000J0D01*
G01*
X174801000Y-121323000D01*
G75*
G02*
X174951000Y-121473000I0J-150000D01*
G01*
G37*
%TD.AperFunction*%
%TO.P,U2,23*%
%TO.N,SDA0*%
%TA.AperFunction,SMDPad,CuDef*%
G36*
G01*
X174951000Y-120203000D02*
X174951000Y-120503000D01*
G75*
G02*
X174801000Y-120653000I-150000J0D01*
G01*
X173051000Y-120653000D01*
G75*
G02*
X172901000Y-120503000I0J150000D01*
G01*
X172901000Y-120203000D01*
G75*
G02*
X173051000Y-120053000I150000J0D01*
G01*
X174801000Y-120053000D01*
G75*
G02*
X174951000Y-120203000I0J-150000D01*
G01*
G37*
%TD.AperFunction*%
%TO.P,U2,22*%
%TO.N,SCL0*%
%TA.AperFunction,SMDPad,CuDef*%
G36*
G01*
X174951000Y-118933000D02*
X174951000Y-119233000D01*
G75*
G02*
X174801000Y-119383000I-150000J0D01*
G01*
X173051000Y-119383000D01*
G75*
G02*
X172901000Y-119233000I0J150000D01*
G01*
X172901000Y-118933000D01*
G75*
G02*
X173051000Y-118783000I150000J0D01*
G01*
X174801000Y-118783000D01*
G75*
G02*
X174951000Y-118933000I0J-150000D01*
G01*
G37*
%TD.AperFunction*%
%TO.P,U2,21*%
%TO.N,Earth*%
%TA.AperFunction,SMDPad,CuDef*%
G36*
G01*
X174951000Y-117663000D02*
X174951000Y-117963000D01*
G75*
G02*
X174801000Y-118113000I-150000J0D01*
G01*
X173051000Y-118113000D01*
G75*
G02*
X172901000Y-117963000I0J150000D01*
G01*
X172901000Y-117663000D01*
G75*
G02*
X173051000Y-117513000I150000J0D01*
G01*
X174801000Y-117513000D01*
G75*
G02*
X174951000Y-117663000I0J-150000D01*
G01*
G37*
%TD.AperFunction*%
%TO.P,U2,20*%
%TO.N,sw25*%
%TA.AperFunction,SMDPad,CuDef*%
G36*
G01*
X174951000Y-116393000D02*
X174951000Y-116693000D01*
G75*
G02*
X174801000Y-116843000I-150000J0D01*
G01*
X173051000Y-116843000D01*
G75*
G02*
X172901000Y-116693000I0J150000D01*
G01*
X172901000Y-116393000D01*
G75*
G02*
X173051000Y-116243000I150000J0D01*
G01*
X174801000Y-116243000D01*
G75*
G02*
X174951000Y-116393000I0J-150000D01*
G01*
G37*
%TD.AperFunction*%
%TO.P,U2,19*%
%TO.N,sw24*%
%TA.AperFunction,SMDPad,CuDef*%
G36*
G01*
X174951000Y-115123000D02*
X174951000Y-115423000D01*
G75*
G02*
X174801000Y-115573000I-150000J0D01*
G01*
X173051000Y-115573000D01*
G75*
G02*
X172901000Y-115423000I0J150000D01*
G01*
X172901000Y-115123000D01*
G75*
G02*
X173051000Y-114973000I150000J0D01*
G01*
X174801000Y-114973000D01*
G75*
G02*
X174951000Y-115123000I0J-150000D01*
G01*
G37*
%TD.AperFunction*%
%TO.P,U2,18*%
%TO.N,sw23*%
%TA.AperFunction,SMDPad,CuDef*%
G36*
G01*
X174951000Y-113853000D02*
X174951000Y-114153000D01*
G75*
G02*
X174801000Y-114303000I-150000J0D01*
G01*
X173051000Y-114303000D01*
G75*
G02*
X172901000Y-114153000I0J150000D01*
G01*
X172901000Y-113853000D01*
G75*
G02*
X173051000Y-113703000I150000J0D01*
G01*
X174801000Y-113703000D01*
G75*
G02*
X174951000Y-113853000I0J-150000D01*
G01*
G37*
%TD.AperFunction*%
%TO.P,U2,17*%
%TO.N,sw22*%
%TA.AperFunction,SMDPad,CuDef*%
G36*
G01*
X174951000Y-112583000D02*
X174951000Y-112883000D01*
G75*
G02*
X174801000Y-113033000I-150000J0D01*
G01*
X173051000Y-113033000D01*
G75*
G02*
X172901000Y-112883000I0J150000D01*
G01*
X172901000Y-112583000D01*
G75*
G02*
X173051000Y-112433000I150000J0D01*
G01*
X174801000Y-112433000D01*
G75*
G02*
X174951000Y-112583000I0J-150000D01*
G01*
G37*
%TD.AperFunction*%
%TO.P,U2,16*%
%TO.N,sw21*%
%TA.AperFunction,SMDPad,CuDef*%
G36*
G01*
X174951000Y-111313000D02*
X174951000Y-111613000D01*
G75*
G02*
X174801000Y-111763000I-150000J0D01*
G01*
X173051000Y-111763000D01*
G75*
G02*
X172901000Y-111613000I0J150000D01*
G01*
X172901000Y-111313000D01*
G75*
G02*
X173051000Y-111163000I150000J0D01*
G01*
X174801000Y-111163000D01*
G75*
G02*
X174951000Y-111313000I0J-150000D01*
G01*
G37*
%TD.AperFunction*%
%TO.P,U2,15*%
%TO.N,sw20*%
%TA.AperFunction,SMDPad,CuDef*%
G36*
G01*
X174951000Y-110043000D02*
X174951000Y-110343000D01*
G75*
G02*
X174801000Y-110493000I-150000J0D01*
G01*
X173051000Y-110493000D01*
G75*
G02*
X172901000Y-110343000I0J150000D01*
G01*
X172901000Y-110043000D01*
G75*
G02*
X173051000Y-109893000I150000J0D01*
G01*
X174801000Y-109893000D01*
G75*
G02*
X174951000Y-110043000I0J-150000D01*
G01*
G37*
%TD.AperFunction*%
%TO.P,U2,14*%
%TO.N,sw19*%
%TA.AperFunction,SMDPad,CuDef*%
G36*
G01*
X174951000Y-108773000D02*
X174951000Y-109073000D01*
G75*
G02*
X174801000Y-109223000I-150000J0D01*
G01*
X173051000Y-109223000D01*
G75*
G02*
X172901000Y-109073000I0J150000D01*
G01*
X172901000Y-108773000D01*
G75*
G02*
X173051000Y-108623000I150000J0D01*
G01*
X174801000Y-108623000D01*
G75*
G02*
X174951000Y-108773000I0J-150000D01*
G01*
G37*
%TD.AperFunction*%
%TO.P,U2,13*%
%TO.N,sw1*%
%TA.AperFunction,SMDPad,CuDef*%
G36*
G01*
X174951000Y-107503000D02*
X174951000Y-107803000D01*
G75*
G02*
X174801000Y-107953000I-150000J0D01*
G01*
X173051000Y-107953000D01*
G75*
G02*
X172901000Y-107803000I0J150000D01*
G01*
X172901000Y-107503000D01*
G75*
G02*
X173051000Y-107353000I150000J0D01*
G01*
X174801000Y-107353000D01*
G75*
G02*
X174951000Y-107503000I0J-150000D01*
G01*
G37*
%TD.AperFunction*%
%TO.P,U2,12*%
%TO.N,Earth*%
%TA.AperFunction,SMDPad,CuDef*%
G36*
G01*
X184251000Y-107503000D02*
X184251000Y-107803000D01*
G75*
G02*
X184101000Y-107953000I-150000J0D01*
G01*
X182351000Y-107953000D01*
G75*
G02*
X182201000Y-107803000I0J150000D01*
G01*
X182201000Y-107503000D01*
G75*
G02*
X182351000Y-107353000I150000J0D01*
G01*
X184101000Y-107353000D01*
G75*
G02*
X184251000Y-107503000I0J-150000D01*
G01*
G37*
%TD.AperFunction*%
%TO.P,U2,11*%
%TO.N,sw2*%
%TA.AperFunction,SMDPad,CuDef*%
G36*
G01*
X184251000Y-108773000D02*
X184251000Y-109073000D01*
G75*
G02*
X184101000Y-109223000I-150000J0D01*
G01*
X182351000Y-109223000D01*
G75*
G02*
X182201000Y-109073000I0J150000D01*
G01*
X182201000Y-108773000D01*
G75*
G02*
X182351000Y-108623000I150000J0D01*
G01*
X184101000Y-108623000D01*
G75*
G02*
X184251000Y-108773000I0J-150000D01*
G01*
G37*
%TD.AperFunction*%
%TO.P,U2,10*%
%TO.N,sw3*%
%TA.AperFunction,SMDPad,CuDef*%
G36*
G01*
X184251000Y-110043000D02*
X184251000Y-110343000D01*
G75*
G02*
X184101000Y-110493000I-150000J0D01*
G01*
X182351000Y-110493000D01*
G75*
G02*
X182201000Y-110343000I0J150000D01*
G01*
X182201000Y-110043000D01*
G75*
G02*
X182351000Y-109893000I150000J0D01*
G01*
X184101000Y-109893000D01*
G75*
G02*
X184251000Y-110043000I0J-150000D01*
G01*
G37*
%TD.AperFunction*%
%TO.P,U2,9*%
%TO.N,sw4*%
%TA.AperFunction,SMDPad,CuDef*%
G36*
G01*
X184251000Y-111313000D02*
X184251000Y-111613000D01*
G75*
G02*
X184101000Y-111763000I-150000J0D01*
G01*
X182351000Y-111763000D01*
G75*
G02*
X182201000Y-111613000I0J150000D01*
G01*
X182201000Y-111313000D01*
G75*
G02*
X182351000Y-111163000I150000J0D01*
G01*
X184101000Y-111163000D01*
G75*
G02*
X184251000Y-111313000I0J-150000D01*
G01*
G37*
%TD.AperFunction*%
%TO.P,U2,8*%
%TO.N,sw5*%
%TA.AperFunction,SMDPad,CuDef*%
G36*
G01*
X184251000Y-112583000D02*
X184251000Y-112883000D01*
G75*
G02*
X184101000Y-113033000I-150000J0D01*
G01*
X182351000Y-113033000D01*
G75*
G02*
X182201000Y-112883000I0J150000D01*
G01*
X182201000Y-112583000D01*
G75*
G02*
X182351000Y-112433000I150000J0D01*
G01*
X184101000Y-112433000D01*
G75*
G02*
X184251000Y-112583000I0J-150000D01*
G01*
G37*
%TD.AperFunction*%
%TO.P,U2,7*%
%TO.N,sw6*%
%TA.AperFunction,SMDPad,CuDef*%
G36*
G01*
X184251000Y-113853000D02*
X184251000Y-114153000D01*
G75*
G02*
X184101000Y-114303000I-150000J0D01*
G01*
X182351000Y-114303000D01*
G75*
G02*
X182201000Y-114153000I0J150000D01*
G01*
X182201000Y-113853000D01*
G75*
G02*
X182351000Y-113703000I150000J0D01*
G01*
X184101000Y-113703000D01*
G75*
G02*
X184251000Y-113853000I0J-150000D01*
G01*
G37*
%TD.AperFunction*%
%TO.P,U2,6*%
%TO.N,sw7*%
%TA.AperFunction,SMDPad,CuDef*%
G36*
G01*
X184251000Y-115123000D02*
X184251000Y-115423000D01*
G75*
G02*
X184101000Y-115573000I-150000J0D01*
G01*
X182351000Y-115573000D01*
G75*
G02*
X182201000Y-115423000I0J150000D01*
G01*
X182201000Y-115123000D01*
G75*
G02*
X182351000Y-114973000I150000J0D01*
G01*
X184101000Y-114973000D01*
G75*
G02*
X184251000Y-115123000I0J-150000D01*
G01*
G37*
%TD.AperFunction*%
%TO.P,U2,5*%
%TO.N,sw8*%
%TA.AperFunction,SMDPad,CuDef*%
G36*
G01*
X184251000Y-116393000D02*
X184251000Y-116693000D01*
G75*
G02*
X184101000Y-116843000I-150000J0D01*
G01*
X182351000Y-116843000D01*
G75*
G02*
X182201000Y-116693000I0J150000D01*
G01*
X182201000Y-116393000D01*
G75*
G02*
X182351000Y-116243000I150000J0D01*
G01*
X184101000Y-116243000D01*
G75*
G02*
X184251000Y-116393000I0J-150000D01*
G01*
G37*
%TD.AperFunction*%
%TO.P,U2,4*%
%TO.N,sw9*%
%TA.AperFunction,SMDPad,CuDef*%
G36*
G01*
X184251000Y-117663000D02*
X184251000Y-117963000D01*
G75*
G02*
X184101000Y-118113000I-150000J0D01*
G01*
X182351000Y-118113000D01*
G75*
G02*
X182201000Y-117963000I0J150000D01*
G01*
X182201000Y-117663000D01*
G75*
G02*
X182351000Y-117513000I150000J0D01*
G01*
X184101000Y-117513000D01*
G75*
G02*
X184251000Y-117663000I0J-150000D01*
G01*
G37*
%TD.AperFunction*%
%TO.P,U2,3*%
%TO.N,Earth*%
%TA.AperFunction,SMDPad,CuDef*%
G36*
G01*
X184251000Y-118933000D02*
X184251000Y-119233000D01*
G75*
G02*
X184101000Y-119383000I-150000J0D01*
G01*
X182351000Y-119383000D01*
G75*
G02*
X182201000Y-119233000I0J150000D01*
G01*
X182201000Y-118933000D01*
G75*
G02*
X182351000Y-118783000I150000J0D01*
G01*
X184101000Y-118783000D01*
G75*
G02*
X184251000Y-118933000I0J-150000D01*
G01*
G37*
%TD.AperFunction*%
%TO.P,U2,2*%
%TA.AperFunction,SMDPad,CuDef*%
G36*
G01*
X184251000Y-120203000D02*
X184251000Y-120503000D01*
G75*
G02*
X184101000Y-120653000I-150000J0D01*
G01*
X182351000Y-120653000D01*
G75*
G02*
X182201000Y-120503000I0J150000D01*
G01*
X182201000Y-120203000D01*
G75*
G02*
X182351000Y-120053000I150000J0D01*
G01*
X184101000Y-120053000D01*
G75*
G02*
X184251000Y-120203000I0J-150000D01*
G01*
G37*
%TD.AperFunction*%
%TO.P,U2,1*%
%TO.N,INT0*%
%TA.AperFunction,SMDPad,CuDef*%
G36*
G01*
X184251000Y-121473000D02*
X184251000Y-121773000D01*
G75*
G02*
X184101000Y-121923000I-150000J0D01*
G01*
X182351000Y-121923000D01*
G75*
G02*
X182201000Y-121773000I0J150000D01*
G01*
X182201000Y-121473000D01*
G75*
G02*
X182351000Y-121323000I150000J0D01*
G01*
X184101000Y-121323000D01*
G75*
G02*
X184251000Y-121473000I0J-150000D01*
G01*
G37*
%TD.AperFunction*%
%TD*%
%TO.P,U3,24*%
%TO.N,+3V3*%
%TA.AperFunction,SMDPad,CuDef*%
G36*
G01*
X133041000Y-121473000D02*
X133041000Y-121773000D01*
G75*
G02*
X132891000Y-121923000I-150000J0D01*
G01*
X131141000Y-121923000D01*
G75*
G02*
X130991000Y-121773000I0J150000D01*
G01*
X130991000Y-121473000D01*
G75*
G02*
X131141000Y-121323000I150000J0D01*
G01*
X132891000Y-121323000D01*
G75*
G02*
X133041000Y-121473000I0J-150000D01*
G01*
G37*
%TD.AperFunction*%
%TO.P,U3,23*%
%TO.N,SDA1*%
%TA.AperFunction,SMDPad,CuDef*%
G36*
G01*
X133041000Y-120203000D02*
X133041000Y-120503000D01*
G75*
G02*
X132891000Y-120653000I-150000J0D01*
G01*
X131141000Y-120653000D01*
G75*
G02*
X130991000Y-120503000I0J150000D01*
G01*
X130991000Y-120203000D01*
G75*
G02*
X131141000Y-120053000I150000J0D01*
G01*
X132891000Y-120053000D01*
G75*
G02*
X133041000Y-120203000I0J-150000D01*
G01*
G37*
%TD.AperFunction*%
%TO.P,U3,22*%
%TO.N,SCL1*%
%TA.AperFunction,SMDPad,CuDef*%
G36*
G01*
X133041000Y-118933000D02*
X133041000Y-119233000D01*
G75*
G02*
X132891000Y-119383000I-150000J0D01*
G01*
X131141000Y-119383000D01*
G75*
G02*
X130991000Y-119233000I0J150000D01*
G01*
X130991000Y-118933000D01*
G75*
G02*
X131141000Y-118783000I150000J0D01*
G01*
X132891000Y-118783000D01*
G75*
G02*
X133041000Y-118933000I0J-150000D01*
G01*
G37*
%TD.AperFunction*%
%TO.P,U3,21*%
%TO.N,+3V3*%
%TA.AperFunction,SMDPad,CuDef*%
G36*
G01*
X133041000Y-117663000D02*
X133041000Y-117963000D01*
G75*
G02*
X132891000Y-118113000I-150000J0D01*
G01*
X131141000Y-118113000D01*
G75*
G02*
X130991000Y-117963000I0J150000D01*
G01*
X130991000Y-117663000D01*
G75*
G02*
X131141000Y-117513000I150000J0D01*
G01*
X132891000Y-117513000D01*
G75*
G02*
X133041000Y-117663000I0J-150000D01*
G01*
G37*
%TD.AperFunction*%
%TO.P,U3,20*%
%TO.N,c7*%
%TA.AperFunction,SMDPad,CuDef*%
G36*
G01*
X133041000Y-116393000D02*
X133041000Y-116693000D01*
G75*
G02*
X132891000Y-116843000I-150000J0D01*
G01*
X131141000Y-116843000D01*
G75*
G02*
X130991000Y-116693000I0J150000D01*
G01*
X130991000Y-116393000D01*
G75*
G02*
X131141000Y-116243000I150000J0D01*
G01*
X132891000Y-116243000D01*
G75*
G02*
X133041000Y-116393000I0J-150000D01*
G01*
G37*
%TD.AperFunction*%
%TO.P,U3,19*%
%TO.N,c6*%
%TA.AperFunction,SMDPad,CuDef*%
G36*
G01*
X133041000Y-115123000D02*
X133041000Y-115423000D01*
G75*
G02*
X132891000Y-115573000I-150000J0D01*
G01*
X131141000Y-115573000D01*
G75*
G02*
X130991000Y-115423000I0J150000D01*
G01*
X130991000Y-115123000D01*
G75*
G02*
X131141000Y-114973000I150000J0D01*
G01*
X132891000Y-114973000D01*
G75*
G02*
X133041000Y-115123000I0J-150000D01*
G01*
G37*
%TD.AperFunction*%
%TO.P,U3,18*%
%TO.N,c5*%
%TA.AperFunction,SMDPad,CuDef*%
G36*
G01*
X133041000Y-113853000D02*
X133041000Y-114153000D01*
G75*
G02*
X132891000Y-114303000I-150000J0D01*
G01*
X131141000Y-114303000D01*
G75*
G02*
X130991000Y-114153000I0J150000D01*
G01*
X130991000Y-113853000D01*
G75*
G02*
X131141000Y-113703000I150000J0D01*
G01*
X132891000Y-113703000D01*
G75*
G02*
X133041000Y-113853000I0J-150000D01*
G01*
G37*
%TD.AperFunction*%
%TO.P,U3,17*%
%TO.N,c4*%
%TA.AperFunction,SMDPad,CuDef*%
G36*
G01*
X133041000Y-112583000D02*
X133041000Y-112883000D01*
G75*
G02*
X132891000Y-113033000I-150000J0D01*
G01*
X131141000Y-113033000D01*
G75*
G02*
X130991000Y-112883000I0J150000D01*
G01*
X130991000Y-112583000D01*
G75*
G02*
X131141000Y-112433000I150000J0D01*
G01*
X132891000Y-112433000D01*
G75*
G02*
X133041000Y-112583000I0J-150000D01*
G01*
G37*
%TD.AperFunction*%
%TO.P,U3,16*%
%TO.N,c3*%
%TA.AperFunction,SMDPad,CuDef*%
G36*
G01*
X133041000Y-111313000D02*
X133041000Y-111613000D01*
G75*
G02*
X132891000Y-111763000I-150000J0D01*
G01*
X131141000Y-111763000D01*
G75*
G02*
X130991000Y-111613000I0J150000D01*
G01*
X130991000Y-111313000D01*
G75*
G02*
X131141000Y-111163000I150000J0D01*
G01*
X132891000Y-111163000D01*
G75*
G02*
X133041000Y-111313000I0J-150000D01*
G01*
G37*
%TD.AperFunction*%
%TO.P,U3,15*%
%TO.N,c2*%
%TA.AperFunction,SMDPad,CuDef*%
G36*
G01*
X133041000Y-110043000D02*
X133041000Y-110343000D01*
G75*
G02*
X132891000Y-110493000I-150000J0D01*
G01*
X131141000Y-110493000D01*
G75*
G02*
X130991000Y-110343000I0J150000D01*
G01*
X130991000Y-110043000D01*
G75*
G02*
X131141000Y-109893000I150000J0D01*
G01*
X132891000Y-109893000D01*
G75*
G02*
X133041000Y-110043000I0J-150000D01*
G01*
G37*
%TD.AperFunction*%
%TO.P,U3,14*%
%TO.N,c1*%
%TA.AperFunction,SMDPad,CuDef*%
G36*
G01*
X133041000Y-108773000D02*
X133041000Y-109073000D01*
G75*
G02*
X132891000Y-109223000I-150000J0D01*
G01*
X131141000Y-109223000D01*
G75*
G02*
X130991000Y-109073000I0J150000D01*
G01*
X130991000Y-108773000D01*
G75*
G02*
X131141000Y-108623000I150000J0D01*
G01*
X132891000Y-108623000D01*
G75*
G02*
X133041000Y-108773000I0J-150000D01*
G01*
G37*
%TD.AperFunction*%
%TO.P,U3,13*%
%TO.N,sw18*%
%TA.AperFunction,SMDPad,CuDef*%
G36*
G01*
X133041000Y-107503000D02*
X133041000Y-107803000D01*
G75*
G02*
X132891000Y-107953000I-150000J0D01*
G01*
X131141000Y-107953000D01*
G75*
G02*
X130991000Y-107803000I0J150000D01*
G01*
X130991000Y-107503000D01*
G75*
G02*
X131141000Y-107353000I150000J0D01*
G01*
X132891000Y-107353000D01*
G75*
G02*
X133041000Y-107503000I0J-150000D01*
G01*
G37*
%TD.AperFunction*%
%TO.P,U3,12*%
%TO.N,Earth*%
%TA.AperFunction,SMDPad,CuDef*%
G36*
G01*
X142341000Y-107503000D02*
X142341000Y-107803000D01*
G75*
G02*
X142191000Y-107953000I-150000J0D01*
G01*
X140441000Y-107953000D01*
G75*
G02*
X140291000Y-107803000I0J150000D01*
G01*
X140291000Y-107503000D01*
G75*
G02*
X140441000Y-107353000I150000J0D01*
G01*
X142191000Y-107353000D01*
G75*
G02*
X142341000Y-107503000I0J-150000D01*
G01*
G37*
%TD.AperFunction*%
%TO.P,U3,11*%
%TO.N,sw17*%
%TA.AperFunction,SMDPad,CuDef*%
G36*
G01*
X142341000Y-108773000D02*
X142341000Y-109073000D01*
G75*
G02*
X142191000Y-109223000I-150000J0D01*
G01*
X140441000Y-109223000D01*
G75*
G02*
X140291000Y-109073000I0J150000D01*
G01*
X140291000Y-108773000D01*
G75*
G02*
X140441000Y-108623000I150000J0D01*
G01*
X142191000Y-108623000D01*
G75*
G02*
X142341000Y-108773000I0J-150000D01*
G01*
G37*
%TD.AperFunction*%
%TO.P,U3,10*%
%TO.N,sw16*%
%TA.AperFunction,SMDPad,CuDef*%
G36*
G01*
X142341000Y-110043000D02*
X142341000Y-110343000D01*
G75*
G02*
X142191000Y-110493000I-150000J0D01*
G01*
X140441000Y-110493000D01*
G75*
G02*
X140291000Y-110343000I0J150000D01*
G01*
X140291000Y-110043000D01*
G75*
G02*
X140441000Y-109893000I150000J0D01*
G01*
X142191000Y-109893000D01*
G75*
G02*
X142341000Y-110043000I0J-150000D01*
G01*
G37*
%TD.AperFunction*%
%TO.P,U3,9*%
%TO.N,sw15*%
%TA.AperFunction,SMDPad,CuDef*%
G36*
G01*
X142341000Y-111313000D02*
X142341000Y-111613000D01*
G75*
G02*
X142191000Y-111763000I-150000J0D01*
G01*
X140441000Y-111763000D01*
G75*
G02*
X140291000Y-111613000I0J150000D01*
G01*
X140291000Y-111313000D01*
G75*
G02*
X140441000Y-111163000I150000J0D01*
G01*
X142191000Y-111163000D01*
G75*
G02*
X142341000Y-111313000I0J-150000D01*
G01*
G37*
%TD.AperFunction*%
%TO.P,U3,8*%
%TO.N,sw14*%
%TA.AperFunction,SMDPad,CuDef*%
G36*
G01*
X142341000Y-112583000D02*
X142341000Y-112883000D01*
G75*
G02*
X142191000Y-113033000I-150000J0D01*
G01*
X140441000Y-113033000D01*
G75*
G02*
X140291000Y-112883000I0J150000D01*
G01*
X140291000Y-112583000D01*
G75*
G02*
X140441000Y-112433000I150000J0D01*
G01*
X142191000Y-112433000D01*
G75*
G02*
X142341000Y-112583000I0J-150000D01*
G01*
G37*
%TD.AperFunction*%
%TO.P,U3,7*%
%TO.N,sw13*%
%TA.AperFunction,SMDPad,CuDef*%
G36*
G01*
X142341000Y-113853000D02*
X142341000Y-114153000D01*
G75*
G02*
X142191000Y-114303000I-150000J0D01*
G01*
X140441000Y-114303000D01*
G75*
G02*
X140291000Y-114153000I0J150000D01*
G01*
X140291000Y-113853000D01*
G75*
G02*
X140441000Y-113703000I150000J0D01*
G01*
X142191000Y-113703000D01*
G75*
G02*
X142341000Y-113853000I0J-150000D01*
G01*
G37*
%TD.AperFunction*%
%TO.P,U3,6*%
%TO.N,sw12*%
%TA.AperFunction,SMDPad,CuDef*%
G36*
G01*
X142341000Y-115123000D02*
X142341000Y-115423000D01*
G75*
G02*
X142191000Y-115573000I-150000J0D01*
G01*
X140441000Y-115573000D01*
G75*
G02*
X140291000Y-115423000I0J150000D01*
G01*
X140291000Y-115123000D01*
G75*
G02*
X140441000Y-114973000I150000J0D01*
G01*
X142191000Y-114973000D01*
G75*
G02*
X142341000Y-115123000I0J-150000D01*
G01*
G37*
%TD.AperFunction*%
%TO.P,U3,5*%
%TO.N,sw11*%
%TA.AperFunction,SMDPad,CuDef*%
G36*
G01*
X142341000Y-116393000D02*
X142341000Y-116693000D01*
G75*
G02*
X142191000Y-116843000I-150000J0D01*
G01*
X140441000Y-116843000D01*
G75*
G02*
X140291000Y-116693000I0J150000D01*
G01*
X140291000Y-116393000D01*
G75*
G02*
X140441000Y-116243000I150000J0D01*
G01*
X142191000Y-116243000D01*
G75*
G02*
X142341000Y-116393000I0J-150000D01*
G01*
G37*
%TD.AperFunction*%
%TO.P,U3,4*%
%TO.N,sw10*%
%TA.AperFunction,SMDPad,CuDef*%
G36*
G01*
X142341000Y-117663000D02*
X142341000Y-117963000D01*
G75*
G02*
X142191000Y-118113000I-150000J0D01*
G01*
X140441000Y-118113000D01*
G75*
G02*
X140291000Y-117963000I0J150000D01*
G01*
X140291000Y-117663000D01*
G75*
G02*
X140441000Y-117513000I150000J0D01*
G01*
X142191000Y-117513000D01*
G75*
G02*
X142341000Y-117663000I0J-150000D01*
G01*
G37*
%TD.AperFunction*%
%TO.P,U3,3*%
%TO.N,Earth*%
%TA.AperFunction,SMDPad,CuDef*%
G36*
G01*
X142341000Y-118933000D02*
X142341000Y-119233000D01*
G75*
G02*
X142191000Y-119383000I-150000J0D01*
G01*
X140441000Y-119383000D01*
G75*
G02*
X140291000Y-119233000I0J150000D01*
G01*
X140291000Y-118933000D01*
G75*
G02*
X140441000Y-118783000I150000J0D01*
G01*
X142191000Y-118783000D01*
G75*
G02*
X142341000Y-118933000I0J-150000D01*
G01*
G37*
%TD.AperFunction*%
%TO.P,U3,2*%
%TA.AperFunction,SMDPad,CuDef*%
G36*
G01*
X142341000Y-120203000D02*
X142341000Y-120503000D01*
G75*
G02*
X142191000Y-120653000I-150000J0D01*
G01*
X140441000Y-120653000D01*
G75*
G02*
X140291000Y-120503000I0J150000D01*
G01*
X140291000Y-120203000D01*
G75*
G02*
X140441000Y-120053000I150000J0D01*
G01*
X142191000Y-120053000D01*
G75*
G02*
X142341000Y-120203000I0J-150000D01*
G01*
G37*
%TD.AperFunction*%
%TO.P,U3,1*%
%TO.N,INT1*%
%TA.AperFunction,SMDPad,CuDef*%
G36*
G01*
X142341000Y-121473000D02*
X142341000Y-121773000D01*
G75*
G02*
X142191000Y-121923000I-150000J0D01*
G01*
X140441000Y-121923000D01*
G75*
G02*
X140291000Y-121773000I0J150000D01*
G01*
X140291000Y-121473000D01*
G75*
G02*
X140441000Y-121323000I150000J0D01*
G01*
X142191000Y-121323000D01*
G75*
G02*
X142341000Y-121473000I0J-150000D01*
G01*
G37*
%TD.AperFunction*%
%TD*%
D19*
%TO.P,RV1,3*%
%TO.N,+3V3*%
X98506000Y-57508000D03*
%TO.P,RV1,2*%
%TO.N,Net-(RV1-Pad2)*%
X98506000Y-90508000D03*
D20*
%TO.P,RV1,1*%
%TO.N,AGND*%
X94506000Y-90508000D03*
%TD*%
D18*
%TO.P,C5,2*%
%TO.N,Earth*%
X168746000Y-54478000D03*
%TO.P,C5,1*%
%TO.N,+5V*%
X166246000Y-54478000D03*
%TD*%
%TO.P,C4,2*%
%TO.N,Earth*%
X155746000Y-54478000D03*
%TO.P,C4,1*%
%TO.N,+5V*%
X153246000Y-54478000D03*
%TD*%
%TO.P,C3,2*%
%TO.N,Earth*%
X142746000Y-54478000D03*
%TO.P,C3,1*%
%TO.N,+5V*%
X140246000Y-54478000D03*
%TD*%
D21*
%TO.P,D4,2*%
%TO.N,+5V*%
X153886000Y-60978000D03*
D22*
%TO.P,D4,1*%
%TO.N,Net-(D4-Pad1)*%
X152616000Y-60978000D03*
D21*
%TO.P,D4,3*%
%TO.N,Earth*%
X155146000Y-60978000D03*
%TO.P,D4,4*%
%TO.N,Net-(D4-Pad4)*%
X156416000Y-60978000D03*
%TD*%
%TO.P,D3,2*%
%TO.N,+5V*%
X140886000Y-60978000D03*
D22*
%TO.P,D3,1*%
%TO.N,Net-(D3-Pad1)*%
X139616000Y-60978000D03*
D21*
%TO.P,D3,3*%
%TO.N,Earth*%
X142146000Y-60978000D03*
%TO.P,D3,4*%
%TO.N,Net-(D3-Pad4)*%
X143416000Y-60978000D03*
%TD*%
%TO.P,D8,2*%
%TO.N,+5V*%
X166886000Y-73978000D03*
D22*
%TO.P,D8,1*%
%TO.N,Net-(D8-Pad1)*%
X165616000Y-73978000D03*
D21*
%TO.P,D8,3*%
%TO.N,Earth*%
X168146000Y-73978000D03*
%TO.P,D8,4*%
%TO.N,Net-(D8-Pad4)*%
X169416000Y-73978000D03*
%TD*%
%TO.P,D9,2*%
%TO.N,+5V*%
X166886000Y-60978000D03*
D22*
%TO.P,D9,1*%
%TO.N,Net-(D9-Pad1)*%
X165616000Y-60978000D03*
D21*
%TO.P,D9,3*%
%TO.N,Earth*%
X168146000Y-60978000D03*
%TO.P,D9,4*%
%TO.N,Net-(D9-Pad4)*%
X169416000Y-60978000D03*
%TD*%
D23*
%TO.P,R17,2*%
%TO.N,Net-(D8-Pad1)*%
X167246000Y-93898000D03*
D24*
%TO.P,R17,1*%
%TO.N,Net-(D9-Pad4)*%
X167246000Y-98978000D03*
%TD*%
D23*
%TO.P,R16,2*%
%TO.N,Net-(D7-Pad1)*%
X164246000Y-93898000D03*
D24*
%TO.P,R16,1*%
%TO.N,Net-(D8-Pad4)*%
X164246000Y-98978000D03*
%TD*%
D23*
%TO.P,R15,2*%
%TO.N,Net-(D7-Pad4)*%
X161246000Y-93898000D03*
D24*
%TO.P,R15,1*%
%TO.N,Net-(D4-Pad1)*%
X161246000Y-98978000D03*
%TD*%
D23*
%TO.P,R14,2*%
%TO.N,Net-(D5-Pad1)*%
X158246000Y-93898000D03*
D24*
%TO.P,R14,1*%
%TO.N,Net-(D4-Pad4)*%
X158246000Y-98978000D03*
%TD*%
D23*
%TO.P,R13,2*%
%TO.N,Net-(D6-Pad1)*%
X155246000Y-93898000D03*
D24*
%TO.P,R13,1*%
%TO.N,Net-(D5-Pad4)*%
X155246000Y-98978000D03*
%TD*%
D23*
%TO.P,R12,2*%
%TO.N,Net-(D6-Pad4)*%
X152246000Y-93898000D03*
D24*
%TO.P,R12,1*%
%TO.N,Net-(D3-Pad1)*%
X152246000Y-98978000D03*
%TD*%
D23*
%TO.P,R11,2*%
%TO.N,Net-(D2-Pad1)*%
X149246000Y-93898000D03*
D24*
%TO.P,R11,1*%
%TO.N,Net-(D3-Pad4)*%
X149246000Y-98978000D03*
%TD*%
D23*
%TO.P,R10,2*%
%TO.N,Net-(D1-Pad1)*%
X146246000Y-93978000D03*
D24*
%TO.P,R10,1*%
%TO.N,Net-(D2-Pad4)*%
X146246000Y-99058000D03*
%TD*%
D23*
%TO.P,R9,2*%
%TO.N,Net-(D1-Pad4)*%
X143246000Y-93898000D03*
D24*
%TO.P,R9,1*%
%TO.N,DO0*%
X143246000Y-98978000D03*
%TD*%
D21*
%TO.P,D7,2*%
%TO.N,+5V*%
X166886000Y-86978000D03*
D22*
%TO.P,D7,1*%
%TO.N,Net-(D7-Pad1)*%
X165616000Y-86978000D03*
D21*
%TO.P,D7,3*%
%TO.N,Earth*%
X168146000Y-86978000D03*
%TO.P,D7,4*%
%TO.N,Net-(D7-Pad4)*%
X169416000Y-86978000D03*
%TD*%
%TO.P,D6,2*%
%TO.N,+5V*%
X153886000Y-86978000D03*
D22*
%TO.P,D6,1*%
%TO.N,Net-(D6-Pad1)*%
X152616000Y-86978000D03*
D21*
%TO.P,D6,3*%
%TO.N,Earth*%
X155146000Y-86978000D03*
%TO.P,D6,4*%
%TO.N,Net-(D6-Pad4)*%
X156416000Y-86978000D03*
%TD*%
%TO.P,D5,2*%
%TO.N,+5V*%
X153886000Y-73978000D03*
D22*
%TO.P,D5,1*%
%TO.N,Net-(D5-Pad1)*%
X152616000Y-73978000D03*
D21*
%TO.P,D5,3*%
%TO.N,Earth*%
X155146000Y-73978000D03*
%TO.P,D5,4*%
%TO.N,Net-(D5-Pad4)*%
X156416000Y-73978000D03*
%TD*%
%TO.P,D2,2*%
%TO.N,+5V*%
X140886000Y-73978000D03*
D22*
%TO.P,D2,1*%
%TO.N,Net-(D2-Pad1)*%
X139616000Y-73978000D03*
D21*
%TO.P,D2,3*%
%TO.N,Earth*%
X142146000Y-73978000D03*
%TO.P,D2,4*%
%TO.N,Net-(D2-Pad4)*%
X143416000Y-73978000D03*
%TD*%
%TO.P,D1,2*%
%TO.N,+5V*%
X140886000Y-86978000D03*
D22*
%TO.P,D1,1*%
%TO.N,Net-(D1-Pad1)*%
X139616000Y-86978000D03*
D21*
%TO.P,D1,3*%
%TO.N,Earth*%
X142146000Y-86978000D03*
%TO.P,D1,4*%
%TO.N,Net-(D1-Pad4)*%
X143416000Y-86978000D03*
%TD*%
D25*
%TO.P,DS2,*%
%TO.N,*%
X201976000Y-61748000D03*
X201976000Y-86248000D03*
X177976000Y-86248000D03*
X177976000Y-61748000D03*
D26*
%TO.P,DS2,4*%
%TO.N,SDA1*%
X177306000Y-70188000D03*
%TO.P,DS2,3*%
%TO.N,SCL1*%
X177306000Y-72728000D03*
%TO.P,DS2,2*%
%TO.N,+3V3*%
X177306000Y-75268000D03*
%TO.P,DS2,1*%
%TO.N,Earth*%
X177306000Y-77808000D03*
%TD*%
D19*
%TO.P,RV2,3*%
%TO.N,+3V3*%
X214076000Y-57508000D03*
%TO.P,RV2,2*%
%TO.N,Net-(RV2-Pad2)*%
X214076000Y-90508000D03*
D20*
%TO.P,RV2,1*%
%TO.N,AGND*%
X210076000Y-90508000D03*
%TD*%
D25*
%TO.P,DS1,*%
%TO.N,*%
X106916000Y-86248000D03*
X106916000Y-61748000D03*
X130916000Y-61748000D03*
X130916000Y-86248000D03*
D26*
%TO.P,DS1,4*%
%TO.N,SDA0*%
X131586000Y-77808000D03*
%TO.P,DS1,3*%
%TO.N,SCL0*%
X131586000Y-75268000D03*
%TO.P,DS1,2*%
%TO.N,+3V3*%
X131586000Y-72728000D03*
%TO.P,DS1,1*%
%TO.N,Earth*%
X131586000Y-70188000D03*
%TD*%
D27*
%TO.P,R8,2*%
%TO.N,+3V3*%
X126586000Y-90548000D03*
D18*
%TO.P,R8,1*%
%TO.N,INT1*%
X126586000Y-98168000D03*
%TD*%
%TO.P,C1,2*%
%TO.N,Earth*%
X181246000Y-127478000D03*
%TO.P,C1,1*%
%TO.N,+3V3*%
X178746000Y-127478000D03*
%TD*%
%TO.P,C2,2*%
%TO.N,Earth*%
X145746000Y-114978000D03*
%TO.P,C2,1*%
%TO.N,+3V3*%
X145746000Y-112478000D03*
%TD*%
D27*
%TO.P,R6,2*%
%TO.N,+3V3*%
X199566000Y-102778000D03*
D18*
%TO.P,R6,1*%
%TO.N,SDA1*%
X199566000Y-95158000D03*
%TD*%
D27*
%TO.P,R7,2*%
%TO.N,+3V3*%
X189406000Y-95158000D03*
D18*
%TO.P,R7,1*%
%TO.N,INT0*%
X189406000Y-102778000D03*
%TD*%
D27*
%TO.P,R5,2*%
%TO.N,+3V3*%
X194486000Y-102778000D03*
D18*
%TO.P,R5,1*%
%TO.N,SCL1*%
X194486000Y-95158000D03*
%TD*%
D27*
%TO.P,R4,2*%
%TO.N,+3V3*%
X122106000Y-98168000D03*
D18*
%TO.P,R4,1*%
%TO.N,SDA0*%
X122106000Y-90548000D03*
%TD*%
D27*
%TO.P,R3,2*%
%TO.N,+3V3*%
X131586000Y-98168000D03*
D18*
%TO.P,R3,1*%
%TO.N,SCL0*%
X131586000Y-90548000D03*
%TD*%
D16*
%TO.P,J1,6*%
%TO.N,GPIO10*%
X144286000Y-126068000D03*
%TO.P,J1,5*%
%TO.N,GPIO11*%
X141746000Y-126068000D03*
%TO.P,J1,4*%
%TO.N,GPIO12*%
X139206000Y-126068000D03*
%TO.P,J1,3*%
%TO.N,GPIO13*%
X136666000Y-126068000D03*
%TO.P,J1,2*%
%TO.N,+3V3*%
X134126000Y-126068000D03*
D17*
%TO.P,J1,1*%
%TO.N,Earth*%
X131586000Y-126068000D03*
%TD*%
D27*
%TO.P,SW19,14*%
%TO.N,Earth*%
X222377000Y-113919000D03*
%TO.P,SW19,7*%
%TO.N,sw25*%
X214757000Y-129159000D03*
%TO.P,SW19,13*%
%TO.N,Earth*%
X222377000Y-116459000D03*
%TO.P,SW19,6*%
%TO.N,sw24*%
X214757000Y-126619000D03*
%TO.P,SW19,12*%
%TO.N,Earth*%
X222377000Y-118999000D03*
%TO.P,SW19,5*%
%TO.N,sw23*%
X214757000Y-124079000D03*
%TO.P,SW19,11*%
%TO.N,Earth*%
X222377000Y-121539000D03*
%TO.P,SW19,4*%
%TO.N,sw22*%
X214757000Y-121539000D03*
%TO.P,SW19,10*%
%TO.N,Earth*%
X222377000Y-124079000D03*
%TO.P,SW19,3*%
%TO.N,sw21*%
X214757000Y-118999000D03*
%TO.P,SW19,9*%
%TO.N,Earth*%
X222377000Y-126619000D03*
%TO.P,SW19,2*%
%TO.N,sw20*%
X214757000Y-116459000D03*
%TO.P,SW19,8*%
%TO.N,Earth*%
X222377000Y-129159000D03*
D28*
%TO.P,SW19,1*%
%TO.N,sw19*%
X214757000Y-113919000D03*
%TD*%
D29*
%TO.P,SW18,1*%
%TO.N,sw18*%
X85612000Y-58021400D03*
%TO.P,SW18,2*%
%TO.N,Earth*%
X85612000Y-63177600D03*
%TD*%
%TO.P,SW17,1*%
%TO.N,sw17*%
X85612000Y-70721400D03*
%TO.P,SW17,2*%
%TO.N,Earth*%
X85612000Y-75877600D03*
%TD*%
%TO.P,SW16,1*%
%TO.N,sw16*%
X85612000Y-83421400D03*
%TO.P,SW16,2*%
%TO.N,Earth*%
X85612000Y-88577600D03*
%TD*%
%TO.P,SW15,1*%
%TO.N,sw15*%
X74182000Y-58021400D03*
%TO.P,SW15,2*%
%TO.N,Earth*%
X74182000Y-63177600D03*
%TD*%
%TO.P,SW14,1*%
%TO.N,sw14*%
X74182000Y-70721400D03*
%TO.P,SW14,2*%
%TO.N,Earth*%
X74182000Y-75877600D03*
%TD*%
%TO.P,SW13,1*%
%TO.N,sw13*%
X74182000Y-83421400D03*
%TO.P,SW13,2*%
%TO.N,Earth*%
X74182000Y-88577600D03*
%TD*%
%TO.P,SW12,1*%
%TO.N,sw12*%
X62752000Y-58021400D03*
%TO.P,SW12,2*%
%TO.N,Earth*%
X62752000Y-63177600D03*
%TD*%
%TO.P,SW11,1*%
%TO.N,sw11*%
X62752000Y-70721400D03*
%TO.P,SW11,2*%
%TO.N,Earth*%
X62752000Y-75877600D03*
%TD*%
%TO.P,SW10,1*%
%TO.N,sw10*%
X62752000Y-83421400D03*
%TO.P,SW10,2*%
%TO.N,Earth*%
X62752000Y-88577600D03*
%TD*%
D27*
%TO.P,RN3,10*%
%TO.N,Net-(RN3-Pad10)*%
X209218000Y-108747000D03*
%TO.P,RN3,9*%
%TO.N,Net-(RN3-Pad9)*%
X209218000Y-111287000D03*
%TO.P,RN3,8*%
%TO.N,sw19*%
X209218000Y-113827000D03*
%TO.P,RN3,7*%
%TO.N,sw20*%
X209218000Y-116367000D03*
%TO.P,RN3,6*%
%TO.N,sw21*%
X209218000Y-118907000D03*
%TO.P,RN3,5*%
%TO.N,sw22*%
X209218000Y-121447000D03*
%TO.P,RN3,4*%
%TO.N,sw23*%
X209218000Y-123987000D03*
%TO.P,RN3,3*%
%TO.N,sw24*%
X209218000Y-126527000D03*
%TO.P,RN3,2*%
%TO.N,sw25*%
X209218000Y-129067000D03*
D28*
%TO.P,RN3,1*%
%TO.N,+5V*%
X209218000Y-131607000D03*
%TD*%
D27*
%TO.P,RN2,10*%
%TO.N,sw17*%
X83326000Y-96858000D03*
%TO.P,RN2,9*%
%TO.N,sw16*%
X80786000Y-96858000D03*
%TO.P,RN2,8*%
%TO.N,sw15*%
X78246000Y-96858000D03*
%TO.P,RN2,7*%
%TO.N,sw14*%
X75706000Y-96858000D03*
%TO.P,RN2,6*%
%TO.N,sw13*%
X73166000Y-96858000D03*
%TO.P,RN2,5*%
%TO.N,sw12*%
X70626000Y-96858000D03*
%TO.P,RN2,4*%
%TO.N,sw11*%
X68086000Y-96858000D03*
%TO.P,RN2,3*%
%TO.N,sw10*%
X65546000Y-96858000D03*
%TO.P,RN2,2*%
%TO.N,sw18*%
X63006000Y-96858000D03*
D28*
%TO.P,RN2,1*%
%TO.N,+5V*%
X60466000Y-96858000D03*
%TD*%
D16*
%TO.P,U1,43*%
%TO.N,Net-(U1-Pad43)*%
X107226000Y-114638000D03*
D30*
X108126000Y-114638000D03*
D17*
%TO.P,U1,42*%
%TO.N,Net-(U1-Pad42)*%
X107226000Y-117178000D03*
D30*
X108126000Y-117178000D03*
D16*
%TO.P,U1,41*%
%TO.N,Net-(U1-Pad41)*%
X107226000Y-119718000D03*
D30*
X108126000Y-119718000D03*
D31*
%TO.P,U1,21*%
%TO.N,DO0*%
X107456000Y-107388000D03*
%TO.P,U1,22*%
%TO.N,Net-(U1-Pad22)*%
X104916000Y-107388000D03*
%TO.P,U1,23*%
%TO.N,Earth*%
X102376000Y-107388000D03*
%TO.P,U1,24*%
%TO.N,SDA1*%
X99836000Y-107388000D03*
%TO.P,U1,25*%
%TO.N,SCL1*%
X97296000Y-107388000D03*
%TO.P,U1,26*%
%TO.N,SDA0*%
X94756000Y-107388000D03*
%TO.P,U1,27*%
%TO.N,SCL0*%
X92216000Y-107388000D03*
%TO.P,U1,28*%
%TO.N,Earth*%
X89676000Y-107388000D03*
%TO.P,U1,29*%
%TO.N,Net-(U1-Pad29)*%
X87136000Y-107388000D03*
%TO.P,U1,30*%
%TO.N,Net-(U1-Pad30)*%
X84596000Y-107388000D03*
%TO.P,U1,31*%
%TO.N,Net-(RV3-Pad2)*%
X82056000Y-107388000D03*
%TO.P,U1,32*%
%TO.N,Net-(RV2-Pad2)*%
X79516000Y-107388000D03*
%TO.P,U1,33*%
%TO.N,AGND*%
X76976000Y-107388000D03*
%TO.P,U1,34*%
%TO.N,Net-(RV1-Pad2)*%
X74436000Y-107388000D03*
%TO.P,U1,35*%
%TO.N,Net-(U1-Pad35)*%
X71896000Y-107388000D03*
%TO.P,U1,36*%
%TO.N,+3V3*%
X69356000Y-107388000D03*
%TO.P,U1,37*%
%TO.N,Net-(U1-Pad37)*%
X66816000Y-107388000D03*
%TO.P,U1,38*%
%TO.N,Earth*%
X64276000Y-107388000D03*
%TO.P,U1,39*%
%TO.N,Net-(U1-Pad39)*%
X61736000Y-107388000D03*
%TO.P,U1,40*%
%TO.N,+5V*%
X59196000Y-107388000D03*
%TO.P,U1,20*%
%TO.N,Net-(U1-Pad20)*%
X107456000Y-126968000D03*
%TO.P,U1,19*%
%TO.N,Net-(U1-Pad19)*%
X104916000Y-126968000D03*
%TO.P,U1,18*%
%TO.N,Earth*%
X102376000Y-126968000D03*
%TO.P,U1,17*%
%TO.N,GPIO13*%
X99836000Y-126968000D03*
%TO.P,U1,16*%
%TO.N,GPIO12*%
X97296000Y-126968000D03*
%TO.P,U1,15*%
%TO.N,GPIO11*%
X94756000Y-126968000D03*
%TO.P,U1,14*%
%TO.N,GPIO10*%
X92216000Y-126968000D03*
%TO.P,U1,13*%
%TO.N,Earth*%
X89676000Y-126968000D03*
%TO.P,U1,12*%
%TO.N,INT1*%
X87136000Y-126968000D03*
%TO.P,U1,11*%
%TO.N,INT0*%
X84596000Y-126968000D03*
%TO.P,U1,10*%
%TO.N,Net-(LS1-Pad1)*%
X82056000Y-126968000D03*
%TO.P,U1,9*%
%TO.N,Net-(U1-Pad9)*%
X79516000Y-126968000D03*
%TO.P,U1,8*%
%TO.N,Earth*%
X76976000Y-126968000D03*
%TO.P,U1,7*%
%TO.N,Net-(U1-Pad7)*%
X74436000Y-126968000D03*
%TO.P,U1,6*%
%TO.N,Net-(U1-Pad6)*%
X71896000Y-126968000D03*
%TO.P,U1,5*%
%TO.N,Net-(U1-Pad5)*%
X69356000Y-126968000D03*
%TO.P,U1,4*%
%TO.N,Net-(U1-Pad4)*%
X66816000Y-126968000D03*
%TO.P,U1,3*%
%TO.N,Earth*%
X64276000Y-126968000D03*
%TO.P,U1,2*%
%TO.N,Net-(U1-Pad2)*%
X61736000Y-126968000D03*
%TO.P,U1,1*%
%TO.N,Net-(U1-Pad1)*%
X59196000Y-126968000D03*
D16*
%TO.P,U1,40*%
%TO.N,+5V*%
X59196000Y-108288000D03*
%TO.P,U1,39*%
%TO.N,Net-(U1-Pad39)*%
X61736000Y-108288000D03*
D17*
%TO.P,U1,38*%
%TO.N,Earth*%
X64276000Y-108288000D03*
D16*
%TO.P,U1,37*%
%TO.N,Net-(U1-Pad37)*%
X66816000Y-108288000D03*
%TO.P,U1,36*%
%TO.N,+3V3*%
X69356000Y-108288000D03*
%TO.P,U1,35*%
%TO.N,Net-(U1-Pad35)*%
X71896000Y-108288000D03*
%TO.P,U1,34*%
%TO.N,Net-(RV1-Pad2)*%
X74436000Y-108288000D03*
D17*
%TO.P,U1,33*%
%TO.N,AGND*%
X76976000Y-108288000D03*
D16*
%TO.P,U1,32*%
%TO.N,Net-(RV2-Pad2)*%
X79516000Y-108288000D03*
%TO.P,U1,31*%
%TO.N,Net-(RV3-Pad2)*%
X82056000Y-108288000D03*
%TO.P,U1,30*%
%TO.N,Net-(U1-Pad30)*%
X84596000Y-108288000D03*
%TO.P,U1,29*%
%TO.N,Net-(U1-Pad29)*%
X87136000Y-108288000D03*
D17*
%TO.P,U1,28*%
%TO.N,Earth*%
X89676000Y-108288000D03*
D16*
%TO.P,U1,27*%
%TO.N,SCL0*%
X92216000Y-108288000D03*
%TO.P,U1,26*%
%TO.N,SDA0*%
X94756000Y-108288000D03*
%TO.P,U1,25*%
%TO.N,SCL1*%
X97296000Y-108288000D03*
%TO.P,U1,24*%
%TO.N,SDA1*%
X99836000Y-108288000D03*
D17*
%TO.P,U1,23*%
%TO.N,Earth*%
X102376000Y-108288000D03*
D16*
%TO.P,U1,22*%
%TO.N,Net-(U1-Pad22)*%
X104916000Y-108288000D03*
%TO.P,U1,21*%
%TO.N,DO0*%
X107456000Y-108288000D03*
%TO.P,U1,20*%
%TO.N,Net-(U1-Pad20)*%
X107456000Y-126068000D03*
%TO.P,U1,19*%
%TO.N,Net-(U1-Pad19)*%
X104916000Y-126068000D03*
D17*
%TO.P,U1,18*%
%TO.N,Earth*%
X102376000Y-126068000D03*
D16*
%TO.P,U1,17*%
%TO.N,GPIO13*%
X99836000Y-126068000D03*
%TO.P,U1,16*%
%TO.N,GPIO12*%
X97296000Y-126068000D03*
%TO.P,U1,15*%
%TO.N,GPIO11*%
X94756000Y-126068000D03*
%TO.P,U1,14*%
%TO.N,GPIO10*%
X92216000Y-126068000D03*
D17*
%TO.P,U1,13*%
%TO.N,Earth*%
X89676000Y-126068000D03*
D16*
%TO.P,U1,12*%
%TO.N,INT1*%
X87136000Y-126068000D03*
%TO.P,U1,11*%
%TO.N,INT0*%
X84596000Y-126068000D03*
%TO.P,U1,10*%
%TO.N,Net-(LS1-Pad1)*%
X82056000Y-126068000D03*
%TO.P,U1,9*%
%TO.N,Net-(U1-Pad9)*%
X79516000Y-126068000D03*
D17*
%TO.P,U1,8*%
%TO.N,Earth*%
X76976000Y-126068000D03*
D16*
%TO.P,U1,7*%
%TO.N,Net-(U1-Pad7)*%
X74436000Y-126068000D03*
%TO.P,U1,6*%
%TO.N,Net-(U1-Pad6)*%
X71896000Y-126068000D03*
%TO.P,U1,5*%
%TO.N,Net-(U1-Pad5)*%
X69356000Y-126068000D03*
%TO.P,U1,4*%
%TO.N,Net-(U1-Pad4)*%
X66816000Y-126068000D03*
D17*
%TO.P,U1,3*%
%TO.N,Earth*%
X64276000Y-126068000D03*
D16*
%TO.P,U1,2*%
%TO.N,Net-(U1-Pad2)*%
X61736000Y-126068000D03*
%TO.P,U1,1*%
%TO.N,Net-(U1-Pad1)*%
X59196000Y-126068000D03*
%TD*%
D29*
%TO.P,SW9,1*%
%TO.N,sw9*%
X245632000Y-58021400D03*
%TO.P,SW9,2*%
%TO.N,Earth*%
X245632000Y-63177600D03*
%TD*%
%TO.P,SW8,1*%
%TO.N,sw8*%
X245632000Y-70721400D03*
%TO.P,SW8,2*%
%TO.N,Earth*%
X245632000Y-75877600D03*
%TD*%
%TO.P,SW7,1*%
%TO.N,sw7*%
X245632000Y-83421400D03*
%TO.P,SW7,2*%
%TO.N,Earth*%
X245632000Y-88577600D03*
%TD*%
%TO.P,SW6,1*%
%TO.N,sw6*%
X234202000Y-58021400D03*
%TO.P,SW6,2*%
%TO.N,Earth*%
X234202000Y-63177600D03*
%TD*%
%TO.P,SW5,1*%
%TO.N,sw5*%
X234202000Y-70721400D03*
%TO.P,SW5,2*%
%TO.N,Earth*%
X234202000Y-75877600D03*
%TD*%
%TO.P,SW4,1*%
%TO.N,sw4*%
X234202000Y-83421400D03*
%TO.P,SW4,2*%
%TO.N,Earth*%
X234202000Y-88577600D03*
%TD*%
%TO.P,SW3,1*%
%TO.N,sw3*%
X222772000Y-58021400D03*
%TO.P,SW3,2*%
%TO.N,Earth*%
X222772000Y-63177600D03*
%TD*%
%TO.P,SW2,1*%
%TO.N,sw2*%
X222772000Y-70721400D03*
%TO.P,SW2,2*%
%TO.N,Earth*%
X222772000Y-75877600D03*
%TD*%
%TO.P,SW1,1*%
%TO.N,sw1*%
X222772000Y-83421400D03*
%TO.P,SW1,2*%
%TO.N,Earth*%
X222772000Y-88577600D03*
%TD*%
D27*
%TO.P,RN1,10*%
%TO.N,sw9*%
X243346000Y-96858000D03*
%TO.P,RN1,9*%
%TO.N,sw8*%
X240806000Y-96858000D03*
%TO.P,RN1,8*%
%TO.N,sw7*%
X238266000Y-96858000D03*
%TO.P,RN1,7*%
%TO.N,sw6*%
X235726000Y-96858000D03*
%TO.P,RN1,6*%
%TO.N,sw5*%
X233186000Y-96858000D03*
%TO.P,RN1,5*%
%TO.N,sw4*%
X230646000Y-96858000D03*
%TO.P,RN1,4*%
%TO.N,sw3*%
X228106000Y-96858000D03*
%TO.P,RN1,3*%
%TO.N,sw2*%
X225566000Y-96858000D03*
%TO.P,RN1,2*%
%TO.N,sw1*%
X223026000Y-96858000D03*
D28*
%TO.P,RN1,1*%
%TO.N,+5V*%
X220486000Y-96858000D03*
%TD*%
D32*
%TO.N,+5V*%
X129081000Y-104810000D03*
X114222000Y-104937000D03*
X112825000Y-123479000D03*
X114222000Y-117002000D03*
X165366990Y-103857010D03*
D33*
%TO.N,Earth*%
X56246000Y-52978000D03*
X251246000Y-132978000D03*
X251246000Y-52978000D03*
D32*
X139114000Y-107604000D03*
X139114000Y-120431000D03*
X185469000Y-107731000D03*
X185469000Y-119161000D03*
X214044000Y-101889000D03*
X214044000Y-97317000D03*
X175817000Y-117891000D03*
D33*
X56246000Y-132978000D03*
D32*
X84886000Y-120818000D03*
X89676000Y-120908000D03*
X177991000Y-123733000D03*
X218335000Y-101889000D03*
%TO.N,Net-(RV1-Pad2)*%
X91997000Y-94777000D03*
X88060000Y-101127000D03*
%TO.N,Net-(RV2-Pad2)*%
X90219000Y-101127000D03*
X93267000Y-93253000D03*
X102746000Y-69478000D03*
%TO.N,SDA0*%
X99871000Y-93253000D03*
X98728000Y-100746000D03*
X137221000Y-100428000D03*
X139796000Y-103003000D03*
X168070000Y-122029000D03*
%TO.N,SCL0*%
X101903000Y-94523000D03*
X100252000Y-101635000D03*
X138221000Y-99178000D03*
X141046000Y-102003000D03*
X166046000Y-121853000D03*
%TO.N,SDA1*%
X199566000Y-91348000D03*
X191692000Y-97698000D03*
X169594000Y-101127000D03*
X165022000Y-114208000D03*
X134161000Y-120431000D03*
X129716000Y-114081000D03*
X115492000Y-112938000D03*
%TO.N,SCL1*%
X194486000Y-91348000D03*
X169721000Y-103540000D03*
X166038000Y-115478000D03*
X162355000Y-120685000D03*
X158164000Y-122082000D03*
X135050000Y-121701000D03*
X136574000Y-119415000D03*
X129843000Y-115859000D03*
X116635000Y-113700000D03*
%TO.N,INT0*%
X187120000Y-119161000D03*
X200074000Y-116875000D03*
%TO.N,INT1*%
X137844000Y-119415000D03*
X138606000Y-103667000D03*
X126922000Y-110144000D03*
%TO.N,AGND*%
X93521000Y-101254000D03*
X93521000Y-104048000D03*
X99490000Y-75600000D03*
X220521000Y-100746000D03*
X183996000Y-65728000D03*
X99490000Y-68742000D03*
%TO.N,+3V3*%
X121080000Y-126908000D03*
X135177000Y-118526000D03*
X171880000Y-121701000D03*
X97204000Y-79029000D03*
X199058000Y-73822000D03*
X113206000Y-80807000D03*
X111809000Y-118399000D03*
X111301000Y-112684000D03*
X109904000Y-101381000D03*
X126033000Y-106461000D03*
X241246000Y-113728000D03*
X117086000Y-94818000D03*
X126586000Y-95818000D03*
X114836000Y-126068000D03*
X177140999Y-119083001D03*
X123996000Y-72728000D03*
X186246000Y-78228000D03*
X173371000Y-126703000D03*
X118336000Y-106068000D03*
X96896000Y-75248000D03*
X148589000Y-125135000D03*
%TO.N,Net-(RV3-Pad2)*%
X123874000Y-128686000D03*
X121588000Y-119161000D03*
%TO.N,DO0*%
X113409200Y-107486900D03*
X131671800Y-104725920D03*
X139271480Y-98474980D03*
%TO.N,Net-(D4-Pad4)*%
X158532300Y-85241580D03*
%TO.N,Net-(D9-Pad4)*%
X171107840Y-81241080D03*
%TO.N,Net-(D3-Pad1)*%
X146423994Y-61650006D03*
X144166000Y-63908000D03*
%TD*%
D34*
%TO.N,+5V*%
X112825000Y-123479000D02*
X112825000Y-122082000D01*
X112825000Y-122082000D02*
X114222000Y-120685000D01*
X114222000Y-120685000D02*
X114222000Y-117002000D01*
X129081000Y-104810000D02*
X128319000Y-104048000D01*
X115111000Y-104048000D02*
X114222000Y-104937000D01*
X128319000Y-104048000D02*
X115111000Y-104048000D01*
D35*
X166246000Y-54478000D02*
X166886000Y-55118000D01*
X166886000Y-60978000D02*
X166886000Y-55118000D01*
X153246000Y-54478000D02*
X153886000Y-55118000D01*
X153886000Y-60978000D02*
X153886000Y-55118000D01*
X140246000Y-54478000D02*
X140886000Y-55118000D01*
X140886000Y-60978000D02*
X140886000Y-55118000D01*
D34*
X165366990Y-103857010D02*
X167925010Y-103857010D01*
X167925010Y-103857010D02*
X168246000Y-104178000D01*
X168246000Y-104178000D02*
X168246000Y-116978000D01*
X168246000Y-116978000D02*
X162846000Y-122378000D01*
X162846000Y-122378000D02*
X162846000Y-126178000D01*
D35*
%TO.N,Earth*%
X139114000Y-120431000D02*
X140892000Y-120431000D01*
X140892000Y-119161000D02*
X141400000Y-119161000D01*
X139114000Y-107604000D02*
X140892000Y-107604000D01*
X185469000Y-119161000D02*
X183564000Y-119161000D01*
X183226000Y-120353000D02*
X185293000Y-120353000D01*
X185469000Y-120177000D02*
X185469000Y-119161000D01*
X185293000Y-120353000D02*
X185469000Y-120177000D01*
X185469000Y-107731000D02*
X183945000Y-107731000D01*
X139114000Y-120431000D02*
X139114000Y-119161000D01*
X139114000Y-119161000D02*
X140765000Y-119161000D01*
D34*
X214044000Y-101889000D02*
X214044000Y-97317000D01*
D35*
X175817000Y-117891000D02*
X174293000Y-117891000D01*
D34*
X131621000Y-70139000D02*
X131494000Y-70266000D01*
X64276000Y-126068000D02*
X64276000Y-123528000D01*
X64276000Y-123528000D02*
X65636000Y-122168000D01*
X65636000Y-122168000D02*
X75786000Y-122168000D01*
X75786000Y-122168000D02*
X76986000Y-123368000D01*
X76986000Y-123368000D02*
X76986000Y-126218000D01*
X75786000Y-122168000D02*
X75786000Y-119268000D01*
X75786000Y-119268000D02*
X72536000Y-116018000D01*
X72536000Y-116018000D02*
X68436000Y-116018000D01*
X68436000Y-116018000D02*
X64236000Y-111818000D01*
X64236000Y-111818000D02*
X64236000Y-108318000D01*
X64276000Y-126068000D02*
X64276000Y-131378000D01*
X62676000Y-132978000D02*
X56246000Y-132978000D01*
X64276000Y-131378000D02*
X62676000Y-132978000D01*
X75786000Y-119268000D02*
X83336000Y-119268000D01*
X83336000Y-119268000D02*
X84886000Y-120818000D01*
X89676000Y-126068000D02*
X89676000Y-120908000D01*
X102376000Y-125647998D02*
X102386000Y-125637998D01*
X102376000Y-126068000D02*
X102376000Y-125647998D01*
X102386000Y-125637998D02*
X102386000Y-122218000D01*
X101076000Y-120908000D02*
X89676000Y-120908000D01*
X102386000Y-122218000D02*
X101076000Y-120908000D01*
X83336000Y-119268000D02*
X83336000Y-114518000D01*
X83336000Y-114518000D02*
X86186000Y-111668000D01*
X86186000Y-111668000D02*
X89686000Y-111668000D01*
X89686000Y-111668000D02*
X89686000Y-108268000D01*
X89686000Y-111668000D02*
X101286000Y-111668000D01*
X101286000Y-111668000D02*
X102336000Y-110618000D01*
X102336000Y-110618000D02*
X102336000Y-108118000D01*
D35*
X177991000Y-123733000D02*
X179986000Y-125728000D01*
X179986000Y-125728000D02*
X179996000Y-125728000D01*
X168146000Y-56078000D02*
X168146000Y-55078000D01*
X168146000Y-60978000D02*
X168146000Y-56078000D01*
X168146000Y-55078000D02*
X168746000Y-54478000D01*
X155746000Y-54478000D02*
X155146000Y-55078000D01*
X155146000Y-60978000D02*
X155146000Y-55078000D01*
X142746000Y-54478000D02*
X142146000Y-55078000D01*
X142146000Y-60978000D02*
X142146000Y-55078000D01*
D34*
X214044000Y-101889000D02*
X218335000Y-101889000D01*
X218335000Y-101889000D02*
X218335000Y-101889000D01*
X245632000Y-63177600D02*
X242246000Y-59791600D01*
X242246000Y-59791600D02*
X242246000Y-54578000D01*
X243846000Y-52978000D02*
X251246000Y-52978000D01*
X242246000Y-54578000D02*
X243846000Y-52978000D01*
D35*
X179996000Y-125728000D02*
X181246000Y-126978000D01*
X181246000Y-126978000D02*
X181246000Y-127478000D01*
X141316000Y-120353000D02*
X143871000Y-120353000D01*
X143871000Y-120353000D02*
X145746000Y-118478000D01*
X145746000Y-118478000D02*
X145746000Y-114978000D01*
D36*
%TO.N,Net-(RV1-Pad2)*%
X88060000Y-101127000D02*
X87171000Y-102016000D01*
X87171000Y-102016000D02*
X75233000Y-102016000D01*
X75233000Y-102016000D02*
X74471000Y-102778000D01*
X74471000Y-102778000D02*
X74471000Y-108493000D01*
X91997000Y-94777000D02*
X96207000Y-94777000D01*
X96207000Y-94777000D02*
X98516000Y-92468000D01*
X98516000Y-92468000D02*
X98516000Y-90518000D01*
%TO.N,Net-(RV2-Pad2)*%
X79516000Y-108288000D02*
X79516000Y-104337000D01*
X79516000Y-104337000D02*
X80186000Y-103667000D01*
X80186000Y-103667000D02*
X87679000Y-103667000D01*
X87679000Y-103667000D02*
X90219000Y-101127000D01*
X93267000Y-93253000D02*
X92505000Y-92491000D01*
X92505000Y-92491000D02*
X92505000Y-89316000D01*
X94696009Y-87124991D02*
X94696009Y-78527991D01*
X92505000Y-89316000D02*
X94696009Y-87124991D01*
X94696009Y-78527991D02*
X95746000Y-77478000D01*
X95746000Y-77478000D02*
X100996000Y-77478000D01*
X100996000Y-77478000D02*
X102746000Y-75728000D01*
X102746000Y-75728000D02*
X102746000Y-69478000D01*
D35*
%TO.N,sw1*%
X223026000Y-82888000D02*
X221575999Y-84338001D01*
X221575999Y-95196999D02*
X223061000Y-96682000D01*
D36*
X173926000Y-107653000D02*
X180594000Y-107653000D01*
X180594000Y-107653000D02*
X181532000Y-106715000D01*
X181532000Y-106715000D02*
X187882000Y-106715000D01*
X187882000Y-106715000D02*
X189533000Y-108366000D01*
X189533000Y-108366000D02*
X202764523Y-108366000D01*
X203077925Y-105096795D02*
X205211730Y-102962990D01*
X203077924Y-108052599D02*
X203077925Y-105096795D01*
X202764523Y-108366000D02*
X203077924Y-108052599D01*
X205211730Y-102962990D02*
X221096600Y-102962990D01*
X221096600Y-102962990D02*
X224204000Y-99855590D01*
X224204000Y-99855590D02*
X224204000Y-98206000D01*
X224204000Y-98206000D02*
X223188000Y-97190000D01*
X221575999Y-84338001D02*
X221561999Y-84338001D01*
D35*
X221561999Y-84338001D02*
X219759000Y-86141000D01*
X219759000Y-90127002D02*
X221575999Y-91944001D01*
X219759000Y-86141000D02*
X219759000Y-90127002D01*
X221575999Y-91944001D02*
X221575999Y-95196999D01*
%TO.N,SDA0*%
X100887000Y-92237000D02*
X99871000Y-93253000D01*
X98728000Y-100746000D02*
X100887000Y-100746000D01*
X100887000Y-100746000D02*
X101903000Y-101762000D01*
X101903000Y-101762000D02*
X101903000Y-102778000D01*
X101903000Y-102778000D02*
X101014000Y-103667000D01*
X101014000Y-103667000D02*
X95426000Y-103667000D01*
X95426000Y-103667000D02*
X94918000Y-104175000D01*
X94918000Y-104175000D02*
X94918000Y-107223000D01*
X100887000Y-92237000D02*
X120417000Y-92237000D01*
X120417000Y-92237000D02*
X122086000Y-90568000D01*
D36*
X173926000Y-120353000D02*
X175612000Y-120353000D01*
X175612000Y-120353000D02*
X175817000Y-120558000D01*
X175817000Y-120558000D02*
X175817000Y-122082000D01*
X175817000Y-122082000D02*
X175055000Y-122844000D01*
X175055000Y-122844000D02*
X168070000Y-122844000D01*
X137221000Y-100428000D02*
X139796000Y-103003000D01*
X168070000Y-122844000D02*
X168070000Y-122029000D01*
D35*
%TO.N,SCL0*%
X128901000Y-93253000D02*
X103173000Y-93253000D01*
X103173000Y-93253000D02*
X101903000Y-94523000D01*
X100252000Y-101635000D02*
X99363000Y-102524000D01*
X99363000Y-102524000D02*
X96188000Y-102524000D01*
X94067999Y-100403999D02*
X92593001Y-100403999D01*
X96188000Y-102524000D02*
X94067999Y-100403999D01*
X92593001Y-100403999D02*
X92251000Y-100746000D01*
X92251000Y-100746000D02*
X92251000Y-106842000D01*
X128901000Y-93253000D02*
X131586000Y-90568000D01*
D36*
X173926000Y-119083000D02*
X174978410Y-119083000D01*
X174978410Y-119083000D02*
X176267010Y-120371600D01*
X176267010Y-120371600D02*
X176267009Y-122268401D01*
X176267009Y-122268401D02*
X175241400Y-123294010D01*
X175241400Y-123294010D02*
X167883599Y-123294009D01*
X138221000Y-99178000D02*
X141046000Y-102003000D01*
X167883599Y-123294009D02*
X167487009Y-123294009D01*
X167487009Y-123294009D02*
X166046000Y-121853000D01*
%TO.N,SDA1*%
X173023000Y-97698000D02*
X191692000Y-97698000D01*
X173023000Y-97698000D02*
X169594000Y-101127000D01*
X132891000Y-120431000D02*
X132764000Y-120431000D01*
X134161000Y-120431000D02*
X132891000Y-120431000D01*
X129716000Y-114081000D02*
X127938000Y-112303000D01*
X127938000Y-112303000D02*
X116127000Y-112303000D01*
X116127000Y-112303000D02*
X115492000Y-112938000D01*
X199566000Y-91348000D02*
X199566000Y-94904000D01*
X165022000Y-115999012D02*
X165022000Y-114208000D01*
X162004990Y-119016022D02*
X165022000Y-115999012D01*
X134161000Y-120431000D02*
X136813578Y-120431000D01*
X136813578Y-120431000D02*
X139912609Y-123530031D01*
X139912609Y-123530031D02*
X139912609Y-123944609D01*
X157321000Y-124278000D02*
X157321000Y-121553000D01*
X139912609Y-123944609D02*
X140445990Y-124477990D01*
X140445990Y-124477990D02*
X145115978Y-124477990D01*
X145115978Y-124477990D02*
X147065978Y-126427990D01*
X147065978Y-126427990D02*
X155171010Y-126427990D01*
X157321000Y-121553000D02*
X157571000Y-121303000D01*
X155171010Y-126427990D02*
X157321000Y-124278000D01*
X157571000Y-121303000D02*
X160821000Y-121303000D01*
X160821000Y-121303000D02*
X162004990Y-120119010D01*
X162004990Y-120119010D02*
X162004990Y-119016022D01*
%TO.N,SCL1*%
X174420000Y-99730000D02*
X193978000Y-99730000D01*
X193978000Y-99730000D02*
X194613000Y-99095000D01*
X194613000Y-99095000D02*
X194613000Y-95285000D01*
X174420000Y-99730000D02*
X173531000Y-99730000D01*
X174293000Y-99730000D02*
X174420000Y-99730000D01*
X173531000Y-99730000D02*
X169721000Y-103540000D01*
X136574000Y-119415000D02*
X134161000Y-119415000D01*
X134161000Y-119415000D02*
X133780000Y-119034000D01*
X133780000Y-119034000D02*
X132256000Y-119034000D01*
X129843000Y-115859000D02*
X127176000Y-113192000D01*
X127176000Y-113192000D02*
X117143000Y-113192000D01*
X117143000Y-113192000D02*
X116635000Y-113700000D01*
X194486000Y-95158000D02*
X194486000Y-91348000D01*
X137588590Y-121701000D02*
X139562599Y-123675009D01*
X135050000Y-121701000D02*
X137588590Y-121701000D01*
X162355000Y-119161000D02*
X166038000Y-115478000D01*
X162355000Y-120685000D02*
X162355000Y-119161000D01*
X139562599Y-123675009D02*
X139562599Y-124094599D01*
X139562599Y-124094599D02*
X140296000Y-124828000D01*
X140296000Y-124828000D02*
X144971000Y-124828000D01*
X144971000Y-124828000D02*
X146921000Y-126778000D01*
X146921000Y-126778000D02*
X157021000Y-126778000D01*
X158164000Y-125635000D02*
X158164000Y-122082000D01*
X157021000Y-126778000D02*
X158164000Y-125635000D01*
%TO.N,INT0*%
X187951010Y-118329990D02*
X187120000Y-119161000D01*
X189406000Y-116875000D02*
X187951010Y-118329990D01*
X200074000Y-116875000D02*
X189406000Y-116875000D01*
X184836186Y-121623000D02*
X183226000Y-121623000D01*
X187120000Y-119339186D02*
X184836186Y-121623000D01*
X187120000Y-119161000D02*
X187120000Y-119339186D01*
%TO.N,INT1*%
X141316000Y-121623000D02*
X139036000Y-121623000D01*
X139036000Y-121623000D02*
X137844000Y-120431000D01*
X137844000Y-120431000D02*
X137844000Y-119415000D01*
X87171000Y-114335000D02*
X87171000Y-125511000D01*
X103808000Y-114335000D02*
X87171000Y-114335000D01*
X110031000Y-112938000D02*
X105205000Y-112938000D01*
X111047000Y-113954000D02*
X110031000Y-112938000D01*
X105205000Y-112938000D02*
X103808000Y-114335000D01*
X113079000Y-113954000D02*
X111047000Y-113954000D01*
X115365000Y-111668000D02*
X113079000Y-113954000D01*
X115365000Y-111541000D02*
X115365000Y-111668000D01*
X125525000Y-111541000D02*
X115365000Y-111541000D01*
X126922000Y-110144000D02*
X125525000Y-111541000D01*
X134345990Y-99406990D02*
X138606000Y-103667000D01*
X127674990Y-99406990D02*
X134345990Y-99406990D01*
X126586000Y-98318000D02*
X127674990Y-99406990D01*
D35*
%TO.N,sw2*%
X223026000Y-70188000D02*
X225474000Y-72636000D01*
X225474000Y-72636000D02*
X225474000Y-96936000D01*
D36*
X202843933Y-108923000D02*
X203527933Y-108239000D01*
X221283000Y-103413000D02*
X225601000Y-99095000D01*
X203527933Y-108239000D02*
X203527934Y-105283196D01*
X225601000Y-99095000D02*
X225601000Y-96936000D01*
X203527934Y-105283196D02*
X205398130Y-103413000D01*
X205398130Y-103413000D02*
X221283000Y-103413000D01*
X183226000Y-108923000D02*
X202843933Y-108923000D01*
D35*
%TO.N,sw3*%
X223026000Y-57488000D02*
X227887000Y-62349000D01*
X227887000Y-62349000D02*
X227887000Y-96809000D01*
D36*
X183226000Y-110193000D02*
X203581000Y-110193000D01*
X203581000Y-110193000D02*
X203977942Y-109796058D01*
X203977943Y-105469597D02*
X205559599Y-103887941D01*
X203977942Y-109796058D02*
X203977943Y-105469597D01*
X221561599Y-103887941D02*
X228141000Y-97308540D01*
X205559599Y-103887941D02*
X221561599Y-103887941D01*
D35*
%TO.N,sw4*%
X234456000Y-82888000D02*
X230681000Y-86663000D01*
X230681000Y-86663000D02*
X230681000Y-96809000D01*
D36*
X204427952Y-105655998D02*
X205745999Y-104337951D01*
X221747999Y-104337951D02*
X223307950Y-102778000D01*
X205745999Y-104337951D02*
X221747999Y-104337951D01*
X223307950Y-102778000D02*
X224839000Y-102778000D01*
X224839000Y-102778000D02*
X230808000Y-96809000D01*
X183226000Y-111463000D02*
X186808010Y-111463000D01*
X204427952Y-109982458D02*
X204427952Y-105655998D01*
X203767401Y-110643009D02*
X204427952Y-109982458D01*
X187628000Y-110643010D02*
X203767401Y-110643009D01*
X186808010Y-111463000D02*
X187628000Y-110643010D01*
D35*
%TO.N,sw5*%
X235906001Y-71638001D02*
X235906001Y-90821999D01*
X234456000Y-70188000D02*
X235906001Y-71638001D01*
X235906001Y-90821999D02*
X233221000Y-93507000D01*
X233221000Y-93507000D02*
X233221000Y-96682000D01*
D36*
X204877963Y-105842397D02*
X205932399Y-104787961D01*
X204877962Y-105953000D02*
X204877963Y-105842397D01*
X205932399Y-104787961D02*
X205932400Y-104787960D01*
X205932399Y-104787961D02*
X221934399Y-104787961D01*
X221934399Y-104787961D02*
X223458400Y-103263960D01*
X223458400Y-103263960D02*
X226766040Y-103263960D01*
X226766040Y-103263960D02*
X233221000Y-96809000D01*
X204877962Y-110168858D02*
X204877962Y-107245038D01*
X203953802Y-111093018D02*
X204877962Y-110168858D01*
X187814402Y-111093018D02*
X203953802Y-111093018D01*
X186174420Y-112733000D02*
X187814402Y-111093018D01*
X183226000Y-112733000D02*
X186174420Y-112733000D01*
X204877962Y-107245038D02*
X204877962Y-105953000D01*
X204877962Y-107350000D02*
X204877962Y-107245038D01*
D35*
%TO.N,sw6*%
X234456000Y-57488000D02*
X237539000Y-60571000D01*
X237539000Y-60571000D02*
X237539000Y-91856000D01*
X237539000Y-91856000D02*
X235761000Y-93634000D01*
X235761000Y-93634000D02*
X235761000Y-96555000D01*
D36*
X205327972Y-106028798D02*
X206118800Y-105237970D01*
X222120800Y-105237970D02*
X223644800Y-103713970D01*
X206118800Y-105237970D02*
X222120800Y-105237970D01*
X223644800Y-103713970D02*
X229110030Y-103713970D01*
X229110030Y-103713970D02*
X235634000Y-97190000D01*
X185540830Y-114003000D02*
X188000802Y-111543028D01*
X183226000Y-114003000D02*
X185540830Y-114003000D01*
X205327972Y-110355258D02*
X205327972Y-106028798D01*
X204140203Y-111543027D02*
X205327972Y-110355258D01*
X188000802Y-111543028D02*
X204140203Y-111543027D01*
D35*
%TO.N,sw7*%
X239063000Y-86141000D02*
X239063000Y-93634000D01*
X239063000Y-93634000D02*
X238174000Y-94523000D01*
X238174000Y-94523000D02*
X238174000Y-96936000D01*
D36*
X231200020Y-104163980D02*
X238682000Y-96682000D01*
X223831200Y-104163980D02*
X231200020Y-104163980D01*
X205777981Y-106215199D02*
X206305200Y-105687980D01*
X222307200Y-105687980D02*
X223831200Y-104163980D01*
X205777981Y-110541659D02*
X205777981Y-106215199D01*
X204326604Y-111993036D02*
X205777981Y-110541659D01*
X188187204Y-111993036D02*
X204326604Y-111993036D01*
X184907240Y-115273000D02*
X188187204Y-111993036D01*
X206305200Y-105687980D02*
X222307200Y-105687980D01*
X183226000Y-115273000D02*
X184907240Y-115273000D01*
X239063000Y-86141000D02*
X239063000Y-85887000D01*
D35*
X239063000Y-86141000D02*
X239063000Y-85125000D01*
X239063000Y-85125000D02*
X240714000Y-83474000D01*
X240714000Y-83474000D02*
X245413000Y-83474000D01*
%TO.N,sw8*%
X247336001Y-71638001D02*
X247336001Y-84344999D01*
X245886000Y-70188000D02*
X247336001Y-71638001D01*
X247336001Y-84344999D02*
X240714000Y-90967000D01*
X240714000Y-90967000D02*
X240714000Y-96428000D01*
D36*
X233036010Y-104613990D02*
X240714000Y-96936000D01*
X206491600Y-106137990D02*
X222493600Y-106137990D01*
X222493600Y-106137990D02*
X224017600Y-104613990D01*
X206227990Y-106401600D02*
X206491600Y-106137990D01*
X206227991Y-110728059D02*
X206227990Y-106401600D01*
X224017600Y-104613990D02*
X233036010Y-104613990D01*
X204513004Y-112443046D02*
X206227991Y-110728059D01*
X188373604Y-112443046D02*
X204513004Y-112443046D01*
X184322650Y-116494000D02*
X188373604Y-112443046D01*
X183691000Y-116494000D02*
X184322650Y-116494000D01*
D35*
%TO.N,sw9*%
X245886000Y-57488000D02*
X248334000Y-59936000D01*
X248334000Y-59936000D02*
X248334000Y-91602000D01*
X248334000Y-91602000D02*
X243508000Y-96428000D01*
D36*
X206678000Y-106588000D02*
X222680000Y-106588000D01*
X206678000Y-110914458D02*
X206678000Y-106588000D01*
X224204000Y-105064000D02*
X235126000Y-105064000D01*
X204699405Y-112893055D02*
X206678000Y-110914458D01*
X188560004Y-112893056D02*
X204699405Y-112893055D01*
X185342000Y-116111060D02*
X188560004Y-112893056D01*
X235126000Y-105064000D02*
X243635000Y-96555000D01*
X185342000Y-117383000D02*
X185342000Y-116111060D01*
X184912000Y-117813000D02*
X185342000Y-117383000D01*
X222680000Y-106588000D02*
X224204000Y-105064000D01*
X183226000Y-117813000D02*
X184912000Y-117813000D01*
%TO.N,sw10*%
X141316000Y-117813000D02*
X137512000Y-117813000D01*
X137512000Y-117813000D02*
X134796000Y-115097000D01*
X134796000Y-115097000D02*
X134796000Y-106089870D01*
X134796000Y-106089870D02*
X131713194Y-103007064D01*
X131713194Y-103007064D02*
X119140195Y-103007063D01*
X119140195Y-103007063D02*
X115457202Y-99324070D01*
X85877810Y-100906058D02*
X69424058Y-100906058D01*
X87459799Y-99324070D02*
X85877810Y-100906058D01*
X115457202Y-99324070D02*
X87459799Y-99324070D01*
X69424058Y-100906058D02*
X65581000Y-97063000D01*
D35*
X65546000Y-96858000D02*
X65546000Y-84328000D01*
X65546000Y-84328000D02*
X64692000Y-83474000D01*
X64692000Y-83474000D02*
X63041000Y-83474000D01*
D36*
%TO.N,sw11*%
X141316000Y-116543000D02*
X138274000Y-116543000D01*
X138274000Y-116543000D02*
X135304000Y-113573000D01*
X135304000Y-113573000D02*
X135304000Y-105961460D01*
X135304000Y-105961460D02*
X131899595Y-102557055D01*
X131899595Y-102557055D02*
X119326596Y-102557054D01*
X119326596Y-102557054D02*
X115643602Y-98874060D01*
X115643602Y-98874060D02*
X87273399Y-98874060D01*
X87273399Y-98874060D02*
X85691410Y-100456048D01*
X85691410Y-100456048D02*
X71641048Y-100456048D01*
X71641048Y-100456048D02*
X68121000Y-96936000D01*
D35*
X68086000Y-96858000D02*
X68086000Y-72136000D01*
X68086000Y-72136000D02*
X66597000Y-70647000D01*
X66597000Y-70647000D02*
X62787000Y-70647000D01*
D36*
%TO.N,sw12*%
X141316000Y-115273000D02*
X138401000Y-115273000D01*
X138401000Y-115273000D02*
X135812000Y-112684000D01*
X135812000Y-112684000D02*
X135812000Y-105833050D01*
X135812000Y-105833050D02*
X132085996Y-102107046D01*
X132085996Y-102107046D02*
X119512997Y-102107045D01*
X119512997Y-102107045D02*
X115830002Y-98424050D01*
X115830002Y-98424050D02*
X87086999Y-98424050D01*
X87086999Y-98424050D02*
X85505010Y-100006038D01*
X85505010Y-100006038D02*
X73731038Y-100006038D01*
X73731038Y-100006038D02*
X70534000Y-96809000D01*
D35*
X70626000Y-96858000D02*
X70626000Y-61341000D01*
X70626000Y-61341000D02*
X67232000Y-57947000D01*
X67232000Y-57947000D02*
X62660000Y-57947000D01*
D36*
%TO.N,sw13*%
X139288590Y-114003000D02*
X136297960Y-111012370D01*
X141316000Y-114003000D02*
X139288590Y-114003000D01*
X136297960Y-111012370D02*
X136297960Y-105682600D01*
X136297960Y-105682600D02*
X132272397Y-101657037D01*
X132272397Y-101657037D02*
X119699398Y-101657036D01*
X119699398Y-101657036D02*
X116016402Y-97974040D01*
X86900600Y-97974040D02*
X85318610Y-99556028D01*
X116016402Y-97974040D02*
X86900600Y-97974040D01*
X85318610Y-99556028D02*
X75694028Y-99556028D01*
X75694028Y-99556028D02*
X73074000Y-96936000D01*
D35*
X73166000Y-96858000D02*
X73166000Y-94558000D01*
X73166000Y-94558000D02*
X77646000Y-90078000D01*
X77646000Y-90078000D02*
X77646000Y-84363000D01*
X77646000Y-84363000D02*
X76757000Y-83474000D01*
X76757000Y-83474000D02*
X74217000Y-83474000D01*
D36*
%TO.N,sw14*%
X138655000Y-112733000D02*
X141316000Y-112733000D01*
X136747970Y-110825970D02*
X138655000Y-112733000D01*
X136747970Y-105496200D02*
X136747970Y-110825970D01*
X132458797Y-101207027D02*
X136747970Y-105496200D01*
X86714200Y-97524030D02*
X116202800Y-97524030D01*
X116202800Y-97524030D02*
X119885799Y-101207027D01*
X85132211Y-99106019D02*
X86714200Y-97524030D01*
X77954020Y-99106020D02*
X85132211Y-99106019D01*
X119885799Y-101207027D02*
X132458797Y-101207027D01*
X75706000Y-96858000D02*
X77954020Y-99106020D01*
D35*
X75706000Y-96858000D02*
X75706000Y-94939000D01*
X75706000Y-94939000D02*
X80440000Y-90205000D01*
X80440000Y-90205000D02*
X80440000Y-72679000D01*
X80440000Y-72679000D02*
X78408000Y-70647000D01*
X78408000Y-70647000D02*
X74471000Y-70647000D01*
D36*
%TO.N,sw15*%
X141316000Y-111463000D02*
X138528000Y-111463000D01*
X137197980Y-105309800D02*
X132645200Y-100757020D01*
X137197980Y-110132980D02*
X137197980Y-105309800D01*
X138528000Y-111463000D02*
X137197980Y-110132980D01*
X132645200Y-100757020D02*
X120072198Y-100757018D01*
X120072198Y-100757018D02*
X116389200Y-97074020D01*
X116389200Y-97074020D02*
X86527800Y-97074020D01*
X84945810Y-98656010D02*
X80001010Y-98656010D01*
X86527800Y-97074020D02*
X84945810Y-98656010D01*
X80001010Y-98656010D02*
X78281000Y-96936000D01*
D35*
X78246000Y-96858000D02*
X78246000Y-94812000D01*
X78246000Y-94812000D02*
X82091000Y-90967000D01*
X82091000Y-90967000D02*
X82091000Y-59471000D01*
X82091000Y-59471000D02*
X80567000Y-57947000D01*
X80567000Y-57947000D02*
X74344000Y-57947000D01*
D36*
%TO.N,sw16*%
X139161590Y-110193000D02*
X137647990Y-108679400D01*
X141316000Y-110193000D02*
X139161590Y-110193000D01*
X137647990Y-105123400D02*
X132831600Y-100307010D01*
X137647990Y-108679400D02*
X137647990Y-105123400D01*
X132831600Y-100307010D02*
X121588000Y-100307010D01*
X120258599Y-100307009D02*
X116575600Y-96624010D01*
X121588000Y-100307010D02*
X120258599Y-100307009D01*
X116575600Y-96624010D02*
X86341400Y-96624010D01*
X86341400Y-96624010D02*
X84759410Y-98206000D01*
X84759410Y-98206000D02*
X82091000Y-98206000D01*
X82091000Y-98206000D02*
X80948000Y-97063000D01*
D35*
X80786000Y-96858000D02*
X80786000Y-94812000D01*
X80786000Y-94812000D02*
X83615000Y-91983000D01*
X83615000Y-91983000D02*
X83615000Y-85125000D01*
X83615000Y-85125000D02*
X85266000Y-83474000D01*
D36*
%TO.N,sw17*%
X141316000Y-108923000D02*
X138528000Y-108923000D01*
X138528000Y-108923000D02*
X138098000Y-108493000D01*
X138098000Y-108493000D02*
X138098000Y-104937000D01*
X138098000Y-104937000D02*
X133018000Y-99857000D01*
X133018000Y-99857000D02*
X120445000Y-99857000D01*
X120445000Y-99857000D02*
X116762000Y-96174000D01*
X116762000Y-96174000D02*
X86155000Y-96174000D01*
X86155000Y-96174000D02*
X85520000Y-96809000D01*
X85520000Y-96809000D02*
X83742000Y-96809000D01*
D35*
X83326000Y-96858000D02*
X83326000Y-95193000D01*
X83326000Y-95193000D02*
X88822000Y-89697000D01*
X88822000Y-89697000D02*
X88822000Y-71536000D01*
X88822000Y-71536000D02*
X88060000Y-70774000D01*
X88060000Y-70774000D02*
X85901000Y-70774000D01*
%TO.N,sw18*%
X63006000Y-96858000D02*
X63006000Y-91694000D01*
X63006000Y-91694000D02*
X60501000Y-89189000D01*
X60501000Y-89189000D02*
X60501000Y-56550000D01*
X60501000Y-56550000D02*
X60882000Y-56169000D01*
X60882000Y-56169000D02*
X83869000Y-56169000D01*
X83869000Y-56169000D02*
X85647000Y-57947000D01*
D36*
X128143000Y-107653000D02*
X132016000Y-107653000D01*
X62914000Y-97444000D02*
X62914000Y-99984000D01*
X124705010Y-111090990D02*
X128143000Y-107653000D01*
X62914000Y-99984000D02*
X64311000Y-101381000D01*
X112869080Y-99774080D02*
X113079000Y-99984000D01*
X114660990Y-111090990D02*
X124705010Y-111090990D01*
X64311000Y-101381000D02*
X64335932Y-101356068D01*
X64335932Y-101356068D02*
X86064210Y-101356068D01*
X86064210Y-101356068D02*
X87646199Y-99774080D01*
X87646199Y-99774080D02*
X112869080Y-99774080D01*
X112246000Y-108676000D02*
X114660990Y-111090990D01*
X113079000Y-99984000D02*
X113079000Y-103145000D01*
X113079000Y-103145000D02*
X112246000Y-103978000D01*
X112246000Y-103978000D02*
X112246000Y-108676000D01*
D34*
%TO.N,sw25*%
X214757000Y-129159000D02*
X209310000Y-129159000D01*
D36*
X173926000Y-116543000D02*
X177679957Y-116543000D01*
X178519959Y-123142415D02*
X180413604Y-125036056D01*
X178519958Y-117383001D02*
X178519959Y-123142415D01*
X177679957Y-116543000D02*
X178519958Y-117383001D01*
X180413604Y-125036056D02*
X182167001Y-125036055D01*
X182167001Y-125036055D02*
X186206405Y-125036055D01*
X186206405Y-125036055D02*
X189715430Y-121527030D01*
X189715430Y-121527030D02*
X205232620Y-121527030D01*
X205232620Y-121527030D02*
X205904980Y-122199390D01*
X205904980Y-124231390D02*
X205916000Y-124242410D01*
X205904980Y-122199390D02*
X205904980Y-124231390D01*
X205916000Y-124242410D02*
X205916000Y-125765000D01*
X205916000Y-125765000D02*
X209218000Y-129067000D01*
D34*
%TO.N,sw24*%
X214757000Y-126619000D02*
X209564000Y-126619000D01*
D36*
X173926000Y-115273000D02*
X178637965Y-115273000D01*
X178969966Y-115605001D02*
X178969967Y-122956014D01*
X178637965Y-115273000D02*
X178969966Y-115605001D01*
X178969967Y-122956014D02*
X180600003Y-124586047D01*
X180600003Y-124586047D02*
X186020004Y-124586046D01*
X186020004Y-124586046D02*
X189529030Y-121077020D01*
X189529030Y-121077020D02*
X205535000Y-121077020D01*
X206354990Y-122012990D02*
X206354990Y-124044990D01*
X205535000Y-121193000D02*
X206354990Y-122012990D01*
X205535000Y-121077020D02*
X205535000Y-121193000D01*
X206354990Y-124044990D02*
X208964000Y-126654000D01*
D34*
%TO.N,sw23*%
X214757000Y-124079000D02*
X209183000Y-124079000D01*
D36*
X173926000Y-114003000D02*
X178960973Y-114003000D01*
X178960973Y-114003000D02*
X179419974Y-114462000D01*
X185833603Y-124136037D02*
X189342630Y-120627010D01*
X180786402Y-124136038D02*
X185833603Y-124136037D01*
X179419975Y-122769613D02*
X180786402Y-124136038D01*
X179419974Y-114462000D02*
X179419975Y-122769613D01*
X189342630Y-120627010D02*
X205729600Y-120627010D01*
X205729600Y-120627010D02*
X206805000Y-121702410D01*
X206805000Y-121702410D02*
X206805000Y-123225000D01*
X206805000Y-123225000D02*
X207567000Y-123987000D01*
X207567000Y-123987000D02*
X209091000Y-123987000D01*
D34*
%TO.N,sw22*%
X214757000Y-121539000D02*
X209310000Y-121539000D01*
D36*
X173926000Y-112733000D02*
X179156981Y-112733000D01*
X180972802Y-123686028D02*
X185647202Y-123686028D01*
X179869983Y-122583212D02*
X180972802Y-123686028D01*
X179869982Y-113446001D02*
X179869983Y-122583212D01*
X179156981Y-112733000D02*
X179869982Y-113446001D01*
X185647202Y-123686028D02*
X189156230Y-120177000D01*
X189156230Y-120177000D02*
X205916000Y-120177000D01*
X205916000Y-120177000D02*
X207186000Y-121447000D01*
X207186000Y-121447000D02*
X209091000Y-121447000D01*
D34*
%TO.N,sw21*%
X214757000Y-118999000D02*
X209310000Y-118999000D01*
D36*
X173926000Y-111463000D02*
X179606990Y-111463000D01*
X179606990Y-111463000D02*
X180319990Y-112176000D01*
X181159201Y-123236019D02*
X185460802Y-123236018D01*
X180319991Y-122396811D02*
X181159201Y-123236019D01*
X180319990Y-112176000D02*
X180319991Y-122396811D01*
X189016800Y-119680020D02*
X208444980Y-119680020D01*
X185460802Y-123236018D02*
X189016800Y-119680020D01*
X208444980Y-119680020D02*
X209218000Y-118907000D01*
D34*
%TO.N,sw20*%
X214757000Y-116459000D02*
X209437000Y-116459000D01*
D36*
X173926000Y-110193000D02*
X180438000Y-110193000D01*
X180438000Y-110193000D02*
X180770000Y-110525000D01*
X181345600Y-122786010D02*
X185274401Y-122786009D01*
X180770000Y-122210410D02*
X181345600Y-122786010D01*
X180770000Y-110525000D02*
X180770000Y-122210410D01*
X188830400Y-119230010D02*
X206227990Y-119230010D01*
X185274401Y-122786009D02*
X188830400Y-119230010D01*
X206227990Y-119230010D02*
X209091000Y-116367000D01*
D34*
%TO.N,sw19*%
X214757000Y-113919000D02*
X209437000Y-113919000D01*
D36*
X173926000Y-108923000D02*
X180692000Y-108923000D01*
X180692000Y-108923000D02*
X181532000Y-109763000D01*
X181532000Y-109763000D02*
X181532000Y-122336000D01*
X181532000Y-122336000D02*
X185088000Y-122336000D01*
X185088000Y-122336000D02*
X188644000Y-118780000D01*
X188644000Y-118780000D02*
X204265000Y-118780000D01*
X204265000Y-118780000D02*
X208964000Y-114081000D01*
D35*
%TO.N,AGND*%
X93521000Y-104048000D02*
X93521000Y-101254000D01*
X99490000Y-75600000D02*
X99490000Y-68742000D01*
X210326000Y-90508000D02*
X210326000Y-90551000D01*
X210326000Y-90551000D02*
X220521000Y-100746000D01*
X200246000Y-72228000D02*
X204246000Y-76228000D01*
X204246000Y-76228000D02*
X204246000Y-84478000D01*
X204246000Y-84478000D02*
X210746000Y-90978000D01*
X190496000Y-72228000D02*
X183996000Y-65728000D01*
X200246000Y-72228000D02*
X190496000Y-72228000D01*
%TO.N,+3V3*%
X134415000Y-117764000D02*
X132510000Y-117764000D01*
X171880000Y-121701000D02*
X173912000Y-121701000D01*
X135177000Y-118526000D02*
X134415000Y-117764000D01*
X132016000Y-117813000D02*
X130302000Y-117813000D01*
X130302000Y-117813000D02*
X130224000Y-117891000D01*
X130224000Y-117891000D02*
X130224000Y-121447000D01*
X130224000Y-121447000D02*
X130478000Y-121701000D01*
X130478000Y-121701000D02*
X131621000Y-121701000D01*
D34*
X199058000Y-73822000D02*
X199058000Y-87919000D01*
X199058000Y-87919000D02*
X203376000Y-92237000D01*
X203376000Y-92237000D02*
X203376000Y-98968000D01*
X203376000Y-98968000D02*
X199566000Y-102778000D01*
X199566000Y-102778000D02*
X194359000Y-102778000D01*
X199058000Y-87919000D02*
X193089000Y-87919000D01*
X193089000Y-87919000D02*
X189406000Y-91602000D01*
X189406000Y-91602000D02*
X189406000Y-95158000D01*
X97204000Y-79029000D02*
X111428000Y-79029000D01*
X111428000Y-79029000D02*
X113206000Y-80807000D01*
X111301000Y-112684000D02*
X111301000Y-102778000D01*
X111301000Y-102778000D02*
X109904000Y-101381000D01*
X118339000Y-106056000D02*
X125628000Y-106056000D01*
X125628000Y-106056000D02*
X126033000Y-106461000D01*
D35*
X233496000Y-111728000D02*
X233496000Y-109228000D01*
D34*
X117086000Y-94818000D02*
X118586000Y-94818000D01*
X118586000Y-94818000D02*
X122086000Y-98318000D01*
X122106000Y-98168000D02*
X122106000Y-96548000D01*
X122106000Y-96548000D02*
X122836000Y-95818000D01*
X122836000Y-95818000D02*
X126586000Y-95818000D01*
X129336000Y-95818000D02*
X131586000Y-98068000D01*
X126586000Y-95818000D02*
X129336000Y-95818000D01*
X111809000Y-120304000D02*
X111809000Y-118399000D01*
X110793000Y-121320000D02*
X111809000Y-120304000D01*
X110793000Y-125892000D02*
X110793000Y-121320000D01*
X110969000Y-126068000D02*
X110793000Y-125892000D01*
X120240000Y-126068000D02*
X114836000Y-126068000D01*
X121080000Y-126908000D02*
X120240000Y-126068000D01*
X114836000Y-126068000D02*
X110969000Y-126068000D01*
X113206000Y-80807000D02*
X115917000Y-80807000D01*
X115917000Y-80807000D02*
X123996000Y-72728000D01*
X193089000Y-85071000D02*
X193089000Y-87919000D01*
X186246000Y-78228000D02*
X193089000Y-85071000D01*
D35*
X177140999Y-119083001D02*
X177140999Y-122933001D01*
X177140999Y-122933001D02*
X173371000Y-126703000D01*
X173371000Y-126703000D02*
X173296000Y-126778000D01*
D34*
X98506000Y-57508000D02*
X98506000Y-65608000D01*
X98506000Y-65608000D02*
X96896000Y-67218000D01*
X96896000Y-67218000D02*
X96896000Y-75248000D01*
X96896000Y-75248000D02*
X96896000Y-75248000D01*
X241246000Y-113728000D02*
X235396000Y-113728000D01*
X233496000Y-111828000D02*
X233496000Y-111728000D01*
X235396000Y-113728000D02*
X233496000Y-111828000D01*
X233496000Y-111828000D02*
X233496000Y-109428000D01*
D35*
X177140999Y-122933001D02*
X177140999Y-125872999D01*
X177140999Y-125872999D02*
X178746000Y-127478000D01*
X148589000Y-125135000D02*
X148589000Y-115321000D01*
X148589000Y-115321000D02*
X145746000Y-112478000D01*
D36*
%TO.N,Net-(RV3-Pad2)*%
X123874000Y-128686000D02*
X123874000Y-124495000D01*
X123874000Y-124495000D02*
X124255000Y-124114000D01*
X124255000Y-124114000D02*
X124255000Y-119542000D01*
X124255000Y-119542000D02*
X123874000Y-119161000D01*
X123874000Y-119161000D02*
X121588000Y-119161000D01*
%TO.N,GPIO10*%
X143291000Y-127049000D02*
X143305000Y-127049000D01*
X139368000Y-130972000D02*
X143291000Y-127049000D01*
X134669000Y-130972000D02*
X139368000Y-130972000D01*
X122743030Y-130925030D02*
X134622030Y-130925030D01*
X134622030Y-130925030D02*
X134669000Y-130972000D01*
X121500060Y-132168000D02*
X122743030Y-130925030D01*
X116943030Y-130925030D02*
X118186000Y-132168000D01*
X93855030Y-130925030D02*
X116943030Y-130925030D01*
X118186000Y-132168000D02*
X121500060Y-132168000D01*
X92251000Y-129321000D02*
X93855030Y-130925030D01*
X143305000Y-127049000D02*
X144286000Y-126068000D01*
X92251000Y-126019000D02*
X92251000Y-129321000D01*
%TO.N,GPIO11*%
X140130000Y-127684000D02*
X141746000Y-126068000D01*
X140116000Y-127684000D02*
X140130000Y-127684000D01*
X137336000Y-130464000D02*
X140116000Y-127684000D01*
X135675390Y-130475020D02*
X135686410Y-130464000D01*
X121313660Y-131717990D02*
X122556630Y-130475020D01*
X118385990Y-131717990D02*
X121313660Y-131717990D01*
X135686410Y-130464000D02*
X137336000Y-130464000D01*
X96072020Y-130475020D02*
X117143020Y-130475020D01*
X122556630Y-130475020D02*
X135675390Y-130475020D01*
X94791000Y-129194000D02*
X96072020Y-130475020D01*
X117143020Y-130475020D02*
X118385990Y-131717990D01*
X94791000Y-126146000D02*
X94791000Y-129194000D01*
%TO.N,GPIO12*%
X139206000Y-126068000D02*
X138405002Y-126068000D01*
X122370230Y-130025010D02*
X135488990Y-130025010D01*
X121127260Y-131267980D02*
X122370230Y-130025010D01*
X118572390Y-131267980D02*
X121127260Y-131267980D01*
X117329421Y-130025011D02*
X118572390Y-131267980D01*
X98416010Y-130025010D02*
X117329421Y-130025011D01*
X135488990Y-130025010D02*
X139368000Y-126146000D01*
X97296000Y-128905000D02*
X98416010Y-130025010D01*
X97296000Y-126068000D02*
X97296000Y-128905000D01*
%TO.N,GPIO13*%
X99836000Y-126068000D02*
X99836000Y-128651000D01*
X99836000Y-128651000D02*
X100760000Y-129575000D01*
X133145000Y-129575000D02*
X136574000Y-126146000D01*
X117343000Y-129575000D02*
X117515822Y-129575002D01*
X100760000Y-129575000D02*
X117343000Y-129575000D01*
X117515822Y-129575002D02*
X118758790Y-130817970D01*
X118758790Y-130817970D02*
X120940860Y-130817970D01*
X122129000Y-129629830D02*
X122129000Y-129575000D01*
X120940860Y-130817970D02*
X122129000Y-129629830D01*
X122129000Y-129575000D02*
X133145000Y-129575000D01*
D35*
%TO.N,Net-(LS1-Pad1)*%
X196648500Y-127880500D02*
X196648500Y-126330500D01*
X195051000Y-129478000D02*
X196648500Y-127880500D01*
X140746000Y-131478000D02*
X142746000Y-129478000D01*
X122371000Y-132853000D02*
X123746000Y-131478000D01*
X123746000Y-131478000D02*
X140746000Y-131478000D01*
X117871000Y-132853000D02*
X122371000Y-132853000D01*
X116565010Y-131547010D02*
X117871000Y-132853000D01*
X92572010Y-131547010D02*
X116565010Y-131547010D01*
X91108000Y-130083000D02*
X92572010Y-131547010D01*
X82218000Y-130083000D02*
X91108000Y-130083000D01*
X82218000Y-126527000D02*
X82218000Y-130083000D01*
X142746000Y-129478000D02*
X195051000Y-129478000D01*
D36*
%TO.N,DO0*%
X113409200Y-107486900D02*
X127135360Y-107486900D01*
X127135360Y-107486900D02*
X128364720Y-106257540D01*
X128364720Y-106257540D02*
X130140180Y-106257540D01*
X130140180Y-106257540D02*
X131671800Y-104725920D01*
X139271480Y-98474980D02*
X141077420Y-98474980D01*
X141077420Y-98474980D02*
X141620980Y-99018540D01*
X141620980Y-99018540D02*
X143104340Y-99018540D01*
%TO.N,Net-(D1-Pad4)*%
X143246000Y-93898000D02*
X143246000Y-87083660D01*
X143246000Y-87083660D02*
X143365960Y-86963700D01*
%TO.N,Net-(D2-Pad4)*%
X146246000Y-99058000D02*
X146246000Y-95897200D01*
X146246000Y-95897200D02*
X147409640Y-94733560D01*
X147409640Y-94733560D02*
X147409640Y-77969560D01*
X147409640Y-77969560D02*
X143414220Y-73974140D01*
%TO.N,Net-(D3-Pad4)*%
X149246000Y-98978000D02*
X149246000Y-95975680D01*
X149246000Y-95975680D02*
X150335720Y-94885960D01*
X150335720Y-94885960D02*
X150335720Y-67946720D01*
X150335720Y-67946720D02*
X143360880Y-60971880D01*
%TO.N,Net-(D4-Pad4)*%
X158246000Y-98978000D02*
X156782240Y-97514240D01*
X156782240Y-97514240D02*
X156782240Y-91459500D01*
X156782240Y-91459500D02*
X158532300Y-89709440D01*
X158532300Y-89709440D02*
X158532300Y-85241580D01*
%TO.N,Net-(D5-Pad4)*%
X151184080Y-89846600D02*
X151184080Y-78061000D01*
X151184080Y-78061000D02*
X153002720Y-76242360D01*
X153002720Y-76242360D02*
X155418260Y-76242360D01*
X155418260Y-76242360D02*
X156388540Y-75272080D01*
X156388540Y-75272080D02*
X156388540Y-73986840D01*
X151184080Y-89846600D02*
X151184080Y-94916080D01*
X151184080Y-94916080D02*
X155246000Y-98978000D01*
%TO.N,Net-(D6-Pad4)*%
X152246000Y-93898000D02*
X152246000Y-92731840D01*
X152246000Y-92731840D02*
X156398700Y-88579140D01*
X156398700Y-88579140D02*
X156398700Y-87039900D01*
%TO.N,Net-(D7-Pad4)*%
X161246000Y-93898000D02*
X161246000Y-96375380D01*
X161246000Y-96375380D02*
X162923960Y-98053340D01*
X162923960Y-98053340D02*
X162923960Y-100161540D01*
X162923960Y-100161540D02*
X163800260Y-101037840D01*
X163800260Y-101037840D02*
X167785520Y-101037840D01*
X167785520Y-101037840D02*
X169383180Y-99440180D01*
X169383180Y-99440180D02*
X169383180Y-86930680D01*
%TO.N,Net-(D8-Pad4)*%
X164246000Y-98978000D02*
X164246000Y-97749780D01*
X164246000Y-97749780D02*
X162799500Y-96303280D01*
X162799500Y-96303280D02*
X162799500Y-72699060D01*
X162799500Y-72699060D02*
X163708820Y-71789740D01*
X163708820Y-71789740D02*
X168852320Y-71789740D01*
X168852320Y-71789740D02*
X169413660Y-72351080D01*
X169413660Y-72351080D02*
X169413660Y-73984300D01*
%TO.N,Net-(D9-Pad4)*%
X171107840Y-81241080D02*
X171107840Y-62823540D01*
X171107840Y-62823540D02*
X169383180Y-61098880D01*
%TO.N,Net-(D1-Pad1)*%
X146246000Y-93978000D02*
X146246000Y-88144480D01*
X146246000Y-88144480D02*
X143835860Y-85734340D01*
X143835860Y-85734340D02*
X140023320Y-85734340D01*
X140023320Y-85734340D02*
X139576280Y-86181380D01*
X139576280Y-86181380D02*
X139576280Y-86963700D01*
%TO.N,Net-(D2-Pad1)*%
X139616000Y-73978000D02*
X139616000Y-73042880D01*
X139616000Y-73042880D02*
X139835360Y-72823520D01*
X139835360Y-72823520D02*
X144511500Y-72823520D01*
X147750000Y-77814932D02*
X147759650Y-77824582D01*
X147750000Y-76062020D02*
X147750000Y-77814932D01*
X144511500Y-72823520D02*
X147750000Y-76062020D01*
X147759650Y-77824582D02*
X147759650Y-92490230D01*
X147759650Y-92490230D02*
X149317180Y-94047760D01*
%TO.N,Net-(D3-Pad1)*%
X139616000Y-60752998D02*
X139573740Y-60710738D01*
X139616000Y-60978000D02*
X139616000Y-60752998D01*
X146423994Y-61650006D02*
X146423994Y-61650006D01*
X144166000Y-63908000D02*
X140856000Y-63908000D01*
X140856000Y-63908000D02*
X139656000Y-62708000D01*
X139656000Y-62708000D02*
X139656000Y-60938000D01*
X150685730Y-67801742D02*
X150685730Y-97499110D01*
X148246000Y-65362012D02*
X150685730Y-67801742D01*
X148246000Y-63472012D02*
X148246000Y-65362012D01*
X150685730Y-97499110D02*
X152296600Y-99109980D01*
X146423994Y-61650006D02*
X148246000Y-63472012D01*
%TO.N,Net-(D4-Pad1)*%
X152616640Y-63468700D02*
X152616640Y-60936320D01*
X155736700Y-63468700D02*
X152616640Y-63468700D01*
X159921170Y-67653170D02*
X155736700Y-63468700D01*
X159921170Y-97653170D02*
X159921170Y-67653170D01*
X161246000Y-98978000D02*
X159921170Y-97653170D01*
%TO.N,Net-(D5-Pad1)*%
X152616000Y-73978000D02*
X152616000Y-72463480D01*
X152616000Y-72463480D02*
X152893500Y-72185980D01*
X152893500Y-72185980D02*
X156500300Y-72185980D01*
X156500300Y-72185980D02*
X159571160Y-75256840D01*
X159571160Y-75256840D02*
X159571160Y-91017540D01*
X159571160Y-91017540D02*
X158285920Y-92302780D01*
X158285920Y-92302780D02*
X158285920Y-93933460D01*
%TO.N,Net-(D6-Pad1)*%
X155246000Y-93898000D02*
X155246000Y-91118680D01*
X155246000Y-91118680D02*
X157678860Y-88685820D01*
X157678860Y-88685820D02*
X157678860Y-86097560D01*
X157678860Y-86097560D02*
X156975280Y-85393980D01*
X156975280Y-85393980D02*
X153498020Y-85393980D01*
X153498020Y-85393980D02*
X152687760Y-86204240D01*
X152687760Y-86204240D02*
X152687760Y-86961160D01*
%TO.N,Net-(D7-Pad1)*%
X164246000Y-93898000D02*
X164246000Y-88369620D01*
X164246000Y-88369620D02*
X165651920Y-86963700D01*
%TO.N,Net-(D8-Pad1)*%
X167246000Y-93898000D02*
X164838180Y-96305820D01*
X163429420Y-96305820D02*
X163149510Y-96025910D01*
X164838180Y-96305820D02*
X163429420Y-96305820D01*
X163149510Y-96025910D02*
X163149510Y-76413050D01*
X163149510Y-76413050D02*
X165590960Y-73971600D01*
%TD*%
M02*
