%TF.GenerationSoftware,KiCad,Pcbnew,(5.1.10)-1*%
%TF.CreationDate,2021-07-06T19:30:30-04:00*%
%TF.ProjectId,RICM_pico,5249434d-5f70-4696-936f-2e6b69636164,rev?*%
%TF.SameCoordinates,Original*%
%TF.FileFunction,Legend,Bot*%
%TF.FilePolarity,Positive*%
%FSLAX46Y46*%
G04 Gerber Fmt 4.6, Leading zero omitted, Abs format (unit mm)*
G04 Created by KiCad (PCBNEW (5.1.10)-1) date 2021-07-06 19:30:30*
%MOMM*%
%LPD*%
G01*
G04 APERTURE LIST*
%ADD10C,0.120000*%
%ADD11C,0.150000*%
G04 APERTURE END LIST*
D10*
%TO.C,RN3*%
X16640000Y-181610000D02*
X13840000Y-181610000D01*
X16640000Y-158580000D02*
X16640000Y-184320000D01*
X13840000Y-158580000D02*
X16640000Y-158580000D01*
X13840000Y-184320000D02*
X13840000Y-158580000D01*
X16640000Y-184320000D02*
X13840000Y-184320000D01*
D11*
X17187619Y-170870476D02*
X17663809Y-171203809D01*
X17187619Y-171441904D02*
X18187619Y-171441904D01*
X18187619Y-171060952D01*
X18140000Y-170965714D01*
X18092380Y-170918095D01*
X17997142Y-170870476D01*
X17854285Y-170870476D01*
X17759047Y-170918095D01*
X17711428Y-170965714D01*
X17663809Y-171060952D01*
X17663809Y-171441904D01*
X17187619Y-170441904D02*
X18187619Y-170441904D01*
X17187619Y-169870476D01*
X18187619Y-169870476D01*
X18187619Y-169489523D02*
X18187619Y-168870476D01*
X17806666Y-169203809D01*
X17806666Y-169060952D01*
X17759047Y-168965714D01*
X17711428Y-168918095D01*
X17616190Y-168870476D01*
X17378095Y-168870476D01*
X17282857Y-168918095D01*
X17235238Y-168965714D01*
X17187619Y-169060952D01*
X17187619Y-169346666D01*
X17235238Y-169441904D01*
X17282857Y-169489523D01*
%TD*%
M02*
