%TF.GenerationSoftware,KiCad,Pcbnew,(5.1.10)-1*%
%TF.CreationDate,2021-07-06T19:30:30-04:00*%
%TF.ProjectId,RICM_pico,5249434d-5f70-4696-936f-2e6b69636164,rev?*%
%TF.SameCoordinates,Original*%
%TF.FileFunction,Copper,L2,Bot*%
%TF.FilePolarity,Positive*%
%FSLAX46Y46*%
G04 Gerber Fmt 4.6, Leading zero omitted, Abs format (unit mm)*
G04 Created by KiCad (PCBNEW (5.1.10)-1) date 2021-07-06 19:30:30*
%MOMM*%
%LPD*%
G01*
G04 APERTURE LIST*
%TA.AperFunction,ComponentPad*%
%ADD10R,1.800000X1.800000*%
%TD*%
%TA.AperFunction,ComponentPad*%
%ADD11C,1.800000*%
%TD*%
%TA.AperFunction,ComponentPad*%
%ADD12C,1.600000*%
%TD*%
%TA.AperFunction,ComponentPad*%
%ADD13O,1.600000X1.600000*%
%TD*%
%TA.AperFunction,ComponentPad*%
%ADD14R,1.700000X1.700000*%
%TD*%
%TA.AperFunction,ComponentPad*%
%ADD15O,1.700000X1.700000*%
%TD*%
%TA.AperFunction,ComponentPad*%
%ADD16R,1.600000X1.600000*%
%TD*%
%TA.AperFunction,ComponentPad*%
%ADD17C,2.000000*%
%TD*%
%TA.AperFunction,ComponentPad*%
%ADD18R,1.750000X1.750000*%
%TD*%
%TA.AperFunction,ComponentPad*%
%ADD19C,1.750000*%
%TD*%
%TA.AperFunction,ComponentPad*%
%ADD20C,2.700000*%
%TD*%
%TA.AperFunction,ComponentPad*%
%ADD21R,2.000000X2.000000*%
%TD*%
%TA.AperFunction,ComponentPad*%
%ADD22O,4.000000X1.800000*%
%TD*%
%TA.AperFunction,ComponentPad*%
%ADD23O,1.800000X4.000000*%
%TD*%
%TA.AperFunction,ComponentPad*%
%ADD24R,1.800000X4.400000*%
%TD*%
%TA.AperFunction,ComponentPad*%
%ADD25R,2.200000X2.200000*%
%TD*%
%TA.AperFunction,ComponentPad*%
%ADD26O,2.200000X2.200000*%
%TD*%
%TA.AperFunction,ViaPad*%
%ADD27C,0.800000*%
%TD*%
%TA.AperFunction,Conductor*%
%ADD28C,0.250000*%
%TD*%
G04 APERTURE END LIST*
D10*
%TO.P,D10,1*%
%TO.N,Net-(D10-Pad1)*%
X78740000Y-109220000D03*
D11*
%TO.P,D10,3*%
%TO.N,Net-(D10-Pad3)*%
X81280000Y-109220000D03*
%TO.P,D10,4*%
%TO.N,Net-(D10-Pad4)*%
X83820000Y-109220000D03*
%TO.P,D10,2*%
%TO.N,Net-(D10-Pad2)*%
X76200000Y-109220000D03*
%TD*%
D10*
%TO.P,D9,1*%
%TO.N,Net-(D9-Pad1)*%
X66040000Y-109220000D03*
D11*
%TO.P,D9,3*%
%TO.N,Net-(D9-Pad3)*%
X68580000Y-109220000D03*
%TO.P,D9,4*%
%TO.N,Net-(D9-Pad4)*%
X71120000Y-109220000D03*
%TO.P,D9,2*%
%TO.N,Net-(D9-Pad2)*%
X63500000Y-109220000D03*
%TD*%
D10*
%TO.P,D8,1*%
%TO.N,Net-(D8-Pad1)*%
X53340000Y-109220000D03*
D11*
%TO.P,D8,3*%
%TO.N,Net-(D8-Pad3)*%
X55880000Y-109220000D03*
%TO.P,D8,4*%
%TO.N,Net-(D8-Pad4)*%
X58420000Y-109220000D03*
%TO.P,D8,2*%
%TO.N,Net-(D8-Pad2)*%
X50800000Y-109220000D03*
%TD*%
D10*
%TO.P,D7,1*%
%TO.N,Net-(D7-Pad1)*%
X78740000Y-96520000D03*
D11*
%TO.P,D7,3*%
%TO.N,Net-(D7-Pad3)*%
X81280000Y-96520000D03*
%TO.P,D7,4*%
%TO.N,Net-(D7-Pad4)*%
X83820000Y-96520000D03*
%TO.P,D7,2*%
%TO.N,Net-(D7-Pad2)*%
X76200000Y-96520000D03*
%TD*%
D10*
%TO.P,D6,1*%
%TO.N,Net-(D6-Pad1)*%
X66040000Y-96520000D03*
D11*
%TO.P,D6,3*%
%TO.N,Net-(D6-Pad3)*%
X68580000Y-96520000D03*
%TO.P,D6,4*%
%TO.N,Net-(D6-Pad4)*%
X71120000Y-96520000D03*
%TO.P,D6,2*%
%TO.N,Net-(D6-Pad2)*%
X63500000Y-96520000D03*
%TD*%
D10*
%TO.P,D5,1*%
%TO.N,Net-(D5-Pad1)*%
X53340000Y-96520000D03*
D11*
%TO.P,D5,3*%
%TO.N,Net-(D5-Pad3)*%
X55880000Y-96520000D03*
%TO.P,D5,4*%
%TO.N,Net-(D5-Pad4)*%
X58420000Y-96520000D03*
%TO.P,D5,2*%
%TO.N,Net-(D5-Pad2)*%
X50800000Y-96520000D03*
%TD*%
D10*
%TO.P,D4,1*%
%TO.N,Net-(D4-Pad1)*%
X78740000Y-83820000D03*
D11*
%TO.P,D4,3*%
%TO.N,Net-(D4-Pad3)*%
X81280000Y-83820000D03*
%TO.P,D4,4*%
%TO.N,Net-(D4-Pad4)*%
X83820000Y-83820000D03*
%TO.P,D4,2*%
%TO.N,Net-(D4-Pad2)*%
X76200000Y-83820000D03*
%TD*%
D10*
%TO.P,D3,1*%
%TO.N,Net-(D3-Pad1)*%
X66040000Y-83820000D03*
D11*
%TO.P,D3,3*%
%TO.N,Net-(D3-Pad3)*%
X68580000Y-83820000D03*
%TO.P,D3,4*%
%TO.N,Net-(D3-Pad4)*%
X71120000Y-83820000D03*
%TO.P,D3,2*%
%TO.N,Net-(D3-Pad2)*%
X63500000Y-83820000D03*
%TD*%
D10*
%TO.P,D2,1*%
%TO.N,Net-(D2-Pad1)*%
X53340000Y-83820000D03*
D11*
%TO.P,D2,3*%
%TO.N,Net-(D2-Pad3)*%
X55880000Y-83820000D03*
%TO.P,D2,4*%
%TO.N,Net-(D2-Pad4)*%
X58420000Y-83820000D03*
%TO.P,D2,2*%
%TO.N,Net-(D2-Pad2)*%
X50800000Y-83820000D03*
%TD*%
D12*
%TO.P,R2,1*%
%TO.N,Net-(R2-Pad1)*%
X15240000Y-116840000D03*
D13*
%TO.P,R2,2*%
%TO.N,+5V*%
X15240000Y-124460000D03*
%TD*%
D14*
%TO.P,J2,1*%
%TO.N,Earth*%
X15240000Y-86360000D03*
D15*
%TO.P,J2,2*%
%TO.N,+5V*%
X15240000Y-88900000D03*
%TO.P,J2,3*%
%TO.N,Net-(J2-Pad3)*%
X15240000Y-91440000D03*
%TO.P,J2,4*%
%TO.N,Net-(J2-Pad4)*%
X15240000Y-93980000D03*
%TO.P,J2,5*%
%TO.N,Net-(J2-Pad5)*%
X15240000Y-96520000D03*
%TO.P,J2,6*%
%TO.N,Net-(J2-Pad6)*%
X15240000Y-99060000D03*
%TD*%
D16*
%TO.P,SW19,1*%
%TO.N,Net-(RN3-Pad8)*%
X21590000Y-162560000D03*
D13*
%TO.P,SW19,8*%
%TO.N,Earth*%
X29210000Y-177800000D03*
%TO.P,SW19,2*%
%TO.N,Net-(RN3-Pad7)*%
X21590000Y-165100000D03*
%TO.P,SW19,9*%
%TO.N,Earth*%
X29210000Y-175260000D03*
%TO.P,SW19,3*%
%TO.N,Net-(RN3-Pad6)*%
X21590000Y-167640000D03*
%TO.P,SW19,10*%
%TO.N,Earth*%
X29210000Y-172720000D03*
%TO.P,SW19,4*%
%TO.N,Net-(RN3-Pad5)*%
X21590000Y-170180000D03*
%TO.P,SW19,11*%
%TO.N,Earth*%
X29210000Y-170180000D03*
%TO.P,SW19,5*%
%TO.N,Net-(RN3-Pad4)*%
X21590000Y-172720000D03*
%TO.P,SW19,12*%
%TO.N,Earth*%
X29210000Y-167640000D03*
%TO.P,SW19,6*%
%TO.N,Net-(RN3-Pad3)*%
X21590000Y-175260000D03*
%TO.P,SW19,13*%
%TO.N,Earth*%
X29210000Y-165100000D03*
%TO.P,SW19,7*%
%TO.N,Net-(RN3-Pad2)*%
X21590000Y-177800000D03*
%TO.P,SW19,14*%
%TO.N,Earth*%
X29210000Y-162560000D03*
%TD*%
D17*
%TO.P,SW18,2*%
%TO.N,Earth*%
X77470000Y-53340000D03*
%TO.P,SW18,1*%
%TO.N,Net-(RN2-Pad10)*%
X83820000Y-53340000D03*
%TD*%
%TO.P,SW17,2*%
%TO.N,Earth*%
X77470000Y-41910000D03*
%TO.P,SW17,1*%
%TO.N,Net-(RN2-Pad7)*%
X83820000Y-41910000D03*
%TD*%
%TO.P,SW16,2*%
%TO.N,Earth*%
X77470000Y-30480000D03*
%TO.P,SW16,1*%
%TO.N,Net-(RN2-Pad4)*%
X83820000Y-30480000D03*
%TD*%
%TO.P,SW15,2*%
%TO.N,Earth*%
X64770000Y-53340000D03*
%TO.P,SW15,1*%
%TO.N,Net-(RN2-Pad9)*%
X71120000Y-53340000D03*
%TD*%
%TO.P,SW14,2*%
%TO.N,Earth*%
X64770000Y-41910000D03*
%TO.P,SW14,1*%
%TO.N,Net-(RN2-Pad6)*%
X71120000Y-41910000D03*
%TD*%
%TO.P,SW13,2*%
%TO.N,Earth*%
X64770000Y-30480000D03*
%TO.P,SW13,1*%
%TO.N,Net-(RN2-Pad3)*%
X71120000Y-30480000D03*
%TD*%
%TO.P,SW12,2*%
%TO.N,Earth*%
X52070000Y-53340000D03*
%TO.P,SW12,1*%
%TO.N,Net-(RN2-Pad8)*%
X58420000Y-53340000D03*
%TD*%
%TO.P,SW11,2*%
%TO.N,Earth*%
X52070000Y-41910000D03*
%TO.P,SW11,1*%
%TO.N,Net-(RN2-Pad5)*%
X58420000Y-41910000D03*
%TD*%
%TO.P,SW10,2*%
%TO.N,Earth*%
X52070000Y-30480000D03*
%TO.P,SW10,1*%
%TO.N,Net-(RN2-Pad2)*%
X58420000Y-30480000D03*
%TD*%
D16*
%TO.P,RN4,1*%
%TO.N,+5V*%
X44450000Y-85090000D03*
D13*
%TO.P,RN4,2*%
%TO.N,Net-(D2-Pad1)*%
X44450000Y-87630000D03*
%TO.P,RN4,3*%
%TO.N,Net-(D3-Pad1)*%
X44450000Y-90170000D03*
%TO.P,RN4,4*%
%TO.N,Net-(D4-Pad1)*%
X44450000Y-92710000D03*
%TO.P,RN4,5*%
%TO.N,Net-(D5-Pad1)*%
X44450000Y-95250000D03*
%TO.P,RN4,6*%
%TO.N,Net-(D6-Pad1)*%
X44450000Y-97790000D03*
%TO.P,RN4,7*%
%TO.N,Net-(D7-Pad1)*%
X44450000Y-100330000D03*
%TO.P,RN4,8*%
%TO.N,Net-(D8-Pad1)*%
X44450000Y-102870000D03*
%TO.P,RN4,9*%
%TO.N,Net-(D9-Pad1)*%
X44450000Y-105410000D03*
%TO.P,RN4,10*%
%TO.N,Net-(D10-Pad1)*%
X44450000Y-107950000D03*
%TD*%
D16*
%TO.P,RN3,1*%
%TO.N,+5V*%
X15240000Y-182880000D03*
D13*
%TO.P,RN3,2*%
%TO.N,Net-(RN3-Pad2)*%
X15240000Y-180340000D03*
%TO.P,RN3,3*%
%TO.N,Net-(RN3-Pad3)*%
X15240000Y-177800000D03*
%TO.P,RN3,4*%
%TO.N,Net-(RN3-Pad4)*%
X15240000Y-175260000D03*
%TO.P,RN3,5*%
%TO.N,Net-(RN3-Pad5)*%
X15240000Y-172720000D03*
%TO.P,RN3,6*%
%TO.N,Net-(RN3-Pad6)*%
X15240000Y-170180000D03*
%TO.P,RN3,7*%
%TO.N,Net-(RN3-Pad7)*%
X15240000Y-167640000D03*
%TO.P,RN3,8*%
%TO.N,Net-(RN3-Pad8)*%
X15240000Y-165100000D03*
%TO.P,RN3,9*%
%TO.N,Net-(RN3-Pad9)*%
X15240000Y-162560000D03*
%TO.P,RN3,10*%
%TO.N,Net-(RN3-Pad10)*%
X15240000Y-160020000D03*
%TD*%
D16*
%TO.P,RN2,1*%
%TO.N,+5V*%
X44450000Y-27940000D03*
D13*
%TO.P,RN2,2*%
%TO.N,Net-(RN2-Pad2)*%
X44450000Y-30480000D03*
%TO.P,RN2,3*%
%TO.N,Net-(RN2-Pad3)*%
X44450000Y-33020000D03*
%TO.P,RN2,4*%
%TO.N,Net-(RN2-Pad4)*%
X44450000Y-35560000D03*
%TO.P,RN2,5*%
%TO.N,Net-(RN2-Pad5)*%
X44450000Y-38100000D03*
%TO.P,RN2,6*%
%TO.N,Net-(RN2-Pad6)*%
X44450000Y-40640000D03*
%TO.P,RN2,7*%
%TO.N,Net-(RN2-Pad7)*%
X44450000Y-43180000D03*
%TO.P,RN2,8*%
%TO.N,Net-(RN2-Pad8)*%
X44450000Y-45720000D03*
%TO.P,RN2,9*%
%TO.N,Net-(RN2-Pad9)*%
X44450000Y-48260000D03*
%TO.P,RN2,10*%
%TO.N,Net-(RN2-Pad10)*%
X44450000Y-50800000D03*
%TD*%
D12*
%TO.P,R1,1*%
%TO.N,Net-(R1-Pad1)*%
X15240000Y-105410000D03*
D13*
%TO.P,R1,2*%
%TO.N,+5V*%
X15240000Y-113030000D03*
%TD*%
D15*
%TO.P,U1,1*%
%TO.N,Net-(U1-Pad1)*%
X15240000Y-13970000D03*
%TO.P,U1,2*%
%TO.N,Net-(U1-Pad2)*%
X15240000Y-16510000D03*
D14*
%TO.P,U1,3*%
%TO.N,Net-(U1-Pad3)*%
X15240000Y-19050000D03*
D15*
%TO.P,U1,4*%
%TO.N,Net-(U1-Pad4)*%
X15240000Y-21590000D03*
%TO.P,U1,5*%
%TO.N,Net-(U1-Pad5)*%
X15240000Y-24130000D03*
%TO.P,U1,6*%
%TO.N,Net-(U1-Pad6)*%
X15240000Y-26670000D03*
%TO.P,U1,7*%
%TO.N,Net-(U1-Pad7)*%
X15240000Y-29210000D03*
D14*
%TO.P,U1,8*%
%TO.N,Net-(U1-Pad8)*%
X15240000Y-31750000D03*
D15*
%TO.P,U1,9*%
%TO.N,Net-(U1-Pad9)*%
X15240000Y-34290000D03*
%TO.P,U1,10*%
%TO.N,Net-(U1-Pad10)*%
X15240000Y-36830000D03*
%TO.P,U1,11*%
%TO.N,Net-(U1-Pad11)*%
X15240000Y-39370000D03*
%TO.P,U1,12*%
%TO.N,Net-(U1-Pad12)*%
X15240000Y-41910000D03*
D14*
%TO.P,U1,13*%
%TO.N,Net-(U1-Pad13)*%
X15240000Y-44450000D03*
D15*
%TO.P,U1,14*%
%TO.N,Net-(J2-Pad3)*%
X15240000Y-46990000D03*
%TO.P,U1,15*%
%TO.N,Net-(J2-Pad4)*%
X15240000Y-49530000D03*
%TO.P,U1,16*%
%TO.N,Net-(J2-Pad5)*%
X15240000Y-52070000D03*
%TO.P,U1,17*%
%TO.N,Net-(J2-Pad6)*%
X15240000Y-54610000D03*
D14*
%TO.P,U1,18*%
%TO.N,Net-(U1-Pad18)*%
X15240000Y-57150000D03*
D15*
%TO.P,U1,19*%
%TO.N,Net-(U1-Pad19)*%
X15240000Y-59690000D03*
%TO.P,U1,20*%
%TO.N,Net-(LS1-Pad2)*%
X15240000Y-62230000D03*
%TO.P,U1,21*%
%TO.N,/INT1*%
X33020000Y-62230000D03*
%TO.P,U1,22*%
%TO.N,/INT0*%
X33020000Y-59690000D03*
D14*
%TO.P,U1,23*%
%TO.N,Net-(U1-Pad23)*%
X33020000Y-57150000D03*
D15*
%TO.P,U1,24*%
%TO.N,/SDA1*%
X33020000Y-54610000D03*
%TO.P,U1,25*%
%TO.N,/SCL1*%
X33020000Y-52070000D03*
%TO.P,U1,26*%
%TO.N,/SDA0*%
X33020000Y-49530000D03*
%TO.P,U1,27*%
%TO.N,/SCL0*%
X33020000Y-46990000D03*
D14*
%TO.P,U1,28*%
%TO.N,Net-(U1-Pad28)*%
X33020000Y-44450000D03*
D15*
%TO.P,U1,29*%
%TO.N,Net-(U1-Pad29)*%
X33020000Y-41910000D03*
%TO.P,U1,30*%
%TO.N,Net-(U1-Pad30)*%
X33020000Y-39370000D03*
%TO.P,U1,31*%
%TO.N,Net-(RV1-Pad2)*%
X33020000Y-36830000D03*
%TO.P,U1,32*%
%TO.N,Net-(RV2-Pad2)*%
X33020000Y-34290000D03*
D14*
%TO.P,U1,33*%
%TO.N,Net-(RV1-Pad3)*%
X33020000Y-31750000D03*
D15*
%TO.P,U1,34*%
%TO.N,Net-(U1-Pad34)*%
X33020000Y-29210000D03*
%TO.P,U1,35*%
%TO.N,Net-(RV1-Pad1)*%
X33020000Y-26670000D03*
%TO.P,U1,36*%
%TO.N,Net-(U1-Pad36)*%
X33020000Y-24130000D03*
%TO.P,U1,37*%
%TO.N,Net-(U1-Pad37)*%
X33020000Y-21590000D03*
D14*
%TO.P,U1,38*%
%TO.N,Earth*%
X33020000Y-19050000D03*
D15*
%TO.P,U1,39*%
%TO.N,+5V*%
X33020000Y-16510000D03*
%TO.P,U1,40*%
%TO.N,Net-(U1-Pad40)*%
X33020000Y-13970000D03*
%TO.P,U1,41*%
%TO.N,Net-(U1-Pad41)*%
X21590000Y-62000000D03*
D14*
%TO.P,U1,42*%
%TO.N,Net-(U1-Pad42)*%
X24130000Y-62000000D03*
D15*
%TO.P,U1,43*%
%TO.N,Net-(U1-Pad43)*%
X26670000Y-62000000D03*
%TD*%
D17*
%TO.P,SW9,2*%
%TO.N,Earth*%
X77470000Y-170180000D03*
%TO.P,SW9,1*%
%TO.N,Net-(RN1-Pad10)*%
X83820000Y-170180000D03*
%TD*%
%TO.P,SW8,2*%
%TO.N,Earth*%
X77470000Y-158750000D03*
%TO.P,SW8,1*%
%TO.N,Net-(RN1-Pad7)*%
X83820000Y-158750000D03*
%TD*%
%TO.P,SW7,1*%
%TO.N,Net-(RN1-Pad4)*%
X83820000Y-147320000D03*
%TO.P,SW7,2*%
%TO.N,Earth*%
X77470000Y-147320000D03*
%TD*%
%TO.P,SW6,2*%
%TO.N,Earth*%
X64770000Y-170180000D03*
%TO.P,SW6,1*%
%TO.N,Net-(RN1-Pad9)*%
X71120000Y-170180000D03*
%TD*%
%TO.P,SW5,2*%
%TO.N,Earth*%
X64770000Y-158750000D03*
%TO.P,SW5,1*%
%TO.N,Net-(RN1-Pad6)*%
X71120000Y-158750000D03*
%TD*%
%TO.P,SW4,2*%
%TO.N,Earth*%
X64770000Y-147320000D03*
%TO.P,SW4,1*%
%TO.N,Net-(RN1-Pad3)*%
X71120000Y-147320000D03*
%TD*%
%TO.P,SW3,2*%
%TO.N,Earth*%
X52070000Y-170180000D03*
%TO.P,SW3,1*%
%TO.N,Net-(RN1-Pad8)*%
X58420000Y-170180000D03*
%TD*%
%TO.P,SW2,2*%
%TO.N,Earth*%
X52070000Y-158750000D03*
%TO.P,SW2,1*%
%TO.N,Net-(RN1-Pad5)*%
X58420000Y-158750000D03*
%TD*%
%TO.P,SW1,2*%
%TO.N,Earth*%
X52070000Y-147320000D03*
%TO.P,SW1,1*%
%TO.N,Net-(RN1-Pad2)*%
X58420000Y-147320000D03*
%TD*%
D18*
%TO.P,RV2,1*%
%TO.N,Net-(RV1-Pad1)*%
X48260000Y-180340000D03*
D19*
%TO.P,RV2,2*%
%TO.N,Net-(RV2-Pad2)*%
X48260000Y-183840000D03*
%TO.P,RV2,3*%
%TO.N,Net-(RV1-Pad3)*%
X81260000Y-180340000D03*
D20*
%TO.P,RV2,MP*%
%TO.N,N/C*%
X53360000Y-177890000D03*
X76160000Y-177890000D03*
X52160000Y-186290000D03*
X77360000Y-186290000D03*
%TD*%
D18*
%TO.P,RV1,1*%
%TO.N,Net-(RV1-Pad1)*%
X48260000Y-16510000D03*
D19*
%TO.P,RV1,2*%
%TO.N,Net-(RV1-Pad2)*%
X48260000Y-20010000D03*
%TO.P,RV1,3*%
%TO.N,Net-(RV1-Pad3)*%
X81260000Y-16510000D03*
D20*
%TO.P,RV1,MP*%
%TO.N,N/C*%
X53360000Y-14060000D03*
X76160000Y-14060000D03*
X52160000Y-22460000D03*
X77360000Y-22460000D03*
%TD*%
D16*
%TO.P,RN1,1*%
%TO.N,+5V*%
X44450000Y-144780000D03*
D13*
%TO.P,RN1,2*%
%TO.N,Net-(RN1-Pad2)*%
X44450000Y-147320000D03*
%TO.P,RN1,3*%
%TO.N,Net-(RN1-Pad3)*%
X44450000Y-149860000D03*
%TO.P,RN1,4*%
%TO.N,Net-(RN1-Pad4)*%
X44450000Y-152400000D03*
%TO.P,RN1,5*%
%TO.N,Net-(RN1-Pad5)*%
X44450000Y-154940000D03*
%TO.P,RN1,6*%
%TO.N,Net-(RN1-Pad6)*%
X44450000Y-157480000D03*
%TO.P,RN1,7*%
%TO.N,Net-(RN1-Pad7)*%
X44450000Y-160020000D03*
%TO.P,RN1,8*%
%TO.N,Net-(RN1-Pad8)*%
X44450000Y-162560000D03*
%TO.P,RN1,9*%
%TO.N,Net-(RN1-Pad9)*%
X44450000Y-165100000D03*
%TO.P,RN1,10*%
%TO.N,Net-(RN1-Pad10)*%
X44450000Y-167640000D03*
%TD*%
D21*
%TO.P,LS1,1*%
%TO.N,Earth*%
X20320000Y-154940000D03*
D17*
%TO.P,LS1,2*%
%TO.N,Net-(LS1-Pad2)*%
X20320000Y-147340000D03*
%TD*%
D22*
%TO.P,J1,3*%
%TO.N,N/C*%
X22400000Y-81000000D03*
D23*
%TO.P,J1,2*%
%TO.N,Earth*%
X19600000Y-76200000D03*
D24*
%TO.P,J1,1*%
%TO.N,Net-(D1-Pad2)*%
X25400000Y-76200000D03*
%TD*%
D25*
%TO.P,D1,1*%
%TO.N,+5V*%
X31750000Y-72390000D03*
D26*
%TO.P,D1,2*%
%TO.N,Net-(D1-Pad2)*%
X31750000Y-80010000D03*
%TD*%
D27*
%TO.N,+5V*%
X23184800Y-129612000D03*
%TO.N,Earth*%
X34567600Y-139933500D03*
%TO.N,Net-(LS1-Pad2)*%
X13088600Y-95622600D03*
%TO.N,Net-(RN1-Pad10)*%
X33112200Y-87063600D03*
%TO.N,Net-(RN1-Pad9)*%
X36586700Y-103831800D03*
X41335200Y-108352700D03*
%TO.N,Net-(RN1-Pad8)*%
X33294400Y-107111700D03*
X42132900Y-109076200D03*
%TO.N,Net-(RN1-Pad7)*%
X29651800Y-97655700D03*
X42620600Y-138374900D03*
%TO.N,Net-(RN1-Pad6)*%
X28442100Y-92370700D03*
%TO.N,Net-(RN1-Pad5)*%
X27928600Y-93291200D03*
%TO.N,Net-(RN1-Pad4)*%
X25618700Y-96488700D03*
%TO.N,Net-(RN1-Pad3)*%
X27202000Y-102661300D03*
%TO.N,Net-(RN1-Pad2)*%
X24139100Y-107101300D03*
%TO.N,Net-(D2-Pad4)*%
X40120600Y-82503000D03*
X38157800Y-84735100D03*
X24798600Y-98630500D03*
%TO.N,Net-(D2-Pad3)*%
X40295400Y-83759900D03*
X40295400Y-87427000D03*
X26184300Y-102510700D03*
%TO.N,Net-(D2-Pad2)*%
X27301600Y-98922700D03*
%TO.N,Net-(D3-Pad4)*%
X35307100Y-81951000D03*
%TO.N,Net-(D3-Pad3)*%
X29740200Y-102406800D03*
%TO.N,Net-(D3-Pad2)*%
X31149700Y-98101600D03*
%TO.N,Net-(D4-Pad4)*%
X32290200Y-99118200D03*
%TO.N,Net-(D4-Pad3)*%
X38036100Y-81580200D03*
%TO.N,Net-(D4-Pad2)*%
X54594300Y-107822300D03*
X34161800Y-111666700D03*
%TO.N,Net-(D5-Pad4)*%
X49857000Y-110427100D03*
X32444300Y-111754100D03*
%TO.N,Net-(D5-Pad3)*%
X48920100Y-108742900D03*
X32007400Y-108394000D03*
%TO.N,Net-(D5-Pad2)*%
X28785500Y-107661100D03*
%TO.N,Net-(D6-Pad4)*%
X54129900Y-112911300D03*
X28322900Y-113338700D03*
%TO.N,Net-(D6-Pad3)*%
X27259100Y-108398800D03*
%TO.N,Net-(D6-Pad2)*%
X57150000Y-110938700D03*
X26844900Y-111754900D03*
%TO.N,Net-(D7-Pad4)*%
X27353700Y-120341700D03*
%TO.N,Net-(D7-Pad3)*%
X27207500Y-112835300D03*
%TO.N,Net-(D7-Pad2)*%
X53378700Y-113643000D03*
X27267700Y-114360600D03*
%TO.N,Net-(D8-Pad4)*%
X33617000Y-113204800D03*
%TO.N,Net-(D8-Pad3)*%
X32109300Y-113204800D03*
%TO.N,Net-(D8-Pad2)*%
X31106100Y-113204800D03*
%TO.N,Net-(D9-Pad4)*%
X32385000Y-118137900D03*
%TO.N,Net-(D9-Pad3)*%
X35650000Y-115969000D03*
%TO.N,Net-(D9-Pad2)*%
X34606700Y-116236900D03*
%TO.N,Net-(D10-Pad4)*%
X32891300Y-126951600D03*
%TO.N,Net-(D10-Pad3)*%
X31760700Y-122902600D03*
%TO.N,Net-(D10-Pad2)*%
X30740700Y-122652600D03*
%TO.N,Net-(R1-Pad1)*%
X22746600Y-102562400D03*
%TO.N,Net-(RN2-Pad5)*%
X27458400Y-121518800D03*
X36679700Y-97593900D03*
%TO.N,Net-(RN2-Pad4)*%
X25000600Y-117744800D03*
X35446400Y-89007100D03*
%TO.N,Net-(RN2-Pad2)*%
X23099900Y-133766900D03*
X34531000Y-89535000D03*
%TO.N,Net-(RN3-Pad8)*%
X31971800Y-87166800D03*
%TO.N,Net-(RN3-Pad7)*%
X25915100Y-162888500D03*
%TO.N,Net-(RN3-Pad6)*%
X29845000Y-87467000D03*
%TO.N,Net-(RN3-Pad5)*%
X28286900Y-87454800D03*
%TO.N,Net-(RN3-Pad4)*%
X26947700Y-87342900D03*
%TO.N,Net-(RN3-Pad2)*%
X17647600Y-96257600D03*
X24660500Y-89475600D03*
%TO.N,/SDA1*%
X20689100Y-88157700D03*
%TO.N,Net-(R2-Pad1)*%
X22855900Y-114544600D03*
%TO.N,/INT1*%
X19685000Y-135333600D03*
X26131300Y-91763000D03*
%TO.N,/INT0*%
X19651100Y-88153800D03*
%TD*%
D28*
%TO.N,Net-(D1-Pad2)*%
X25400000Y-76200000D02*
X26625300Y-76200000D01*
X31750000Y-80010000D02*
X30324700Y-80010000D01*
X30324700Y-80010000D02*
X26625300Y-76310600D01*
X26625300Y-76310600D02*
X26625300Y-76200000D01*
%TO.N,+5V*%
X33020000Y-16510000D02*
X33020000Y-17685300D01*
X44450000Y-27940000D02*
X43324700Y-27940000D01*
X43324700Y-27940000D02*
X35610100Y-20225400D01*
X35610100Y-20225400D02*
X31971600Y-20225400D01*
X31971600Y-20225400D02*
X31844700Y-20098500D01*
X31844700Y-20098500D02*
X31844700Y-18052500D01*
X31844700Y-18052500D02*
X32211900Y-17685300D01*
X32211900Y-17685300D02*
X33020000Y-17685300D01*
X33182800Y-80884000D02*
X35563400Y-83264600D01*
X35563400Y-83264600D02*
X37768000Y-83264600D01*
X37768000Y-83264600D02*
X39593400Y-85090000D01*
X39593400Y-85090000D02*
X43324700Y-85090000D01*
X33182800Y-80884000D02*
X32933800Y-80884000D01*
X32933800Y-80884000D02*
X27200200Y-86617600D01*
X27200200Y-86617600D02*
X24767500Y-86617600D01*
X24767500Y-86617600D02*
X22485100Y-88900000D01*
X22485100Y-88900000D02*
X16415300Y-88900000D01*
X31750000Y-73815300D02*
X33182800Y-75248100D01*
X33182800Y-75248100D02*
X33182800Y-80884000D01*
X44450000Y-144780000D02*
X43324700Y-144780000D01*
X43324700Y-144780000D02*
X28156700Y-129612000D01*
X28156700Y-129612000D02*
X23184800Y-129612000D01*
X15240000Y-124460000D02*
X18032800Y-124460000D01*
X18032800Y-124460000D02*
X23184800Y-129612000D01*
X15240000Y-88900000D02*
X16415300Y-88900000D01*
X44450000Y-85090000D02*
X43324700Y-85090000D01*
X31750000Y-72390000D02*
X31750000Y-73815300D01*
%TO.N,Earth*%
X33020000Y-19050000D02*
X34195300Y-19050000D01*
X52070000Y-30480000D02*
X49460300Y-27870300D01*
X49460300Y-27870300D02*
X49460300Y-15500200D01*
X49460300Y-15500200D02*
X49269700Y-15309600D01*
X49269700Y-15309600D02*
X37935700Y-15309600D01*
X37935700Y-15309600D02*
X34195300Y-19050000D01*
X52070000Y-158750000D02*
X31894700Y-158750000D01*
X31894700Y-158750000D02*
X29210000Y-161434700D01*
X29210000Y-162560000D02*
X29210000Y-161434700D01*
X20320000Y-154940000D02*
X21645300Y-154940000D01*
X21645300Y-154940000D02*
X28140000Y-161434700D01*
X28140000Y-161434700D02*
X29210000Y-161434700D01*
X52070000Y-147320000D02*
X50655400Y-145905400D01*
X50655400Y-145905400D02*
X40539500Y-145905400D01*
X40539500Y-145905400D02*
X34567600Y-139933500D01*
X52070000Y-53340000D02*
X45843700Y-47113700D01*
X45843700Y-47113700D02*
X41715300Y-47113700D01*
X41715300Y-47113700D02*
X35489000Y-53340000D01*
X35489000Y-53340000D02*
X32620400Y-53340000D01*
X32620400Y-53340000D02*
X31000000Y-54960400D01*
X31000000Y-54960400D02*
X31000000Y-59332300D01*
X31000000Y-59332300D02*
X19600000Y-70732300D01*
X19600000Y-70732300D02*
X19600000Y-76200000D01*
%TO.N,Net-(LS1-Pad2)*%
X13088600Y-95622600D02*
X9996800Y-98714400D01*
X9996800Y-98714400D02*
X9996800Y-137016800D01*
X9996800Y-137016800D02*
X20320000Y-147340000D01*
%TO.N,Net-(RN1-Pad10)*%
X43324700Y-167640000D02*
X39514700Y-163830000D01*
X39514700Y-163830000D02*
X27921800Y-163830000D01*
X27921800Y-163830000D02*
X21485000Y-157393200D01*
X21485000Y-157393200D02*
X20239700Y-157393200D01*
X20239700Y-157393200D02*
X18994600Y-156148100D01*
X18994600Y-156148100D02*
X18994600Y-153184400D01*
X18994600Y-153184400D02*
X23037500Y-149141500D01*
X23037500Y-149141500D02*
X23037500Y-136640900D01*
X23037500Y-136640900D02*
X12284600Y-125888000D01*
X12284600Y-125888000D02*
X12284600Y-105484900D01*
X12284600Y-105484900D02*
X14847400Y-102922100D01*
X14847400Y-102922100D02*
X16202400Y-102922100D01*
X16202400Y-102922100D02*
X16202400Y-102922000D01*
X16202400Y-102922000D02*
X16635000Y-102922000D01*
X16635000Y-102922000D02*
X28072200Y-91484800D01*
X28072200Y-91484800D02*
X28691100Y-91484800D01*
X28691100Y-91484800D02*
X28691100Y-91484700D01*
X28691100Y-91484700D02*
X33112200Y-87063600D01*
X44450000Y-167640000D02*
X43324700Y-167640000D01*
X45012700Y-167640000D02*
X44450000Y-167640000D01*
X45012700Y-167640000D02*
X45575300Y-167640000D01*
X45575300Y-167640000D02*
X49938700Y-172003400D01*
X49938700Y-172003400D02*
X81996600Y-172003400D01*
X81996600Y-172003400D02*
X83820000Y-170180000D01*
%TO.N,Net-(RN1-Pad9)*%
X41335200Y-108352700D02*
X41107600Y-108352700D01*
X41107600Y-108352700D02*
X36586700Y-103831800D01*
X44450000Y-165100000D02*
X45575300Y-165100000D01*
X45575300Y-165100000D02*
X45575300Y-165662700D01*
X45575300Y-165662700D02*
X51435500Y-171522900D01*
X51435500Y-171522900D02*
X69777100Y-171522900D01*
X69777100Y-171522900D02*
X71120000Y-170180000D01*
%TO.N,Net-(RN1-Pad8)*%
X33294400Y-107111700D02*
X35314300Y-109131600D01*
X35314300Y-109131600D02*
X42077500Y-109131600D01*
X42077500Y-109131600D02*
X42132900Y-109076200D01*
X44450000Y-162560000D02*
X50800000Y-162560000D01*
X50800000Y-162560000D02*
X58420000Y-170180000D01*
%TO.N,Net-(RN1-Pad7)*%
X29651800Y-97655700D02*
X25441200Y-101866300D01*
X25441200Y-101866300D02*
X25441200Y-110859100D01*
X25441200Y-110859100D02*
X25131300Y-111169000D01*
X25131300Y-111169000D02*
X25131300Y-115406200D01*
X25131300Y-115406200D02*
X25727800Y-116002700D01*
X25727800Y-116002700D02*
X25727800Y-121482100D01*
X25727800Y-121482100D02*
X42620600Y-138374900D01*
X44450000Y-160020000D02*
X45575300Y-160020000D01*
X45575300Y-160020000D02*
X46123900Y-160568600D01*
X46123900Y-160568600D02*
X82001400Y-160568600D01*
X82001400Y-160568600D02*
X83820000Y-158750000D01*
%TO.N,Net-(RN1-Pad6)*%
X44450000Y-156354700D02*
X43388200Y-156354700D01*
X43388200Y-156354700D02*
X12734900Y-125701400D01*
X12734900Y-125701400D02*
X12734900Y-105671500D01*
X12734900Y-105671500D02*
X15034000Y-103372400D01*
X15034000Y-103372400D02*
X16821500Y-103372400D01*
X16821500Y-103372400D02*
X27823200Y-92370700D01*
X27823200Y-92370700D02*
X28442100Y-92370700D01*
X44450000Y-157480000D02*
X45575300Y-157480000D01*
X71120000Y-158750000D02*
X69785700Y-160084300D01*
X69785700Y-160084300D02*
X56533500Y-160084300D01*
X56533500Y-160084300D02*
X53852200Y-157403000D01*
X53852200Y-157403000D02*
X45652300Y-157403000D01*
X45652300Y-157403000D02*
X45575300Y-157480000D01*
X44450000Y-157480000D02*
X44450000Y-156354700D01*
%TO.N,Net-(RN1-Pad5)*%
X43324700Y-154940000D02*
X42610400Y-154940000D01*
X42610400Y-154940000D02*
X13185200Y-125514800D01*
X13185200Y-125514800D02*
X13185200Y-105862900D01*
X13185200Y-105862900D02*
X15185000Y-103863100D01*
X15185000Y-103863100D02*
X17218600Y-103863100D01*
X17218600Y-103863100D02*
X27790500Y-93291200D01*
X27790500Y-93291200D02*
X27928600Y-93291200D01*
X44450000Y-154940000D02*
X43324700Y-154940000D01*
X58420000Y-158750000D02*
X54610000Y-154940000D01*
X54610000Y-154940000D02*
X44450000Y-154940000D01*
%TO.N,Net-(RN1-Pad4)*%
X25618700Y-96488700D02*
X23471900Y-98635500D01*
X23471900Y-98635500D02*
X23471900Y-102862900D01*
X23471900Y-102862900D02*
X13635500Y-112699300D01*
X13635500Y-112699300D02*
X13635500Y-125328200D01*
X13635500Y-125328200D02*
X40707300Y-152400000D01*
X40707300Y-152400000D02*
X43324700Y-152400000D01*
X44450000Y-152400000D02*
X43324700Y-152400000D01*
X83820000Y-147320000D02*
X78740000Y-152400000D01*
X78740000Y-152400000D02*
X44450000Y-152400000D01*
%TO.N,Net-(RN1-Pad3)*%
X27202000Y-102661300D02*
X26031900Y-103831400D01*
X26031900Y-103831400D02*
X26031900Y-110905300D01*
X26031900Y-110905300D02*
X25581600Y-111355600D01*
X25581600Y-111355600D02*
X25581600Y-115219600D01*
X25581600Y-115219600D02*
X26178100Y-115816100D01*
X26178100Y-115816100D02*
X26178100Y-121264500D01*
X26178100Y-121264500D02*
X32916500Y-128002900D01*
X32916500Y-128002900D02*
X41019600Y-128002900D01*
X41019600Y-128002900D02*
X59748500Y-146731800D01*
X59748500Y-146731800D02*
X59748500Y-148669400D01*
X44450000Y-149860000D02*
X58557900Y-149860000D01*
X58557900Y-149860000D02*
X59748500Y-148669400D01*
X59748500Y-148669400D02*
X69770600Y-148669400D01*
X69770600Y-148669400D02*
X71120000Y-147320000D01*
%TO.N,Net-(RN1-Pad2)*%
X24139100Y-107101300D02*
X24230700Y-107192900D01*
X24230700Y-107192900D02*
X24230700Y-115779400D01*
X24230700Y-115779400D02*
X24275300Y-115824000D01*
X24275300Y-115824000D02*
X24275300Y-121073100D01*
X24275300Y-121073100D02*
X46538200Y-143336000D01*
X46538200Y-143336000D02*
X49567800Y-143336000D01*
X49567800Y-143336000D02*
X51686800Y-145455000D01*
X51686800Y-145455000D02*
X52092300Y-145455000D01*
X52092300Y-145455000D02*
X53953300Y-147315900D01*
X58420000Y-147320000D02*
X53957300Y-147320000D01*
X53957300Y-147320000D02*
X53953300Y-147315900D01*
X53953300Y-147315900D02*
X52585900Y-148683300D01*
X52585900Y-148683300D02*
X46826000Y-148683300D01*
X46826000Y-148683300D02*
X45462700Y-147320000D01*
X44450000Y-147320000D02*
X45462700Y-147320000D01*
%TO.N,Net-(RV1-Pad2)*%
X33020000Y-36830000D02*
X34195300Y-36830000D01*
X48260000Y-20010000D02*
X48260000Y-26257800D01*
X48260000Y-26257800D02*
X45452400Y-29065400D01*
X45452400Y-29065400D02*
X41959900Y-29065400D01*
X41959900Y-29065400D02*
X34195300Y-36830000D01*
%TO.N,Net-(D2-Pad4)*%
X24798600Y-98630500D02*
X29990600Y-93438500D01*
X29990600Y-93438500D02*
X29990600Y-92902300D01*
X29990600Y-92902300D02*
X38157800Y-84735100D01*
X40120600Y-82503000D02*
X40481000Y-82142600D01*
X40481000Y-82142600D02*
X56742600Y-82142600D01*
X56742600Y-82142600D02*
X58420000Y-83820000D01*
%TO.N,Net-(D2-Pad3)*%
X55880000Y-83820000D02*
X54654600Y-82594600D01*
X54654600Y-82594600D02*
X41460700Y-82594600D01*
X41460700Y-82594600D02*
X40295400Y-83759900D01*
X40295400Y-87427000D02*
X30377200Y-97345200D01*
X30377200Y-97345200D02*
X30377200Y-98317800D01*
X30377200Y-98317800D02*
X26184300Y-102510700D01*
%TO.N,Net-(D2-Pad2)*%
X27301600Y-98922700D02*
X40008900Y-86215400D01*
X40008900Y-86215400D02*
X48404600Y-86215400D01*
X48404600Y-86215400D02*
X50800000Y-83820000D01*
%TO.N,Net-(D2-Pad1)*%
X53340000Y-83820000D02*
X52114700Y-83820000D01*
X44450000Y-87630000D02*
X48764200Y-87630000D01*
X48764200Y-87630000D02*
X52114700Y-84279500D01*
X52114700Y-84279500D02*
X52114700Y-83820000D01*
%TO.N,Net-(D3-Pad4)*%
X35307100Y-81951000D02*
X35661600Y-82305500D01*
X35661600Y-82305500D02*
X38336600Y-82305500D01*
X38336600Y-82305500D02*
X39001400Y-81640700D01*
X39001400Y-81640700D02*
X68940700Y-81640700D01*
X68940700Y-81640700D02*
X71120000Y-83820000D01*
%TO.N,Net-(D3-Pad3)*%
X29740200Y-102406800D02*
X29740200Y-100634800D01*
X29740200Y-100634800D02*
X38835700Y-91539300D01*
X38835700Y-91539300D02*
X60860700Y-91539300D01*
X60860700Y-91539300D02*
X68580000Y-83820000D01*
%TO.N,Net-(D3-Pad2)*%
X31149700Y-98101600D02*
X40351300Y-88900000D01*
X40351300Y-88900000D02*
X58420000Y-88900000D01*
X58420000Y-88900000D02*
X63500000Y-83820000D01*
%TO.N,Net-(D3-Pad1)*%
X64814700Y-83820000D02*
X64814700Y-84279500D01*
X64814700Y-84279500D02*
X58924200Y-90170000D01*
X58924200Y-90170000D02*
X44450000Y-90170000D01*
X66040000Y-83820000D02*
X64814700Y-83820000D01*
%TO.N,Net-(D4-Pad4)*%
X83820000Y-83820000D02*
X73755900Y-93884100D01*
X73755900Y-93884100D02*
X37524300Y-93884100D01*
X37524300Y-93884100D02*
X32290200Y-99118200D01*
%TO.N,Net-(D4-Pad3)*%
X81280000Y-83820000D02*
X78640400Y-81180400D01*
X78640400Y-81180400D02*
X38435900Y-81180400D01*
X38435900Y-81180400D02*
X38036100Y-81580200D01*
%TO.N,Net-(D4-Pad2)*%
X54594300Y-107822300D02*
X54594300Y-110267000D01*
X54594300Y-110267000D02*
X53708800Y-111152500D01*
X53708800Y-111152500D02*
X34676000Y-111152500D01*
X34676000Y-111152500D02*
X34161800Y-111666700D01*
%TO.N,Net-(D4-Pad1)*%
X78740000Y-83820000D02*
X77514700Y-83820000D01*
X44450000Y-92710000D02*
X69084200Y-92710000D01*
X69084200Y-92710000D02*
X77514700Y-84279500D01*
X77514700Y-84279500D02*
X77514700Y-83820000D01*
%TO.N,Net-(D5-Pad4)*%
X49857000Y-110427100D02*
X49581900Y-110702200D01*
X49581900Y-110702200D02*
X33496200Y-110702200D01*
X33496200Y-110702200D02*
X32444300Y-111754100D01*
%TO.N,Net-(D5-Pad3)*%
X32007400Y-108394000D02*
X33415000Y-109801600D01*
X33415000Y-109801600D02*
X47861400Y-109801600D01*
X47861400Y-109801600D02*
X48920100Y-108742900D01*
%TO.N,Net-(D5-Pad2)*%
X50800000Y-96520000D02*
X39926600Y-96520000D01*
X39926600Y-96520000D02*
X28785500Y-107661100D01*
%TO.N,Net-(D5-Pad1)*%
X53340000Y-96520000D02*
X52114700Y-96520000D01*
X44450000Y-95250000D02*
X51304200Y-95250000D01*
X51304200Y-95250000D02*
X52114700Y-96060500D01*
X52114700Y-96060500D02*
X52114700Y-96520000D01*
%TO.N,Net-(D6-Pad4)*%
X54129900Y-112911300D02*
X38093600Y-112911300D01*
X38093600Y-112911300D02*
X37550600Y-113454300D01*
X37550600Y-113454300D02*
X34772600Y-113454300D01*
X34772600Y-113454300D02*
X34296600Y-113930300D01*
X34296600Y-113930300D02*
X28914500Y-113930300D01*
X28914500Y-113930300D02*
X28322900Y-113338700D01*
%TO.N,Net-(D6-Pad3)*%
X27259100Y-108398800D02*
X29626000Y-108398800D01*
X29626000Y-108398800D02*
X38854000Y-99170800D01*
X38854000Y-99170800D02*
X65929200Y-99170800D01*
X65929200Y-99170800D02*
X68580000Y-96520000D01*
%TO.N,Net-(D6-Pad2)*%
X57150000Y-110938700D02*
X53329000Y-114759700D01*
X53329000Y-114759700D02*
X34741000Y-114759700D01*
X34741000Y-114759700D02*
X34384600Y-115116100D01*
X34384600Y-115116100D02*
X26977100Y-115116100D01*
X26977100Y-115116100D02*
X26482200Y-114621200D01*
X26482200Y-114621200D02*
X26482200Y-112117600D01*
X26482200Y-112117600D02*
X26844900Y-111754900D01*
%TO.N,Net-(D6-Pad1)*%
X66040000Y-96520000D02*
X64814700Y-96520000D01*
X44450000Y-97790000D02*
X64004200Y-97790000D01*
X64004200Y-97790000D02*
X64814700Y-96979500D01*
X64814700Y-96979500D02*
X64814700Y-96520000D01*
%TO.N,Net-(D7-Pad4)*%
X27353700Y-120341700D02*
X30664700Y-123652700D01*
X30664700Y-123652700D02*
X68627900Y-123652700D01*
X68627900Y-123652700D02*
X82550000Y-109730600D01*
X82550000Y-109730600D02*
X82550000Y-97790000D01*
X82550000Y-97790000D02*
X83820000Y-96520000D01*
%TO.N,Net-(D7-Pad3)*%
X27207500Y-112835300D02*
X27570200Y-112472600D01*
X27570200Y-112472600D02*
X27570200Y-111778700D01*
X27570200Y-111778700D02*
X37748900Y-101600000D01*
X37748900Y-101600000D02*
X76200000Y-101600000D01*
X76200000Y-101600000D02*
X81280000Y-96520000D01*
%TO.N,Net-(D7-Pad2)*%
X27267700Y-114360600D02*
X27344800Y-114437700D01*
X27344800Y-114437700D02*
X34426100Y-114437700D01*
X34426100Y-114437700D02*
X34900600Y-113963200D01*
X34900600Y-113963200D02*
X53058500Y-113963200D01*
X53058500Y-113963200D02*
X53378700Y-113643000D01*
%TO.N,Net-(D7-Pad1)*%
X78740000Y-96520000D02*
X77514700Y-96520000D01*
X44450000Y-100330000D02*
X74164200Y-100330000D01*
X74164200Y-100330000D02*
X77514700Y-96979500D01*
X77514700Y-96979500D02*
X77514700Y-96520000D01*
%TO.N,Net-(D8-Pad4)*%
X58420000Y-109220000D02*
X57638500Y-109220000D01*
X57638500Y-109220000D02*
X54672600Y-112185900D01*
X54672600Y-112185900D02*
X37655100Y-112185900D01*
X37655100Y-112185900D02*
X36837000Y-113004000D01*
X36837000Y-113004000D02*
X33817800Y-113004000D01*
X33817800Y-113004000D02*
X33617000Y-113204800D01*
%TO.N,Net-(D8-Pad3)*%
X55880000Y-109220000D02*
X55880000Y-109640100D01*
X55880000Y-109640100D02*
X53784500Y-111735600D01*
X53784500Y-111735600D02*
X35118700Y-111735600D01*
X35118700Y-111735600D02*
X34374800Y-112479500D01*
X34374800Y-112479500D02*
X32834600Y-112479500D01*
X32834600Y-112479500D02*
X32109300Y-113204800D01*
%TO.N,Net-(D8-Pad2)*%
X50800000Y-109220000D02*
X49756400Y-109220000D01*
X49756400Y-109220000D02*
X48724500Y-110251900D01*
X48724500Y-110251900D02*
X32903900Y-110251900D01*
X32903900Y-110251900D02*
X31106100Y-112049700D01*
X31106100Y-112049700D02*
X31106100Y-113204800D01*
%TO.N,Net-(D8-Pad1)*%
X53340000Y-109220000D02*
X52114700Y-109220000D01*
X44450000Y-102870000D02*
X42858300Y-104461700D01*
X42858300Y-104461700D02*
X42858300Y-107962800D01*
X42858300Y-107962800D02*
X43972700Y-109077200D01*
X43972700Y-109077200D02*
X46676900Y-109077200D01*
X46676900Y-109077200D02*
X47759400Y-107994700D01*
X47759400Y-107994700D02*
X51349000Y-107994700D01*
X51349000Y-107994700D02*
X52114700Y-108760400D01*
X52114700Y-108760400D02*
X52114700Y-109220000D01*
%TO.N,Net-(D9-Pad4)*%
X71120000Y-109220000D02*
X62202100Y-118137900D01*
X62202100Y-118137900D02*
X32385000Y-118137900D01*
%TO.N,Net-(D9-Pad3)*%
X68580000Y-109220000D02*
X61831000Y-115969000D01*
X61831000Y-115969000D02*
X35650000Y-115969000D01*
%TO.N,Net-(D9-Pad2)*%
X63500000Y-109220000D02*
X57496800Y-115223200D01*
X57496800Y-115223200D02*
X35305600Y-115223200D01*
X35305600Y-115223200D02*
X34606700Y-115922100D01*
X34606700Y-115922100D02*
X34606700Y-116236900D01*
%TO.N,Net-(D9-Pad1)*%
X44450000Y-105410000D02*
X45575300Y-105410000D01*
X64814700Y-109220000D02*
X64814700Y-108760500D01*
X64814700Y-108760500D02*
X61464200Y-105410000D01*
X61464200Y-105410000D02*
X45575300Y-105410000D01*
X66040000Y-109220000D02*
X64814700Y-109220000D01*
%TO.N,Net-(D10-Pad4)*%
X32891300Y-126951600D02*
X66088400Y-126951600D01*
X66088400Y-126951600D02*
X83820000Y-109220000D01*
%TO.N,Net-(D10-Pad3)*%
X81280000Y-109220000D02*
X67597400Y-122902600D01*
X67597400Y-122902600D02*
X31760700Y-122902600D01*
%TO.N,Net-(D10-Pad2)*%
X76200000Y-109220000D02*
X63651900Y-121768100D01*
X63651900Y-121768100D02*
X31625100Y-121768100D01*
X31625100Y-121768100D02*
X31625100Y-121768200D01*
X31625100Y-121768200D02*
X30740700Y-122652600D01*
%TO.N,Net-(D10-Pad1)*%
X78740000Y-109220000D02*
X77514700Y-109220000D01*
X44450000Y-107950000D02*
X44450000Y-106824700D01*
X44450000Y-106824700D02*
X44168700Y-106824700D01*
X44168700Y-106824700D02*
X43308700Y-105964700D01*
X43308700Y-105964700D02*
X43308700Y-104958100D01*
X43308700Y-104958100D02*
X44018400Y-104248400D01*
X44018400Y-104248400D02*
X73002600Y-104248400D01*
X73002600Y-104248400D02*
X77514700Y-108760500D01*
X77514700Y-108760500D02*
X77514700Y-109220000D01*
%TO.N,Net-(R1-Pad1)*%
X15240000Y-105410000D02*
X19899000Y-105410000D01*
X19899000Y-105410000D02*
X22746600Y-102562400D01*
%TO.N,Net-(RN2-Pad10)*%
X44450000Y-50800000D02*
X45575300Y-50800000D01*
X45575300Y-50800000D02*
X49923500Y-55148200D01*
X49923500Y-55148200D02*
X82011800Y-55148200D01*
X82011800Y-55148200D02*
X83820000Y-53340000D01*
%TO.N,Net-(RN2-Pad9)*%
X44450000Y-48260000D02*
X45575300Y-48260000D01*
X45575300Y-48260000D02*
X45575300Y-48822600D01*
X45575300Y-48822600D02*
X51442500Y-54689800D01*
X51442500Y-54689800D02*
X69770200Y-54689800D01*
X69770200Y-54689800D02*
X71120000Y-53340000D01*
%TO.N,Net-(RN2-Pad8)*%
X44450000Y-45720000D02*
X50800000Y-45720000D01*
X50800000Y-45720000D02*
X58420000Y-53340000D01*
%TO.N,Net-(RN2-Pad7)*%
X44450000Y-43180000D02*
X45575300Y-43180000D01*
X45575300Y-43180000D02*
X46110100Y-43714800D01*
X46110100Y-43714800D02*
X82015200Y-43714800D01*
X82015200Y-43714800D02*
X83820000Y-41910000D01*
%TO.N,Net-(RN2-Pad6)*%
X44450000Y-40640000D02*
X45575300Y-40640000D01*
X45575300Y-40640000D02*
X48199700Y-43264400D01*
X48199700Y-43264400D02*
X69765600Y-43264400D01*
X69765600Y-43264400D02*
X71120000Y-41910000D01*
%TO.N,Net-(RN2-Pad5)*%
X36679700Y-97593900D02*
X26482200Y-107791400D01*
X26482200Y-107791400D02*
X26482200Y-111091900D01*
X26482200Y-111091900D02*
X26031900Y-111542200D01*
X26031900Y-111542200D02*
X26031900Y-115033000D01*
X26031900Y-115033000D02*
X26628400Y-115629500D01*
X26628400Y-115629500D02*
X26628400Y-120688800D01*
X26628400Y-120688800D02*
X27458400Y-121518800D01*
X44450000Y-38100000D02*
X54610000Y-38100000D01*
X54610000Y-38100000D02*
X58420000Y-41910000D01*
%TO.N,Net-(RN2-Pad4)*%
X35446400Y-89007100D02*
X35446400Y-89679500D01*
X35446400Y-89679500D02*
X26245900Y-98880000D01*
X26245900Y-98880000D02*
X26245900Y-99875800D01*
X26245900Y-99875800D02*
X24990900Y-101130800D01*
X24990900Y-101130800D02*
X24990900Y-110672500D01*
X24990900Y-110672500D02*
X24681000Y-110982400D01*
X24681000Y-110982400D02*
X24681000Y-115592800D01*
X24681000Y-115592800D02*
X25000600Y-115912400D01*
X25000600Y-115912400D02*
X25000600Y-117744800D01*
X44450000Y-35560000D02*
X78740000Y-35560000D01*
X78740000Y-35560000D02*
X83820000Y-30480000D01*
%TO.N,Net-(RN2-Pad3)*%
X71120000Y-30480000D02*
X68580000Y-33020000D01*
X68580000Y-33020000D02*
X44450000Y-33020000D01*
%TO.N,Net-(RN2-Pad2)*%
X23099900Y-133766900D02*
X22955300Y-133766900D01*
X22955300Y-133766900D02*
X14085900Y-124897500D01*
X14085900Y-124897500D02*
X14085900Y-115785400D01*
X14085900Y-115785400D02*
X24390700Y-105480600D01*
X24390700Y-105480600D02*
X24390700Y-100775800D01*
X24390700Y-100775800D02*
X25636600Y-99529900D01*
X25636600Y-99529900D02*
X25636600Y-98429400D01*
X25636600Y-98429400D02*
X34531000Y-89535000D01*
X44450000Y-30480000D02*
X45575300Y-30480000D01*
X45575300Y-30480000D02*
X46917100Y-31821800D01*
X46917100Y-31821800D02*
X57078200Y-31821800D01*
X57078200Y-31821800D02*
X58420000Y-30480000D01*
%TO.N,Net-(RN3-Pad8)*%
X21590000Y-161434700D02*
X18513700Y-158358400D01*
X18513700Y-158358400D02*
X18513700Y-153028400D01*
X18513700Y-153028400D02*
X22587200Y-148954900D01*
X22587200Y-148954900D02*
X22587200Y-136827500D01*
X22587200Y-136827500D02*
X11834300Y-126074600D01*
X11834300Y-126074600D02*
X11834300Y-105298300D01*
X11834300Y-105298300D02*
X14849900Y-102282700D01*
X14849900Y-102282700D02*
X16637400Y-102282700D01*
X16637400Y-102282700D02*
X31753300Y-87166800D01*
X31753300Y-87166800D02*
X31971800Y-87166800D01*
X21590000Y-162560000D02*
X21590000Y-161434700D01*
X15240000Y-165100000D02*
X16365300Y-165100000D01*
X16365300Y-165100000D02*
X18905300Y-162560000D01*
X18905300Y-162560000D02*
X21590000Y-162560000D01*
%TO.N,Net-(RN3-Pad7)*%
X15240000Y-167640000D02*
X16365300Y-167640000D01*
X21590000Y-165100000D02*
X18905300Y-165100000D01*
X18905300Y-165100000D02*
X16365300Y-167640000D01*
X25915100Y-162888500D02*
X23703600Y-165100000D01*
X23703600Y-165100000D02*
X21590000Y-165100000D01*
%TO.N,Net-(RN3-Pad6)*%
X15802700Y-170180000D02*
X14068800Y-168446100D01*
X14068800Y-168446100D02*
X14068800Y-156199500D01*
X14068800Y-156199500D02*
X22136900Y-148131400D01*
X22136900Y-148131400D02*
X22136900Y-139744400D01*
X22136900Y-139744400D02*
X10921200Y-128528700D01*
X10921200Y-128528700D02*
X10921200Y-104904300D01*
X10921200Y-104904300D02*
X14889200Y-100936300D01*
X14889200Y-100936300D02*
X15932300Y-100936300D01*
X15932300Y-100936300D02*
X29401600Y-87467000D01*
X29401600Y-87467000D02*
X29845000Y-87467000D01*
X15802700Y-170180000D02*
X16365300Y-170180000D01*
X15240000Y-170180000D02*
X15802700Y-170180000D01*
X16365300Y-170180000D02*
X18905300Y-167640000D01*
X18905300Y-167640000D02*
X21590000Y-167640000D01*
%TO.N,Net-(RN3-Pad5)*%
X28286900Y-87454800D02*
X28286900Y-87727100D01*
X28286900Y-87727100D02*
X15753200Y-100260800D01*
X15753200Y-100260800D02*
X14923000Y-100260800D01*
X14923000Y-100260800D02*
X10466100Y-104717700D01*
X10466100Y-104717700D02*
X10466100Y-134974800D01*
X10466100Y-134974800D02*
X21645300Y-146154000D01*
X21645300Y-146154000D02*
X21645300Y-147891100D01*
X21645300Y-147891100D02*
X13618500Y-155917900D01*
X13618500Y-155917900D02*
X13618500Y-170254500D01*
X13618500Y-170254500D02*
X14958700Y-171594700D01*
X14958700Y-171594700D02*
X15240000Y-171594700D01*
X21590000Y-170180000D02*
X20464700Y-170180000D01*
X15240000Y-172044800D02*
X18599900Y-172044800D01*
X18599900Y-172044800D02*
X20464700Y-170180000D01*
X15240000Y-172044800D02*
X15240000Y-171594700D01*
X15240000Y-172720000D02*
X15240000Y-172044800D01*
%TO.N,Net-(RN3-Pad4)*%
X26947700Y-87342900D02*
X25329500Y-87342900D01*
X25329500Y-87342900D02*
X17478000Y-95194400D01*
X17478000Y-95194400D02*
X14187500Y-95194400D01*
X14187500Y-95194400D02*
X13845900Y-94852800D01*
X13845900Y-94852800D02*
X12774600Y-94852800D01*
X12774600Y-94852800D02*
X9501400Y-98126000D01*
X9501400Y-98126000D02*
X9501400Y-168677400D01*
X9501400Y-168677400D02*
X14958700Y-174134700D01*
X14958700Y-174134700D02*
X15240000Y-174134700D01*
X21590000Y-172720000D02*
X20464700Y-172720000D01*
X15240000Y-174584800D02*
X18599900Y-174584800D01*
X18599900Y-174584800D02*
X20464700Y-172720000D01*
X15240000Y-174584800D02*
X15240000Y-174134700D01*
X15240000Y-175260000D02*
X15240000Y-174584800D01*
%TO.N,Net-(RN3-Pad3)*%
X16365300Y-177800000D02*
X18905300Y-175260000D01*
X18905300Y-175260000D02*
X21590000Y-175260000D01*
X15240000Y-177800000D02*
X16365300Y-177800000D01*
%TO.N,Net-(RN3-Pad2)*%
X17647600Y-96257600D02*
X17878500Y-96257600D01*
X17878500Y-96257600D02*
X24660500Y-89475600D01*
X15240000Y-180340000D02*
X16365300Y-180340000D01*
X16365300Y-180340000D02*
X18905300Y-177800000D01*
X18905300Y-177800000D02*
X21590000Y-177800000D01*
%TO.N,/SDA1*%
X33020000Y-54610000D02*
X33020000Y-55785300D01*
X33020000Y-55785300D02*
X33828000Y-55785300D01*
X33828000Y-55785300D02*
X34210100Y-56167400D01*
X34210100Y-56167400D02*
X34210100Y-62718700D01*
X34210100Y-62718700D02*
X24174600Y-72754200D01*
X24174600Y-72754200D02*
X24174600Y-76163100D01*
X24174600Y-76163100D02*
X20072100Y-80265600D01*
X20072100Y-80265600D02*
X20072100Y-87540700D01*
X20072100Y-87540700D02*
X20689100Y-88157700D01*
%TO.N,Net-(J2-Pad4)*%
X15240000Y-93980000D02*
X15240000Y-92804700D01*
X15240000Y-49530000D02*
X15240000Y-50705300D01*
X15240000Y-50705300D02*
X14872700Y-50705300D01*
X14872700Y-50705300D02*
X14064700Y-51513300D01*
X14064700Y-51513300D02*
X14064700Y-91996800D01*
X14064700Y-91996800D02*
X14872600Y-92804700D01*
X14872600Y-92804700D02*
X15240000Y-92804700D01*
%TO.N,Net-(R2-Pad1)*%
X15240000Y-116840000D02*
X20560500Y-116840000D01*
X20560500Y-116840000D02*
X22855900Y-114544600D01*
%TO.N,/INT1*%
X19685000Y-135333600D02*
X11384000Y-127032600D01*
X11384000Y-127032600D02*
X11384000Y-105078400D01*
X11384000Y-105078400D02*
X14850800Y-101611600D01*
X14850800Y-101611600D02*
X16282700Y-101611600D01*
X16282700Y-101611600D02*
X26131300Y-91763000D01*
%TO.N,/INT0*%
X33020000Y-60865300D02*
X32652700Y-60865300D01*
X32652700Y-60865300D02*
X21043500Y-72474500D01*
X21043500Y-72474500D02*
X21043500Y-78657300D01*
X21043500Y-78657300D02*
X19621700Y-80079100D01*
X19621700Y-80079100D02*
X19621700Y-88124400D01*
X19621700Y-88124400D02*
X19651100Y-88153800D01*
X33020000Y-59690000D02*
X33020000Y-60865300D01*
%TD*%
M02*
