M48
; DRILL file {KiCad (5.1.10)-1} date 08/13/21 19:33:20
; FORMAT={-:-/ absolute / inch / decimal}
; #@! TF.CreationDate,2021-08-13T19:33:20-04:00
; #@! TF.GenerationSoftware,Kicad,Pcbnew,(5.1.10)-1
; #@! TF.FileFunction,Plated,1,2,PTH
FMAT,2
INCH
T1C0.0157
T2C0.0276
T3C0.0300
T4C0.0315
T5C0.0394
T6C0.0402
T7C0.0472
T8C0.0787
T9C0.1260
%
G90
G05
T1
X3.342Y-4.7566
X3.4669Y-3.9814
X3.5306Y-4.7602
X3.5519Y-3.9814
X3.6219Y-3.7314
X3.6719Y-3.6714
X3.6819Y-3.9864
X3.6819Y-4.0964
X3.8148Y-2.9625
X3.8269Y-3.1114
X3.8869Y-3.9664
X3.9169Y-2.7064
X3.9169Y-2.9764
X3.9319Y-3.6714
X3.9469Y-4.0014
X4.0119Y-3.7214
X4.0451Y-2.7354
X4.3269Y-3.9914
X4.3819Y-4.4364
X4.4019Y-4.6614
X4.4419Y-4.8614
X4.4569Y-3.1814
X4.4649Y-4.2318
X4.4969Y-4.1314
X4.4969Y-4.6064
X4.5211Y-4.9633
X4.5469Y-4.4464
X4.5919Y-4.4764
X4.6097Y-3.733
X4.6589Y-4.1759
X4.7669Y-4.9964
X4.7869Y-4.6914
X4.8769Y-5.0664
X4.8817Y-2.8633
X4.9619Y-4.1914
X4.9837Y-3.7724
X4.9969Y-4.3364
X5.0819Y-4.1264
X5.1069Y-4.4914
X5.1119Y-4.5614
X5.1839Y-4.1231
X5.2819Y-4.7414
X5.3169Y-4.7914
X5.3219Y-4.6664
X5.3769Y-4.7014
X5.4024Y-3.9539
X5.4269Y-4.7014
X5.4418Y-3.9046
X5.4569Y-4.0814
X5.4769Y-4.2364
X5.4769Y-4.7414
X5.4831Y-3.877
X5.5038Y-4.0552
X5.553Y-4.0159
X5.6758Y-2.5161
X5.7647Y-2.4272
X5.85Y-4.9266
X6.2269Y-4.8064
X6.2414Y-3.356
X6.3919Y-4.7514
X6.4969Y-4.4964
X6.5105Y-4.0889
X6.5369Y-4.5464
X6.5372Y-4.7974
X6.6169Y-4.8043
X6.6769Y-3.9814
X6.6819Y-4.0764
X6.7365Y-3.1985
X6.7669Y-4.7914
X6.8256Y-4.9883
X6.9219Y-4.6414
X6.9741Y-4.6883
X7.0075Y-4.8714
X7.2439Y-2.5877
X7.3019Y-4.2414
X7.3019Y-4.6914
X7.3325Y-3.0798
X7.3669Y-4.6914
X7.5469Y-3.8464
X7.6569Y-3.5964
X7.8369Y-2.9064
X7.8569Y-3.5964
X7.8769Y-4.6014
X8.4269Y-3.8314
X8.4269Y-4.0114
X8.5959Y-4.0114
X8.6819Y-3.9664
X9.4979Y-4.4775
T2
X5.4967Y-2.4007
X5.4967Y-2.9125
X5.4967Y-3.4243
X5.5467Y-2.4007
X5.5467Y-2.9125
X5.5467Y-3.4243
X5.5963Y-2.4007
X5.5963Y-2.9125
X5.5963Y-3.4243
X5.6396Y-3.6968
X5.6396Y-3.8968
X5.6463Y-2.4007
X5.6463Y-2.9125
X5.6463Y-3.4243
X5.7577Y-3.6999
X5.7577Y-3.8999
X5.8758Y-3.6968
X5.8758Y-3.8968
X5.9939Y-3.6968
X5.9939Y-3.8968
X6.0085Y-2.4007
X6.0085Y-2.9125
X6.0085Y-3.4243
X6.0585Y-2.4007
X6.0585Y-2.9125
X6.0585Y-3.4243
X6.1081Y-2.4007
X6.1081Y-2.9125
X6.1081Y-3.4243
X6.112Y-3.6968
X6.112Y-3.8968
X6.1581Y-2.4007
X6.1581Y-2.9125
X6.1581Y-3.4243
X6.2302Y-3.6968
X6.2302Y-3.8968
X6.3483Y-3.6968
X6.3483Y-3.8968
X6.4664Y-3.6968
X6.4664Y-3.8968
X6.5203Y-2.4007
X6.5203Y-2.9125
X6.5203Y-3.4243
X6.5703Y-2.4007
X6.5703Y-2.9125
X6.5703Y-3.4243
X6.5845Y-3.6968
X6.5845Y-3.8968
X6.6199Y-2.4007
X6.6199Y-2.9125
X6.6199Y-3.4243
X6.6699Y-2.4007
X6.6699Y-2.9125
X6.6699Y-3.4243
T3
X5.1806Y-2.7633
X5.1806Y-2.8633
X5.1806Y-2.9633
X5.1806Y-3.0633
X6.9806Y-2.7633
X6.9806Y-2.8633
X6.9806Y-2.9633
X6.9806Y-3.0633
T4
X2.3806Y-3.8133
X2.4706Y-2.2843
X2.4706Y-2.4873
X2.4706Y-2.7843
X2.4706Y-2.9873
X2.4706Y-3.2843
X2.4706Y-3.4873
X2.4806Y-3.8133
X2.5806Y-3.8133
X2.6806Y-3.8133
X2.7806Y-3.8133
X2.8806Y-3.8133
X2.9206Y-2.2843
X2.9206Y-2.4873
X2.9206Y-2.7843
X2.9206Y-2.9873
X2.9206Y-3.2843
X2.9206Y-3.4873
X2.9806Y-3.8133
X3.0806Y-3.8133
X3.1806Y-3.8133
X3.2806Y-3.8133
X3.3706Y-2.2843
X3.3706Y-2.4873
X3.3706Y-2.7843
X3.3706Y-2.9873
X3.3706Y-3.2843
X3.3706Y-3.4873
X4.8073Y-3.5649
X4.8073Y-3.8649
X4.9837Y-3.5649
X4.9837Y-3.8649
X5.1806Y-3.5649
X5.1806Y-3.8649
X5.5215Y-2.1448
X5.5215Y-2.6566
X5.5215Y-3.1684
X5.6199Y-2.1448
X5.6199Y-2.6566
X5.6199Y-3.1684
X5.738Y-4.4283
X5.738Y-4.5267
X6.0333Y-2.1448
X6.0333Y-2.6566
X6.0333Y-3.1684
X6.1317Y-2.1448
X6.1317Y-2.6566
X6.1317Y-3.1684
X6.5451Y-2.1448
X6.5451Y-2.6566
X6.5451Y-3.1684
X6.6435Y-2.1448
X6.6435Y-2.6566
X6.6435Y-3.1684
X7.0372Y-5.0188
X7.1357Y-5.0188
X7.4569Y-3.7464
X7.4569Y-4.0464
X7.6569Y-3.7464
X7.6569Y-4.0464
X7.8569Y-3.7464
X7.8569Y-4.0464
X8.2369Y-4.2814
X8.2369Y-4.3814
X8.2369Y-4.4814
X8.2369Y-4.5814
X8.2369Y-4.6814
X8.2369Y-4.7814
X8.2369Y-4.8814
X8.2369Y-4.9814
X8.2369Y-5.0814
X8.2369Y-5.1814
X8.455Y-4.485
X8.455Y-4.585
X8.455Y-4.685
X8.455Y-4.785
X8.455Y-4.885
X8.455Y-4.985
X8.455Y-5.085
X8.6806Y-3.8133
X8.755Y-4.485
X8.755Y-4.585
X8.755Y-4.685
X8.755Y-4.785
X8.755Y-4.885
X8.755Y-4.985
X8.755Y-5.085
X8.7706Y-2.2843
X8.7706Y-2.4873
X8.7706Y-2.7843
X8.7706Y-2.9873
X8.7706Y-3.2843
X8.7706Y-3.4873
X8.7806Y-3.8133
X8.8806Y-3.8133
X8.9806Y-3.8133
X9.0806Y-3.8133
X9.1806Y-3.8133
X9.2206Y-2.2843
X9.2206Y-2.4873
X9.2206Y-2.7843
X9.2206Y-2.9873
X9.2206Y-3.2843
X9.2206Y-3.4873
X9.2806Y-3.8133
X9.3806Y-3.8133
X9.4806Y-3.8133
X9.5806Y-3.8133
X9.6706Y-2.2843
X9.6706Y-2.4873
X9.6706Y-2.7843
X9.6706Y-2.9873
X9.6706Y-3.2843
X9.6706Y-3.4873
T5
X5.1806Y-4.9633
X5.2806Y-4.9633
X5.3806Y-4.9633
X5.4806Y-4.9633
X5.5806Y-4.9633
X5.6806Y-4.9633
X6.3168Y-4.9633
X6.4168Y-4.9633
X7.4806Y-4.9464
X7.7365Y-4.9464
X9.1928Y-4.3003
X9.3896Y-4.3003
X9.5865Y-4.3003
T6
X2.3306Y-4.2633
X2.3306Y-4.9633
X2.4306Y-4.2633
X2.4306Y-4.9633
X2.5306Y-4.2633
X2.5306Y-4.9633
X2.6306Y-4.2633
X2.6306Y-4.9633
X2.7306Y-4.2633
X2.7306Y-4.9633
X2.8306Y-4.2633
X2.8306Y-4.9633
X2.9306Y-4.2633
X2.9306Y-4.9633
X3.0306Y-4.2633
X3.0306Y-4.9633
X3.1306Y-4.2633
X3.1306Y-4.9633
X3.2306Y-4.2633
X3.2306Y-4.9633
X3.3306Y-4.2633
X3.3306Y-4.9633
X3.4306Y-4.2633
X3.4306Y-4.9633
X3.5306Y-4.2633
X3.5306Y-4.9633
X3.6306Y-4.2633
X3.6306Y-4.9633
X3.7306Y-4.2633
X3.7306Y-4.9633
X3.8306Y-4.2633
X3.8306Y-4.9633
X3.9306Y-4.2633
X3.9306Y-4.9633
X4.0306Y-4.2633
X4.0306Y-4.9633
X4.1306Y-4.2633
X4.1306Y-4.9633
X4.2215Y-4.5133
X4.2215Y-4.6133
X4.2215Y-4.7133
X4.2306Y-4.2633
X4.2306Y-4.9633
T7
X3.7207Y-3.5633
X3.8782Y-2.2641
X3.8782Y-3.5633
X8.2707Y-3.5633
X8.4282Y-2.2641
X8.4282Y-3.5633
T8
X4.2093Y-2.431
X4.2093Y-3.3956
X5.1542Y-2.431
X5.1542Y-3.3956
X7.0069Y-2.431
X7.0069Y-3.3956
X7.9518Y-2.431
X7.9518Y-3.3956
T9
X2.2144Y-2.0857
X2.2144Y-5.2354
X9.8916Y-2.0857
X9.8916Y-5.2354
T0
M30
