%TF.GenerationSoftware,KiCad,Pcbnew,(5.1.10)-1*%
%TF.CreationDate,2021-07-08T22:59:45-04:00*%
%TF.ProjectId,RICM_pico,5249434d-5f70-4696-936f-2e6b69636164,rev?*%
%TF.SameCoordinates,Original*%
%TF.FileFunction,Soldermask,Top*%
%TF.FilePolarity,Negative*%
%FSLAX46Y46*%
G04 Gerber Fmt 4.6, Leading zero omitted, Abs format (unit mm)*
G04 Created by KiCad (PCBNEW (5.1.10)-1) date 2021-07-08 22:59:45*
%MOMM*%
%LPD*%
G01*
G04 APERTURE LIST*
%ADD10C,1.600000*%
%ADD11O,1.600000X1.600000*%
%ADD12R,1.600000X1.600000*%
%ADD13R,2.000000X2.000000*%
%ADD14C,2.000000*%
%ADD15C,1.550000*%
%ADD16R,1.550000X1.550000*%
%ADD17C,1.524000*%
%ADD18C,2.750000*%
%ADD19R,1.800000X1.800000*%
%ADD20C,1.800000*%
%ADD21R,1.700000X1.700000*%
%ADD22O,1.700000X1.700000*%
%ADD23R,1.700000X3.500000*%
%ADD24O,1.800000X1.800000*%
%ADD25O,1.500000X1.500000*%
%ADD26R,3.500000X1.700000*%
%ADD27R,1.750000X1.750000*%
%ADD28C,1.750000*%
%ADD29C,2.700000*%
%ADD30O,1.800000X4.000000*%
%ADD31O,4.000000X1.800000*%
%ADD32R,4.400000X1.800000*%
%ADD33R,2.200000X2.200000*%
%ADD34O,2.200000X2.200000*%
G04 APERTURE END LIST*
D10*
%TO.C,R8*%
X122096000Y-98168000D03*
D11*
X122096000Y-90548000D03*
%TD*%
D12*
%TO.C,RN4*%
X143016000Y-96858000D03*
D11*
X145556000Y-96858000D03*
X148096000Y-96858000D03*
X150636000Y-96858000D03*
X153176000Y-96858000D03*
X155716000Y-96858000D03*
X158256000Y-96858000D03*
X160796000Y-96858000D03*
X163336000Y-96858000D03*
X165876000Y-96858000D03*
%TD*%
%TO.C,U5*%
G36*
G01*
X170281000Y-121473000D02*
X170281000Y-121773000D01*
G75*
G02*
X170131000Y-121923000I-150000J0D01*
G01*
X168381000Y-121923000D01*
G75*
G02*
X168231000Y-121773000I0J150000D01*
G01*
X168231000Y-121473000D01*
G75*
G02*
X168381000Y-121323000I150000J0D01*
G01*
X170131000Y-121323000D01*
G75*
G02*
X170281000Y-121473000I0J-150000D01*
G01*
G37*
G36*
G01*
X170281000Y-120203000D02*
X170281000Y-120503000D01*
G75*
G02*
X170131000Y-120653000I-150000J0D01*
G01*
X168381000Y-120653000D01*
G75*
G02*
X168231000Y-120503000I0J150000D01*
G01*
X168231000Y-120203000D01*
G75*
G02*
X168381000Y-120053000I150000J0D01*
G01*
X170131000Y-120053000D01*
G75*
G02*
X170281000Y-120203000I0J-150000D01*
G01*
G37*
G36*
G01*
X170281000Y-118933000D02*
X170281000Y-119233000D01*
G75*
G02*
X170131000Y-119383000I-150000J0D01*
G01*
X168381000Y-119383000D01*
G75*
G02*
X168231000Y-119233000I0J150000D01*
G01*
X168231000Y-118933000D01*
G75*
G02*
X168381000Y-118783000I150000J0D01*
G01*
X170131000Y-118783000D01*
G75*
G02*
X170281000Y-118933000I0J-150000D01*
G01*
G37*
G36*
G01*
X170281000Y-117663000D02*
X170281000Y-117963000D01*
G75*
G02*
X170131000Y-118113000I-150000J0D01*
G01*
X168381000Y-118113000D01*
G75*
G02*
X168231000Y-117963000I0J150000D01*
G01*
X168231000Y-117663000D01*
G75*
G02*
X168381000Y-117513000I150000J0D01*
G01*
X170131000Y-117513000D01*
G75*
G02*
X170281000Y-117663000I0J-150000D01*
G01*
G37*
G36*
G01*
X170281000Y-116393000D02*
X170281000Y-116693000D01*
G75*
G02*
X170131000Y-116843000I-150000J0D01*
G01*
X168381000Y-116843000D01*
G75*
G02*
X168231000Y-116693000I0J150000D01*
G01*
X168231000Y-116393000D01*
G75*
G02*
X168381000Y-116243000I150000J0D01*
G01*
X170131000Y-116243000D01*
G75*
G02*
X170281000Y-116393000I0J-150000D01*
G01*
G37*
G36*
G01*
X170281000Y-115123000D02*
X170281000Y-115423000D01*
G75*
G02*
X170131000Y-115573000I-150000J0D01*
G01*
X168381000Y-115573000D01*
G75*
G02*
X168231000Y-115423000I0J150000D01*
G01*
X168231000Y-115123000D01*
G75*
G02*
X168381000Y-114973000I150000J0D01*
G01*
X170131000Y-114973000D01*
G75*
G02*
X170281000Y-115123000I0J-150000D01*
G01*
G37*
G36*
G01*
X170281000Y-113853000D02*
X170281000Y-114153000D01*
G75*
G02*
X170131000Y-114303000I-150000J0D01*
G01*
X168381000Y-114303000D01*
G75*
G02*
X168231000Y-114153000I0J150000D01*
G01*
X168231000Y-113853000D01*
G75*
G02*
X168381000Y-113703000I150000J0D01*
G01*
X170131000Y-113703000D01*
G75*
G02*
X170281000Y-113853000I0J-150000D01*
G01*
G37*
G36*
G01*
X170281000Y-112583000D02*
X170281000Y-112883000D01*
G75*
G02*
X170131000Y-113033000I-150000J0D01*
G01*
X168381000Y-113033000D01*
G75*
G02*
X168231000Y-112883000I0J150000D01*
G01*
X168231000Y-112583000D01*
G75*
G02*
X168381000Y-112433000I150000J0D01*
G01*
X170131000Y-112433000D01*
G75*
G02*
X170281000Y-112583000I0J-150000D01*
G01*
G37*
G36*
G01*
X170281000Y-111313000D02*
X170281000Y-111613000D01*
G75*
G02*
X170131000Y-111763000I-150000J0D01*
G01*
X168381000Y-111763000D01*
G75*
G02*
X168231000Y-111613000I0J150000D01*
G01*
X168231000Y-111313000D01*
G75*
G02*
X168381000Y-111163000I150000J0D01*
G01*
X170131000Y-111163000D01*
G75*
G02*
X170281000Y-111313000I0J-150000D01*
G01*
G37*
G36*
G01*
X170281000Y-110043000D02*
X170281000Y-110343000D01*
G75*
G02*
X170131000Y-110493000I-150000J0D01*
G01*
X168381000Y-110493000D01*
G75*
G02*
X168231000Y-110343000I0J150000D01*
G01*
X168231000Y-110043000D01*
G75*
G02*
X168381000Y-109893000I150000J0D01*
G01*
X170131000Y-109893000D01*
G75*
G02*
X170281000Y-110043000I0J-150000D01*
G01*
G37*
G36*
G01*
X170281000Y-108773000D02*
X170281000Y-109073000D01*
G75*
G02*
X170131000Y-109223000I-150000J0D01*
G01*
X168381000Y-109223000D01*
G75*
G02*
X168231000Y-109073000I0J150000D01*
G01*
X168231000Y-108773000D01*
G75*
G02*
X168381000Y-108623000I150000J0D01*
G01*
X170131000Y-108623000D01*
G75*
G02*
X170281000Y-108773000I0J-150000D01*
G01*
G37*
G36*
G01*
X170281000Y-107503000D02*
X170281000Y-107803000D01*
G75*
G02*
X170131000Y-107953000I-150000J0D01*
G01*
X168381000Y-107953000D01*
G75*
G02*
X168231000Y-107803000I0J150000D01*
G01*
X168231000Y-107503000D01*
G75*
G02*
X168381000Y-107353000I150000J0D01*
G01*
X170131000Y-107353000D01*
G75*
G02*
X170281000Y-107503000I0J-150000D01*
G01*
G37*
G36*
G01*
X160981000Y-107503000D02*
X160981000Y-107803000D01*
G75*
G02*
X160831000Y-107953000I-150000J0D01*
G01*
X159081000Y-107953000D01*
G75*
G02*
X158931000Y-107803000I0J150000D01*
G01*
X158931000Y-107503000D01*
G75*
G02*
X159081000Y-107353000I150000J0D01*
G01*
X160831000Y-107353000D01*
G75*
G02*
X160981000Y-107503000I0J-150000D01*
G01*
G37*
G36*
G01*
X160981000Y-108773000D02*
X160981000Y-109073000D01*
G75*
G02*
X160831000Y-109223000I-150000J0D01*
G01*
X159081000Y-109223000D01*
G75*
G02*
X158931000Y-109073000I0J150000D01*
G01*
X158931000Y-108773000D01*
G75*
G02*
X159081000Y-108623000I150000J0D01*
G01*
X160831000Y-108623000D01*
G75*
G02*
X160981000Y-108773000I0J-150000D01*
G01*
G37*
G36*
G01*
X160981000Y-110043000D02*
X160981000Y-110343000D01*
G75*
G02*
X160831000Y-110493000I-150000J0D01*
G01*
X159081000Y-110493000D01*
G75*
G02*
X158931000Y-110343000I0J150000D01*
G01*
X158931000Y-110043000D01*
G75*
G02*
X159081000Y-109893000I150000J0D01*
G01*
X160831000Y-109893000D01*
G75*
G02*
X160981000Y-110043000I0J-150000D01*
G01*
G37*
G36*
G01*
X160981000Y-111313000D02*
X160981000Y-111613000D01*
G75*
G02*
X160831000Y-111763000I-150000J0D01*
G01*
X159081000Y-111763000D01*
G75*
G02*
X158931000Y-111613000I0J150000D01*
G01*
X158931000Y-111313000D01*
G75*
G02*
X159081000Y-111163000I150000J0D01*
G01*
X160831000Y-111163000D01*
G75*
G02*
X160981000Y-111313000I0J-150000D01*
G01*
G37*
G36*
G01*
X160981000Y-112583000D02*
X160981000Y-112883000D01*
G75*
G02*
X160831000Y-113033000I-150000J0D01*
G01*
X159081000Y-113033000D01*
G75*
G02*
X158931000Y-112883000I0J150000D01*
G01*
X158931000Y-112583000D01*
G75*
G02*
X159081000Y-112433000I150000J0D01*
G01*
X160831000Y-112433000D01*
G75*
G02*
X160981000Y-112583000I0J-150000D01*
G01*
G37*
G36*
G01*
X160981000Y-113853000D02*
X160981000Y-114153000D01*
G75*
G02*
X160831000Y-114303000I-150000J0D01*
G01*
X159081000Y-114303000D01*
G75*
G02*
X158931000Y-114153000I0J150000D01*
G01*
X158931000Y-113853000D01*
G75*
G02*
X159081000Y-113703000I150000J0D01*
G01*
X160831000Y-113703000D01*
G75*
G02*
X160981000Y-113853000I0J-150000D01*
G01*
G37*
G36*
G01*
X160981000Y-115123000D02*
X160981000Y-115423000D01*
G75*
G02*
X160831000Y-115573000I-150000J0D01*
G01*
X159081000Y-115573000D01*
G75*
G02*
X158931000Y-115423000I0J150000D01*
G01*
X158931000Y-115123000D01*
G75*
G02*
X159081000Y-114973000I150000J0D01*
G01*
X160831000Y-114973000D01*
G75*
G02*
X160981000Y-115123000I0J-150000D01*
G01*
G37*
G36*
G01*
X160981000Y-116393000D02*
X160981000Y-116693000D01*
G75*
G02*
X160831000Y-116843000I-150000J0D01*
G01*
X159081000Y-116843000D01*
G75*
G02*
X158931000Y-116693000I0J150000D01*
G01*
X158931000Y-116393000D01*
G75*
G02*
X159081000Y-116243000I150000J0D01*
G01*
X160831000Y-116243000D01*
G75*
G02*
X160981000Y-116393000I0J-150000D01*
G01*
G37*
G36*
G01*
X160981000Y-117663000D02*
X160981000Y-117963000D01*
G75*
G02*
X160831000Y-118113000I-150000J0D01*
G01*
X159081000Y-118113000D01*
G75*
G02*
X158931000Y-117963000I0J150000D01*
G01*
X158931000Y-117663000D01*
G75*
G02*
X159081000Y-117513000I150000J0D01*
G01*
X160831000Y-117513000D01*
G75*
G02*
X160981000Y-117663000I0J-150000D01*
G01*
G37*
G36*
G01*
X160981000Y-118933000D02*
X160981000Y-119233000D01*
G75*
G02*
X160831000Y-119383000I-150000J0D01*
G01*
X159081000Y-119383000D01*
G75*
G02*
X158931000Y-119233000I0J150000D01*
G01*
X158931000Y-118933000D01*
G75*
G02*
X159081000Y-118783000I150000J0D01*
G01*
X160831000Y-118783000D01*
G75*
G02*
X160981000Y-118933000I0J-150000D01*
G01*
G37*
G36*
G01*
X160981000Y-120203000D02*
X160981000Y-120503000D01*
G75*
G02*
X160831000Y-120653000I-150000J0D01*
G01*
X159081000Y-120653000D01*
G75*
G02*
X158931000Y-120503000I0J150000D01*
G01*
X158931000Y-120203000D01*
G75*
G02*
X159081000Y-120053000I150000J0D01*
G01*
X160831000Y-120053000D01*
G75*
G02*
X160981000Y-120203000I0J-150000D01*
G01*
G37*
G36*
G01*
X160981000Y-121473000D02*
X160981000Y-121773000D01*
G75*
G02*
X160831000Y-121923000I-150000J0D01*
G01*
X159081000Y-121923000D01*
G75*
G02*
X158931000Y-121773000I0J150000D01*
G01*
X158931000Y-121473000D01*
G75*
G02*
X159081000Y-121323000I150000J0D01*
G01*
X160831000Y-121323000D01*
G75*
G02*
X160981000Y-121473000I0J-150000D01*
G01*
G37*
%TD*%
%TO.C,U4*%
G36*
G01*
X156311000Y-121473000D02*
X156311000Y-121773000D01*
G75*
G02*
X156161000Y-121923000I-150000J0D01*
G01*
X154411000Y-121923000D01*
G75*
G02*
X154261000Y-121773000I0J150000D01*
G01*
X154261000Y-121473000D01*
G75*
G02*
X154411000Y-121323000I150000J0D01*
G01*
X156161000Y-121323000D01*
G75*
G02*
X156311000Y-121473000I0J-150000D01*
G01*
G37*
G36*
G01*
X156311000Y-120203000D02*
X156311000Y-120503000D01*
G75*
G02*
X156161000Y-120653000I-150000J0D01*
G01*
X154411000Y-120653000D01*
G75*
G02*
X154261000Y-120503000I0J150000D01*
G01*
X154261000Y-120203000D01*
G75*
G02*
X154411000Y-120053000I150000J0D01*
G01*
X156161000Y-120053000D01*
G75*
G02*
X156311000Y-120203000I0J-150000D01*
G01*
G37*
G36*
G01*
X156311000Y-118933000D02*
X156311000Y-119233000D01*
G75*
G02*
X156161000Y-119383000I-150000J0D01*
G01*
X154411000Y-119383000D01*
G75*
G02*
X154261000Y-119233000I0J150000D01*
G01*
X154261000Y-118933000D01*
G75*
G02*
X154411000Y-118783000I150000J0D01*
G01*
X156161000Y-118783000D01*
G75*
G02*
X156311000Y-118933000I0J-150000D01*
G01*
G37*
G36*
G01*
X156311000Y-117663000D02*
X156311000Y-117963000D01*
G75*
G02*
X156161000Y-118113000I-150000J0D01*
G01*
X154411000Y-118113000D01*
G75*
G02*
X154261000Y-117963000I0J150000D01*
G01*
X154261000Y-117663000D01*
G75*
G02*
X154411000Y-117513000I150000J0D01*
G01*
X156161000Y-117513000D01*
G75*
G02*
X156311000Y-117663000I0J-150000D01*
G01*
G37*
G36*
G01*
X156311000Y-116393000D02*
X156311000Y-116693000D01*
G75*
G02*
X156161000Y-116843000I-150000J0D01*
G01*
X154411000Y-116843000D01*
G75*
G02*
X154261000Y-116693000I0J150000D01*
G01*
X154261000Y-116393000D01*
G75*
G02*
X154411000Y-116243000I150000J0D01*
G01*
X156161000Y-116243000D01*
G75*
G02*
X156311000Y-116393000I0J-150000D01*
G01*
G37*
G36*
G01*
X156311000Y-115123000D02*
X156311000Y-115423000D01*
G75*
G02*
X156161000Y-115573000I-150000J0D01*
G01*
X154411000Y-115573000D01*
G75*
G02*
X154261000Y-115423000I0J150000D01*
G01*
X154261000Y-115123000D01*
G75*
G02*
X154411000Y-114973000I150000J0D01*
G01*
X156161000Y-114973000D01*
G75*
G02*
X156311000Y-115123000I0J-150000D01*
G01*
G37*
G36*
G01*
X156311000Y-113853000D02*
X156311000Y-114153000D01*
G75*
G02*
X156161000Y-114303000I-150000J0D01*
G01*
X154411000Y-114303000D01*
G75*
G02*
X154261000Y-114153000I0J150000D01*
G01*
X154261000Y-113853000D01*
G75*
G02*
X154411000Y-113703000I150000J0D01*
G01*
X156161000Y-113703000D01*
G75*
G02*
X156311000Y-113853000I0J-150000D01*
G01*
G37*
G36*
G01*
X156311000Y-112583000D02*
X156311000Y-112883000D01*
G75*
G02*
X156161000Y-113033000I-150000J0D01*
G01*
X154411000Y-113033000D01*
G75*
G02*
X154261000Y-112883000I0J150000D01*
G01*
X154261000Y-112583000D01*
G75*
G02*
X154411000Y-112433000I150000J0D01*
G01*
X156161000Y-112433000D01*
G75*
G02*
X156311000Y-112583000I0J-150000D01*
G01*
G37*
G36*
G01*
X156311000Y-111313000D02*
X156311000Y-111613000D01*
G75*
G02*
X156161000Y-111763000I-150000J0D01*
G01*
X154411000Y-111763000D01*
G75*
G02*
X154261000Y-111613000I0J150000D01*
G01*
X154261000Y-111313000D01*
G75*
G02*
X154411000Y-111163000I150000J0D01*
G01*
X156161000Y-111163000D01*
G75*
G02*
X156311000Y-111313000I0J-150000D01*
G01*
G37*
G36*
G01*
X156311000Y-110043000D02*
X156311000Y-110343000D01*
G75*
G02*
X156161000Y-110493000I-150000J0D01*
G01*
X154411000Y-110493000D01*
G75*
G02*
X154261000Y-110343000I0J150000D01*
G01*
X154261000Y-110043000D01*
G75*
G02*
X154411000Y-109893000I150000J0D01*
G01*
X156161000Y-109893000D01*
G75*
G02*
X156311000Y-110043000I0J-150000D01*
G01*
G37*
G36*
G01*
X156311000Y-108773000D02*
X156311000Y-109073000D01*
G75*
G02*
X156161000Y-109223000I-150000J0D01*
G01*
X154411000Y-109223000D01*
G75*
G02*
X154261000Y-109073000I0J150000D01*
G01*
X154261000Y-108773000D01*
G75*
G02*
X154411000Y-108623000I150000J0D01*
G01*
X156161000Y-108623000D01*
G75*
G02*
X156311000Y-108773000I0J-150000D01*
G01*
G37*
G36*
G01*
X156311000Y-107503000D02*
X156311000Y-107803000D01*
G75*
G02*
X156161000Y-107953000I-150000J0D01*
G01*
X154411000Y-107953000D01*
G75*
G02*
X154261000Y-107803000I0J150000D01*
G01*
X154261000Y-107503000D01*
G75*
G02*
X154411000Y-107353000I150000J0D01*
G01*
X156161000Y-107353000D01*
G75*
G02*
X156311000Y-107503000I0J-150000D01*
G01*
G37*
G36*
G01*
X147011000Y-107503000D02*
X147011000Y-107803000D01*
G75*
G02*
X146861000Y-107953000I-150000J0D01*
G01*
X145111000Y-107953000D01*
G75*
G02*
X144961000Y-107803000I0J150000D01*
G01*
X144961000Y-107503000D01*
G75*
G02*
X145111000Y-107353000I150000J0D01*
G01*
X146861000Y-107353000D01*
G75*
G02*
X147011000Y-107503000I0J-150000D01*
G01*
G37*
G36*
G01*
X147011000Y-108773000D02*
X147011000Y-109073000D01*
G75*
G02*
X146861000Y-109223000I-150000J0D01*
G01*
X145111000Y-109223000D01*
G75*
G02*
X144961000Y-109073000I0J150000D01*
G01*
X144961000Y-108773000D01*
G75*
G02*
X145111000Y-108623000I150000J0D01*
G01*
X146861000Y-108623000D01*
G75*
G02*
X147011000Y-108773000I0J-150000D01*
G01*
G37*
G36*
G01*
X147011000Y-110043000D02*
X147011000Y-110343000D01*
G75*
G02*
X146861000Y-110493000I-150000J0D01*
G01*
X145111000Y-110493000D01*
G75*
G02*
X144961000Y-110343000I0J150000D01*
G01*
X144961000Y-110043000D01*
G75*
G02*
X145111000Y-109893000I150000J0D01*
G01*
X146861000Y-109893000D01*
G75*
G02*
X147011000Y-110043000I0J-150000D01*
G01*
G37*
G36*
G01*
X147011000Y-111313000D02*
X147011000Y-111613000D01*
G75*
G02*
X146861000Y-111763000I-150000J0D01*
G01*
X145111000Y-111763000D01*
G75*
G02*
X144961000Y-111613000I0J150000D01*
G01*
X144961000Y-111313000D01*
G75*
G02*
X145111000Y-111163000I150000J0D01*
G01*
X146861000Y-111163000D01*
G75*
G02*
X147011000Y-111313000I0J-150000D01*
G01*
G37*
G36*
G01*
X147011000Y-112583000D02*
X147011000Y-112883000D01*
G75*
G02*
X146861000Y-113033000I-150000J0D01*
G01*
X145111000Y-113033000D01*
G75*
G02*
X144961000Y-112883000I0J150000D01*
G01*
X144961000Y-112583000D01*
G75*
G02*
X145111000Y-112433000I150000J0D01*
G01*
X146861000Y-112433000D01*
G75*
G02*
X147011000Y-112583000I0J-150000D01*
G01*
G37*
G36*
G01*
X147011000Y-113853000D02*
X147011000Y-114153000D01*
G75*
G02*
X146861000Y-114303000I-150000J0D01*
G01*
X145111000Y-114303000D01*
G75*
G02*
X144961000Y-114153000I0J150000D01*
G01*
X144961000Y-113853000D01*
G75*
G02*
X145111000Y-113703000I150000J0D01*
G01*
X146861000Y-113703000D01*
G75*
G02*
X147011000Y-113853000I0J-150000D01*
G01*
G37*
G36*
G01*
X147011000Y-115123000D02*
X147011000Y-115423000D01*
G75*
G02*
X146861000Y-115573000I-150000J0D01*
G01*
X145111000Y-115573000D01*
G75*
G02*
X144961000Y-115423000I0J150000D01*
G01*
X144961000Y-115123000D01*
G75*
G02*
X145111000Y-114973000I150000J0D01*
G01*
X146861000Y-114973000D01*
G75*
G02*
X147011000Y-115123000I0J-150000D01*
G01*
G37*
G36*
G01*
X147011000Y-116393000D02*
X147011000Y-116693000D01*
G75*
G02*
X146861000Y-116843000I-150000J0D01*
G01*
X145111000Y-116843000D01*
G75*
G02*
X144961000Y-116693000I0J150000D01*
G01*
X144961000Y-116393000D01*
G75*
G02*
X145111000Y-116243000I150000J0D01*
G01*
X146861000Y-116243000D01*
G75*
G02*
X147011000Y-116393000I0J-150000D01*
G01*
G37*
G36*
G01*
X147011000Y-117663000D02*
X147011000Y-117963000D01*
G75*
G02*
X146861000Y-118113000I-150000J0D01*
G01*
X145111000Y-118113000D01*
G75*
G02*
X144961000Y-117963000I0J150000D01*
G01*
X144961000Y-117663000D01*
G75*
G02*
X145111000Y-117513000I150000J0D01*
G01*
X146861000Y-117513000D01*
G75*
G02*
X147011000Y-117663000I0J-150000D01*
G01*
G37*
G36*
G01*
X147011000Y-118933000D02*
X147011000Y-119233000D01*
G75*
G02*
X146861000Y-119383000I-150000J0D01*
G01*
X145111000Y-119383000D01*
G75*
G02*
X144961000Y-119233000I0J150000D01*
G01*
X144961000Y-118933000D01*
G75*
G02*
X145111000Y-118783000I150000J0D01*
G01*
X146861000Y-118783000D01*
G75*
G02*
X147011000Y-118933000I0J-150000D01*
G01*
G37*
G36*
G01*
X147011000Y-120203000D02*
X147011000Y-120503000D01*
G75*
G02*
X146861000Y-120653000I-150000J0D01*
G01*
X145111000Y-120653000D01*
G75*
G02*
X144961000Y-120503000I0J150000D01*
G01*
X144961000Y-120203000D01*
G75*
G02*
X145111000Y-120053000I150000J0D01*
G01*
X146861000Y-120053000D01*
G75*
G02*
X147011000Y-120203000I0J-150000D01*
G01*
G37*
G36*
G01*
X147011000Y-121473000D02*
X147011000Y-121773000D01*
G75*
G02*
X146861000Y-121923000I-150000J0D01*
G01*
X145111000Y-121923000D01*
G75*
G02*
X144961000Y-121773000I0J150000D01*
G01*
X144961000Y-121473000D01*
G75*
G02*
X145111000Y-121323000I150000J0D01*
G01*
X146861000Y-121323000D01*
G75*
G02*
X147011000Y-121473000I0J-150000D01*
G01*
G37*
%TD*%
D13*
%TO.C,LS1*%
X197006000Y-125638000D03*
D14*
X189406000Y-125638000D03*
%TD*%
D15*
%TO.C,RV3*%
X230046000Y-107938000D03*
D16*
X230046000Y-112938000D03*
D15*
X235046000Y-110438000D03*
%TD*%
D17*
%TO.C,DS2*%
X177306000Y-77808000D03*
X177306000Y-75268000D03*
X177306000Y-72728000D03*
X177306000Y-70188000D03*
D18*
X177976000Y-61748000D03*
X177976000Y-86248000D03*
X201976000Y-86248000D03*
X201976000Y-61748000D03*
%TD*%
D17*
%TO.C,DS1*%
X131586000Y-70188000D03*
X131586000Y-72728000D03*
X131586000Y-75268000D03*
X131586000Y-77808000D03*
D18*
X130916000Y-86248000D03*
X130916000Y-61748000D03*
X106916000Y-61748000D03*
X106916000Y-86248000D03*
%TD*%
D10*
%TO.C,R7*%
X189406000Y-102778000D03*
D11*
X189406000Y-95158000D03*
%TD*%
D10*
%TO.C,R6*%
X199566000Y-95158000D03*
D11*
X199566000Y-102778000D03*
%TD*%
D10*
%TO.C,R5*%
X194486000Y-95158000D03*
D11*
X194486000Y-102778000D03*
%TD*%
D10*
%TO.C,R4*%
X125906000Y-90548000D03*
D11*
X125906000Y-98168000D03*
%TD*%
D10*
%TO.C,R3*%
X129716000Y-90548000D03*
D11*
X129716000Y-98168000D03*
%TD*%
D13*
%TO.C,C1*%
X118886000Y-109558000D03*
D14*
X118886000Y-104558000D03*
%TD*%
D19*
%TO.C,D10*%
X167146000Y-62568000D03*
D20*
X167146000Y-60028000D03*
X167146000Y-57488000D03*
X167146000Y-65108000D03*
%TD*%
D19*
%TO.C,D9*%
X167146000Y-75268000D03*
D20*
X167146000Y-72728000D03*
X167146000Y-70188000D03*
X167146000Y-77808000D03*
%TD*%
D19*
%TO.C,D8*%
X167146000Y-87968000D03*
D20*
X167146000Y-85428000D03*
X167146000Y-82888000D03*
X167146000Y-90508000D03*
%TD*%
D19*
%TO.C,D7*%
X154446000Y-62568000D03*
D20*
X154446000Y-60028000D03*
X154446000Y-57488000D03*
X154446000Y-65108000D03*
%TD*%
D19*
%TO.C,D6*%
X154446000Y-75268000D03*
D20*
X154446000Y-72728000D03*
X154446000Y-70188000D03*
X154446000Y-77808000D03*
%TD*%
D19*
%TO.C,D5*%
X154446000Y-87968000D03*
D20*
X154446000Y-85428000D03*
X154446000Y-82888000D03*
X154446000Y-90508000D03*
%TD*%
D19*
%TO.C,D4*%
X141746000Y-62568000D03*
D20*
X141746000Y-60028000D03*
X141746000Y-57488000D03*
X141746000Y-65108000D03*
%TD*%
D19*
%TO.C,D3*%
X141746000Y-75268000D03*
D20*
X141746000Y-72728000D03*
X141746000Y-70188000D03*
X141746000Y-77808000D03*
%TD*%
D19*
%TO.C,D2*%
X141746000Y-87968000D03*
D20*
X141746000Y-85428000D03*
X141746000Y-82888000D03*
X141746000Y-90508000D03*
%TD*%
D10*
%TO.C,R2*%
X166566000Y-126468000D03*
D11*
X174186000Y-126468000D03*
%TD*%
D21*
%TO.C,J2*%
X131586000Y-126068000D03*
D22*
X134126000Y-126068000D03*
X136666000Y-126068000D03*
X139206000Y-126068000D03*
X141746000Y-126068000D03*
X144286000Y-126068000D03*
%TD*%
%TO.C,U3*%
G36*
G01*
X142341000Y-121473000D02*
X142341000Y-121773000D01*
G75*
G02*
X142191000Y-121923000I-150000J0D01*
G01*
X140441000Y-121923000D01*
G75*
G02*
X140291000Y-121773000I0J150000D01*
G01*
X140291000Y-121473000D01*
G75*
G02*
X140441000Y-121323000I150000J0D01*
G01*
X142191000Y-121323000D01*
G75*
G02*
X142341000Y-121473000I0J-150000D01*
G01*
G37*
G36*
G01*
X142341000Y-120203000D02*
X142341000Y-120503000D01*
G75*
G02*
X142191000Y-120653000I-150000J0D01*
G01*
X140441000Y-120653000D01*
G75*
G02*
X140291000Y-120503000I0J150000D01*
G01*
X140291000Y-120203000D01*
G75*
G02*
X140441000Y-120053000I150000J0D01*
G01*
X142191000Y-120053000D01*
G75*
G02*
X142341000Y-120203000I0J-150000D01*
G01*
G37*
G36*
G01*
X142341000Y-118933000D02*
X142341000Y-119233000D01*
G75*
G02*
X142191000Y-119383000I-150000J0D01*
G01*
X140441000Y-119383000D01*
G75*
G02*
X140291000Y-119233000I0J150000D01*
G01*
X140291000Y-118933000D01*
G75*
G02*
X140441000Y-118783000I150000J0D01*
G01*
X142191000Y-118783000D01*
G75*
G02*
X142341000Y-118933000I0J-150000D01*
G01*
G37*
G36*
G01*
X142341000Y-117663000D02*
X142341000Y-117963000D01*
G75*
G02*
X142191000Y-118113000I-150000J0D01*
G01*
X140441000Y-118113000D01*
G75*
G02*
X140291000Y-117963000I0J150000D01*
G01*
X140291000Y-117663000D01*
G75*
G02*
X140441000Y-117513000I150000J0D01*
G01*
X142191000Y-117513000D01*
G75*
G02*
X142341000Y-117663000I0J-150000D01*
G01*
G37*
G36*
G01*
X142341000Y-116393000D02*
X142341000Y-116693000D01*
G75*
G02*
X142191000Y-116843000I-150000J0D01*
G01*
X140441000Y-116843000D01*
G75*
G02*
X140291000Y-116693000I0J150000D01*
G01*
X140291000Y-116393000D01*
G75*
G02*
X140441000Y-116243000I150000J0D01*
G01*
X142191000Y-116243000D01*
G75*
G02*
X142341000Y-116393000I0J-150000D01*
G01*
G37*
G36*
G01*
X142341000Y-115123000D02*
X142341000Y-115423000D01*
G75*
G02*
X142191000Y-115573000I-150000J0D01*
G01*
X140441000Y-115573000D01*
G75*
G02*
X140291000Y-115423000I0J150000D01*
G01*
X140291000Y-115123000D01*
G75*
G02*
X140441000Y-114973000I150000J0D01*
G01*
X142191000Y-114973000D01*
G75*
G02*
X142341000Y-115123000I0J-150000D01*
G01*
G37*
G36*
G01*
X142341000Y-113853000D02*
X142341000Y-114153000D01*
G75*
G02*
X142191000Y-114303000I-150000J0D01*
G01*
X140441000Y-114303000D01*
G75*
G02*
X140291000Y-114153000I0J150000D01*
G01*
X140291000Y-113853000D01*
G75*
G02*
X140441000Y-113703000I150000J0D01*
G01*
X142191000Y-113703000D01*
G75*
G02*
X142341000Y-113853000I0J-150000D01*
G01*
G37*
G36*
G01*
X142341000Y-112583000D02*
X142341000Y-112883000D01*
G75*
G02*
X142191000Y-113033000I-150000J0D01*
G01*
X140441000Y-113033000D01*
G75*
G02*
X140291000Y-112883000I0J150000D01*
G01*
X140291000Y-112583000D01*
G75*
G02*
X140441000Y-112433000I150000J0D01*
G01*
X142191000Y-112433000D01*
G75*
G02*
X142341000Y-112583000I0J-150000D01*
G01*
G37*
G36*
G01*
X142341000Y-111313000D02*
X142341000Y-111613000D01*
G75*
G02*
X142191000Y-111763000I-150000J0D01*
G01*
X140441000Y-111763000D01*
G75*
G02*
X140291000Y-111613000I0J150000D01*
G01*
X140291000Y-111313000D01*
G75*
G02*
X140441000Y-111163000I150000J0D01*
G01*
X142191000Y-111163000D01*
G75*
G02*
X142341000Y-111313000I0J-150000D01*
G01*
G37*
G36*
G01*
X142341000Y-110043000D02*
X142341000Y-110343000D01*
G75*
G02*
X142191000Y-110493000I-150000J0D01*
G01*
X140441000Y-110493000D01*
G75*
G02*
X140291000Y-110343000I0J150000D01*
G01*
X140291000Y-110043000D01*
G75*
G02*
X140441000Y-109893000I150000J0D01*
G01*
X142191000Y-109893000D01*
G75*
G02*
X142341000Y-110043000I0J-150000D01*
G01*
G37*
G36*
G01*
X142341000Y-108773000D02*
X142341000Y-109073000D01*
G75*
G02*
X142191000Y-109223000I-150000J0D01*
G01*
X140441000Y-109223000D01*
G75*
G02*
X140291000Y-109073000I0J150000D01*
G01*
X140291000Y-108773000D01*
G75*
G02*
X140441000Y-108623000I150000J0D01*
G01*
X142191000Y-108623000D01*
G75*
G02*
X142341000Y-108773000I0J-150000D01*
G01*
G37*
G36*
G01*
X142341000Y-107503000D02*
X142341000Y-107803000D01*
G75*
G02*
X142191000Y-107953000I-150000J0D01*
G01*
X140441000Y-107953000D01*
G75*
G02*
X140291000Y-107803000I0J150000D01*
G01*
X140291000Y-107503000D01*
G75*
G02*
X140441000Y-107353000I150000J0D01*
G01*
X142191000Y-107353000D01*
G75*
G02*
X142341000Y-107503000I0J-150000D01*
G01*
G37*
G36*
G01*
X133041000Y-107503000D02*
X133041000Y-107803000D01*
G75*
G02*
X132891000Y-107953000I-150000J0D01*
G01*
X131141000Y-107953000D01*
G75*
G02*
X130991000Y-107803000I0J150000D01*
G01*
X130991000Y-107503000D01*
G75*
G02*
X131141000Y-107353000I150000J0D01*
G01*
X132891000Y-107353000D01*
G75*
G02*
X133041000Y-107503000I0J-150000D01*
G01*
G37*
G36*
G01*
X133041000Y-108773000D02*
X133041000Y-109073000D01*
G75*
G02*
X132891000Y-109223000I-150000J0D01*
G01*
X131141000Y-109223000D01*
G75*
G02*
X130991000Y-109073000I0J150000D01*
G01*
X130991000Y-108773000D01*
G75*
G02*
X131141000Y-108623000I150000J0D01*
G01*
X132891000Y-108623000D01*
G75*
G02*
X133041000Y-108773000I0J-150000D01*
G01*
G37*
G36*
G01*
X133041000Y-110043000D02*
X133041000Y-110343000D01*
G75*
G02*
X132891000Y-110493000I-150000J0D01*
G01*
X131141000Y-110493000D01*
G75*
G02*
X130991000Y-110343000I0J150000D01*
G01*
X130991000Y-110043000D01*
G75*
G02*
X131141000Y-109893000I150000J0D01*
G01*
X132891000Y-109893000D01*
G75*
G02*
X133041000Y-110043000I0J-150000D01*
G01*
G37*
G36*
G01*
X133041000Y-111313000D02*
X133041000Y-111613000D01*
G75*
G02*
X132891000Y-111763000I-150000J0D01*
G01*
X131141000Y-111763000D01*
G75*
G02*
X130991000Y-111613000I0J150000D01*
G01*
X130991000Y-111313000D01*
G75*
G02*
X131141000Y-111163000I150000J0D01*
G01*
X132891000Y-111163000D01*
G75*
G02*
X133041000Y-111313000I0J-150000D01*
G01*
G37*
G36*
G01*
X133041000Y-112583000D02*
X133041000Y-112883000D01*
G75*
G02*
X132891000Y-113033000I-150000J0D01*
G01*
X131141000Y-113033000D01*
G75*
G02*
X130991000Y-112883000I0J150000D01*
G01*
X130991000Y-112583000D01*
G75*
G02*
X131141000Y-112433000I150000J0D01*
G01*
X132891000Y-112433000D01*
G75*
G02*
X133041000Y-112583000I0J-150000D01*
G01*
G37*
G36*
G01*
X133041000Y-113853000D02*
X133041000Y-114153000D01*
G75*
G02*
X132891000Y-114303000I-150000J0D01*
G01*
X131141000Y-114303000D01*
G75*
G02*
X130991000Y-114153000I0J150000D01*
G01*
X130991000Y-113853000D01*
G75*
G02*
X131141000Y-113703000I150000J0D01*
G01*
X132891000Y-113703000D01*
G75*
G02*
X133041000Y-113853000I0J-150000D01*
G01*
G37*
G36*
G01*
X133041000Y-115123000D02*
X133041000Y-115423000D01*
G75*
G02*
X132891000Y-115573000I-150000J0D01*
G01*
X131141000Y-115573000D01*
G75*
G02*
X130991000Y-115423000I0J150000D01*
G01*
X130991000Y-115123000D01*
G75*
G02*
X131141000Y-114973000I150000J0D01*
G01*
X132891000Y-114973000D01*
G75*
G02*
X133041000Y-115123000I0J-150000D01*
G01*
G37*
G36*
G01*
X133041000Y-116393000D02*
X133041000Y-116693000D01*
G75*
G02*
X132891000Y-116843000I-150000J0D01*
G01*
X131141000Y-116843000D01*
G75*
G02*
X130991000Y-116693000I0J150000D01*
G01*
X130991000Y-116393000D01*
G75*
G02*
X131141000Y-116243000I150000J0D01*
G01*
X132891000Y-116243000D01*
G75*
G02*
X133041000Y-116393000I0J-150000D01*
G01*
G37*
G36*
G01*
X133041000Y-117663000D02*
X133041000Y-117963000D01*
G75*
G02*
X132891000Y-118113000I-150000J0D01*
G01*
X131141000Y-118113000D01*
G75*
G02*
X130991000Y-117963000I0J150000D01*
G01*
X130991000Y-117663000D01*
G75*
G02*
X131141000Y-117513000I150000J0D01*
G01*
X132891000Y-117513000D01*
G75*
G02*
X133041000Y-117663000I0J-150000D01*
G01*
G37*
G36*
G01*
X133041000Y-118933000D02*
X133041000Y-119233000D01*
G75*
G02*
X132891000Y-119383000I-150000J0D01*
G01*
X131141000Y-119383000D01*
G75*
G02*
X130991000Y-119233000I0J150000D01*
G01*
X130991000Y-118933000D01*
G75*
G02*
X131141000Y-118783000I150000J0D01*
G01*
X132891000Y-118783000D01*
G75*
G02*
X133041000Y-118933000I0J-150000D01*
G01*
G37*
G36*
G01*
X133041000Y-120203000D02*
X133041000Y-120503000D01*
G75*
G02*
X132891000Y-120653000I-150000J0D01*
G01*
X131141000Y-120653000D01*
G75*
G02*
X130991000Y-120503000I0J150000D01*
G01*
X130991000Y-120203000D01*
G75*
G02*
X131141000Y-120053000I150000J0D01*
G01*
X132891000Y-120053000D01*
G75*
G02*
X133041000Y-120203000I0J-150000D01*
G01*
G37*
G36*
G01*
X133041000Y-121473000D02*
X133041000Y-121773000D01*
G75*
G02*
X132891000Y-121923000I-150000J0D01*
G01*
X131141000Y-121923000D01*
G75*
G02*
X130991000Y-121773000I0J150000D01*
G01*
X130991000Y-121473000D01*
G75*
G02*
X131141000Y-121323000I150000J0D01*
G01*
X132891000Y-121323000D01*
G75*
G02*
X133041000Y-121473000I0J-150000D01*
G01*
G37*
%TD*%
D12*
%TO.C,SW19*%
X214757000Y-113919000D03*
D11*
X222377000Y-129159000D03*
X214757000Y-116459000D03*
X222377000Y-126619000D03*
X214757000Y-118999000D03*
X222377000Y-124079000D03*
X214757000Y-121539000D03*
X222377000Y-121539000D03*
X214757000Y-124079000D03*
X222377000Y-118999000D03*
X214757000Y-126619000D03*
X222377000Y-116459000D03*
X214757000Y-129159000D03*
X222377000Y-113919000D03*
%TD*%
D14*
%TO.C,SW18*%
X85612000Y-63177600D03*
X85612000Y-58021400D03*
%TD*%
%TO.C,SW17*%
X85612000Y-75877600D03*
X85612000Y-70721400D03*
%TD*%
%TO.C,SW16*%
X85612000Y-88577600D03*
X85612000Y-83421400D03*
%TD*%
%TO.C,SW15*%
X74182000Y-63177600D03*
X74182000Y-58021400D03*
%TD*%
%TO.C,SW14*%
X74182000Y-75877600D03*
X74182000Y-70721400D03*
%TD*%
%TO.C,SW13*%
X74182000Y-88577600D03*
X74182000Y-83421400D03*
%TD*%
%TO.C,SW12*%
X62752000Y-63177600D03*
X62752000Y-58021400D03*
%TD*%
%TO.C,SW11*%
X62752000Y-75877600D03*
X62752000Y-70721400D03*
%TD*%
%TO.C,SW10*%
X62752000Y-88577600D03*
X62752000Y-83421400D03*
%TD*%
D12*
%TO.C,RN3*%
X209218000Y-131607000D03*
D11*
X209218000Y-129067000D03*
X209218000Y-126527000D03*
X209218000Y-123987000D03*
X209218000Y-121447000D03*
X209218000Y-118907000D03*
X209218000Y-116367000D03*
X209218000Y-113827000D03*
X209218000Y-111287000D03*
X209218000Y-108747000D03*
%TD*%
D12*
%TO.C,RN2*%
X60466000Y-96858000D03*
D11*
X63006000Y-96858000D03*
X65546000Y-96858000D03*
X68086000Y-96858000D03*
X70626000Y-96858000D03*
X73166000Y-96858000D03*
X75706000Y-96858000D03*
X78246000Y-96858000D03*
X80786000Y-96858000D03*
X83326000Y-96858000D03*
%TD*%
D10*
%TO.C,R1*%
X155136000Y-126468000D03*
D11*
X162756000Y-126468000D03*
%TD*%
%TO.C,U2*%
G36*
G01*
X184251000Y-121473000D02*
X184251000Y-121773000D01*
G75*
G02*
X184101000Y-121923000I-150000J0D01*
G01*
X182351000Y-121923000D01*
G75*
G02*
X182201000Y-121773000I0J150000D01*
G01*
X182201000Y-121473000D01*
G75*
G02*
X182351000Y-121323000I150000J0D01*
G01*
X184101000Y-121323000D01*
G75*
G02*
X184251000Y-121473000I0J-150000D01*
G01*
G37*
G36*
G01*
X184251000Y-120203000D02*
X184251000Y-120503000D01*
G75*
G02*
X184101000Y-120653000I-150000J0D01*
G01*
X182351000Y-120653000D01*
G75*
G02*
X182201000Y-120503000I0J150000D01*
G01*
X182201000Y-120203000D01*
G75*
G02*
X182351000Y-120053000I150000J0D01*
G01*
X184101000Y-120053000D01*
G75*
G02*
X184251000Y-120203000I0J-150000D01*
G01*
G37*
G36*
G01*
X184251000Y-118933000D02*
X184251000Y-119233000D01*
G75*
G02*
X184101000Y-119383000I-150000J0D01*
G01*
X182351000Y-119383000D01*
G75*
G02*
X182201000Y-119233000I0J150000D01*
G01*
X182201000Y-118933000D01*
G75*
G02*
X182351000Y-118783000I150000J0D01*
G01*
X184101000Y-118783000D01*
G75*
G02*
X184251000Y-118933000I0J-150000D01*
G01*
G37*
G36*
G01*
X184251000Y-117663000D02*
X184251000Y-117963000D01*
G75*
G02*
X184101000Y-118113000I-150000J0D01*
G01*
X182351000Y-118113000D01*
G75*
G02*
X182201000Y-117963000I0J150000D01*
G01*
X182201000Y-117663000D01*
G75*
G02*
X182351000Y-117513000I150000J0D01*
G01*
X184101000Y-117513000D01*
G75*
G02*
X184251000Y-117663000I0J-150000D01*
G01*
G37*
G36*
G01*
X184251000Y-116393000D02*
X184251000Y-116693000D01*
G75*
G02*
X184101000Y-116843000I-150000J0D01*
G01*
X182351000Y-116843000D01*
G75*
G02*
X182201000Y-116693000I0J150000D01*
G01*
X182201000Y-116393000D01*
G75*
G02*
X182351000Y-116243000I150000J0D01*
G01*
X184101000Y-116243000D01*
G75*
G02*
X184251000Y-116393000I0J-150000D01*
G01*
G37*
G36*
G01*
X184251000Y-115123000D02*
X184251000Y-115423000D01*
G75*
G02*
X184101000Y-115573000I-150000J0D01*
G01*
X182351000Y-115573000D01*
G75*
G02*
X182201000Y-115423000I0J150000D01*
G01*
X182201000Y-115123000D01*
G75*
G02*
X182351000Y-114973000I150000J0D01*
G01*
X184101000Y-114973000D01*
G75*
G02*
X184251000Y-115123000I0J-150000D01*
G01*
G37*
G36*
G01*
X184251000Y-113853000D02*
X184251000Y-114153000D01*
G75*
G02*
X184101000Y-114303000I-150000J0D01*
G01*
X182351000Y-114303000D01*
G75*
G02*
X182201000Y-114153000I0J150000D01*
G01*
X182201000Y-113853000D01*
G75*
G02*
X182351000Y-113703000I150000J0D01*
G01*
X184101000Y-113703000D01*
G75*
G02*
X184251000Y-113853000I0J-150000D01*
G01*
G37*
G36*
G01*
X184251000Y-112583000D02*
X184251000Y-112883000D01*
G75*
G02*
X184101000Y-113033000I-150000J0D01*
G01*
X182351000Y-113033000D01*
G75*
G02*
X182201000Y-112883000I0J150000D01*
G01*
X182201000Y-112583000D01*
G75*
G02*
X182351000Y-112433000I150000J0D01*
G01*
X184101000Y-112433000D01*
G75*
G02*
X184251000Y-112583000I0J-150000D01*
G01*
G37*
G36*
G01*
X184251000Y-111313000D02*
X184251000Y-111613000D01*
G75*
G02*
X184101000Y-111763000I-150000J0D01*
G01*
X182351000Y-111763000D01*
G75*
G02*
X182201000Y-111613000I0J150000D01*
G01*
X182201000Y-111313000D01*
G75*
G02*
X182351000Y-111163000I150000J0D01*
G01*
X184101000Y-111163000D01*
G75*
G02*
X184251000Y-111313000I0J-150000D01*
G01*
G37*
G36*
G01*
X184251000Y-110043000D02*
X184251000Y-110343000D01*
G75*
G02*
X184101000Y-110493000I-150000J0D01*
G01*
X182351000Y-110493000D01*
G75*
G02*
X182201000Y-110343000I0J150000D01*
G01*
X182201000Y-110043000D01*
G75*
G02*
X182351000Y-109893000I150000J0D01*
G01*
X184101000Y-109893000D01*
G75*
G02*
X184251000Y-110043000I0J-150000D01*
G01*
G37*
G36*
G01*
X184251000Y-108773000D02*
X184251000Y-109073000D01*
G75*
G02*
X184101000Y-109223000I-150000J0D01*
G01*
X182351000Y-109223000D01*
G75*
G02*
X182201000Y-109073000I0J150000D01*
G01*
X182201000Y-108773000D01*
G75*
G02*
X182351000Y-108623000I150000J0D01*
G01*
X184101000Y-108623000D01*
G75*
G02*
X184251000Y-108773000I0J-150000D01*
G01*
G37*
G36*
G01*
X184251000Y-107503000D02*
X184251000Y-107803000D01*
G75*
G02*
X184101000Y-107953000I-150000J0D01*
G01*
X182351000Y-107953000D01*
G75*
G02*
X182201000Y-107803000I0J150000D01*
G01*
X182201000Y-107503000D01*
G75*
G02*
X182351000Y-107353000I150000J0D01*
G01*
X184101000Y-107353000D01*
G75*
G02*
X184251000Y-107503000I0J-150000D01*
G01*
G37*
G36*
G01*
X174951000Y-107503000D02*
X174951000Y-107803000D01*
G75*
G02*
X174801000Y-107953000I-150000J0D01*
G01*
X173051000Y-107953000D01*
G75*
G02*
X172901000Y-107803000I0J150000D01*
G01*
X172901000Y-107503000D01*
G75*
G02*
X173051000Y-107353000I150000J0D01*
G01*
X174801000Y-107353000D01*
G75*
G02*
X174951000Y-107503000I0J-150000D01*
G01*
G37*
G36*
G01*
X174951000Y-108773000D02*
X174951000Y-109073000D01*
G75*
G02*
X174801000Y-109223000I-150000J0D01*
G01*
X173051000Y-109223000D01*
G75*
G02*
X172901000Y-109073000I0J150000D01*
G01*
X172901000Y-108773000D01*
G75*
G02*
X173051000Y-108623000I150000J0D01*
G01*
X174801000Y-108623000D01*
G75*
G02*
X174951000Y-108773000I0J-150000D01*
G01*
G37*
G36*
G01*
X174951000Y-110043000D02*
X174951000Y-110343000D01*
G75*
G02*
X174801000Y-110493000I-150000J0D01*
G01*
X173051000Y-110493000D01*
G75*
G02*
X172901000Y-110343000I0J150000D01*
G01*
X172901000Y-110043000D01*
G75*
G02*
X173051000Y-109893000I150000J0D01*
G01*
X174801000Y-109893000D01*
G75*
G02*
X174951000Y-110043000I0J-150000D01*
G01*
G37*
G36*
G01*
X174951000Y-111313000D02*
X174951000Y-111613000D01*
G75*
G02*
X174801000Y-111763000I-150000J0D01*
G01*
X173051000Y-111763000D01*
G75*
G02*
X172901000Y-111613000I0J150000D01*
G01*
X172901000Y-111313000D01*
G75*
G02*
X173051000Y-111163000I150000J0D01*
G01*
X174801000Y-111163000D01*
G75*
G02*
X174951000Y-111313000I0J-150000D01*
G01*
G37*
G36*
G01*
X174951000Y-112583000D02*
X174951000Y-112883000D01*
G75*
G02*
X174801000Y-113033000I-150000J0D01*
G01*
X173051000Y-113033000D01*
G75*
G02*
X172901000Y-112883000I0J150000D01*
G01*
X172901000Y-112583000D01*
G75*
G02*
X173051000Y-112433000I150000J0D01*
G01*
X174801000Y-112433000D01*
G75*
G02*
X174951000Y-112583000I0J-150000D01*
G01*
G37*
G36*
G01*
X174951000Y-113853000D02*
X174951000Y-114153000D01*
G75*
G02*
X174801000Y-114303000I-150000J0D01*
G01*
X173051000Y-114303000D01*
G75*
G02*
X172901000Y-114153000I0J150000D01*
G01*
X172901000Y-113853000D01*
G75*
G02*
X173051000Y-113703000I150000J0D01*
G01*
X174801000Y-113703000D01*
G75*
G02*
X174951000Y-113853000I0J-150000D01*
G01*
G37*
G36*
G01*
X174951000Y-115123000D02*
X174951000Y-115423000D01*
G75*
G02*
X174801000Y-115573000I-150000J0D01*
G01*
X173051000Y-115573000D01*
G75*
G02*
X172901000Y-115423000I0J150000D01*
G01*
X172901000Y-115123000D01*
G75*
G02*
X173051000Y-114973000I150000J0D01*
G01*
X174801000Y-114973000D01*
G75*
G02*
X174951000Y-115123000I0J-150000D01*
G01*
G37*
G36*
G01*
X174951000Y-116393000D02*
X174951000Y-116693000D01*
G75*
G02*
X174801000Y-116843000I-150000J0D01*
G01*
X173051000Y-116843000D01*
G75*
G02*
X172901000Y-116693000I0J150000D01*
G01*
X172901000Y-116393000D01*
G75*
G02*
X173051000Y-116243000I150000J0D01*
G01*
X174801000Y-116243000D01*
G75*
G02*
X174951000Y-116393000I0J-150000D01*
G01*
G37*
G36*
G01*
X174951000Y-117663000D02*
X174951000Y-117963000D01*
G75*
G02*
X174801000Y-118113000I-150000J0D01*
G01*
X173051000Y-118113000D01*
G75*
G02*
X172901000Y-117963000I0J150000D01*
G01*
X172901000Y-117663000D01*
G75*
G02*
X173051000Y-117513000I150000J0D01*
G01*
X174801000Y-117513000D01*
G75*
G02*
X174951000Y-117663000I0J-150000D01*
G01*
G37*
G36*
G01*
X174951000Y-118933000D02*
X174951000Y-119233000D01*
G75*
G02*
X174801000Y-119383000I-150000J0D01*
G01*
X173051000Y-119383000D01*
G75*
G02*
X172901000Y-119233000I0J150000D01*
G01*
X172901000Y-118933000D01*
G75*
G02*
X173051000Y-118783000I150000J0D01*
G01*
X174801000Y-118783000D01*
G75*
G02*
X174951000Y-118933000I0J-150000D01*
G01*
G37*
G36*
G01*
X174951000Y-120203000D02*
X174951000Y-120503000D01*
G75*
G02*
X174801000Y-120653000I-150000J0D01*
G01*
X173051000Y-120653000D01*
G75*
G02*
X172901000Y-120503000I0J150000D01*
G01*
X172901000Y-120203000D01*
G75*
G02*
X173051000Y-120053000I150000J0D01*
G01*
X174801000Y-120053000D01*
G75*
G02*
X174951000Y-120203000I0J-150000D01*
G01*
G37*
G36*
G01*
X174951000Y-121473000D02*
X174951000Y-121773000D01*
G75*
G02*
X174801000Y-121923000I-150000J0D01*
G01*
X173051000Y-121923000D01*
G75*
G02*
X172901000Y-121773000I0J150000D01*
G01*
X172901000Y-121473000D01*
G75*
G02*
X173051000Y-121323000I150000J0D01*
G01*
X174801000Y-121323000D01*
G75*
G02*
X174951000Y-121473000I0J-150000D01*
G01*
G37*
%TD*%
D22*
%TO.C,U1*%
X59196000Y-126068000D03*
X61736000Y-126068000D03*
D21*
X64276000Y-126068000D03*
D22*
X66816000Y-126068000D03*
X69356000Y-126068000D03*
X71896000Y-126068000D03*
X74436000Y-126068000D03*
D21*
X76976000Y-126068000D03*
D22*
X79516000Y-126068000D03*
X82056000Y-126068000D03*
X84596000Y-126068000D03*
X87136000Y-126068000D03*
D21*
X89676000Y-126068000D03*
D22*
X92216000Y-126068000D03*
X94756000Y-126068000D03*
X97296000Y-126068000D03*
X99836000Y-126068000D03*
D21*
X102376000Y-126068000D03*
D22*
X104916000Y-126068000D03*
X107456000Y-126068000D03*
X107456000Y-108288000D03*
X104916000Y-108288000D03*
D21*
X102376000Y-108288000D03*
D22*
X99836000Y-108288000D03*
X97296000Y-108288000D03*
X94756000Y-108288000D03*
X92216000Y-108288000D03*
D21*
X89676000Y-108288000D03*
D22*
X87136000Y-108288000D03*
X84596000Y-108288000D03*
X82056000Y-108288000D03*
X79516000Y-108288000D03*
D21*
X76976000Y-108288000D03*
D22*
X74436000Y-108288000D03*
X71896000Y-108288000D03*
X69356000Y-108288000D03*
X66816000Y-108288000D03*
D21*
X64276000Y-108288000D03*
D22*
X61736000Y-108288000D03*
X59196000Y-108288000D03*
D23*
X59196000Y-126968000D03*
X61736000Y-126968000D03*
X64276000Y-126968000D03*
X66816000Y-126968000D03*
X69356000Y-126968000D03*
X71896000Y-126968000D03*
X74436000Y-126968000D03*
X76976000Y-126968000D03*
X79516000Y-126968000D03*
X82056000Y-126968000D03*
X84596000Y-126968000D03*
X87136000Y-126968000D03*
X89676000Y-126968000D03*
X92216000Y-126968000D03*
X94756000Y-126968000D03*
X97296000Y-126968000D03*
X99836000Y-126968000D03*
X102376000Y-126968000D03*
X104916000Y-126968000D03*
X107456000Y-126968000D03*
X59196000Y-107388000D03*
X61736000Y-107388000D03*
X64276000Y-107388000D03*
X66816000Y-107388000D03*
X69356000Y-107388000D03*
X71896000Y-107388000D03*
X74436000Y-107388000D03*
X76976000Y-107388000D03*
X79516000Y-107388000D03*
X82056000Y-107388000D03*
X84596000Y-107388000D03*
X87136000Y-107388000D03*
X89676000Y-107388000D03*
X92216000Y-107388000D03*
X94756000Y-107388000D03*
X97296000Y-107388000D03*
X99836000Y-107388000D03*
X102376000Y-107388000D03*
X104916000Y-107388000D03*
X107456000Y-107388000D03*
D24*
X59326000Y-119903000D03*
X59326000Y-114453000D03*
D25*
X62356000Y-119603000D03*
X62356000Y-114753000D03*
D26*
X108126000Y-119718000D03*
D22*
X107226000Y-119718000D03*
D26*
X108126000Y-117178000D03*
D21*
X107226000Y-117178000D03*
D26*
X108126000Y-114638000D03*
D22*
X107226000Y-114638000D03*
%TD*%
D14*
%TO.C,SW9*%
X245632000Y-63177600D03*
X245632000Y-58021400D03*
%TD*%
%TO.C,SW8*%
X245632000Y-75877600D03*
X245632000Y-70721400D03*
%TD*%
%TO.C,SW7*%
X245632000Y-88577600D03*
X245632000Y-83421400D03*
%TD*%
%TO.C,SW6*%
X234202000Y-63177600D03*
X234202000Y-58021400D03*
%TD*%
%TO.C,SW5*%
X234202000Y-75877600D03*
X234202000Y-70721400D03*
%TD*%
%TO.C,SW4*%
X234202000Y-88577600D03*
X234202000Y-83421400D03*
%TD*%
%TO.C,SW3*%
X222772000Y-63177600D03*
X222772000Y-58021400D03*
%TD*%
%TO.C,SW2*%
X222772000Y-75877600D03*
X222772000Y-70721400D03*
%TD*%
%TO.C,SW1*%
X222772000Y-88577600D03*
X222772000Y-83421400D03*
%TD*%
D27*
%TO.C,RV2*%
X210326000Y-90508000D03*
D28*
X213826000Y-90508000D03*
X210326000Y-57508000D03*
D29*
X207876000Y-85408000D03*
X207876000Y-62608000D03*
X216276000Y-86608000D03*
X216276000Y-61408000D03*
%TD*%
D27*
%TO.C,RV1*%
X94756000Y-90508000D03*
D28*
X98256000Y-90508000D03*
X94756000Y-57508000D03*
D29*
X92306000Y-85408000D03*
X92306000Y-62608000D03*
X100706000Y-86608000D03*
X100706000Y-61408000D03*
%TD*%
D12*
%TO.C,RN1*%
X220486000Y-96858000D03*
D11*
X223026000Y-96858000D03*
X225566000Y-96858000D03*
X228106000Y-96858000D03*
X230646000Y-96858000D03*
X233186000Y-96858000D03*
X235726000Y-96858000D03*
X238266000Y-96858000D03*
X240806000Y-96858000D03*
X243346000Y-96858000D03*
%TD*%
D30*
%TO.C,J1*%
X126226000Y-118908000D03*
D31*
X121426000Y-121708000D03*
D32*
X121426000Y-115908000D03*
%TD*%
D33*
%TO.C,D1*%
X113333000Y-123479000D03*
D34*
X113333000Y-115859000D03*
%TD*%
M02*
