%TF.GenerationSoftware,KiCad,Pcbnew,(5.1.10)-1*%
%TF.CreationDate,2021-07-06T19:30:30-04:00*%
%TF.ProjectId,RICM_pico,5249434d-5f70-4696-936f-2e6b69636164,rev?*%
%TF.SameCoordinates,Original*%
%TF.FileFunction,Soldermask,Bot*%
%TF.FilePolarity,Negative*%
%FSLAX46Y46*%
G04 Gerber Fmt 4.6, Leading zero omitted, Abs format (unit mm)*
G04 Created by KiCad (PCBNEW (5.1.10)-1) date 2021-07-06 19:30:30*
%MOMM*%
%LPD*%
G01*
G04 APERTURE LIST*
%ADD10R,1.800000X1.800000*%
%ADD11C,1.800000*%
%ADD12C,1.600000*%
%ADD13O,1.600000X1.600000*%
%ADD14R,1.700000X1.700000*%
%ADD15O,1.700000X1.700000*%
%ADD16R,1.600000X1.600000*%
%ADD17C,2.000000*%
%ADD18O,1.800000X1.800000*%
%ADD19O,1.500000X1.500000*%
%ADD20R,1.750000X1.750000*%
%ADD21C,1.750000*%
%ADD22C,2.700000*%
%ADD23R,2.000000X2.000000*%
%ADD24O,4.000000X1.800000*%
%ADD25O,1.800000X4.000000*%
%ADD26R,1.800000X4.400000*%
%ADD27R,2.200000X2.200000*%
%ADD28O,2.200000X2.200000*%
G04 APERTURE END LIST*
D10*
%TO.C,D10*%
X78740000Y-109220000D03*
D11*
X81280000Y-109220000D03*
X83820000Y-109220000D03*
X76200000Y-109220000D03*
%TD*%
D10*
%TO.C,D9*%
X66040000Y-109220000D03*
D11*
X68580000Y-109220000D03*
X71120000Y-109220000D03*
X63500000Y-109220000D03*
%TD*%
D10*
%TO.C,D8*%
X53340000Y-109220000D03*
D11*
X55880000Y-109220000D03*
X58420000Y-109220000D03*
X50800000Y-109220000D03*
%TD*%
D10*
%TO.C,D7*%
X78740000Y-96520000D03*
D11*
X81280000Y-96520000D03*
X83820000Y-96520000D03*
X76200000Y-96520000D03*
%TD*%
D10*
%TO.C,D6*%
X66040000Y-96520000D03*
D11*
X68580000Y-96520000D03*
X71120000Y-96520000D03*
X63500000Y-96520000D03*
%TD*%
D10*
%TO.C,D5*%
X53340000Y-96520000D03*
D11*
X55880000Y-96520000D03*
X58420000Y-96520000D03*
X50800000Y-96520000D03*
%TD*%
D10*
%TO.C,D4*%
X78740000Y-83820000D03*
D11*
X81280000Y-83820000D03*
X83820000Y-83820000D03*
X76200000Y-83820000D03*
%TD*%
D10*
%TO.C,D3*%
X66040000Y-83820000D03*
D11*
X68580000Y-83820000D03*
X71120000Y-83820000D03*
X63500000Y-83820000D03*
%TD*%
D10*
%TO.C,D2*%
X53340000Y-83820000D03*
D11*
X55880000Y-83820000D03*
X58420000Y-83820000D03*
X50800000Y-83820000D03*
%TD*%
D12*
%TO.C,R2*%
X15240000Y-116840000D03*
D13*
X15240000Y-124460000D03*
%TD*%
D14*
%TO.C,J2*%
X15240000Y-86360000D03*
D15*
X15240000Y-88900000D03*
X15240000Y-91440000D03*
X15240000Y-93980000D03*
X15240000Y-96520000D03*
X15240000Y-99060000D03*
%TD*%
D16*
%TO.C,SW19*%
X21590000Y-162560000D03*
D13*
X29210000Y-177800000D03*
X21590000Y-165100000D03*
X29210000Y-175260000D03*
X21590000Y-167640000D03*
X29210000Y-172720000D03*
X21590000Y-170180000D03*
X29210000Y-170180000D03*
X21590000Y-172720000D03*
X29210000Y-167640000D03*
X21590000Y-175260000D03*
X29210000Y-165100000D03*
X21590000Y-177800000D03*
X29210000Y-162560000D03*
%TD*%
D17*
%TO.C,SW18*%
X77470000Y-53340000D03*
X83820000Y-53340000D03*
%TD*%
%TO.C,SW17*%
X77470000Y-41910000D03*
X83820000Y-41910000D03*
%TD*%
%TO.C,SW16*%
X77470000Y-30480000D03*
X83820000Y-30480000D03*
%TD*%
%TO.C,SW15*%
X64770000Y-53340000D03*
X71120000Y-53340000D03*
%TD*%
%TO.C,SW14*%
X64770000Y-41910000D03*
X71120000Y-41910000D03*
%TD*%
%TO.C,SW13*%
X64770000Y-30480000D03*
X71120000Y-30480000D03*
%TD*%
%TO.C,SW12*%
X52070000Y-53340000D03*
X58420000Y-53340000D03*
%TD*%
%TO.C,SW11*%
X52070000Y-41910000D03*
X58420000Y-41910000D03*
%TD*%
%TO.C,SW10*%
X52070000Y-30480000D03*
X58420000Y-30480000D03*
%TD*%
D16*
%TO.C,RN4*%
X44450000Y-85090000D03*
D13*
X44450000Y-87630000D03*
X44450000Y-90170000D03*
X44450000Y-92710000D03*
X44450000Y-95250000D03*
X44450000Y-97790000D03*
X44450000Y-100330000D03*
X44450000Y-102870000D03*
X44450000Y-105410000D03*
X44450000Y-107950000D03*
%TD*%
D16*
%TO.C,RN3*%
X15240000Y-182880000D03*
D13*
X15240000Y-180340000D03*
X15240000Y-177800000D03*
X15240000Y-175260000D03*
X15240000Y-172720000D03*
X15240000Y-170180000D03*
X15240000Y-167640000D03*
X15240000Y-165100000D03*
X15240000Y-162560000D03*
X15240000Y-160020000D03*
%TD*%
D16*
%TO.C,RN2*%
X44450000Y-27940000D03*
D13*
X44450000Y-30480000D03*
X44450000Y-33020000D03*
X44450000Y-35560000D03*
X44450000Y-38100000D03*
X44450000Y-40640000D03*
X44450000Y-43180000D03*
X44450000Y-45720000D03*
X44450000Y-48260000D03*
X44450000Y-50800000D03*
%TD*%
D12*
%TO.C,R1*%
X15240000Y-105410000D03*
D13*
X15240000Y-113030000D03*
%TD*%
D15*
%TO.C,U1*%
X15240000Y-13970000D03*
X15240000Y-16510000D03*
D14*
X15240000Y-19050000D03*
D15*
X15240000Y-21590000D03*
X15240000Y-24130000D03*
X15240000Y-26670000D03*
X15240000Y-29210000D03*
D14*
X15240000Y-31750000D03*
D15*
X15240000Y-34290000D03*
X15240000Y-36830000D03*
X15240000Y-39370000D03*
X15240000Y-41910000D03*
D14*
X15240000Y-44450000D03*
D15*
X15240000Y-46990000D03*
X15240000Y-49530000D03*
X15240000Y-52070000D03*
X15240000Y-54610000D03*
D14*
X15240000Y-57150000D03*
D15*
X15240000Y-59690000D03*
X15240000Y-62230000D03*
X33020000Y-62230000D03*
X33020000Y-59690000D03*
D14*
X33020000Y-57150000D03*
D15*
X33020000Y-54610000D03*
X33020000Y-52070000D03*
X33020000Y-49530000D03*
X33020000Y-46990000D03*
D14*
X33020000Y-44450000D03*
D15*
X33020000Y-41910000D03*
X33020000Y-39370000D03*
X33020000Y-36830000D03*
X33020000Y-34290000D03*
D14*
X33020000Y-31750000D03*
D15*
X33020000Y-29210000D03*
X33020000Y-26670000D03*
X33020000Y-24130000D03*
X33020000Y-21590000D03*
D14*
X33020000Y-19050000D03*
D15*
X33020000Y-16510000D03*
X33020000Y-13970000D03*
D18*
X21405000Y-14100000D03*
X26855000Y-14100000D03*
D19*
X21705000Y-17130000D03*
X26555000Y-17130000D03*
D15*
X21590000Y-62000000D03*
D14*
X24130000Y-62000000D03*
D15*
X26670000Y-62000000D03*
%TD*%
D17*
%TO.C,SW9*%
X77470000Y-170180000D03*
X83820000Y-170180000D03*
%TD*%
%TO.C,SW8*%
X77470000Y-158750000D03*
X83820000Y-158750000D03*
%TD*%
%TO.C,SW7*%
X83820000Y-147320000D03*
X77470000Y-147320000D03*
%TD*%
%TO.C,SW6*%
X64770000Y-170180000D03*
X71120000Y-170180000D03*
%TD*%
%TO.C,SW5*%
X64770000Y-158750000D03*
X71120000Y-158750000D03*
%TD*%
%TO.C,SW4*%
X64770000Y-147320000D03*
X71120000Y-147320000D03*
%TD*%
%TO.C,SW3*%
X52070000Y-170180000D03*
X58420000Y-170180000D03*
%TD*%
%TO.C,SW2*%
X52070000Y-158750000D03*
X58420000Y-158750000D03*
%TD*%
%TO.C,SW1*%
X52070000Y-147320000D03*
X58420000Y-147320000D03*
%TD*%
D20*
%TO.C,RV2*%
X48260000Y-180340000D03*
D21*
X48260000Y-183840000D03*
X81260000Y-180340000D03*
D22*
X53360000Y-177890000D03*
X76160000Y-177890000D03*
X52160000Y-186290000D03*
X77360000Y-186290000D03*
%TD*%
D20*
%TO.C,RV1*%
X48260000Y-16510000D03*
D21*
X48260000Y-20010000D03*
X81260000Y-16510000D03*
D22*
X53360000Y-14060000D03*
X76160000Y-14060000D03*
X52160000Y-22460000D03*
X77360000Y-22460000D03*
%TD*%
D16*
%TO.C,RN1*%
X44450000Y-144780000D03*
D13*
X44450000Y-147320000D03*
X44450000Y-149860000D03*
X44450000Y-152400000D03*
X44450000Y-154940000D03*
X44450000Y-157480000D03*
X44450000Y-160020000D03*
X44450000Y-162560000D03*
X44450000Y-165100000D03*
X44450000Y-167640000D03*
%TD*%
D23*
%TO.C,LS1*%
X20320000Y-154940000D03*
D17*
X20320000Y-147340000D03*
%TD*%
D24*
%TO.C,J1*%
X22400000Y-81000000D03*
D25*
X19600000Y-76200000D03*
D26*
X25400000Y-76200000D03*
%TD*%
D27*
%TO.C,D1*%
X31750000Y-72390000D03*
D28*
X31750000Y-80010000D03*
%TD*%
M02*
