%TF.GenerationSoftware,KiCad,Pcbnew,(5.1.10)-1*%
%TF.CreationDate,2021-07-12T12:41:50-04:00*%
%TF.ProjectId,RICM_pico,5249434d-5f70-4696-936f-2e6b69636164,rev?*%
%TF.SameCoordinates,Original*%
%TF.FileFunction,Copper,L1,Top*%
%TF.FilePolarity,Positive*%
%FSLAX46Y46*%
G04 Gerber Fmt 4.6, Leading zero omitted, Abs format (unit mm)*
G04 Created by KiCad (PCBNEW (5.1.10)-1) date 2021-07-12 12:41:50*
%MOMM*%
%LPD*%
G01*
G04 APERTURE LIST*
%ADD10C,0.100000*%
%ADD11C,0.150000*%
%ADD12C,0.300000*%
%ADD13C,0.400000*%
%TA.AperFunction,Profile*%
%ADD14C,0.150000*%
%TD*%
%TA.AperFunction,ComponentPad*%
%ADD15C,1.524000*%
%TD*%
%TA.AperFunction,ComponentPad*%
%ADD16C,1.600000*%
%TD*%
%TA.AperFunction,ComponentPad*%
%ADD17R,1.800000X1.800000*%
%TD*%
%TA.AperFunction,ComponentPad*%
%ADD18C,1.800000*%
%TD*%
%TA.AperFunction,ComponentPad*%
%ADD19O,1.600000X1.600000*%
%TD*%
%TA.AperFunction,ComponentPad*%
%ADD20R,1.600000X1.600000*%
%TD*%
%TA.AperFunction,ComponentPad*%
%ADD21R,2.000000X2.000000*%
%TD*%
%TA.AperFunction,ComponentPad*%
%ADD22C,2.000000*%
%TD*%
%TA.AperFunction,ComponentPad*%
%ADD23C,2.750000*%
%TD*%
%TA.AperFunction,ComponentPad*%
%ADD24R,1.700000X1.700000*%
%TD*%
%TA.AperFunction,ComponentPad*%
%ADD25O,1.700000X1.700000*%
%TD*%
%TA.AperFunction,SMDPad,CuDef*%
%ADD26R,1.700000X3.500000*%
%TD*%
%TA.AperFunction,SMDPad,CuDef*%
%ADD27R,3.500000X1.700000*%
%TD*%
%TA.AperFunction,ComponentPad*%
%ADD28R,1.750000X1.750000*%
%TD*%
%TA.AperFunction,ComponentPad*%
%ADD29C,1.750000*%
%TD*%
%TA.AperFunction,ComponentPad*%
%ADD30C,2.700000*%
%TD*%
%TA.AperFunction,ViaPad*%
%ADD31C,4.000000*%
%TD*%
%TA.AperFunction,ViaPad*%
%ADD32C,0.800000*%
%TD*%
%TA.AperFunction,Conductor*%
%ADD33C,1.000000*%
%TD*%
%TA.AperFunction,Conductor*%
%ADD34C,0.500000*%
%TD*%
%TA.AperFunction,Conductor*%
%ADD35C,0.250000*%
%TD*%
G04 APERTURE END LIST*
D10*
D11*
X177002200Y-166007200D02*
X177002200Y-198007200D01*
X285002200Y-198007200D01*
X285002200Y-166007200D01*
X177002200Y-166007200D01*
D10*
D11*
X10000000Y-10000000D02*
X10000000Y-200007200D01*
X287002200Y-200007200D01*
X287002200Y-10000000D01*
X10000000Y-10000000D01*
D10*
D11*
X12000000Y-12000000D02*
X12000000Y-198007200D01*
X285002200Y-198007200D01*
X285002200Y-12000000D01*
X12000000Y-12000000D01*
D10*
D11*
X60000000Y-12000000D02*
X60000000Y-10000000D01*
D10*
D11*
X110000000Y-12000000D02*
X110000000Y-10000000D01*
D10*
D11*
X160000000Y-12000000D02*
X160000000Y-10000000D01*
D10*
D11*
X210000000Y-12000000D02*
X210000000Y-10000000D01*
D10*
D11*
X260000000Y-12000000D02*
X260000000Y-10000000D01*
D10*
D11*
X36065476Y-11588095D02*
X35322619Y-11588095D01*
X35694047Y-11588095D02*
X35694047Y-10288095D01*
X35570238Y-10473809D01*
X35446428Y-10597619D01*
X35322619Y-10659523D01*
D10*
D11*
X85322619Y-10411904D02*
X85384523Y-10350000D01*
X85508333Y-10288095D01*
X85817857Y-10288095D01*
X85941666Y-10350000D01*
X86003571Y-10411904D01*
X86065476Y-10535714D01*
X86065476Y-10659523D01*
X86003571Y-10845238D01*
X85260714Y-11588095D01*
X86065476Y-11588095D01*
D10*
D11*
X135260714Y-10288095D02*
X136065476Y-10288095D01*
X135632142Y-10783333D01*
X135817857Y-10783333D01*
X135941666Y-10845238D01*
X136003571Y-10907142D01*
X136065476Y-11030952D01*
X136065476Y-11340476D01*
X136003571Y-11464285D01*
X135941666Y-11526190D01*
X135817857Y-11588095D01*
X135446428Y-11588095D01*
X135322619Y-11526190D01*
X135260714Y-11464285D01*
D10*
D11*
X185941666Y-10721428D02*
X185941666Y-11588095D01*
X185632142Y-10226190D02*
X185322619Y-11154761D01*
X186127380Y-11154761D01*
D10*
D11*
X236003571Y-10288095D02*
X235384523Y-10288095D01*
X235322619Y-10907142D01*
X235384523Y-10845238D01*
X235508333Y-10783333D01*
X235817857Y-10783333D01*
X235941666Y-10845238D01*
X236003571Y-10907142D01*
X236065476Y-11030952D01*
X236065476Y-11340476D01*
X236003571Y-11464285D01*
X235941666Y-11526190D01*
X235817857Y-11588095D01*
X235508333Y-11588095D01*
X235384523Y-11526190D01*
X235322619Y-11464285D01*
D10*
D11*
X285941666Y-10288095D02*
X285694047Y-10288095D01*
X285570238Y-10350000D01*
X285508333Y-10411904D01*
X285384523Y-10597619D01*
X285322619Y-10845238D01*
X285322619Y-11340476D01*
X285384523Y-11464285D01*
X285446428Y-11526190D01*
X285570238Y-11588095D01*
X285817857Y-11588095D01*
X285941666Y-11526190D01*
X286003571Y-11464285D01*
X286065476Y-11340476D01*
X286065476Y-11030952D01*
X286003571Y-10907142D01*
X285941666Y-10845238D01*
X285817857Y-10783333D01*
X285570238Y-10783333D01*
X285446428Y-10845238D01*
X285384523Y-10907142D01*
X285322619Y-11030952D01*
D10*
D11*
X60000000Y-198007200D02*
X60000000Y-200007200D01*
D10*
D11*
X110000000Y-198007200D02*
X110000000Y-200007200D01*
D10*
D11*
X160000000Y-198007200D02*
X160000000Y-200007200D01*
D10*
D11*
X210000000Y-198007200D02*
X210000000Y-200007200D01*
D10*
D11*
X260000000Y-198007200D02*
X260000000Y-200007200D01*
D10*
D11*
X36065476Y-199595295D02*
X35322619Y-199595295D01*
X35694047Y-199595295D02*
X35694047Y-198295295D01*
X35570238Y-198481009D01*
X35446428Y-198604819D01*
X35322619Y-198666723D01*
D10*
D11*
X85322619Y-198419104D02*
X85384523Y-198357200D01*
X85508333Y-198295295D01*
X85817857Y-198295295D01*
X85941666Y-198357200D01*
X86003571Y-198419104D01*
X86065476Y-198542914D01*
X86065476Y-198666723D01*
X86003571Y-198852438D01*
X85260714Y-199595295D01*
X86065476Y-199595295D01*
D10*
D11*
X135260714Y-198295295D02*
X136065476Y-198295295D01*
X135632142Y-198790533D01*
X135817857Y-198790533D01*
X135941666Y-198852438D01*
X136003571Y-198914342D01*
X136065476Y-199038152D01*
X136065476Y-199347676D01*
X136003571Y-199471485D01*
X135941666Y-199533390D01*
X135817857Y-199595295D01*
X135446428Y-199595295D01*
X135322619Y-199533390D01*
X135260714Y-199471485D01*
D10*
D11*
X185941666Y-198728628D02*
X185941666Y-199595295D01*
X185632142Y-198233390D02*
X185322619Y-199161961D01*
X186127380Y-199161961D01*
D10*
D11*
X236003571Y-198295295D02*
X235384523Y-198295295D01*
X235322619Y-198914342D01*
X235384523Y-198852438D01*
X235508333Y-198790533D01*
X235817857Y-198790533D01*
X235941666Y-198852438D01*
X236003571Y-198914342D01*
X236065476Y-199038152D01*
X236065476Y-199347676D01*
X236003571Y-199471485D01*
X235941666Y-199533390D01*
X235817857Y-199595295D01*
X235508333Y-199595295D01*
X235384523Y-199533390D01*
X235322619Y-199471485D01*
D10*
D11*
X285941666Y-198295295D02*
X285694047Y-198295295D01*
X285570238Y-198357200D01*
X285508333Y-198419104D01*
X285384523Y-198604819D01*
X285322619Y-198852438D01*
X285322619Y-199347676D01*
X285384523Y-199471485D01*
X285446428Y-199533390D01*
X285570238Y-199595295D01*
X285817857Y-199595295D01*
X285941666Y-199533390D01*
X286003571Y-199471485D01*
X286065476Y-199347676D01*
X286065476Y-199038152D01*
X286003571Y-198914342D01*
X285941666Y-198852438D01*
X285817857Y-198790533D01*
X285570238Y-198790533D01*
X285446428Y-198852438D01*
X285384523Y-198914342D01*
X285322619Y-199038152D01*
D10*
D11*
X10000000Y-60000000D02*
X12000000Y-60000000D01*
D10*
D11*
X10000000Y-110000000D02*
X12000000Y-110000000D01*
D10*
D11*
X10000000Y-160000000D02*
X12000000Y-160000000D01*
D10*
D11*
X10690476Y-35216666D02*
X11309523Y-35216666D01*
X10566666Y-35588095D02*
X11000000Y-34288095D01*
X11433333Y-35588095D01*
D10*
D11*
X11092857Y-84907142D02*
X11278571Y-84969047D01*
X11340476Y-85030952D01*
X11402380Y-85154761D01*
X11402380Y-85340476D01*
X11340476Y-85464285D01*
X11278571Y-85526190D01*
X11154761Y-85588095D01*
X10659523Y-85588095D01*
X10659523Y-84288095D01*
X11092857Y-84288095D01*
X11216666Y-84350000D01*
X11278571Y-84411904D01*
X11340476Y-84535714D01*
X11340476Y-84659523D01*
X11278571Y-84783333D01*
X11216666Y-84845238D01*
X11092857Y-84907142D01*
X10659523Y-84907142D01*
D10*
D11*
X11402380Y-135464285D02*
X11340476Y-135526190D01*
X11154761Y-135588095D01*
X11030952Y-135588095D01*
X10845238Y-135526190D01*
X10721428Y-135402380D01*
X10659523Y-135278571D01*
X10597619Y-135030952D01*
X10597619Y-134845238D01*
X10659523Y-134597619D01*
X10721428Y-134473809D01*
X10845238Y-134350000D01*
X11030952Y-134288095D01*
X11154761Y-134288095D01*
X11340476Y-134350000D01*
X11402380Y-134411904D01*
D10*
D11*
X10659523Y-185588095D02*
X10659523Y-184288095D01*
X10969047Y-184288095D01*
X11154761Y-184350000D01*
X11278571Y-184473809D01*
X11340476Y-184597619D01*
X11402380Y-184845238D01*
X11402380Y-185030952D01*
X11340476Y-185278571D01*
X11278571Y-185402380D01*
X11154761Y-185526190D01*
X10969047Y-185588095D01*
X10659523Y-185588095D01*
D10*
D11*
X287002200Y-60000000D02*
X285002200Y-60000000D01*
D10*
D11*
X287002200Y-110000000D02*
X285002200Y-110000000D01*
D10*
D11*
X287002200Y-160000000D02*
X285002200Y-160000000D01*
D10*
D11*
X285692676Y-35216666D02*
X286311723Y-35216666D01*
X285568866Y-35588095D02*
X286002200Y-34288095D01*
X286435533Y-35588095D01*
D10*
D11*
X286095057Y-84907142D02*
X286280771Y-84969047D01*
X286342676Y-85030952D01*
X286404580Y-85154761D01*
X286404580Y-85340476D01*
X286342676Y-85464285D01*
X286280771Y-85526190D01*
X286156961Y-85588095D01*
X285661723Y-85588095D01*
X285661723Y-84288095D01*
X286095057Y-84288095D01*
X286218866Y-84350000D01*
X286280771Y-84411904D01*
X286342676Y-84535714D01*
X286342676Y-84659523D01*
X286280771Y-84783333D01*
X286218866Y-84845238D01*
X286095057Y-84907142D01*
X285661723Y-84907142D01*
D10*
D11*
X286404580Y-135464285D02*
X286342676Y-135526190D01*
X286156961Y-135588095D01*
X286033152Y-135588095D01*
X285847438Y-135526190D01*
X285723628Y-135402380D01*
X285661723Y-135278571D01*
X285599819Y-135030952D01*
X285599819Y-134845238D01*
X285661723Y-134597619D01*
X285723628Y-134473809D01*
X285847438Y-134350000D01*
X286033152Y-134288095D01*
X286156961Y-134288095D01*
X286342676Y-134350000D01*
X286404580Y-134411904D01*
D10*
D11*
X285661723Y-185588095D02*
X285661723Y-184288095D01*
X285971247Y-184288095D01*
X286156961Y-184350000D01*
X286280771Y-184473809D01*
X286342676Y-184597619D01*
X286404580Y-184845238D01*
X286404580Y-185030952D01*
X286342676Y-185278571D01*
X286280771Y-185402380D01*
X286156961Y-185526190D01*
X285971247Y-185588095D01*
X285661723Y-185588095D01*
D10*
D11*
X200434342Y-193785771D02*
X200434342Y-192285771D01*
X200791485Y-192285771D01*
X201005771Y-192357200D01*
X201148628Y-192500057D01*
X201220057Y-192642914D01*
X201291485Y-192928628D01*
X201291485Y-193142914D01*
X201220057Y-193428628D01*
X201148628Y-193571485D01*
X201005771Y-193714342D01*
X200791485Y-193785771D01*
X200434342Y-193785771D01*
X202577200Y-193785771D02*
X202577200Y-193000057D01*
X202505771Y-192857200D01*
X202362914Y-192785771D01*
X202077200Y-192785771D01*
X201934342Y-192857200D01*
X202577200Y-193714342D02*
X202434342Y-193785771D01*
X202077200Y-193785771D01*
X201934342Y-193714342D01*
X201862914Y-193571485D01*
X201862914Y-193428628D01*
X201934342Y-193285771D01*
X202077200Y-193214342D01*
X202434342Y-193214342D01*
X202577200Y-193142914D01*
X203077200Y-192785771D02*
X203648628Y-192785771D01*
X203291485Y-192285771D02*
X203291485Y-193571485D01*
X203362914Y-193714342D01*
X203505771Y-193785771D01*
X203648628Y-193785771D01*
X204720057Y-193714342D02*
X204577200Y-193785771D01*
X204291485Y-193785771D01*
X204148628Y-193714342D01*
X204077200Y-193571485D01*
X204077200Y-193000057D01*
X204148628Y-192857200D01*
X204291485Y-192785771D01*
X204577200Y-192785771D01*
X204720057Y-192857200D01*
X204791485Y-193000057D01*
X204791485Y-193142914D01*
X204077200Y-193285771D01*
X205434342Y-193642914D02*
X205505771Y-193714342D01*
X205434342Y-193785771D01*
X205362914Y-193714342D01*
X205434342Y-193642914D01*
X205434342Y-193785771D01*
X205434342Y-192857200D02*
X205505771Y-192928628D01*
X205434342Y-193000057D01*
X205362914Y-192928628D01*
X205434342Y-192857200D01*
X205434342Y-193000057D01*
D10*
D11*
X177002200Y-194507200D02*
X285002200Y-194507200D01*
D10*
D11*
X178434342Y-196585771D02*
X178434342Y-195085771D01*
X179291485Y-196585771D02*
X178648628Y-195728628D01*
X179291485Y-195085771D02*
X178434342Y-195942914D01*
X179934342Y-196585771D02*
X179934342Y-195585771D01*
X179934342Y-195085771D02*
X179862914Y-195157200D01*
X179934342Y-195228628D01*
X180005771Y-195157200D01*
X179934342Y-195085771D01*
X179934342Y-195228628D01*
X181505771Y-196442914D02*
X181434342Y-196514342D01*
X181220057Y-196585771D01*
X181077200Y-196585771D01*
X180862914Y-196514342D01*
X180720057Y-196371485D01*
X180648628Y-196228628D01*
X180577200Y-195942914D01*
X180577200Y-195728628D01*
X180648628Y-195442914D01*
X180720057Y-195300057D01*
X180862914Y-195157200D01*
X181077200Y-195085771D01*
X181220057Y-195085771D01*
X181434342Y-195157200D01*
X181505771Y-195228628D01*
X182791485Y-196585771D02*
X182791485Y-195800057D01*
X182720057Y-195657200D01*
X182577200Y-195585771D01*
X182291485Y-195585771D01*
X182148628Y-195657200D01*
X182791485Y-196514342D02*
X182648628Y-196585771D01*
X182291485Y-196585771D01*
X182148628Y-196514342D01*
X182077200Y-196371485D01*
X182077200Y-196228628D01*
X182148628Y-196085771D01*
X182291485Y-196014342D01*
X182648628Y-196014342D01*
X182791485Y-195942914D01*
X184148628Y-196585771D02*
X184148628Y-195085771D01*
X184148628Y-196514342D02*
X184005771Y-196585771D01*
X183720057Y-196585771D01*
X183577200Y-196514342D01*
X183505771Y-196442914D01*
X183434342Y-196300057D01*
X183434342Y-195871485D01*
X183505771Y-195728628D01*
X183577200Y-195657200D01*
X183720057Y-195585771D01*
X184005771Y-195585771D01*
X184148628Y-195657200D01*
X186005771Y-195800057D02*
X186505771Y-195800057D01*
X186720057Y-196585771D02*
X186005771Y-196585771D01*
X186005771Y-195085771D01*
X186720057Y-195085771D01*
X187362914Y-196442914D02*
X187434342Y-196514342D01*
X187362914Y-196585771D01*
X187291485Y-196514342D01*
X187362914Y-196442914D01*
X187362914Y-196585771D01*
X188077200Y-196585771D02*
X188077200Y-195085771D01*
X188434342Y-195085771D01*
X188648628Y-195157200D01*
X188791485Y-195300057D01*
X188862914Y-195442914D01*
X188934342Y-195728628D01*
X188934342Y-195942914D01*
X188862914Y-196228628D01*
X188791485Y-196371485D01*
X188648628Y-196514342D01*
X188434342Y-196585771D01*
X188077200Y-196585771D01*
X189577200Y-196442914D02*
X189648628Y-196514342D01*
X189577200Y-196585771D01*
X189505771Y-196514342D01*
X189577200Y-196442914D01*
X189577200Y-196585771D01*
X190220057Y-196157200D02*
X190934342Y-196157200D01*
X190077200Y-196585771D02*
X190577200Y-195085771D01*
X191077200Y-196585771D01*
X191577200Y-196442914D02*
X191648628Y-196514342D01*
X191577200Y-196585771D01*
X191505771Y-196514342D01*
X191577200Y-196442914D01*
X191577200Y-196585771D01*
X194577200Y-196585771D02*
X194577200Y-195085771D01*
X194720057Y-196014342D02*
X195148628Y-196585771D01*
X195148628Y-195585771D02*
X194577200Y-196157200D01*
X195791485Y-196585771D02*
X195791485Y-195585771D01*
X195791485Y-195085771D02*
X195720057Y-195157200D01*
X195791485Y-195228628D01*
X195862914Y-195157200D01*
X195791485Y-195085771D01*
X195791485Y-195228628D01*
X197148628Y-196514342D02*
X197005771Y-196585771D01*
X196720057Y-196585771D01*
X196577200Y-196514342D01*
X196505771Y-196442914D01*
X196434342Y-196300057D01*
X196434342Y-195871485D01*
X196505771Y-195728628D01*
X196577200Y-195657200D01*
X196720057Y-195585771D01*
X197005771Y-195585771D01*
X197148628Y-195657200D01*
X198434342Y-196585771D02*
X198434342Y-195800057D01*
X198362914Y-195657200D01*
X198220057Y-195585771D01*
X197934342Y-195585771D01*
X197791485Y-195657200D01*
X198434342Y-196514342D02*
X198291485Y-196585771D01*
X197934342Y-196585771D01*
X197791485Y-196514342D01*
X197720057Y-196371485D01*
X197720057Y-196228628D01*
X197791485Y-196085771D01*
X197934342Y-196014342D01*
X198291485Y-196014342D01*
X198434342Y-195942914D01*
X199791485Y-196585771D02*
X199791485Y-195085771D01*
X199791485Y-196514342D02*
X199648628Y-196585771D01*
X199362914Y-196585771D01*
X199220057Y-196514342D01*
X199148628Y-196442914D01*
X199077200Y-196300057D01*
X199077200Y-195871485D01*
X199148628Y-195728628D01*
X199220057Y-195657200D01*
X199362914Y-195585771D01*
X199648628Y-195585771D01*
X199791485Y-195657200D01*
X202077200Y-197157200D02*
X202005771Y-197085771D01*
X201862914Y-196871485D01*
X201791485Y-196728628D01*
X201720057Y-196514342D01*
X201648628Y-196157200D01*
X201648628Y-195871485D01*
X201720057Y-195514342D01*
X201791485Y-195300057D01*
X201862914Y-195157200D01*
X202005771Y-194942914D01*
X202077200Y-194871485D01*
X203362914Y-195085771D02*
X202648628Y-195085771D01*
X202577200Y-195800057D01*
X202648628Y-195728628D01*
X202791485Y-195657200D01*
X203148628Y-195657200D01*
X203291485Y-195728628D01*
X203362914Y-195800057D01*
X203434342Y-195942914D01*
X203434342Y-196300057D01*
X203362914Y-196442914D01*
X203291485Y-196514342D01*
X203148628Y-196585771D01*
X202791485Y-196585771D01*
X202648628Y-196514342D01*
X202577200Y-196442914D01*
X204077200Y-196442914D02*
X204148628Y-196514342D01*
X204077200Y-196585771D01*
X204005771Y-196514342D01*
X204077200Y-196442914D01*
X204077200Y-196585771D01*
X205577200Y-196585771D02*
X204720057Y-196585771D01*
X205148628Y-196585771D02*
X205148628Y-195085771D01*
X205005771Y-195300057D01*
X204862914Y-195442914D01*
X204720057Y-195514342D01*
X206220057Y-196442914D02*
X206291485Y-196514342D01*
X206220057Y-196585771D01*
X206148628Y-196514342D01*
X206220057Y-196442914D01*
X206220057Y-196585771D01*
X207720057Y-196585771D02*
X206862914Y-196585771D01*
X207291485Y-196585771D02*
X207291485Y-195085771D01*
X207148628Y-195300057D01*
X207005771Y-195442914D01*
X206862914Y-195514342D01*
X208648628Y-195085771D02*
X208791485Y-195085771D01*
X208934342Y-195157200D01*
X209005771Y-195228628D01*
X209077200Y-195371485D01*
X209148628Y-195657200D01*
X209148628Y-196014342D01*
X209077200Y-196300057D01*
X209005771Y-196442914D01*
X208934342Y-196514342D01*
X208791485Y-196585771D01*
X208648628Y-196585771D01*
X208505771Y-196514342D01*
X208434342Y-196442914D01*
X208362914Y-196300057D01*
X208291485Y-196014342D01*
X208291485Y-195657200D01*
X208362914Y-195371485D01*
X208434342Y-195228628D01*
X208505771Y-195157200D01*
X208648628Y-195085771D01*
X209648628Y-197157200D02*
X209720057Y-197085771D01*
X209862914Y-196871485D01*
X209934342Y-196728628D01*
X210005771Y-196514342D01*
X210077200Y-196157200D01*
X210077200Y-195871485D01*
X210005771Y-195514342D01*
X209934342Y-195300057D01*
X209862914Y-195157200D01*
X209720057Y-194942914D01*
X209648628Y-194871485D01*
X210791485Y-196014342D02*
X211934342Y-196014342D01*
X213434342Y-196585771D02*
X212577200Y-196585771D01*
X213005771Y-196585771D02*
X213005771Y-195085771D01*
X212862914Y-195300057D01*
X212720057Y-195442914D01*
X212577200Y-195514342D01*
D10*
D11*
X177002200Y-191507200D02*
X285002200Y-191507200D01*
D10*
D12*
X264411485Y-193785771D02*
X263911485Y-193071485D01*
X263554342Y-193785771D02*
X263554342Y-192285771D01*
X264125771Y-192285771D01*
X264268628Y-192357200D01*
X264340057Y-192428628D01*
X264411485Y-192571485D01*
X264411485Y-192785771D01*
X264340057Y-192928628D01*
X264268628Y-193000057D01*
X264125771Y-193071485D01*
X263554342Y-193071485D01*
X265625771Y-193714342D02*
X265482914Y-193785771D01*
X265197200Y-193785771D01*
X265054342Y-193714342D01*
X264982914Y-193571485D01*
X264982914Y-193000057D01*
X265054342Y-192857200D01*
X265197200Y-192785771D01*
X265482914Y-192785771D01*
X265625771Y-192857200D01*
X265697200Y-193000057D01*
X265697200Y-193142914D01*
X264982914Y-193285771D01*
X266197200Y-192785771D02*
X266554342Y-193785771D01*
X266911485Y-192785771D01*
X267482914Y-193642914D02*
X267554342Y-193714342D01*
X267482914Y-193785771D01*
X267411485Y-193714342D01*
X267482914Y-193642914D01*
X267482914Y-193785771D01*
X267482914Y-192857200D02*
X267554342Y-192928628D01*
X267482914Y-193000057D01*
X267411485Y-192928628D01*
X267482914Y-192857200D01*
X267482914Y-193000057D01*
D10*
D11*
X178362914Y-193714342D02*
X178577200Y-193785771D01*
X178934342Y-193785771D01*
X179077200Y-193714342D01*
X179148628Y-193642914D01*
X179220057Y-193500057D01*
X179220057Y-193357200D01*
X179148628Y-193214342D01*
X179077200Y-193142914D01*
X178934342Y-193071485D01*
X178648628Y-193000057D01*
X178505771Y-192928628D01*
X178434342Y-192857200D01*
X178362914Y-192714342D01*
X178362914Y-192571485D01*
X178434342Y-192428628D01*
X178505771Y-192357200D01*
X178648628Y-192285771D01*
X179005771Y-192285771D01*
X179220057Y-192357200D01*
X179862914Y-193785771D02*
X179862914Y-192785771D01*
X179862914Y-192285771D02*
X179791485Y-192357200D01*
X179862914Y-192428628D01*
X179934342Y-192357200D01*
X179862914Y-192285771D01*
X179862914Y-192428628D01*
X180434342Y-192785771D02*
X181220057Y-192785771D01*
X180434342Y-193785771D01*
X181220057Y-193785771D01*
X182362914Y-193714342D02*
X182220057Y-193785771D01*
X181934342Y-193785771D01*
X181791485Y-193714342D01*
X181720057Y-193571485D01*
X181720057Y-193000057D01*
X181791485Y-192857200D01*
X181934342Y-192785771D01*
X182220057Y-192785771D01*
X182362914Y-192857200D01*
X182434342Y-193000057D01*
X182434342Y-193142914D01*
X181720057Y-193285771D01*
X183077200Y-193642914D02*
X183148628Y-193714342D01*
X183077200Y-193785771D01*
X183005771Y-193714342D01*
X183077200Y-193642914D01*
X183077200Y-193785771D01*
X183077200Y-192857200D02*
X183148628Y-192928628D01*
X183077200Y-193000057D01*
X183005771Y-192928628D01*
X183077200Y-192857200D01*
X183077200Y-193000057D01*
X184862914Y-193357200D02*
X185577200Y-193357200D01*
X184720057Y-193785771D02*
X185220057Y-192285771D01*
X185720057Y-193785771D01*
X186862914Y-192785771D02*
X186862914Y-193785771D01*
X186505771Y-192214342D02*
X186148628Y-193285771D01*
X187077200Y-193285771D01*
D10*
D11*
X263434342Y-196585771D02*
X263434342Y-195085771D01*
X264791485Y-196585771D02*
X264791485Y-195085771D01*
X264791485Y-196514342D02*
X264648628Y-196585771D01*
X264362914Y-196585771D01*
X264220057Y-196514342D01*
X264148628Y-196442914D01*
X264077200Y-196300057D01*
X264077200Y-195871485D01*
X264148628Y-195728628D01*
X264220057Y-195657200D01*
X264362914Y-195585771D01*
X264648628Y-195585771D01*
X264791485Y-195657200D01*
X265505771Y-196442914D02*
X265577200Y-196514342D01*
X265505771Y-196585771D01*
X265434342Y-196514342D01*
X265505771Y-196442914D01*
X265505771Y-196585771D01*
X265505771Y-195657200D02*
X265577200Y-195728628D01*
X265505771Y-195800057D01*
X265434342Y-195728628D01*
X265505771Y-195657200D01*
X265505771Y-195800057D01*
X268148628Y-196585771D02*
X267291485Y-196585771D01*
X267720057Y-196585771D02*
X267720057Y-195085771D01*
X267577200Y-195300057D01*
X267434342Y-195442914D01*
X267291485Y-195514342D01*
X269862914Y-195014342D02*
X268577200Y-196942914D01*
X271148628Y-196585771D02*
X270291485Y-196585771D01*
X270720057Y-196585771D02*
X270720057Y-195085771D01*
X270577200Y-195300057D01*
X270434342Y-195442914D01*
X270291485Y-195514342D01*
D10*
D11*
X177002200Y-187507200D02*
X285002200Y-187507200D01*
D10*
D13*
X178714580Y-188211961D02*
X179857438Y-188211961D01*
X179036009Y-190211961D02*
X179286009Y-188211961D01*
X180274104Y-190211961D02*
X180440771Y-188878628D01*
X180524104Y-188211961D02*
X180416961Y-188307200D01*
X180500295Y-188402438D01*
X180607438Y-188307200D01*
X180524104Y-188211961D01*
X180500295Y-188402438D01*
X181107438Y-188878628D02*
X181869342Y-188878628D01*
X181476485Y-188211961D02*
X181262200Y-189926247D01*
X181333628Y-190116723D01*
X181512200Y-190211961D01*
X181702676Y-190211961D01*
X182655057Y-190211961D02*
X182476485Y-190116723D01*
X182405057Y-189926247D01*
X182619342Y-188211961D01*
X184190771Y-190116723D02*
X183988390Y-190211961D01*
X183607438Y-190211961D01*
X183428866Y-190116723D01*
X183357438Y-189926247D01*
X183452676Y-189164342D01*
X183571723Y-188973866D01*
X183774104Y-188878628D01*
X184155057Y-188878628D01*
X184333628Y-188973866D01*
X184405057Y-189164342D01*
X184381247Y-189354819D01*
X183405057Y-189545295D01*
X185155057Y-190021485D02*
X185238390Y-190116723D01*
X185131247Y-190211961D01*
X185047914Y-190116723D01*
X185155057Y-190021485D01*
X185131247Y-190211961D01*
X185286009Y-188973866D02*
X185369342Y-189069104D01*
X185262200Y-189164342D01*
X185178866Y-189069104D01*
X185286009Y-188973866D01*
X185262200Y-189164342D01*
D10*
D11*
X178934342Y-185600057D02*
X178434342Y-185600057D01*
X178434342Y-186385771D02*
X178434342Y-184885771D01*
X179148628Y-184885771D01*
X179720057Y-186385771D02*
X179720057Y-185385771D01*
X179720057Y-184885771D02*
X179648628Y-184957200D01*
X179720057Y-185028628D01*
X179791485Y-184957200D01*
X179720057Y-184885771D01*
X179720057Y-185028628D01*
X180648628Y-186385771D02*
X180505771Y-186314342D01*
X180434342Y-186171485D01*
X180434342Y-184885771D01*
X181791485Y-186314342D02*
X181648628Y-186385771D01*
X181362914Y-186385771D01*
X181220057Y-186314342D01*
X181148628Y-186171485D01*
X181148628Y-185600057D01*
X181220057Y-185457200D01*
X181362914Y-185385771D01*
X181648628Y-185385771D01*
X181791485Y-185457200D01*
X181862914Y-185600057D01*
X181862914Y-185742914D01*
X181148628Y-185885771D01*
X182505771Y-186242914D02*
X182577200Y-186314342D01*
X182505771Y-186385771D01*
X182434342Y-186314342D01*
X182505771Y-186242914D01*
X182505771Y-186385771D01*
X182505771Y-185457200D02*
X182577200Y-185528628D01*
X182505771Y-185600057D01*
X182434342Y-185528628D01*
X182505771Y-185457200D01*
X182505771Y-185600057D01*
X185220057Y-186385771D02*
X184720057Y-185671485D01*
X184362914Y-186385771D02*
X184362914Y-184885771D01*
X184934342Y-184885771D01*
X185077200Y-184957200D01*
X185148628Y-185028628D01*
X185220057Y-185171485D01*
X185220057Y-185385771D01*
X185148628Y-185528628D01*
X185077200Y-185600057D01*
X184934342Y-185671485D01*
X184362914Y-185671485D01*
X185862914Y-186385771D02*
X185862914Y-184885771D01*
X187434342Y-186242914D02*
X187362914Y-186314342D01*
X187148628Y-186385771D01*
X187005771Y-186385771D01*
X186791485Y-186314342D01*
X186648628Y-186171485D01*
X186577200Y-186028628D01*
X186505771Y-185742914D01*
X186505771Y-185528628D01*
X186577200Y-185242914D01*
X186648628Y-185100057D01*
X186791485Y-184957200D01*
X187005771Y-184885771D01*
X187148628Y-184885771D01*
X187362914Y-184957200D01*
X187434342Y-185028628D01*
X188077200Y-186385771D02*
X188077200Y-184885771D01*
X188577200Y-185957200D01*
X189077200Y-184885771D01*
X189077200Y-186385771D01*
X189434342Y-186528628D02*
X190577200Y-186528628D01*
X190934342Y-185385771D02*
X190934342Y-186885771D01*
X190934342Y-185457200D02*
X191077200Y-185385771D01*
X191362914Y-185385771D01*
X191505771Y-185457200D01*
X191577200Y-185528628D01*
X191648628Y-185671485D01*
X191648628Y-186100057D01*
X191577200Y-186242914D01*
X191505771Y-186314342D01*
X191362914Y-186385771D01*
X191077200Y-186385771D01*
X190934342Y-186314342D01*
X192291485Y-186385771D02*
X192291485Y-185385771D01*
X192291485Y-184885771D02*
X192220057Y-184957200D01*
X192291485Y-185028628D01*
X192362914Y-184957200D01*
X192291485Y-184885771D01*
X192291485Y-185028628D01*
X193648628Y-186314342D02*
X193505771Y-186385771D01*
X193220057Y-186385771D01*
X193077200Y-186314342D01*
X193005771Y-186242914D01*
X192934342Y-186100057D01*
X192934342Y-185671485D01*
X193005771Y-185528628D01*
X193077200Y-185457200D01*
X193220057Y-185385771D01*
X193505771Y-185385771D01*
X193648628Y-185457200D01*
X194505771Y-186385771D02*
X194362914Y-186314342D01*
X194291485Y-186242914D01*
X194220057Y-186100057D01*
X194220057Y-185671485D01*
X194291485Y-185528628D01*
X194362914Y-185457200D01*
X194505771Y-185385771D01*
X194720057Y-185385771D01*
X194862914Y-185457200D01*
X194934342Y-185528628D01*
X195005771Y-185671485D01*
X195005771Y-186100057D01*
X194934342Y-186242914D01*
X194862914Y-186314342D01*
X194720057Y-186385771D01*
X194505771Y-186385771D01*
X195648628Y-186242914D02*
X195720057Y-186314342D01*
X195648628Y-186385771D01*
X195577200Y-186314342D01*
X195648628Y-186242914D01*
X195648628Y-186385771D01*
X196362914Y-186385771D02*
X196362914Y-184885771D01*
X196505771Y-185814342D02*
X196934342Y-186385771D01*
X196934342Y-185385771D02*
X196362914Y-185957200D01*
X197577200Y-186385771D02*
X197577200Y-185385771D01*
X197577200Y-184885771D02*
X197505771Y-184957200D01*
X197577200Y-185028628D01*
X197648628Y-184957200D01*
X197577200Y-184885771D01*
X197577200Y-185028628D01*
X198934342Y-186314342D02*
X198791485Y-186385771D01*
X198505771Y-186385771D01*
X198362914Y-186314342D01*
X198291485Y-186242914D01*
X198220057Y-186100057D01*
X198220057Y-185671485D01*
X198291485Y-185528628D01*
X198362914Y-185457200D01*
X198505771Y-185385771D01*
X198791485Y-185385771D01*
X198934342Y-185457200D01*
X200220057Y-186385771D02*
X200220057Y-185600057D01*
X200148628Y-185457200D01*
X200005771Y-185385771D01*
X199720057Y-185385771D01*
X199577200Y-185457200D01*
X200220057Y-186314342D02*
X200077200Y-186385771D01*
X199720057Y-186385771D01*
X199577200Y-186314342D01*
X199505771Y-186171485D01*
X199505771Y-186028628D01*
X199577200Y-185885771D01*
X199720057Y-185814342D01*
X200077200Y-185814342D01*
X200220057Y-185742914D01*
X201577200Y-186385771D02*
X201577200Y-184885771D01*
X201577200Y-186314342D02*
X201434342Y-186385771D01*
X201148628Y-186385771D01*
X201005771Y-186314342D01*
X200934342Y-186242914D01*
X200862914Y-186100057D01*
X200862914Y-185671485D01*
X200934342Y-185528628D01*
X201005771Y-185457200D01*
X201148628Y-185385771D01*
X201434342Y-185385771D01*
X201577200Y-185457200D01*
X201934342Y-186528628D02*
X203077200Y-186528628D01*
X203434342Y-185385771D02*
X203434342Y-186885771D01*
X203434342Y-185457200D02*
X203577200Y-185385771D01*
X203862914Y-185385771D01*
X204005771Y-185457200D01*
X204077200Y-185528628D01*
X204148628Y-185671485D01*
X204148628Y-186100057D01*
X204077200Y-186242914D01*
X204005771Y-186314342D01*
X203862914Y-186385771D01*
X203577200Y-186385771D01*
X203434342Y-186314342D01*
X205434342Y-186314342D02*
X205291485Y-186385771D01*
X205005771Y-186385771D01*
X204862914Y-186314342D01*
X204791485Y-186242914D01*
X204720057Y-186100057D01*
X204720057Y-185671485D01*
X204791485Y-185528628D01*
X204862914Y-185457200D01*
X205005771Y-185385771D01*
X205291485Y-185385771D01*
X205434342Y-185457200D01*
X206077200Y-186385771D02*
X206077200Y-184885771D01*
X206077200Y-185457200D02*
X206220057Y-185385771D01*
X206505771Y-185385771D01*
X206648628Y-185457200D01*
X206720057Y-185528628D01*
X206791485Y-185671485D01*
X206791485Y-186100057D01*
X206720057Y-186242914D01*
X206648628Y-186314342D01*
X206505771Y-186385771D01*
X206220057Y-186385771D01*
X206077200Y-186314342D01*
D10*
D11*
X177002200Y-181507200D02*
X285002200Y-181507200D01*
D10*
D11*
X178362914Y-183614342D02*
X178577200Y-183685771D01*
X178934342Y-183685771D01*
X179077200Y-183614342D01*
X179148628Y-183542914D01*
X179220057Y-183400057D01*
X179220057Y-183257200D01*
X179148628Y-183114342D01*
X179077200Y-183042914D01*
X178934342Y-182971485D01*
X178648628Y-182900057D01*
X178505771Y-182828628D01*
X178434342Y-182757200D01*
X178362914Y-182614342D01*
X178362914Y-182471485D01*
X178434342Y-182328628D01*
X178505771Y-182257200D01*
X178648628Y-182185771D01*
X179005771Y-182185771D01*
X179220057Y-182257200D01*
X179862914Y-183685771D02*
X179862914Y-182185771D01*
X180505771Y-183685771D02*
X180505771Y-182900057D01*
X180434342Y-182757200D01*
X180291485Y-182685771D01*
X180077200Y-182685771D01*
X179934342Y-182757200D01*
X179862914Y-182828628D01*
X181791485Y-183614342D02*
X181648628Y-183685771D01*
X181362914Y-183685771D01*
X181220057Y-183614342D01*
X181148628Y-183471485D01*
X181148628Y-182900057D01*
X181220057Y-182757200D01*
X181362914Y-182685771D01*
X181648628Y-182685771D01*
X181791485Y-182757200D01*
X181862914Y-182900057D01*
X181862914Y-183042914D01*
X181148628Y-183185771D01*
X183077200Y-183614342D02*
X182934342Y-183685771D01*
X182648628Y-183685771D01*
X182505771Y-183614342D01*
X182434342Y-183471485D01*
X182434342Y-182900057D01*
X182505771Y-182757200D01*
X182648628Y-182685771D01*
X182934342Y-182685771D01*
X183077200Y-182757200D01*
X183148628Y-182900057D01*
X183148628Y-183042914D01*
X182434342Y-183185771D01*
X183577200Y-182685771D02*
X184148628Y-182685771D01*
X183791485Y-182185771D02*
X183791485Y-183471485D01*
X183862914Y-183614342D01*
X184005771Y-183685771D01*
X184148628Y-183685771D01*
X184648628Y-183542914D02*
X184720057Y-183614342D01*
X184648628Y-183685771D01*
X184577200Y-183614342D01*
X184648628Y-183542914D01*
X184648628Y-183685771D01*
X184648628Y-182757200D02*
X184720057Y-182828628D01*
X184648628Y-182900057D01*
X184577200Y-182828628D01*
X184648628Y-182757200D01*
X184648628Y-182900057D01*
D10*
D11*
X197002200Y-191507200D02*
X197002200Y-194507200D01*
D10*
D11*
X261002200Y-191507200D02*
X261002200Y-198007200D01*
D14*
X255246000Y-136978000D02*
X52246000Y-136978000D01*
X255246000Y-48978000D02*
X52246000Y-48978000D01*
X255246000Y-48978000D02*
X255246000Y-136978000D01*
X52246000Y-48978000D02*
X52246000Y-136978000D01*
D15*
%TO.P,RV3,3*%
%TO.N,+3V3*%
X233496000Y-109228000D03*
%TO.P,RV3,2*%
%TO.N,Net-(RV3-Pad2)*%
X238496000Y-109228000D03*
%TO.P,RV3,1*%
%TO.N,AGND*%
X243496000Y-109228000D03*
%TD*%
%TO.P,F1,2*%
%TO.N,+3V3*%
X118339000Y-106056000D03*
%TO.P,F1,1*%
%TO.N,Net-(F1-Pad1)*%
X118339000Y-128456000D03*
%TD*%
D16*
%TO.P,C5,2*%
%TO.N,Earth*%
X180246000Y-132228000D03*
%TO.P,C5,1*%
%TO.N,+3V3*%
X177746000Y-132228000D03*
%TD*%
%TO.P,C4,2*%
%TO.N,Earth*%
X165996000Y-132228000D03*
%TO.P,C4,1*%
%TO.N,+3V3*%
X163496000Y-132228000D03*
%TD*%
%TO.P,C3,2*%
%TO.N,Earth*%
X151996000Y-132228000D03*
%TO.P,C3,1*%
%TO.N,+3V3*%
X149496000Y-132228000D03*
%TD*%
%TO.P,C2,2*%
%TO.N,Earth*%
X134496000Y-132228000D03*
%TO.P,C2,1*%
%TO.N,+3V3*%
X136996000Y-132228000D03*
%TD*%
D17*
%TO.P,D3,1*%
%TO.N,Net-(D3-Pad1)*%
X141746000Y-75268000D03*
D18*
%TO.P,D3,3*%
%TO.N,Net-(D3-Pad3)*%
X141746000Y-72728000D03*
%TO.P,D3,4*%
%TO.N,Net-(D3-Pad4)*%
X141746000Y-70188000D03*
%TO.P,D3,2*%
%TO.N,Net-(D3-Pad2)*%
X141746000Y-77808000D03*
%TD*%
D16*
%TO.P,R6,1*%
%TO.N,SDA1*%
X199566000Y-95158000D03*
D19*
%TO.P,R6,2*%
%TO.N,+3V3*%
X199566000Y-102778000D03*
%TD*%
D16*
%TO.P,R8,1*%
%TO.N,INT1*%
X122096000Y-98168000D03*
D19*
%TO.P,R8,2*%
%TO.N,+3V3*%
X122096000Y-90548000D03*
%TD*%
D20*
%TO.P,RN4,1*%
%TO.N,+5V*%
X143016000Y-96858000D03*
D19*
%TO.P,RN4,2*%
%TO.N,Net-(D2-Pad1)*%
X145556000Y-96858000D03*
%TO.P,RN4,3*%
%TO.N,Net-(D3-Pad1)*%
X148096000Y-96858000D03*
%TO.P,RN4,4*%
%TO.N,Net-(D4-Pad1)*%
X150636000Y-96858000D03*
%TO.P,RN4,5*%
%TO.N,Net-(D5-Pad1)*%
X153176000Y-96858000D03*
%TO.P,RN4,6*%
%TO.N,Net-(D6-Pad1)*%
X155716000Y-96858000D03*
%TO.P,RN4,7*%
%TO.N,Net-(D7-Pad1)*%
X158256000Y-96858000D03*
%TO.P,RN4,8*%
%TO.N,Net-(D8-Pad1)*%
X160796000Y-96858000D03*
%TO.P,RN4,9*%
%TO.N,Net-(D9-Pad1)*%
X163336000Y-96858000D03*
%TO.P,RN4,10*%
%TO.N,Net-(D10-Pad1)*%
X165876000Y-96858000D03*
%TD*%
%TO.P,U5,1*%
%TO.N,+3V3*%
%TA.AperFunction,SMDPad,CuDef*%
G36*
G01*
X170281000Y-121473000D02*
X170281000Y-121773000D01*
G75*
G02*
X170131000Y-121923000I-150000J0D01*
G01*
X168381000Y-121923000D01*
G75*
G02*
X168231000Y-121773000I0J150000D01*
G01*
X168231000Y-121473000D01*
G75*
G02*
X168381000Y-121323000I150000J0D01*
G01*
X170131000Y-121323000D01*
G75*
G02*
X170281000Y-121473000I0J-150000D01*
G01*
G37*
%TD.AperFunction*%
%TO.P,U5,2*%
%TO.N,Earth*%
%TA.AperFunction,SMDPad,CuDef*%
G36*
G01*
X170281000Y-120203000D02*
X170281000Y-120503000D01*
G75*
G02*
X170131000Y-120653000I-150000J0D01*
G01*
X168381000Y-120653000D01*
G75*
G02*
X168231000Y-120503000I0J150000D01*
G01*
X168231000Y-120203000D01*
G75*
G02*
X168381000Y-120053000I150000J0D01*
G01*
X170131000Y-120053000D01*
G75*
G02*
X170281000Y-120203000I0J-150000D01*
G01*
G37*
%TD.AperFunction*%
%TO.P,U5,3*%
%TA.AperFunction,SMDPad,CuDef*%
G36*
G01*
X170281000Y-118933000D02*
X170281000Y-119233000D01*
G75*
G02*
X170131000Y-119383000I-150000J0D01*
G01*
X168381000Y-119383000D01*
G75*
G02*
X168231000Y-119233000I0J150000D01*
G01*
X168231000Y-118933000D01*
G75*
G02*
X168381000Y-118783000I150000J0D01*
G01*
X170131000Y-118783000D01*
G75*
G02*
X170281000Y-118933000I0J-150000D01*
G01*
G37*
%TD.AperFunction*%
%TO.P,U5,4*%
%TO.N,c9*%
%TA.AperFunction,SMDPad,CuDef*%
G36*
G01*
X170281000Y-117663000D02*
X170281000Y-117963000D01*
G75*
G02*
X170131000Y-118113000I-150000J0D01*
G01*
X168381000Y-118113000D01*
G75*
G02*
X168231000Y-117963000I0J150000D01*
G01*
X168231000Y-117663000D01*
G75*
G02*
X168381000Y-117513000I150000J0D01*
G01*
X170131000Y-117513000D01*
G75*
G02*
X170281000Y-117663000I0J-150000D01*
G01*
G37*
%TD.AperFunction*%
%TO.P,U5,5*%
%TO.N,c10*%
%TA.AperFunction,SMDPad,CuDef*%
G36*
G01*
X170281000Y-116393000D02*
X170281000Y-116693000D01*
G75*
G02*
X170131000Y-116843000I-150000J0D01*
G01*
X168381000Y-116843000D01*
G75*
G02*
X168231000Y-116693000I0J150000D01*
G01*
X168231000Y-116393000D01*
G75*
G02*
X168381000Y-116243000I150000J0D01*
G01*
X170131000Y-116243000D01*
G75*
G02*
X170281000Y-116393000I0J-150000D01*
G01*
G37*
%TD.AperFunction*%
%TO.P,U5,6*%
%TO.N,c11*%
%TA.AperFunction,SMDPad,CuDef*%
G36*
G01*
X170281000Y-115123000D02*
X170281000Y-115423000D01*
G75*
G02*
X170131000Y-115573000I-150000J0D01*
G01*
X168381000Y-115573000D01*
G75*
G02*
X168231000Y-115423000I0J150000D01*
G01*
X168231000Y-115123000D01*
G75*
G02*
X168381000Y-114973000I150000J0D01*
G01*
X170131000Y-114973000D01*
G75*
G02*
X170281000Y-115123000I0J-150000D01*
G01*
G37*
%TD.AperFunction*%
%TO.P,U5,7*%
%TO.N,c12*%
%TA.AperFunction,SMDPad,CuDef*%
G36*
G01*
X170281000Y-113853000D02*
X170281000Y-114153000D01*
G75*
G02*
X170131000Y-114303000I-150000J0D01*
G01*
X168381000Y-114303000D01*
G75*
G02*
X168231000Y-114153000I0J150000D01*
G01*
X168231000Y-113853000D01*
G75*
G02*
X168381000Y-113703000I150000J0D01*
G01*
X170131000Y-113703000D01*
G75*
G02*
X170281000Y-113853000I0J-150000D01*
G01*
G37*
%TD.AperFunction*%
%TO.P,U5,8*%
%TO.N,Net-(D10-Pad2)*%
%TA.AperFunction,SMDPad,CuDef*%
G36*
G01*
X170281000Y-112583000D02*
X170281000Y-112883000D01*
G75*
G02*
X170131000Y-113033000I-150000J0D01*
G01*
X168381000Y-113033000D01*
G75*
G02*
X168231000Y-112883000I0J150000D01*
G01*
X168231000Y-112583000D01*
G75*
G02*
X168381000Y-112433000I150000J0D01*
G01*
X170131000Y-112433000D01*
G75*
G02*
X170281000Y-112583000I0J-150000D01*
G01*
G37*
%TD.AperFunction*%
%TO.P,U5,9*%
%TO.N,Net-(D10-Pad3)*%
%TA.AperFunction,SMDPad,CuDef*%
G36*
G01*
X170281000Y-111313000D02*
X170281000Y-111613000D01*
G75*
G02*
X170131000Y-111763000I-150000J0D01*
G01*
X168381000Y-111763000D01*
G75*
G02*
X168231000Y-111613000I0J150000D01*
G01*
X168231000Y-111313000D01*
G75*
G02*
X168381000Y-111163000I150000J0D01*
G01*
X170131000Y-111163000D01*
G75*
G02*
X170281000Y-111313000I0J-150000D01*
G01*
G37*
%TD.AperFunction*%
%TO.P,U5,10*%
%TO.N,Net-(D10-Pad4)*%
%TA.AperFunction,SMDPad,CuDef*%
G36*
G01*
X170281000Y-110043000D02*
X170281000Y-110343000D01*
G75*
G02*
X170131000Y-110493000I-150000J0D01*
G01*
X168381000Y-110493000D01*
G75*
G02*
X168231000Y-110343000I0J150000D01*
G01*
X168231000Y-110043000D01*
G75*
G02*
X168381000Y-109893000I150000J0D01*
G01*
X170131000Y-109893000D01*
G75*
G02*
X170281000Y-110043000I0J-150000D01*
G01*
G37*
%TD.AperFunction*%
%TO.P,U5,11*%
%TO.N,Net-(D9-Pad2)*%
%TA.AperFunction,SMDPad,CuDef*%
G36*
G01*
X170281000Y-108773000D02*
X170281000Y-109073000D01*
G75*
G02*
X170131000Y-109223000I-150000J0D01*
G01*
X168381000Y-109223000D01*
G75*
G02*
X168231000Y-109073000I0J150000D01*
G01*
X168231000Y-108773000D01*
G75*
G02*
X168381000Y-108623000I150000J0D01*
G01*
X170131000Y-108623000D01*
G75*
G02*
X170281000Y-108773000I0J-150000D01*
G01*
G37*
%TD.AperFunction*%
%TO.P,U5,12*%
%TO.N,Earth*%
%TA.AperFunction,SMDPad,CuDef*%
G36*
G01*
X170281000Y-107503000D02*
X170281000Y-107803000D01*
G75*
G02*
X170131000Y-107953000I-150000J0D01*
G01*
X168381000Y-107953000D01*
G75*
G02*
X168231000Y-107803000I0J150000D01*
G01*
X168231000Y-107503000D01*
G75*
G02*
X168381000Y-107353000I150000J0D01*
G01*
X170131000Y-107353000D01*
G75*
G02*
X170281000Y-107503000I0J-150000D01*
G01*
G37*
%TD.AperFunction*%
%TO.P,U5,13*%
%TO.N,Net-(D9-Pad3)*%
%TA.AperFunction,SMDPad,CuDef*%
G36*
G01*
X160981000Y-107503000D02*
X160981000Y-107803000D01*
G75*
G02*
X160831000Y-107953000I-150000J0D01*
G01*
X159081000Y-107953000D01*
G75*
G02*
X158931000Y-107803000I0J150000D01*
G01*
X158931000Y-107503000D01*
G75*
G02*
X159081000Y-107353000I150000J0D01*
G01*
X160831000Y-107353000D01*
G75*
G02*
X160981000Y-107503000I0J-150000D01*
G01*
G37*
%TD.AperFunction*%
%TO.P,U5,14*%
%TO.N,Net-(D9-Pad4)*%
%TA.AperFunction,SMDPad,CuDef*%
G36*
G01*
X160981000Y-108773000D02*
X160981000Y-109073000D01*
G75*
G02*
X160831000Y-109223000I-150000J0D01*
G01*
X159081000Y-109223000D01*
G75*
G02*
X158931000Y-109073000I0J150000D01*
G01*
X158931000Y-108773000D01*
G75*
G02*
X159081000Y-108623000I150000J0D01*
G01*
X160831000Y-108623000D01*
G75*
G02*
X160981000Y-108773000I0J-150000D01*
G01*
G37*
%TD.AperFunction*%
%TO.P,U5,15*%
%TO.N,Net-(D8-Pad2)*%
%TA.AperFunction,SMDPad,CuDef*%
G36*
G01*
X160981000Y-110043000D02*
X160981000Y-110343000D01*
G75*
G02*
X160831000Y-110493000I-150000J0D01*
G01*
X159081000Y-110493000D01*
G75*
G02*
X158931000Y-110343000I0J150000D01*
G01*
X158931000Y-110043000D01*
G75*
G02*
X159081000Y-109893000I150000J0D01*
G01*
X160831000Y-109893000D01*
G75*
G02*
X160981000Y-110043000I0J-150000D01*
G01*
G37*
%TD.AperFunction*%
%TO.P,U5,16*%
%TO.N,Net-(D8-Pad3)*%
%TA.AperFunction,SMDPad,CuDef*%
G36*
G01*
X160981000Y-111313000D02*
X160981000Y-111613000D01*
G75*
G02*
X160831000Y-111763000I-150000J0D01*
G01*
X159081000Y-111763000D01*
G75*
G02*
X158931000Y-111613000I0J150000D01*
G01*
X158931000Y-111313000D01*
G75*
G02*
X159081000Y-111163000I150000J0D01*
G01*
X160831000Y-111163000D01*
G75*
G02*
X160981000Y-111313000I0J-150000D01*
G01*
G37*
%TD.AperFunction*%
%TO.P,U5,17*%
%TO.N,Net-(D8-Pad4)*%
%TA.AperFunction,SMDPad,CuDef*%
G36*
G01*
X160981000Y-112583000D02*
X160981000Y-112883000D01*
G75*
G02*
X160831000Y-113033000I-150000J0D01*
G01*
X159081000Y-113033000D01*
G75*
G02*
X158931000Y-112883000I0J150000D01*
G01*
X158931000Y-112583000D01*
G75*
G02*
X159081000Y-112433000I150000J0D01*
G01*
X160831000Y-112433000D01*
G75*
G02*
X160981000Y-112583000I0J-150000D01*
G01*
G37*
%TD.AperFunction*%
%TO.P,U5,18*%
%TO.N,Net-(D7-Pad2)*%
%TA.AperFunction,SMDPad,CuDef*%
G36*
G01*
X160981000Y-113853000D02*
X160981000Y-114153000D01*
G75*
G02*
X160831000Y-114303000I-150000J0D01*
G01*
X159081000Y-114303000D01*
G75*
G02*
X158931000Y-114153000I0J150000D01*
G01*
X158931000Y-113853000D01*
G75*
G02*
X159081000Y-113703000I150000J0D01*
G01*
X160831000Y-113703000D01*
G75*
G02*
X160981000Y-113853000I0J-150000D01*
G01*
G37*
%TD.AperFunction*%
%TO.P,U5,19*%
%TO.N,Net-(D7-Pad3)*%
%TA.AperFunction,SMDPad,CuDef*%
G36*
G01*
X160981000Y-115123000D02*
X160981000Y-115423000D01*
G75*
G02*
X160831000Y-115573000I-150000J0D01*
G01*
X159081000Y-115573000D01*
G75*
G02*
X158931000Y-115423000I0J150000D01*
G01*
X158931000Y-115123000D01*
G75*
G02*
X159081000Y-114973000I150000J0D01*
G01*
X160831000Y-114973000D01*
G75*
G02*
X160981000Y-115123000I0J-150000D01*
G01*
G37*
%TD.AperFunction*%
%TO.P,U5,20*%
%TO.N,Net-(D7-Pad4)*%
%TA.AperFunction,SMDPad,CuDef*%
G36*
G01*
X160981000Y-116393000D02*
X160981000Y-116693000D01*
G75*
G02*
X160831000Y-116843000I-150000J0D01*
G01*
X159081000Y-116843000D01*
G75*
G02*
X158931000Y-116693000I0J150000D01*
G01*
X158931000Y-116393000D01*
G75*
G02*
X159081000Y-116243000I150000J0D01*
G01*
X160831000Y-116243000D01*
G75*
G02*
X160981000Y-116393000I0J-150000D01*
G01*
G37*
%TD.AperFunction*%
%TO.P,U5,21*%
%TO.N,Net-(R2-Pad1)*%
%TA.AperFunction,SMDPad,CuDef*%
G36*
G01*
X160981000Y-117663000D02*
X160981000Y-117963000D01*
G75*
G02*
X160831000Y-118113000I-150000J0D01*
G01*
X159081000Y-118113000D01*
G75*
G02*
X158931000Y-117963000I0J150000D01*
G01*
X158931000Y-117663000D01*
G75*
G02*
X159081000Y-117513000I150000J0D01*
G01*
X160831000Y-117513000D01*
G75*
G02*
X160981000Y-117663000I0J-150000D01*
G01*
G37*
%TD.AperFunction*%
%TO.P,U5,22*%
%TO.N,SCL1*%
%TA.AperFunction,SMDPad,CuDef*%
G36*
G01*
X160981000Y-118933000D02*
X160981000Y-119233000D01*
G75*
G02*
X160831000Y-119383000I-150000J0D01*
G01*
X159081000Y-119383000D01*
G75*
G02*
X158931000Y-119233000I0J150000D01*
G01*
X158931000Y-118933000D01*
G75*
G02*
X159081000Y-118783000I150000J0D01*
G01*
X160831000Y-118783000D01*
G75*
G02*
X160981000Y-118933000I0J-150000D01*
G01*
G37*
%TD.AperFunction*%
%TO.P,U5,23*%
%TO.N,SDA1*%
%TA.AperFunction,SMDPad,CuDef*%
G36*
G01*
X160981000Y-120203000D02*
X160981000Y-120503000D01*
G75*
G02*
X160831000Y-120653000I-150000J0D01*
G01*
X159081000Y-120653000D01*
G75*
G02*
X158931000Y-120503000I0J150000D01*
G01*
X158931000Y-120203000D01*
G75*
G02*
X159081000Y-120053000I150000J0D01*
G01*
X160831000Y-120053000D01*
G75*
G02*
X160981000Y-120203000I0J-150000D01*
G01*
G37*
%TD.AperFunction*%
%TO.P,U5,24*%
%TO.N,+3V3*%
%TA.AperFunction,SMDPad,CuDef*%
G36*
G01*
X160981000Y-121473000D02*
X160981000Y-121773000D01*
G75*
G02*
X160831000Y-121923000I-150000J0D01*
G01*
X159081000Y-121923000D01*
G75*
G02*
X158931000Y-121773000I0J150000D01*
G01*
X158931000Y-121473000D01*
G75*
G02*
X159081000Y-121323000I150000J0D01*
G01*
X160831000Y-121323000D01*
G75*
G02*
X160981000Y-121473000I0J-150000D01*
G01*
G37*
%TD.AperFunction*%
%TD*%
%TO.P,U4,1*%
%TO.N,Earth*%
%TA.AperFunction,SMDPad,CuDef*%
G36*
G01*
X156311000Y-121473000D02*
X156311000Y-121773000D01*
G75*
G02*
X156161000Y-121923000I-150000J0D01*
G01*
X154411000Y-121923000D01*
G75*
G02*
X154261000Y-121773000I0J150000D01*
G01*
X154261000Y-121473000D01*
G75*
G02*
X154411000Y-121323000I150000J0D01*
G01*
X156161000Y-121323000D01*
G75*
G02*
X156311000Y-121473000I0J-150000D01*
G01*
G37*
%TD.AperFunction*%
%TO.P,U4,2*%
%TA.AperFunction,SMDPad,CuDef*%
G36*
G01*
X156311000Y-120203000D02*
X156311000Y-120503000D01*
G75*
G02*
X156161000Y-120653000I-150000J0D01*
G01*
X154411000Y-120653000D01*
G75*
G02*
X154261000Y-120503000I0J150000D01*
G01*
X154261000Y-120203000D01*
G75*
G02*
X154411000Y-120053000I150000J0D01*
G01*
X156161000Y-120053000D01*
G75*
G02*
X156311000Y-120203000I0J-150000D01*
G01*
G37*
%TD.AperFunction*%
%TO.P,U4,3*%
%TA.AperFunction,SMDPad,CuDef*%
G36*
G01*
X156311000Y-118933000D02*
X156311000Y-119233000D01*
G75*
G02*
X156161000Y-119383000I-150000J0D01*
G01*
X154411000Y-119383000D01*
G75*
G02*
X154261000Y-119233000I0J150000D01*
G01*
X154261000Y-118933000D01*
G75*
G02*
X154411000Y-118783000I150000J0D01*
G01*
X156161000Y-118783000D01*
G75*
G02*
X156311000Y-118933000I0J-150000D01*
G01*
G37*
%TD.AperFunction*%
%TO.P,U4,4*%
%TO.N,c8*%
%TA.AperFunction,SMDPad,CuDef*%
G36*
G01*
X156311000Y-117663000D02*
X156311000Y-117963000D01*
G75*
G02*
X156161000Y-118113000I-150000J0D01*
G01*
X154411000Y-118113000D01*
G75*
G02*
X154261000Y-117963000I0J150000D01*
G01*
X154261000Y-117663000D01*
G75*
G02*
X154411000Y-117513000I150000J0D01*
G01*
X156161000Y-117513000D01*
G75*
G02*
X156311000Y-117663000I0J-150000D01*
G01*
G37*
%TD.AperFunction*%
%TO.P,U4,5*%
%TO.N,Net-(D6-Pad2)*%
%TA.AperFunction,SMDPad,CuDef*%
G36*
G01*
X156311000Y-116393000D02*
X156311000Y-116693000D01*
G75*
G02*
X156161000Y-116843000I-150000J0D01*
G01*
X154411000Y-116843000D01*
G75*
G02*
X154261000Y-116693000I0J150000D01*
G01*
X154261000Y-116393000D01*
G75*
G02*
X154411000Y-116243000I150000J0D01*
G01*
X156161000Y-116243000D01*
G75*
G02*
X156311000Y-116393000I0J-150000D01*
G01*
G37*
%TD.AperFunction*%
%TO.P,U4,6*%
%TO.N,Net-(D6-Pad3)*%
%TA.AperFunction,SMDPad,CuDef*%
G36*
G01*
X156311000Y-115123000D02*
X156311000Y-115423000D01*
G75*
G02*
X156161000Y-115573000I-150000J0D01*
G01*
X154411000Y-115573000D01*
G75*
G02*
X154261000Y-115423000I0J150000D01*
G01*
X154261000Y-115123000D01*
G75*
G02*
X154411000Y-114973000I150000J0D01*
G01*
X156161000Y-114973000D01*
G75*
G02*
X156311000Y-115123000I0J-150000D01*
G01*
G37*
%TD.AperFunction*%
%TO.P,U4,7*%
%TO.N,42*%
%TA.AperFunction,SMDPad,CuDef*%
G36*
G01*
X156311000Y-113853000D02*
X156311000Y-114153000D01*
G75*
G02*
X156161000Y-114303000I-150000J0D01*
G01*
X154411000Y-114303000D01*
G75*
G02*
X154261000Y-114153000I0J150000D01*
G01*
X154261000Y-113853000D01*
G75*
G02*
X154411000Y-113703000I150000J0D01*
G01*
X156161000Y-113703000D01*
G75*
G02*
X156311000Y-113853000I0J-150000D01*
G01*
G37*
%TD.AperFunction*%
%TO.P,U4,8*%
%TO.N,54*%
%TA.AperFunction,SMDPad,CuDef*%
G36*
G01*
X156311000Y-112583000D02*
X156311000Y-112883000D01*
G75*
G02*
X156161000Y-113033000I-150000J0D01*
G01*
X154411000Y-113033000D01*
G75*
G02*
X154261000Y-112883000I0J150000D01*
G01*
X154261000Y-112583000D01*
G75*
G02*
X154411000Y-112433000I150000J0D01*
G01*
X156161000Y-112433000D01*
G75*
G02*
X156311000Y-112583000I0J-150000D01*
G01*
G37*
%TD.AperFunction*%
%TO.P,U4,9*%
%TO.N,Net-(D5-Pad3)*%
%TA.AperFunction,SMDPad,CuDef*%
G36*
G01*
X156311000Y-111313000D02*
X156311000Y-111613000D01*
G75*
G02*
X156161000Y-111763000I-150000J0D01*
G01*
X154411000Y-111763000D01*
G75*
G02*
X154261000Y-111613000I0J150000D01*
G01*
X154261000Y-111313000D01*
G75*
G02*
X154411000Y-111163000I150000J0D01*
G01*
X156161000Y-111163000D01*
G75*
G02*
X156311000Y-111313000I0J-150000D01*
G01*
G37*
%TD.AperFunction*%
%TO.P,U4,10*%
%TO.N,52*%
%TA.AperFunction,SMDPad,CuDef*%
G36*
G01*
X156311000Y-110043000D02*
X156311000Y-110343000D01*
G75*
G02*
X156161000Y-110493000I-150000J0D01*
G01*
X154411000Y-110493000D01*
G75*
G02*
X154261000Y-110343000I0J150000D01*
G01*
X154261000Y-110043000D01*
G75*
G02*
X154411000Y-109893000I150000J0D01*
G01*
X156161000Y-109893000D01*
G75*
G02*
X156311000Y-110043000I0J-150000D01*
G01*
G37*
%TD.AperFunction*%
%TO.P,U4,11*%
%TO.N,64*%
%TA.AperFunction,SMDPad,CuDef*%
G36*
G01*
X156311000Y-108773000D02*
X156311000Y-109073000D01*
G75*
G02*
X156161000Y-109223000I-150000J0D01*
G01*
X154411000Y-109223000D01*
G75*
G02*
X154261000Y-109073000I0J150000D01*
G01*
X154261000Y-108773000D01*
G75*
G02*
X154411000Y-108623000I150000J0D01*
G01*
X156161000Y-108623000D01*
G75*
G02*
X156311000Y-108773000I0J-150000D01*
G01*
G37*
%TD.AperFunction*%
%TO.P,U4,12*%
%TO.N,Earth*%
%TA.AperFunction,SMDPad,CuDef*%
G36*
G01*
X156311000Y-107503000D02*
X156311000Y-107803000D01*
G75*
G02*
X156161000Y-107953000I-150000J0D01*
G01*
X154411000Y-107953000D01*
G75*
G02*
X154261000Y-107803000I0J150000D01*
G01*
X154261000Y-107503000D01*
G75*
G02*
X154411000Y-107353000I150000J0D01*
G01*
X156161000Y-107353000D01*
G75*
G02*
X156311000Y-107503000I0J-150000D01*
G01*
G37*
%TD.AperFunction*%
%TO.P,U4,13*%
%TO.N,Net-(D4-Pad3)*%
%TA.AperFunction,SMDPad,CuDef*%
G36*
G01*
X147011000Y-107503000D02*
X147011000Y-107803000D01*
G75*
G02*
X146861000Y-107953000I-150000J0D01*
G01*
X145111000Y-107953000D01*
G75*
G02*
X144961000Y-107803000I0J150000D01*
G01*
X144961000Y-107503000D01*
G75*
G02*
X145111000Y-107353000I150000J0D01*
G01*
X146861000Y-107353000D01*
G75*
G02*
X147011000Y-107503000I0J-150000D01*
G01*
G37*
%TD.AperFunction*%
%TO.P,U4,14*%
%TO.N,Net-(D4-Pad4)*%
%TA.AperFunction,SMDPad,CuDef*%
G36*
G01*
X147011000Y-108773000D02*
X147011000Y-109073000D01*
G75*
G02*
X146861000Y-109223000I-150000J0D01*
G01*
X145111000Y-109223000D01*
G75*
G02*
X144961000Y-109073000I0J150000D01*
G01*
X144961000Y-108773000D01*
G75*
G02*
X145111000Y-108623000I150000J0D01*
G01*
X146861000Y-108623000D01*
G75*
G02*
X147011000Y-108773000I0J-150000D01*
G01*
G37*
%TD.AperFunction*%
%TO.P,U4,15*%
%TO.N,Net-(D3-Pad4)*%
%TA.AperFunction,SMDPad,CuDef*%
G36*
G01*
X147011000Y-110043000D02*
X147011000Y-110343000D01*
G75*
G02*
X146861000Y-110493000I-150000J0D01*
G01*
X145111000Y-110493000D01*
G75*
G02*
X144961000Y-110343000I0J150000D01*
G01*
X144961000Y-110043000D01*
G75*
G02*
X145111000Y-109893000I150000J0D01*
G01*
X146861000Y-109893000D01*
G75*
G02*
X147011000Y-110043000I0J-150000D01*
G01*
G37*
%TD.AperFunction*%
%TO.P,U4,16*%
%TO.N,Net-(D3-Pad3)*%
%TA.AperFunction,SMDPad,CuDef*%
G36*
G01*
X147011000Y-111313000D02*
X147011000Y-111613000D01*
G75*
G02*
X146861000Y-111763000I-150000J0D01*
G01*
X145111000Y-111763000D01*
G75*
G02*
X144961000Y-111613000I0J150000D01*
G01*
X144961000Y-111313000D01*
G75*
G02*
X145111000Y-111163000I150000J0D01*
G01*
X146861000Y-111163000D01*
G75*
G02*
X147011000Y-111313000I0J-150000D01*
G01*
G37*
%TD.AperFunction*%
%TO.P,U4,17*%
%TO.N,Net-(D3-Pad2)*%
%TA.AperFunction,SMDPad,CuDef*%
G36*
G01*
X147011000Y-112583000D02*
X147011000Y-112883000D01*
G75*
G02*
X146861000Y-113033000I-150000J0D01*
G01*
X145111000Y-113033000D01*
G75*
G02*
X144961000Y-112883000I0J150000D01*
G01*
X144961000Y-112583000D01*
G75*
G02*
X145111000Y-112433000I150000J0D01*
G01*
X146861000Y-112433000D01*
G75*
G02*
X147011000Y-112583000I0J-150000D01*
G01*
G37*
%TD.AperFunction*%
%TO.P,U4,18*%
%TO.N,Net-(D2-Pad2)*%
%TA.AperFunction,SMDPad,CuDef*%
G36*
G01*
X147011000Y-113853000D02*
X147011000Y-114153000D01*
G75*
G02*
X146861000Y-114303000I-150000J0D01*
G01*
X145111000Y-114303000D01*
G75*
G02*
X144961000Y-114153000I0J150000D01*
G01*
X144961000Y-113853000D01*
G75*
G02*
X145111000Y-113703000I150000J0D01*
G01*
X146861000Y-113703000D01*
G75*
G02*
X147011000Y-113853000I0J-150000D01*
G01*
G37*
%TD.AperFunction*%
%TO.P,U4,19*%
%TO.N,Net-(D2-Pad3)*%
%TA.AperFunction,SMDPad,CuDef*%
G36*
G01*
X147011000Y-115123000D02*
X147011000Y-115423000D01*
G75*
G02*
X146861000Y-115573000I-150000J0D01*
G01*
X145111000Y-115573000D01*
G75*
G02*
X144961000Y-115423000I0J150000D01*
G01*
X144961000Y-115123000D01*
G75*
G02*
X145111000Y-114973000I150000J0D01*
G01*
X146861000Y-114973000D01*
G75*
G02*
X147011000Y-115123000I0J-150000D01*
G01*
G37*
%TD.AperFunction*%
%TO.P,U4,20*%
%TO.N,Net-(D2-Pad4)*%
%TA.AperFunction,SMDPad,CuDef*%
G36*
G01*
X147011000Y-116393000D02*
X147011000Y-116693000D01*
G75*
G02*
X146861000Y-116843000I-150000J0D01*
G01*
X145111000Y-116843000D01*
G75*
G02*
X144961000Y-116693000I0J150000D01*
G01*
X144961000Y-116393000D01*
G75*
G02*
X145111000Y-116243000I150000J0D01*
G01*
X146861000Y-116243000D01*
G75*
G02*
X147011000Y-116393000I0J-150000D01*
G01*
G37*
%TD.AperFunction*%
%TO.P,U4,21*%
%TO.N,Net-(R1-Pad1)*%
%TA.AperFunction,SMDPad,CuDef*%
G36*
G01*
X147011000Y-117663000D02*
X147011000Y-117963000D01*
G75*
G02*
X146861000Y-118113000I-150000J0D01*
G01*
X145111000Y-118113000D01*
G75*
G02*
X144961000Y-117963000I0J150000D01*
G01*
X144961000Y-117663000D01*
G75*
G02*
X145111000Y-117513000I150000J0D01*
G01*
X146861000Y-117513000D01*
G75*
G02*
X147011000Y-117663000I0J-150000D01*
G01*
G37*
%TD.AperFunction*%
%TO.P,U4,22*%
%TO.N,SCL0*%
%TA.AperFunction,SMDPad,CuDef*%
G36*
G01*
X147011000Y-118933000D02*
X147011000Y-119233000D01*
G75*
G02*
X146861000Y-119383000I-150000J0D01*
G01*
X145111000Y-119383000D01*
G75*
G02*
X144961000Y-119233000I0J150000D01*
G01*
X144961000Y-118933000D01*
G75*
G02*
X145111000Y-118783000I150000J0D01*
G01*
X146861000Y-118783000D01*
G75*
G02*
X147011000Y-118933000I0J-150000D01*
G01*
G37*
%TD.AperFunction*%
%TO.P,U4,23*%
%TO.N,SDA0*%
%TA.AperFunction,SMDPad,CuDef*%
G36*
G01*
X147011000Y-120203000D02*
X147011000Y-120503000D01*
G75*
G02*
X146861000Y-120653000I-150000J0D01*
G01*
X145111000Y-120653000D01*
G75*
G02*
X144961000Y-120503000I0J150000D01*
G01*
X144961000Y-120203000D01*
G75*
G02*
X145111000Y-120053000I150000J0D01*
G01*
X146861000Y-120053000D01*
G75*
G02*
X147011000Y-120203000I0J-150000D01*
G01*
G37*
%TD.AperFunction*%
%TO.P,U4,24*%
%TO.N,+3V3*%
%TA.AperFunction,SMDPad,CuDef*%
G36*
G01*
X147011000Y-121473000D02*
X147011000Y-121773000D01*
G75*
G02*
X146861000Y-121923000I-150000J0D01*
G01*
X145111000Y-121923000D01*
G75*
G02*
X144961000Y-121773000I0J150000D01*
G01*
X144961000Y-121473000D01*
G75*
G02*
X145111000Y-121323000I150000J0D01*
G01*
X146861000Y-121323000D01*
G75*
G02*
X147011000Y-121473000I0J-150000D01*
G01*
G37*
%TD.AperFunction*%
%TD*%
D21*
%TO.P,LS1,1*%
%TO.N,Earth*%
X197006000Y-125638000D03*
D22*
%TO.P,LS1,2*%
%TO.N,Net-(LS1-Pad2)*%
X189406000Y-125638000D03*
%TD*%
D15*
%TO.P,DS2,1*%
%TO.N,+3V3*%
X177306000Y-77808000D03*
%TO.P,DS2,2*%
%TO.N,Earth*%
X177306000Y-75268000D03*
%TO.P,DS2,3*%
%TO.N,SCL1*%
X177306000Y-72728000D03*
%TO.P,DS2,4*%
%TO.N,SDA1*%
X177306000Y-70188000D03*
D23*
%TO.P,DS2,*%
%TO.N,*%
X177976000Y-61748000D03*
X177976000Y-86248000D03*
X201976000Y-86248000D03*
X201976000Y-61748000D03*
%TD*%
D15*
%TO.P,DS1,1*%
%TO.N,+3V3*%
X131586000Y-70188000D03*
%TO.P,DS1,2*%
%TO.N,Earth*%
X131586000Y-72728000D03*
%TO.P,DS1,3*%
%TO.N,SCL0*%
X131586000Y-75268000D03*
%TO.P,DS1,4*%
%TO.N,SDA0*%
X131586000Y-77808000D03*
D23*
%TO.P,DS1,*%
%TO.N,*%
X130916000Y-86248000D03*
X130916000Y-61748000D03*
X106916000Y-61748000D03*
X106916000Y-86248000D03*
%TD*%
D16*
%TO.P,R7,1*%
%TO.N,INT0*%
X189406000Y-102778000D03*
D19*
%TO.P,R7,2*%
%TO.N,+3V3*%
X189406000Y-95158000D03*
%TD*%
D16*
%TO.P,R5,1*%
%TO.N,SCL1*%
X194486000Y-95158000D03*
D19*
%TO.P,R5,2*%
%TO.N,+3V3*%
X194486000Y-102778000D03*
%TD*%
D16*
%TO.P,R4,1*%
%TO.N,SDA0*%
X125906000Y-90548000D03*
D19*
%TO.P,R4,2*%
%TO.N,+3V3*%
X125906000Y-98168000D03*
%TD*%
D16*
%TO.P,R3,1*%
%TO.N,SCL0*%
X129716000Y-90548000D03*
D19*
%TO.P,R3,2*%
%TO.N,+3V3*%
X129716000Y-98168000D03*
%TD*%
D17*
%TO.P,D10,1*%
%TO.N,Net-(D10-Pad1)*%
X167146000Y-62568000D03*
D18*
%TO.P,D10,3*%
%TO.N,Net-(D10-Pad3)*%
X167146000Y-60028000D03*
%TO.P,D10,4*%
%TO.N,Net-(D10-Pad4)*%
X167146000Y-57488000D03*
%TO.P,D10,2*%
%TO.N,Net-(D10-Pad2)*%
X167146000Y-65108000D03*
%TD*%
D17*
%TO.P,D9,1*%
%TO.N,Net-(D9-Pad1)*%
X167146000Y-75268000D03*
D18*
%TO.P,D9,3*%
%TO.N,Net-(D9-Pad3)*%
X167146000Y-72728000D03*
%TO.P,D9,4*%
%TO.N,Net-(D9-Pad4)*%
X167146000Y-70188000D03*
%TO.P,D9,2*%
%TO.N,Net-(D9-Pad2)*%
X167146000Y-77808000D03*
%TD*%
D17*
%TO.P,D8,1*%
%TO.N,Net-(D8-Pad1)*%
X167146000Y-87968000D03*
D18*
%TO.P,D8,3*%
%TO.N,Net-(D8-Pad3)*%
X167146000Y-85428000D03*
%TO.P,D8,4*%
%TO.N,Net-(D8-Pad4)*%
X167146000Y-82888000D03*
%TO.P,D8,2*%
%TO.N,Net-(D8-Pad2)*%
X167146000Y-90508000D03*
%TD*%
D17*
%TO.P,D7,1*%
%TO.N,Net-(D7-Pad1)*%
X154446000Y-62568000D03*
D18*
%TO.P,D7,3*%
%TO.N,Net-(D7-Pad3)*%
X154446000Y-60028000D03*
%TO.P,D7,4*%
%TO.N,Net-(D7-Pad4)*%
X154446000Y-57488000D03*
%TO.P,D7,2*%
%TO.N,Net-(D7-Pad2)*%
X154446000Y-65108000D03*
%TD*%
D17*
%TO.P,D6,1*%
%TO.N,Net-(D6-Pad1)*%
X154446000Y-75268000D03*
D18*
%TO.P,D6,3*%
%TO.N,Net-(D6-Pad3)*%
X154446000Y-72728000D03*
%TO.P,D6,4*%
%TO.N,64*%
X154446000Y-70188000D03*
%TO.P,D6,2*%
%TO.N,Net-(D6-Pad2)*%
X154446000Y-77808000D03*
%TD*%
D17*
%TO.P,D5,1*%
%TO.N,Net-(D5-Pad1)*%
X154446000Y-87968000D03*
D18*
%TO.P,D5,3*%
%TO.N,Net-(D5-Pad3)*%
X154446000Y-85428000D03*
%TO.P,D5,4*%
%TO.N,54*%
X154446000Y-82888000D03*
%TO.P,D5,2*%
%TO.N,52*%
X154446000Y-90508000D03*
%TD*%
D17*
%TO.P,D4,1*%
%TO.N,Net-(D4-Pad1)*%
X141746000Y-62568000D03*
D18*
%TO.P,D4,3*%
%TO.N,Net-(D4-Pad3)*%
X141746000Y-60028000D03*
%TO.P,D4,4*%
%TO.N,Net-(D4-Pad4)*%
X141746000Y-57488000D03*
%TO.P,D4,2*%
%TO.N,42*%
X141746000Y-65108000D03*
%TD*%
D17*
%TO.P,D2,1*%
%TO.N,Net-(D2-Pad1)*%
X141746000Y-87968000D03*
D18*
%TO.P,D2,3*%
%TO.N,Net-(D2-Pad3)*%
X141746000Y-85428000D03*
%TO.P,D2,4*%
%TO.N,Net-(D2-Pad4)*%
X141746000Y-82888000D03*
%TO.P,D2,2*%
%TO.N,Net-(D2-Pad2)*%
X141746000Y-90508000D03*
%TD*%
D16*
%TO.P,R2,1*%
%TO.N,Net-(R2-Pad1)*%
X166566000Y-126468000D03*
D19*
%TO.P,R2,2*%
%TO.N,+3V3*%
X174186000Y-126468000D03*
%TD*%
D24*
%TO.P,J2,1*%
%TO.N,Earth*%
X131586000Y-126068000D03*
D25*
%TO.P,J2,2*%
%TO.N,Net-(F1-Pad1)*%
X134126000Y-126068000D03*
%TO.P,J2,3*%
%TO.N,GPIO13*%
X136666000Y-126068000D03*
%TO.P,J2,4*%
%TO.N,GPIO12*%
X139206000Y-126068000D03*
%TO.P,J2,5*%
%TO.N,GPIO11*%
X141746000Y-126068000D03*
%TO.P,J2,6*%
%TO.N,GPIO10*%
X144286000Y-126068000D03*
%TD*%
%TO.P,U3,1*%
%TO.N,INT1*%
%TA.AperFunction,SMDPad,CuDef*%
G36*
G01*
X142341000Y-121473000D02*
X142341000Y-121773000D01*
G75*
G02*
X142191000Y-121923000I-150000J0D01*
G01*
X140441000Y-121923000D01*
G75*
G02*
X140291000Y-121773000I0J150000D01*
G01*
X140291000Y-121473000D01*
G75*
G02*
X140441000Y-121323000I150000J0D01*
G01*
X142191000Y-121323000D01*
G75*
G02*
X142341000Y-121473000I0J-150000D01*
G01*
G37*
%TD.AperFunction*%
%TO.P,U3,2*%
%TO.N,Earth*%
%TA.AperFunction,SMDPad,CuDef*%
G36*
G01*
X142341000Y-120203000D02*
X142341000Y-120503000D01*
G75*
G02*
X142191000Y-120653000I-150000J0D01*
G01*
X140441000Y-120653000D01*
G75*
G02*
X140291000Y-120503000I0J150000D01*
G01*
X140291000Y-120203000D01*
G75*
G02*
X140441000Y-120053000I150000J0D01*
G01*
X142191000Y-120053000D01*
G75*
G02*
X142341000Y-120203000I0J-150000D01*
G01*
G37*
%TD.AperFunction*%
%TO.P,U3,3*%
%TA.AperFunction,SMDPad,CuDef*%
G36*
G01*
X142341000Y-118933000D02*
X142341000Y-119233000D01*
G75*
G02*
X142191000Y-119383000I-150000J0D01*
G01*
X140441000Y-119383000D01*
G75*
G02*
X140291000Y-119233000I0J150000D01*
G01*
X140291000Y-118933000D01*
G75*
G02*
X140441000Y-118783000I150000J0D01*
G01*
X142191000Y-118783000D01*
G75*
G02*
X142341000Y-118933000I0J-150000D01*
G01*
G37*
%TD.AperFunction*%
%TO.P,U3,4*%
%TO.N,sw10*%
%TA.AperFunction,SMDPad,CuDef*%
G36*
G01*
X142341000Y-117663000D02*
X142341000Y-117963000D01*
G75*
G02*
X142191000Y-118113000I-150000J0D01*
G01*
X140441000Y-118113000D01*
G75*
G02*
X140291000Y-117963000I0J150000D01*
G01*
X140291000Y-117663000D01*
G75*
G02*
X140441000Y-117513000I150000J0D01*
G01*
X142191000Y-117513000D01*
G75*
G02*
X142341000Y-117663000I0J-150000D01*
G01*
G37*
%TD.AperFunction*%
%TO.P,U3,5*%
%TO.N,sw11*%
%TA.AperFunction,SMDPad,CuDef*%
G36*
G01*
X142341000Y-116393000D02*
X142341000Y-116693000D01*
G75*
G02*
X142191000Y-116843000I-150000J0D01*
G01*
X140441000Y-116843000D01*
G75*
G02*
X140291000Y-116693000I0J150000D01*
G01*
X140291000Y-116393000D01*
G75*
G02*
X140441000Y-116243000I150000J0D01*
G01*
X142191000Y-116243000D01*
G75*
G02*
X142341000Y-116393000I0J-150000D01*
G01*
G37*
%TD.AperFunction*%
%TO.P,U3,6*%
%TO.N,sw12*%
%TA.AperFunction,SMDPad,CuDef*%
G36*
G01*
X142341000Y-115123000D02*
X142341000Y-115423000D01*
G75*
G02*
X142191000Y-115573000I-150000J0D01*
G01*
X140441000Y-115573000D01*
G75*
G02*
X140291000Y-115423000I0J150000D01*
G01*
X140291000Y-115123000D01*
G75*
G02*
X140441000Y-114973000I150000J0D01*
G01*
X142191000Y-114973000D01*
G75*
G02*
X142341000Y-115123000I0J-150000D01*
G01*
G37*
%TD.AperFunction*%
%TO.P,U3,7*%
%TO.N,sw13*%
%TA.AperFunction,SMDPad,CuDef*%
G36*
G01*
X142341000Y-113853000D02*
X142341000Y-114153000D01*
G75*
G02*
X142191000Y-114303000I-150000J0D01*
G01*
X140441000Y-114303000D01*
G75*
G02*
X140291000Y-114153000I0J150000D01*
G01*
X140291000Y-113853000D01*
G75*
G02*
X140441000Y-113703000I150000J0D01*
G01*
X142191000Y-113703000D01*
G75*
G02*
X142341000Y-113853000I0J-150000D01*
G01*
G37*
%TD.AperFunction*%
%TO.P,U3,8*%
%TO.N,sw14*%
%TA.AperFunction,SMDPad,CuDef*%
G36*
G01*
X142341000Y-112583000D02*
X142341000Y-112883000D01*
G75*
G02*
X142191000Y-113033000I-150000J0D01*
G01*
X140441000Y-113033000D01*
G75*
G02*
X140291000Y-112883000I0J150000D01*
G01*
X140291000Y-112583000D01*
G75*
G02*
X140441000Y-112433000I150000J0D01*
G01*
X142191000Y-112433000D01*
G75*
G02*
X142341000Y-112583000I0J-150000D01*
G01*
G37*
%TD.AperFunction*%
%TO.P,U3,9*%
%TO.N,sw15*%
%TA.AperFunction,SMDPad,CuDef*%
G36*
G01*
X142341000Y-111313000D02*
X142341000Y-111613000D01*
G75*
G02*
X142191000Y-111763000I-150000J0D01*
G01*
X140441000Y-111763000D01*
G75*
G02*
X140291000Y-111613000I0J150000D01*
G01*
X140291000Y-111313000D01*
G75*
G02*
X140441000Y-111163000I150000J0D01*
G01*
X142191000Y-111163000D01*
G75*
G02*
X142341000Y-111313000I0J-150000D01*
G01*
G37*
%TD.AperFunction*%
%TO.P,U3,10*%
%TO.N,sw16*%
%TA.AperFunction,SMDPad,CuDef*%
G36*
G01*
X142341000Y-110043000D02*
X142341000Y-110343000D01*
G75*
G02*
X142191000Y-110493000I-150000J0D01*
G01*
X140441000Y-110493000D01*
G75*
G02*
X140291000Y-110343000I0J150000D01*
G01*
X140291000Y-110043000D01*
G75*
G02*
X140441000Y-109893000I150000J0D01*
G01*
X142191000Y-109893000D01*
G75*
G02*
X142341000Y-110043000I0J-150000D01*
G01*
G37*
%TD.AperFunction*%
%TO.P,U3,11*%
%TO.N,sw17*%
%TA.AperFunction,SMDPad,CuDef*%
G36*
G01*
X142341000Y-108773000D02*
X142341000Y-109073000D01*
G75*
G02*
X142191000Y-109223000I-150000J0D01*
G01*
X140441000Y-109223000D01*
G75*
G02*
X140291000Y-109073000I0J150000D01*
G01*
X140291000Y-108773000D01*
G75*
G02*
X140441000Y-108623000I150000J0D01*
G01*
X142191000Y-108623000D01*
G75*
G02*
X142341000Y-108773000I0J-150000D01*
G01*
G37*
%TD.AperFunction*%
%TO.P,U3,12*%
%TO.N,Earth*%
%TA.AperFunction,SMDPad,CuDef*%
G36*
G01*
X142341000Y-107503000D02*
X142341000Y-107803000D01*
G75*
G02*
X142191000Y-107953000I-150000J0D01*
G01*
X140441000Y-107953000D01*
G75*
G02*
X140291000Y-107803000I0J150000D01*
G01*
X140291000Y-107503000D01*
G75*
G02*
X140441000Y-107353000I150000J0D01*
G01*
X142191000Y-107353000D01*
G75*
G02*
X142341000Y-107503000I0J-150000D01*
G01*
G37*
%TD.AperFunction*%
%TO.P,U3,13*%
%TO.N,sw18*%
%TA.AperFunction,SMDPad,CuDef*%
G36*
G01*
X133041000Y-107503000D02*
X133041000Y-107803000D01*
G75*
G02*
X132891000Y-107953000I-150000J0D01*
G01*
X131141000Y-107953000D01*
G75*
G02*
X130991000Y-107803000I0J150000D01*
G01*
X130991000Y-107503000D01*
G75*
G02*
X131141000Y-107353000I150000J0D01*
G01*
X132891000Y-107353000D01*
G75*
G02*
X133041000Y-107503000I0J-150000D01*
G01*
G37*
%TD.AperFunction*%
%TO.P,U3,14*%
%TO.N,c1*%
%TA.AperFunction,SMDPad,CuDef*%
G36*
G01*
X133041000Y-108773000D02*
X133041000Y-109073000D01*
G75*
G02*
X132891000Y-109223000I-150000J0D01*
G01*
X131141000Y-109223000D01*
G75*
G02*
X130991000Y-109073000I0J150000D01*
G01*
X130991000Y-108773000D01*
G75*
G02*
X131141000Y-108623000I150000J0D01*
G01*
X132891000Y-108623000D01*
G75*
G02*
X133041000Y-108773000I0J-150000D01*
G01*
G37*
%TD.AperFunction*%
%TO.P,U3,15*%
%TO.N,c2*%
%TA.AperFunction,SMDPad,CuDef*%
G36*
G01*
X133041000Y-110043000D02*
X133041000Y-110343000D01*
G75*
G02*
X132891000Y-110493000I-150000J0D01*
G01*
X131141000Y-110493000D01*
G75*
G02*
X130991000Y-110343000I0J150000D01*
G01*
X130991000Y-110043000D01*
G75*
G02*
X131141000Y-109893000I150000J0D01*
G01*
X132891000Y-109893000D01*
G75*
G02*
X133041000Y-110043000I0J-150000D01*
G01*
G37*
%TD.AperFunction*%
%TO.P,U3,16*%
%TO.N,c3*%
%TA.AperFunction,SMDPad,CuDef*%
G36*
G01*
X133041000Y-111313000D02*
X133041000Y-111613000D01*
G75*
G02*
X132891000Y-111763000I-150000J0D01*
G01*
X131141000Y-111763000D01*
G75*
G02*
X130991000Y-111613000I0J150000D01*
G01*
X130991000Y-111313000D01*
G75*
G02*
X131141000Y-111163000I150000J0D01*
G01*
X132891000Y-111163000D01*
G75*
G02*
X133041000Y-111313000I0J-150000D01*
G01*
G37*
%TD.AperFunction*%
%TO.P,U3,17*%
%TO.N,c4*%
%TA.AperFunction,SMDPad,CuDef*%
G36*
G01*
X133041000Y-112583000D02*
X133041000Y-112883000D01*
G75*
G02*
X132891000Y-113033000I-150000J0D01*
G01*
X131141000Y-113033000D01*
G75*
G02*
X130991000Y-112883000I0J150000D01*
G01*
X130991000Y-112583000D01*
G75*
G02*
X131141000Y-112433000I150000J0D01*
G01*
X132891000Y-112433000D01*
G75*
G02*
X133041000Y-112583000I0J-150000D01*
G01*
G37*
%TD.AperFunction*%
%TO.P,U3,18*%
%TO.N,c5*%
%TA.AperFunction,SMDPad,CuDef*%
G36*
G01*
X133041000Y-113853000D02*
X133041000Y-114153000D01*
G75*
G02*
X132891000Y-114303000I-150000J0D01*
G01*
X131141000Y-114303000D01*
G75*
G02*
X130991000Y-114153000I0J150000D01*
G01*
X130991000Y-113853000D01*
G75*
G02*
X131141000Y-113703000I150000J0D01*
G01*
X132891000Y-113703000D01*
G75*
G02*
X133041000Y-113853000I0J-150000D01*
G01*
G37*
%TD.AperFunction*%
%TO.P,U3,19*%
%TO.N,c6*%
%TA.AperFunction,SMDPad,CuDef*%
G36*
G01*
X133041000Y-115123000D02*
X133041000Y-115423000D01*
G75*
G02*
X132891000Y-115573000I-150000J0D01*
G01*
X131141000Y-115573000D01*
G75*
G02*
X130991000Y-115423000I0J150000D01*
G01*
X130991000Y-115123000D01*
G75*
G02*
X131141000Y-114973000I150000J0D01*
G01*
X132891000Y-114973000D01*
G75*
G02*
X133041000Y-115123000I0J-150000D01*
G01*
G37*
%TD.AperFunction*%
%TO.P,U3,20*%
%TO.N,c7*%
%TA.AperFunction,SMDPad,CuDef*%
G36*
G01*
X133041000Y-116393000D02*
X133041000Y-116693000D01*
G75*
G02*
X132891000Y-116843000I-150000J0D01*
G01*
X131141000Y-116843000D01*
G75*
G02*
X130991000Y-116693000I0J150000D01*
G01*
X130991000Y-116393000D01*
G75*
G02*
X131141000Y-116243000I150000J0D01*
G01*
X132891000Y-116243000D01*
G75*
G02*
X133041000Y-116393000I0J-150000D01*
G01*
G37*
%TD.AperFunction*%
%TO.P,U3,21*%
%TO.N,+3V3*%
%TA.AperFunction,SMDPad,CuDef*%
G36*
G01*
X133041000Y-117663000D02*
X133041000Y-117963000D01*
G75*
G02*
X132891000Y-118113000I-150000J0D01*
G01*
X131141000Y-118113000D01*
G75*
G02*
X130991000Y-117963000I0J150000D01*
G01*
X130991000Y-117663000D01*
G75*
G02*
X131141000Y-117513000I150000J0D01*
G01*
X132891000Y-117513000D01*
G75*
G02*
X133041000Y-117663000I0J-150000D01*
G01*
G37*
%TD.AperFunction*%
%TO.P,U3,22*%
%TO.N,SCL1*%
%TA.AperFunction,SMDPad,CuDef*%
G36*
G01*
X133041000Y-118933000D02*
X133041000Y-119233000D01*
G75*
G02*
X132891000Y-119383000I-150000J0D01*
G01*
X131141000Y-119383000D01*
G75*
G02*
X130991000Y-119233000I0J150000D01*
G01*
X130991000Y-118933000D01*
G75*
G02*
X131141000Y-118783000I150000J0D01*
G01*
X132891000Y-118783000D01*
G75*
G02*
X133041000Y-118933000I0J-150000D01*
G01*
G37*
%TD.AperFunction*%
%TO.P,U3,23*%
%TO.N,SDA1*%
%TA.AperFunction,SMDPad,CuDef*%
G36*
G01*
X133041000Y-120203000D02*
X133041000Y-120503000D01*
G75*
G02*
X132891000Y-120653000I-150000J0D01*
G01*
X131141000Y-120653000D01*
G75*
G02*
X130991000Y-120503000I0J150000D01*
G01*
X130991000Y-120203000D01*
G75*
G02*
X131141000Y-120053000I150000J0D01*
G01*
X132891000Y-120053000D01*
G75*
G02*
X133041000Y-120203000I0J-150000D01*
G01*
G37*
%TD.AperFunction*%
%TO.P,U3,24*%
%TO.N,+3V3*%
%TA.AperFunction,SMDPad,CuDef*%
G36*
G01*
X133041000Y-121473000D02*
X133041000Y-121773000D01*
G75*
G02*
X132891000Y-121923000I-150000J0D01*
G01*
X131141000Y-121923000D01*
G75*
G02*
X130991000Y-121773000I0J150000D01*
G01*
X130991000Y-121473000D01*
G75*
G02*
X131141000Y-121323000I150000J0D01*
G01*
X132891000Y-121323000D01*
G75*
G02*
X133041000Y-121473000I0J-150000D01*
G01*
G37*
%TD.AperFunction*%
%TD*%
D20*
%TO.P,SW19,1*%
%TO.N,sw19*%
X214757000Y-113919000D03*
D19*
%TO.P,SW19,8*%
%TO.N,Earth*%
X222377000Y-129159000D03*
%TO.P,SW19,2*%
%TO.N,sw20*%
X214757000Y-116459000D03*
%TO.P,SW19,9*%
%TO.N,Earth*%
X222377000Y-126619000D03*
%TO.P,SW19,3*%
%TO.N,sw21*%
X214757000Y-118999000D03*
%TO.P,SW19,10*%
%TO.N,Earth*%
X222377000Y-124079000D03*
%TO.P,SW19,4*%
%TO.N,sw22*%
X214757000Y-121539000D03*
%TO.P,SW19,11*%
%TO.N,Earth*%
X222377000Y-121539000D03*
%TO.P,SW19,5*%
%TO.N,sw23*%
X214757000Y-124079000D03*
%TO.P,SW19,12*%
%TO.N,Earth*%
X222377000Y-118999000D03*
%TO.P,SW19,6*%
%TO.N,sw24*%
X214757000Y-126619000D03*
%TO.P,SW19,13*%
%TO.N,Earth*%
X222377000Y-116459000D03*
%TO.P,SW19,7*%
%TO.N,sw25*%
X214757000Y-129159000D03*
%TO.P,SW19,14*%
%TO.N,Earth*%
X222377000Y-113919000D03*
%TD*%
D22*
%TO.P,SW18,2*%
%TO.N,Earth*%
X85612000Y-63177600D03*
%TO.P,SW18,1*%
%TO.N,sw18*%
X85612000Y-58021400D03*
%TD*%
%TO.P,SW17,2*%
%TO.N,Earth*%
X85612000Y-75877600D03*
%TO.P,SW17,1*%
%TO.N,sw17*%
X85612000Y-70721400D03*
%TD*%
%TO.P,SW16,2*%
%TO.N,Earth*%
X85612000Y-88577600D03*
%TO.P,SW16,1*%
%TO.N,sw16*%
X85612000Y-83421400D03*
%TD*%
%TO.P,SW15,2*%
%TO.N,Earth*%
X74182000Y-63177600D03*
%TO.P,SW15,1*%
%TO.N,sw15*%
X74182000Y-58021400D03*
%TD*%
%TO.P,SW14,2*%
%TO.N,Earth*%
X74182000Y-75877600D03*
%TO.P,SW14,1*%
%TO.N,sw14*%
X74182000Y-70721400D03*
%TD*%
%TO.P,SW13,2*%
%TO.N,Earth*%
X74182000Y-88577600D03*
%TO.P,SW13,1*%
%TO.N,sw13*%
X74182000Y-83421400D03*
%TD*%
%TO.P,SW12,2*%
%TO.N,Earth*%
X62752000Y-63177600D03*
%TO.P,SW12,1*%
%TO.N,sw12*%
X62752000Y-58021400D03*
%TD*%
%TO.P,SW11,2*%
%TO.N,Earth*%
X62752000Y-75877600D03*
%TO.P,SW11,1*%
%TO.N,sw11*%
X62752000Y-70721400D03*
%TD*%
%TO.P,SW10,2*%
%TO.N,Earth*%
X62752000Y-88577600D03*
%TO.P,SW10,1*%
%TO.N,sw10*%
X62752000Y-83421400D03*
%TD*%
D20*
%TO.P,RN3,1*%
%TO.N,+5V*%
X209218000Y-131607000D03*
D19*
%TO.P,RN3,2*%
%TO.N,sw25*%
X209218000Y-129067000D03*
%TO.P,RN3,3*%
%TO.N,sw24*%
X209218000Y-126527000D03*
%TO.P,RN3,4*%
%TO.N,sw23*%
X209218000Y-123987000D03*
%TO.P,RN3,5*%
%TO.N,sw22*%
X209218000Y-121447000D03*
%TO.P,RN3,6*%
%TO.N,sw21*%
X209218000Y-118907000D03*
%TO.P,RN3,7*%
%TO.N,sw20*%
X209218000Y-116367000D03*
%TO.P,RN3,8*%
%TO.N,sw19*%
X209218000Y-113827000D03*
%TO.P,RN3,9*%
%TO.N,Net-(RN3-Pad9)*%
X209218000Y-111287000D03*
%TO.P,RN3,10*%
%TO.N,Net-(RN3-Pad10)*%
X209218000Y-108747000D03*
%TD*%
D20*
%TO.P,RN2,1*%
%TO.N,+5V*%
X60466000Y-96858000D03*
D19*
%TO.P,RN2,2*%
%TO.N,sw18*%
X63006000Y-96858000D03*
%TO.P,RN2,3*%
%TO.N,sw10*%
X65546000Y-96858000D03*
%TO.P,RN2,4*%
%TO.N,sw11*%
X68086000Y-96858000D03*
%TO.P,RN2,5*%
%TO.N,sw12*%
X70626000Y-96858000D03*
%TO.P,RN2,6*%
%TO.N,sw13*%
X73166000Y-96858000D03*
%TO.P,RN2,7*%
%TO.N,sw14*%
X75706000Y-96858000D03*
%TO.P,RN2,8*%
%TO.N,sw15*%
X78246000Y-96858000D03*
%TO.P,RN2,9*%
%TO.N,sw16*%
X80786000Y-96858000D03*
%TO.P,RN2,10*%
%TO.N,sw17*%
X83326000Y-96858000D03*
%TD*%
D16*
%TO.P,R1,1*%
%TO.N,Net-(R1-Pad1)*%
X155136000Y-126468000D03*
D19*
%TO.P,R1,2*%
%TO.N,+3V3*%
X162756000Y-126468000D03*
%TD*%
%TO.P,U2,1*%
%TO.N,INT0*%
%TA.AperFunction,SMDPad,CuDef*%
G36*
G01*
X184251000Y-121473000D02*
X184251000Y-121773000D01*
G75*
G02*
X184101000Y-121923000I-150000J0D01*
G01*
X182351000Y-121923000D01*
G75*
G02*
X182201000Y-121773000I0J150000D01*
G01*
X182201000Y-121473000D01*
G75*
G02*
X182351000Y-121323000I150000J0D01*
G01*
X184101000Y-121323000D01*
G75*
G02*
X184251000Y-121473000I0J-150000D01*
G01*
G37*
%TD.AperFunction*%
%TO.P,U2,2*%
%TO.N,Earth*%
%TA.AperFunction,SMDPad,CuDef*%
G36*
G01*
X184251000Y-120203000D02*
X184251000Y-120503000D01*
G75*
G02*
X184101000Y-120653000I-150000J0D01*
G01*
X182351000Y-120653000D01*
G75*
G02*
X182201000Y-120503000I0J150000D01*
G01*
X182201000Y-120203000D01*
G75*
G02*
X182351000Y-120053000I150000J0D01*
G01*
X184101000Y-120053000D01*
G75*
G02*
X184251000Y-120203000I0J-150000D01*
G01*
G37*
%TD.AperFunction*%
%TO.P,U2,3*%
%TA.AperFunction,SMDPad,CuDef*%
G36*
G01*
X184251000Y-118933000D02*
X184251000Y-119233000D01*
G75*
G02*
X184101000Y-119383000I-150000J0D01*
G01*
X182351000Y-119383000D01*
G75*
G02*
X182201000Y-119233000I0J150000D01*
G01*
X182201000Y-118933000D01*
G75*
G02*
X182351000Y-118783000I150000J0D01*
G01*
X184101000Y-118783000D01*
G75*
G02*
X184251000Y-118933000I0J-150000D01*
G01*
G37*
%TD.AperFunction*%
%TO.P,U2,4*%
%TO.N,sw9*%
%TA.AperFunction,SMDPad,CuDef*%
G36*
G01*
X184251000Y-117663000D02*
X184251000Y-117963000D01*
G75*
G02*
X184101000Y-118113000I-150000J0D01*
G01*
X182351000Y-118113000D01*
G75*
G02*
X182201000Y-117963000I0J150000D01*
G01*
X182201000Y-117663000D01*
G75*
G02*
X182351000Y-117513000I150000J0D01*
G01*
X184101000Y-117513000D01*
G75*
G02*
X184251000Y-117663000I0J-150000D01*
G01*
G37*
%TD.AperFunction*%
%TO.P,U2,5*%
%TO.N,sw8*%
%TA.AperFunction,SMDPad,CuDef*%
G36*
G01*
X184251000Y-116393000D02*
X184251000Y-116693000D01*
G75*
G02*
X184101000Y-116843000I-150000J0D01*
G01*
X182351000Y-116843000D01*
G75*
G02*
X182201000Y-116693000I0J150000D01*
G01*
X182201000Y-116393000D01*
G75*
G02*
X182351000Y-116243000I150000J0D01*
G01*
X184101000Y-116243000D01*
G75*
G02*
X184251000Y-116393000I0J-150000D01*
G01*
G37*
%TD.AperFunction*%
%TO.P,U2,6*%
%TO.N,sw7*%
%TA.AperFunction,SMDPad,CuDef*%
G36*
G01*
X184251000Y-115123000D02*
X184251000Y-115423000D01*
G75*
G02*
X184101000Y-115573000I-150000J0D01*
G01*
X182351000Y-115573000D01*
G75*
G02*
X182201000Y-115423000I0J150000D01*
G01*
X182201000Y-115123000D01*
G75*
G02*
X182351000Y-114973000I150000J0D01*
G01*
X184101000Y-114973000D01*
G75*
G02*
X184251000Y-115123000I0J-150000D01*
G01*
G37*
%TD.AperFunction*%
%TO.P,U2,7*%
%TO.N,sw6*%
%TA.AperFunction,SMDPad,CuDef*%
G36*
G01*
X184251000Y-113853000D02*
X184251000Y-114153000D01*
G75*
G02*
X184101000Y-114303000I-150000J0D01*
G01*
X182351000Y-114303000D01*
G75*
G02*
X182201000Y-114153000I0J150000D01*
G01*
X182201000Y-113853000D01*
G75*
G02*
X182351000Y-113703000I150000J0D01*
G01*
X184101000Y-113703000D01*
G75*
G02*
X184251000Y-113853000I0J-150000D01*
G01*
G37*
%TD.AperFunction*%
%TO.P,U2,8*%
%TO.N,sw5*%
%TA.AperFunction,SMDPad,CuDef*%
G36*
G01*
X184251000Y-112583000D02*
X184251000Y-112883000D01*
G75*
G02*
X184101000Y-113033000I-150000J0D01*
G01*
X182351000Y-113033000D01*
G75*
G02*
X182201000Y-112883000I0J150000D01*
G01*
X182201000Y-112583000D01*
G75*
G02*
X182351000Y-112433000I150000J0D01*
G01*
X184101000Y-112433000D01*
G75*
G02*
X184251000Y-112583000I0J-150000D01*
G01*
G37*
%TD.AperFunction*%
%TO.P,U2,9*%
%TO.N,sw4*%
%TA.AperFunction,SMDPad,CuDef*%
G36*
G01*
X184251000Y-111313000D02*
X184251000Y-111613000D01*
G75*
G02*
X184101000Y-111763000I-150000J0D01*
G01*
X182351000Y-111763000D01*
G75*
G02*
X182201000Y-111613000I0J150000D01*
G01*
X182201000Y-111313000D01*
G75*
G02*
X182351000Y-111163000I150000J0D01*
G01*
X184101000Y-111163000D01*
G75*
G02*
X184251000Y-111313000I0J-150000D01*
G01*
G37*
%TD.AperFunction*%
%TO.P,U2,10*%
%TO.N,sw3*%
%TA.AperFunction,SMDPad,CuDef*%
G36*
G01*
X184251000Y-110043000D02*
X184251000Y-110343000D01*
G75*
G02*
X184101000Y-110493000I-150000J0D01*
G01*
X182351000Y-110493000D01*
G75*
G02*
X182201000Y-110343000I0J150000D01*
G01*
X182201000Y-110043000D01*
G75*
G02*
X182351000Y-109893000I150000J0D01*
G01*
X184101000Y-109893000D01*
G75*
G02*
X184251000Y-110043000I0J-150000D01*
G01*
G37*
%TD.AperFunction*%
%TO.P,U2,11*%
%TO.N,sw2*%
%TA.AperFunction,SMDPad,CuDef*%
G36*
G01*
X184251000Y-108773000D02*
X184251000Y-109073000D01*
G75*
G02*
X184101000Y-109223000I-150000J0D01*
G01*
X182351000Y-109223000D01*
G75*
G02*
X182201000Y-109073000I0J150000D01*
G01*
X182201000Y-108773000D01*
G75*
G02*
X182351000Y-108623000I150000J0D01*
G01*
X184101000Y-108623000D01*
G75*
G02*
X184251000Y-108773000I0J-150000D01*
G01*
G37*
%TD.AperFunction*%
%TO.P,U2,12*%
%TO.N,Earth*%
%TA.AperFunction,SMDPad,CuDef*%
G36*
G01*
X184251000Y-107503000D02*
X184251000Y-107803000D01*
G75*
G02*
X184101000Y-107953000I-150000J0D01*
G01*
X182351000Y-107953000D01*
G75*
G02*
X182201000Y-107803000I0J150000D01*
G01*
X182201000Y-107503000D01*
G75*
G02*
X182351000Y-107353000I150000J0D01*
G01*
X184101000Y-107353000D01*
G75*
G02*
X184251000Y-107503000I0J-150000D01*
G01*
G37*
%TD.AperFunction*%
%TO.P,U2,13*%
%TO.N,sw1*%
%TA.AperFunction,SMDPad,CuDef*%
G36*
G01*
X174951000Y-107503000D02*
X174951000Y-107803000D01*
G75*
G02*
X174801000Y-107953000I-150000J0D01*
G01*
X173051000Y-107953000D01*
G75*
G02*
X172901000Y-107803000I0J150000D01*
G01*
X172901000Y-107503000D01*
G75*
G02*
X173051000Y-107353000I150000J0D01*
G01*
X174801000Y-107353000D01*
G75*
G02*
X174951000Y-107503000I0J-150000D01*
G01*
G37*
%TD.AperFunction*%
%TO.P,U2,14*%
%TO.N,sw19*%
%TA.AperFunction,SMDPad,CuDef*%
G36*
G01*
X174951000Y-108773000D02*
X174951000Y-109073000D01*
G75*
G02*
X174801000Y-109223000I-150000J0D01*
G01*
X173051000Y-109223000D01*
G75*
G02*
X172901000Y-109073000I0J150000D01*
G01*
X172901000Y-108773000D01*
G75*
G02*
X173051000Y-108623000I150000J0D01*
G01*
X174801000Y-108623000D01*
G75*
G02*
X174951000Y-108773000I0J-150000D01*
G01*
G37*
%TD.AperFunction*%
%TO.P,U2,15*%
%TO.N,sw20*%
%TA.AperFunction,SMDPad,CuDef*%
G36*
G01*
X174951000Y-110043000D02*
X174951000Y-110343000D01*
G75*
G02*
X174801000Y-110493000I-150000J0D01*
G01*
X173051000Y-110493000D01*
G75*
G02*
X172901000Y-110343000I0J150000D01*
G01*
X172901000Y-110043000D01*
G75*
G02*
X173051000Y-109893000I150000J0D01*
G01*
X174801000Y-109893000D01*
G75*
G02*
X174951000Y-110043000I0J-150000D01*
G01*
G37*
%TD.AperFunction*%
%TO.P,U2,16*%
%TO.N,sw21*%
%TA.AperFunction,SMDPad,CuDef*%
G36*
G01*
X174951000Y-111313000D02*
X174951000Y-111613000D01*
G75*
G02*
X174801000Y-111763000I-150000J0D01*
G01*
X173051000Y-111763000D01*
G75*
G02*
X172901000Y-111613000I0J150000D01*
G01*
X172901000Y-111313000D01*
G75*
G02*
X173051000Y-111163000I150000J0D01*
G01*
X174801000Y-111163000D01*
G75*
G02*
X174951000Y-111313000I0J-150000D01*
G01*
G37*
%TD.AperFunction*%
%TO.P,U2,17*%
%TO.N,sw22*%
%TA.AperFunction,SMDPad,CuDef*%
G36*
G01*
X174951000Y-112583000D02*
X174951000Y-112883000D01*
G75*
G02*
X174801000Y-113033000I-150000J0D01*
G01*
X173051000Y-113033000D01*
G75*
G02*
X172901000Y-112883000I0J150000D01*
G01*
X172901000Y-112583000D01*
G75*
G02*
X173051000Y-112433000I150000J0D01*
G01*
X174801000Y-112433000D01*
G75*
G02*
X174951000Y-112583000I0J-150000D01*
G01*
G37*
%TD.AperFunction*%
%TO.P,U2,18*%
%TO.N,sw23*%
%TA.AperFunction,SMDPad,CuDef*%
G36*
G01*
X174951000Y-113853000D02*
X174951000Y-114153000D01*
G75*
G02*
X174801000Y-114303000I-150000J0D01*
G01*
X173051000Y-114303000D01*
G75*
G02*
X172901000Y-114153000I0J150000D01*
G01*
X172901000Y-113853000D01*
G75*
G02*
X173051000Y-113703000I150000J0D01*
G01*
X174801000Y-113703000D01*
G75*
G02*
X174951000Y-113853000I0J-150000D01*
G01*
G37*
%TD.AperFunction*%
%TO.P,U2,19*%
%TO.N,sw24*%
%TA.AperFunction,SMDPad,CuDef*%
G36*
G01*
X174951000Y-115123000D02*
X174951000Y-115423000D01*
G75*
G02*
X174801000Y-115573000I-150000J0D01*
G01*
X173051000Y-115573000D01*
G75*
G02*
X172901000Y-115423000I0J150000D01*
G01*
X172901000Y-115123000D01*
G75*
G02*
X173051000Y-114973000I150000J0D01*
G01*
X174801000Y-114973000D01*
G75*
G02*
X174951000Y-115123000I0J-150000D01*
G01*
G37*
%TD.AperFunction*%
%TO.P,U2,20*%
%TO.N,sw25*%
%TA.AperFunction,SMDPad,CuDef*%
G36*
G01*
X174951000Y-116393000D02*
X174951000Y-116693000D01*
G75*
G02*
X174801000Y-116843000I-150000J0D01*
G01*
X173051000Y-116843000D01*
G75*
G02*
X172901000Y-116693000I0J150000D01*
G01*
X172901000Y-116393000D01*
G75*
G02*
X173051000Y-116243000I150000J0D01*
G01*
X174801000Y-116243000D01*
G75*
G02*
X174951000Y-116393000I0J-150000D01*
G01*
G37*
%TD.AperFunction*%
%TO.P,U2,21*%
%TO.N,Earth*%
%TA.AperFunction,SMDPad,CuDef*%
G36*
G01*
X174951000Y-117663000D02*
X174951000Y-117963000D01*
G75*
G02*
X174801000Y-118113000I-150000J0D01*
G01*
X173051000Y-118113000D01*
G75*
G02*
X172901000Y-117963000I0J150000D01*
G01*
X172901000Y-117663000D01*
G75*
G02*
X173051000Y-117513000I150000J0D01*
G01*
X174801000Y-117513000D01*
G75*
G02*
X174951000Y-117663000I0J-150000D01*
G01*
G37*
%TD.AperFunction*%
%TO.P,U2,22*%
%TO.N,SCL0*%
%TA.AperFunction,SMDPad,CuDef*%
G36*
G01*
X174951000Y-118933000D02*
X174951000Y-119233000D01*
G75*
G02*
X174801000Y-119383000I-150000J0D01*
G01*
X173051000Y-119383000D01*
G75*
G02*
X172901000Y-119233000I0J150000D01*
G01*
X172901000Y-118933000D01*
G75*
G02*
X173051000Y-118783000I150000J0D01*
G01*
X174801000Y-118783000D01*
G75*
G02*
X174951000Y-118933000I0J-150000D01*
G01*
G37*
%TD.AperFunction*%
%TO.P,U2,23*%
%TO.N,SDA0*%
%TA.AperFunction,SMDPad,CuDef*%
G36*
G01*
X174951000Y-120203000D02*
X174951000Y-120503000D01*
G75*
G02*
X174801000Y-120653000I-150000J0D01*
G01*
X173051000Y-120653000D01*
G75*
G02*
X172901000Y-120503000I0J150000D01*
G01*
X172901000Y-120203000D01*
G75*
G02*
X173051000Y-120053000I150000J0D01*
G01*
X174801000Y-120053000D01*
G75*
G02*
X174951000Y-120203000I0J-150000D01*
G01*
G37*
%TD.AperFunction*%
%TO.P,U2,24*%
%TO.N,+3V3*%
%TA.AperFunction,SMDPad,CuDef*%
G36*
G01*
X174951000Y-121473000D02*
X174951000Y-121773000D01*
G75*
G02*
X174801000Y-121923000I-150000J0D01*
G01*
X173051000Y-121923000D01*
G75*
G02*
X172901000Y-121773000I0J150000D01*
G01*
X172901000Y-121473000D01*
G75*
G02*
X173051000Y-121323000I150000J0D01*
G01*
X174801000Y-121323000D01*
G75*
G02*
X174951000Y-121473000I0J-150000D01*
G01*
G37*
%TD.AperFunction*%
%TD*%
D25*
%TO.P,U1,1*%
%TO.N,Net-(U1-Pad1)*%
X59196000Y-126068000D03*
%TO.P,U1,2*%
%TO.N,Net-(U1-Pad2)*%
X61736000Y-126068000D03*
D24*
%TO.P,U1,3*%
%TO.N,Net-(U1-Pad3)*%
X64276000Y-126068000D03*
D25*
%TO.P,U1,4*%
%TO.N,Net-(U1-Pad4)*%
X66816000Y-126068000D03*
%TO.P,U1,5*%
%TO.N,Net-(U1-Pad5)*%
X69356000Y-126068000D03*
%TO.P,U1,6*%
%TO.N,Net-(U1-Pad6)*%
X71896000Y-126068000D03*
%TO.P,U1,7*%
%TO.N,Net-(U1-Pad7)*%
X74436000Y-126068000D03*
D24*
%TO.P,U1,8*%
%TO.N,Net-(U1-Pad8)*%
X76976000Y-126068000D03*
D25*
%TO.P,U1,9*%
%TO.N,Net-(U1-Pad9)*%
X79516000Y-126068000D03*
%TO.P,U1,10*%
%TO.N,Net-(LS1-Pad2)*%
X82056000Y-126068000D03*
%TO.P,U1,11*%
%TO.N,INT0*%
X84596000Y-126068000D03*
%TO.P,U1,12*%
%TO.N,INT1*%
X87136000Y-126068000D03*
D24*
%TO.P,U1,13*%
%TO.N,Net-(U1-Pad13)*%
X89676000Y-126068000D03*
D25*
%TO.P,U1,14*%
%TO.N,GPIO10*%
X92216000Y-126068000D03*
%TO.P,U1,15*%
%TO.N,GPIO11*%
X94756000Y-126068000D03*
%TO.P,U1,16*%
%TO.N,GPIO12*%
X97296000Y-126068000D03*
%TO.P,U1,17*%
%TO.N,GPIO13*%
X99836000Y-126068000D03*
D24*
%TO.P,U1,18*%
%TO.N,Earth*%
X102376000Y-126068000D03*
D25*
%TO.P,U1,19*%
%TO.N,Net-(U1-Pad19)*%
X104916000Y-126068000D03*
%TO.P,U1,20*%
%TO.N,Net-(U1-Pad20)*%
X107456000Y-126068000D03*
%TO.P,U1,21*%
%TO.N,Net-(U1-Pad21)*%
X107456000Y-108288000D03*
%TO.P,U1,22*%
%TO.N,Net-(U1-Pad22)*%
X104916000Y-108288000D03*
D24*
%TO.P,U1,23*%
%TO.N,Net-(U1-Pad23)*%
X102376000Y-108288000D03*
D25*
%TO.P,U1,24*%
%TO.N,SDA1*%
X99836000Y-108288000D03*
%TO.P,U1,25*%
%TO.N,SCL1*%
X97296000Y-108288000D03*
%TO.P,U1,26*%
%TO.N,SDA0*%
X94756000Y-108288000D03*
%TO.P,U1,27*%
%TO.N,SCL0*%
X92216000Y-108288000D03*
D24*
%TO.P,U1,28*%
%TO.N,Net-(U1-Pad28)*%
X89676000Y-108288000D03*
D25*
%TO.P,U1,29*%
%TO.N,Net-(U1-Pad29)*%
X87136000Y-108288000D03*
%TO.P,U1,30*%
%TO.N,Net-(U1-Pad30)*%
X84596000Y-108288000D03*
%TO.P,U1,31*%
%TO.N,Net-(RV3-Pad2)*%
X82056000Y-108288000D03*
%TO.P,U1,32*%
%TO.N,Net-(RV2-Pad2)*%
X79516000Y-108288000D03*
D24*
%TO.P,U1,33*%
%TO.N,AGND*%
X76976000Y-108288000D03*
D25*
%TO.P,U1,34*%
%TO.N,Net-(RV1-Pad2)*%
X74436000Y-108288000D03*
%TO.P,U1,35*%
%TO.N,Net-(U1-Pad35)*%
X71896000Y-108288000D03*
%TO.P,U1,36*%
%TO.N,+3V3*%
X69356000Y-108288000D03*
%TO.P,U1,37*%
%TO.N,Net-(U1-Pad37)*%
X66816000Y-108288000D03*
D24*
%TO.P,U1,38*%
%TO.N,Net-(U1-Pad38)*%
X64276000Y-108288000D03*
D25*
%TO.P,U1,39*%
%TO.N,Net-(U1-Pad39)*%
X61736000Y-108288000D03*
%TO.P,U1,40*%
%TO.N,+5V*%
X59196000Y-108288000D03*
D26*
%TO.P,U1,1*%
%TO.N,Net-(U1-Pad1)*%
X59196000Y-126968000D03*
%TO.P,U1,2*%
%TO.N,Net-(U1-Pad2)*%
X61736000Y-126968000D03*
%TO.P,U1,3*%
%TO.N,Net-(U1-Pad3)*%
X64276000Y-126968000D03*
%TO.P,U1,4*%
%TO.N,Net-(U1-Pad4)*%
X66816000Y-126968000D03*
%TO.P,U1,5*%
%TO.N,Net-(U1-Pad5)*%
X69356000Y-126968000D03*
%TO.P,U1,6*%
%TO.N,Net-(U1-Pad6)*%
X71896000Y-126968000D03*
%TO.P,U1,7*%
%TO.N,Net-(U1-Pad7)*%
X74436000Y-126968000D03*
%TO.P,U1,8*%
%TO.N,Net-(U1-Pad8)*%
X76976000Y-126968000D03*
%TO.P,U1,9*%
%TO.N,Net-(U1-Pad9)*%
X79516000Y-126968000D03*
%TO.P,U1,10*%
%TO.N,Net-(LS1-Pad2)*%
X82056000Y-126968000D03*
%TO.P,U1,11*%
%TO.N,INT0*%
X84596000Y-126968000D03*
%TO.P,U1,12*%
%TO.N,INT1*%
X87136000Y-126968000D03*
%TO.P,U1,13*%
%TO.N,Net-(U1-Pad13)*%
X89676000Y-126968000D03*
%TO.P,U1,14*%
%TO.N,GPIO10*%
X92216000Y-126968000D03*
%TO.P,U1,15*%
%TO.N,GPIO11*%
X94756000Y-126968000D03*
%TO.P,U1,16*%
%TO.N,GPIO12*%
X97296000Y-126968000D03*
%TO.P,U1,17*%
%TO.N,GPIO13*%
X99836000Y-126968000D03*
%TO.P,U1,18*%
%TO.N,Earth*%
X102376000Y-126968000D03*
%TO.P,U1,19*%
%TO.N,Net-(U1-Pad19)*%
X104916000Y-126968000D03*
%TO.P,U1,20*%
%TO.N,Net-(U1-Pad20)*%
X107456000Y-126968000D03*
%TO.P,U1,40*%
%TO.N,+5V*%
X59196000Y-107388000D03*
%TO.P,U1,39*%
%TO.N,Net-(U1-Pad39)*%
X61736000Y-107388000D03*
%TO.P,U1,38*%
%TO.N,Net-(U1-Pad38)*%
X64276000Y-107388000D03*
%TO.P,U1,37*%
%TO.N,Net-(U1-Pad37)*%
X66816000Y-107388000D03*
%TO.P,U1,36*%
%TO.N,+3V3*%
X69356000Y-107388000D03*
%TO.P,U1,35*%
%TO.N,Net-(U1-Pad35)*%
X71896000Y-107388000D03*
%TO.P,U1,34*%
%TO.N,Net-(RV1-Pad2)*%
X74436000Y-107388000D03*
%TO.P,U1,33*%
%TO.N,AGND*%
X76976000Y-107388000D03*
%TO.P,U1,32*%
%TO.N,Net-(RV2-Pad2)*%
X79516000Y-107388000D03*
%TO.P,U1,31*%
%TO.N,Net-(RV3-Pad2)*%
X82056000Y-107388000D03*
%TO.P,U1,30*%
%TO.N,Net-(U1-Pad30)*%
X84596000Y-107388000D03*
%TO.P,U1,29*%
%TO.N,Net-(U1-Pad29)*%
X87136000Y-107388000D03*
%TO.P,U1,28*%
%TO.N,Net-(U1-Pad28)*%
X89676000Y-107388000D03*
%TO.P,U1,27*%
%TO.N,SCL0*%
X92216000Y-107388000D03*
%TO.P,U1,26*%
%TO.N,SDA0*%
X94756000Y-107388000D03*
%TO.P,U1,25*%
%TO.N,SCL1*%
X97296000Y-107388000D03*
%TO.P,U1,24*%
%TO.N,SDA1*%
X99836000Y-107388000D03*
%TO.P,U1,23*%
%TO.N,Net-(U1-Pad23)*%
X102376000Y-107388000D03*
%TO.P,U1,22*%
%TO.N,Net-(U1-Pad22)*%
X104916000Y-107388000D03*
%TO.P,U1,21*%
%TO.N,Net-(U1-Pad21)*%
X107456000Y-107388000D03*
D27*
%TO.P,U1,41*%
%TO.N,Net-(U1-Pad41)*%
X108126000Y-119718000D03*
D25*
X107226000Y-119718000D03*
D27*
%TO.P,U1,42*%
%TO.N,Net-(U1-Pad42)*%
X108126000Y-117178000D03*
D24*
X107226000Y-117178000D03*
D27*
%TO.P,U1,43*%
%TO.N,Net-(U1-Pad43)*%
X108126000Y-114638000D03*
D25*
X107226000Y-114638000D03*
%TD*%
D22*
%TO.P,SW9,2*%
%TO.N,Earth*%
X245632000Y-63177600D03*
%TO.P,SW9,1*%
%TO.N,sw9*%
X245632000Y-58021400D03*
%TD*%
%TO.P,SW8,2*%
%TO.N,Earth*%
X245632000Y-75877600D03*
%TO.P,SW8,1*%
%TO.N,sw8*%
X245632000Y-70721400D03*
%TD*%
%TO.P,SW7,2*%
%TO.N,Earth*%
X245632000Y-88577600D03*
%TO.P,SW7,1*%
%TO.N,sw7*%
X245632000Y-83421400D03*
%TD*%
%TO.P,SW6,2*%
%TO.N,Earth*%
X234202000Y-63177600D03*
%TO.P,SW6,1*%
%TO.N,sw6*%
X234202000Y-58021400D03*
%TD*%
%TO.P,SW5,2*%
%TO.N,Earth*%
X234202000Y-75877600D03*
%TO.P,SW5,1*%
%TO.N,sw5*%
X234202000Y-70721400D03*
%TD*%
%TO.P,SW4,2*%
%TO.N,Earth*%
X234202000Y-88577600D03*
%TO.P,SW4,1*%
%TO.N,sw4*%
X234202000Y-83421400D03*
%TD*%
%TO.P,SW3,2*%
%TO.N,Earth*%
X222772000Y-63177600D03*
%TO.P,SW3,1*%
%TO.N,sw3*%
X222772000Y-58021400D03*
%TD*%
%TO.P,SW2,2*%
%TO.N,Earth*%
X222772000Y-75877600D03*
%TO.P,SW2,1*%
%TO.N,sw2*%
X222772000Y-70721400D03*
%TD*%
%TO.P,SW1,2*%
%TO.N,Earth*%
X222772000Y-88577600D03*
%TO.P,SW1,1*%
%TO.N,sw1*%
X222772000Y-83421400D03*
%TD*%
D28*
%TO.P,RV2,1*%
%TO.N,AGND*%
X210326000Y-90508000D03*
D29*
%TO.P,RV2,2*%
%TO.N,Net-(RV2-Pad2)*%
X213826000Y-90508000D03*
%TO.P,RV2,3*%
%TO.N,+3V3*%
X210326000Y-57508000D03*
D30*
%TO.P,RV2,MP*%
%TO.N,N/C*%
X207876000Y-85408000D03*
X207876000Y-62608000D03*
X216276000Y-86608000D03*
X216276000Y-61408000D03*
%TD*%
D28*
%TO.P,RV1,1*%
%TO.N,AGND*%
X94756000Y-90508000D03*
D29*
%TO.P,RV1,2*%
%TO.N,Net-(RV1-Pad2)*%
X98256000Y-90508000D03*
%TO.P,RV1,3*%
%TO.N,+3V3*%
X94756000Y-57508000D03*
D30*
%TO.P,RV1,MP*%
%TO.N,N/C*%
X92306000Y-85408000D03*
X92306000Y-62608000D03*
X100706000Y-86608000D03*
X100706000Y-61408000D03*
%TD*%
D20*
%TO.P,RN1,1*%
%TO.N,+5V*%
X220486000Y-96858000D03*
D19*
%TO.P,RN1,2*%
%TO.N,sw1*%
X223026000Y-96858000D03*
%TO.P,RN1,3*%
%TO.N,sw2*%
X225566000Y-96858000D03*
%TO.P,RN1,4*%
%TO.N,sw3*%
X228106000Y-96858000D03*
%TO.P,RN1,5*%
%TO.N,sw4*%
X230646000Y-96858000D03*
%TO.P,RN1,6*%
%TO.N,sw5*%
X233186000Y-96858000D03*
%TO.P,RN1,7*%
%TO.N,sw6*%
X235726000Y-96858000D03*
%TO.P,RN1,8*%
%TO.N,sw7*%
X238266000Y-96858000D03*
%TO.P,RN1,9*%
%TO.N,sw8*%
X240806000Y-96858000D03*
%TO.P,RN1,10*%
%TO.N,sw9*%
X243346000Y-96858000D03*
%TD*%
D31*
%TO.N,*%
X56246000Y-52978000D03*
X251246000Y-52978000D03*
X251246000Y-132978000D03*
D32*
%TO.N,+5V*%
X129081000Y-104810000D03*
X114222000Y-104937000D03*
X112825000Y-123479000D03*
X114222000Y-117002000D03*
%TO.N,Earth*%
X139114000Y-107604000D03*
X139114000Y-120431000D03*
X185469000Y-107731000D03*
X185469000Y-119161000D03*
X214044000Y-101889000D03*
X214044000Y-97317000D03*
X175817000Y-117891000D03*
X153084000Y-120431000D03*
X153084000Y-107731000D03*
X164991000Y-123733000D03*
X151996000Y-127478000D03*
X176741000Y-123733000D03*
%TO.N,Net-(RV1-Pad2)*%
X91997000Y-94777000D03*
X88060000Y-101127000D03*
%TO.N,Net-(RV2-Pad2)*%
X90219000Y-101127000D03*
X93267000Y-93253000D03*
X127176000Y-63027000D03*
D31*
%TO.N,Net-(U1-Pad2)*%
X56246000Y-132978000D03*
D32*
%TO.N,Net-(D2-Pad4)*%
X148639000Y-114589000D03*
X141400000Y-100746000D03*
%TO.N,Net-(D3-Pad4)*%
X146607000Y-99349000D03*
X144321000Y-90205000D03*
%TO.N,Net-(D4-Pad4)*%
X149020000Y-101381000D03*
X146480000Y-67472000D03*
%TO.N,Net-(D4-Pad3)*%
X145210000Y-79918000D03*
X147877000Y-101000000D03*
%TO.N,Net-(D6-Pad3)*%
X155624000Y-100492000D03*
X157275000Y-78140000D03*
%TO.N,Net-(D6-Pad2)*%
X157205990Y-100422990D03*
X156894000Y-73441000D03*
%TO.N,Net-(D7-Pad4)*%
X163625000Y-115605000D03*
X162736000Y-102016000D03*
%TO.N,SDA0*%
X166673000Y-118272000D03*
X149147000Y-120050000D03*
X139368000Y-102905000D03*
X136955000Y-100492000D03*
X99871000Y-93253000D03*
X98728000Y-100746000D03*
X143608000Y-120353000D03*
%TO.N,SCL0*%
X165403000Y-118272000D03*
X148639000Y-119034000D03*
X144116000Y-119083000D03*
X140384000Y-102016000D03*
X137971000Y-99603000D03*
X101903000Y-94523000D03*
X100252000Y-101635000D03*
%TO.N,SDA1*%
X199566000Y-91348000D03*
X191692000Y-97698000D03*
X169594000Y-101127000D03*
X165022000Y-114208000D03*
X134161000Y-120431000D03*
X129716000Y-114081000D03*
X115492000Y-112938000D03*
%TO.N,SCL1*%
X194486000Y-91348000D03*
X169721000Y-103540000D03*
X166038000Y-115478000D03*
X162355000Y-120685000D03*
X158164000Y-122082000D03*
X135050000Y-121701000D03*
X136574000Y-119415000D03*
X129843000Y-115859000D03*
X116635000Y-113700000D03*
%TO.N,INT0*%
X187120000Y-119161000D03*
X200074000Y-116875000D03*
%TO.N,INT1*%
X137844000Y-119415000D03*
X138606000Y-103667000D03*
X126922000Y-110144000D03*
%TO.N,AGND*%
X93521000Y-101254000D03*
X93521000Y-104048000D03*
X99490000Y-75600000D03*
X160450000Y-57566000D03*
X171372000Y-60614000D03*
X220521000Y-100746000D03*
%TO.N,+3V3*%
X121080000Y-126908000D03*
X135177000Y-118526000D03*
X171880000Y-121701000D03*
X149401000Y-121447000D03*
X137463000Y-70139000D03*
X97204000Y-79029000D03*
X199058000Y-73822000D03*
X113206000Y-80807000D03*
X115746000Y-90459000D03*
X111809000Y-118399000D03*
X111301000Y-112684000D03*
X109904000Y-101381000D03*
X150163000Y-125638000D03*
X126033000Y-106461000D03*
X150163000Y-129311000D03*
X144653000Y-129321000D03*
X241246000Y-113728000D03*
%TO.N,Net-(RV3-Pad2)*%
X123874000Y-128686000D03*
X121588000Y-119161000D03*
%TO.N,52*%
X152576000Y-99730000D03*
%TO.N,Net-(F1-Pad1)*%
X120953000Y-124495000D03*
%TD*%
D33*
%TO.N,+5V*%
X112825000Y-123479000D02*
X112825000Y-122082000D01*
X112825000Y-122082000D02*
X114222000Y-120685000D01*
X114222000Y-120685000D02*
X114222000Y-117002000D01*
X114222000Y-117002000D02*
X114222000Y-117002000D01*
X129081000Y-104810000D02*
X128319000Y-104048000D01*
X115111000Y-104048000D02*
X114222000Y-104937000D01*
X128319000Y-104048000D02*
X115111000Y-104048000D01*
D34*
%TO.N,Earth*%
X139114000Y-120431000D02*
X140892000Y-120431000D01*
X140892000Y-119161000D02*
X141400000Y-119161000D01*
X139114000Y-107604000D02*
X140892000Y-107604000D01*
X185469000Y-119161000D02*
X183564000Y-119161000D01*
X183226000Y-120353000D02*
X185293000Y-120353000D01*
X185469000Y-120177000D02*
X185469000Y-119161000D01*
X185293000Y-120353000D02*
X185469000Y-120177000D01*
X185469000Y-107731000D02*
X183945000Y-107731000D01*
X139114000Y-120431000D02*
X139114000Y-119161000D01*
X139114000Y-119161000D02*
X140765000Y-119161000D01*
D33*
X214044000Y-101889000D02*
X214044000Y-97317000D01*
X214044000Y-97317000D02*
X214044000Y-97317000D01*
D34*
X175817000Y-117891000D02*
X174293000Y-117891000D01*
X173926000Y-117813000D02*
X171831000Y-117813000D01*
X171831000Y-117813000D02*
X171753000Y-117891000D01*
X171753000Y-120431000D02*
X169467000Y-120431000D01*
X171753000Y-119034000D02*
X169467000Y-119034000D01*
X171753000Y-117891000D02*
X171753000Y-119034000D01*
X171753000Y-119034000D02*
X171753000Y-120431000D01*
X171753000Y-117891000D02*
X171753000Y-107985000D01*
X171753000Y-107985000D02*
X171499000Y-107731000D01*
X171499000Y-107731000D02*
X169594000Y-107731000D01*
X153084000Y-107731000D02*
X154862000Y-107731000D01*
X153084000Y-120431000D02*
X154608000Y-120431000D01*
X153084000Y-120431000D02*
X153084000Y-119034000D01*
X153084000Y-119034000D02*
X154608000Y-119034000D01*
X153084000Y-120431000D02*
X153084000Y-121193000D01*
X153084000Y-121193000D02*
X153592000Y-121701000D01*
X153592000Y-121701000D02*
X154481000Y-121701000D01*
X164746000Y-123978000D02*
X164991000Y-123733000D01*
X164746000Y-130728000D02*
X164746000Y-123978000D01*
X151996000Y-131978000D02*
X151996000Y-127478000D01*
X151996000Y-127478000D02*
X151996000Y-127478000D01*
X180246000Y-131978000D02*
X180246000Y-129228000D01*
X180246000Y-129228000D02*
X176746000Y-125728000D01*
X176746000Y-125728000D02*
X176746000Y-123728000D01*
X164746000Y-130728000D02*
X164746000Y-131228000D01*
X164746000Y-131228000D02*
X165746000Y-132228000D01*
X134496000Y-132228000D02*
X134496000Y-133478000D01*
X134496000Y-133478000D02*
X134996000Y-133978000D01*
X134996000Y-133978000D02*
X151496000Y-133978000D01*
X151496000Y-133978000D02*
X151996000Y-133478000D01*
X151996000Y-133478000D02*
X151996000Y-132228000D01*
%TO.N,Net-(LS1-Pad2)*%
X189496000Y-128728000D02*
X189496000Y-125728000D01*
X183246000Y-134978000D02*
X189496000Y-128728000D01*
X119996000Y-134978000D02*
X183246000Y-134978000D01*
X116565010Y-131547010D02*
X119996000Y-134978000D01*
X92572010Y-131547010D02*
X116565010Y-131547010D01*
X91108000Y-130083000D02*
X92572010Y-131547010D01*
X82218000Y-130083000D02*
X91108000Y-130083000D01*
X82218000Y-126527000D02*
X82218000Y-130083000D01*
D35*
%TO.N,Net-(RV1-Pad2)*%
X98256000Y-90508000D02*
X95638000Y-93126000D01*
X95638000Y-93126000D02*
X95638000Y-93168000D01*
X95638000Y-93168000D02*
X94029000Y-94777000D01*
X94029000Y-94777000D02*
X91997000Y-94777000D01*
D34*
X91997000Y-94777000D02*
X91997000Y-94777000D01*
D35*
X88060000Y-101127000D02*
X87255924Y-101931076D01*
X87255924Y-101931076D02*
X87171000Y-102016000D01*
X87171000Y-102016000D02*
X84250000Y-102016000D01*
X84250000Y-102016000D02*
X75233000Y-102016000D01*
X75233000Y-102016000D02*
X74471000Y-102778000D01*
X74471000Y-102778000D02*
X74471000Y-108493000D01*
%TO.N,Net-(RV2-Pad2)*%
X79516000Y-108288000D02*
X79516000Y-104337000D01*
X79516000Y-104337000D02*
X80186000Y-103667000D01*
X80186000Y-103667000D02*
X87679000Y-103667000D01*
X87679000Y-103667000D02*
X90219000Y-101127000D01*
X90219000Y-101127000D02*
X90219000Y-101127000D01*
X93267000Y-93253000D02*
X92632000Y-92618000D01*
X92632000Y-92618000D02*
X92505000Y-92491000D01*
X92505000Y-92491000D02*
X92505000Y-89316000D01*
X92505000Y-89316000D02*
X99236000Y-82585000D01*
X99236000Y-82585000D02*
X122985000Y-82585000D01*
X122985000Y-82585000D02*
X127176000Y-78394000D01*
X127176000Y-78394000D02*
X127176000Y-63027000D01*
X127176000Y-63027000D02*
X127176000Y-63027000D01*
D33*
%TO.N,Net-(U1-Pad2)*%
X61736000Y-126068000D02*
X61736000Y-131488000D01*
X60246000Y-132978000D02*
X56246000Y-132978000D01*
X61736000Y-131488000D02*
X60246000Y-132978000D01*
D35*
%TO.N,Net-(D2-Pad4)*%
X145986000Y-116543000D02*
X147828000Y-116543000D01*
X147828000Y-116543000D02*
X148639000Y-115732000D01*
X148639000Y-115732000D02*
X148639000Y-114589000D01*
X148639000Y-114589000D02*
X148639000Y-114589000D01*
X140430972Y-99776972D02*
X140430973Y-95106797D01*
X141400000Y-100746000D02*
X140430972Y-99776972D01*
X141642980Y-93894790D02*
X141642980Y-92608390D01*
X140430973Y-95106797D02*
X141642980Y-93894790D01*
X140578599Y-92433009D02*
X139552990Y-91407400D01*
X141467600Y-92433010D02*
X140578599Y-92433009D01*
X141642980Y-92608390D02*
X141467600Y-92433010D01*
X139552990Y-91407400D02*
X139552990Y-83416010D01*
X139552990Y-83416010D02*
X140130000Y-82839000D01*
X140130000Y-82839000D02*
X141654000Y-82839000D01*
%TO.N,Net-(D2-Pad3)*%
X145986000Y-115273000D02*
X144497000Y-115273000D01*
X144194000Y-113956820D02*
X143097972Y-112860790D01*
X144194000Y-114970000D02*
X144194000Y-113956820D01*
X144497000Y-115273000D02*
X144194000Y-114970000D01*
X143097972Y-112860790D02*
X143097973Y-104504797D01*
X143097973Y-104504797D02*
X144194000Y-103408770D01*
X144759990Y-102842780D02*
X144759990Y-101062220D01*
X144194000Y-103408770D02*
X144759990Y-102842780D01*
X141789198Y-99614018D02*
X140880981Y-98705799D01*
X140880981Y-98705799D02*
X140880982Y-95293198D01*
X143311789Y-99614019D02*
X141789198Y-99614018D01*
X144759990Y-101062220D02*
X143311789Y-99614019D01*
X140880982Y-95293198D02*
X142092990Y-94081190D01*
X142092990Y-94081190D02*
X142092990Y-92618000D01*
X142092990Y-92618000D02*
X142092990Y-92421990D01*
X142092990Y-92421990D02*
X141654000Y-91983000D01*
X141654000Y-91983000D02*
X140765000Y-91983000D01*
X140765000Y-91983000D02*
X140003000Y-91221000D01*
X140003000Y-91221000D02*
X140003000Y-86395000D01*
X140003000Y-86395000D02*
X140003000Y-85887000D01*
X140003000Y-85887000D02*
X140511000Y-85379000D01*
X140511000Y-85379000D02*
X141400000Y-85379000D01*
%TO.N,Net-(D2-Pad2)*%
X144876590Y-114003000D02*
X143547981Y-112674391D01*
X145986000Y-114003000D02*
X144876590Y-114003000D01*
X143547981Y-112674391D02*
X143547982Y-104691198D01*
X145210000Y-103029180D02*
X145210000Y-100875820D01*
X143547982Y-104691198D02*
X145210000Y-103029180D01*
X141975599Y-99164009D02*
X141330990Y-98519400D01*
X143498190Y-99164010D02*
X141975599Y-99164009D01*
X145210000Y-100875820D02*
X143498190Y-99164010D01*
X141330991Y-95479599D02*
X142543000Y-94267590D01*
X141330990Y-98519400D02*
X141330991Y-95479599D01*
X142543000Y-94267590D02*
X142543000Y-91475000D01*
X142543000Y-91475000D02*
X141781000Y-90713000D01*
%TO.N,Net-(D3-Pad4)*%
X148766000Y-107860820D02*
X148777020Y-107849800D01*
X148766000Y-109001000D02*
X148766000Y-107860820D01*
X147574000Y-110193000D02*
X148766000Y-109001000D01*
X148777020Y-107849800D02*
X148777020Y-103020980D01*
X149782000Y-102016000D02*
X149782000Y-100619000D01*
X148777020Y-103020980D02*
X149782000Y-102016000D01*
X149782000Y-100619000D02*
X148512000Y-99349000D01*
X148512000Y-99349000D02*
X146607000Y-99349000D01*
X146607000Y-99349000D02*
X146607000Y-99349000D01*
X144829000Y-89697000D02*
X145210000Y-89316000D01*
X145210000Y-89316000D02*
X145210000Y-81696000D01*
X145210000Y-81696000D02*
X144321000Y-80807000D01*
X144321000Y-80807000D02*
X144321000Y-70901000D01*
X144321000Y-70901000D02*
X143686000Y-70266000D01*
X144829000Y-89697000D02*
X144321000Y-90205000D01*
X143686000Y-70266000D02*
X142416000Y-70266000D01*
X147574000Y-110193000D02*
X146177000Y-110193000D01*
%TO.N,Net-(D3-Pad3)*%
X145986000Y-111463000D02*
X144878000Y-111463000D01*
X144878000Y-111463000D02*
X144448000Y-111033000D01*
X144448000Y-111033000D02*
X144448000Y-105953000D01*
X144448000Y-105953000D02*
X144448000Y-105064000D01*
X144448000Y-105064000D02*
X146226000Y-103286000D01*
X146226000Y-103286000D02*
X146226000Y-100619000D01*
X146226000Y-100619000D02*
X144321000Y-98714000D01*
X144321000Y-98714000D02*
X144321000Y-91983000D01*
X144321000Y-91983000D02*
X144321000Y-91602000D01*
X143595999Y-90876999D02*
X143595999Y-88717999D01*
X144321000Y-91602000D02*
X143595999Y-90876999D01*
X143595999Y-88717999D02*
X144759990Y-87554008D01*
X144759990Y-81882400D02*
X143870990Y-80993400D01*
X144759990Y-87554008D02*
X144759990Y-81882400D01*
X143870990Y-80993400D02*
X143870990Y-73244990D01*
X143870990Y-73244990D02*
X143432000Y-72806000D01*
X143432000Y-72806000D02*
X142162000Y-72806000D01*
%TO.N,Net-(D3-Pad2)*%
X143997991Y-104877599D02*
X143997991Y-112487991D01*
X145718000Y-103157590D02*
X143997991Y-104877599D01*
X145718000Y-100747410D02*
X145718000Y-103157590D01*
X144751000Y-112733000D02*
X145986000Y-112733000D01*
X144243000Y-112733000D02*
X144751000Y-112733000D01*
X143684590Y-98714000D02*
X145718000Y-100747410D01*
X142162000Y-98714000D02*
X143684590Y-98714000D01*
X141781000Y-98333000D02*
X142162000Y-98714000D01*
X142289000Y-77759000D02*
X143305000Y-77759000D01*
X144194000Y-87483588D02*
X143145990Y-88531598D01*
X143997991Y-112487991D02*
X144243000Y-112733000D01*
X143305000Y-77759000D02*
X143420980Y-77874980D01*
X143420980Y-77874980D02*
X143420980Y-81179800D01*
X143420980Y-81179800D02*
X144194000Y-81952820D01*
X144194000Y-81952820D02*
X144194000Y-87483588D01*
X143813000Y-95158000D02*
X142289000Y-95158000D01*
X143145990Y-88531598D02*
X143145989Y-91063399D01*
X143145989Y-91063399D02*
X143870990Y-91788400D01*
X142289000Y-95158000D02*
X141781000Y-95666000D01*
X143870990Y-91788400D02*
X143870990Y-95100010D01*
X143870990Y-95100010D02*
X143813000Y-95158000D01*
X141781000Y-95666000D02*
X141781000Y-98333000D01*
%TO.N,Net-(D4-Pad4)*%
X149020000Y-101381000D02*
X149020000Y-101381000D01*
X146480000Y-67472000D02*
X146480000Y-59344000D01*
X146480000Y-59344000D02*
X144575000Y-57439000D01*
X144575000Y-57439000D02*
X142035000Y-57439000D01*
X147067410Y-108923000D02*
X148327010Y-107663400D01*
X145986000Y-108923000D02*
X147067410Y-108923000D01*
X148327010Y-102073990D02*
X149020000Y-101381000D01*
X148327010Y-107663400D02*
X148327010Y-102073990D01*
%TO.N,Net-(D4-Pad3)*%
X145986000Y-107653000D02*
X147701000Y-107653000D01*
X147701000Y-107653000D02*
X147877000Y-107477000D01*
X147877000Y-107477000D02*
X147877000Y-101000000D01*
X145210000Y-79918000D02*
X145210000Y-61122000D01*
X145210000Y-61122000D02*
X144194000Y-60106000D01*
X144194000Y-60106000D02*
X142035000Y-60106000D01*
X147877000Y-101000000D02*
X147877000Y-101000000D01*
%TO.N,Net-(D5-Pad3)*%
X155286000Y-111463000D02*
X153670000Y-111463000D01*
X151294980Y-109087980D02*
X151294980Y-108484800D01*
X153670000Y-111463000D02*
X151294980Y-109087980D01*
X151294980Y-108484800D02*
X151294980Y-106207000D01*
X151294980Y-106207000D02*
X151294980Y-98598020D01*
X151294980Y-98598020D02*
X151941000Y-97952000D01*
X151941000Y-97952000D02*
X151941000Y-92872000D01*
X151941000Y-92872000D02*
X151941000Y-87538000D01*
X151941000Y-87538000D02*
X154227000Y-85252000D01*
%TO.N,Net-(D6-Pad3)*%
X155286000Y-115273000D02*
X156579980Y-115273000D01*
X156579980Y-115273000D02*
X156755980Y-115097000D01*
X156755980Y-115097000D02*
X156755980Y-103667000D01*
X156755980Y-103667000D02*
X156755980Y-102639980D01*
X156755980Y-102639980D02*
X156755980Y-101623980D01*
X156755980Y-101623980D02*
X155624000Y-100492000D01*
X155624000Y-100492000D02*
X155624000Y-100492000D01*
X157275000Y-78140000D02*
X157275000Y-74838000D01*
X157275000Y-74838000D02*
X158037000Y-74076000D01*
X158037000Y-74076000D02*
X158037000Y-72806000D01*
X158037000Y-72806000D02*
X157275000Y-72044000D01*
X157275000Y-72044000D02*
X155243000Y-72044000D01*
X155243000Y-72044000D02*
X154735000Y-72552000D01*
%TO.N,Net-(D6-Pad2)*%
X155286000Y-116543000D02*
X156845000Y-116543000D01*
X156845000Y-116543000D02*
X157205990Y-116182010D01*
X157205990Y-103736010D02*
X157205990Y-100422990D01*
X157205990Y-116182010D02*
X157205990Y-103736010D01*
X157205990Y-103736010D02*
X157205990Y-103609010D01*
X157205990Y-100422990D02*
X157205990Y-100422990D01*
X156894000Y-73441000D02*
X156386000Y-73949000D01*
X156386000Y-73949000D02*
X156386000Y-76235000D01*
X156386000Y-76235000D02*
X154862000Y-77759000D01*
%TO.N,Net-(D7-Pad4)*%
X160830000Y-116368000D02*
X162862000Y-116368000D01*
X160655000Y-116543000D02*
X160830000Y-116368000D01*
X159956000Y-116543000D02*
X160655000Y-116543000D01*
X162862000Y-116368000D02*
X163625000Y-115605000D01*
X163625000Y-115605000D02*
X163625000Y-115605000D01*
X162736000Y-102016000D02*
X162736000Y-98714000D01*
X162736000Y-98714000D02*
X162101000Y-98079000D01*
X162101000Y-98079000D02*
X162101000Y-96174000D01*
X162101000Y-96174000D02*
X164063990Y-94211010D01*
X164063990Y-94211010D02*
X164063991Y-92050599D01*
X164063991Y-92050599D02*
X164629980Y-91484610D01*
X164629980Y-91484610D02*
X164629980Y-80930028D01*
X164629980Y-80930028D02*
X162351477Y-78651523D01*
X162351477Y-78651523D02*
X161120953Y-77420997D01*
X161120953Y-77420997D02*
X161120953Y-62646000D01*
X161120953Y-62646000D02*
X161120953Y-62046953D01*
X161120953Y-62046953D02*
X156386000Y-57312000D01*
X156386000Y-57312000D02*
X154862000Y-57312000D01*
%TO.N,Net-(D7-Pad3)*%
X159956000Y-115273000D02*
X158975000Y-115273000D01*
X159956000Y-115273000D02*
X158594000Y-115273000D01*
X158594000Y-115273000D02*
X157656000Y-114335000D01*
X157656000Y-114335000D02*
X157656000Y-106207000D01*
X157713990Y-106149010D02*
X157713991Y-106147599D01*
X157656000Y-106207000D02*
X157713990Y-106149010D01*
X157656000Y-106205590D02*
X157656000Y-106207000D01*
X159180000Y-99984000D02*
X159180000Y-104681590D01*
X157021000Y-95031000D02*
X157021000Y-97825000D01*
X159815000Y-92237000D02*
X157021000Y-95031000D01*
X159815000Y-70774000D02*
X159815000Y-92237000D01*
X155751000Y-66710000D02*
X159815000Y-70774000D01*
X153719000Y-66710000D02*
X155751000Y-66710000D01*
X152703000Y-65694000D02*
X153719000Y-66710000D01*
X159180000Y-104681590D02*
X157656000Y-106205590D01*
X152703000Y-61503000D02*
X152703000Y-65694000D01*
X154100000Y-60106000D02*
X152703000Y-61503000D01*
X157021000Y-97825000D02*
X159180000Y-99984000D01*
%TO.N,Net-(D7-Pad2)*%
X159956000Y-114003000D02*
X159229000Y-114003000D01*
X159229000Y-114003000D02*
X158164000Y-112938000D01*
X158164000Y-112938000D02*
X158164000Y-106334000D01*
X158164000Y-106334000D02*
X159670999Y-104827001D01*
X160450000Y-94015000D02*
X160450000Y-70266000D01*
X160450000Y-70266000D02*
X155370000Y-65186000D01*
X155370000Y-65186000D02*
X154989000Y-65186000D01*
X159670999Y-104827001D02*
X159670999Y-98061999D01*
X159670999Y-98061999D02*
X159561000Y-97952000D01*
X159561000Y-94904000D02*
X160450000Y-94015000D01*
X159561000Y-97952000D02*
X159561000Y-94904000D01*
%TO.N,Net-(D8-Pad4)*%
X159956000Y-112733000D02*
X164211000Y-112733000D01*
X166105800Y-110838200D02*
X166105800Y-100932200D01*
X164211000Y-112733000D02*
X166105800Y-110838200D01*
X166105800Y-100932200D02*
X171165958Y-95872042D01*
X171165958Y-95872042D02*
X171165958Y-83908598D01*
X171165958Y-83908598D02*
X169969360Y-82712000D01*
X169969360Y-82712000D02*
X167689000Y-82712000D01*
%TO.N,Net-(D8-Pad3)*%
X165530000Y-110652000D02*
X165655590Y-110652000D01*
X164419000Y-111763000D02*
X165530000Y-110652000D01*
X160256000Y-111763000D02*
X164419000Y-111763000D01*
X159956000Y-111463000D02*
X160256000Y-111763000D01*
X165655790Y-110651800D02*
X165655791Y-100745799D01*
X165655590Y-110652000D02*
X165655790Y-110651800D01*
X165655791Y-100745799D02*
X170715948Y-95685642D01*
X170715948Y-95685642D02*
X170715948Y-87411000D01*
X170715948Y-87411000D02*
X170715948Y-86119948D01*
X170715948Y-86119948D02*
X170102000Y-85506000D01*
X170102000Y-85506000D02*
X167435000Y-85506000D01*
%TO.N,Net-(D8-Pad2)*%
X159956000Y-110193000D02*
X164521781Y-110193000D01*
X165205781Y-109509000D02*
X165205782Y-100559398D01*
X164521781Y-110193000D02*
X165205781Y-109509000D01*
X165205782Y-100559398D02*
X170265938Y-95499242D01*
X170265938Y-95499242D02*
X170265938Y-92146938D01*
X170265938Y-92146938D02*
X170265938Y-91094000D01*
X170265938Y-91094000D02*
X170265938Y-90749938D01*
X170265938Y-90749938D02*
X169975000Y-90459000D01*
X169975000Y-90459000D02*
X167816000Y-90459000D01*
%TO.N,Net-(D9-Pad4)*%
X164165000Y-109223000D02*
X164755772Y-108632228D01*
X160256000Y-109223000D02*
X164165000Y-109223000D01*
X159956000Y-108923000D02*
X160256000Y-109223000D01*
X164755772Y-108632228D02*
X164755773Y-100372997D01*
X164755773Y-100372997D02*
X169815928Y-95312842D01*
X169815928Y-95312842D02*
X169815928Y-93347928D01*
X169815928Y-93347928D02*
X169086000Y-92618000D01*
X169086000Y-92618000D02*
X166546000Y-92618000D01*
X165530000Y-91602000D02*
X165530000Y-80557230D01*
X166546000Y-92618000D02*
X165530000Y-91602000D01*
X165530000Y-80557230D02*
X162020972Y-77048198D01*
X166173201Y-54887981D02*
X168315802Y-54887982D01*
X169732020Y-56304200D02*
X169732020Y-64158980D01*
X168315802Y-54887982D02*
X169732020Y-56304200D01*
X162020972Y-59040208D02*
X166173201Y-54887981D01*
X162020972Y-77048198D02*
X162020972Y-59040208D01*
X169732020Y-64158980D02*
X169721000Y-64170000D01*
X169721000Y-64170000D02*
X169721000Y-67853000D01*
X169721000Y-67853000D02*
X167562000Y-70012000D01*
%TO.N,Net-(D9-Pad3)*%
X159956000Y-107653000D02*
X164256763Y-107653000D01*
X164305763Y-107604000D02*
X164305763Y-99049237D01*
X164256763Y-107653000D02*
X164305763Y-107604000D01*
X164305763Y-99049237D02*
X164514000Y-98841000D01*
X164514000Y-92237000D02*
X165079990Y-91671010D01*
X164514000Y-98841000D02*
X164514000Y-92237000D01*
X165079990Y-80743629D02*
X161570962Y-77234598D01*
X165079990Y-91671010D02*
X165079990Y-80743629D01*
X170182030Y-56117800D02*
X170182030Y-70312970D01*
X168502203Y-54437973D02*
X170182030Y-56117800D01*
X165986802Y-54437972D02*
X168502203Y-54437973D01*
X161570963Y-58853807D02*
X165986802Y-54437972D01*
X161570962Y-77234598D02*
X161570963Y-58853807D01*
X170182030Y-70312970D02*
X167689000Y-72806000D01*
%TO.N,Net-(D9-Pad2)*%
X167905990Y-101742008D02*
X172965998Y-96682000D01*
X167905990Y-107999758D02*
X167905990Y-101742008D01*
X168184242Y-108278010D02*
X167905990Y-107999758D01*
X168611010Y-108278010D02*
X168184242Y-108278010D01*
X169256000Y-108923000D02*
X168611010Y-108278010D01*
X172965998Y-96682000D02*
X172965998Y-83162998D01*
X172965998Y-83162998D02*
X167562000Y-77759000D01*
%TO.N,Net-(D10-Pad4)*%
X163371000Y-60614000D02*
X166927000Y-57058000D01*
X166292000Y-79410000D02*
X163371000Y-76489000D01*
X168576590Y-79410000D02*
X166292000Y-79410000D01*
X172515988Y-83349398D02*
X168576590Y-79410000D01*
X172515988Y-96495600D02*
X172515988Y-83349398D01*
X167455857Y-108819620D02*
X167455981Y-101555607D01*
X167455981Y-101555607D02*
X172515988Y-96495600D01*
X168184242Y-109548010D02*
X167455857Y-108819620D01*
X168611010Y-109548010D02*
X168184242Y-109548010D01*
X163371000Y-76489000D02*
X163371000Y-60614000D01*
X169256000Y-110193000D02*
X168611010Y-109548010D01*
%TO.N,Net-(D10-Pad3)*%
X167005972Y-101937028D02*
X167005972Y-101369206D01*
X167005819Y-110237818D02*
X167005819Y-101937181D01*
X168231000Y-111463000D02*
X167005819Y-110237818D01*
X167005819Y-101937181D02*
X167005972Y-101937028D01*
X169256000Y-111463000D02*
X168231000Y-111463000D01*
X167005972Y-101369206D02*
X172065978Y-96309200D01*
X172065978Y-96309200D02*
X172065978Y-83535798D01*
X172065978Y-83535798D02*
X168390190Y-79860010D01*
X168390190Y-79860010D02*
X166105599Y-79860009D01*
X162920990Y-76675400D02*
X162920991Y-60427599D01*
X166105599Y-79860009D02*
X162920990Y-76675400D01*
X162920991Y-60427599D02*
X165465795Y-57882795D01*
X165465795Y-57882795D02*
X165530000Y-57818590D01*
X165530000Y-57818590D02*
X165530000Y-56804000D01*
X165530000Y-56804000D02*
X166546000Y-55788000D01*
X166546000Y-55788000D02*
X167943000Y-55788000D01*
X167943000Y-55788000D02*
X168832000Y-56677000D01*
X168832000Y-56677000D02*
X168832000Y-58455000D01*
X168832000Y-58455000D02*
X167689000Y-59598000D01*
%TO.N,Net-(D10-Pad2)*%
X166555811Y-101182957D02*
X171615968Y-96122800D01*
X166555809Y-110424218D02*
X166555811Y-101182957D01*
X167905990Y-111774400D02*
X166555809Y-110424218D01*
X167905990Y-112407990D02*
X167905990Y-111774400D01*
X168231000Y-112733000D02*
X167905990Y-112407990D01*
X169256000Y-112733000D02*
X168231000Y-112733000D01*
X171615968Y-96122800D02*
X171615968Y-90078000D01*
X171615968Y-90078000D02*
X171615968Y-84098968D01*
X171615968Y-84098968D02*
X171615968Y-83722198D01*
X171615968Y-83722198D02*
X168203789Y-80310019D01*
X165919198Y-80310018D02*
X162470981Y-76861799D01*
X168203789Y-80310019D02*
X165919198Y-80310018D01*
X162470981Y-76861799D02*
X162470982Y-60241198D01*
X168129401Y-55337991D02*
X169282010Y-56490600D01*
X166359600Y-55337990D02*
X168129401Y-55337991D01*
X165079991Y-56617599D02*
X166359600Y-55337990D01*
X165079990Y-57632190D02*
X165079991Y-56617599D01*
X162470982Y-60241198D02*
X165079990Y-57632190D01*
X169282010Y-56490600D02*
X169282010Y-63465990D01*
X169282010Y-63465990D02*
X167689000Y-65059000D01*
%TO.N,Net-(R1-Pad1)*%
X155136000Y-124439186D02*
X153159814Y-122463000D01*
X155136000Y-126468000D02*
X155136000Y-124439186D01*
X153159814Y-122463000D02*
X151433000Y-122463000D01*
X151433000Y-122463000D02*
X150544000Y-121574000D01*
X150544000Y-117891000D02*
X149909000Y-117256000D01*
X149909000Y-117256000D02*
X147496000Y-117256000D01*
X147496000Y-117256000D02*
X147115000Y-117256000D01*
X147115000Y-117256000D02*
X146607000Y-117764000D01*
X150544000Y-121574000D02*
X150544000Y-117891000D01*
%TO.N,Net-(R2-Pad1)*%
X164952990Y-122012990D02*
X160704000Y-117764000D01*
X164952990Y-122012990D02*
X165030990Y-122012990D01*
X165030990Y-122012990D02*
X166746000Y-123728000D01*
X166746000Y-123728000D02*
X166746000Y-126478000D01*
D34*
%TO.N,sw1*%
X223026000Y-82888000D02*
X221575999Y-84338001D01*
X221575999Y-95196999D02*
X223061000Y-96682000D01*
D35*
X173926000Y-107653000D02*
X180594000Y-107653000D01*
X180594000Y-107653000D02*
X181532000Y-106715000D01*
X181532000Y-106715000D02*
X187628000Y-106715000D01*
X187882000Y-106715000D02*
X189533000Y-108366000D01*
X187628000Y-106715000D02*
X187882000Y-106715000D01*
X189533000Y-108366000D02*
X202764523Y-108366000D01*
X203077925Y-105096795D02*
X205211730Y-102962990D01*
X203077924Y-108052599D02*
X203077925Y-105096795D01*
X202764523Y-108366000D02*
X203077924Y-108052599D01*
X205211730Y-102962990D02*
X208456000Y-102962990D01*
X208456000Y-102962990D02*
X217034010Y-102962990D01*
X217034010Y-102962990D02*
X221096600Y-102962990D01*
X221096600Y-102962990D02*
X224203295Y-99856295D01*
X224203295Y-99856295D02*
X224204000Y-99855590D01*
X224204000Y-99855590D02*
X224204000Y-98333000D01*
X224204000Y-98333000D02*
X224204000Y-98206000D01*
X224204000Y-98206000D02*
X223188000Y-97190000D01*
X221575999Y-84338001D02*
X221561999Y-84338001D01*
D34*
X221561999Y-84338001D02*
X219759000Y-86141000D01*
X219759000Y-90127002D02*
X221575999Y-91944001D01*
X219759000Y-86141000D02*
X219759000Y-90127002D01*
X221575999Y-91944001D02*
X221575999Y-95196999D01*
D35*
%TO.N,SDA0*%
X173926000Y-120353000D02*
X175612000Y-120353000D01*
X175612000Y-120353000D02*
X175817000Y-120558000D01*
X175817000Y-120558000D02*
X175817000Y-122082000D01*
X175817000Y-122082000D02*
X175055000Y-122844000D01*
X175055000Y-122844000D02*
X168197000Y-122844000D01*
X168197000Y-122844000D02*
X168070000Y-122844000D01*
X168070000Y-122844000D02*
X166673000Y-121447000D01*
X166673000Y-121447000D02*
X166673000Y-118272000D01*
X166673000Y-118272000D02*
X166673000Y-118272000D01*
X149147000Y-120050000D02*
X149147000Y-120177000D01*
X149147000Y-120177000D02*
X148893000Y-120431000D01*
X148893000Y-120431000D02*
X146607000Y-120431000D01*
X139368000Y-102905000D02*
X136955000Y-100492000D01*
X136955000Y-100492000D02*
X136955000Y-100492000D01*
D34*
X125906000Y-92185814D02*
X125854814Y-92237000D01*
X125906000Y-90548000D02*
X125906000Y-92185814D01*
X125854814Y-92237000D02*
X100887000Y-92237000D01*
X100887000Y-92237000D02*
X99871000Y-93253000D01*
X99871000Y-93253000D02*
X99871000Y-93253000D01*
X98728000Y-100746000D02*
X100887000Y-100746000D01*
X100887000Y-100746000D02*
X101903000Y-101762000D01*
X101903000Y-101762000D02*
X101903000Y-102778000D01*
X101903000Y-102778000D02*
X101014000Y-103667000D01*
X101014000Y-103667000D02*
X95426000Y-103667000D01*
X95426000Y-103667000D02*
X94918000Y-104175000D01*
X94918000Y-104175000D02*
X94918000Y-107223000D01*
D35*
X145986000Y-120353000D02*
X143862000Y-120353000D01*
X143608000Y-120353000D02*
X143608000Y-120353000D01*
X143862000Y-120353000D02*
X143608000Y-120353000D01*
%TO.N,SCL0*%
X167883599Y-123294009D02*
X165403000Y-120813410D01*
X175241400Y-123294010D02*
X167883599Y-123294009D01*
X176267009Y-122268401D02*
X175241400Y-123294010D01*
X176267010Y-120371600D02*
X176267009Y-122268401D01*
X174978410Y-119083000D02*
X176267010Y-120371600D01*
X173926000Y-119083000D02*
X174978410Y-119083000D01*
X165403000Y-120813410D02*
X165403000Y-118272000D01*
X165403000Y-118272000D02*
X165403000Y-118272000D01*
X148639000Y-119034000D02*
X146607000Y-119034000D01*
X145986000Y-119083000D02*
X144370000Y-119083000D01*
X144370000Y-119083000D02*
X144116000Y-119083000D01*
X144116000Y-119083000D02*
X144116000Y-119083000D01*
X140384000Y-102016000D02*
X137971000Y-99603000D01*
X137971000Y-99603000D02*
X137971000Y-99603000D01*
D34*
X129716000Y-90548000D02*
X129716000Y-92110000D01*
X129716000Y-92110000D02*
X128573000Y-93253000D01*
X128573000Y-93253000D02*
X103173000Y-93253000D01*
X103173000Y-93253000D02*
X101903000Y-94523000D01*
X101903000Y-94523000D02*
X101903000Y-94523000D01*
X100252000Y-101635000D02*
X99363000Y-102524000D01*
X99363000Y-102524000D02*
X96188000Y-102524000D01*
X94067999Y-100403999D02*
X92593001Y-100403999D01*
X96188000Y-102524000D02*
X94067999Y-100403999D01*
X92593001Y-100403999D02*
X92251000Y-100746000D01*
X92251000Y-100746000D02*
X92251000Y-106842000D01*
D35*
%TO.N,SDA1*%
X158155980Y-118979748D02*
X158155980Y-116646252D01*
X158155980Y-116646252D02*
X158884242Y-115917990D01*
X158884242Y-119708010D02*
X158155980Y-118979748D01*
X159311010Y-119708010D02*
X158884242Y-119708010D01*
X159956000Y-120353000D02*
X159311010Y-119708010D01*
X175688590Y-97698000D02*
X185977000Y-97698000D01*
X185977000Y-97698000D02*
X191692000Y-97698000D01*
X191692000Y-97698000D02*
X191692000Y-97698000D01*
X175688590Y-97698000D02*
X173023000Y-97698000D01*
X173023000Y-97698000D02*
X169594000Y-101127000D01*
X169594000Y-101127000D02*
X169594000Y-101127000D01*
X163244000Y-114208000D02*
X165022000Y-114208000D01*
X165022000Y-114208000D02*
X165022000Y-114208000D01*
X161007778Y-115917990D02*
X162082768Y-114843000D01*
X158884242Y-115917990D02*
X161007778Y-115917990D01*
X162609000Y-114843000D02*
X163244000Y-114208000D01*
X162082768Y-114843000D02*
X162609000Y-114843000D01*
X132891000Y-120431000D02*
X132764000Y-120431000D01*
X134161000Y-120431000D02*
X132891000Y-120431000D01*
X129716000Y-114081000D02*
X128700000Y-113065000D01*
X128700000Y-113065000D02*
X128319000Y-112684000D01*
X128319000Y-112684000D02*
X127938000Y-112303000D01*
X127938000Y-112303000D02*
X117143000Y-112303000D01*
X117143000Y-112303000D02*
X116127000Y-112303000D01*
X116127000Y-112303000D02*
X115492000Y-112938000D01*
X115492000Y-112938000D02*
X115492000Y-112938000D01*
X199566000Y-91348000D02*
X199566000Y-94904000D01*
X147242000Y-123225000D02*
X147242000Y-126781000D01*
X139749000Y-123225000D02*
X147242000Y-123225000D01*
X134161000Y-120431000D02*
X136955000Y-120431000D01*
X136955000Y-120431000D02*
X139749000Y-123225000D01*
X157021000Y-121066000D02*
X157734000Y-120353000D01*
X156386000Y-127924000D02*
X157021000Y-127289000D01*
X157021000Y-127289000D02*
X157021000Y-121066000D01*
X157734000Y-120353000D02*
X159956000Y-120353000D01*
X147242000Y-126781000D02*
X150193000Y-126781000D01*
X150193000Y-126781000D02*
X151246000Y-125728000D01*
X151246000Y-125728000D02*
X151246000Y-124728000D01*
X151246000Y-124728000D02*
X153246000Y-124728000D01*
X153692000Y-125174000D02*
X153692000Y-127924000D01*
X153246000Y-124728000D02*
X153692000Y-125174000D01*
X153692000Y-127924000D02*
X156386000Y-127924000D01*
%TO.N,SCL1*%
X193597000Y-99730000D02*
X193978000Y-99730000D01*
X193978000Y-99730000D02*
X194613000Y-99095000D01*
X194613000Y-99095000D02*
X194613000Y-95285000D01*
X174420000Y-99730000D02*
X174039000Y-99730000D01*
X174293000Y-99730000D02*
X174420000Y-99730000D01*
X174420000Y-99730000D02*
X193597000Y-99730000D01*
X174039000Y-99730000D02*
X173531000Y-99730000D01*
X173531000Y-99730000D02*
X169721000Y-103540000D01*
X169721000Y-103540000D02*
X169721000Y-103540000D01*
X166038000Y-115478000D02*
X166038000Y-115478000D01*
X164347990Y-117168010D02*
X166038000Y-115478000D01*
X158886990Y-117168010D02*
X164347990Y-117168010D01*
X158605990Y-117449010D02*
X158886990Y-117168010D01*
X158605990Y-118159758D02*
X158605990Y-117449010D01*
X158884242Y-118438010D02*
X158605990Y-118159758D01*
X159311010Y-118438010D02*
X158884242Y-118438010D01*
X159956000Y-119083000D02*
X159311010Y-118438010D01*
X159956000Y-119083000D02*
X160753000Y-119083000D01*
X160753000Y-119083000D02*
X162355000Y-120685000D01*
X162355000Y-120685000D02*
X162355000Y-120685000D01*
X135050000Y-121701000D02*
X135050000Y-121701000D01*
X136574000Y-119415000D02*
X134161000Y-119415000D01*
X134161000Y-119415000D02*
X133780000Y-119034000D01*
X133780000Y-119034000D02*
X132256000Y-119034000D01*
X129843000Y-115859000D02*
X127938000Y-113954000D01*
X127938000Y-113954000D02*
X127430000Y-113446000D01*
X127430000Y-113446000D02*
X127176000Y-113192000D01*
X127176000Y-113192000D02*
X117143000Y-113192000D01*
X117143000Y-113192000D02*
X116635000Y-113700000D01*
X116635000Y-113700000D02*
X116635000Y-113700000D01*
X194486000Y-95158000D02*
X194486000Y-91348000D01*
X156572400Y-128374010D02*
X158164000Y-126782410D01*
X158164000Y-126782410D02*
X158164000Y-122082000D01*
X137588590Y-121701000D02*
X139562599Y-123675009D01*
X135050000Y-121701000D02*
X137588590Y-121701000D01*
X146791990Y-123675010D02*
X146791990Y-127219990D01*
X139562599Y-123675009D02*
X146791990Y-123675010D01*
X150379401Y-127231009D02*
X151696010Y-125914400D01*
X147055600Y-127231010D02*
X150379401Y-127231009D01*
X147044580Y-127219990D02*
X147055600Y-127231010D01*
X146791990Y-127219990D02*
X147044580Y-127219990D01*
X152996000Y-125228000D02*
X153142010Y-125374010D01*
X151746000Y-125228000D02*
X152996000Y-125228000D01*
X153142010Y-125374010D02*
X153142010Y-128374010D01*
X151696010Y-125277990D02*
X151746000Y-125228000D01*
X151696010Y-125914400D02*
X151696010Y-125277990D01*
X153142010Y-128374010D02*
X156572400Y-128374010D01*
%TO.N,INT0*%
X184836186Y-121623000D02*
X187120000Y-119339186D01*
X183226000Y-121623000D02*
X184836186Y-121623000D01*
X187120000Y-119339186D02*
X187120000Y-119161000D01*
X187120000Y-119161000D02*
X187120000Y-119161000D01*
X187951010Y-118329990D02*
X188078010Y-118329990D01*
X187120000Y-119161000D02*
X187951010Y-118329990D01*
X188078010Y-118329990D02*
X189533000Y-116875000D01*
X189533000Y-116875000D02*
X199058000Y-116875000D01*
X199058000Y-116875000D02*
X200074000Y-116875000D01*
X200074000Y-116875000D02*
X200074000Y-116875000D01*
%TO.N,INT1*%
X141316000Y-121623000D02*
X139036000Y-121623000D01*
X139036000Y-121623000D02*
X137844000Y-120431000D01*
X137844000Y-102905000D02*
X130986000Y-96047000D01*
X130986000Y-96047000D02*
X123493000Y-96047000D01*
X123493000Y-96047000D02*
X122858000Y-96047000D01*
X122858000Y-96047000D02*
X122223000Y-96682000D01*
X122223000Y-96682000D02*
X122223000Y-97952000D01*
X137844000Y-120431000D02*
X137844000Y-119415000D01*
X137844000Y-119415000D02*
X137844000Y-119415000D01*
X137844000Y-102905000D02*
X138606000Y-103667000D01*
X138606000Y-103667000D02*
X138606000Y-103667000D01*
X87171000Y-114335000D02*
X87171000Y-125511000D01*
X103808000Y-114335000D02*
X87171000Y-114335000D01*
X110031000Y-112938000D02*
X105205000Y-112938000D01*
X111047000Y-113954000D02*
X110031000Y-112938000D01*
X105205000Y-112938000D02*
X103808000Y-114335000D01*
X113079000Y-113954000D02*
X111047000Y-113954000D01*
X115365000Y-111668000D02*
X113079000Y-113954000D01*
X115365000Y-111541000D02*
X115365000Y-111668000D01*
X125525000Y-111541000D02*
X115365000Y-111541000D01*
X126922000Y-110144000D02*
X125525000Y-111541000D01*
D34*
%TO.N,sw2*%
X223026000Y-70188000D02*
X225474000Y-72636000D01*
X225474000Y-72636000D02*
X225474000Y-96936000D01*
D35*
X183226000Y-108923000D02*
X202843933Y-108923000D01*
X203527934Y-105283196D02*
X205398130Y-103413000D01*
X203527933Y-108239000D02*
X203527934Y-105283196D01*
X202843933Y-108923000D02*
X203527933Y-108239000D01*
X205398130Y-103413000D02*
X219378000Y-103413000D01*
X219378000Y-103413000D02*
X221283000Y-103413000D01*
X221283000Y-103413000D02*
X225601000Y-99095000D01*
X225601000Y-99095000D02*
X225601000Y-96936000D01*
D34*
%TO.N,sw3*%
X223026000Y-57488000D02*
X227887000Y-62349000D01*
X227887000Y-62349000D02*
X227887000Y-96809000D01*
D35*
X183226000Y-110193000D02*
X190246000Y-110193000D01*
X203581000Y-110193000D02*
X203977942Y-109796058D01*
X190246000Y-110193000D02*
X203581000Y-110193000D01*
X203977943Y-105469597D02*
X205559599Y-103887941D01*
X203977942Y-109796058D02*
X203977943Y-105469597D01*
X221561599Y-103887941D02*
X228141000Y-97308540D01*
X205559599Y-103887941D02*
X221561599Y-103887941D01*
D34*
%TO.N,sw4*%
X234456000Y-82888000D02*
X230681000Y-86663000D01*
X230681000Y-86663000D02*
X230681000Y-96809000D01*
D35*
X204427952Y-105655998D02*
X205745999Y-104337951D01*
X221747999Y-104337951D02*
X223307950Y-102778000D01*
X205745999Y-104337951D02*
X221747999Y-104337951D01*
X223307950Y-102778000D02*
X224839000Y-102778000D01*
X224839000Y-102778000D02*
X230808000Y-96809000D01*
X183226000Y-111463000D02*
X186808010Y-111463000D01*
X204427952Y-109982458D02*
X204427952Y-105655998D01*
X203767401Y-110643009D02*
X204427952Y-109982458D01*
X187628000Y-110643010D02*
X203767401Y-110643009D01*
X186808010Y-111463000D02*
X187628000Y-110643010D01*
D34*
%TO.N,sw5*%
X235906001Y-71638001D02*
X235906001Y-90821999D01*
X234456000Y-70188000D02*
X235906001Y-71638001D01*
X235906001Y-90821999D02*
X233729000Y-92999000D01*
X233729000Y-92999000D02*
X233221000Y-93507000D01*
X233221000Y-93507000D02*
X233221000Y-96682000D01*
D35*
X204877963Y-105842397D02*
X205932399Y-104787961D01*
X204877962Y-105953000D02*
X204877963Y-105842397D01*
X205932399Y-104787961D02*
X205932400Y-104787960D01*
X205932399Y-104787961D02*
X212923039Y-104787961D01*
X212923039Y-104787961D02*
X221934399Y-104787961D01*
X221934399Y-104787961D02*
X222423180Y-104299180D01*
X222423180Y-104299180D02*
X223458400Y-103263960D01*
X223458400Y-103263960D02*
X226766040Y-103263960D01*
X226766040Y-103263960D02*
X233221000Y-96809000D01*
X204877962Y-110168858D02*
X204877962Y-107245038D01*
X203953802Y-111093018D02*
X204877962Y-110168858D01*
X187814402Y-111093018D02*
X203953802Y-111093018D01*
X186174420Y-112733000D02*
X187814402Y-111093018D01*
X183226000Y-112733000D02*
X186174420Y-112733000D01*
X204877962Y-107245038D02*
X204877962Y-105953000D01*
X204877962Y-107350000D02*
X204877962Y-107245038D01*
D34*
%TO.N,sw6*%
X234456000Y-57488000D02*
X237539000Y-60571000D01*
X237539000Y-60571000D02*
X237539000Y-91856000D01*
X237539000Y-91856000D02*
X235761000Y-93634000D01*
X235761000Y-93634000D02*
X235761000Y-96555000D01*
D35*
X205327972Y-106028798D02*
X206118800Y-105237970D01*
X222120800Y-105237970D02*
X223644800Y-103713970D01*
X206118800Y-105237970D02*
X222120800Y-105237970D01*
X223644800Y-103713970D02*
X229110030Y-103713970D01*
X229110030Y-103713970D02*
X235634000Y-97190000D01*
X185540830Y-114003000D02*
X188000802Y-111543028D01*
X183226000Y-114003000D02*
X185540830Y-114003000D01*
X205327972Y-110355258D02*
X205327972Y-106028798D01*
X204140203Y-111543027D02*
X205327972Y-110355258D01*
X188000802Y-111543028D02*
X204140203Y-111543027D01*
D34*
%TO.N,sw7*%
X239063000Y-86141000D02*
X239063000Y-93634000D01*
X239063000Y-93634000D02*
X238174000Y-94523000D01*
X238174000Y-94523000D02*
X238174000Y-96936000D01*
D35*
X231200020Y-104163980D02*
X238682000Y-96682000D01*
X223831200Y-104163980D02*
X231200020Y-104163980D01*
X205777981Y-106215199D02*
X206305200Y-105687980D01*
X222307200Y-105687980D02*
X223831200Y-104163980D01*
X205777981Y-110541659D02*
X205777981Y-106215199D01*
X204326604Y-111993036D02*
X205777981Y-110541659D01*
X188187204Y-111993036D02*
X204326604Y-111993036D01*
X184907240Y-115273000D02*
X188187204Y-111993036D01*
X206305200Y-105687980D02*
X222307200Y-105687980D01*
X183226000Y-115273000D02*
X184907240Y-115273000D01*
X239063000Y-86141000D02*
X239063000Y-85887000D01*
D34*
X239063000Y-86141000D02*
X239063000Y-85125000D01*
X239063000Y-85125000D02*
X240714000Y-83474000D01*
X240714000Y-83474000D02*
X245413000Y-83474000D01*
%TO.N,sw8*%
X247336001Y-71638001D02*
X247336001Y-84344999D01*
X245886000Y-70188000D02*
X247336001Y-71638001D01*
X247336001Y-84344999D02*
X242873000Y-88808000D01*
X242873000Y-88808000D02*
X241222000Y-90459000D01*
X241222000Y-90459000D02*
X240714000Y-90967000D01*
X240714000Y-90967000D02*
X240714000Y-96428000D01*
D35*
X233036010Y-104613990D02*
X240714000Y-96936000D01*
X206491600Y-106137990D02*
X222493600Y-106137990D01*
X222493600Y-106137990D02*
X224017600Y-104613990D01*
X206227990Y-106401600D02*
X206491600Y-106137990D01*
X206227991Y-110728059D02*
X206227990Y-106401600D01*
X224017600Y-104613990D02*
X233036010Y-104613990D01*
X204513004Y-112443046D02*
X206227991Y-110728059D01*
X188373604Y-112443046D02*
X204513004Y-112443046D01*
X184322650Y-116494000D02*
X188373604Y-112443046D01*
X183691000Y-116494000D02*
X184322650Y-116494000D01*
D34*
%TO.N,sw9*%
X245886000Y-57488000D02*
X248334000Y-59936000D01*
X248334000Y-59936000D02*
X248334000Y-91602000D01*
X248334000Y-91602000D02*
X243508000Y-96428000D01*
D35*
X206678000Y-106588000D02*
X222680000Y-106588000D01*
X206678000Y-110914458D02*
X206678000Y-106588000D01*
X224204000Y-105064000D02*
X235126000Y-105064000D01*
X204699405Y-112893055D02*
X206678000Y-110914458D01*
X188560004Y-112893056D02*
X204699405Y-112893055D01*
X185342000Y-116111060D02*
X188560004Y-112893056D01*
X235126000Y-105064000D02*
X243635000Y-96555000D01*
X185342000Y-117383000D02*
X185342000Y-116111060D01*
X184912000Y-117813000D02*
X185342000Y-117383000D01*
X222680000Y-106588000D02*
X224204000Y-105064000D01*
X183226000Y-117813000D02*
X184912000Y-117813000D01*
%TO.N,sw10*%
X141316000Y-117813000D02*
X137512000Y-117813000D01*
X137512000Y-117813000D02*
X134796000Y-115097000D01*
X134796000Y-115097000D02*
X134796000Y-106089870D01*
X134796000Y-106089870D02*
X131713194Y-103007064D01*
X131713194Y-103007064D02*
X119140195Y-103007063D01*
X119140195Y-103007063D02*
X115457202Y-99324070D01*
X85877810Y-100906058D02*
X69424058Y-100906058D01*
X87459799Y-99324070D02*
X85877810Y-100906058D01*
X115457202Y-99324070D02*
X87459799Y-99324070D01*
X69424058Y-100906058D02*
X65581000Y-97063000D01*
D34*
X65546000Y-96858000D02*
X65546000Y-85668000D01*
X65546000Y-85668000D02*
X65546000Y-84328000D01*
X65546000Y-84328000D02*
X64692000Y-83474000D01*
X64692000Y-83474000D02*
X63041000Y-83474000D01*
D35*
%TO.N,sw11*%
X141316000Y-116543000D02*
X138274000Y-116543000D01*
X138274000Y-116543000D02*
X135304000Y-113573000D01*
X135304000Y-113573000D02*
X135304000Y-105961460D01*
X135304000Y-105961460D02*
X131899595Y-102557055D01*
X131899595Y-102557055D02*
X119326596Y-102557054D01*
X119326596Y-102557054D02*
X115643602Y-98874060D01*
X115643602Y-98874060D02*
X88407940Y-98874060D01*
X87273399Y-98874060D02*
X85691410Y-100456048D01*
X88407940Y-98874060D02*
X87273399Y-98874060D01*
X85691410Y-100456048D02*
X71641048Y-100456048D01*
X71641048Y-100456048D02*
X68121000Y-96936000D01*
D34*
X68086000Y-96858000D02*
X68086000Y-72136000D01*
X68086000Y-72136000D02*
X66597000Y-70647000D01*
X66597000Y-70647000D02*
X62787000Y-70647000D01*
D35*
%TO.N,sw12*%
X141316000Y-115273000D02*
X138401000Y-115273000D01*
X138401000Y-115273000D02*
X135812000Y-112684000D01*
X135812000Y-112684000D02*
X135812000Y-105833050D01*
X135812000Y-105833050D02*
X132085996Y-102107046D01*
X132085996Y-102107046D02*
X119512997Y-102107045D01*
X119512997Y-102107045D02*
X115830002Y-98424050D01*
X115830002Y-98424050D02*
X87171000Y-98424050D01*
X87086999Y-98424050D02*
X85505010Y-100006038D01*
X87171000Y-98424050D02*
X87086999Y-98424050D01*
X85505010Y-100006038D02*
X73731038Y-100006038D01*
X73731038Y-100006038D02*
X70534000Y-96809000D01*
D34*
X70626000Y-96858000D02*
X70626000Y-61341000D01*
X70626000Y-61341000D02*
X67232000Y-57947000D01*
X67232000Y-57947000D02*
X62660000Y-57947000D01*
D35*
%TO.N,sw13*%
X139288590Y-114003000D02*
X136297960Y-111012370D01*
X141316000Y-114003000D02*
X139288590Y-114003000D01*
X136297960Y-111012370D02*
X136297960Y-105682600D01*
X136297960Y-105682600D02*
X132272397Y-101657037D01*
X132272397Y-101657037D02*
X119699398Y-101657036D01*
X119699398Y-101657036D02*
X116016402Y-97974040D01*
X86900600Y-97974040D02*
X85318610Y-99556028D01*
X116016402Y-97974040D02*
X86900600Y-97974040D01*
X85318610Y-99556028D02*
X75694028Y-99556028D01*
X75694028Y-99556028D02*
X73074000Y-96936000D01*
D34*
X73166000Y-96858000D02*
X73166000Y-94558000D01*
X73166000Y-94558000D02*
X77646000Y-90078000D01*
X77646000Y-90078000D02*
X77646000Y-84363000D01*
X77646000Y-84363000D02*
X76757000Y-83474000D01*
X76757000Y-83474000D02*
X74217000Y-83474000D01*
D35*
%TO.N,sw14*%
X138655000Y-112733000D02*
X141316000Y-112733000D01*
X136747970Y-110825970D02*
X138655000Y-112733000D01*
X136747970Y-105496200D02*
X136747970Y-110825970D01*
X132458797Y-101207027D02*
X136747970Y-105496200D01*
X86714200Y-97524030D02*
X116202800Y-97524030D01*
X116202800Y-97524030D02*
X119885799Y-101207027D01*
X85132211Y-99106019D02*
X86714200Y-97524030D01*
X77954020Y-99106020D02*
X85132211Y-99106019D01*
X119885799Y-101207027D02*
X132458797Y-101207027D01*
X75706000Y-96858000D02*
X77954020Y-99106020D01*
D34*
X75706000Y-96858000D02*
X75706000Y-94939000D01*
X75706000Y-94939000D02*
X80440000Y-90205000D01*
X80440000Y-90205000D02*
X80440000Y-72679000D01*
X80440000Y-72679000D02*
X78408000Y-70647000D01*
X78408000Y-70647000D02*
X74471000Y-70647000D01*
D35*
%TO.N,sw15*%
X141316000Y-111463000D02*
X138528000Y-111463000D01*
X137197980Y-105309800D02*
X136826590Y-104938410D01*
X137197980Y-110132980D02*
X137197980Y-105309800D01*
X138528000Y-111463000D02*
X137197980Y-110132980D01*
X136826590Y-104938410D02*
X132645200Y-100757020D01*
X132645200Y-100757020D02*
X120072198Y-100757018D01*
X120072198Y-100757018D02*
X116389200Y-97074020D01*
X116389200Y-97074020D02*
X93199400Y-97074020D01*
X84945810Y-98656010D02*
X80001010Y-98656010D01*
X86527800Y-97074020D02*
X84945810Y-98656010D01*
X93199400Y-97074020D02*
X86527800Y-97074020D01*
X80001010Y-98656010D02*
X78281000Y-96936000D01*
D34*
X78246000Y-96858000D02*
X78246000Y-94812000D01*
X78246000Y-94812000D02*
X82091000Y-90967000D01*
X82091000Y-90967000D02*
X82091000Y-59471000D01*
X82091000Y-59471000D02*
X80821000Y-58201000D01*
X80821000Y-58201000D02*
X80567000Y-57947000D01*
X80567000Y-57947000D02*
X74344000Y-57947000D01*
D35*
%TO.N,sw16*%
X139161590Y-110193000D02*
X137647990Y-108679400D01*
X141316000Y-110193000D02*
X139161590Y-110193000D01*
X137647990Y-105123400D02*
X132831600Y-100307010D01*
X137647990Y-108679400D02*
X137647990Y-105123400D01*
X132831600Y-100307010D02*
X121588000Y-100307010D01*
X120258599Y-100307009D02*
X116575600Y-96624010D01*
X121588000Y-100307010D02*
X120258599Y-100307009D01*
X116575600Y-96624010D02*
X93013000Y-96624010D01*
X86341400Y-96624010D02*
X84759410Y-98206000D01*
X93013000Y-96624010D02*
X86341400Y-96624010D01*
X84759410Y-98206000D02*
X82091000Y-98206000D01*
X82091000Y-98206000D02*
X80948000Y-97063000D01*
D34*
X80786000Y-96858000D02*
X80786000Y-94812000D01*
X80786000Y-94812000D02*
X83615000Y-91983000D01*
X83615000Y-91983000D02*
X83615000Y-85125000D01*
X83615000Y-85125000D02*
X85266000Y-83474000D01*
D35*
%TO.N,sw17*%
X141316000Y-108923000D02*
X138528000Y-108923000D01*
X138528000Y-108923000D02*
X138098000Y-108493000D01*
X138098000Y-108493000D02*
X138098000Y-104937000D01*
X138098000Y-104937000D02*
X133018000Y-99857000D01*
X133018000Y-99857000D02*
X120699000Y-99857000D01*
X120699000Y-99857000D02*
X120445000Y-99857000D01*
X120445000Y-99857000D02*
X116762000Y-96174000D01*
X86790000Y-96174000D02*
X86155000Y-96174000D01*
X116762000Y-96174000D02*
X86790000Y-96174000D01*
X86155000Y-96174000D02*
X85520000Y-96809000D01*
X85520000Y-96809000D02*
X83742000Y-96809000D01*
D34*
X83326000Y-96858000D02*
X83326000Y-95193000D01*
X83326000Y-95193000D02*
X88822000Y-89697000D01*
X88822000Y-89697000D02*
X88822000Y-71536000D01*
X88822000Y-71536000D02*
X88060000Y-70774000D01*
X88060000Y-70774000D02*
X85901000Y-70774000D01*
%TO.N,sw18*%
X63006000Y-96858000D02*
X63006000Y-91694000D01*
X63006000Y-91694000D02*
X60501000Y-89189000D01*
X60501000Y-89189000D02*
X60501000Y-56550000D01*
X60501000Y-56550000D02*
X60882000Y-56169000D01*
X60882000Y-56169000D02*
X69772000Y-56169000D01*
X69772000Y-56169000D02*
X83869000Y-56169000D01*
X83869000Y-56169000D02*
X85647000Y-57947000D01*
D35*
X62914000Y-99984000D02*
X62914000Y-97444000D01*
X64311000Y-101381000D02*
X62914000Y-99984000D01*
X86064210Y-101356068D02*
X64335932Y-101356068D01*
X87646199Y-99774080D02*
X86064210Y-101356068D01*
X114660990Y-111090990D02*
X113079000Y-109509000D01*
X64335932Y-101356068D02*
X64311000Y-101381000D01*
X113079000Y-99984000D02*
X112869080Y-99774080D01*
X124705010Y-111090990D02*
X114660990Y-111090990D01*
X112869080Y-99774080D02*
X87646199Y-99774080D01*
X128143000Y-107653000D02*
X124705010Y-111090990D01*
X113079000Y-109509000D02*
X113079000Y-99984000D01*
X132016000Y-107653000D02*
X128143000Y-107653000D01*
D33*
%TO.N,sw25*%
X214757000Y-129159000D02*
X209310000Y-129159000D01*
D35*
X173926000Y-116543000D02*
X177679957Y-116543000D01*
X178519959Y-123142415D02*
X180413604Y-125036056D01*
X178519958Y-117383001D02*
X178519959Y-123142415D01*
X177679957Y-116543000D02*
X178519958Y-117383001D01*
X180413604Y-125036056D02*
X182167001Y-125036055D01*
X182167001Y-125036055D02*
X186206405Y-125036055D01*
X186206405Y-125036055D02*
X189715430Y-121527030D01*
X189715430Y-121527030D02*
X190176200Y-121527030D01*
X190176200Y-121527030D02*
X204853030Y-121527030D01*
X204853030Y-121527030D02*
X205232620Y-121527030D01*
X205232620Y-121527030D02*
X205904980Y-122199390D01*
X205904980Y-124231390D02*
X205916000Y-124242410D01*
X205904980Y-122199390D02*
X205904980Y-124231390D01*
X205916000Y-124242410D02*
X205916000Y-125765000D01*
X205916000Y-125765000D02*
X209218000Y-129067000D01*
D33*
%TO.N,sw24*%
X214757000Y-126619000D02*
X209564000Y-126619000D01*
D35*
X173926000Y-115273000D02*
X178637965Y-115273000D01*
X178969966Y-115605001D02*
X178969967Y-122956014D01*
X178637965Y-115273000D02*
X178969966Y-115605001D01*
X178969967Y-122956014D02*
X180600003Y-124586047D01*
X180600003Y-124586047D02*
X186020004Y-124586046D01*
X186020004Y-124586046D02*
X189529030Y-121077020D01*
X189529030Y-121077020D02*
X190362600Y-121077020D01*
X190362600Y-121077020D02*
X205535000Y-121077020D01*
X206354990Y-122012990D02*
X206354990Y-124044990D01*
X205535000Y-121193000D02*
X206354990Y-122012990D01*
X205535000Y-121077020D02*
X205535000Y-121193000D01*
X206354990Y-124044990D02*
X208964000Y-126654000D01*
D33*
%TO.N,sw23*%
X214757000Y-124079000D02*
X209183000Y-124079000D01*
D35*
X173926000Y-114003000D02*
X178960973Y-114003000D01*
X178960973Y-114003000D02*
X179419974Y-114462000D01*
X185833603Y-124136037D02*
X189342630Y-120627010D01*
X180786402Y-124136038D02*
X185833603Y-124136037D01*
X179419975Y-122769613D02*
X180786402Y-124136038D01*
X179419974Y-114462000D02*
X179419975Y-122769613D01*
X189342630Y-120627010D02*
X190549000Y-120627010D01*
X190549000Y-120627010D02*
X205729600Y-120627010D01*
X205729600Y-120627010D02*
X206805000Y-121702410D01*
X206805000Y-121702410D02*
X206805000Y-123225000D01*
X206805000Y-123225000D02*
X207567000Y-123987000D01*
X207567000Y-123987000D02*
X209091000Y-123987000D01*
D33*
%TO.N,sw22*%
X214757000Y-121539000D02*
X209310000Y-121539000D01*
D35*
X173926000Y-112733000D02*
X179156981Y-112733000D01*
X180972802Y-123686028D02*
X185647202Y-123686028D01*
X179869983Y-122583212D02*
X180972802Y-123686028D01*
X179869982Y-113446001D02*
X179869983Y-122583212D01*
X179156981Y-112733000D02*
X179869982Y-113446001D01*
X185647202Y-123686028D02*
X189156230Y-120177000D01*
X189156230Y-120177000D02*
X205916000Y-120177000D01*
X205916000Y-120177000D02*
X207186000Y-121447000D01*
X207186000Y-121447000D02*
X209091000Y-121447000D01*
D33*
%TO.N,sw21*%
X214757000Y-118999000D02*
X209310000Y-118999000D01*
D35*
X173926000Y-111463000D02*
X179606990Y-111463000D01*
X179606990Y-111463000D02*
X180319990Y-112176000D01*
X181159201Y-123236019D02*
X185460802Y-123236018D01*
X180319991Y-122396811D02*
X181159201Y-123236019D01*
X180319990Y-112176000D02*
X180319991Y-122396811D01*
X189016800Y-119680020D02*
X208444980Y-119680020D01*
X185460802Y-123236018D02*
X189016800Y-119680020D01*
X208444980Y-119680020D02*
X209218000Y-118907000D01*
D33*
%TO.N,sw20*%
X214757000Y-116459000D02*
X209437000Y-116459000D01*
D35*
X173926000Y-110193000D02*
X180438000Y-110193000D01*
X180438000Y-110193000D02*
X180770000Y-110525000D01*
X181345600Y-122786010D02*
X185274401Y-122786009D01*
X180770000Y-122210410D02*
X181345600Y-122786010D01*
X180770000Y-110525000D02*
X180770000Y-122210410D01*
X188830400Y-119230010D02*
X206227990Y-119230010D01*
X185274401Y-122786009D02*
X188830400Y-119230010D01*
X206227990Y-119230010D02*
X209091000Y-116367000D01*
D33*
%TO.N,sw19*%
X214757000Y-113919000D02*
X209437000Y-113919000D01*
D35*
X173926000Y-108923000D02*
X180692000Y-108923000D01*
X180692000Y-108923000D02*
X181024000Y-109255000D01*
X181024000Y-109255000D02*
X181532000Y-109763000D01*
X181532000Y-109763000D02*
X181532000Y-122336000D01*
X181532000Y-122336000D02*
X185088000Y-122336000D01*
X185088000Y-122336000D02*
X188644000Y-118780000D01*
X188644000Y-118780000D02*
X204265000Y-118780000D01*
X204265000Y-118780000D02*
X208964000Y-114081000D01*
D34*
%TO.N,AGND*%
X93521000Y-104048000D02*
X93521000Y-101254000D01*
X99490000Y-75600000D02*
X99490000Y-69250000D01*
X99490000Y-69250000D02*
X99490000Y-68742000D01*
X99490000Y-68742000D02*
X101522000Y-66710000D01*
X101522000Y-66710000D02*
X120064000Y-66710000D01*
X120064000Y-66710000D02*
X129462000Y-57312000D01*
X129462000Y-57312000D02*
X133526000Y-57312000D01*
X133526000Y-57312000D02*
X135558000Y-55280000D01*
X135558000Y-55280000D02*
X157021000Y-55280000D01*
X157021000Y-55280000D02*
X158164000Y-55280000D01*
X158164000Y-55280000D02*
X160450000Y-57566000D01*
X160450000Y-57566000D02*
X160450000Y-57566000D01*
X171372000Y-60614000D02*
X174674000Y-60614000D01*
X174674000Y-60614000D02*
X175944000Y-59344000D01*
X175944000Y-59344000D02*
X204138000Y-59344000D01*
X204138000Y-59344000D02*
X205535000Y-60741000D01*
X205535000Y-60741000D02*
X205535000Y-79537000D01*
X205535000Y-79537000D02*
X210361000Y-84363000D01*
X210361000Y-84363000D02*
X210361000Y-90459000D01*
X210326000Y-90508000D02*
X210326000Y-90551000D01*
X210326000Y-90551000D02*
X220521000Y-100746000D01*
X220521000Y-100746000D02*
X220521000Y-100746000D01*
D33*
%TO.N,+3V3*%
X121080000Y-126908000D02*
X121080000Y-126908000D01*
D34*
X133653000Y-117764000D02*
X132510000Y-117764000D01*
X135177000Y-118526000D02*
X135177000Y-118526000D01*
X171880000Y-121701000D02*
X169467000Y-121701000D01*
X171880000Y-121701000D02*
X173912000Y-121701000D01*
X162756000Y-126468000D02*
X162756000Y-124134000D01*
X162756000Y-124134000D02*
X162756000Y-123626000D01*
X162756000Y-123626000D02*
X160704000Y-121574000D01*
X149401000Y-121447000D02*
X148766000Y-121447000D01*
X148766000Y-121447000D02*
X148639000Y-121574000D01*
X148639000Y-121574000D02*
X146607000Y-121574000D01*
X135177000Y-118526000D02*
X134415000Y-117764000D01*
X134415000Y-117764000D02*
X133653000Y-117764000D01*
X132016000Y-117813000D02*
X130302000Y-117813000D01*
X130302000Y-117813000D02*
X130224000Y-117891000D01*
X130224000Y-117891000D02*
X130224000Y-121447000D01*
X130224000Y-121447000D02*
X130478000Y-121701000D01*
X130478000Y-121701000D02*
X131621000Y-121701000D01*
D33*
X137463000Y-70139000D02*
X131621000Y-70139000D01*
X131621000Y-70139000D02*
X131494000Y-70266000D01*
X94756000Y-57508000D02*
X97019000Y-57508000D01*
X97019000Y-57508000D02*
X97204000Y-57693000D01*
X97204000Y-57693000D02*
X97204000Y-79029000D01*
X97204000Y-79029000D02*
X97204000Y-79029000D01*
X199058000Y-73822000D02*
X199058000Y-86401002D01*
X199058000Y-86401002D02*
X199058000Y-87919000D01*
X199058000Y-87919000D02*
X203376000Y-92237000D01*
X203376000Y-92237000D02*
X203376000Y-98968000D01*
X203376000Y-98968000D02*
X199566000Y-102778000D01*
X199566000Y-102778000D02*
X194359000Y-102778000D01*
X199058000Y-87919000D02*
X193089000Y-87919000D01*
X193089000Y-87919000D02*
X189406000Y-91602000D01*
X189406000Y-91602000D02*
X189406000Y-95158000D01*
X97204000Y-79029000D02*
X111428000Y-79029000D01*
X111428000Y-79029000D02*
X113206000Y-80807000D01*
X113206000Y-80807000D02*
X113206000Y-80807000D01*
X115746000Y-90459000D02*
X122223000Y-90459000D01*
X111301000Y-112684000D02*
X111301000Y-102778000D01*
X111301000Y-102778000D02*
X109904000Y-101381000D01*
X109904000Y-101381000D02*
X109904000Y-101381000D01*
X193089000Y-87919000D02*
X193089000Y-83982000D01*
X193089000Y-83982000D02*
X186866000Y-77759000D01*
X186866000Y-77759000D02*
X177468000Y-77759000D01*
D34*
X150163000Y-122209000D02*
X149401000Y-121447000D01*
X150163000Y-125638000D02*
X150163000Y-122209000D01*
D33*
X111809000Y-118399000D02*
X111809000Y-120304000D01*
X111809000Y-120304000D02*
X110793000Y-121320000D01*
X110793000Y-121320000D02*
X110793000Y-125892000D01*
X111809000Y-126908000D02*
X121080000Y-126908000D01*
X110793000Y-125892000D02*
X111809000Y-126908000D01*
X118339000Y-106056000D02*
X125628000Y-106056000D01*
X125628000Y-106056000D02*
X126033000Y-106461000D01*
X126033000Y-106461000D02*
X126033000Y-106461000D01*
D34*
X150163000Y-129311000D02*
X149496000Y-129978000D01*
X149496000Y-129978000D02*
X149496000Y-131978000D01*
X174246000Y-129978000D02*
X174246000Y-126728000D01*
X136996000Y-132228000D02*
X141246000Y-132228000D01*
X141746000Y-132228000D02*
X141246000Y-132228000D01*
X144653000Y-129321000D02*
X141746000Y-132228000D01*
X160996000Y-128228000D02*
X162746000Y-126478000D01*
X160996000Y-130978000D02*
X160996000Y-128228000D01*
X162246000Y-132228000D02*
X160996000Y-130978000D01*
X163496000Y-132228000D02*
X162246000Y-132228000D01*
X174246000Y-129978000D02*
X174246000Y-130228000D01*
X174246000Y-130228000D02*
X176246000Y-132228000D01*
X176246000Y-132228000D02*
X177746000Y-132228000D01*
X241246000Y-113728000D02*
X235496000Y-113728000D01*
X235496000Y-113728000D02*
X233496000Y-111728000D01*
X233496000Y-111728000D02*
X233496000Y-109228000D01*
D35*
%TO.N,Net-(RV3-Pad2)*%
X123874000Y-128686000D02*
X123874000Y-124495000D01*
X123874000Y-124495000D02*
X124255000Y-124114000D01*
X124255000Y-124114000D02*
X124255000Y-119542000D01*
X124255000Y-119542000D02*
X123874000Y-119161000D01*
X123874000Y-119161000D02*
X121588000Y-119161000D01*
X121588000Y-119161000D02*
X121588000Y-119161000D01*
%TO.N,42*%
X150394960Y-110756960D02*
X153641000Y-114003000D01*
X150394960Y-100344370D02*
X150394960Y-110756960D01*
X148950991Y-98900401D02*
X150394960Y-100344370D01*
X148950990Y-98841000D02*
X148950991Y-98900401D01*
X153641000Y-114003000D02*
X155286000Y-114003000D01*
X146861000Y-97698000D02*
X148004000Y-98841000D01*
X147115000Y-65186000D02*
X150544000Y-68615000D01*
X150544000Y-68615000D02*
X150544000Y-91221000D01*
X150544000Y-91221000D02*
X146861000Y-94904000D01*
X146861000Y-94904000D02*
X146861000Y-97698000D01*
X148004000Y-98841000D02*
X148950990Y-98841000D01*
X147115000Y-58328000D02*
X147115000Y-65186000D01*
X140638000Y-65059000D02*
X141527000Y-65059000D01*
X138987000Y-63408000D02*
X140638000Y-65059000D01*
X138987000Y-56677000D02*
X138987000Y-63408000D01*
X139622000Y-56042000D02*
X138987000Y-56677000D01*
X144829000Y-56042000D02*
X139622000Y-56042000D01*
X147115000Y-58328000D02*
X144829000Y-56042000D01*
%TO.N,64*%
X155286000Y-108923000D02*
X153006000Y-108923000D01*
X153006000Y-108923000D02*
X152195000Y-108112000D01*
X152195000Y-108112000D02*
X152195000Y-106207000D01*
X152195000Y-106207000D02*
X152195000Y-101635000D01*
X152195000Y-101635000D02*
X152576000Y-101635000D01*
X152576000Y-101635000D02*
X154481000Y-99730000D01*
X154481000Y-99730000D02*
X154481000Y-95793000D01*
X154481000Y-95793000D02*
X154608000Y-95793000D01*
X154608000Y-95793000D02*
X158926000Y-91475000D01*
X158926000Y-91475000D02*
X158926000Y-72044000D01*
X158926000Y-72044000D02*
X157021000Y-70139000D01*
X157021000Y-70139000D02*
X154989000Y-70139000D01*
%TO.N,52*%
X153639590Y-110193000D02*
X151744990Y-108298400D01*
X155286000Y-110193000D02*
X153639590Y-110193000D01*
X151744990Y-108298400D02*
X151744990Y-106207000D01*
X151744990Y-106207000D02*
X151744990Y-102200990D01*
X151744990Y-102200990D02*
X151744990Y-100561010D01*
X151744990Y-100561010D02*
X152576000Y-99730000D01*
X152576000Y-99730000D02*
X152576000Y-99730000D01*
%TO.N,54*%
X155286000Y-112733000D02*
X153641000Y-112733000D01*
X150844970Y-109936970D02*
X150844970Y-106334000D01*
X153641000Y-112733000D02*
X150844970Y-109936970D01*
X150844970Y-106334000D02*
X150844970Y-100157970D01*
X150844970Y-100157970D02*
X149401000Y-98714000D01*
X149401000Y-98714000D02*
X149401000Y-94269000D01*
X149401000Y-94269000D02*
X151179000Y-92491000D01*
X151179000Y-92491000D02*
X151179000Y-86141000D01*
X151179000Y-86141000D02*
X154227000Y-83093000D01*
%TO.N,GPIO10*%
X144286000Y-126068000D02*
X143305000Y-127049000D01*
X143305000Y-127049000D02*
X143291000Y-127049000D01*
X143291000Y-127049000D02*
X139368000Y-130972000D01*
X134622030Y-130925030D02*
X93855030Y-130925030D01*
X134669000Y-130972000D02*
X134622030Y-130925030D01*
X139368000Y-130972000D02*
X134669000Y-130972000D01*
X93855030Y-130925030D02*
X92251000Y-129321000D01*
X92251000Y-129321000D02*
X92251000Y-126019000D01*
%TO.N,GPIO11*%
X141746000Y-126068000D02*
X140130000Y-127684000D01*
X140130000Y-127684000D02*
X140116000Y-127684000D01*
X135686410Y-130464000D02*
X135675390Y-130475020D01*
X137336000Y-130464000D02*
X135686410Y-130464000D01*
X140116000Y-127684000D02*
X137336000Y-130464000D01*
X135675390Y-130475020D02*
X134415000Y-130475020D01*
X134415000Y-130475020D02*
X96072020Y-130475020D01*
X96072020Y-130475020D02*
X94791000Y-129194000D01*
X94791000Y-129194000D02*
X94791000Y-126146000D01*
%TO.N,GPIO12*%
X97296000Y-126068000D02*
X97296000Y-128905000D01*
X139206000Y-126068000D02*
X138405002Y-126068000D01*
X98416010Y-130025010D02*
X97296000Y-128905000D01*
X134447992Y-130025010D02*
X98416010Y-130025010D01*
X134447992Y-130025010D02*
X135488990Y-130025010D01*
X135488990Y-130025010D02*
X139368000Y-126146000D01*
%TO.N,GPIO13*%
X99836000Y-126068000D02*
X99836000Y-128651000D01*
X99836000Y-128651000D02*
X100760000Y-129575000D01*
X100760000Y-129575000D02*
X133145000Y-129575000D01*
X133145000Y-129575000D02*
X136574000Y-126146000D01*
%TD*%
M02*
