%TF.GenerationSoftware,KiCad,Pcbnew,(5.1.10)-1*%
%TF.CreationDate,2021-08-13T19:33:17-04:00*%
%TF.ProjectId,RICM_pico,5249434d-5f70-4696-936f-2e6b69636164,rev?*%
%TF.SameCoordinates,Original*%
%TF.FileFunction,Soldermask,Bot*%
%TF.FilePolarity,Negative*%
%FSLAX46Y46*%
G04 Gerber Fmt 4.6, Leading zero omitted, Abs format (unit mm)*
G04 Created by KiCad (PCBNEW (5.1.10)-1) date 2021-08-13 19:33:17*
%MOMM*%
%LPD*%
G01*
G04 APERTURE LIST*
%ADD10C,0.100000*%
%ADD11C,0.150000*%
%ADD12C,0.300000*%
%ADD13C,0.400000*%
%ADD14C,2.000000*%
%ADD15R,2.000000X2.000000*%
%ADD16O,1.700000X1.700000*%
%ADD17R,1.700000X1.700000*%
%ADD18C,1.600000*%
%ADD19C,1.750000*%
%ADD20R,1.750000X1.750000*%
%ADD21C,1.100000*%
%ADD22R,1.100000X1.100000*%
%ADD23O,1.400000X1.400000*%
%ADD24C,1.400000*%
%ADD25C,2.750000*%
%ADD26C,1.524000*%
%ADD27O,1.600000X1.600000*%
%ADD28R,1.600000X1.600000*%
%ADD29C,1.500000*%
%ADD30O,1.500000X1.500000*%
%ADD31O,1.800000X1.800000*%
G04 APERTURE END LIST*
D10*
D11*
X177002200Y-166007200D02*
X177002200Y-198007200D01*
X285002200Y-198007200D01*
X285002200Y-166007200D01*
X177002200Y-166007200D01*
D10*
D11*
X10000000Y-10000000D02*
X10000000Y-200007200D01*
X287002200Y-200007200D01*
X287002200Y-10000000D01*
X10000000Y-10000000D01*
D10*
D11*
X12000000Y-12000000D02*
X12000000Y-198007200D01*
X285002200Y-198007200D01*
X285002200Y-12000000D01*
X12000000Y-12000000D01*
D10*
D11*
X60000000Y-12000000D02*
X60000000Y-10000000D01*
D10*
D11*
X110000000Y-12000000D02*
X110000000Y-10000000D01*
D10*
D11*
X160000000Y-12000000D02*
X160000000Y-10000000D01*
D10*
D11*
X210000000Y-12000000D02*
X210000000Y-10000000D01*
D10*
D11*
X260000000Y-12000000D02*
X260000000Y-10000000D01*
D10*
D11*
X36065476Y-11588095D02*
X35322619Y-11588095D01*
X35694047Y-11588095D02*
X35694047Y-10288095D01*
X35570238Y-10473809D01*
X35446428Y-10597619D01*
X35322619Y-10659523D01*
D10*
D11*
X85322619Y-10411904D02*
X85384523Y-10350000D01*
X85508333Y-10288095D01*
X85817857Y-10288095D01*
X85941666Y-10350000D01*
X86003571Y-10411904D01*
X86065476Y-10535714D01*
X86065476Y-10659523D01*
X86003571Y-10845238D01*
X85260714Y-11588095D01*
X86065476Y-11588095D01*
D10*
D11*
X135260714Y-10288095D02*
X136065476Y-10288095D01*
X135632142Y-10783333D01*
X135817857Y-10783333D01*
X135941666Y-10845238D01*
X136003571Y-10907142D01*
X136065476Y-11030952D01*
X136065476Y-11340476D01*
X136003571Y-11464285D01*
X135941666Y-11526190D01*
X135817857Y-11588095D01*
X135446428Y-11588095D01*
X135322619Y-11526190D01*
X135260714Y-11464285D01*
D10*
D11*
X185941666Y-10721428D02*
X185941666Y-11588095D01*
X185632142Y-10226190D02*
X185322619Y-11154761D01*
X186127380Y-11154761D01*
D10*
D11*
X236003571Y-10288095D02*
X235384523Y-10288095D01*
X235322619Y-10907142D01*
X235384523Y-10845238D01*
X235508333Y-10783333D01*
X235817857Y-10783333D01*
X235941666Y-10845238D01*
X236003571Y-10907142D01*
X236065476Y-11030952D01*
X236065476Y-11340476D01*
X236003571Y-11464285D01*
X235941666Y-11526190D01*
X235817857Y-11588095D01*
X235508333Y-11588095D01*
X235384523Y-11526190D01*
X235322619Y-11464285D01*
D10*
D11*
X285941666Y-10288095D02*
X285694047Y-10288095D01*
X285570238Y-10350000D01*
X285508333Y-10411904D01*
X285384523Y-10597619D01*
X285322619Y-10845238D01*
X285322619Y-11340476D01*
X285384523Y-11464285D01*
X285446428Y-11526190D01*
X285570238Y-11588095D01*
X285817857Y-11588095D01*
X285941666Y-11526190D01*
X286003571Y-11464285D01*
X286065476Y-11340476D01*
X286065476Y-11030952D01*
X286003571Y-10907142D01*
X285941666Y-10845238D01*
X285817857Y-10783333D01*
X285570238Y-10783333D01*
X285446428Y-10845238D01*
X285384523Y-10907142D01*
X285322619Y-11030952D01*
D10*
D11*
X60000000Y-198007200D02*
X60000000Y-200007200D01*
D10*
D11*
X110000000Y-198007200D02*
X110000000Y-200007200D01*
D10*
D11*
X160000000Y-198007200D02*
X160000000Y-200007200D01*
D10*
D11*
X210000000Y-198007200D02*
X210000000Y-200007200D01*
D10*
D11*
X260000000Y-198007200D02*
X260000000Y-200007200D01*
D10*
D11*
X36065476Y-199595295D02*
X35322619Y-199595295D01*
X35694047Y-199595295D02*
X35694047Y-198295295D01*
X35570238Y-198481009D01*
X35446428Y-198604819D01*
X35322619Y-198666723D01*
D10*
D11*
X85322619Y-198419104D02*
X85384523Y-198357200D01*
X85508333Y-198295295D01*
X85817857Y-198295295D01*
X85941666Y-198357200D01*
X86003571Y-198419104D01*
X86065476Y-198542914D01*
X86065476Y-198666723D01*
X86003571Y-198852438D01*
X85260714Y-199595295D01*
X86065476Y-199595295D01*
D10*
D11*
X135260714Y-198295295D02*
X136065476Y-198295295D01*
X135632142Y-198790533D01*
X135817857Y-198790533D01*
X135941666Y-198852438D01*
X136003571Y-198914342D01*
X136065476Y-199038152D01*
X136065476Y-199347676D01*
X136003571Y-199471485D01*
X135941666Y-199533390D01*
X135817857Y-199595295D01*
X135446428Y-199595295D01*
X135322619Y-199533390D01*
X135260714Y-199471485D01*
D10*
D11*
X185941666Y-198728628D02*
X185941666Y-199595295D01*
X185632142Y-198233390D02*
X185322619Y-199161961D01*
X186127380Y-199161961D01*
D10*
D11*
X236003571Y-198295295D02*
X235384523Y-198295295D01*
X235322619Y-198914342D01*
X235384523Y-198852438D01*
X235508333Y-198790533D01*
X235817857Y-198790533D01*
X235941666Y-198852438D01*
X236003571Y-198914342D01*
X236065476Y-199038152D01*
X236065476Y-199347676D01*
X236003571Y-199471485D01*
X235941666Y-199533390D01*
X235817857Y-199595295D01*
X235508333Y-199595295D01*
X235384523Y-199533390D01*
X235322619Y-199471485D01*
D10*
D11*
X285941666Y-198295295D02*
X285694047Y-198295295D01*
X285570238Y-198357200D01*
X285508333Y-198419104D01*
X285384523Y-198604819D01*
X285322619Y-198852438D01*
X285322619Y-199347676D01*
X285384523Y-199471485D01*
X285446428Y-199533390D01*
X285570238Y-199595295D01*
X285817857Y-199595295D01*
X285941666Y-199533390D01*
X286003571Y-199471485D01*
X286065476Y-199347676D01*
X286065476Y-199038152D01*
X286003571Y-198914342D01*
X285941666Y-198852438D01*
X285817857Y-198790533D01*
X285570238Y-198790533D01*
X285446428Y-198852438D01*
X285384523Y-198914342D01*
X285322619Y-199038152D01*
D10*
D11*
X10000000Y-60000000D02*
X12000000Y-60000000D01*
D10*
D11*
X10000000Y-110000000D02*
X12000000Y-110000000D01*
D10*
D11*
X10000000Y-160000000D02*
X12000000Y-160000000D01*
D10*
D11*
X10690476Y-35216666D02*
X11309523Y-35216666D01*
X10566666Y-35588095D02*
X11000000Y-34288095D01*
X11433333Y-35588095D01*
D10*
D11*
X11092857Y-84907142D02*
X11278571Y-84969047D01*
X11340476Y-85030952D01*
X11402380Y-85154761D01*
X11402380Y-85340476D01*
X11340476Y-85464285D01*
X11278571Y-85526190D01*
X11154761Y-85588095D01*
X10659523Y-85588095D01*
X10659523Y-84288095D01*
X11092857Y-84288095D01*
X11216666Y-84350000D01*
X11278571Y-84411904D01*
X11340476Y-84535714D01*
X11340476Y-84659523D01*
X11278571Y-84783333D01*
X11216666Y-84845238D01*
X11092857Y-84907142D01*
X10659523Y-84907142D01*
D10*
D11*
X11402380Y-135464285D02*
X11340476Y-135526190D01*
X11154761Y-135588095D01*
X11030952Y-135588095D01*
X10845238Y-135526190D01*
X10721428Y-135402380D01*
X10659523Y-135278571D01*
X10597619Y-135030952D01*
X10597619Y-134845238D01*
X10659523Y-134597619D01*
X10721428Y-134473809D01*
X10845238Y-134350000D01*
X11030952Y-134288095D01*
X11154761Y-134288095D01*
X11340476Y-134350000D01*
X11402380Y-134411904D01*
D10*
D11*
X10659523Y-185588095D02*
X10659523Y-184288095D01*
X10969047Y-184288095D01*
X11154761Y-184350000D01*
X11278571Y-184473809D01*
X11340476Y-184597619D01*
X11402380Y-184845238D01*
X11402380Y-185030952D01*
X11340476Y-185278571D01*
X11278571Y-185402380D01*
X11154761Y-185526190D01*
X10969047Y-185588095D01*
X10659523Y-185588095D01*
D10*
D11*
X287002200Y-60000000D02*
X285002200Y-60000000D01*
D10*
D11*
X287002200Y-110000000D02*
X285002200Y-110000000D01*
D10*
D11*
X287002200Y-160000000D02*
X285002200Y-160000000D01*
D10*
D11*
X285692676Y-35216666D02*
X286311723Y-35216666D01*
X285568866Y-35588095D02*
X286002200Y-34288095D01*
X286435533Y-35588095D01*
D10*
D11*
X286095057Y-84907142D02*
X286280771Y-84969047D01*
X286342676Y-85030952D01*
X286404580Y-85154761D01*
X286404580Y-85340476D01*
X286342676Y-85464285D01*
X286280771Y-85526190D01*
X286156961Y-85588095D01*
X285661723Y-85588095D01*
X285661723Y-84288095D01*
X286095057Y-84288095D01*
X286218866Y-84350000D01*
X286280771Y-84411904D01*
X286342676Y-84535714D01*
X286342676Y-84659523D01*
X286280771Y-84783333D01*
X286218866Y-84845238D01*
X286095057Y-84907142D01*
X285661723Y-84907142D01*
D10*
D11*
X286404580Y-135464285D02*
X286342676Y-135526190D01*
X286156961Y-135588095D01*
X286033152Y-135588095D01*
X285847438Y-135526190D01*
X285723628Y-135402380D01*
X285661723Y-135278571D01*
X285599819Y-135030952D01*
X285599819Y-134845238D01*
X285661723Y-134597619D01*
X285723628Y-134473809D01*
X285847438Y-134350000D01*
X286033152Y-134288095D01*
X286156961Y-134288095D01*
X286342676Y-134350000D01*
X286404580Y-134411904D01*
D10*
D11*
X285661723Y-185588095D02*
X285661723Y-184288095D01*
X285971247Y-184288095D01*
X286156961Y-184350000D01*
X286280771Y-184473809D01*
X286342676Y-184597619D01*
X286404580Y-184845238D01*
X286404580Y-185030952D01*
X286342676Y-185278571D01*
X286280771Y-185402380D01*
X286156961Y-185526190D01*
X285971247Y-185588095D01*
X285661723Y-185588095D01*
D10*
D11*
X200434342Y-193785771D02*
X200434342Y-192285771D01*
X200791485Y-192285771D01*
X201005771Y-192357200D01*
X201148628Y-192500057D01*
X201220057Y-192642914D01*
X201291485Y-192928628D01*
X201291485Y-193142914D01*
X201220057Y-193428628D01*
X201148628Y-193571485D01*
X201005771Y-193714342D01*
X200791485Y-193785771D01*
X200434342Y-193785771D01*
X202577200Y-193785771D02*
X202577200Y-193000057D01*
X202505771Y-192857200D01*
X202362914Y-192785771D01*
X202077200Y-192785771D01*
X201934342Y-192857200D01*
X202577200Y-193714342D02*
X202434342Y-193785771D01*
X202077200Y-193785771D01*
X201934342Y-193714342D01*
X201862914Y-193571485D01*
X201862914Y-193428628D01*
X201934342Y-193285771D01*
X202077200Y-193214342D01*
X202434342Y-193214342D01*
X202577200Y-193142914D01*
X203077200Y-192785771D02*
X203648628Y-192785771D01*
X203291485Y-192285771D02*
X203291485Y-193571485D01*
X203362914Y-193714342D01*
X203505771Y-193785771D01*
X203648628Y-193785771D01*
X204720057Y-193714342D02*
X204577200Y-193785771D01*
X204291485Y-193785771D01*
X204148628Y-193714342D01*
X204077200Y-193571485D01*
X204077200Y-193000057D01*
X204148628Y-192857200D01*
X204291485Y-192785771D01*
X204577200Y-192785771D01*
X204720057Y-192857200D01*
X204791485Y-193000057D01*
X204791485Y-193142914D01*
X204077200Y-193285771D01*
X205434342Y-193642914D02*
X205505771Y-193714342D01*
X205434342Y-193785771D01*
X205362914Y-193714342D01*
X205434342Y-193642914D01*
X205434342Y-193785771D01*
X205434342Y-192857200D02*
X205505771Y-192928628D01*
X205434342Y-193000057D01*
X205362914Y-192928628D01*
X205434342Y-192857200D01*
X205434342Y-193000057D01*
D10*
D11*
X177002200Y-194507200D02*
X285002200Y-194507200D01*
D10*
D11*
X178434342Y-196585771D02*
X178434342Y-195085771D01*
X179291485Y-196585771D02*
X178648628Y-195728628D01*
X179291485Y-195085771D02*
X178434342Y-195942914D01*
X179934342Y-196585771D02*
X179934342Y-195585771D01*
X179934342Y-195085771D02*
X179862914Y-195157200D01*
X179934342Y-195228628D01*
X180005771Y-195157200D01*
X179934342Y-195085771D01*
X179934342Y-195228628D01*
X181505771Y-196442914D02*
X181434342Y-196514342D01*
X181220057Y-196585771D01*
X181077200Y-196585771D01*
X180862914Y-196514342D01*
X180720057Y-196371485D01*
X180648628Y-196228628D01*
X180577200Y-195942914D01*
X180577200Y-195728628D01*
X180648628Y-195442914D01*
X180720057Y-195300057D01*
X180862914Y-195157200D01*
X181077200Y-195085771D01*
X181220057Y-195085771D01*
X181434342Y-195157200D01*
X181505771Y-195228628D01*
X182791485Y-196585771D02*
X182791485Y-195800057D01*
X182720057Y-195657200D01*
X182577200Y-195585771D01*
X182291485Y-195585771D01*
X182148628Y-195657200D01*
X182791485Y-196514342D02*
X182648628Y-196585771D01*
X182291485Y-196585771D01*
X182148628Y-196514342D01*
X182077200Y-196371485D01*
X182077200Y-196228628D01*
X182148628Y-196085771D01*
X182291485Y-196014342D01*
X182648628Y-196014342D01*
X182791485Y-195942914D01*
X184148628Y-196585771D02*
X184148628Y-195085771D01*
X184148628Y-196514342D02*
X184005771Y-196585771D01*
X183720057Y-196585771D01*
X183577200Y-196514342D01*
X183505771Y-196442914D01*
X183434342Y-196300057D01*
X183434342Y-195871485D01*
X183505771Y-195728628D01*
X183577200Y-195657200D01*
X183720057Y-195585771D01*
X184005771Y-195585771D01*
X184148628Y-195657200D01*
X186005771Y-195800057D02*
X186505771Y-195800057D01*
X186720057Y-196585771D02*
X186005771Y-196585771D01*
X186005771Y-195085771D01*
X186720057Y-195085771D01*
X187362914Y-196442914D02*
X187434342Y-196514342D01*
X187362914Y-196585771D01*
X187291485Y-196514342D01*
X187362914Y-196442914D01*
X187362914Y-196585771D01*
X188077200Y-196585771D02*
X188077200Y-195085771D01*
X188434342Y-195085771D01*
X188648628Y-195157200D01*
X188791485Y-195300057D01*
X188862914Y-195442914D01*
X188934342Y-195728628D01*
X188934342Y-195942914D01*
X188862914Y-196228628D01*
X188791485Y-196371485D01*
X188648628Y-196514342D01*
X188434342Y-196585771D01*
X188077200Y-196585771D01*
X189577200Y-196442914D02*
X189648628Y-196514342D01*
X189577200Y-196585771D01*
X189505771Y-196514342D01*
X189577200Y-196442914D01*
X189577200Y-196585771D01*
X190220057Y-196157200D02*
X190934342Y-196157200D01*
X190077200Y-196585771D02*
X190577200Y-195085771D01*
X191077200Y-196585771D01*
X191577200Y-196442914D02*
X191648628Y-196514342D01*
X191577200Y-196585771D01*
X191505771Y-196514342D01*
X191577200Y-196442914D01*
X191577200Y-196585771D01*
X194577200Y-196585771D02*
X194577200Y-195085771D01*
X194720057Y-196014342D02*
X195148628Y-196585771D01*
X195148628Y-195585771D02*
X194577200Y-196157200D01*
X195791485Y-196585771D02*
X195791485Y-195585771D01*
X195791485Y-195085771D02*
X195720057Y-195157200D01*
X195791485Y-195228628D01*
X195862914Y-195157200D01*
X195791485Y-195085771D01*
X195791485Y-195228628D01*
X197148628Y-196514342D02*
X197005771Y-196585771D01*
X196720057Y-196585771D01*
X196577200Y-196514342D01*
X196505771Y-196442914D01*
X196434342Y-196300057D01*
X196434342Y-195871485D01*
X196505771Y-195728628D01*
X196577200Y-195657200D01*
X196720057Y-195585771D01*
X197005771Y-195585771D01*
X197148628Y-195657200D01*
X198434342Y-196585771D02*
X198434342Y-195800057D01*
X198362914Y-195657200D01*
X198220057Y-195585771D01*
X197934342Y-195585771D01*
X197791485Y-195657200D01*
X198434342Y-196514342D02*
X198291485Y-196585771D01*
X197934342Y-196585771D01*
X197791485Y-196514342D01*
X197720057Y-196371485D01*
X197720057Y-196228628D01*
X197791485Y-196085771D01*
X197934342Y-196014342D01*
X198291485Y-196014342D01*
X198434342Y-195942914D01*
X199791485Y-196585771D02*
X199791485Y-195085771D01*
X199791485Y-196514342D02*
X199648628Y-196585771D01*
X199362914Y-196585771D01*
X199220057Y-196514342D01*
X199148628Y-196442914D01*
X199077200Y-196300057D01*
X199077200Y-195871485D01*
X199148628Y-195728628D01*
X199220057Y-195657200D01*
X199362914Y-195585771D01*
X199648628Y-195585771D01*
X199791485Y-195657200D01*
X202077200Y-197157200D02*
X202005771Y-197085771D01*
X201862914Y-196871485D01*
X201791485Y-196728628D01*
X201720057Y-196514342D01*
X201648628Y-196157200D01*
X201648628Y-195871485D01*
X201720057Y-195514342D01*
X201791485Y-195300057D01*
X201862914Y-195157200D01*
X202005771Y-194942914D01*
X202077200Y-194871485D01*
X203362914Y-195085771D02*
X202648628Y-195085771D01*
X202577200Y-195800057D01*
X202648628Y-195728628D01*
X202791485Y-195657200D01*
X203148628Y-195657200D01*
X203291485Y-195728628D01*
X203362914Y-195800057D01*
X203434342Y-195942914D01*
X203434342Y-196300057D01*
X203362914Y-196442914D01*
X203291485Y-196514342D01*
X203148628Y-196585771D01*
X202791485Y-196585771D01*
X202648628Y-196514342D01*
X202577200Y-196442914D01*
X204077200Y-196442914D02*
X204148628Y-196514342D01*
X204077200Y-196585771D01*
X204005771Y-196514342D01*
X204077200Y-196442914D01*
X204077200Y-196585771D01*
X205577200Y-196585771D02*
X204720057Y-196585771D01*
X205148628Y-196585771D02*
X205148628Y-195085771D01*
X205005771Y-195300057D01*
X204862914Y-195442914D01*
X204720057Y-195514342D01*
X206220057Y-196442914D02*
X206291485Y-196514342D01*
X206220057Y-196585771D01*
X206148628Y-196514342D01*
X206220057Y-196442914D01*
X206220057Y-196585771D01*
X207720057Y-196585771D02*
X206862914Y-196585771D01*
X207291485Y-196585771D02*
X207291485Y-195085771D01*
X207148628Y-195300057D01*
X207005771Y-195442914D01*
X206862914Y-195514342D01*
X208648628Y-195085771D02*
X208791485Y-195085771D01*
X208934342Y-195157200D01*
X209005771Y-195228628D01*
X209077200Y-195371485D01*
X209148628Y-195657200D01*
X209148628Y-196014342D01*
X209077200Y-196300057D01*
X209005771Y-196442914D01*
X208934342Y-196514342D01*
X208791485Y-196585771D01*
X208648628Y-196585771D01*
X208505771Y-196514342D01*
X208434342Y-196442914D01*
X208362914Y-196300057D01*
X208291485Y-196014342D01*
X208291485Y-195657200D01*
X208362914Y-195371485D01*
X208434342Y-195228628D01*
X208505771Y-195157200D01*
X208648628Y-195085771D01*
X209648628Y-197157200D02*
X209720057Y-197085771D01*
X209862914Y-196871485D01*
X209934342Y-196728628D01*
X210005771Y-196514342D01*
X210077200Y-196157200D01*
X210077200Y-195871485D01*
X210005771Y-195514342D01*
X209934342Y-195300057D01*
X209862914Y-195157200D01*
X209720057Y-194942914D01*
X209648628Y-194871485D01*
X210791485Y-196014342D02*
X211934342Y-196014342D01*
X213434342Y-196585771D02*
X212577200Y-196585771D01*
X213005771Y-196585771D02*
X213005771Y-195085771D01*
X212862914Y-195300057D01*
X212720057Y-195442914D01*
X212577200Y-195514342D01*
D10*
D11*
X177002200Y-191507200D02*
X285002200Y-191507200D01*
D10*
D12*
X264411485Y-193785771D02*
X263911485Y-193071485D01*
X263554342Y-193785771D02*
X263554342Y-192285771D01*
X264125771Y-192285771D01*
X264268628Y-192357200D01*
X264340057Y-192428628D01*
X264411485Y-192571485D01*
X264411485Y-192785771D01*
X264340057Y-192928628D01*
X264268628Y-193000057D01*
X264125771Y-193071485D01*
X263554342Y-193071485D01*
X265625771Y-193714342D02*
X265482914Y-193785771D01*
X265197200Y-193785771D01*
X265054342Y-193714342D01*
X264982914Y-193571485D01*
X264982914Y-193000057D01*
X265054342Y-192857200D01*
X265197200Y-192785771D01*
X265482914Y-192785771D01*
X265625771Y-192857200D01*
X265697200Y-193000057D01*
X265697200Y-193142914D01*
X264982914Y-193285771D01*
X266197200Y-192785771D02*
X266554342Y-193785771D01*
X266911485Y-192785771D01*
X267482914Y-193642914D02*
X267554342Y-193714342D01*
X267482914Y-193785771D01*
X267411485Y-193714342D01*
X267482914Y-193642914D01*
X267482914Y-193785771D01*
X267482914Y-192857200D02*
X267554342Y-192928628D01*
X267482914Y-193000057D01*
X267411485Y-192928628D01*
X267482914Y-192857200D01*
X267482914Y-193000057D01*
D10*
D11*
X178362914Y-193714342D02*
X178577200Y-193785771D01*
X178934342Y-193785771D01*
X179077200Y-193714342D01*
X179148628Y-193642914D01*
X179220057Y-193500057D01*
X179220057Y-193357200D01*
X179148628Y-193214342D01*
X179077200Y-193142914D01*
X178934342Y-193071485D01*
X178648628Y-193000057D01*
X178505771Y-192928628D01*
X178434342Y-192857200D01*
X178362914Y-192714342D01*
X178362914Y-192571485D01*
X178434342Y-192428628D01*
X178505771Y-192357200D01*
X178648628Y-192285771D01*
X179005771Y-192285771D01*
X179220057Y-192357200D01*
X179862914Y-193785771D02*
X179862914Y-192785771D01*
X179862914Y-192285771D02*
X179791485Y-192357200D01*
X179862914Y-192428628D01*
X179934342Y-192357200D01*
X179862914Y-192285771D01*
X179862914Y-192428628D01*
X180434342Y-192785771D02*
X181220057Y-192785771D01*
X180434342Y-193785771D01*
X181220057Y-193785771D01*
X182362914Y-193714342D02*
X182220057Y-193785771D01*
X181934342Y-193785771D01*
X181791485Y-193714342D01*
X181720057Y-193571485D01*
X181720057Y-193000057D01*
X181791485Y-192857200D01*
X181934342Y-192785771D01*
X182220057Y-192785771D01*
X182362914Y-192857200D01*
X182434342Y-193000057D01*
X182434342Y-193142914D01*
X181720057Y-193285771D01*
X183077200Y-193642914D02*
X183148628Y-193714342D01*
X183077200Y-193785771D01*
X183005771Y-193714342D01*
X183077200Y-193642914D01*
X183077200Y-193785771D01*
X183077200Y-192857200D02*
X183148628Y-192928628D01*
X183077200Y-193000057D01*
X183005771Y-192928628D01*
X183077200Y-192857200D01*
X183077200Y-193000057D01*
X184862914Y-193357200D02*
X185577200Y-193357200D01*
X184720057Y-193785771D02*
X185220057Y-192285771D01*
X185720057Y-193785771D01*
X186862914Y-192785771D02*
X186862914Y-193785771D01*
X186505771Y-192214342D02*
X186148628Y-193285771D01*
X187077200Y-193285771D01*
D10*
D11*
X263434342Y-196585771D02*
X263434342Y-195085771D01*
X264791485Y-196585771D02*
X264791485Y-195085771D01*
X264791485Y-196514342D02*
X264648628Y-196585771D01*
X264362914Y-196585771D01*
X264220057Y-196514342D01*
X264148628Y-196442914D01*
X264077200Y-196300057D01*
X264077200Y-195871485D01*
X264148628Y-195728628D01*
X264220057Y-195657200D01*
X264362914Y-195585771D01*
X264648628Y-195585771D01*
X264791485Y-195657200D01*
X265505771Y-196442914D02*
X265577200Y-196514342D01*
X265505771Y-196585771D01*
X265434342Y-196514342D01*
X265505771Y-196442914D01*
X265505771Y-196585771D01*
X265505771Y-195657200D02*
X265577200Y-195728628D01*
X265505771Y-195800057D01*
X265434342Y-195728628D01*
X265505771Y-195657200D01*
X265505771Y-195800057D01*
X268148628Y-196585771D02*
X267291485Y-196585771D01*
X267720057Y-196585771D02*
X267720057Y-195085771D01*
X267577200Y-195300057D01*
X267434342Y-195442914D01*
X267291485Y-195514342D01*
X269862914Y-195014342D02*
X268577200Y-196942914D01*
X271148628Y-196585771D02*
X270291485Y-196585771D01*
X270720057Y-196585771D02*
X270720057Y-195085771D01*
X270577200Y-195300057D01*
X270434342Y-195442914D01*
X270291485Y-195514342D01*
D10*
D11*
X177002200Y-187507200D02*
X285002200Y-187507200D01*
D10*
D13*
X178714580Y-188211961D02*
X179857438Y-188211961D01*
X179036009Y-190211961D02*
X179286009Y-188211961D01*
X180274104Y-190211961D02*
X180440771Y-188878628D01*
X180524104Y-188211961D02*
X180416961Y-188307200D01*
X180500295Y-188402438D01*
X180607438Y-188307200D01*
X180524104Y-188211961D01*
X180500295Y-188402438D01*
X181107438Y-188878628D02*
X181869342Y-188878628D01*
X181476485Y-188211961D02*
X181262200Y-189926247D01*
X181333628Y-190116723D01*
X181512200Y-190211961D01*
X181702676Y-190211961D01*
X182655057Y-190211961D02*
X182476485Y-190116723D01*
X182405057Y-189926247D01*
X182619342Y-188211961D01*
X184190771Y-190116723D02*
X183988390Y-190211961D01*
X183607438Y-190211961D01*
X183428866Y-190116723D01*
X183357438Y-189926247D01*
X183452676Y-189164342D01*
X183571723Y-188973866D01*
X183774104Y-188878628D01*
X184155057Y-188878628D01*
X184333628Y-188973866D01*
X184405057Y-189164342D01*
X184381247Y-189354819D01*
X183405057Y-189545295D01*
X185155057Y-190021485D02*
X185238390Y-190116723D01*
X185131247Y-190211961D01*
X185047914Y-190116723D01*
X185155057Y-190021485D01*
X185131247Y-190211961D01*
X185286009Y-188973866D02*
X185369342Y-189069104D01*
X185262200Y-189164342D01*
X185178866Y-189069104D01*
X185286009Y-188973866D01*
X185262200Y-189164342D01*
D10*
D11*
X178934342Y-185600057D02*
X178434342Y-185600057D01*
X178434342Y-186385771D02*
X178434342Y-184885771D01*
X179148628Y-184885771D01*
X179720057Y-186385771D02*
X179720057Y-185385771D01*
X179720057Y-184885771D02*
X179648628Y-184957200D01*
X179720057Y-185028628D01*
X179791485Y-184957200D01*
X179720057Y-184885771D01*
X179720057Y-185028628D01*
X180648628Y-186385771D02*
X180505771Y-186314342D01*
X180434342Y-186171485D01*
X180434342Y-184885771D01*
X181791485Y-186314342D02*
X181648628Y-186385771D01*
X181362914Y-186385771D01*
X181220057Y-186314342D01*
X181148628Y-186171485D01*
X181148628Y-185600057D01*
X181220057Y-185457200D01*
X181362914Y-185385771D01*
X181648628Y-185385771D01*
X181791485Y-185457200D01*
X181862914Y-185600057D01*
X181862914Y-185742914D01*
X181148628Y-185885771D01*
X182505771Y-186242914D02*
X182577200Y-186314342D01*
X182505771Y-186385771D01*
X182434342Y-186314342D01*
X182505771Y-186242914D01*
X182505771Y-186385771D01*
X182505771Y-185457200D02*
X182577200Y-185528628D01*
X182505771Y-185600057D01*
X182434342Y-185528628D01*
X182505771Y-185457200D01*
X182505771Y-185600057D01*
X185220057Y-186385771D02*
X184720057Y-185671485D01*
X184362914Y-186385771D02*
X184362914Y-184885771D01*
X184934342Y-184885771D01*
X185077200Y-184957200D01*
X185148628Y-185028628D01*
X185220057Y-185171485D01*
X185220057Y-185385771D01*
X185148628Y-185528628D01*
X185077200Y-185600057D01*
X184934342Y-185671485D01*
X184362914Y-185671485D01*
X185862914Y-186385771D02*
X185862914Y-184885771D01*
X187434342Y-186242914D02*
X187362914Y-186314342D01*
X187148628Y-186385771D01*
X187005771Y-186385771D01*
X186791485Y-186314342D01*
X186648628Y-186171485D01*
X186577200Y-186028628D01*
X186505771Y-185742914D01*
X186505771Y-185528628D01*
X186577200Y-185242914D01*
X186648628Y-185100057D01*
X186791485Y-184957200D01*
X187005771Y-184885771D01*
X187148628Y-184885771D01*
X187362914Y-184957200D01*
X187434342Y-185028628D01*
X188077200Y-186385771D02*
X188077200Y-184885771D01*
X188577200Y-185957200D01*
X189077200Y-184885771D01*
X189077200Y-186385771D01*
X189434342Y-186528628D02*
X190577200Y-186528628D01*
X190934342Y-185385771D02*
X190934342Y-186885771D01*
X190934342Y-185457200D02*
X191077200Y-185385771D01*
X191362914Y-185385771D01*
X191505771Y-185457200D01*
X191577200Y-185528628D01*
X191648628Y-185671485D01*
X191648628Y-186100057D01*
X191577200Y-186242914D01*
X191505771Y-186314342D01*
X191362914Y-186385771D01*
X191077200Y-186385771D01*
X190934342Y-186314342D01*
X192291485Y-186385771D02*
X192291485Y-185385771D01*
X192291485Y-184885771D02*
X192220057Y-184957200D01*
X192291485Y-185028628D01*
X192362914Y-184957200D01*
X192291485Y-184885771D01*
X192291485Y-185028628D01*
X193648628Y-186314342D02*
X193505771Y-186385771D01*
X193220057Y-186385771D01*
X193077200Y-186314342D01*
X193005771Y-186242914D01*
X192934342Y-186100057D01*
X192934342Y-185671485D01*
X193005771Y-185528628D01*
X193077200Y-185457200D01*
X193220057Y-185385771D01*
X193505771Y-185385771D01*
X193648628Y-185457200D01*
X194505771Y-186385771D02*
X194362914Y-186314342D01*
X194291485Y-186242914D01*
X194220057Y-186100057D01*
X194220057Y-185671485D01*
X194291485Y-185528628D01*
X194362914Y-185457200D01*
X194505771Y-185385771D01*
X194720057Y-185385771D01*
X194862914Y-185457200D01*
X194934342Y-185528628D01*
X195005771Y-185671485D01*
X195005771Y-186100057D01*
X194934342Y-186242914D01*
X194862914Y-186314342D01*
X194720057Y-186385771D01*
X194505771Y-186385771D01*
X195648628Y-186242914D02*
X195720057Y-186314342D01*
X195648628Y-186385771D01*
X195577200Y-186314342D01*
X195648628Y-186242914D01*
X195648628Y-186385771D01*
X196362914Y-186385771D02*
X196362914Y-184885771D01*
X196505771Y-185814342D02*
X196934342Y-186385771D01*
X196934342Y-185385771D02*
X196362914Y-185957200D01*
X197577200Y-186385771D02*
X197577200Y-185385771D01*
X197577200Y-184885771D02*
X197505771Y-184957200D01*
X197577200Y-185028628D01*
X197648628Y-184957200D01*
X197577200Y-184885771D01*
X197577200Y-185028628D01*
X198934342Y-186314342D02*
X198791485Y-186385771D01*
X198505771Y-186385771D01*
X198362914Y-186314342D01*
X198291485Y-186242914D01*
X198220057Y-186100057D01*
X198220057Y-185671485D01*
X198291485Y-185528628D01*
X198362914Y-185457200D01*
X198505771Y-185385771D01*
X198791485Y-185385771D01*
X198934342Y-185457200D01*
X200220057Y-186385771D02*
X200220057Y-185600057D01*
X200148628Y-185457200D01*
X200005771Y-185385771D01*
X199720057Y-185385771D01*
X199577200Y-185457200D01*
X200220057Y-186314342D02*
X200077200Y-186385771D01*
X199720057Y-186385771D01*
X199577200Y-186314342D01*
X199505771Y-186171485D01*
X199505771Y-186028628D01*
X199577200Y-185885771D01*
X199720057Y-185814342D01*
X200077200Y-185814342D01*
X200220057Y-185742914D01*
X201577200Y-186385771D02*
X201577200Y-184885771D01*
X201577200Y-186314342D02*
X201434342Y-186385771D01*
X201148628Y-186385771D01*
X201005771Y-186314342D01*
X200934342Y-186242914D01*
X200862914Y-186100057D01*
X200862914Y-185671485D01*
X200934342Y-185528628D01*
X201005771Y-185457200D01*
X201148628Y-185385771D01*
X201434342Y-185385771D01*
X201577200Y-185457200D01*
X201934342Y-186528628D02*
X203077200Y-186528628D01*
X203434342Y-185385771D02*
X203434342Y-186885771D01*
X203434342Y-185457200D02*
X203577200Y-185385771D01*
X203862914Y-185385771D01*
X204005771Y-185457200D01*
X204077200Y-185528628D01*
X204148628Y-185671485D01*
X204148628Y-186100057D01*
X204077200Y-186242914D01*
X204005771Y-186314342D01*
X203862914Y-186385771D01*
X203577200Y-186385771D01*
X203434342Y-186314342D01*
X205434342Y-186314342D02*
X205291485Y-186385771D01*
X205005771Y-186385771D01*
X204862914Y-186314342D01*
X204791485Y-186242914D01*
X204720057Y-186100057D01*
X204720057Y-185671485D01*
X204791485Y-185528628D01*
X204862914Y-185457200D01*
X205005771Y-185385771D01*
X205291485Y-185385771D01*
X205434342Y-185457200D01*
X206077200Y-186385771D02*
X206077200Y-184885771D01*
X206077200Y-185457200D02*
X206220057Y-185385771D01*
X206505771Y-185385771D01*
X206648628Y-185457200D01*
X206720057Y-185528628D01*
X206791485Y-185671485D01*
X206791485Y-186100057D01*
X206720057Y-186242914D01*
X206648628Y-186314342D01*
X206505771Y-186385771D01*
X206220057Y-186385771D01*
X206077200Y-186314342D01*
D10*
D11*
X177002200Y-181507200D02*
X285002200Y-181507200D01*
D10*
D11*
X178362914Y-183614342D02*
X178577200Y-183685771D01*
X178934342Y-183685771D01*
X179077200Y-183614342D01*
X179148628Y-183542914D01*
X179220057Y-183400057D01*
X179220057Y-183257200D01*
X179148628Y-183114342D01*
X179077200Y-183042914D01*
X178934342Y-182971485D01*
X178648628Y-182900057D01*
X178505771Y-182828628D01*
X178434342Y-182757200D01*
X178362914Y-182614342D01*
X178362914Y-182471485D01*
X178434342Y-182328628D01*
X178505771Y-182257200D01*
X178648628Y-182185771D01*
X179005771Y-182185771D01*
X179220057Y-182257200D01*
X179862914Y-183685771D02*
X179862914Y-182185771D01*
X180505771Y-183685771D02*
X180505771Y-182900057D01*
X180434342Y-182757200D01*
X180291485Y-182685771D01*
X180077200Y-182685771D01*
X179934342Y-182757200D01*
X179862914Y-182828628D01*
X181791485Y-183614342D02*
X181648628Y-183685771D01*
X181362914Y-183685771D01*
X181220057Y-183614342D01*
X181148628Y-183471485D01*
X181148628Y-182900057D01*
X181220057Y-182757200D01*
X181362914Y-182685771D01*
X181648628Y-182685771D01*
X181791485Y-182757200D01*
X181862914Y-182900057D01*
X181862914Y-183042914D01*
X181148628Y-183185771D01*
X183077200Y-183614342D02*
X182934342Y-183685771D01*
X182648628Y-183685771D01*
X182505771Y-183614342D01*
X182434342Y-183471485D01*
X182434342Y-182900057D01*
X182505771Y-182757200D01*
X182648628Y-182685771D01*
X182934342Y-182685771D01*
X183077200Y-182757200D01*
X183148628Y-182900057D01*
X183148628Y-183042914D01*
X182434342Y-183185771D01*
X183577200Y-182685771D02*
X184148628Y-182685771D01*
X183791485Y-182185771D02*
X183791485Y-183471485D01*
X183862914Y-183614342D01*
X184005771Y-183685771D01*
X184148628Y-183685771D01*
X184648628Y-183542914D02*
X184720057Y-183614342D01*
X184648628Y-183685771D01*
X184577200Y-183614342D01*
X184648628Y-183542914D01*
X184648628Y-183685771D01*
X184648628Y-182757200D02*
X184720057Y-182828628D01*
X184648628Y-182900057D01*
X184577200Y-182828628D01*
X184648628Y-182757200D01*
X184648628Y-182900057D01*
D10*
D11*
X197002200Y-191507200D02*
X197002200Y-194507200D01*
D10*
D11*
X261002200Y-191507200D02*
X261002200Y-198007200D01*
D14*
%TO.C,LS1*%
X190006000Y-125638000D03*
D15*
X196506000Y-125638000D03*
%TD*%
D16*
%TO.C,J2*%
X162986000Y-126068000D03*
D17*
X160446000Y-126068000D03*
%TD*%
D14*
%TO.C,RV3*%
X233496000Y-109228000D03*
X238496000Y-109228000D03*
X243496000Y-109228000D03*
%TD*%
D18*
%TO.C,C11*%
X168746000Y-80478000D03*
X166246000Y-80478000D03*
%TD*%
%TO.C,C10*%
X155746000Y-80478000D03*
X153246000Y-80478000D03*
%TD*%
%TO.C,C9*%
X142746000Y-80478000D03*
X140246000Y-80478000D03*
%TD*%
%TO.C,C8*%
X168746000Y-67478000D03*
X166246000Y-67478000D03*
%TD*%
%TO.C,C7*%
X155746000Y-67478000D03*
X153246000Y-67478000D03*
%TD*%
%TO.C,C6*%
X142746000Y-67478000D03*
X140246000Y-67478000D03*
%TD*%
D19*
%TO.C,RV1*%
X98506000Y-57508000D03*
X98506000Y-90508000D03*
D20*
X94506000Y-90508000D03*
%TD*%
D18*
%TO.C,C5*%
X168746000Y-54478000D03*
X166246000Y-54478000D03*
%TD*%
%TO.C,C4*%
X155746000Y-54478000D03*
X153246000Y-54478000D03*
%TD*%
%TO.C,C3*%
X142746000Y-54478000D03*
X140246000Y-54478000D03*
%TD*%
D21*
%TO.C,D4*%
X153886000Y-60978000D03*
D22*
X152616000Y-60978000D03*
D21*
X155146000Y-60978000D03*
X156416000Y-60978000D03*
%TD*%
%TO.C,D3*%
X140886000Y-60978000D03*
D22*
X139616000Y-60978000D03*
D21*
X142146000Y-60978000D03*
X143416000Y-60978000D03*
%TD*%
%TO.C,D8*%
X166886000Y-73978000D03*
D22*
X165616000Y-73978000D03*
D21*
X168146000Y-73978000D03*
X169416000Y-73978000D03*
%TD*%
%TO.C,D9*%
X166886000Y-60978000D03*
D22*
X165616000Y-60978000D03*
D21*
X168146000Y-60978000D03*
X169416000Y-60978000D03*
%TD*%
D23*
%TO.C,R17*%
X167246000Y-93898000D03*
D24*
X167246000Y-98978000D03*
%TD*%
D23*
%TO.C,R16*%
X164246000Y-93898000D03*
D24*
X164246000Y-98978000D03*
%TD*%
D23*
%TO.C,R15*%
X161246000Y-93898000D03*
D24*
X161246000Y-98978000D03*
%TD*%
D23*
%TO.C,R14*%
X158246000Y-93898000D03*
D24*
X158246000Y-98978000D03*
%TD*%
D23*
%TO.C,R13*%
X155246000Y-93898000D03*
D24*
X155246000Y-98978000D03*
%TD*%
D23*
%TO.C,R12*%
X152246000Y-93898000D03*
D24*
X152246000Y-98978000D03*
%TD*%
D23*
%TO.C,R11*%
X149246000Y-93898000D03*
D24*
X149246000Y-98978000D03*
%TD*%
D23*
%TO.C,R10*%
X146246000Y-93978000D03*
D24*
X146246000Y-99058000D03*
%TD*%
D23*
%TO.C,R9*%
X143246000Y-93898000D03*
D24*
X143246000Y-98978000D03*
%TD*%
D21*
%TO.C,D7*%
X166886000Y-86978000D03*
D22*
X165616000Y-86978000D03*
D21*
X168146000Y-86978000D03*
X169416000Y-86978000D03*
%TD*%
%TO.C,D6*%
X153886000Y-86978000D03*
D22*
X152616000Y-86978000D03*
D21*
X155146000Y-86978000D03*
X156416000Y-86978000D03*
%TD*%
%TO.C,D5*%
X153886000Y-73978000D03*
D22*
X152616000Y-73978000D03*
D21*
X155146000Y-73978000D03*
X156416000Y-73978000D03*
%TD*%
%TO.C,D2*%
X140886000Y-73978000D03*
D22*
X139616000Y-73978000D03*
D21*
X142146000Y-73978000D03*
X143416000Y-73978000D03*
%TD*%
%TO.C,D1*%
X140886000Y-86978000D03*
D22*
X139616000Y-86978000D03*
D21*
X142146000Y-86978000D03*
X143416000Y-86978000D03*
%TD*%
D25*
%TO.C,DS2*%
X201976000Y-61748000D03*
X201976000Y-86248000D03*
X177976000Y-86248000D03*
X177976000Y-61748000D03*
D26*
X177306000Y-70188000D03*
X177306000Y-72728000D03*
X177306000Y-75268000D03*
X177306000Y-77808000D03*
%TD*%
D19*
%TO.C,RV2*%
X214076000Y-57508000D03*
X214076000Y-90508000D03*
D20*
X210076000Y-90508000D03*
%TD*%
D25*
%TO.C,DS1*%
X106916000Y-86248000D03*
X106916000Y-61748000D03*
X130916000Y-61748000D03*
X130916000Y-86248000D03*
D26*
X131586000Y-77808000D03*
X131586000Y-75268000D03*
X131586000Y-72728000D03*
X131586000Y-70188000D03*
%TD*%
D27*
%TO.C,R8*%
X126586000Y-90548000D03*
D18*
X126586000Y-98168000D03*
%TD*%
%TO.C,C1*%
X181246000Y-127478000D03*
X178746000Y-127478000D03*
%TD*%
%TO.C,C2*%
X145746000Y-114978000D03*
X145746000Y-112478000D03*
%TD*%
D27*
%TO.C,R6*%
X199566000Y-102778000D03*
D18*
X199566000Y-95158000D03*
%TD*%
D27*
%TO.C,R7*%
X189406000Y-95158000D03*
D18*
X189406000Y-102778000D03*
%TD*%
D27*
%TO.C,R5*%
X194486000Y-102778000D03*
D18*
X194486000Y-95158000D03*
%TD*%
D27*
%TO.C,R4*%
X122106000Y-98168000D03*
D18*
X122106000Y-90548000D03*
%TD*%
D27*
%TO.C,R3*%
X131586000Y-98168000D03*
D18*
X131586000Y-90548000D03*
%TD*%
D16*
%TO.C,J1*%
X144286000Y-126068000D03*
X141746000Y-126068000D03*
X139206000Y-126068000D03*
X136666000Y-126068000D03*
X134126000Y-126068000D03*
D17*
X131586000Y-126068000D03*
%TD*%
D27*
%TO.C,SW19*%
X222377000Y-113919000D03*
X214757000Y-129159000D03*
X222377000Y-116459000D03*
X214757000Y-126619000D03*
X222377000Y-118999000D03*
X214757000Y-124079000D03*
X222377000Y-121539000D03*
X214757000Y-121539000D03*
X222377000Y-124079000D03*
X214757000Y-118999000D03*
X222377000Y-126619000D03*
X214757000Y-116459000D03*
X222377000Y-129159000D03*
D28*
X214757000Y-113919000D03*
%TD*%
D29*
%TO.C,SW18*%
X85612000Y-58021400D03*
X85612000Y-63177600D03*
%TD*%
%TO.C,SW17*%
X85612000Y-70721400D03*
X85612000Y-75877600D03*
%TD*%
%TO.C,SW16*%
X85612000Y-83421400D03*
X85612000Y-88577600D03*
%TD*%
%TO.C,SW15*%
X74182000Y-58021400D03*
X74182000Y-63177600D03*
%TD*%
%TO.C,SW14*%
X74182000Y-70721400D03*
X74182000Y-75877600D03*
%TD*%
%TO.C,SW13*%
X74182000Y-83421400D03*
X74182000Y-88577600D03*
%TD*%
%TO.C,SW12*%
X62752000Y-58021400D03*
X62752000Y-63177600D03*
%TD*%
%TO.C,SW11*%
X62752000Y-70721400D03*
X62752000Y-75877600D03*
%TD*%
%TO.C,SW10*%
X62752000Y-83421400D03*
X62752000Y-88577600D03*
%TD*%
D27*
%TO.C,RN3*%
X209218000Y-108747000D03*
X209218000Y-111287000D03*
X209218000Y-113827000D03*
X209218000Y-116367000D03*
X209218000Y-118907000D03*
X209218000Y-121447000D03*
X209218000Y-123987000D03*
X209218000Y-126527000D03*
X209218000Y-129067000D03*
D28*
X209218000Y-131607000D03*
%TD*%
D27*
%TO.C,RN2*%
X83326000Y-96858000D03*
X80786000Y-96858000D03*
X78246000Y-96858000D03*
X75706000Y-96858000D03*
X73166000Y-96858000D03*
X70626000Y-96858000D03*
X68086000Y-96858000D03*
X65546000Y-96858000D03*
X63006000Y-96858000D03*
D28*
X60466000Y-96858000D03*
%TD*%
D16*
%TO.C,U1*%
X107226000Y-114638000D03*
D17*
X107226000Y-117178000D03*
D16*
X107226000Y-119718000D03*
D30*
X62356000Y-114753000D03*
X62356000Y-119603000D03*
D31*
X59326000Y-114453000D03*
X59326000Y-119903000D03*
D16*
X59196000Y-108288000D03*
X61736000Y-108288000D03*
D17*
X64276000Y-108288000D03*
D16*
X66816000Y-108288000D03*
X69356000Y-108288000D03*
X71896000Y-108288000D03*
X74436000Y-108288000D03*
D17*
X76976000Y-108288000D03*
D16*
X79516000Y-108288000D03*
X82056000Y-108288000D03*
X84596000Y-108288000D03*
X87136000Y-108288000D03*
D17*
X89676000Y-108288000D03*
D16*
X92216000Y-108288000D03*
X94756000Y-108288000D03*
X97296000Y-108288000D03*
X99836000Y-108288000D03*
D17*
X102376000Y-108288000D03*
D16*
X104916000Y-108288000D03*
X107456000Y-108288000D03*
X107456000Y-126068000D03*
X104916000Y-126068000D03*
D17*
X102376000Y-126068000D03*
D16*
X99836000Y-126068000D03*
X97296000Y-126068000D03*
X94756000Y-126068000D03*
X92216000Y-126068000D03*
D17*
X89676000Y-126068000D03*
D16*
X87136000Y-126068000D03*
X84596000Y-126068000D03*
X82056000Y-126068000D03*
X79516000Y-126068000D03*
D17*
X76976000Y-126068000D03*
D16*
X74436000Y-126068000D03*
X71896000Y-126068000D03*
X69356000Y-126068000D03*
X66816000Y-126068000D03*
D17*
X64276000Y-126068000D03*
D16*
X61736000Y-126068000D03*
X59196000Y-126068000D03*
%TD*%
D29*
%TO.C,SW9*%
X245632000Y-58021400D03*
X245632000Y-63177600D03*
%TD*%
%TO.C,SW8*%
X245632000Y-70721400D03*
X245632000Y-75877600D03*
%TD*%
%TO.C,SW7*%
X245632000Y-83421400D03*
X245632000Y-88577600D03*
%TD*%
%TO.C,SW6*%
X234202000Y-58021400D03*
X234202000Y-63177600D03*
%TD*%
%TO.C,SW5*%
X234202000Y-70721400D03*
X234202000Y-75877600D03*
%TD*%
%TO.C,SW4*%
X234202000Y-83421400D03*
X234202000Y-88577600D03*
%TD*%
%TO.C,SW3*%
X222772000Y-58021400D03*
X222772000Y-63177600D03*
%TD*%
%TO.C,SW2*%
X222772000Y-70721400D03*
X222772000Y-75877600D03*
%TD*%
%TO.C,SW1*%
X222772000Y-83421400D03*
X222772000Y-88577600D03*
%TD*%
D27*
%TO.C,RN1*%
X243346000Y-96858000D03*
X240806000Y-96858000D03*
X238266000Y-96858000D03*
X235726000Y-96858000D03*
X233186000Y-96858000D03*
X230646000Y-96858000D03*
X228106000Y-96858000D03*
X225566000Y-96858000D03*
X223026000Y-96858000D03*
D28*
X220486000Y-96858000D03*
%TD*%
M02*
