%TF.GenerationSoftware,KiCad,Pcbnew,(5.1.10)-1*%
%TF.CreationDate,2021-07-06T19:30:30-04:00*%
%TF.ProjectId,RICM_pico,5249434d-5f70-4696-936f-2e6b69636164,rev?*%
%TF.SameCoordinates,Original*%
%TF.FileFunction,Legend,Top*%
%TF.FilePolarity,Positive*%
%FSLAX46Y46*%
G04 Gerber Fmt 4.6, Leading zero omitted, Abs format (unit mm)*
G04 Created by KiCad (PCBNEW (5.1.10)-1) date 2021-07-06 19:30:30*
%MOMM*%
%LPD*%
G01*
G04 APERTURE LIST*
%ADD10C,0.120000*%
%ADD11C,0.150000*%
G04 APERTURE END LIST*
D10*
%TO.C,D10*%
X85010000Y-109220000D02*
G75*
G03*
X85010000Y-109220000I-5000000J0D01*
G01*
X74950000Y-106844000D02*
X74950000Y-111596000D01*
X85599998Y-109215259D02*
G75*
G03*
X74950000Y-106844184I-5589998J-4741D01*
G01*
X85599998Y-109224741D02*
G75*
G02*
X74950000Y-111595816I-5589998J4741D01*
G01*
%TO.C,D9*%
X72310000Y-109220000D02*
G75*
G03*
X72310000Y-109220000I-5000000J0D01*
G01*
X62250000Y-106844000D02*
X62250000Y-111596000D01*
X72899998Y-109215259D02*
G75*
G03*
X62250000Y-106844184I-5589998J-4741D01*
G01*
X72899998Y-109224741D02*
G75*
G02*
X62250000Y-111595816I-5589998J4741D01*
G01*
%TO.C,D8*%
X59610000Y-109220000D02*
G75*
G03*
X59610000Y-109220000I-5000000J0D01*
G01*
X49550000Y-106844000D02*
X49550000Y-111596000D01*
X60199998Y-109215259D02*
G75*
G03*
X49550000Y-106844184I-5589998J-4741D01*
G01*
X60199998Y-109224741D02*
G75*
G02*
X49550000Y-111595816I-5589998J4741D01*
G01*
%TO.C,D7*%
X85010000Y-96520000D02*
G75*
G03*
X85010000Y-96520000I-5000000J0D01*
G01*
X74950000Y-94144000D02*
X74950000Y-98896000D01*
X85599998Y-96515259D02*
G75*
G03*
X74950000Y-94144184I-5589998J-4741D01*
G01*
X85599998Y-96524741D02*
G75*
G02*
X74950000Y-98895816I-5589998J4741D01*
G01*
%TO.C,D6*%
X72310000Y-96520000D02*
G75*
G03*
X72310000Y-96520000I-5000000J0D01*
G01*
X62250000Y-94144000D02*
X62250000Y-98896000D01*
X72899998Y-96515259D02*
G75*
G03*
X62250000Y-94144184I-5589998J-4741D01*
G01*
X72899998Y-96524741D02*
G75*
G02*
X62250000Y-98895816I-5589998J4741D01*
G01*
%TO.C,D5*%
X59610000Y-96520000D02*
G75*
G03*
X59610000Y-96520000I-5000000J0D01*
G01*
X49550000Y-94144000D02*
X49550000Y-98896000D01*
X60199998Y-96515259D02*
G75*
G03*
X49550000Y-94144184I-5589998J-4741D01*
G01*
X60199998Y-96524741D02*
G75*
G02*
X49550000Y-98895816I-5589998J4741D01*
G01*
%TO.C,D4*%
X85010000Y-83820000D02*
G75*
G03*
X85010000Y-83820000I-5000000J0D01*
G01*
X74950000Y-81444000D02*
X74950000Y-86196000D01*
X85599998Y-83815259D02*
G75*
G03*
X74950000Y-81444184I-5589998J-4741D01*
G01*
X85599998Y-83824741D02*
G75*
G02*
X74950000Y-86195816I-5589998J4741D01*
G01*
%TO.C,D3*%
X72310000Y-83820000D02*
G75*
G03*
X72310000Y-83820000I-5000000J0D01*
G01*
X62250000Y-81444000D02*
X62250000Y-86196000D01*
X72899998Y-83815259D02*
G75*
G03*
X62250000Y-81444184I-5589998J-4741D01*
G01*
X72899998Y-83824741D02*
G75*
G02*
X62250000Y-86195816I-5589998J4741D01*
G01*
%TO.C,D2*%
X59610000Y-83820000D02*
G75*
G03*
X59610000Y-83820000I-5000000J0D01*
G01*
X49550000Y-81444000D02*
X49550000Y-86196000D01*
X60199998Y-83815259D02*
G75*
G03*
X49550000Y-81444184I-5589998J-4741D01*
G01*
X60199998Y-83824741D02*
G75*
G02*
X49550000Y-86195816I-5589998J4741D01*
G01*
%TO.C,U5*%
X34480000Y-120650000D02*
X34480000Y-116790000D01*
X34480000Y-116790000D02*
X34215000Y-116790000D01*
X34480000Y-120650000D02*
X34480000Y-124510000D01*
X34480000Y-124510000D02*
X34215000Y-124510000D01*
X18860000Y-120650000D02*
X18860000Y-116790000D01*
X18860000Y-116790000D02*
X19125000Y-116790000D01*
X18860000Y-120650000D02*
X18860000Y-124510000D01*
X18860000Y-124510000D02*
X19125000Y-124510000D01*
X19125000Y-124510000D02*
X19125000Y-126325000D01*
%TO.C,R2*%
X16280000Y-117380000D02*
X16610000Y-117380000D01*
X16610000Y-117380000D02*
X16610000Y-123920000D01*
X16610000Y-123920000D02*
X16280000Y-123920000D01*
X14200000Y-117380000D02*
X13870000Y-117380000D01*
X13870000Y-117380000D02*
X13870000Y-123920000D01*
X13870000Y-123920000D02*
X14200000Y-123920000D01*
%TO.C,J2*%
X13910000Y-100390000D02*
X16570000Y-100390000D01*
X13910000Y-87630000D02*
X13910000Y-100390000D01*
X16570000Y-87630000D02*
X16570000Y-100390000D01*
X13910000Y-87630000D02*
X16570000Y-87630000D01*
X13910000Y-86360000D02*
X13910000Y-85030000D01*
X13910000Y-85030000D02*
X15240000Y-85030000D01*
%TO.C,U4*%
X19125000Y-109270000D02*
X19125000Y-111085000D01*
X18860000Y-109270000D02*
X19125000Y-109270000D01*
X18860000Y-105410000D02*
X18860000Y-109270000D01*
X18860000Y-101550000D02*
X19125000Y-101550000D01*
X18860000Y-105410000D02*
X18860000Y-101550000D01*
X34480000Y-109270000D02*
X34215000Y-109270000D01*
X34480000Y-105410000D02*
X34480000Y-109270000D01*
X34480000Y-101550000D02*
X34215000Y-101550000D01*
X34480000Y-105410000D02*
X34480000Y-101550000D01*
%TO.C,U3*%
X19125000Y-139750000D02*
X19125000Y-141565000D01*
X18860000Y-139750000D02*
X19125000Y-139750000D01*
X18860000Y-135890000D02*
X18860000Y-139750000D01*
X18860000Y-132030000D02*
X19125000Y-132030000D01*
X18860000Y-135890000D02*
X18860000Y-132030000D01*
X34480000Y-139750000D02*
X34215000Y-139750000D01*
X34480000Y-135890000D02*
X34480000Y-139750000D01*
X34480000Y-132030000D02*
X34215000Y-132030000D01*
X34480000Y-135890000D02*
X34480000Y-132030000D01*
%TO.C,SW19*%
X28050000Y-161230000D02*
X26400000Y-161230000D01*
X28050000Y-179130000D02*
X28050000Y-161230000D01*
X22750000Y-179130000D02*
X28050000Y-179130000D01*
X22750000Y-161230000D02*
X22750000Y-179130000D01*
X24400000Y-161230000D02*
X22750000Y-161230000D01*
X26400000Y-161230000D02*
G75*
G02*
X24400000Y-161230000I-1000000J0D01*
G01*
%TO.C,SW18*%
X78470000Y-56300000D02*
X82970000Y-56300000D01*
X77220000Y-52300000D02*
X77220000Y-53800000D01*
X82970000Y-49800000D02*
X78470000Y-49800000D01*
X84220000Y-53800000D02*
X84220000Y-52300000D01*
%TO.C,SW17*%
X78470000Y-44870000D02*
X82970000Y-44870000D01*
X77220000Y-40870000D02*
X77220000Y-42370000D01*
X82970000Y-38370000D02*
X78470000Y-38370000D01*
X84220000Y-42370000D02*
X84220000Y-40870000D01*
%TO.C,SW16*%
X78470000Y-33440000D02*
X82970000Y-33440000D01*
X77220000Y-29440000D02*
X77220000Y-30940000D01*
X82970000Y-26940000D02*
X78470000Y-26940000D01*
X84220000Y-30940000D02*
X84220000Y-29440000D01*
%TO.C,SW15*%
X65770000Y-56300000D02*
X70270000Y-56300000D01*
X64520000Y-52300000D02*
X64520000Y-53800000D01*
X70270000Y-49800000D02*
X65770000Y-49800000D01*
X71520000Y-53800000D02*
X71520000Y-52300000D01*
%TO.C,SW14*%
X65770000Y-44870000D02*
X70270000Y-44870000D01*
X64520000Y-40870000D02*
X64520000Y-42370000D01*
X70270000Y-38370000D02*
X65770000Y-38370000D01*
X71520000Y-42370000D02*
X71520000Y-40870000D01*
%TO.C,SW13*%
X65770000Y-33440000D02*
X70270000Y-33440000D01*
X64520000Y-29440000D02*
X64520000Y-30940000D01*
X70270000Y-26940000D02*
X65770000Y-26940000D01*
X71520000Y-30940000D02*
X71520000Y-29440000D01*
%TO.C,SW12*%
X53070000Y-56300000D02*
X57570000Y-56300000D01*
X51820000Y-52300000D02*
X51820000Y-53800000D01*
X57570000Y-49800000D02*
X53070000Y-49800000D01*
X58820000Y-53800000D02*
X58820000Y-52300000D01*
%TO.C,SW11*%
X53070000Y-44870000D02*
X57570000Y-44870000D01*
X51820000Y-40870000D02*
X51820000Y-42370000D01*
X57570000Y-38370000D02*
X53070000Y-38370000D01*
X58820000Y-42370000D02*
X58820000Y-40870000D01*
%TO.C,SW10*%
X53070000Y-33440000D02*
X57570000Y-33440000D01*
X51820000Y-29440000D02*
X51820000Y-30940000D01*
X57570000Y-26940000D02*
X53070000Y-26940000D01*
X58820000Y-30940000D02*
X58820000Y-29440000D01*
%TO.C,RN4*%
X45850000Y-86360000D02*
X43050000Y-86360000D01*
X45850000Y-109390000D02*
X45850000Y-83650000D01*
X43050000Y-109390000D02*
X45850000Y-109390000D01*
X43050000Y-83650000D02*
X43050000Y-109390000D01*
X45850000Y-83650000D02*
X43050000Y-83650000D01*
%TO.C,RN2*%
X45850000Y-29210000D02*
X43050000Y-29210000D01*
X45850000Y-52240000D02*
X45850000Y-26500000D01*
X43050000Y-52240000D02*
X45850000Y-52240000D01*
X43050000Y-26500000D02*
X43050000Y-52240000D01*
X45850000Y-26500000D02*
X43050000Y-26500000D01*
%TO.C,R1*%
X13870000Y-112490000D02*
X14200000Y-112490000D01*
X13870000Y-105950000D02*
X13870000Y-112490000D01*
X14200000Y-105950000D02*
X13870000Y-105950000D01*
X16610000Y-112490000D02*
X16280000Y-112490000D01*
X16610000Y-105950000D02*
X16610000Y-112490000D01*
X16280000Y-105950000D02*
X16610000Y-105950000D01*
%TO.C,U2*%
X19125000Y-94030000D02*
X19125000Y-95845000D01*
X18860000Y-94030000D02*
X19125000Y-94030000D01*
X18860000Y-90170000D02*
X18860000Y-94030000D01*
X18860000Y-86310000D02*
X19125000Y-86310000D01*
X18860000Y-90170000D02*
X18860000Y-86310000D01*
X34480000Y-94030000D02*
X34215000Y-94030000D01*
X34480000Y-90170000D02*
X34480000Y-94030000D01*
X34480000Y-86310000D02*
X34215000Y-86310000D01*
X34480000Y-90170000D02*
X34480000Y-86310000D01*
%TO.C,U1*%
X25230000Y-63600000D02*
X25630000Y-63600000D01*
X22630000Y-63600000D02*
X23030000Y-63600000D01*
X34630000Y-63600000D02*
X27830000Y-63600000D01*
X34630000Y-53200000D02*
X34630000Y-53600000D01*
X34630000Y-45500000D02*
X34630000Y-45900000D01*
X34630000Y-20100000D02*
X34630000Y-20500000D01*
X34630000Y-12600000D02*
X34630000Y-12900000D01*
X34630000Y-35400000D02*
X34630000Y-35800000D01*
X34630000Y-50600000D02*
X34630000Y-51000000D01*
X34630000Y-30300000D02*
X34630000Y-30700000D01*
X34630000Y-25200000D02*
X34630000Y-25600000D01*
X34630000Y-37900000D02*
X34630000Y-38300000D01*
X34630000Y-43000000D02*
X34630000Y-43400000D01*
X34630000Y-58200000D02*
X34630000Y-58600000D01*
X34630000Y-60800000D02*
X34630000Y-61200000D01*
X34630000Y-55700000D02*
X34630000Y-56100000D01*
X34630000Y-22700000D02*
X34630000Y-23100000D01*
X34630000Y-15000000D02*
X34630000Y-15400000D01*
X34630000Y-17600000D02*
X34630000Y-18000000D01*
X34630000Y-48100000D02*
X34630000Y-48500000D01*
X34630000Y-40400000D02*
X34630000Y-40800000D01*
X34630000Y-32800000D02*
X34630000Y-33200000D01*
X34630000Y-27700000D02*
X34630000Y-28100000D01*
X13630000Y-60800000D02*
X13630000Y-61200000D01*
X13630000Y-58200000D02*
X13630000Y-58600000D01*
X13630000Y-55700000D02*
X13630000Y-56100000D01*
X13630000Y-53200000D02*
X13630000Y-53600000D01*
X13630000Y-50600000D02*
X13630000Y-51000000D01*
X13630000Y-48100000D02*
X13630000Y-48500000D01*
X13630000Y-45500000D02*
X13630000Y-45900000D01*
X13630000Y-43000000D02*
X13630000Y-43400000D01*
X13630000Y-40400000D02*
X13630000Y-40800000D01*
X13630000Y-37900000D02*
X13630000Y-38300000D01*
X13630000Y-35400000D02*
X13630000Y-35800000D01*
X13630000Y-32800000D02*
X13630000Y-33200000D01*
X13630000Y-30300000D02*
X13630000Y-30700000D01*
X13630000Y-27700000D02*
X13630000Y-28100000D01*
X13630000Y-25200000D02*
X13630000Y-25600000D01*
X13630000Y-22700000D02*
X13630000Y-23100000D01*
X13630000Y-20100000D02*
X13630000Y-20500000D01*
X13630000Y-17600000D02*
X13630000Y-18000000D01*
X13630000Y-15000000D02*
X13630000Y-15400000D01*
X13630000Y-12600000D02*
X13630000Y-12900000D01*
X16637000Y-15267000D02*
X16637000Y-12600000D01*
X13630000Y-15267000D02*
X16637000Y-15267000D01*
X20430000Y-63600000D02*
X13630000Y-63600000D01*
X13630000Y-12600000D02*
X34630000Y-12600000D01*
%TO.C,SW9*%
X84220000Y-170640000D02*
X84220000Y-169140000D01*
X82970000Y-166640000D02*
X78470000Y-166640000D01*
X77220000Y-169140000D02*
X77220000Y-170640000D01*
X78470000Y-173140000D02*
X82970000Y-173140000D01*
%TO.C,SW8*%
X84220000Y-159210000D02*
X84220000Y-157710000D01*
X82970000Y-155210000D02*
X78470000Y-155210000D01*
X77220000Y-157710000D02*
X77220000Y-159210000D01*
X78470000Y-161710000D02*
X82970000Y-161710000D01*
%TO.C,SW7*%
X78470000Y-150280000D02*
X82970000Y-150280000D01*
X77220000Y-146280000D02*
X77220000Y-147780000D01*
X82970000Y-143780000D02*
X78470000Y-143780000D01*
X84220000Y-147780000D02*
X84220000Y-146280000D01*
%TO.C,SW6*%
X71520000Y-170640000D02*
X71520000Y-169140000D01*
X70270000Y-166640000D02*
X65770000Y-166640000D01*
X64520000Y-169140000D02*
X64520000Y-170640000D01*
X65770000Y-173140000D02*
X70270000Y-173140000D01*
%TO.C,SW5*%
X71520000Y-159210000D02*
X71520000Y-157710000D01*
X70270000Y-155210000D02*
X65770000Y-155210000D01*
X64520000Y-157710000D02*
X64520000Y-159210000D01*
X65770000Y-161710000D02*
X70270000Y-161710000D01*
%TO.C,SW4*%
X71520000Y-147780000D02*
X71520000Y-146280000D01*
X70270000Y-143780000D02*
X65770000Y-143780000D01*
X64520000Y-146280000D02*
X64520000Y-147780000D01*
X65770000Y-150280000D02*
X70270000Y-150280000D01*
%TO.C,SW3*%
X58820000Y-170640000D02*
X58820000Y-169140000D01*
X57570000Y-166640000D02*
X53070000Y-166640000D01*
X51820000Y-169140000D02*
X51820000Y-170640000D01*
X53070000Y-173140000D02*
X57570000Y-173140000D01*
%TO.C,SW2*%
X58820000Y-159210000D02*
X58820000Y-157710000D01*
X57570000Y-155210000D02*
X53070000Y-155210000D01*
X51820000Y-157710000D02*
X51820000Y-159210000D01*
X53070000Y-161710000D02*
X57570000Y-161710000D01*
%TO.C,SW1*%
X58820000Y-147780000D02*
X58820000Y-146280000D01*
X57570000Y-143780000D02*
X53070000Y-143780000D01*
X51820000Y-146280000D02*
X51820000Y-147780000D01*
X53070000Y-150280000D02*
X57570000Y-150280000D01*
%TO.C,RV2*%
X47140000Y-177470000D02*
X51725000Y-177470000D01*
X54996000Y-177470000D02*
X74525000Y-177470000D01*
X77796000Y-177470000D02*
X82380000Y-177470000D01*
X47140000Y-186710000D02*
X50525000Y-186710000D01*
X53796000Y-186710000D02*
X75725000Y-186710000D01*
X78996000Y-186710000D02*
X82380000Y-186710000D01*
X47140000Y-177470000D02*
X47140000Y-179165000D01*
X47140000Y-181515000D02*
X47140000Y-183385000D01*
X47140000Y-184296000D02*
X47140000Y-186710000D01*
X82380000Y-177470000D02*
X82380000Y-179884000D01*
X82380000Y-180796000D02*
X82380000Y-186710000D01*
X47085000Y-180340000D02*
X46585000Y-179840000D01*
X46585000Y-179840000D02*
X46585000Y-180840000D01*
X46585000Y-180840000D02*
X47085000Y-180340000D01*
X54760000Y-182090000D02*
X74760000Y-182090000D01*
X54760000Y-180590000D02*
X54760000Y-183590000D01*
X55510000Y-181340000D02*
X54760000Y-182090000D01*
X54760000Y-182090000D02*
X55510000Y-182840000D01*
X74760000Y-180590000D02*
X74760000Y-183590000D01*
X74010000Y-181340000D02*
X74760000Y-182090000D01*
X74760000Y-182090000D02*
X74010000Y-182840000D01*
%TO.C,RV1*%
X47140000Y-13640000D02*
X51725000Y-13640000D01*
X54996000Y-13640000D02*
X74525000Y-13640000D01*
X77796000Y-13640000D02*
X82380000Y-13640000D01*
X47140000Y-22880000D02*
X50525000Y-22880000D01*
X53796000Y-22880000D02*
X75725000Y-22880000D01*
X78996000Y-22880000D02*
X82380000Y-22880000D01*
X47140000Y-13640000D02*
X47140000Y-15335000D01*
X47140000Y-17685000D02*
X47140000Y-19555000D01*
X47140000Y-20466000D02*
X47140000Y-22880000D01*
X82380000Y-13640000D02*
X82380000Y-16054000D01*
X82380000Y-16966000D02*
X82380000Y-22880000D01*
X47085000Y-16510000D02*
X46585000Y-16010000D01*
X46585000Y-16010000D02*
X46585000Y-17010000D01*
X46585000Y-17010000D02*
X47085000Y-16510000D01*
X54760000Y-18260000D02*
X74760000Y-18260000D01*
X54760000Y-16760000D02*
X54760000Y-19760000D01*
X55510000Y-17510000D02*
X54760000Y-18260000D01*
X54760000Y-18260000D02*
X55510000Y-19010000D01*
X74760000Y-16760000D02*
X74760000Y-19760000D01*
X74010000Y-17510000D02*
X74760000Y-18260000D01*
X74760000Y-18260000D02*
X74010000Y-19010000D01*
%TO.C,RN1*%
X45850000Y-143340000D02*
X43050000Y-143340000D01*
X43050000Y-143340000D02*
X43050000Y-169080000D01*
X43050000Y-169080000D02*
X45850000Y-169080000D01*
X45850000Y-169080000D02*
X45850000Y-143340000D01*
X45850000Y-146050000D02*
X43050000Y-146050000D01*
%TO.C,LS1*%
X26420000Y-151140000D02*
G75*
G03*
X26420000Y-151140000I-6100000J0D01*
G01*
%TO.C,J1*%
X20200000Y-80800000D02*
X11700000Y-80800000D01*
X11700000Y-80800000D02*
X11700000Y-71600000D01*
X11700000Y-71600000D02*
X26400000Y-71600000D01*
X26400000Y-78700000D02*
X26400000Y-80800000D01*
X26400000Y-80800000D02*
X24600000Y-80800000D01*
X26700000Y-73000000D02*
X26700000Y-71300000D01*
X26700000Y-71300000D02*
X25100000Y-71300000D01*
X26400000Y-71600000D02*
X26400000Y-73700000D01*
%TO.C,D1*%
X33090000Y-73480000D02*
X33220000Y-73480000D01*
X33220000Y-73480000D02*
X33220000Y-78920000D01*
X33220000Y-78920000D02*
X33090000Y-78920000D01*
X30410000Y-73480000D02*
X30280000Y-73480000D01*
X30280000Y-73480000D02*
X30280000Y-78920000D01*
X30280000Y-78920000D02*
X30410000Y-78920000D01*
X33220000Y-74380000D02*
X30280000Y-74380000D01*
X33220000Y-74500000D02*
X30280000Y-74500000D01*
X33220000Y-74260000D02*
X30280000Y-74260000D01*
%TO.C,D10*%
D11*
X78795714Y-103112380D02*
X78795714Y-102112380D01*
X79033809Y-102112380D01*
X79176666Y-102160000D01*
X79271904Y-102255238D01*
X79319523Y-102350476D01*
X79367142Y-102540952D01*
X79367142Y-102683809D01*
X79319523Y-102874285D01*
X79271904Y-102969523D01*
X79176666Y-103064761D01*
X79033809Y-103112380D01*
X78795714Y-103112380D01*
X80319523Y-103112380D02*
X79748095Y-103112380D01*
X80033809Y-103112380D02*
X80033809Y-102112380D01*
X79938571Y-102255238D01*
X79843333Y-102350476D01*
X79748095Y-102398095D01*
X80938571Y-102112380D02*
X81033809Y-102112380D01*
X81129047Y-102160000D01*
X81176666Y-102207619D01*
X81224285Y-102302857D01*
X81271904Y-102493333D01*
X81271904Y-102731428D01*
X81224285Y-102921904D01*
X81176666Y-103017142D01*
X81129047Y-103064761D01*
X81033809Y-103112380D01*
X80938571Y-103112380D01*
X80843333Y-103064761D01*
X80795714Y-103017142D01*
X80748095Y-102921904D01*
X80700476Y-102731428D01*
X80700476Y-102493333D01*
X80748095Y-102302857D01*
X80795714Y-102207619D01*
X80843333Y-102160000D01*
X80938571Y-102112380D01*
%TO.C,D9*%
X66571904Y-103112380D02*
X66571904Y-102112380D01*
X66810000Y-102112380D01*
X66952857Y-102160000D01*
X67048095Y-102255238D01*
X67095714Y-102350476D01*
X67143333Y-102540952D01*
X67143333Y-102683809D01*
X67095714Y-102874285D01*
X67048095Y-102969523D01*
X66952857Y-103064761D01*
X66810000Y-103112380D01*
X66571904Y-103112380D01*
X67619523Y-103112380D02*
X67810000Y-103112380D01*
X67905238Y-103064761D01*
X67952857Y-103017142D01*
X68048095Y-102874285D01*
X68095714Y-102683809D01*
X68095714Y-102302857D01*
X68048095Y-102207619D01*
X68000476Y-102160000D01*
X67905238Y-102112380D01*
X67714761Y-102112380D01*
X67619523Y-102160000D01*
X67571904Y-102207619D01*
X67524285Y-102302857D01*
X67524285Y-102540952D01*
X67571904Y-102636190D01*
X67619523Y-102683809D01*
X67714761Y-102731428D01*
X67905238Y-102731428D01*
X68000476Y-102683809D01*
X68048095Y-102636190D01*
X68095714Y-102540952D01*
%TO.C,D8*%
X53871904Y-103112380D02*
X53871904Y-102112380D01*
X54110000Y-102112380D01*
X54252857Y-102160000D01*
X54348095Y-102255238D01*
X54395714Y-102350476D01*
X54443333Y-102540952D01*
X54443333Y-102683809D01*
X54395714Y-102874285D01*
X54348095Y-102969523D01*
X54252857Y-103064761D01*
X54110000Y-103112380D01*
X53871904Y-103112380D01*
X55014761Y-102540952D02*
X54919523Y-102493333D01*
X54871904Y-102445714D01*
X54824285Y-102350476D01*
X54824285Y-102302857D01*
X54871904Y-102207619D01*
X54919523Y-102160000D01*
X55014761Y-102112380D01*
X55205238Y-102112380D01*
X55300476Y-102160000D01*
X55348095Y-102207619D01*
X55395714Y-102302857D01*
X55395714Y-102350476D01*
X55348095Y-102445714D01*
X55300476Y-102493333D01*
X55205238Y-102540952D01*
X55014761Y-102540952D01*
X54919523Y-102588571D01*
X54871904Y-102636190D01*
X54824285Y-102731428D01*
X54824285Y-102921904D01*
X54871904Y-103017142D01*
X54919523Y-103064761D01*
X55014761Y-103112380D01*
X55205238Y-103112380D01*
X55300476Y-103064761D01*
X55348095Y-103017142D01*
X55395714Y-102921904D01*
X55395714Y-102731428D01*
X55348095Y-102636190D01*
X55300476Y-102588571D01*
X55205238Y-102540952D01*
%TO.C,D7*%
X79271904Y-90412380D02*
X79271904Y-89412380D01*
X79510000Y-89412380D01*
X79652857Y-89460000D01*
X79748095Y-89555238D01*
X79795714Y-89650476D01*
X79843333Y-89840952D01*
X79843333Y-89983809D01*
X79795714Y-90174285D01*
X79748095Y-90269523D01*
X79652857Y-90364761D01*
X79510000Y-90412380D01*
X79271904Y-90412380D01*
X80176666Y-89412380D02*
X80843333Y-89412380D01*
X80414761Y-90412380D01*
%TO.C,D6*%
X66571904Y-90412380D02*
X66571904Y-89412380D01*
X66810000Y-89412380D01*
X66952857Y-89460000D01*
X67048095Y-89555238D01*
X67095714Y-89650476D01*
X67143333Y-89840952D01*
X67143333Y-89983809D01*
X67095714Y-90174285D01*
X67048095Y-90269523D01*
X66952857Y-90364761D01*
X66810000Y-90412380D01*
X66571904Y-90412380D01*
X68000476Y-89412380D02*
X67810000Y-89412380D01*
X67714761Y-89460000D01*
X67667142Y-89507619D01*
X67571904Y-89650476D01*
X67524285Y-89840952D01*
X67524285Y-90221904D01*
X67571904Y-90317142D01*
X67619523Y-90364761D01*
X67714761Y-90412380D01*
X67905238Y-90412380D01*
X68000476Y-90364761D01*
X68048095Y-90317142D01*
X68095714Y-90221904D01*
X68095714Y-89983809D01*
X68048095Y-89888571D01*
X68000476Y-89840952D01*
X67905238Y-89793333D01*
X67714761Y-89793333D01*
X67619523Y-89840952D01*
X67571904Y-89888571D01*
X67524285Y-89983809D01*
%TO.C,D5*%
X53871904Y-90412380D02*
X53871904Y-89412380D01*
X54110000Y-89412380D01*
X54252857Y-89460000D01*
X54348095Y-89555238D01*
X54395714Y-89650476D01*
X54443333Y-89840952D01*
X54443333Y-89983809D01*
X54395714Y-90174285D01*
X54348095Y-90269523D01*
X54252857Y-90364761D01*
X54110000Y-90412380D01*
X53871904Y-90412380D01*
X55348095Y-89412380D02*
X54871904Y-89412380D01*
X54824285Y-89888571D01*
X54871904Y-89840952D01*
X54967142Y-89793333D01*
X55205238Y-89793333D01*
X55300476Y-89840952D01*
X55348095Y-89888571D01*
X55395714Y-89983809D01*
X55395714Y-90221904D01*
X55348095Y-90317142D01*
X55300476Y-90364761D01*
X55205238Y-90412380D01*
X54967142Y-90412380D01*
X54871904Y-90364761D01*
X54824285Y-90317142D01*
%TO.C,D4*%
X79271904Y-77712380D02*
X79271904Y-76712380D01*
X79510000Y-76712380D01*
X79652857Y-76760000D01*
X79748095Y-76855238D01*
X79795714Y-76950476D01*
X79843333Y-77140952D01*
X79843333Y-77283809D01*
X79795714Y-77474285D01*
X79748095Y-77569523D01*
X79652857Y-77664761D01*
X79510000Y-77712380D01*
X79271904Y-77712380D01*
X80700476Y-77045714D02*
X80700476Y-77712380D01*
X80462380Y-76664761D02*
X80224285Y-77379047D01*
X80843333Y-77379047D01*
%TO.C,D3*%
X66571904Y-77712380D02*
X66571904Y-76712380D01*
X66810000Y-76712380D01*
X66952857Y-76760000D01*
X67048095Y-76855238D01*
X67095714Y-76950476D01*
X67143333Y-77140952D01*
X67143333Y-77283809D01*
X67095714Y-77474285D01*
X67048095Y-77569523D01*
X66952857Y-77664761D01*
X66810000Y-77712380D01*
X66571904Y-77712380D01*
X67476666Y-76712380D02*
X68095714Y-76712380D01*
X67762380Y-77093333D01*
X67905238Y-77093333D01*
X68000476Y-77140952D01*
X68048095Y-77188571D01*
X68095714Y-77283809D01*
X68095714Y-77521904D01*
X68048095Y-77617142D01*
X68000476Y-77664761D01*
X67905238Y-77712380D01*
X67619523Y-77712380D01*
X67524285Y-77664761D01*
X67476666Y-77617142D01*
%TO.C,D2*%
X53871904Y-77712380D02*
X53871904Y-76712380D01*
X54110000Y-76712380D01*
X54252857Y-76760000D01*
X54348095Y-76855238D01*
X54395714Y-76950476D01*
X54443333Y-77140952D01*
X54443333Y-77283809D01*
X54395714Y-77474285D01*
X54348095Y-77569523D01*
X54252857Y-77664761D01*
X54110000Y-77712380D01*
X53871904Y-77712380D01*
X54824285Y-76807619D02*
X54871904Y-76760000D01*
X54967142Y-76712380D01*
X55205238Y-76712380D01*
X55300476Y-76760000D01*
X55348095Y-76807619D01*
X55395714Y-76902857D01*
X55395714Y-76998095D01*
X55348095Y-77140952D01*
X54776666Y-77712380D01*
X55395714Y-77712380D01*
%TO.C,U5*%
X17472380Y-121411904D02*
X18281904Y-121411904D01*
X18377142Y-121364285D01*
X18424761Y-121316666D01*
X18472380Y-121221428D01*
X18472380Y-121030952D01*
X18424761Y-120935714D01*
X18377142Y-120888095D01*
X18281904Y-120840476D01*
X17472380Y-120840476D01*
X17472380Y-119888095D02*
X17472380Y-120364285D01*
X17948571Y-120411904D01*
X17900952Y-120364285D01*
X17853333Y-120269047D01*
X17853333Y-120030952D01*
X17900952Y-119935714D01*
X17948571Y-119888095D01*
X18043809Y-119840476D01*
X18281904Y-119840476D01*
X18377142Y-119888095D01*
X18424761Y-119935714D01*
X18472380Y-120030952D01*
X18472380Y-120269047D01*
X18424761Y-120364285D01*
X18377142Y-120411904D01*
%TO.C,R2*%
X18062380Y-120816666D02*
X17586190Y-121150000D01*
X18062380Y-121388095D02*
X17062380Y-121388095D01*
X17062380Y-121007142D01*
X17110000Y-120911904D01*
X17157619Y-120864285D01*
X17252857Y-120816666D01*
X17395714Y-120816666D01*
X17490952Y-120864285D01*
X17538571Y-120911904D01*
X17586190Y-121007142D01*
X17586190Y-121388095D01*
X17157619Y-120435714D02*
X17110000Y-120388095D01*
X17062380Y-120292857D01*
X17062380Y-120054761D01*
X17110000Y-119959523D01*
X17157619Y-119911904D01*
X17252857Y-119864285D01*
X17348095Y-119864285D01*
X17490952Y-119911904D01*
X18062380Y-120483333D01*
X18062380Y-119864285D01*
%TO.C,J2*%
X14906666Y-83482380D02*
X14906666Y-84196666D01*
X14859047Y-84339523D01*
X14763809Y-84434761D01*
X14620952Y-84482380D01*
X14525714Y-84482380D01*
X15335238Y-83577619D02*
X15382857Y-83530000D01*
X15478095Y-83482380D01*
X15716190Y-83482380D01*
X15811428Y-83530000D01*
X15859047Y-83577619D01*
X15906666Y-83672857D01*
X15906666Y-83768095D01*
X15859047Y-83910952D01*
X15287619Y-84482380D01*
X15906666Y-84482380D01*
%TO.C,U4*%
X17472380Y-106171904D02*
X18281904Y-106171904D01*
X18377142Y-106124285D01*
X18424761Y-106076666D01*
X18472380Y-105981428D01*
X18472380Y-105790952D01*
X18424761Y-105695714D01*
X18377142Y-105648095D01*
X18281904Y-105600476D01*
X17472380Y-105600476D01*
X17805714Y-104695714D02*
X18472380Y-104695714D01*
X17424761Y-104933809D02*
X18139047Y-105171904D01*
X18139047Y-104552857D01*
%TO.C,U3*%
X17472380Y-136651904D02*
X18281904Y-136651904D01*
X18377142Y-136604285D01*
X18424761Y-136556666D01*
X18472380Y-136461428D01*
X18472380Y-136270952D01*
X18424761Y-136175714D01*
X18377142Y-136128095D01*
X18281904Y-136080476D01*
X17472380Y-136080476D01*
X17472380Y-135699523D02*
X17472380Y-135080476D01*
X17853333Y-135413809D01*
X17853333Y-135270952D01*
X17900952Y-135175714D01*
X17948571Y-135128095D01*
X18043809Y-135080476D01*
X18281904Y-135080476D01*
X18377142Y-135128095D01*
X18424761Y-135175714D01*
X18472380Y-135270952D01*
X18472380Y-135556666D01*
X18424761Y-135651904D01*
X18377142Y-135699523D01*
%TO.C,SW19*%
X23590476Y-160634761D02*
X23733333Y-160682380D01*
X23971428Y-160682380D01*
X24066666Y-160634761D01*
X24114285Y-160587142D01*
X24161904Y-160491904D01*
X24161904Y-160396666D01*
X24114285Y-160301428D01*
X24066666Y-160253809D01*
X23971428Y-160206190D01*
X23780952Y-160158571D01*
X23685714Y-160110952D01*
X23638095Y-160063333D01*
X23590476Y-159968095D01*
X23590476Y-159872857D01*
X23638095Y-159777619D01*
X23685714Y-159730000D01*
X23780952Y-159682380D01*
X24019047Y-159682380D01*
X24161904Y-159730000D01*
X24495238Y-159682380D02*
X24733333Y-160682380D01*
X24923809Y-159968095D01*
X25114285Y-160682380D01*
X25352380Y-159682380D01*
X26257142Y-160682380D02*
X25685714Y-160682380D01*
X25971428Y-160682380D02*
X25971428Y-159682380D01*
X25876190Y-159825238D01*
X25780952Y-159920476D01*
X25685714Y-159968095D01*
X26733333Y-160682380D02*
X26923809Y-160682380D01*
X27019047Y-160634761D01*
X27066666Y-160587142D01*
X27161904Y-160444285D01*
X27209523Y-160253809D01*
X27209523Y-159872857D01*
X27161904Y-159777619D01*
X27114285Y-159730000D01*
X27019047Y-159682380D01*
X26828571Y-159682380D01*
X26733333Y-159730000D01*
X26685714Y-159777619D01*
X26638095Y-159872857D01*
X26638095Y-160110952D01*
X26685714Y-160206190D01*
X26733333Y-160253809D01*
X26828571Y-160301428D01*
X27019047Y-160301428D01*
X27114285Y-160253809D01*
X27161904Y-160206190D01*
X27209523Y-160110952D01*
%TO.C,SW18*%
X78910476Y-49204761D02*
X79053333Y-49252380D01*
X79291428Y-49252380D01*
X79386666Y-49204761D01*
X79434285Y-49157142D01*
X79481904Y-49061904D01*
X79481904Y-48966666D01*
X79434285Y-48871428D01*
X79386666Y-48823809D01*
X79291428Y-48776190D01*
X79100952Y-48728571D01*
X79005714Y-48680952D01*
X78958095Y-48633333D01*
X78910476Y-48538095D01*
X78910476Y-48442857D01*
X78958095Y-48347619D01*
X79005714Y-48300000D01*
X79100952Y-48252380D01*
X79339047Y-48252380D01*
X79481904Y-48300000D01*
X79815238Y-48252380D02*
X80053333Y-49252380D01*
X80243809Y-48538095D01*
X80434285Y-49252380D01*
X80672380Y-48252380D01*
X81577142Y-49252380D02*
X81005714Y-49252380D01*
X81291428Y-49252380D02*
X81291428Y-48252380D01*
X81196190Y-48395238D01*
X81100952Y-48490476D01*
X81005714Y-48538095D01*
X82148571Y-48680952D02*
X82053333Y-48633333D01*
X82005714Y-48585714D01*
X81958095Y-48490476D01*
X81958095Y-48442857D01*
X82005714Y-48347619D01*
X82053333Y-48300000D01*
X82148571Y-48252380D01*
X82339047Y-48252380D01*
X82434285Y-48300000D01*
X82481904Y-48347619D01*
X82529523Y-48442857D01*
X82529523Y-48490476D01*
X82481904Y-48585714D01*
X82434285Y-48633333D01*
X82339047Y-48680952D01*
X82148571Y-48680952D01*
X82053333Y-48728571D01*
X82005714Y-48776190D01*
X81958095Y-48871428D01*
X81958095Y-49061904D01*
X82005714Y-49157142D01*
X82053333Y-49204761D01*
X82148571Y-49252380D01*
X82339047Y-49252380D01*
X82434285Y-49204761D01*
X82481904Y-49157142D01*
X82529523Y-49061904D01*
X82529523Y-48871428D01*
X82481904Y-48776190D01*
X82434285Y-48728571D01*
X82339047Y-48680952D01*
%TO.C,SW17*%
X78910476Y-37774761D02*
X79053333Y-37822380D01*
X79291428Y-37822380D01*
X79386666Y-37774761D01*
X79434285Y-37727142D01*
X79481904Y-37631904D01*
X79481904Y-37536666D01*
X79434285Y-37441428D01*
X79386666Y-37393809D01*
X79291428Y-37346190D01*
X79100952Y-37298571D01*
X79005714Y-37250952D01*
X78958095Y-37203333D01*
X78910476Y-37108095D01*
X78910476Y-37012857D01*
X78958095Y-36917619D01*
X79005714Y-36870000D01*
X79100952Y-36822380D01*
X79339047Y-36822380D01*
X79481904Y-36870000D01*
X79815238Y-36822380D02*
X80053333Y-37822380D01*
X80243809Y-37108095D01*
X80434285Y-37822380D01*
X80672380Y-36822380D01*
X81577142Y-37822380D02*
X81005714Y-37822380D01*
X81291428Y-37822380D02*
X81291428Y-36822380D01*
X81196190Y-36965238D01*
X81100952Y-37060476D01*
X81005714Y-37108095D01*
X81910476Y-36822380D02*
X82577142Y-36822380D01*
X82148571Y-37822380D01*
%TO.C,SW16*%
X78910476Y-26344761D02*
X79053333Y-26392380D01*
X79291428Y-26392380D01*
X79386666Y-26344761D01*
X79434285Y-26297142D01*
X79481904Y-26201904D01*
X79481904Y-26106666D01*
X79434285Y-26011428D01*
X79386666Y-25963809D01*
X79291428Y-25916190D01*
X79100952Y-25868571D01*
X79005714Y-25820952D01*
X78958095Y-25773333D01*
X78910476Y-25678095D01*
X78910476Y-25582857D01*
X78958095Y-25487619D01*
X79005714Y-25440000D01*
X79100952Y-25392380D01*
X79339047Y-25392380D01*
X79481904Y-25440000D01*
X79815238Y-25392380D02*
X80053333Y-26392380D01*
X80243809Y-25678095D01*
X80434285Y-26392380D01*
X80672380Y-25392380D01*
X81577142Y-26392380D02*
X81005714Y-26392380D01*
X81291428Y-26392380D02*
X81291428Y-25392380D01*
X81196190Y-25535238D01*
X81100952Y-25630476D01*
X81005714Y-25678095D01*
X82434285Y-25392380D02*
X82243809Y-25392380D01*
X82148571Y-25440000D01*
X82100952Y-25487619D01*
X82005714Y-25630476D01*
X81958095Y-25820952D01*
X81958095Y-26201904D01*
X82005714Y-26297142D01*
X82053333Y-26344761D01*
X82148571Y-26392380D01*
X82339047Y-26392380D01*
X82434285Y-26344761D01*
X82481904Y-26297142D01*
X82529523Y-26201904D01*
X82529523Y-25963809D01*
X82481904Y-25868571D01*
X82434285Y-25820952D01*
X82339047Y-25773333D01*
X82148571Y-25773333D01*
X82053333Y-25820952D01*
X82005714Y-25868571D01*
X81958095Y-25963809D01*
%TO.C,SW15*%
X66210476Y-49204761D02*
X66353333Y-49252380D01*
X66591428Y-49252380D01*
X66686666Y-49204761D01*
X66734285Y-49157142D01*
X66781904Y-49061904D01*
X66781904Y-48966666D01*
X66734285Y-48871428D01*
X66686666Y-48823809D01*
X66591428Y-48776190D01*
X66400952Y-48728571D01*
X66305714Y-48680952D01*
X66258095Y-48633333D01*
X66210476Y-48538095D01*
X66210476Y-48442857D01*
X66258095Y-48347619D01*
X66305714Y-48300000D01*
X66400952Y-48252380D01*
X66639047Y-48252380D01*
X66781904Y-48300000D01*
X67115238Y-48252380D02*
X67353333Y-49252380D01*
X67543809Y-48538095D01*
X67734285Y-49252380D01*
X67972380Y-48252380D01*
X68877142Y-49252380D02*
X68305714Y-49252380D01*
X68591428Y-49252380D02*
X68591428Y-48252380D01*
X68496190Y-48395238D01*
X68400952Y-48490476D01*
X68305714Y-48538095D01*
X69781904Y-48252380D02*
X69305714Y-48252380D01*
X69258095Y-48728571D01*
X69305714Y-48680952D01*
X69400952Y-48633333D01*
X69639047Y-48633333D01*
X69734285Y-48680952D01*
X69781904Y-48728571D01*
X69829523Y-48823809D01*
X69829523Y-49061904D01*
X69781904Y-49157142D01*
X69734285Y-49204761D01*
X69639047Y-49252380D01*
X69400952Y-49252380D01*
X69305714Y-49204761D01*
X69258095Y-49157142D01*
%TO.C,SW14*%
X66210476Y-37774761D02*
X66353333Y-37822380D01*
X66591428Y-37822380D01*
X66686666Y-37774761D01*
X66734285Y-37727142D01*
X66781904Y-37631904D01*
X66781904Y-37536666D01*
X66734285Y-37441428D01*
X66686666Y-37393809D01*
X66591428Y-37346190D01*
X66400952Y-37298571D01*
X66305714Y-37250952D01*
X66258095Y-37203333D01*
X66210476Y-37108095D01*
X66210476Y-37012857D01*
X66258095Y-36917619D01*
X66305714Y-36870000D01*
X66400952Y-36822380D01*
X66639047Y-36822380D01*
X66781904Y-36870000D01*
X67115238Y-36822380D02*
X67353333Y-37822380D01*
X67543809Y-37108095D01*
X67734285Y-37822380D01*
X67972380Y-36822380D01*
X68877142Y-37822380D02*
X68305714Y-37822380D01*
X68591428Y-37822380D02*
X68591428Y-36822380D01*
X68496190Y-36965238D01*
X68400952Y-37060476D01*
X68305714Y-37108095D01*
X69734285Y-37155714D02*
X69734285Y-37822380D01*
X69496190Y-36774761D02*
X69258095Y-37489047D01*
X69877142Y-37489047D01*
%TO.C,SW13*%
X66210476Y-26344761D02*
X66353333Y-26392380D01*
X66591428Y-26392380D01*
X66686666Y-26344761D01*
X66734285Y-26297142D01*
X66781904Y-26201904D01*
X66781904Y-26106666D01*
X66734285Y-26011428D01*
X66686666Y-25963809D01*
X66591428Y-25916190D01*
X66400952Y-25868571D01*
X66305714Y-25820952D01*
X66258095Y-25773333D01*
X66210476Y-25678095D01*
X66210476Y-25582857D01*
X66258095Y-25487619D01*
X66305714Y-25440000D01*
X66400952Y-25392380D01*
X66639047Y-25392380D01*
X66781904Y-25440000D01*
X67115238Y-25392380D02*
X67353333Y-26392380D01*
X67543809Y-25678095D01*
X67734285Y-26392380D01*
X67972380Y-25392380D01*
X68877142Y-26392380D02*
X68305714Y-26392380D01*
X68591428Y-26392380D02*
X68591428Y-25392380D01*
X68496190Y-25535238D01*
X68400952Y-25630476D01*
X68305714Y-25678095D01*
X69210476Y-25392380D02*
X69829523Y-25392380D01*
X69496190Y-25773333D01*
X69639047Y-25773333D01*
X69734285Y-25820952D01*
X69781904Y-25868571D01*
X69829523Y-25963809D01*
X69829523Y-26201904D01*
X69781904Y-26297142D01*
X69734285Y-26344761D01*
X69639047Y-26392380D01*
X69353333Y-26392380D01*
X69258095Y-26344761D01*
X69210476Y-26297142D01*
%TO.C,SW12*%
X53510476Y-49204761D02*
X53653333Y-49252380D01*
X53891428Y-49252380D01*
X53986666Y-49204761D01*
X54034285Y-49157142D01*
X54081904Y-49061904D01*
X54081904Y-48966666D01*
X54034285Y-48871428D01*
X53986666Y-48823809D01*
X53891428Y-48776190D01*
X53700952Y-48728571D01*
X53605714Y-48680952D01*
X53558095Y-48633333D01*
X53510476Y-48538095D01*
X53510476Y-48442857D01*
X53558095Y-48347619D01*
X53605714Y-48300000D01*
X53700952Y-48252380D01*
X53939047Y-48252380D01*
X54081904Y-48300000D01*
X54415238Y-48252380D02*
X54653333Y-49252380D01*
X54843809Y-48538095D01*
X55034285Y-49252380D01*
X55272380Y-48252380D01*
X56177142Y-49252380D02*
X55605714Y-49252380D01*
X55891428Y-49252380D02*
X55891428Y-48252380D01*
X55796190Y-48395238D01*
X55700952Y-48490476D01*
X55605714Y-48538095D01*
X56558095Y-48347619D02*
X56605714Y-48300000D01*
X56700952Y-48252380D01*
X56939047Y-48252380D01*
X57034285Y-48300000D01*
X57081904Y-48347619D01*
X57129523Y-48442857D01*
X57129523Y-48538095D01*
X57081904Y-48680952D01*
X56510476Y-49252380D01*
X57129523Y-49252380D01*
%TO.C,SW11*%
X53510476Y-37774761D02*
X53653333Y-37822380D01*
X53891428Y-37822380D01*
X53986666Y-37774761D01*
X54034285Y-37727142D01*
X54081904Y-37631904D01*
X54081904Y-37536666D01*
X54034285Y-37441428D01*
X53986666Y-37393809D01*
X53891428Y-37346190D01*
X53700952Y-37298571D01*
X53605714Y-37250952D01*
X53558095Y-37203333D01*
X53510476Y-37108095D01*
X53510476Y-37012857D01*
X53558095Y-36917619D01*
X53605714Y-36870000D01*
X53700952Y-36822380D01*
X53939047Y-36822380D01*
X54081904Y-36870000D01*
X54415238Y-36822380D02*
X54653333Y-37822380D01*
X54843809Y-37108095D01*
X55034285Y-37822380D01*
X55272380Y-36822380D01*
X56177142Y-37822380D02*
X55605714Y-37822380D01*
X55891428Y-37822380D02*
X55891428Y-36822380D01*
X55796190Y-36965238D01*
X55700952Y-37060476D01*
X55605714Y-37108095D01*
X57129523Y-37822380D02*
X56558095Y-37822380D01*
X56843809Y-37822380D02*
X56843809Y-36822380D01*
X56748571Y-36965238D01*
X56653333Y-37060476D01*
X56558095Y-37108095D01*
%TO.C,SW10*%
X53510476Y-26344761D02*
X53653333Y-26392380D01*
X53891428Y-26392380D01*
X53986666Y-26344761D01*
X54034285Y-26297142D01*
X54081904Y-26201904D01*
X54081904Y-26106666D01*
X54034285Y-26011428D01*
X53986666Y-25963809D01*
X53891428Y-25916190D01*
X53700952Y-25868571D01*
X53605714Y-25820952D01*
X53558095Y-25773333D01*
X53510476Y-25678095D01*
X53510476Y-25582857D01*
X53558095Y-25487619D01*
X53605714Y-25440000D01*
X53700952Y-25392380D01*
X53939047Y-25392380D01*
X54081904Y-25440000D01*
X54415238Y-25392380D02*
X54653333Y-26392380D01*
X54843809Y-25678095D01*
X55034285Y-26392380D01*
X55272380Y-25392380D01*
X56177142Y-26392380D02*
X55605714Y-26392380D01*
X55891428Y-26392380D02*
X55891428Y-25392380D01*
X55796190Y-25535238D01*
X55700952Y-25630476D01*
X55605714Y-25678095D01*
X56796190Y-25392380D02*
X56891428Y-25392380D01*
X56986666Y-25440000D01*
X57034285Y-25487619D01*
X57081904Y-25582857D01*
X57129523Y-25773333D01*
X57129523Y-26011428D01*
X57081904Y-26201904D01*
X57034285Y-26297142D01*
X56986666Y-26344761D01*
X56891428Y-26392380D01*
X56796190Y-26392380D01*
X56700952Y-26344761D01*
X56653333Y-26297142D01*
X56605714Y-26201904D01*
X56558095Y-26011428D01*
X56558095Y-25773333D01*
X56605714Y-25582857D01*
X56653333Y-25487619D01*
X56700952Y-25440000D01*
X56796190Y-25392380D01*
%TO.C,RN4*%
X47302380Y-98480476D02*
X46826190Y-98813809D01*
X47302380Y-99051904D02*
X46302380Y-99051904D01*
X46302380Y-98670952D01*
X46350000Y-98575714D01*
X46397619Y-98528095D01*
X46492857Y-98480476D01*
X46635714Y-98480476D01*
X46730952Y-98528095D01*
X46778571Y-98575714D01*
X46826190Y-98670952D01*
X46826190Y-99051904D01*
X47302380Y-98051904D02*
X46302380Y-98051904D01*
X47302380Y-97480476D01*
X46302380Y-97480476D01*
X46635714Y-96575714D02*
X47302380Y-96575714D01*
X46254761Y-96813809D02*
X46969047Y-97051904D01*
X46969047Y-96432857D01*
%TO.C,RN2*%
X47302380Y-41330476D02*
X46826190Y-41663809D01*
X47302380Y-41901904D02*
X46302380Y-41901904D01*
X46302380Y-41520952D01*
X46350000Y-41425714D01*
X46397619Y-41378095D01*
X46492857Y-41330476D01*
X46635714Y-41330476D01*
X46730952Y-41378095D01*
X46778571Y-41425714D01*
X46826190Y-41520952D01*
X46826190Y-41901904D01*
X47302380Y-40901904D02*
X46302380Y-40901904D01*
X47302380Y-40330476D01*
X46302380Y-40330476D01*
X46397619Y-39901904D02*
X46350000Y-39854285D01*
X46302380Y-39759047D01*
X46302380Y-39520952D01*
X46350000Y-39425714D01*
X46397619Y-39378095D01*
X46492857Y-39330476D01*
X46588095Y-39330476D01*
X46730952Y-39378095D01*
X47302380Y-39949523D01*
X47302380Y-39330476D01*
%TO.C,R1*%
X18062380Y-109386666D02*
X17586190Y-109720000D01*
X18062380Y-109958095D02*
X17062380Y-109958095D01*
X17062380Y-109577142D01*
X17110000Y-109481904D01*
X17157619Y-109434285D01*
X17252857Y-109386666D01*
X17395714Y-109386666D01*
X17490952Y-109434285D01*
X17538571Y-109481904D01*
X17586190Y-109577142D01*
X17586190Y-109958095D01*
X18062380Y-108434285D02*
X18062380Y-109005714D01*
X18062380Y-108720000D02*
X17062380Y-108720000D01*
X17205238Y-108815238D01*
X17300476Y-108910476D01*
X17348095Y-109005714D01*
%TO.C,U2*%
X17472380Y-90931904D02*
X18281904Y-90931904D01*
X18377142Y-90884285D01*
X18424761Y-90836666D01*
X18472380Y-90741428D01*
X18472380Y-90550952D01*
X18424761Y-90455714D01*
X18377142Y-90408095D01*
X18281904Y-90360476D01*
X17472380Y-90360476D01*
X17567619Y-89931904D02*
X17520000Y-89884285D01*
X17472380Y-89789047D01*
X17472380Y-89550952D01*
X17520000Y-89455714D01*
X17567619Y-89408095D01*
X17662857Y-89360476D01*
X17758095Y-89360476D01*
X17900952Y-89408095D01*
X18472380Y-89979523D01*
X18472380Y-89360476D01*
%TO.C,U1*%
X23368095Y-37552380D02*
X23368095Y-38361904D01*
X23415714Y-38457142D01*
X23463333Y-38504761D01*
X23558571Y-38552380D01*
X23749047Y-38552380D01*
X23844285Y-38504761D01*
X23891904Y-38457142D01*
X23939523Y-38361904D01*
X23939523Y-37552380D01*
X24939523Y-38552380D02*
X24368095Y-38552380D01*
X24653809Y-38552380D02*
X24653809Y-37552380D01*
X24558571Y-37695238D01*
X24463333Y-37790476D01*
X24368095Y-37838095D01*
X10543096Y-16621218D02*
X10462284Y-16648155D01*
X10381471Y-16728967D01*
X10327597Y-16836717D01*
X10327597Y-16944467D01*
X10354534Y-17025279D01*
X10435346Y-17159966D01*
X10516158Y-17240778D01*
X10650845Y-17321590D01*
X10731658Y-17348528D01*
X10839407Y-17348528D01*
X10947157Y-17294653D01*
X11001032Y-17240778D01*
X11054906Y-17133028D01*
X11054906Y-17079154D01*
X10866345Y-16890592D01*
X10758595Y-16998341D01*
X11351218Y-16890592D02*
X10785532Y-16324906D01*
X11001032Y-16109407D01*
X11081844Y-16082470D01*
X11135719Y-16082470D01*
X11216531Y-16109407D01*
X11297343Y-16190219D01*
X11324280Y-16271032D01*
X11324280Y-16324906D01*
X11297343Y-16405719D01*
X11081844Y-16621218D01*
X12213215Y-16028595D02*
X11889966Y-16351844D01*
X12051590Y-16190219D02*
X11485905Y-15624534D01*
X11512842Y-15759221D01*
X11512842Y-15866971D01*
X11485905Y-15947783D01*
X10543096Y-21711218D02*
X10462284Y-21738155D01*
X10381471Y-21818967D01*
X10327597Y-21926717D01*
X10327597Y-22034467D01*
X10354534Y-22115279D01*
X10435346Y-22249966D01*
X10516158Y-22330778D01*
X10650845Y-22411590D01*
X10731658Y-22438528D01*
X10839407Y-22438528D01*
X10947157Y-22384653D01*
X11001032Y-22330778D01*
X11054906Y-22223028D01*
X11054906Y-22169154D01*
X10866345Y-21980592D01*
X10758595Y-22088341D01*
X11351218Y-21980592D02*
X10785532Y-21414906D01*
X11001032Y-21199407D01*
X11081844Y-21172470D01*
X11135719Y-21172470D01*
X11216531Y-21199407D01*
X11297343Y-21280219D01*
X11324280Y-21361032D01*
X11324280Y-21414906D01*
X11297343Y-21495719D01*
X11081844Y-21711218D01*
X11378155Y-20930033D02*
X11378155Y-20876158D01*
X11405093Y-20795346D01*
X11539780Y-20660659D01*
X11620592Y-20633722D01*
X11674467Y-20633722D01*
X11755279Y-20660659D01*
X11809154Y-20714534D01*
X11863028Y-20822284D01*
X11863028Y-21468781D01*
X12213215Y-21118595D01*
X10643096Y-14091218D02*
X10562284Y-14118155D01*
X10481471Y-14198967D01*
X10427597Y-14306717D01*
X10427597Y-14414467D01*
X10454534Y-14495279D01*
X10535346Y-14629966D01*
X10616158Y-14710778D01*
X10750845Y-14791590D01*
X10831658Y-14818528D01*
X10939407Y-14818528D01*
X11047157Y-14764653D01*
X11101032Y-14710778D01*
X11154906Y-14603028D01*
X11154906Y-14549154D01*
X10966345Y-14360592D01*
X10858595Y-14468341D01*
X11451218Y-14360592D02*
X10885532Y-13794906D01*
X11101032Y-13579407D01*
X11181844Y-13552470D01*
X11235719Y-13552470D01*
X11316531Y-13579407D01*
X11397343Y-13660219D01*
X11424280Y-13741032D01*
X11424280Y-13794906D01*
X11397343Y-13875719D01*
X11181844Y-14091218D01*
X11558967Y-13121471D02*
X11612842Y-13067597D01*
X11693654Y-13040659D01*
X11747529Y-13040659D01*
X11828341Y-13067597D01*
X11963028Y-13148409D01*
X12097715Y-13283096D01*
X12178528Y-13417783D01*
X12205465Y-13498595D01*
X12205465Y-13552470D01*
X12178528Y-13633282D01*
X12124653Y-13687157D01*
X12043841Y-13714094D01*
X11989966Y-13714094D01*
X11909154Y-13687157D01*
X11774467Y-13606345D01*
X11639780Y-13471658D01*
X11558967Y-13336971D01*
X11532030Y-13256158D01*
X11532030Y-13202284D01*
X11558967Y-13121471D01*
X10643096Y-24251218D02*
X10562284Y-24278155D01*
X10481471Y-24358967D01*
X10427597Y-24466717D01*
X10427597Y-24574467D01*
X10454534Y-24655279D01*
X10535346Y-24789966D01*
X10616158Y-24870778D01*
X10750845Y-24951590D01*
X10831658Y-24978528D01*
X10939407Y-24978528D01*
X11047157Y-24924653D01*
X11101032Y-24870778D01*
X11154906Y-24763028D01*
X11154906Y-24709154D01*
X10966345Y-24520592D01*
X10858595Y-24628341D01*
X11451218Y-24520592D02*
X10885532Y-23954906D01*
X11101032Y-23739407D01*
X11181844Y-23712470D01*
X11235719Y-23712470D01*
X11316531Y-23739407D01*
X11397343Y-23820219D01*
X11424280Y-23901032D01*
X11424280Y-23954906D01*
X11397343Y-24035719D01*
X11181844Y-24251218D01*
X11397343Y-23443096D02*
X11747529Y-23092910D01*
X11774467Y-23496971D01*
X11855279Y-23416158D01*
X11936091Y-23389221D01*
X11989966Y-23389221D01*
X12070778Y-23416158D01*
X12205465Y-23550845D01*
X12232402Y-23631658D01*
X12232402Y-23685532D01*
X12205465Y-23766345D01*
X12043841Y-23927969D01*
X11963028Y-23954906D01*
X11909154Y-23954906D01*
X10643096Y-26791218D02*
X10562284Y-26818155D01*
X10481471Y-26898967D01*
X10427597Y-27006717D01*
X10427597Y-27114467D01*
X10454534Y-27195279D01*
X10535346Y-27329966D01*
X10616158Y-27410778D01*
X10750845Y-27491590D01*
X10831658Y-27518528D01*
X10939407Y-27518528D01*
X11047157Y-27464653D01*
X11101032Y-27410778D01*
X11154906Y-27303028D01*
X11154906Y-27249154D01*
X10966345Y-27060592D01*
X10858595Y-27168341D01*
X11451218Y-27060592D02*
X10885532Y-26494906D01*
X11101032Y-26279407D01*
X11181844Y-26252470D01*
X11235719Y-26252470D01*
X11316531Y-26279407D01*
X11397343Y-26360219D01*
X11424280Y-26441032D01*
X11424280Y-26494906D01*
X11397343Y-26575719D01*
X11181844Y-26791218D01*
X11882216Y-25875346D02*
X12259340Y-26252470D01*
X11532030Y-25794534D02*
X11801404Y-26333282D01*
X12151590Y-25983096D01*
X10643096Y-29331218D02*
X10562284Y-29358155D01*
X10481471Y-29438967D01*
X10427597Y-29546717D01*
X10427597Y-29654467D01*
X10454534Y-29735279D01*
X10535346Y-29869966D01*
X10616158Y-29950778D01*
X10750845Y-30031590D01*
X10831658Y-30058528D01*
X10939407Y-30058528D01*
X11047157Y-30004653D01*
X11101032Y-29950778D01*
X11154906Y-29843028D01*
X11154906Y-29789154D01*
X10966345Y-29600592D01*
X10858595Y-29708341D01*
X11451218Y-29600592D02*
X10885532Y-29034906D01*
X11101032Y-28819407D01*
X11181844Y-28792470D01*
X11235719Y-28792470D01*
X11316531Y-28819407D01*
X11397343Y-28900219D01*
X11424280Y-28981032D01*
X11424280Y-29034906D01*
X11397343Y-29115719D01*
X11181844Y-29331218D01*
X11720592Y-28199847D02*
X11451218Y-28469221D01*
X11693654Y-28765532D01*
X11693654Y-28711658D01*
X11720592Y-28630845D01*
X11855279Y-28496158D01*
X11936091Y-28469221D01*
X11989966Y-28469221D01*
X12070778Y-28496158D01*
X12205465Y-28630845D01*
X12232402Y-28711658D01*
X12232402Y-28765532D01*
X12205465Y-28846345D01*
X12070778Y-28981032D01*
X11989966Y-29007969D01*
X11936091Y-29007969D01*
X10643096Y-34411218D02*
X10562284Y-34438155D01*
X10481471Y-34518967D01*
X10427597Y-34626717D01*
X10427597Y-34734467D01*
X10454534Y-34815279D01*
X10535346Y-34949966D01*
X10616158Y-35030778D01*
X10750845Y-35111590D01*
X10831658Y-35138528D01*
X10939407Y-35138528D01*
X11047157Y-35084653D01*
X11101032Y-35030778D01*
X11154906Y-34923028D01*
X11154906Y-34869154D01*
X10966345Y-34680592D01*
X10858595Y-34788341D01*
X11451218Y-34680592D02*
X10885532Y-34114906D01*
X11101032Y-33899407D01*
X11181844Y-33872470D01*
X11235719Y-33872470D01*
X11316531Y-33899407D01*
X11397343Y-33980219D01*
X11424280Y-34061032D01*
X11424280Y-34114906D01*
X11397343Y-34195719D01*
X11181844Y-34411218D01*
X11693654Y-33306784D02*
X11585905Y-33414534D01*
X11558967Y-33495346D01*
X11558967Y-33549221D01*
X11585905Y-33683908D01*
X11666717Y-33818595D01*
X11882216Y-34034094D01*
X11963028Y-34061032D01*
X12016903Y-34061032D01*
X12097715Y-34034094D01*
X12205465Y-33926345D01*
X12232402Y-33845532D01*
X12232402Y-33791658D01*
X12205465Y-33710845D01*
X12070778Y-33576158D01*
X11989966Y-33549221D01*
X11936091Y-33549221D01*
X11855279Y-33576158D01*
X11747529Y-33683908D01*
X11720592Y-33764720D01*
X11720592Y-33818595D01*
X11747529Y-33899407D01*
X10743096Y-36921218D02*
X10662284Y-36948155D01*
X10581471Y-37028967D01*
X10527597Y-37136717D01*
X10527597Y-37244467D01*
X10554534Y-37325279D01*
X10635346Y-37459966D01*
X10716158Y-37540778D01*
X10850845Y-37621590D01*
X10931658Y-37648528D01*
X11039407Y-37648528D01*
X11147157Y-37594653D01*
X11201032Y-37540778D01*
X11254906Y-37433028D01*
X11254906Y-37379154D01*
X11066345Y-37190592D01*
X10958595Y-37298341D01*
X11551218Y-37190592D02*
X10985532Y-36624906D01*
X11201032Y-36409407D01*
X11281844Y-36382470D01*
X11335719Y-36382470D01*
X11416531Y-36409407D01*
X11497343Y-36490219D01*
X11524280Y-36571032D01*
X11524280Y-36624906D01*
X11497343Y-36705719D01*
X11281844Y-36921218D01*
X11497343Y-36113096D02*
X11874467Y-35735972D01*
X12197715Y-36544094D01*
X10643096Y-39491218D02*
X10562284Y-39518155D01*
X10481471Y-39598967D01*
X10427597Y-39706717D01*
X10427597Y-39814467D01*
X10454534Y-39895279D01*
X10535346Y-40029966D01*
X10616158Y-40110778D01*
X10750845Y-40191590D01*
X10831658Y-40218528D01*
X10939407Y-40218528D01*
X11047157Y-40164653D01*
X11101032Y-40110778D01*
X11154906Y-40003028D01*
X11154906Y-39949154D01*
X10966345Y-39760592D01*
X10858595Y-39868341D01*
X11451218Y-39760592D02*
X10885532Y-39194906D01*
X11101032Y-38979407D01*
X11181844Y-38952470D01*
X11235719Y-38952470D01*
X11316531Y-38979407D01*
X11397343Y-39060219D01*
X11424280Y-39141032D01*
X11424280Y-39194906D01*
X11397343Y-39275719D01*
X11181844Y-39491218D01*
X11774467Y-38790845D02*
X11693654Y-38817783D01*
X11639780Y-38817783D01*
X11558967Y-38790845D01*
X11532030Y-38763908D01*
X11505093Y-38683096D01*
X11505093Y-38629221D01*
X11532030Y-38548409D01*
X11639780Y-38440659D01*
X11720592Y-38413722D01*
X11774467Y-38413722D01*
X11855279Y-38440659D01*
X11882216Y-38467597D01*
X11909154Y-38548409D01*
X11909154Y-38602284D01*
X11882216Y-38683096D01*
X11774467Y-38790845D01*
X11747529Y-38871658D01*
X11747529Y-38925532D01*
X11774467Y-39006345D01*
X11882216Y-39114094D01*
X11963028Y-39141032D01*
X12016903Y-39141032D01*
X12097715Y-39114094D01*
X12205465Y-39006345D01*
X12232402Y-38925532D01*
X12232402Y-38871658D01*
X12205465Y-38790845D01*
X12097715Y-38683096D01*
X12016903Y-38656158D01*
X11963028Y-38656158D01*
X11882216Y-38683096D01*
X10643096Y-42031218D02*
X10562284Y-42058155D01*
X10481471Y-42138967D01*
X10427597Y-42246717D01*
X10427597Y-42354467D01*
X10454534Y-42435279D01*
X10535346Y-42569966D01*
X10616158Y-42650778D01*
X10750845Y-42731590D01*
X10831658Y-42758528D01*
X10939407Y-42758528D01*
X11047157Y-42704653D01*
X11101032Y-42650778D01*
X11154906Y-42543028D01*
X11154906Y-42489154D01*
X10966345Y-42300592D01*
X10858595Y-42408341D01*
X11451218Y-42300592D02*
X10885532Y-41734906D01*
X11101032Y-41519407D01*
X11181844Y-41492470D01*
X11235719Y-41492470D01*
X11316531Y-41519407D01*
X11397343Y-41600219D01*
X11424280Y-41681032D01*
X11424280Y-41734906D01*
X11397343Y-41815719D01*
X11181844Y-42031218D01*
X12043841Y-41707969D02*
X12151590Y-41600219D01*
X12178528Y-41519407D01*
X12178528Y-41465532D01*
X12151590Y-41330845D01*
X12070778Y-41196158D01*
X11855279Y-40980659D01*
X11774467Y-40953722D01*
X11720592Y-40953722D01*
X11639780Y-40980659D01*
X11532030Y-41088409D01*
X11505093Y-41169221D01*
X11505093Y-41223096D01*
X11532030Y-41303908D01*
X11666717Y-41438595D01*
X11747529Y-41465532D01*
X11801404Y-41465532D01*
X11882216Y-41438595D01*
X11989966Y-41330845D01*
X12016903Y-41250033D01*
X12016903Y-41196158D01*
X11989966Y-41115346D01*
X10119722Y-47380592D02*
X10038910Y-47407529D01*
X9958097Y-47488341D01*
X9904223Y-47596091D01*
X9904223Y-47703841D01*
X9931160Y-47784653D01*
X10011972Y-47919340D01*
X10092784Y-48000152D01*
X10227471Y-48080964D01*
X10308284Y-48107902D01*
X10416033Y-48107902D01*
X10523783Y-48054027D01*
X10577658Y-48000152D01*
X10631532Y-47892402D01*
X10631532Y-47838528D01*
X10442971Y-47649966D01*
X10335221Y-47757715D01*
X10927844Y-47649966D02*
X10362158Y-47084280D01*
X10577658Y-46868781D01*
X10658470Y-46841844D01*
X10712345Y-46841844D01*
X10793157Y-46868781D01*
X10873969Y-46949593D01*
X10900906Y-47030406D01*
X10900906Y-47084280D01*
X10873969Y-47165093D01*
X10658470Y-47380592D01*
X11789841Y-46787969D02*
X11466592Y-47111218D01*
X11628216Y-46949593D02*
X11062531Y-46383908D01*
X11089468Y-46518595D01*
X11089468Y-46626345D01*
X11062531Y-46707157D01*
X11574341Y-45872097D02*
X11628216Y-45818223D01*
X11709028Y-45791285D01*
X11762903Y-45791285D01*
X11843715Y-45818223D01*
X11978402Y-45899035D01*
X12113089Y-46033722D01*
X12193902Y-46168409D01*
X12220839Y-46249221D01*
X12220839Y-46303096D01*
X12193902Y-46383908D01*
X12140027Y-46437783D01*
X12059215Y-46464720D01*
X12005340Y-46464720D01*
X11924528Y-46437783D01*
X11789841Y-46356971D01*
X11655154Y-46222284D01*
X11574341Y-46087597D01*
X11547404Y-46006784D01*
X11547404Y-45952910D01*
X11574341Y-45872097D01*
X9973722Y-49920592D02*
X9892910Y-49947529D01*
X9812097Y-50028341D01*
X9758223Y-50136091D01*
X9758223Y-50243841D01*
X9785160Y-50324653D01*
X9865972Y-50459340D01*
X9946784Y-50540152D01*
X10081471Y-50620964D01*
X10162284Y-50647902D01*
X10270033Y-50647902D01*
X10377783Y-50594027D01*
X10431658Y-50540152D01*
X10485532Y-50432402D01*
X10485532Y-50378528D01*
X10296971Y-50189966D01*
X10189221Y-50297715D01*
X10781844Y-50189966D02*
X10216158Y-49624280D01*
X10431658Y-49408781D01*
X10512470Y-49381844D01*
X10566345Y-49381844D01*
X10647157Y-49408781D01*
X10727969Y-49489593D01*
X10754906Y-49570406D01*
X10754906Y-49624280D01*
X10727969Y-49705093D01*
X10512470Y-49920592D01*
X11643841Y-49327969D02*
X11320592Y-49651218D01*
X11482216Y-49489593D02*
X10916531Y-48923908D01*
X10943468Y-49058595D01*
X10943468Y-49166345D01*
X10916531Y-49247157D01*
X12182589Y-48789221D02*
X11859340Y-49112470D01*
X12020964Y-48950845D02*
X11455279Y-48385160D01*
X11482216Y-48519847D01*
X11482216Y-48627597D01*
X11455279Y-48708409D01*
X9973722Y-52460592D02*
X9892910Y-52487529D01*
X9812097Y-52568341D01*
X9758223Y-52676091D01*
X9758223Y-52783841D01*
X9785160Y-52864653D01*
X9865972Y-52999340D01*
X9946784Y-53080152D01*
X10081471Y-53160964D01*
X10162284Y-53187902D01*
X10270033Y-53187902D01*
X10377783Y-53134027D01*
X10431658Y-53080152D01*
X10485532Y-52972402D01*
X10485532Y-52918528D01*
X10296971Y-52729966D01*
X10189221Y-52837715D01*
X10781844Y-52729966D02*
X10216158Y-52164280D01*
X10431658Y-51948781D01*
X10512470Y-51921844D01*
X10566345Y-51921844D01*
X10647157Y-51948781D01*
X10727969Y-52029593D01*
X10754906Y-52110406D01*
X10754906Y-52164280D01*
X10727969Y-52245093D01*
X10512470Y-52460592D01*
X11643841Y-51867969D02*
X11320592Y-52191218D01*
X11482216Y-52029593D02*
X10916531Y-51463908D01*
X10943468Y-51598595D01*
X10943468Y-51706345D01*
X10916531Y-51787157D01*
X11347529Y-51140659D02*
X11347529Y-51086784D01*
X11374467Y-51005972D01*
X11509154Y-50871285D01*
X11589966Y-50844348D01*
X11643841Y-50844348D01*
X11724653Y-50871285D01*
X11778528Y-50925160D01*
X11832402Y-51032910D01*
X11832402Y-51679407D01*
X12182589Y-51329221D01*
X10119722Y-55000592D02*
X10038910Y-55027529D01*
X9958097Y-55108341D01*
X9904223Y-55216091D01*
X9904223Y-55323841D01*
X9931160Y-55404653D01*
X10011972Y-55539340D01*
X10092784Y-55620152D01*
X10227471Y-55700964D01*
X10308284Y-55727902D01*
X10416033Y-55727902D01*
X10523783Y-55674027D01*
X10577658Y-55620152D01*
X10631532Y-55512402D01*
X10631532Y-55458528D01*
X10442971Y-55269966D01*
X10335221Y-55377715D01*
X10927844Y-55269966D02*
X10362158Y-54704280D01*
X10577658Y-54488781D01*
X10658470Y-54461844D01*
X10712345Y-54461844D01*
X10793157Y-54488781D01*
X10873969Y-54569593D01*
X10900906Y-54650406D01*
X10900906Y-54704280D01*
X10873969Y-54785093D01*
X10658470Y-55000592D01*
X11789841Y-54407969D02*
X11466592Y-54731218D01*
X11628216Y-54569593D02*
X11062531Y-54003908D01*
X11089468Y-54138595D01*
X11089468Y-54246345D01*
X11062531Y-54327157D01*
X11412717Y-53653722D02*
X11762903Y-53303536D01*
X11789841Y-53707597D01*
X11870653Y-53626784D01*
X11951465Y-53599847D01*
X12005340Y-53599847D01*
X12086152Y-53626784D01*
X12220839Y-53761471D01*
X12247776Y-53842284D01*
X12247776Y-53896158D01*
X12220839Y-53976971D01*
X12059215Y-54138595D01*
X11978402Y-54165532D01*
X11924528Y-54165532D01*
X10073722Y-60080592D02*
X9992910Y-60107529D01*
X9912097Y-60188341D01*
X9858223Y-60296091D01*
X9858223Y-60403841D01*
X9885160Y-60484653D01*
X9965972Y-60619340D01*
X10046784Y-60700152D01*
X10181471Y-60780964D01*
X10262284Y-60807902D01*
X10370033Y-60807902D01*
X10477783Y-60754027D01*
X10531658Y-60700152D01*
X10585532Y-60592402D01*
X10585532Y-60538528D01*
X10396971Y-60349966D01*
X10289221Y-60457715D01*
X10881844Y-60349966D02*
X10316158Y-59784280D01*
X10531658Y-59568781D01*
X10612470Y-59541844D01*
X10666345Y-59541844D01*
X10747157Y-59568781D01*
X10827969Y-59649593D01*
X10854906Y-59730406D01*
X10854906Y-59784280D01*
X10827969Y-59865093D01*
X10612470Y-60080592D01*
X11743841Y-59487969D02*
X11420592Y-59811218D01*
X11582216Y-59649593D02*
X11016531Y-59083908D01*
X11043468Y-59218595D01*
X11043468Y-59326345D01*
X11016531Y-59407157D01*
X11851590Y-58625972D02*
X12228714Y-59003096D01*
X11501404Y-58545160D02*
X11770778Y-59083908D01*
X12120964Y-58733722D01*
X10119722Y-62620592D02*
X10038910Y-62647529D01*
X9958097Y-62728341D01*
X9904223Y-62836091D01*
X9904223Y-62943841D01*
X9931160Y-63024653D01*
X10011972Y-63159340D01*
X10092784Y-63240152D01*
X10227471Y-63320964D01*
X10308284Y-63347902D01*
X10416033Y-63347902D01*
X10523783Y-63294027D01*
X10577658Y-63240152D01*
X10631532Y-63132402D01*
X10631532Y-63078528D01*
X10442971Y-62889966D01*
X10335221Y-62997715D01*
X10927844Y-62889966D02*
X10362158Y-62324280D01*
X10577658Y-62108781D01*
X10658470Y-62081844D01*
X10712345Y-62081844D01*
X10793157Y-62108781D01*
X10873969Y-62189593D01*
X10900906Y-62270406D01*
X10900906Y-62324280D01*
X10873969Y-62405093D01*
X10658470Y-62620592D01*
X11789841Y-62027969D02*
X11466592Y-62351218D01*
X11628216Y-62189593D02*
X11062531Y-61623908D01*
X11089468Y-61758595D01*
X11089468Y-61866345D01*
X11062531Y-61947157D01*
X11735966Y-60950473D02*
X11466592Y-61219847D01*
X11709028Y-61516158D01*
X11709028Y-61462284D01*
X11735966Y-61381471D01*
X11870653Y-61246784D01*
X11951465Y-61219847D01*
X12005340Y-61219847D01*
X12086152Y-61246784D01*
X12220839Y-61381471D01*
X12247776Y-61462284D01*
X12247776Y-61516158D01*
X12220839Y-61596971D01*
X12086152Y-61731658D01*
X12005340Y-61758595D01*
X11951465Y-61758595D01*
X36227722Y-62620592D02*
X36146910Y-62647529D01*
X36066097Y-62728341D01*
X36012223Y-62836091D01*
X36012223Y-62943841D01*
X36039160Y-63024653D01*
X36119972Y-63159340D01*
X36200784Y-63240152D01*
X36335471Y-63320964D01*
X36416284Y-63347902D01*
X36524033Y-63347902D01*
X36631783Y-63294027D01*
X36685658Y-63240152D01*
X36739532Y-63132402D01*
X36739532Y-63078528D01*
X36550971Y-62889966D01*
X36443221Y-62997715D01*
X37035844Y-62889966D02*
X36470158Y-62324280D01*
X36685658Y-62108781D01*
X36766470Y-62081844D01*
X36820345Y-62081844D01*
X36901157Y-62108781D01*
X36981969Y-62189593D01*
X37008906Y-62270406D01*
X37008906Y-62324280D01*
X36981969Y-62405093D01*
X36766470Y-62620592D01*
X37897841Y-62027969D02*
X37574592Y-62351218D01*
X37736216Y-62189593D02*
X37170531Y-61623908D01*
X37197468Y-61758595D01*
X37197468Y-61866345D01*
X37170531Y-61947157D01*
X37817028Y-60977410D02*
X37709279Y-61085160D01*
X37682341Y-61165972D01*
X37682341Y-61219847D01*
X37709279Y-61354534D01*
X37790091Y-61489221D01*
X38005590Y-61704720D01*
X38086402Y-61731658D01*
X38140277Y-61731658D01*
X38221089Y-61704720D01*
X38328839Y-61596971D01*
X38355776Y-61516158D01*
X38355776Y-61462284D01*
X38328839Y-61381471D01*
X38194152Y-61246784D01*
X38113340Y-61219847D01*
X38059465Y-61219847D01*
X37978653Y-61246784D01*
X37870903Y-61354534D01*
X37843966Y-61435346D01*
X37843966Y-61489221D01*
X37870903Y-61570033D01*
X36227722Y-60080592D02*
X36146910Y-60107529D01*
X36066097Y-60188341D01*
X36012223Y-60296091D01*
X36012223Y-60403841D01*
X36039160Y-60484653D01*
X36119972Y-60619340D01*
X36200784Y-60700152D01*
X36335471Y-60780964D01*
X36416284Y-60807902D01*
X36524033Y-60807902D01*
X36631783Y-60754027D01*
X36685658Y-60700152D01*
X36739532Y-60592402D01*
X36739532Y-60538528D01*
X36550971Y-60349966D01*
X36443221Y-60457715D01*
X37035844Y-60349966D02*
X36470158Y-59784280D01*
X36685658Y-59568781D01*
X36766470Y-59541844D01*
X36820345Y-59541844D01*
X36901157Y-59568781D01*
X36981969Y-59649593D01*
X37008906Y-59730406D01*
X37008906Y-59784280D01*
X36981969Y-59865093D01*
X36766470Y-60080592D01*
X37897841Y-59487969D02*
X37574592Y-59811218D01*
X37736216Y-59649593D02*
X37170531Y-59083908D01*
X37197468Y-59218595D01*
X37197468Y-59326345D01*
X37170531Y-59407157D01*
X37520717Y-58733722D02*
X37897841Y-58356598D01*
X38221089Y-59164720D01*
X36227722Y-55000592D02*
X36146910Y-55027529D01*
X36066097Y-55108341D01*
X36012223Y-55216091D01*
X36012223Y-55323841D01*
X36039160Y-55404653D01*
X36119972Y-55539340D01*
X36200784Y-55620152D01*
X36335471Y-55700964D01*
X36416284Y-55727902D01*
X36524033Y-55727902D01*
X36631783Y-55674027D01*
X36685658Y-55620152D01*
X36739532Y-55512402D01*
X36739532Y-55458528D01*
X36550971Y-55269966D01*
X36443221Y-55377715D01*
X37035844Y-55269966D02*
X36470158Y-54704280D01*
X36685658Y-54488781D01*
X36766470Y-54461844D01*
X36820345Y-54461844D01*
X36901157Y-54488781D01*
X36981969Y-54569593D01*
X37008906Y-54650406D01*
X37008906Y-54704280D01*
X36981969Y-54785093D01*
X36766470Y-55000592D01*
X37897841Y-54407969D02*
X37574592Y-54731218D01*
X37736216Y-54569593D02*
X37170531Y-54003908D01*
X37197468Y-54138595D01*
X37197468Y-54246345D01*
X37170531Y-54327157D01*
X37897841Y-53761471D02*
X37817028Y-53788409D01*
X37763154Y-53788409D01*
X37682341Y-53761471D01*
X37655404Y-53734534D01*
X37628467Y-53653722D01*
X37628467Y-53599847D01*
X37655404Y-53519035D01*
X37763154Y-53411285D01*
X37843966Y-53384348D01*
X37897841Y-53384348D01*
X37978653Y-53411285D01*
X38005590Y-53438223D01*
X38032528Y-53519035D01*
X38032528Y-53572910D01*
X38005590Y-53653722D01*
X37897841Y-53761471D01*
X37870903Y-53842284D01*
X37870903Y-53896158D01*
X37897841Y-53976971D01*
X38005590Y-54084720D01*
X38086402Y-54111658D01*
X38140277Y-54111658D01*
X38221089Y-54084720D01*
X38328839Y-53976971D01*
X38355776Y-53896158D01*
X38355776Y-53842284D01*
X38328839Y-53761471D01*
X38221089Y-53653722D01*
X38140277Y-53626784D01*
X38086402Y-53626784D01*
X38005590Y-53653722D01*
X36227722Y-52460592D02*
X36146910Y-52487529D01*
X36066097Y-52568341D01*
X36012223Y-52676091D01*
X36012223Y-52783841D01*
X36039160Y-52864653D01*
X36119972Y-52999340D01*
X36200784Y-53080152D01*
X36335471Y-53160964D01*
X36416284Y-53187902D01*
X36524033Y-53187902D01*
X36631783Y-53134027D01*
X36685658Y-53080152D01*
X36739532Y-52972402D01*
X36739532Y-52918528D01*
X36550971Y-52729966D01*
X36443221Y-52837715D01*
X37035844Y-52729966D02*
X36470158Y-52164280D01*
X36685658Y-51948781D01*
X36766470Y-51921844D01*
X36820345Y-51921844D01*
X36901157Y-51948781D01*
X36981969Y-52029593D01*
X37008906Y-52110406D01*
X37008906Y-52164280D01*
X36981969Y-52245093D01*
X36766470Y-52460592D01*
X37897841Y-51867969D02*
X37574592Y-52191218D01*
X37736216Y-52029593D02*
X37170531Y-51463908D01*
X37197468Y-51598595D01*
X37197468Y-51706345D01*
X37170531Y-51787157D01*
X38167215Y-51598595D02*
X38274964Y-51490845D01*
X38301902Y-51410033D01*
X38301902Y-51356158D01*
X38274964Y-51221471D01*
X38194152Y-51086784D01*
X37978653Y-50871285D01*
X37897841Y-50844348D01*
X37843966Y-50844348D01*
X37763154Y-50871285D01*
X37655404Y-50979035D01*
X37628467Y-51059847D01*
X37628467Y-51113722D01*
X37655404Y-51194534D01*
X37790091Y-51329221D01*
X37870903Y-51356158D01*
X37924778Y-51356158D01*
X38005590Y-51329221D01*
X38113340Y-51221471D01*
X38140277Y-51140659D01*
X38140277Y-51086784D01*
X38113340Y-51005972D01*
X36227722Y-49920592D02*
X36146910Y-49947529D01*
X36066097Y-50028341D01*
X36012223Y-50136091D01*
X36012223Y-50243841D01*
X36039160Y-50324653D01*
X36119972Y-50459340D01*
X36200784Y-50540152D01*
X36335471Y-50620964D01*
X36416284Y-50647902D01*
X36524033Y-50647902D01*
X36631783Y-50594027D01*
X36685658Y-50540152D01*
X36739532Y-50432402D01*
X36739532Y-50378528D01*
X36550971Y-50189966D01*
X36443221Y-50297715D01*
X37035844Y-50189966D02*
X36470158Y-49624280D01*
X36685658Y-49408781D01*
X36766470Y-49381844D01*
X36820345Y-49381844D01*
X36901157Y-49408781D01*
X36981969Y-49489593D01*
X37008906Y-49570406D01*
X37008906Y-49624280D01*
X36981969Y-49705093D01*
X36766470Y-49920592D01*
X37062781Y-49139407D02*
X37062781Y-49085532D01*
X37089719Y-49004720D01*
X37224406Y-48870033D01*
X37305218Y-48843096D01*
X37359093Y-48843096D01*
X37439905Y-48870033D01*
X37493780Y-48923908D01*
X37547654Y-49031658D01*
X37547654Y-49678155D01*
X37897841Y-49327969D01*
X37682341Y-48412097D02*
X37736216Y-48358223D01*
X37817028Y-48331285D01*
X37870903Y-48331285D01*
X37951715Y-48358223D01*
X38086402Y-48439035D01*
X38221089Y-48573722D01*
X38301902Y-48708409D01*
X38328839Y-48789221D01*
X38328839Y-48843096D01*
X38301902Y-48923908D01*
X38248027Y-48977783D01*
X38167215Y-49004720D01*
X38113340Y-49004720D01*
X38032528Y-48977783D01*
X37897841Y-48896971D01*
X37763154Y-48762284D01*
X37682341Y-48627597D01*
X37655404Y-48546784D01*
X37655404Y-48492910D01*
X37682341Y-48412097D01*
X36227722Y-47390592D02*
X36146910Y-47417529D01*
X36066097Y-47498341D01*
X36012223Y-47606091D01*
X36012223Y-47713841D01*
X36039160Y-47794653D01*
X36119972Y-47929340D01*
X36200784Y-48010152D01*
X36335471Y-48090964D01*
X36416284Y-48117902D01*
X36524033Y-48117902D01*
X36631783Y-48064027D01*
X36685658Y-48010152D01*
X36739532Y-47902402D01*
X36739532Y-47848528D01*
X36550971Y-47659966D01*
X36443221Y-47767715D01*
X37035844Y-47659966D02*
X36470158Y-47094280D01*
X36685658Y-46878781D01*
X36766470Y-46851844D01*
X36820345Y-46851844D01*
X36901157Y-46878781D01*
X36981969Y-46959593D01*
X37008906Y-47040406D01*
X37008906Y-47094280D01*
X36981969Y-47175093D01*
X36766470Y-47390592D01*
X37062781Y-46609407D02*
X37062781Y-46555532D01*
X37089719Y-46474720D01*
X37224406Y-46340033D01*
X37305218Y-46313096D01*
X37359093Y-46313096D01*
X37439905Y-46340033D01*
X37493780Y-46393908D01*
X37547654Y-46501658D01*
X37547654Y-47148155D01*
X37897841Y-46797969D01*
X38436589Y-46259221D02*
X38113340Y-46582470D01*
X38274964Y-46420845D02*
X37709279Y-45855160D01*
X37736216Y-45989847D01*
X37736216Y-46097597D01*
X37709279Y-46178409D01*
X36227722Y-42300592D02*
X36146910Y-42327529D01*
X36066097Y-42408341D01*
X36012223Y-42516091D01*
X36012223Y-42623841D01*
X36039160Y-42704653D01*
X36119972Y-42839340D01*
X36200784Y-42920152D01*
X36335471Y-43000964D01*
X36416284Y-43027902D01*
X36524033Y-43027902D01*
X36631783Y-42974027D01*
X36685658Y-42920152D01*
X36739532Y-42812402D01*
X36739532Y-42758528D01*
X36550971Y-42569966D01*
X36443221Y-42677715D01*
X37035844Y-42569966D02*
X36470158Y-42004280D01*
X36685658Y-41788781D01*
X36766470Y-41761844D01*
X36820345Y-41761844D01*
X36901157Y-41788781D01*
X36981969Y-41869593D01*
X37008906Y-41950406D01*
X37008906Y-42004280D01*
X36981969Y-42085093D01*
X36766470Y-42300592D01*
X37062781Y-41519407D02*
X37062781Y-41465532D01*
X37089719Y-41384720D01*
X37224406Y-41250033D01*
X37305218Y-41223096D01*
X37359093Y-41223096D01*
X37439905Y-41250033D01*
X37493780Y-41303908D01*
X37547654Y-41411658D01*
X37547654Y-42058155D01*
X37897841Y-41707969D01*
X37601529Y-40980659D02*
X37601529Y-40926784D01*
X37628467Y-40845972D01*
X37763154Y-40711285D01*
X37843966Y-40684348D01*
X37897841Y-40684348D01*
X37978653Y-40711285D01*
X38032528Y-40765160D01*
X38086402Y-40872910D01*
X38086402Y-41519407D01*
X38436589Y-41169221D01*
X36968375Y-40043435D02*
X36510439Y-39962622D01*
X36645126Y-40366683D02*
X36079441Y-39800998D01*
X36294940Y-39585499D01*
X36375752Y-39558561D01*
X36429627Y-39558561D01*
X36510439Y-39585499D01*
X36591251Y-39666311D01*
X36618189Y-39747123D01*
X36618189Y-39800998D01*
X36591251Y-39881810D01*
X36375752Y-40097309D01*
X36645126Y-39235312D02*
X37103062Y-39693248D01*
X37183874Y-39720186D01*
X37237749Y-39720186D01*
X37318561Y-39693248D01*
X37426311Y-39585499D01*
X37453248Y-39504687D01*
X37453248Y-39450812D01*
X37426311Y-39370000D01*
X36968375Y-38912064D01*
X37803435Y-39208375D02*
X37237749Y-38642690D01*
X38126683Y-38885126D01*
X37560998Y-38319441D01*
X36227722Y-37220592D02*
X36146910Y-37247529D01*
X36066097Y-37328341D01*
X36012223Y-37436091D01*
X36012223Y-37543841D01*
X36039160Y-37624653D01*
X36119972Y-37759340D01*
X36200784Y-37840152D01*
X36335471Y-37920964D01*
X36416284Y-37947902D01*
X36524033Y-37947902D01*
X36631783Y-37894027D01*
X36685658Y-37840152D01*
X36739532Y-37732402D01*
X36739532Y-37678528D01*
X36550971Y-37489966D01*
X36443221Y-37597715D01*
X37035844Y-37489966D02*
X36470158Y-36924280D01*
X36685658Y-36708781D01*
X36766470Y-36681844D01*
X36820345Y-36681844D01*
X36901157Y-36708781D01*
X36981969Y-36789593D01*
X37008906Y-36870406D01*
X37008906Y-36924280D01*
X36981969Y-37005093D01*
X36766470Y-37220592D01*
X37062781Y-36439407D02*
X37062781Y-36385532D01*
X37089719Y-36304720D01*
X37224406Y-36170033D01*
X37305218Y-36143096D01*
X37359093Y-36143096D01*
X37439905Y-36170033D01*
X37493780Y-36223908D01*
X37547654Y-36331658D01*
X37547654Y-36978155D01*
X37897841Y-36627969D01*
X37817028Y-35577410D02*
X37709279Y-35685160D01*
X37682341Y-35765972D01*
X37682341Y-35819847D01*
X37709279Y-35954534D01*
X37790091Y-36089221D01*
X38005590Y-36304720D01*
X38086402Y-36331658D01*
X38140277Y-36331658D01*
X38221089Y-36304720D01*
X38328839Y-36196971D01*
X38355776Y-36116158D01*
X38355776Y-36062284D01*
X38328839Y-35981471D01*
X38194152Y-35846784D01*
X38113340Y-35819847D01*
X38059465Y-35819847D01*
X37978653Y-35846784D01*
X37870903Y-35954534D01*
X37843966Y-36035346D01*
X37843966Y-36089221D01*
X37870903Y-36170033D01*
X36227722Y-34690592D02*
X36146910Y-34717529D01*
X36066097Y-34798341D01*
X36012223Y-34906091D01*
X36012223Y-35013841D01*
X36039160Y-35094653D01*
X36119972Y-35229340D01*
X36200784Y-35310152D01*
X36335471Y-35390964D01*
X36416284Y-35417902D01*
X36524033Y-35417902D01*
X36631783Y-35364027D01*
X36685658Y-35310152D01*
X36739532Y-35202402D01*
X36739532Y-35148528D01*
X36550971Y-34959966D01*
X36443221Y-35067715D01*
X37035844Y-34959966D02*
X36470158Y-34394280D01*
X36685658Y-34178781D01*
X36766470Y-34151844D01*
X36820345Y-34151844D01*
X36901157Y-34178781D01*
X36981969Y-34259593D01*
X37008906Y-34340406D01*
X37008906Y-34394280D01*
X36981969Y-34475093D01*
X36766470Y-34690592D01*
X37062781Y-33909407D02*
X37062781Y-33855532D01*
X37089719Y-33774720D01*
X37224406Y-33640033D01*
X37305218Y-33613096D01*
X37359093Y-33613096D01*
X37439905Y-33640033D01*
X37493780Y-33693908D01*
X37547654Y-33801658D01*
X37547654Y-34448155D01*
X37897841Y-34097969D01*
X37520717Y-33343722D02*
X37897841Y-32966598D01*
X38221089Y-33774720D01*
X36227722Y-29346592D02*
X36146910Y-29373529D01*
X36066097Y-29454341D01*
X36012223Y-29562091D01*
X36012223Y-29669841D01*
X36039160Y-29750653D01*
X36119972Y-29885340D01*
X36200784Y-29966152D01*
X36335471Y-30046964D01*
X36416284Y-30073902D01*
X36524033Y-30073902D01*
X36631783Y-30020027D01*
X36685658Y-29966152D01*
X36739532Y-29858402D01*
X36739532Y-29804528D01*
X36550971Y-29615966D01*
X36443221Y-29723715D01*
X37035844Y-29615966D02*
X36470158Y-29050280D01*
X36685658Y-28834781D01*
X36766470Y-28807844D01*
X36820345Y-28807844D01*
X36901157Y-28834781D01*
X36981969Y-28915593D01*
X37008906Y-28996406D01*
X37008906Y-29050280D01*
X36981969Y-29131093D01*
X36766470Y-29346592D01*
X37062781Y-28565407D02*
X37062781Y-28511532D01*
X37089719Y-28430720D01*
X37224406Y-28296033D01*
X37305218Y-28269096D01*
X37359093Y-28269096D01*
X37439905Y-28296033D01*
X37493780Y-28349908D01*
X37547654Y-28457658D01*
X37547654Y-29104155D01*
X37897841Y-28753969D01*
X37897841Y-28107471D02*
X37817028Y-28134409D01*
X37763154Y-28134409D01*
X37682341Y-28107471D01*
X37655404Y-28080534D01*
X37628467Y-27999722D01*
X37628467Y-27945847D01*
X37655404Y-27865035D01*
X37763154Y-27757285D01*
X37843966Y-27730348D01*
X37897841Y-27730348D01*
X37978653Y-27757285D01*
X38005590Y-27784223D01*
X38032528Y-27865035D01*
X38032528Y-27918910D01*
X38005590Y-27999722D01*
X37897841Y-28107471D01*
X37870903Y-28188284D01*
X37870903Y-28242158D01*
X37897841Y-28322971D01*
X38005590Y-28430720D01*
X38086402Y-28457658D01*
X38140277Y-28457658D01*
X38221089Y-28430720D01*
X38328839Y-28322971D01*
X38355776Y-28242158D01*
X38355776Y-28188284D01*
X38328839Y-28107471D01*
X38221089Y-27999722D01*
X38140277Y-27972784D01*
X38086402Y-27972784D01*
X38005590Y-27999722D01*
X36284788Y-27633773D02*
X36554162Y-27364399D01*
X36392537Y-27849272D02*
X36015414Y-27095025D01*
X36769661Y-27472149D01*
X36958223Y-27283587D02*
X36392537Y-26717902D01*
X36527224Y-26583215D01*
X36634974Y-26529340D01*
X36742723Y-26529340D01*
X36823536Y-26556277D01*
X36958223Y-26637089D01*
X37039035Y-26717902D01*
X37119847Y-26852589D01*
X37146784Y-26933401D01*
X37146784Y-27041150D01*
X37092910Y-27148900D01*
X36958223Y-27283587D01*
X37793282Y-26340778D02*
X37793282Y-26394653D01*
X37739407Y-26502402D01*
X37685532Y-26556277D01*
X37577783Y-26610152D01*
X37470033Y-26610152D01*
X37389221Y-26583215D01*
X37254534Y-26502402D01*
X37173722Y-26421590D01*
X37092910Y-26286903D01*
X37065972Y-26206091D01*
X37065972Y-26098341D01*
X37119847Y-25990592D01*
X37173722Y-25936717D01*
X37281471Y-25882842D01*
X37335346Y-25882842D01*
X38008781Y-26340778D02*
X38439780Y-25909780D01*
X37874094Y-25236345D02*
X38628341Y-25613468D01*
X38251218Y-24859221D01*
X39328714Y-24913096D02*
X38870778Y-24832284D01*
X39005465Y-25236345D02*
X38439780Y-24670659D01*
X38655279Y-24455160D01*
X38736091Y-24428223D01*
X38789966Y-24428223D01*
X38870778Y-24455160D01*
X38951590Y-24535972D01*
X38978528Y-24616784D01*
X38978528Y-24670659D01*
X38951590Y-24751471D01*
X38736091Y-24966971D01*
X39274839Y-24374348D02*
X39463401Y-24185786D01*
X39840524Y-24401285D02*
X39571150Y-24670659D01*
X39005465Y-24104974D01*
X39274839Y-23835600D01*
X39975211Y-23673975D02*
X39786650Y-23862537D01*
X40082961Y-24158849D02*
X39517276Y-23593163D01*
X39786650Y-23323789D01*
X36019847Y-24590592D02*
X36370033Y-24240406D01*
X36396971Y-24644467D01*
X36477783Y-24563654D01*
X36558595Y-24536717D01*
X36612470Y-24536717D01*
X36693282Y-24563654D01*
X36827969Y-24698341D01*
X36854906Y-24779154D01*
X36854906Y-24833028D01*
X36827969Y-24913841D01*
X36666345Y-25075465D01*
X36585532Y-25102402D01*
X36531658Y-25102402D01*
X36531658Y-24078781D02*
X37285905Y-24455905D01*
X36908781Y-23701658D01*
X37043468Y-23566971D02*
X37393654Y-23216784D01*
X37420592Y-23620845D01*
X37501404Y-23540033D01*
X37582216Y-23513096D01*
X37636091Y-23513096D01*
X37716903Y-23540033D01*
X37851590Y-23674720D01*
X37878528Y-23755532D01*
X37878528Y-23809407D01*
X37851590Y-23890219D01*
X37689966Y-24051844D01*
X37609154Y-24078781D01*
X37555279Y-24078781D01*
X36052131Y-22058308D02*
X36402317Y-21708122D01*
X36429255Y-22112183D01*
X36510067Y-22031370D01*
X36590879Y-22004433D01*
X36644754Y-22004433D01*
X36725566Y-22031370D01*
X36860253Y-22166057D01*
X36887190Y-22246870D01*
X36887190Y-22300744D01*
X36860253Y-22381557D01*
X36698629Y-22543181D01*
X36617816Y-22570118D01*
X36563942Y-22570118D01*
X36563942Y-21546497D02*
X37318189Y-21923621D01*
X36941065Y-21169374D01*
X37075752Y-21034687D02*
X37425938Y-20684500D01*
X37452876Y-21088561D01*
X37533688Y-21007749D01*
X37614500Y-20980812D01*
X37668375Y-20980812D01*
X37749187Y-21007749D01*
X37883874Y-21142436D01*
X37910812Y-21223248D01*
X37910812Y-21277123D01*
X37883874Y-21357935D01*
X37722250Y-21519560D01*
X37641438Y-21546497D01*
X37587563Y-21546497D01*
X38153248Y-21196311D02*
X38584247Y-20765312D01*
X38368748Y-20280439D02*
X38557309Y-20091877D01*
X38934433Y-20307377D02*
X38665059Y-20576751D01*
X38099374Y-20011065D01*
X38368748Y-19741691D01*
X39176870Y-20064940D02*
X38611184Y-19499255D01*
X39500118Y-19741691D01*
X38934433Y-19176006D01*
X36050473Y-17169966D02*
X36804720Y-17547089D01*
X36427597Y-16792842D01*
X37127969Y-17169966D02*
X37235719Y-17116091D01*
X37370406Y-16981404D01*
X37397343Y-16900592D01*
X37397343Y-16846717D01*
X37370406Y-16765905D01*
X37316531Y-16712030D01*
X37235719Y-16685093D01*
X37181844Y-16685093D01*
X37101032Y-16712030D01*
X36966345Y-16792842D01*
X36885532Y-16819780D01*
X36831658Y-16819780D01*
X36750845Y-16792842D01*
X36696971Y-16738967D01*
X36670033Y-16658155D01*
X36670033Y-16604280D01*
X36696971Y-16523468D01*
X36831658Y-16388781D01*
X36939407Y-16334906D01*
X37558967Y-16254094D02*
X37828341Y-16523468D01*
X37074094Y-16146345D02*
X37558967Y-16254094D01*
X37451218Y-15769221D01*
X38151590Y-16146345D02*
X38259340Y-16092470D01*
X38394027Y-15957783D01*
X38420964Y-15876971D01*
X38420964Y-15823096D01*
X38394027Y-15742284D01*
X38340152Y-15688409D01*
X38259340Y-15661471D01*
X38205465Y-15661471D01*
X38124653Y-15688409D01*
X37989966Y-15769221D01*
X37909154Y-15796158D01*
X37855279Y-15796158D01*
X37774467Y-15769221D01*
X37720592Y-15715346D01*
X37693654Y-15634534D01*
X37693654Y-15580659D01*
X37720592Y-15499847D01*
X37855279Y-15365160D01*
X37963028Y-15311285D01*
X36083129Y-14627309D02*
X36837377Y-15004433D01*
X36460253Y-14250186D01*
X37106751Y-14142436D02*
X37214500Y-14088561D01*
X37268375Y-14088561D01*
X37349187Y-14115499D01*
X37430000Y-14196311D01*
X37456937Y-14277123D01*
X37456937Y-14330998D01*
X37430000Y-14411810D01*
X37214500Y-14627309D01*
X36648815Y-14061624D01*
X36837377Y-13873062D01*
X36918189Y-13846125D01*
X36972064Y-13846125D01*
X37052876Y-13873062D01*
X37106751Y-13926937D01*
X37133688Y-14007749D01*
X37133688Y-14061624D01*
X37106751Y-14142436D01*
X36918189Y-14330998D01*
X37214500Y-13495938D02*
X37672436Y-13953874D01*
X37753248Y-13980812D01*
X37807123Y-13980812D01*
X37887935Y-13953874D01*
X37995685Y-13846125D01*
X38022622Y-13765312D01*
X38022622Y-13711438D01*
X37995685Y-13630625D01*
X37537749Y-13172690D01*
X38318934Y-13469001D02*
X38426683Y-13415126D01*
X38561370Y-13280439D01*
X38588308Y-13199627D01*
X38588308Y-13145752D01*
X38561370Y-13064940D01*
X38507496Y-13011065D01*
X38426683Y-12984128D01*
X38372809Y-12984128D01*
X38291996Y-13011065D01*
X38157309Y-13091877D01*
X38076497Y-13118815D01*
X38022622Y-13118815D01*
X37941810Y-13091877D01*
X37887935Y-13038003D01*
X37860998Y-12957190D01*
X37860998Y-12903316D01*
X37887935Y-12822503D01*
X38022622Y-12687816D01*
X38130372Y-12633942D01*
X10616158Y-19198155D02*
X10535346Y-19225093D01*
X10454534Y-19305905D01*
X10400659Y-19413654D01*
X10400659Y-19521404D01*
X10427597Y-19602216D01*
X10508409Y-19736903D01*
X10589221Y-19817715D01*
X10723908Y-19898528D01*
X10804720Y-19925465D01*
X10912470Y-19925465D01*
X11020219Y-19871590D01*
X11074094Y-19817715D01*
X11127969Y-19709966D01*
X11127969Y-19656091D01*
X10939407Y-19467529D01*
X10831658Y-19575279D01*
X11424280Y-19467529D02*
X10858595Y-18901844D01*
X11747529Y-19144280D01*
X11181844Y-18578595D01*
X12016903Y-18874906D02*
X11451218Y-18309221D01*
X11585905Y-18174534D01*
X11693654Y-18120659D01*
X11801404Y-18120659D01*
X11882216Y-18147597D01*
X12016903Y-18228409D01*
X12097715Y-18309221D01*
X12178528Y-18443908D01*
X12205465Y-18524720D01*
X12205465Y-18632470D01*
X12151590Y-18740219D01*
X12016903Y-18874906D01*
X10616158Y-31898155D02*
X10535346Y-31925093D01*
X10454534Y-32005905D01*
X10400659Y-32113654D01*
X10400659Y-32221404D01*
X10427597Y-32302216D01*
X10508409Y-32436903D01*
X10589221Y-32517715D01*
X10723908Y-32598528D01*
X10804720Y-32625465D01*
X10912470Y-32625465D01*
X11020219Y-32571590D01*
X11074094Y-32517715D01*
X11127969Y-32409966D01*
X11127969Y-32356091D01*
X10939407Y-32167529D01*
X10831658Y-32275279D01*
X11424280Y-32167529D02*
X10858595Y-31601844D01*
X11747529Y-31844280D01*
X11181844Y-31278595D01*
X12016903Y-31574906D02*
X11451218Y-31009221D01*
X11585905Y-30874534D01*
X11693654Y-30820659D01*
X11801404Y-30820659D01*
X11882216Y-30847597D01*
X12016903Y-30928409D01*
X12097715Y-31009221D01*
X12178528Y-31143908D01*
X12205465Y-31224720D01*
X12205465Y-31332470D01*
X12151590Y-31440219D01*
X12016903Y-31574906D01*
X10616158Y-44598155D02*
X10535346Y-44625093D01*
X10454534Y-44705905D01*
X10400659Y-44813654D01*
X10400659Y-44921404D01*
X10427597Y-45002216D01*
X10508409Y-45136903D01*
X10589221Y-45217715D01*
X10723908Y-45298528D01*
X10804720Y-45325465D01*
X10912470Y-45325465D01*
X11020219Y-45271590D01*
X11074094Y-45217715D01*
X11127969Y-45109966D01*
X11127969Y-45056091D01*
X10939407Y-44867529D01*
X10831658Y-44975279D01*
X11424280Y-44867529D02*
X10858595Y-44301844D01*
X11747529Y-44544280D01*
X11181844Y-43978595D01*
X12016903Y-44274906D02*
X11451218Y-43709221D01*
X11585905Y-43574534D01*
X11693654Y-43520659D01*
X11801404Y-43520659D01*
X11882216Y-43547597D01*
X12016903Y-43628409D01*
X12097715Y-43709221D01*
X12178528Y-43843908D01*
X12205465Y-43924720D01*
X12205465Y-44032470D01*
X12151590Y-44140219D01*
X12016903Y-44274906D01*
X10616158Y-57298155D02*
X10535346Y-57325093D01*
X10454534Y-57405905D01*
X10400659Y-57513654D01*
X10400659Y-57621404D01*
X10427597Y-57702216D01*
X10508409Y-57836903D01*
X10589221Y-57917715D01*
X10723908Y-57998528D01*
X10804720Y-58025465D01*
X10912470Y-58025465D01*
X11020219Y-57971590D01*
X11074094Y-57917715D01*
X11127969Y-57809966D01*
X11127969Y-57756091D01*
X10939407Y-57567529D01*
X10831658Y-57675279D01*
X11424280Y-57567529D02*
X10858595Y-57001844D01*
X11747529Y-57244280D01*
X11181844Y-56678595D01*
X12016903Y-56974906D02*
X11451218Y-56409221D01*
X11585905Y-56274534D01*
X11693654Y-56220659D01*
X11801404Y-56220659D01*
X11882216Y-56247597D01*
X12016903Y-56328409D01*
X12097715Y-56409221D01*
X12178528Y-56543908D01*
X12205465Y-56624720D01*
X12205465Y-56732470D01*
X12151590Y-56840219D01*
X12016903Y-56974906D01*
X36216158Y-57298155D02*
X36135346Y-57325093D01*
X36054534Y-57405905D01*
X36000659Y-57513654D01*
X36000659Y-57621404D01*
X36027597Y-57702216D01*
X36108409Y-57836903D01*
X36189221Y-57917715D01*
X36323908Y-57998528D01*
X36404720Y-58025465D01*
X36512470Y-58025465D01*
X36620219Y-57971590D01*
X36674094Y-57917715D01*
X36727969Y-57809966D01*
X36727969Y-57756091D01*
X36539407Y-57567529D01*
X36431658Y-57675279D01*
X37024280Y-57567529D02*
X36458595Y-57001844D01*
X37347529Y-57244280D01*
X36781844Y-56678595D01*
X37616903Y-56974906D02*
X37051218Y-56409221D01*
X37185905Y-56274534D01*
X37293654Y-56220659D01*
X37401404Y-56220659D01*
X37482216Y-56247597D01*
X37616903Y-56328409D01*
X37697715Y-56409221D01*
X37778528Y-56543908D01*
X37805465Y-56624720D01*
X37805465Y-56732470D01*
X37751590Y-56840219D01*
X37616903Y-56974906D01*
X36216158Y-44598155D02*
X36135346Y-44625093D01*
X36054534Y-44705905D01*
X36000659Y-44813654D01*
X36000659Y-44921404D01*
X36027597Y-45002216D01*
X36108409Y-45136903D01*
X36189221Y-45217715D01*
X36323908Y-45298528D01*
X36404720Y-45325465D01*
X36512470Y-45325465D01*
X36620219Y-45271590D01*
X36674094Y-45217715D01*
X36727969Y-45109966D01*
X36727969Y-45056091D01*
X36539407Y-44867529D01*
X36431658Y-44975279D01*
X37024280Y-44867529D02*
X36458595Y-44301844D01*
X37347529Y-44544280D01*
X36781844Y-43978595D01*
X37616903Y-44274906D02*
X37051218Y-43709221D01*
X37185905Y-43574534D01*
X37293654Y-43520659D01*
X37401404Y-43520659D01*
X37482216Y-43547597D01*
X37616903Y-43628409D01*
X37697715Y-43709221D01*
X37778528Y-43843908D01*
X37805465Y-43924720D01*
X37805465Y-44032470D01*
X37751590Y-44140219D01*
X37616903Y-44274906D01*
X36216158Y-19198155D02*
X36135346Y-19225093D01*
X36054534Y-19305905D01*
X36000659Y-19413654D01*
X36000659Y-19521404D01*
X36027597Y-19602216D01*
X36108409Y-19736903D01*
X36189221Y-19817715D01*
X36323908Y-19898528D01*
X36404720Y-19925465D01*
X36512470Y-19925465D01*
X36620219Y-19871590D01*
X36674094Y-19817715D01*
X36727969Y-19709966D01*
X36727969Y-19656091D01*
X36539407Y-19467529D01*
X36431658Y-19575279D01*
X37024280Y-19467529D02*
X36458595Y-18901844D01*
X37347529Y-19144280D01*
X36781844Y-18578595D01*
X37616903Y-18874906D02*
X37051218Y-18309221D01*
X37185905Y-18174534D01*
X37293654Y-18120659D01*
X37401404Y-18120659D01*
X37482216Y-18147597D01*
X37616903Y-18228409D01*
X37697715Y-18309221D01*
X37778528Y-18443908D01*
X37805465Y-18524720D01*
X37805465Y-18632470D01*
X37751590Y-18740219D01*
X37616903Y-18874906D01*
X36281597Y-32840964D02*
X36550971Y-32571590D01*
X36389346Y-33056463D02*
X36012223Y-32302216D01*
X36766470Y-32679340D01*
X36712595Y-31655719D02*
X36631783Y-31682656D01*
X36550971Y-31763468D01*
X36497096Y-31871218D01*
X36497096Y-31978967D01*
X36524033Y-32059780D01*
X36604845Y-32194467D01*
X36685658Y-32275279D01*
X36820345Y-32356091D01*
X36901157Y-32383028D01*
X37008906Y-32383028D01*
X37116656Y-32329154D01*
X37170531Y-32275279D01*
X37224406Y-32167529D01*
X37224406Y-32113654D01*
X37035844Y-31925093D01*
X36928094Y-32032842D01*
X37520717Y-31925093D02*
X36955032Y-31359407D01*
X37843966Y-31601844D01*
X37278280Y-31036158D01*
X38113340Y-31332470D02*
X37547654Y-30766784D01*
X37682341Y-30632097D01*
X37790091Y-30578223D01*
X37897841Y-30578223D01*
X37978653Y-30605160D01*
X38113340Y-30685972D01*
X38194152Y-30766784D01*
X38274964Y-30901471D01*
X38301902Y-30982284D01*
X38301902Y-31090033D01*
X38248027Y-31197783D01*
X38113340Y-31332470D01*
X16620476Y-64623809D02*
X16734761Y-64661904D01*
X16925238Y-64661904D01*
X17001428Y-64623809D01*
X17039523Y-64585714D01*
X17077619Y-64509523D01*
X17077619Y-64433333D01*
X17039523Y-64357142D01*
X17001428Y-64319047D01*
X16925238Y-64280952D01*
X16772857Y-64242857D01*
X16696666Y-64204761D01*
X16658571Y-64166666D01*
X16620476Y-64090476D01*
X16620476Y-64014285D01*
X16658571Y-63938095D01*
X16696666Y-63900000D01*
X16772857Y-63861904D01*
X16963333Y-63861904D01*
X17077619Y-63900000D01*
X17344285Y-63861904D02*
X17534761Y-64661904D01*
X17687142Y-64090476D01*
X17839523Y-64661904D01*
X18030000Y-63861904D01*
X18791904Y-64585714D02*
X18753809Y-64623809D01*
X18639523Y-64661904D01*
X18563333Y-64661904D01*
X18449047Y-64623809D01*
X18372857Y-64547619D01*
X18334761Y-64471428D01*
X18296666Y-64319047D01*
X18296666Y-64204761D01*
X18334761Y-64052380D01*
X18372857Y-63976190D01*
X18449047Y-63900000D01*
X18563333Y-63861904D01*
X18639523Y-63861904D01*
X18753809Y-63900000D01*
X18791904Y-63938095D01*
X19515714Y-64661904D02*
X19134761Y-64661904D01*
X19134761Y-63861904D01*
X19782380Y-64661904D02*
X19782380Y-63861904D01*
X20239523Y-64661904D02*
X19896666Y-64204761D01*
X20239523Y-63861904D02*
X19782380Y-64319047D01*
X28034761Y-64623809D02*
X28149047Y-64661904D01*
X28339523Y-64661904D01*
X28415714Y-64623809D01*
X28453809Y-64585714D01*
X28491904Y-64509523D01*
X28491904Y-64433333D01*
X28453809Y-64357142D01*
X28415714Y-64319047D01*
X28339523Y-64280952D01*
X28187142Y-64242857D01*
X28110952Y-64204761D01*
X28072857Y-64166666D01*
X28034761Y-64090476D01*
X28034761Y-64014285D01*
X28072857Y-63938095D01*
X28110952Y-63900000D01*
X28187142Y-63861904D01*
X28377619Y-63861904D01*
X28491904Y-63900000D01*
X28758571Y-63861904D02*
X28949047Y-64661904D01*
X29101428Y-64090476D01*
X29253809Y-64661904D01*
X29444285Y-63861904D01*
X29749047Y-64661904D02*
X29749047Y-63861904D01*
X29939523Y-63861904D01*
X30053809Y-63900000D01*
X30130000Y-63976190D01*
X30168095Y-64052380D01*
X30206190Y-64204761D01*
X30206190Y-64319047D01*
X30168095Y-64471428D01*
X30130000Y-64547619D01*
X30053809Y-64623809D01*
X29939523Y-64661904D01*
X29749047Y-64661904D01*
X30549047Y-64661904D02*
X30549047Y-63861904D01*
X31082380Y-63861904D02*
X31234761Y-63861904D01*
X31310952Y-63900000D01*
X31387142Y-63976190D01*
X31425238Y-64128571D01*
X31425238Y-64395238D01*
X31387142Y-64547619D01*
X31310952Y-64623809D01*
X31234761Y-64661904D01*
X31082380Y-64661904D01*
X31006190Y-64623809D01*
X30930000Y-64547619D01*
X30891904Y-64395238D01*
X30891904Y-64128571D01*
X30930000Y-63976190D01*
X31006190Y-63900000D01*
X31082380Y-63861904D01*
%TO.C,SW9*%
X79386666Y-166044761D02*
X79529523Y-166092380D01*
X79767619Y-166092380D01*
X79862857Y-166044761D01*
X79910476Y-165997142D01*
X79958095Y-165901904D01*
X79958095Y-165806666D01*
X79910476Y-165711428D01*
X79862857Y-165663809D01*
X79767619Y-165616190D01*
X79577142Y-165568571D01*
X79481904Y-165520952D01*
X79434285Y-165473333D01*
X79386666Y-165378095D01*
X79386666Y-165282857D01*
X79434285Y-165187619D01*
X79481904Y-165140000D01*
X79577142Y-165092380D01*
X79815238Y-165092380D01*
X79958095Y-165140000D01*
X80291428Y-165092380D02*
X80529523Y-166092380D01*
X80720000Y-165378095D01*
X80910476Y-166092380D01*
X81148571Y-165092380D01*
X81577142Y-166092380D02*
X81767619Y-166092380D01*
X81862857Y-166044761D01*
X81910476Y-165997142D01*
X82005714Y-165854285D01*
X82053333Y-165663809D01*
X82053333Y-165282857D01*
X82005714Y-165187619D01*
X81958095Y-165140000D01*
X81862857Y-165092380D01*
X81672380Y-165092380D01*
X81577142Y-165140000D01*
X81529523Y-165187619D01*
X81481904Y-165282857D01*
X81481904Y-165520952D01*
X81529523Y-165616190D01*
X81577142Y-165663809D01*
X81672380Y-165711428D01*
X81862857Y-165711428D01*
X81958095Y-165663809D01*
X82005714Y-165616190D01*
X82053333Y-165520952D01*
%TO.C,SW8*%
X79386666Y-154614761D02*
X79529523Y-154662380D01*
X79767619Y-154662380D01*
X79862857Y-154614761D01*
X79910476Y-154567142D01*
X79958095Y-154471904D01*
X79958095Y-154376666D01*
X79910476Y-154281428D01*
X79862857Y-154233809D01*
X79767619Y-154186190D01*
X79577142Y-154138571D01*
X79481904Y-154090952D01*
X79434285Y-154043333D01*
X79386666Y-153948095D01*
X79386666Y-153852857D01*
X79434285Y-153757619D01*
X79481904Y-153710000D01*
X79577142Y-153662380D01*
X79815238Y-153662380D01*
X79958095Y-153710000D01*
X80291428Y-153662380D02*
X80529523Y-154662380D01*
X80720000Y-153948095D01*
X80910476Y-154662380D01*
X81148571Y-153662380D01*
X81672380Y-154090952D02*
X81577142Y-154043333D01*
X81529523Y-153995714D01*
X81481904Y-153900476D01*
X81481904Y-153852857D01*
X81529523Y-153757619D01*
X81577142Y-153710000D01*
X81672380Y-153662380D01*
X81862857Y-153662380D01*
X81958095Y-153710000D01*
X82005714Y-153757619D01*
X82053333Y-153852857D01*
X82053333Y-153900476D01*
X82005714Y-153995714D01*
X81958095Y-154043333D01*
X81862857Y-154090952D01*
X81672380Y-154090952D01*
X81577142Y-154138571D01*
X81529523Y-154186190D01*
X81481904Y-154281428D01*
X81481904Y-154471904D01*
X81529523Y-154567142D01*
X81577142Y-154614761D01*
X81672380Y-154662380D01*
X81862857Y-154662380D01*
X81958095Y-154614761D01*
X82005714Y-154567142D01*
X82053333Y-154471904D01*
X82053333Y-154281428D01*
X82005714Y-154186190D01*
X81958095Y-154138571D01*
X81862857Y-154090952D01*
%TO.C,SW7*%
X79386666Y-143184761D02*
X79529523Y-143232380D01*
X79767619Y-143232380D01*
X79862857Y-143184761D01*
X79910476Y-143137142D01*
X79958095Y-143041904D01*
X79958095Y-142946666D01*
X79910476Y-142851428D01*
X79862857Y-142803809D01*
X79767619Y-142756190D01*
X79577142Y-142708571D01*
X79481904Y-142660952D01*
X79434285Y-142613333D01*
X79386666Y-142518095D01*
X79386666Y-142422857D01*
X79434285Y-142327619D01*
X79481904Y-142280000D01*
X79577142Y-142232380D01*
X79815238Y-142232380D01*
X79958095Y-142280000D01*
X80291428Y-142232380D02*
X80529523Y-143232380D01*
X80720000Y-142518095D01*
X80910476Y-143232380D01*
X81148571Y-142232380D01*
X81434285Y-142232380D02*
X82100952Y-142232380D01*
X81672380Y-143232380D01*
%TO.C,SW6*%
X66686666Y-166044761D02*
X66829523Y-166092380D01*
X67067619Y-166092380D01*
X67162857Y-166044761D01*
X67210476Y-165997142D01*
X67258095Y-165901904D01*
X67258095Y-165806666D01*
X67210476Y-165711428D01*
X67162857Y-165663809D01*
X67067619Y-165616190D01*
X66877142Y-165568571D01*
X66781904Y-165520952D01*
X66734285Y-165473333D01*
X66686666Y-165378095D01*
X66686666Y-165282857D01*
X66734285Y-165187619D01*
X66781904Y-165140000D01*
X66877142Y-165092380D01*
X67115238Y-165092380D01*
X67258095Y-165140000D01*
X67591428Y-165092380D02*
X67829523Y-166092380D01*
X68020000Y-165378095D01*
X68210476Y-166092380D01*
X68448571Y-165092380D01*
X69258095Y-165092380D02*
X69067619Y-165092380D01*
X68972380Y-165140000D01*
X68924761Y-165187619D01*
X68829523Y-165330476D01*
X68781904Y-165520952D01*
X68781904Y-165901904D01*
X68829523Y-165997142D01*
X68877142Y-166044761D01*
X68972380Y-166092380D01*
X69162857Y-166092380D01*
X69258095Y-166044761D01*
X69305714Y-165997142D01*
X69353333Y-165901904D01*
X69353333Y-165663809D01*
X69305714Y-165568571D01*
X69258095Y-165520952D01*
X69162857Y-165473333D01*
X68972380Y-165473333D01*
X68877142Y-165520952D01*
X68829523Y-165568571D01*
X68781904Y-165663809D01*
%TO.C,SW5*%
X66686666Y-154614761D02*
X66829523Y-154662380D01*
X67067619Y-154662380D01*
X67162857Y-154614761D01*
X67210476Y-154567142D01*
X67258095Y-154471904D01*
X67258095Y-154376666D01*
X67210476Y-154281428D01*
X67162857Y-154233809D01*
X67067619Y-154186190D01*
X66877142Y-154138571D01*
X66781904Y-154090952D01*
X66734285Y-154043333D01*
X66686666Y-153948095D01*
X66686666Y-153852857D01*
X66734285Y-153757619D01*
X66781904Y-153710000D01*
X66877142Y-153662380D01*
X67115238Y-153662380D01*
X67258095Y-153710000D01*
X67591428Y-153662380D02*
X67829523Y-154662380D01*
X68020000Y-153948095D01*
X68210476Y-154662380D01*
X68448571Y-153662380D01*
X69305714Y-153662380D02*
X68829523Y-153662380D01*
X68781904Y-154138571D01*
X68829523Y-154090952D01*
X68924761Y-154043333D01*
X69162857Y-154043333D01*
X69258095Y-154090952D01*
X69305714Y-154138571D01*
X69353333Y-154233809D01*
X69353333Y-154471904D01*
X69305714Y-154567142D01*
X69258095Y-154614761D01*
X69162857Y-154662380D01*
X68924761Y-154662380D01*
X68829523Y-154614761D01*
X68781904Y-154567142D01*
%TO.C,SW4*%
X66686666Y-143184761D02*
X66829523Y-143232380D01*
X67067619Y-143232380D01*
X67162857Y-143184761D01*
X67210476Y-143137142D01*
X67258095Y-143041904D01*
X67258095Y-142946666D01*
X67210476Y-142851428D01*
X67162857Y-142803809D01*
X67067619Y-142756190D01*
X66877142Y-142708571D01*
X66781904Y-142660952D01*
X66734285Y-142613333D01*
X66686666Y-142518095D01*
X66686666Y-142422857D01*
X66734285Y-142327619D01*
X66781904Y-142280000D01*
X66877142Y-142232380D01*
X67115238Y-142232380D01*
X67258095Y-142280000D01*
X67591428Y-142232380D02*
X67829523Y-143232380D01*
X68020000Y-142518095D01*
X68210476Y-143232380D01*
X68448571Y-142232380D01*
X69258095Y-142565714D02*
X69258095Y-143232380D01*
X69020000Y-142184761D02*
X68781904Y-142899047D01*
X69400952Y-142899047D01*
%TO.C,SW3*%
X53986666Y-166044761D02*
X54129523Y-166092380D01*
X54367619Y-166092380D01*
X54462857Y-166044761D01*
X54510476Y-165997142D01*
X54558095Y-165901904D01*
X54558095Y-165806666D01*
X54510476Y-165711428D01*
X54462857Y-165663809D01*
X54367619Y-165616190D01*
X54177142Y-165568571D01*
X54081904Y-165520952D01*
X54034285Y-165473333D01*
X53986666Y-165378095D01*
X53986666Y-165282857D01*
X54034285Y-165187619D01*
X54081904Y-165140000D01*
X54177142Y-165092380D01*
X54415238Y-165092380D01*
X54558095Y-165140000D01*
X54891428Y-165092380D02*
X55129523Y-166092380D01*
X55320000Y-165378095D01*
X55510476Y-166092380D01*
X55748571Y-165092380D01*
X56034285Y-165092380D02*
X56653333Y-165092380D01*
X56320000Y-165473333D01*
X56462857Y-165473333D01*
X56558095Y-165520952D01*
X56605714Y-165568571D01*
X56653333Y-165663809D01*
X56653333Y-165901904D01*
X56605714Y-165997142D01*
X56558095Y-166044761D01*
X56462857Y-166092380D01*
X56177142Y-166092380D01*
X56081904Y-166044761D01*
X56034285Y-165997142D01*
%TO.C,SW2*%
X53986666Y-154614761D02*
X54129523Y-154662380D01*
X54367619Y-154662380D01*
X54462857Y-154614761D01*
X54510476Y-154567142D01*
X54558095Y-154471904D01*
X54558095Y-154376666D01*
X54510476Y-154281428D01*
X54462857Y-154233809D01*
X54367619Y-154186190D01*
X54177142Y-154138571D01*
X54081904Y-154090952D01*
X54034285Y-154043333D01*
X53986666Y-153948095D01*
X53986666Y-153852857D01*
X54034285Y-153757619D01*
X54081904Y-153710000D01*
X54177142Y-153662380D01*
X54415238Y-153662380D01*
X54558095Y-153710000D01*
X54891428Y-153662380D02*
X55129523Y-154662380D01*
X55320000Y-153948095D01*
X55510476Y-154662380D01*
X55748571Y-153662380D01*
X56081904Y-153757619D02*
X56129523Y-153710000D01*
X56224761Y-153662380D01*
X56462857Y-153662380D01*
X56558095Y-153710000D01*
X56605714Y-153757619D01*
X56653333Y-153852857D01*
X56653333Y-153948095D01*
X56605714Y-154090952D01*
X56034285Y-154662380D01*
X56653333Y-154662380D01*
%TO.C,SW1*%
X53986666Y-143184761D02*
X54129523Y-143232380D01*
X54367619Y-143232380D01*
X54462857Y-143184761D01*
X54510476Y-143137142D01*
X54558095Y-143041904D01*
X54558095Y-142946666D01*
X54510476Y-142851428D01*
X54462857Y-142803809D01*
X54367619Y-142756190D01*
X54177142Y-142708571D01*
X54081904Y-142660952D01*
X54034285Y-142613333D01*
X53986666Y-142518095D01*
X53986666Y-142422857D01*
X54034285Y-142327619D01*
X54081904Y-142280000D01*
X54177142Y-142232380D01*
X54415238Y-142232380D01*
X54558095Y-142280000D01*
X54891428Y-142232380D02*
X55129523Y-143232380D01*
X55320000Y-142518095D01*
X55510476Y-143232380D01*
X55748571Y-142232380D01*
X56653333Y-143232380D02*
X56081904Y-143232380D01*
X56367619Y-143232380D02*
X56367619Y-142232380D01*
X56272380Y-142375238D01*
X56177142Y-142470476D01*
X56081904Y-142518095D01*
%TO.C,RV2*%
X64164761Y-176792380D02*
X63831428Y-176316190D01*
X63593333Y-176792380D02*
X63593333Y-175792380D01*
X63974285Y-175792380D01*
X64069523Y-175840000D01*
X64117142Y-175887619D01*
X64164761Y-175982857D01*
X64164761Y-176125714D01*
X64117142Y-176220952D01*
X64069523Y-176268571D01*
X63974285Y-176316190D01*
X63593333Y-176316190D01*
X64450476Y-175792380D02*
X64783809Y-176792380D01*
X65117142Y-175792380D01*
X65402857Y-175887619D02*
X65450476Y-175840000D01*
X65545714Y-175792380D01*
X65783809Y-175792380D01*
X65879047Y-175840000D01*
X65926666Y-175887619D01*
X65974285Y-175982857D01*
X65974285Y-176078095D01*
X65926666Y-176220952D01*
X65355238Y-176792380D01*
X65974285Y-176792380D01*
%TO.C,RV1*%
X64164761Y-12962380D02*
X63831428Y-12486190D01*
X63593333Y-12962380D02*
X63593333Y-11962380D01*
X63974285Y-11962380D01*
X64069523Y-12010000D01*
X64117142Y-12057619D01*
X64164761Y-12152857D01*
X64164761Y-12295714D01*
X64117142Y-12390952D01*
X64069523Y-12438571D01*
X63974285Y-12486190D01*
X63593333Y-12486190D01*
X64450476Y-11962380D02*
X64783809Y-12962380D01*
X65117142Y-11962380D01*
X65974285Y-12962380D02*
X65402857Y-12962380D01*
X65688571Y-12962380D02*
X65688571Y-11962380D01*
X65593333Y-12105238D01*
X65498095Y-12200476D01*
X65402857Y-12248095D01*
%TO.C,RN1*%
X47302380Y-158170476D02*
X46826190Y-158503809D01*
X47302380Y-158741904D02*
X46302380Y-158741904D01*
X46302380Y-158360952D01*
X46350000Y-158265714D01*
X46397619Y-158218095D01*
X46492857Y-158170476D01*
X46635714Y-158170476D01*
X46730952Y-158218095D01*
X46778571Y-158265714D01*
X46826190Y-158360952D01*
X46826190Y-158741904D01*
X47302380Y-157741904D02*
X46302380Y-157741904D01*
X47302380Y-157170476D01*
X46302380Y-157170476D01*
X47302380Y-156170476D02*
X47302380Y-156741904D01*
X47302380Y-156456190D02*
X46302380Y-156456190D01*
X46445238Y-156551428D01*
X46540476Y-156646666D01*
X46588095Y-156741904D01*
%TO.C,LS1*%
X13572380Y-151782857D02*
X13572380Y-152259047D01*
X12572380Y-152259047D01*
X13524761Y-151497142D02*
X13572380Y-151354285D01*
X13572380Y-151116190D01*
X13524761Y-151020952D01*
X13477142Y-150973333D01*
X13381904Y-150925714D01*
X13286666Y-150925714D01*
X13191428Y-150973333D01*
X13143809Y-151020952D01*
X13096190Y-151116190D01*
X13048571Y-151306666D01*
X13000952Y-151401904D01*
X12953333Y-151449523D01*
X12858095Y-151497142D01*
X12762857Y-151497142D01*
X12667619Y-151449523D01*
X12620000Y-151401904D01*
X12572380Y-151306666D01*
X12572380Y-151068571D01*
X12620000Y-150925714D01*
X13572380Y-149973333D02*
X13572380Y-150544761D01*
X13572380Y-150259047D02*
X12572380Y-150259047D01*
X12715238Y-150354285D01*
X12810476Y-150449523D01*
X12858095Y-150544761D01*
X17851428Y-155330952D02*
X17851428Y-154569047D01*
X18232380Y-154950000D02*
X17470476Y-154950000D01*
%TO.C,J1*%
X27352380Y-76533333D02*
X28066666Y-76533333D01*
X28209523Y-76580952D01*
X28304761Y-76676190D01*
X28352380Y-76819047D01*
X28352380Y-76914285D01*
X28352380Y-75533333D02*
X28352380Y-76104761D01*
X28352380Y-75819047D02*
X27352380Y-75819047D01*
X27495238Y-75914285D01*
X27590476Y-76009523D01*
X27638095Y-76104761D01*
%TO.C,D1*%
X34672380Y-76938095D02*
X33672380Y-76938095D01*
X33672380Y-76700000D01*
X33720000Y-76557142D01*
X33815238Y-76461904D01*
X33910476Y-76414285D01*
X34100952Y-76366666D01*
X34243809Y-76366666D01*
X34434285Y-76414285D01*
X34529523Y-76461904D01*
X34624761Y-76557142D01*
X34672380Y-76700000D01*
X34672380Y-76938095D01*
X34672380Y-75414285D02*
X34672380Y-75985714D01*
X34672380Y-75700000D02*
X33672380Y-75700000D01*
X33815238Y-75795238D01*
X33910476Y-75890476D01*
X33958095Y-75985714D01*
X34302380Y-72651904D02*
X33302380Y-72651904D01*
X34302380Y-72080476D02*
X33730952Y-72509047D01*
X33302380Y-72080476D02*
X33873809Y-72651904D01*
%TD*%
M02*
