  0
SECTION
  2
HEADER
  9
$ACADVER
  1
AC1006
  9
$EXTMIN
 10
0.000000
 20
0.000000
 30
0.000000
  9
$EXTMAX
 10
271.000000
 20
118.000000
 30
0.000000
  0
ENDSEC
  0
SECTION
  2
ENTITIES
  0
POLYLINE
  8
0
 66
1
 70
1
  0
VERTEX
  8
0
 10
138.165676
 20
94.466105
 42
0.047420
  0
VERTEX
  8
0
 10
130.416895
 20
91.996695
 42
0.068012
  0
VERTEX
  8
0
 10
124.239878
 20
88.301620
 42
0.067681
  0
VERTEX
  8
0
 10
119.259661
 20
83.069465
 42
0.046425
  0
VERTEX
  8
0
 10
115.090959
 20
76.000000
 42
0.023387
  0
VERTEX
  8
0
 10
113.765280
 20
72.804475
 42
0.040032
  0
VERTEX
  8
0
 10
113.005611
 20
70.021303
 42
0.034702
  0
VERTEX
  8
0
 10
112.637398
 20
66.890252
 42
0.013262
  0
VERTEX
  8
0
 10
112.544469
 20
62.500000
 42
0.013057
  0
VERTEX
  8
0
 10
112.650509
 20
59.131861
 42
0.011497
  0
VERTEX
  8
0
 10
112.933517
 20
55.627241
 42
0.011629
  0
VERTEX
  8
0
 10
113.335097
 20
52.477902
 42
0.033841
  0
VERTEX
  8
0
 10
113.808678
 20
50.337418
 42
0.071470
  0
VERTEX
  8
0
 10
116.923966
 20
43.510379
 42
0.053818
  0
VERTEX
  8
0
 10
122.107616
 20
37.078191
 42
0.053890
  0
VERTEX
  8
0
 10
128.535164
 20
31.909510
 42
0.072264
  0
VERTEX
  8
0
 10
135.337418
 20
28.828392
 42
0.052733
  0
VERTEX
  8
0
 10
141.156117
 20
27.795615
 42
0.025132
  0
VERTEX
  8
0
 10
148.765721
 20
27.643078
 42
0.025118
  0
VERTEX
  8
0
 10
156.331534
 20
28.252959
 42
0.054221
  0
VERTEX
  8
0
 10
162.000000
 20
29.634116
 42
0.000000
  0
VERTEX
  8
0
 10
167.500000
 20
31.625182
 42
0.000000
  0
VERTEX
  8
0
 10
167.790776
 20
38.662303
 42
0.000000
  0
VERTEX
  8
0
 10
168.081552
 20
45.699425
 42
0.000000
  0
VERTEX
  8
0
 10
162.034725
 20
42.702338
 42
-0.037210
  0
VERTEX
  8
0
 10
156.782194
 20
40.569173
 42
-0.043428
  0
VERTEX
  8
0
 10
151.534560
 20
39.370413
 42
-0.048027
  0
VERTEX
  8
0
 10
146.716503
 20
39.168884
 42
-0.080263
  0
VERTEX
  8
0
 10
142.761579
 20
40.029888
 42
-0.064822
  0
VERTEX
  8
0
 10
139.181076
 20
42.004592
 42
-0.039762
  0
VERTEX
  8
0
 10
135.530317
 20
45.161310
 42
-0.040150
  0
VERTEX
  8
0
 10
132.530634
 20
48.736384
 42
-0.086936
  0
VERTEX
  8
0
 10
130.993210
 20
51.965024
 42
-0.049680
  0
VERTEX
  8
0
 10
130.148122
 20
56.838475
 42
-0.029242
  0
VERTEX
  8
0
 10
130.065557
 20
62.755720
 42
-0.029304
  0
VERTEX
  8
0
 10
130.656305
 20
68.464887
 42
-0.066241
  0
VERTEX
  8
0
 10
131.913116
 20
72.616088
 42
-0.039824
  0
VERTEX
  8
0
 10
132.902368
 20
74.401869
 42
-0.023480
  0
VERTEX
  8
0
 10
134.344876
 20
76.370224
 42
-0.023392
  0
VERTEX
  8
0
 10
135.980999
 20
78.212651
 42
-0.036687
  0
VERTEX
  8
0
 10
137.566626
 20
79.616088
 42
-0.032752
  0
VERTEX
  8
0
 10
140.013452
 20
81.239179
 42
-0.072872
  0
VERTEX
  8
0
 10
142.089132
 20
82.055580
 42
-0.048848
  0
VERTEX
  8
0
 10
144.785742
 20
82.412593
 42
-0.008503
  0
VERTEX
  8
0
 10
149.925473
 20
82.500000
 42
-0.010382
  0
VERTEX
  8
0
 10
154.804182
 20
82.398689
 42
-0.039253
  0
VERTEX
  8
0
 10
157.834008
 20
82.033382
 42
-0.051240
  0
VERTEX
  8
0
 10
160.343297
 20
81.254841
 42
-0.027604
  0
VERTEX
  8
0
 10
163.250000
 20
79.820396
 42
0.000000
  0
VERTEX
  8
0
 10
168.000000
 20
77.140793
 42
0.000000
  0
VERTEX
  8
0
 10
168.000000
 20
83.909881
 42
0.032126
  0
VERTEX
  8
0
 10
167.684456
 20
88.815874
 42
0.174801
  0
VERTEX
  8
0
 10
166.486904
 20
91.147002
 42
0.118641
  0
VERTEX
  8
0
 10
163.821436
 20
92.651807
 42
0.011542
  0
VERTEX
  8
0
 10
156.601375
 20
94.531498
 42
0.018286
  0
VERTEX
  8
0
 10
151.594792
 20
95.520547
 42
0.040527
  0
VERTEX
  8
0
 10
147.718061
 20
95.821447
 42
0.038096
  0
VERTEX
  8
0
 10
143.698901
 20
95.500433
 42
0.014472
  0
SEQEND
  0
POLYLINE
  8
0
 66
1
 70
1
  0
VERTEX
  8
0
 10
13.000000
 20
61.076462
 42
0.000000
  0
VERTEX
  8
0
 10
13.000000
 20
28.000000
 42
0.000000
  0
VERTEX
  8
0
 10
22.000000
 20
28.000000
 42
0.000000
  0
VERTEX
  8
0
 10
31.000000
 20
28.000000
 42
0.000000
  0
VERTEX
  8
0
 10
31.000000
 20
40.000000
 42
0.000000
  0
VERTEX
  8
0
 10
31.000000
 20
52.000000
 42
0.000000
  0
VERTEX
  8
0
 10
34.934900
 20
52.000000
 42
-0.050321
  0
VERTEX
  8
0
 10
39.666045
 20
51.522637
 42
-0.134309
  0
VERTEX
  8
0
 10
42.666349
 20
50.005619
 42
-0.083974
  0
VERTEX
  8
0
 10
45.269309
 20
46.707163
 42
-0.012356
  0
VERTEX
  8
0
 10
49.179238
 20
39.119651
 42
0.000000
  0
VERTEX
  8
0
 10
54.500000
 20
28.135994
 42
0.000000
  0
VERTEX
  8
0
 10
63.782815
 20
28.067997
 42
0.000000
  0
VERTEX
  8
0
 10
73.065630
 20
28.000000
 42
0.000000
  0
VERTEX
  8
0
 10
66.806951
 20
40.136033
 42
0.009221
  0
VERTEX
  8
0
 10
62.651826
 20
47.840922
 42
0.025054
  0
VERTEX
  8
0
 10
59.341780
 20
53.084111
 42
0.035184
  0
VERTEX
  8
0
 10
56.522674
 20
56.545003
 42
0.100231
  0
VERTEX
  8
0
 10
54.000000
 20
58.334969
 42
-0.026512
  0
VERTEX
  8
0
 10
53.287191
 20
58.697344
 42
-0.223631
  0
VERTEX
  8
0
 10
53.086969
 20
58.985387
 42
-0.293340
  0
VERTEX
  8
0
 10
53.207319
 20
59.267480
 42
-0.040871
  0
VERTEX
  8
0
 10
53.786947
 20
59.595649
 42
0.059500
  0
VERTEX
  8
0
 10
55.996041
 20
60.957178
 42
0.024561
  0
VERTEX
  8
0
 10
58.640880
 20
63.278339
 42
0.024620
  0
VERTEX
  8
0
 10
61.056313
 20
65.860014
 42
0.056476
  0
VERTEX
  8
0
 10
62.535917
 20
68.069456
 42
0.083162
  0
VERTEX
  8
0
 10
63.672527
 20
71.601835
 42
0.042832
  0
VERTEX
  8
0
 10
63.950716
 20
76.252067
 42
0.042447
  0
VERTEX
  8
0
 10
63.424575
 20
80.985354
 42
0.069160
  0
VERTEX
  8
0
 10
62.103211
 20
84.797689
 42
0.046441
  0
VERTEX
  8
0
 10
61.030103
 20
86.492108
 42
0.032817
  0
VERTEX
  8
0
 10
59.538618
 20
88.182438
 42
0.031670
  0
VERTEX
  8
0
 10
57.767419
 20
89.732401
 42
0.033919
  0
VERTEX
  8
0
 10
55.853211
 20
91.007851
 42
0.047777
  0
VERTEX
  8
0
 10
52.677014
 20
92.443284
 42
0.052580
  0
VERTEX
  8
0
 10
49.386265
 20
93.192706
 42
0.023077
  0
VERTEX
  8
0
 10
44.279386
 20
93.564670
 42
0.002401
  0
VERTEX
  8
0
 10
32.250000
 20
93.826462
 42
0.000000
  0
VERTEX
  8
0
 10
13.000000
 20
94.152925
 42
0.000000
  0
SEQEND
  0
POLYLINE
  8
0
 66
1
 70
1
  0
VERTEX
  8
0
 10
44.961045
 20
79.811439
 42
-0.116260
  0
VERTEX
  8
0
 10
46.557958
 20
77.012923
 42
-0.074833
  0
VERTEX
  8
0
 10
47.072948
 20
73.295954
 42
-0.075795
  0
VERTEX
  8
0
 10
46.472349
 20
69.644277
 42
-0.127296
  0
VERTEX
  8
0
 10
44.811439
 20
67.038955
 42
-0.065059
  0
VERTEX
  8
0
 10
43.405203
 20
66.034841
 42
-0.063768
  0
VERTEX
  8
0
 10
41.778762
 20
65.417455
 42
-0.044494
  0
VERTEX
  8
0
 10
39.589292
 20
65.094382
 42
-0.014394
  0
VERTEX
  8
0
 10
36.311439
 20
65.000000
 42
0.000000
  0
VERTEX
  8
0
 10
30.000000
 20
65.000000
 42
0.000000
  0
VERTEX
  8
0
 10
30.000000
 20
73.500000
 42
0.000000
  0
VERTEX
  8
0
 10
30.000000
 20
82.000000
 42
0.000000
  0
VERTEX
  8
0
 10
36.461045
 20
82.000000
 42
-0.012728
  0
VERTEX
  8
0
 10
39.960403
 20
81.910909
 42
-0.050316
  0
VERTEX
  8
0
 10
42.086438
 20
81.586423
 42
-0.077494
  0
VERTEX
  8
0
 10
43.606711
 20
80.931651
 42
-0.064944
  0
SEQEND
  0
POLYLINE
  8
0
 66
1
 70
1
  0
VERTEX
  8
0
 10
83.000000
 20
61.500000
 42
0.000000
  0
VERTEX
  8
0
 10
83.000000
 20
29.000000
 42
0.000000
  0
VERTEX
  8
0
 10
91.500000
 20
29.000000
 42
0.000000
  0
VERTEX
  8
0
 10
100.000000
 20
29.000000
 42
0.000000
  0
VERTEX
  8
0
 10
100.000000
 20
61.500000
 42
0.000000
  0
VERTEX
  8
0
 10
100.000000
 20
94.000000
 42
0.000000
  0
VERTEX
  8
0
 10
91.500000
 20
94.000000
 42
0.000000
  0
VERTEX
  8
0
 10
83.000000
 20
94.000000
 42
0.000000
  0
SEQEND
  0
POLYLINE
  8
0
 66
1
 70
1
  0
VERTEX
  8
0
 10
182.000000
 20
61.500000
 42
0.000000
  0
VERTEX
  8
0
 10
182.000000
 20
29.000000
 42
0.000000
  0
VERTEX
  8
0
 10
190.500000
 20
29.000000
 42
0.000000
  0
VERTEX
  8
0
 10
199.000000
 20
29.000000
 42
0.000000
  0
VERTEX
  8
0
 10
199.058471
 20
52.250000
 42
0.000000
  0
VERTEX
  8
0
 10
199.116942
 20
75.500000
 42
0.000000
  0
VERTEX
  8
0
 10
201.937689
 20
68.500000
 42
0.004122
  0
VERTEX
  8
0
 10
203.333776
 20
65.116182
 42
0.001767
  0
VERTEX
  8
0
 10
205.251600
 20
60.618750
 42
0.001748
  0
VERTEX
  8
0
 10
207.328852
 20
55.840814
 42
0.002304
  0
VERTEX
  8
0
 10
209.258040
 20
51.500000
 42
0.000000
  0
VERTEX
  8
0
 10
213.757644
 20
41.500000
 42
0.000000
  0
VERTEX
  8
0
 10
219.075211
 20
41.500000
 42
0.000000
  0
VERTEX
  8
0
 10
224.392777
 20
41.500000
 42
0.000000
  0
VERTEX
  8
0
 10
231.446389
 20
58.000000
 42
0.000000
  0
VERTEX
  8
0
 10
238.500000
 20
74.500000
 42
0.000000
  0
VERTEX
  8
0
 10
238.768774
 20
51.750000
 42
0.000000
  0
VERTEX
  8
0
 10
239.037549
 20
29.000000
 42
0.000000
  0
VERTEX
  8
0
 10
247.518774
 20
29.000000
 42
0.000000
  0
VERTEX
  8
0
 10
256.000000
 20
29.000000
 42
0.000000
  0
VERTEX
  8
0
 10
256.000000
 20
61.500000
 42
0.000000
  0
VERTEX
  8
0
 10
256.000000
 20
94.000000
 42
0.000000
  0
VERTEX
  8
0
 10
245.009956
 20
94.000000
 42
0.000000
  0
VERTEX
  8
0
 10
234.019912
 20
94.000000
 42
0.000000
  0
VERTEX
  8
0
 10
230.945700
 20
87.250000
 42
0.003356
  0
VERTEX
  8
0
 10
229.482118
 20
83.978393
 42
0.001466
  0
VERTEX
  8
0
 10
227.582033
 20
79.618750
 42
0.001450
  0
VERTEX
  8
0
 10
225.590996
 20
74.976699
 42
0.001936
  0
VERTEX
  8
0
 10
223.811900
 20
70.750000
 42
-0.005637
  0
VERTEX
  8
0
 10
222.205978
 20
67.012342
 42
-0.009034
  0
VERTEX
  8
0
 10
220.742432
 20
63.864063
 42
-0.003487
  0
VERTEX
  8
0
 10
219.436668
 20
61.229821
 42
-0.283129
  0
VERTEX
  8
0
 10
219.063343
 20
61.000000
 42
-0.291652
  0
VERTEX
  8
0
 10
218.681644
 20
61.243347
 42
-0.001278
  0
VERTEX
  8
0
 10
216.552982
 20
65.846875
 42
-0.005426
  0
VERTEX
  8
0
 10
214.175893
 20
71.174022
 42
-0.003330
  0
VERTEX
  8
0
 10
211.484920
 20
77.500000
 42
0.000000
  0
VERTEX
  8
0
 10
204.595465
 20
94.000000
 42
0.000000
  0
VERTEX
  8
0
 10
193.297733
 20
94.000000
 42
0.000000
  0
VERTEX
  8
0
 10
182.000000
 20
94.000000
 42
0.000000
  0
SEQEND
  0
ENDSEC
  0
EOF
